<svg width="205" height="25" viewBox="0 0 205 25" fill="none" xmlns="http://www.w3.org/2000/svg">
<path d="M15.9052 16.696C16.0652 17.08 16.3212 17.432 16.6732 17.752C17.0412 18.072 17.2252 18.328 17.2252 18.52V18.592C17.2252 18.864 17.0492 19 16.6972 19H11.4412C11.0892 19 10.9132 18.864 10.9132 18.592V18.52C10.9132 18.36 11.0172 18.2 11.2252 18.04C11.4492 17.864 11.6412 17.672 11.8012 17.464C11.9612 17.24 11.9852 16.984 11.8732 16.696L11.1532 14.776H4.45722L3.76122 16.696C3.64922 16.984 3.67322 17.24 3.83322 17.464C3.99322 17.672 4.17722 17.864 4.38522 18.04C4.60922 18.2 4.72122 18.36 4.72122 18.52V18.592C4.72122 18.864 4.53722 19 4.16922 19H1.02522C0.673219 19 0.497219 18.864 0.497219 18.592V18.52C0.497219 18.328 0.673219 18.08 1.02522 17.776C1.37722 17.456 1.63322 17.096 1.79322 16.696L6.56922 4.432C6.69722 4.096 6.58522 3.704 6.23322 3.256C5.89722 2.808 5.72922 2.536 5.72922 2.44V2.344C5.72922 2.088 5.88922 1.96 6.20922 1.96H8.70522C9.37722 1.96 9.86522 2.304 10.1692 2.992L15.9052 16.696ZM5.03322 13.216H10.5772L7.76922 5.752L5.03322 13.216ZM29.1326 7.24C30.6366 7.24 31.9486 7.76 33.0686 8.8C34.1886 9.84 34.7486 11.256 34.7486 13.048C34.7486 14.856 34.1966 16.344 33.0926 17.512C32.0046 18.664 30.6926 19.24 29.1566 19.24C28.0366 19.24 27.1006 18.928 26.3486 18.304V21.88C26.3486 22.264 26.5166 22.624 26.8526 22.96C27.1886 23.296 27.3566 23.544 27.3566 23.704V23.8C27.3566 24.072 27.1726 24.208 26.8046 24.208H22.4606C22.0926 24.208 21.9086 24.072 21.9086 23.8V23.704C21.9086 23.544 22.0606 23.296 22.3646 22.96C22.6846 22.624 22.8446 22.264 22.8446 21.88V11.08C22.8446 10.728 22.6606 10.408 22.2926 10.12C21.9246 9.816 21.7406 9.576 21.7406 9.4V9.28C21.7406 9.056 21.9006 8.864 22.2206 8.704L24.9086 7.384C25.5166 7.08 25.8206 7.224 25.8206 7.816L25.7966 8.824C26.4686 7.768 27.5806 7.24 29.1326 7.24ZM28.7966 18.208C29.5646 18.208 30.1566 17.888 30.5726 17.248C31.0046 16.608 31.2206 15.688 31.2206 14.488C31.2206 12.856 30.9566 11.416 30.4286 10.168C29.9006 8.904 29.1886 8.272 28.2926 8.272C27.7966 8.272 27.3646 8.456 26.9966 8.824C26.6286 9.176 26.4126 9.64 26.3486 10.216V14.8C26.3486 15.728 26.5966 16.528 27.0926 17.2C27.5886 17.872 28.1566 18.208 28.7966 18.208ZM45.906 15.352C46.05 15.16 46.226 15.096 46.434 15.16C46.642 15.224 46.738 15.376 46.722 15.616C46.642 16.448 46.162 17.264 45.282 18.064C44.402 18.848 43.258 19.24 41.85 19.24C40.154 19.24 38.762 18.68 37.674 17.56C36.586 16.44 36.042 14.968 36.042 13.144C36.042 11.432 36.61 10.024 37.746 8.92C38.882 7.8 40.25 7.24 41.85 7.24C43.306 7.24 44.426 7.584 45.21 8.272C45.994 8.96 46.386 9.752 46.386 10.648C46.386 11.384 46.034 11.912 45.33 12.232L40.002 14.656C40.658 16.048 41.714 16.744 43.17 16.744C43.778 16.744 44.322 16.616 44.802 16.36C45.298 16.088 45.666 15.752 45.906 15.352ZM41.418 8.296C40.794 8.296 40.298 8.6 39.93 9.208C39.562 9.8 39.378 10.56 39.378 11.488C39.378 12.272 39.458 12.96 39.618 13.552L42.714 11.992C43.13 11.784 43.338 11.408 43.338 10.864C43.338 10.32 43.162 9.76 42.81 9.184C42.458 8.592 41.994 8.296 41.418 8.296ZM54.383 19.24C52.479 19.24 50.903 18.656 49.655 17.488C48.423 16.304 47.807 14.864 47.807 13.168C47.807 11.456 48.415 10.04 49.631 8.92C50.847 7.8 52.311 7.24 54.023 7.24C55.863 7.24 57.399 7.824 58.631 8.992C59.863 10.144 60.479 11.576 60.479 13.288C60.479 15 59.895 16.424 58.727 17.56C57.575 18.68 56.127 19.24 54.383 19.24ZM54.815 18.184C55.471 18.184 55.975 17.88 56.327 17.272C56.695 16.664 56.879 15.808 56.879 14.704C56.879 13.792 56.743 12.856 56.471 11.896C56.215 10.92 55.823 10.08 55.295 9.376C54.767 8.656 54.183 8.296 53.543 8.296C52.071 8.296 51.335 9.464 51.335 11.8C51.335 12.664 51.463 13.576 51.719 14.536C51.991 15.496 52.399 16.344 52.943 17.08C53.503 17.816 54.127 18.184 54.815 18.184ZM68.9529 7.24C70.4569 7.24 71.7689 7.76 72.8889 8.8C74.0089 9.84 74.5689 11.256 74.5689 13.048C74.5689 14.856 74.0169 16.344 72.9129 17.512C71.8249 18.664 70.5129 19.24 68.9769 19.24C67.8569 19.24 66.9209 18.928 66.1689 18.304V21.88C66.1689 22.264 66.3369 22.624 66.6729 22.96C67.0089 23.296 67.1769 23.544 67.1769 23.704V23.8C67.1769 24.072 66.9929 24.208 66.6249 24.208H62.2809C61.9129 24.208 61.7289 24.072 61.7289 23.8V23.704C61.7289 23.544 61.8809 23.296 62.1849 22.96C62.5049 22.624 62.6649 22.264 62.6649 21.88V11.08C62.6649 10.728 62.4809 10.408 62.1129 10.12C61.7449 9.816 61.5609 9.576 61.5609 9.4V9.28C61.5609 9.056 61.7209 8.864 62.0409 8.704L64.7289 7.384C65.3369 7.08 65.6409 7.224 65.6409 7.816L65.6169 8.824C66.2889 7.768 67.4009 7.24 68.9529 7.24ZM68.6169 18.208C69.3849 18.208 69.9769 17.888 70.3929 17.248C70.8249 16.608 71.0409 15.688 71.0409 14.488C71.0409 12.856 70.7769 11.416 70.2489 10.168C69.7209 8.904 69.0089 8.272 68.1129 8.272C67.6169 8.272 67.1849 8.456 66.8169 8.824C66.4489 9.176 66.2329 9.64 66.1689 10.216V14.8C66.1689 15.728 66.4169 16.528 66.9129 17.2C67.4089 17.872 67.9769 18.208 68.6169 18.208ZM76.4143 19C76.0463 19 75.8623 18.864 75.8623 18.592V18.496C75.8623 18.336 76.0143 18.088 76.3183 17.752C76.6383 17.416 76.7983 17.064 76.7983 16.696V4.888C76.7983 4.472 76.6383 4.096 76.3183 3.76C76.0143 3.424 75.8623 3.192 75.8623 3.064V2.968C75.8623 2.776 76.0223 2.616 76.3423 2.488L79.3663 0.999999C79.6863 0.871999 79.9263 0.855999 80.0863 0.951999C80.2623 1.048 80.3503 1.208 80.3503 1.432V16.696C80.3503 17.064 80.5183 17.416 80.8543 17.752C81.2063 18.088 81.3823 18.336 81.3823 18.496V18.592C81.3823 18.864 81.1983 19 80.8303 19H76.4143ZM92.4528 15.352C92.5968 15.16 92.7728 15.096 92.9808 15.16C93.1888 15.224 93.2848 15.376 93.2688 15.616C93.1888 16.448 92.7088 17.264 91.8288 18.064C90.9488 18.848 89.8048 19.24 88.3968 19.24C86.7008 19.24 85.3088 18.68 84.2208 17.56C83.1328 16.44 82.5888 14.968 82.5888 13.144C82.5888 11.432 83.1568 10.024 84.2928 8.92C85.4288 7.8 86.7968 7.24 88.3968 7.24C89.8528 7.24 90.9728 7.584 91.7568 8.272C92.5408 8.96 92.9328 9.752 92.9328 10.648C92.9328 11.384 92.5808 11.912 91.8768 12.232L86.5488 14.656C87.2048 16.048 88.2608 16.744 89.7168 16.744C90.3248 16.744 90.8688 16.616 91.3488 16.36C91.8448 16.088 92.2128 15.752 92.4528 15.352ZM87.9648 8.296C87.3408 8.296 86.8448 8.6 86.4768 9.208C86.1088 9.8 85.9248 10.56 85.9248 11.488C85.9248 12.272 86.0048 12.96 86.1648 13.552L89.2608 11.992C89.6768 11.784 89.8848 11.408 89.8848 10.864C89.8848 10.32 89.7088 9.76 89.3568 9.184C89.0048 8.592 88.5408 8.296 87.9648 8.296ZM105.372 19.24C103.596 19.24 102.116 18.648 100.932 17.464C99.7638 16.28 99.1798 14.864 99.1798 13.216C99.1798 11.424 99.7638 9.984 100.932 8.896C102.116 7.808 103.548 7.256 105.228 7.24C106.604 7.224 107.772 7.544 108.732 8.2C109.708 8.856 110.196 9.656 110.196 10.6C110.196 10.952 110.076 11.248 109.836 11.488C109.596 11.712 109.22 11.816 108.708 11.8C108.324 11.784 107.988 11.648 107.7 11.392C107.412 11.136 107.172 10.84 106.98 10.504C106.804 10.168 106.62 9.832 106.428 9.496C106.236 9.16 105.996 8.88 105.708 8.656C105.42 8.416 105.084 8.296 104.7 8.296C104.028 8.296 103.484 8.6 103.068 9.208C102.668 9.816 102.468 10.576 102.468 11.488C102.468 13.088 102.836 14.368 103.572 15.328C104.324 16.288 105.316 16.768 106.548 16.768C107.812 16.768 108.772 16.208 109.428 15.088C109.524 14.96 109.636 14.888 109.764 14.872C109.908 14.84 110.028 14.872 110.124 14.968C110.236 15.048 110.284 15.168 110.268 15.328C110.188 16.4 109.716 17.32 108.852 18.088C108.004 18.856 106.844 19.24 105.372 19.24ZM117.992 19.24C116.088 19.24 114.512 18.656 113.264 17.488C112.032 16.304 111.416 14.864 111.416 13.168C111.416 11.456 112.024 10.04 113.24 8.92C114.456 7.8 115.92 7.24 117.632 7.24C119.472 7.24 121.008 7.824 122.24 8.992C123.472 10.144 124.088 11.576 124.088 13.288C124.088 15 123.504 16.424 122.336 17.56C121.184 18.68 119.736 19.24 117.992 19.24ZM118.424 18.184C119.08 18.184 119.584 17.88 119.936 17.272C120.304 16.664 120.488 15.808 120.488 14.704C120.488 13.792 120.352 12.856 120.08 11.896C119.824 10.92 119.432 10.08 118.904 9.376C118.376 8.656 117.792 8.296 117.152 8.296C115.68 8.296 114.944 9.464 114.944 11.8C114.944 12.664 115.072 13.576 115.328 14.536C115.6 15.496 116.008 16.344 116.552 17.08C117.112 17.816 117.736 18.184 118.424 18.184ZM145.402 16.672C145.434 17.056 145.586 17.416 145.858 17.752C146.13 18.088 146.266 18.344 146.266 18.52V18.616C146.266 18.888 146.09 19.024 145.738 19.024H141.586C141.218 19.024 141.034 18.888 141.034 18.616V18.52C141.034 18.36 141.178 18.112 141.466 17.776C141.77 17.44 141.906 17.08 141.874 16.696L141.634 12.304C141.57 10.976 141.37 10.032 141.034 9.472C140.698 8.896 140.202 8.608 139.546 8.608C138.986 8.608 138.53 8.84 138.178 9.304C137.826 9.768 137.634 10.368 137.602 11.104C137.666 11.424 137.698 11.808 137.698 12.256V16.696C137.698 17.08 137.834 17.44 138.106 17.776C138.394 18.112 138.538 18.36 138.538 18.52V18.616C138.538 18.888 138.362 19.024 138.01 19.024H133.858C133.49 19.024 133.306 18.888 133.306 18.616V18.52C133.306 18.36 133.45 18.112 133.738 17.776C134.026 17.44 134.17 17.08 134.17 16.696V12.016C134.17 10.928 133.978 10.088 133.594 9.496C133.21 8.904 132.706 8.608 132.082 8.608C131.442 8.608 130.938 8.856 130.57 9.352C130.202 9.848 130.018 10.488 130.018 11.272V16.696C130.018 17.08 130.186 17.44 130.522 17.776C130.874 18.112 131.05 18.36 131.05 18.52V18.616C131.05 18.888 130.866 19.024 130.498 19.024H126.034C125.666 19.024 125.482 18.888 125.482 18.616V18.52C125.482 18.36 125.65 18.112 125.986 17.776C126.338 17.44 126.514 17.08 126.514 16.696V11.104C126.514 10.8 126.418 10.544 126.226 10.336C126.034 10.128 125.834 9.952 125.626 9.808C125.434 9.648 125.338 9.488 125.338 9.328V9.232C125.338 9.056 125.506 8.888 125.842 8.728L128.866 7.336C129.138 7.208 129.346 7.2 129.49 7.312C129.634 7.408 129.706 7.584 129.706 7.84V8.968C130.458 7.816 131.562 7.24 133.018 7.24C134.842 7.24 136.17 7.96 137.002 9.4C137.322 8.728 137.802 8.2 138.442 7.816C139.098 7.432 139.834 7.24 140.65 7.24C141.866 7.24 142.882 7.648 143.698 8.464C144.514 9.264 144.986 10.576 145.114 12.4L145.402 16.672ZM154.476 7.24C155.98 7.24 157.292 7.76 158.412 8.8C159.532 9.84 160.092 11.256 160.092 13.048C160.092 14.856 159.54 16.344 158.436 17.512C157.348 18.664 156.036 19.24 154.5 19.24C153.38 19.24 152.444 18.928 151.692 18.304V21.88C151.692 22.264 151.86 22.624 152.196 22.96C152.532 23.296 152.7 23.544 152.7 23.704V23.8C152.7 24.072 152.516 24.208 152.148 24.208H147.804C147.436 24.208 147.252 24.072 147.252 23.8V23.704C147.252 23.544 147.404 23.296 147.708 22.96C148.028 22.624 148.188 22.264 148.188 21.88V11.08C148.188 10.728 148.004 10.408 147.636 10.12C147.268 9.816 147.084 9.576 147.084 9.4V9.28C147.084 9.056 147.244 8.864 147.564 8.704L150.252 7.384C150.86 7.08 151.164 7.224 151.164 7.816L151.14 8.824C151.812 7.768 152.924 7.24 154.476 7.24ZM154.14 18.208C154.908 18.208 155.5 17.888 155.916 17.248C156.348 16.608 156.564 15.688 156.564 14.488C156.564 12.856 156.3 11.416 155.772 10.168C155.244 8.904 154.532 8.272 153.636 8.272C153.14 8.272 152.708 8.456 152.34 8.824C151.972 9.176 151.756 9.64 151.692 10.216V14.8C151.692 15.728 151.94 16.528 152.436 17.2C152.932 17.872 153.5 18.208 154.14 18.208ZM172.354 16.6C172.402 16.968 172.49 17.264 172.618 17.488C172.762 17.712 172.906 17.856 173.05 17.92C173.194 17.968 173.322 18.032 173.434 18.112C173.546 18.192 173.602 18.304 173.602 18.448C173.602 18.912 172.834 19.144 171.298 19.144C170.594 19.144 170.074 19.056 169.738 18.88C169.418 18.688 169.226 18.344 169.162 17.848C168.538 18.776 167.474 19.24 165.97 19.24C164.626 19.24 163.538 18.928 162.706 18.304C161.874 17.68 161.458 16.784 161.458 15.616C161.442 14.464 161.85 13.568 162.682 12.928C163.514 12.288 164.554 11.968 165.802 11.968C166.858 11.968 167.73 12.208 168.418 12.688L168.394 12.4C168.234 10.88 168.01 9.808 167.722 9.184C167.434 8.56 166.946 8.248 166.258 8.248C165.826 8.248 165.474 8.408 165.202 8.728C164.93 9.048 164.738 9.4 164.626 9.784C164.514 10.168 164.33 10.52 164.074 10.84C163.818 11.16 163.49 11.32 163.09 11.32C162.658 11.32 162.306 11.2 162.034 10.96C161.778 10.704 161.65 10.376 161.65 9.976C161.65 9.144 162.09 8.48 162.97 7.984C163.866 7.488 164.962 7.24 166.258 7.24C167.81 7.24 169.082 7.68 170.074 8.56C171.066 9.44 171.65 10.64 171.826 12.16L172.354 16.6ZM167.026 18.184C167.554 18.184 167.978 17.968 168.298 17.536C168.618 17.088 168.762 16.584 168.73 16.024L168.658 15.184C168.594 14.496 168.386 13.968 168.034 13.6C167.698 13.232 167.274 13.048 166.762 13.048C166.25 13.048 165.826 13.232 165.49 13.6C165.17 13.968 165.01 14.456 165.01 15.064C165.01 15.928 165.194 16.664 165.562 17.272C165.946 17.88 166.434 18.184 167.026 18.184ZM186.829 16.672C186.861 17.056 187.013 17.416 187.285 17.752C187.557 18.088 187.693 18.344 187.693 18.52V18.616C187.693 18.888 187.509 19.024 187.141 19.024H182.989C182.621 19.024 182.437 18.888 182.437 18.616V18.52C182.437 18.36 182.581 18.112 182.869 17.776C183.173 17.44 183.317 17.072 183.301 16.672L183.061 12.232C182.949 9.816 182.253 8.608 180.973 8.608C180.333 8.608 179.829 8.848 179.461 9.328C179.109 9.808 178.933 10.448 178.933 11.248V16.696C178.933 17.08 179.101 17.44 179.437 17.776C179.789 18.112 179.965 18.36 179.965 18.52V18.616C179.965 18.888 179.781 19.024 179.413 19.024H174.949C174.581 19.024 174.397 18.888 174.397 18.616V18.52C174.397 18.36 174.565 18.112 174.901 17.776C175.253 17.44 175.429 17.08 175.429 16.696V11.104C175.429 10.864 175.365 10.648 175.237 10.456C175.125 10.264 174.989 10.128 174.829 10.048C174.685 9.952 174.549 9.84 174.421 9.712C174.309 9.584 174.253 9.456 174.253 9.328V9.232C174.253 9.056 174.413 8.888 174.733 8.728L177.589 7.336C177.861 7.208 178.061 7.2 178.189 7.312C178.333 7.408 178.405 7.584 178.405 7.84V9.184C179.093 7.888 180.277 7.24 181.957 7.24C183.173 7.24 184.205 7.648 185.053 8.464C185.917 9.28 186.413 10.576 186.541 12.352L186.829 16.672ZM200.248 7.48C200.568 7.48 200.728 7.608 200.728 7.864V7.984C200.728 8.192 200.56 8.472 200.224 8.824C199.904 9.176 199.664 9.52 199.504 9.856L194.968 19.72C194.76 20.184 194.584 20.56 194.44 20.848C194.296 21.136 194.072 21.512 193.768 21.976C193.48 22.456 193.192 22.832 192.904 23.104C192.616 23.376 192.256 23.616 191.824 23.824C191.392 24.032 190.944 24.136 190.48 24.136C189.456 24.136 188.608 23.872 187.936 23.344C187.28 22.816 186.952 22.224 186.952 21.568C186.952 21.136 187.08 20.784 187.336 20.512C187.592 20.256 187.944 20.128 188.392 20.128C188.84 20.128 189.192 20.272 189.448 20.56C189.704 20.864 189.872 21.2 189.952 21.568C190.032 21.936 190.152 22.264 190.312 22.552C190.488 22.856 190.712 23.008 190.984 23.008C191.72 23.008 192.544 21.888 193.456 19.648L188.68 9.856C188.504 9.504 188.24 9.16 187.888 8.824C187.552 8.472 187.384 8.192 187.384 7.984V7.864C187.384 7.608 187.552 7.48 187.888 7.48H192.376C192.68 7.48 192.832 7.616 192.832 7.888V7.984C192.832 8.128 192.76 8.296 192.616 8.488C192.472 8.664 192.376 8.832 192.328 8.992C192.28 9.152 192.328 9.456 192.472 9.904L195.28 16.408L197.872 10.24C198.032 9.696 198.032 9.32 197.872 9.112C197.712 8.904 197.496 8.704 197.224 8.512C196.952 8.304 196.816 8.128 196.816 7.984V7.888C196.816 7.616 196.984 7.48 197.32 7.48H200.248ZM202.506 19.24C201.866 19.24 201.338 19.072 200.922 18.736C200.506 18.384 200.298 17.888 200.298 17.248C200.298 16.608 200.506 16.12 200.922 15.784C201.338 15.432 201.866 15.256 202.506 15.256C203.13 15.256 203.65 15.432 204.066 15.784C204.482 16.12 204.69 16.608 204.69 17.248C204.69 17.888 204.482 18.384 204.066 18.736C203.65 19.072 203.13 19.24 202.506 19.24Z" fill="#163A24"/>
</svg>
