<svg width="182" height="17" viewBox="0 0 182 17" fill="none" xmlns="http://www.w3.org/2000/svg">
<path d="M4.19881 1.576C5.62815 1.576 6.70548 1.78933 7.43081 2.216C8.16681 2.632 8.53481 3.36267 8.53481 4.408C8.53481 5.08 8.34815 5.64 7.97481 6.088C7.60148 6.52533 7.06281 6.808 6.35881 6.936V7.016C6.83881 7.09067 7.27081 7.22933 7.65481 7.432C8.04948 7.63467 8.35881 7.92267 8.58281 8.296C8.80681 8.66933 8.91881 9.15467 8.91881 9.752C8.91881 10.7867 8.56148 11.5867 7.84681 12.152C7.14281 12.7173 6.17748 13 4.95081 13H0.934813V1.576H4.19881ZM4.48681 6.44C5.46815 6.44 6.14015 6.28533 6.50281 5.976C6.86548 5.656 7.04681 5.18667 7.04681 4.568C7.04681 3.93867 6.82281 3.49067 6.37481 3.224C5.93748 2.94667 5.23348 2.808 4.26281 2.808H2.37481V6.44H4.48681ZM2.37481 7.64V11.784H4.67881C5.69215 11.784 6.39615 11.5867 6.79081 11.192C7.18548 10.7973 7.38281 10.28 7.38281 9.64C7.38281 9.04267 7.17481 8.56267 6.75881 8.2C6.35348 7.82667 5.62281 7.64 4.56681 7.64H2.37481ZM18.6051 8.696C18.6051 10.1147 18.2424 11.2133 17.5171 11.992C16.8024 12.7707 15.8317 13.16 14.6051 13.16C13.8477 13.16 13.1704 12.9893 12.5731 12.648C11.9864 12.296 11.5224 11.7893 11.1811 11.128C10.8397 10.456 10.6691 9.64533 10.6691 8.696C10.6691 7.27733 11.0264 6.184 11.7411 5.416C12.4557 4.648 13.4264 4.264 14.6531 4.264C15.4317 4.264 16.1144 4.44 16.7011 4.792C17.2984 5.13333 17.7624 5.63467 18.0931 6.296C18.4344 6.94667 18.6051 7.74667 18.6051 8.696ZM12.1251 8.696C12.1251 9.70933 12.3224 10.5147 12.7171 11.112C13.1224 11.6987 13.7624 11.992 14.6371 11.992C15.5011 11.992 16.1357 11.6987 16.5411 11.112C16.9464 10.5147 17.1491 9.70933 17.1491 8.696C17.1491 7.68267 16.9464 6.888 16.5411 6.312C16.1357 5.736 15.4957 5.448 14.6211 5.448C13.7464 5.448 13.1117 5.736 12.7171 6.312C12.3224 6.888 12.1251 7.68267 12.1251 8.696ZM28.2926 8.696C28.2926 10.1147 27.9299 11.2133 27.2046 11.992C26.4899 12.7707 25.5192 13.16 24.2926 13.16C23.5352 13.16 22.8579 12.9893 22.2606 12.648C21.6739 12.296 21.2099 11.7893 20.8686 11.128C20.5272 10.456 20.3566 9.64533 20.3566 8.696C20.3566 7.27733 20.7139 6.184 21.4286 5.416C22.1432 4.648 23.1139 4.264 24.3406 4.264C25.1192 4.264 25.8019 4.44 26.3886 4.792C26.9859 5.13333 27.4499 5.63467 27.7806 6.296C28.1219 6.94667 28.2926 7.74667 28.2926 8.696ZM21.8126 8.696C21.8126 9.70933 22.0099 10.5147 22.4046 11.112C22.8099 11.6987 23.4499 11.992 24.3246 11.992C25.1886 11.992 25.8232 11.6987 26.2286 11.112C26.6339 10.5147 26.8366 9.70933 26.8366 8.696C26.8366 7.68267 26.6339 6.888 26.2286 6.312C25.8232 5.736 25.1832 5.448 24.3086 5.448C23.4339 5.448 22.7992 5.736 22.4046 6.312C22.0099 6.888 21.8126 7.68267 21.8126 8.696ZM31.9161 7.192C31.9161 7.36267 31.9054 7.58667 31.8841 7.864C31.8734 8.14133 31.8627 8.38133 31.8521 8.584H31.9161C31.9801 8.49867 32.0761 8.376 32.2041 8.216C32.3321 8.056 32.4601 7.896 32.5881 7.736C32.7267 7.56533 32.8441 7.42667 32.9401 7.32L35.6761 4.424H37.3241L33.8521 8.088L37.5641 13H35.8681L32.8921 9L31.9161 9.848V13H30.5241V0.839999H31.9161V7.192ZM44.8592 13H43.4192V1.576H49.8032V2.84H44.8592V6.888H49.4992V8.152H44.8592V13ZM55.5241 4.264C55.6841 4.264 55.8547 4.27467 56.0361 4.296C56.2281 4.30667 56.3934 4.328 56.5321 4.36L56.3561 5.656C56.2174 5.624 56.0627 5.59733 55.8921 5.576C55.7321 5.55467 55.5774 5.544 55.4281 5.544C54.9907 5.544 54.5801 5.66667 54.1961 5.912C53.8121 6.14667 53.5027 6.48267 53.2681 6.92C53.0441 7.34667 52.9321 7.848 52.9321 8.424V13H51.5241V4.424H52.6761L52.8361 5.992H52.9001C53.1774 5.52267 53.5347 5.11733 53.9721 4.776C54.4094 4.43467 54.9267 4.264 55.5241 4.264ZM61.1329 4.264C61.8689 4.264 62.4983 4.424 63.0209 4.744C63.5543 5.064 63.9596 5.51733 64.2369 6.104C64.5249 6.68 64.6689 7.35733 64.6689 8.136V8.984H58.7969C58.8183 9.95467 59.0636 10.696 59.5329 11.208C60.0129 11.7093 60.6796 11.96 61.5329 11.96C62.0769 11.96 62.5569 11.912 62.9729 11.816C63.3996 11.7093 63.8369 11.56 64.2849 11.368V12.6C63.8476 12.792 63.4156 12.9307 62.9889 13.016C62.5623 13.112 62.0556 13.16 61.4689 13.16C60.6583 13.16 59.9383 12.9947 59.3089 12.664C58.6903 12.3333 58.2049 11.8427 57.8529 11.192C57.5116 10.5307 57.3409 9.72533 57.3409 8.776C57.3409 7.83733 57.4956 7.032 57.8049 6.36C58.1249 5.688 58.5676 5.17067 59.1329 4.808C59.7089 4.44533 60.3756 4.264 61.1329 4.264ZM61.1169 5.416C60.4449 5.416 59.9116 5.63467 59.5169 6.072C59.1329 6.49867 58.9036 7.096 58.8289 7.864H63.1969C63.1863 7.13867 63.0156 6.552 62.6849 6.104C62.3543 5.64533 61.8316 5.416 61.1169 5.416ZM70.1642 4.264C70.9002 4.264 71.5295 4.424 72.0522 4.744C72.5855 5.064 72.9909 5.51733 73.2682 6.104C73.5562 6.68 73.7002 7.35733 73.7002 8.136V8.984H67.8282C67.8495 9.95467 68.0949 10.696 68.5642 11.208C69.0442 11.7093 69.7109 11.96 70.5642 11.96C71.1082 11.96 71.5882 11.912 72.0042 11.816C72.4309 11.7093 72.8682 11.56 73.3162 11.368V12.6C72.8789 12.792 72.4469 12.9307 72.0202 13.016C71.5935 13.112 71.0869 13.16 70.5002 13.16C69.6895 13.16 68.9695 12.9947 68.3402 12.664C67.7215 12.3333 67.2362 11.8427 66.8842 11.192C66.5429 10.5307 66.3722 9.72533 66.3722 8.776C66.3722 7.83733 66.5269 7.032 66.8362 6.36C67.1562 5.688 67.5989 5.17067 68.1642 4.808C68.7402 4.44533 69.4069 4.264 70.1642 4.264ZM70.1482 5.416C69.4762 5.416 68.9429 5.63467 68.5482 6.072C68.1642 6.49867 67.9349 7.096 67.8602 7.864H72.2282C72.2175 7.13867 72.0469 6.552 71.7162 6.104C71.3855 5.64533 70.8629 5.416 70.1482 5.416ZM89.3837 7.176C89.3837 9.10667 88.8557 10.5627 87.7997 11.544C86.7544 12.5147 85.293 13 83.4157 13H80.2317V1.576H83.7517C84.9037 1.576 85.901 1.78933 86.7437 2.216C87.5864 2.64267 88.237 3.272 88.6957 4.104C89.1544 4.92533 89.3837 5.94933 89.3837 7.176ZM87.8637 7.224C87.8637 5.69867 87.485 4.584 86.7277 3.88C85.981 3.16533 84.9197 2.808 83.5437 2.808H81.6717V11.768H83.2237C86.317 11.768 87.8637 10.2533 87.8637 7.224ZM92.4472 1.208C92.6605 1.208 92.8472 1.28267 93.0072 1.432C93.1779 1.57067 93.2632 1.79467 93.2632 2.104C93.2632 2.40267 93.1779 2.62667 93.0072 2.776C92.8472 2.92533 92.6605 3 92.4472 3C92.2125 3 92.0152 2.92533 91.8552 2.776C91.6952 2.62667 91.6152 2.40267 91.6152 2.104C91.6152 1.79467 91.6952 1.57067 91.8552 1.432C92.0152 1.28267 92.2125 1.208 92.4472 1.208ZM93.1352 4.424V13H91.7272V4.424H93.1352ZM101.436 10.632C101.436 11.464 101.127 12.0933 100.508 12.52C99.8895 12.9467 99.0575 13.16 98.0122 13.16C97.4149 13.16 96.8975 13.112 96.4602 13.016C96.0335 12.92 95.6549 12.7867 95.3242 12.616V11.336C95.6655 11.5067 96.0762 11.6667 96.5562 11.816C97.0469 11.9547 97.5429 12.024 98.0442 12.024C98.7589 12.024 99.2762 11.912 99.5962 11.688C99.9162 11.4533 100.076 11.144 100.076 10.76C100.076 10.5467 100.018 10.3547 99.9002 10.184C99.7829 10.0133 99.5695 9.84267 99.2602 9.672C98.9615 9.50133 98.5295 9.30933 97.9642 9.096C97.4095 8.88267 96.9349 8.66933 96.5402 8.456C96.1455 8.24267 95.8415 7.98667 95.6282 7.688C95.4149 7.38933 95.3082 7.00533 95.3082 6.536C95.3082 5.81067 95.6015 5.25067 96.1882 4.856C96.7855 4.46133 97.5642 4.264 98.5242 4.264C99.0469 4.264 99.5322 4.31733 99.9802 4.424C100.439 4.52 100.866 4.65867 101.26 4.84L100.78 5.96C100.418 5.81067 100.039 5.68267 99.6442 5.576C99.2495 5.46933 98.8442 5.416 98.4282 5.416C97.8522 5.416 97.4095 5.512 97.1002 5.704C96.8015 5.88533 96.6522 6.136 96.6522 6.456C96.6522 6.69067 96.7215 6.89333 96.8602 7.064C96.9989 7.224 97.2282 7.384 97.5482 7.544C97.8789 7.69333 98.3162 7.87467 98.8602 8.088C99.4042 8.29067 99.8682 8.49867 100.252 8.712C100.636 8.92533 100.93 9.18667 101.132 9.496C101.335 9.79467 101.436 10.1733 101.436 10.632ZM106.948 13.16C106.191 13.16 105.514 13.0053 104.916 12.696C104.33 12.3867 103.866 11.9067 103.524 11.256C103.194 10.6053 103.028 9.77333 103.028 8.76C103.028 7.704 103.204 6.84533 103.556 6.184C103.908 5.52267 104.383 5.03733 104.98 4.728C105.588 4.41867 106.276 4.264 107.044 4.264C107.482 4.264 107.903 4.312 108.308 4.408C108.714 4.49333 109.044 4.6 109.3 4.728L108.868 5.896C108.612 5.8 108.314 5.70933 107.972 5.624C107.631 5.53867 107.311 5.496 107.012 5.496C105.327 5.496 104.484 6.57867 104.484 8.744C104.484 9.77867 104.687 10.5733 105.092 11.128C105.508 11.672 106.122 11.944 106.932 11.944C107.402 11.944 107.812 11.896 108.164 11.8C108.527 11.704 108.858 11.5867 109.156 11.448V12.696C108.868 12.8453 108.548 12.9573 108.196 13.032C107.855 13.1173 107.439 13.16 106.948 13.16ZM118.652 8.696C118.652 10.1147 118.289 11.2133 117.564 11.992C116.849 12.7707 115.879 13.16 114.652 13.16C113.895 13.16 113.217 12.9893 112.62 12.648C112.033 12.296 111.569 11.7893 111.228 11.128C110.887 10.456 110.716 9.64533 110.716 8.696C110.716 7.27733 111.073 6.184 111.788 5.416C112.503 4.648 113.473 4.264 114.7 4.264C115.479 4.264 116.161 4.44 116.748 4.792C117.345 5.13333 117.809 5.63467 118.14 6.296C118.481 6.94667 118.652 7.74667 118.652 8.696ZM112.172 8.696C112.172 9.70933 112.369 10.5147 112.764 11.112C113.169 11.6987 113.809 11.992 114.684 11.992C115.548 11.992 116.183 11.6987 116.588 11.112C116.993 10.5147 117.196 9.70933 117.196 8.696C117.196 7.68267 116.993 6.888 116.588 6.312C116.183 5.736 115.543 5.448 114.668 5.448C113.793 5.448 113.159 5.736 112.764 6.312C112.369 6.888 112.172 7.68267 112.172 8.696ZM122.459 13L119.211 4.424H120.715L122.539 9.48C122.624 9.71467 122.715 9.976 122.811 10.264C122.907 10.552 122.992 10.8293 123.067 11.096C123.142 11.352 123.195 11.5707 123.227 11.752H123.291C123.334 11.5707 123.392 11.3467 123.467 11.08C123.552 10.8133 123.643 10.536 123.739 10.248C123.846 9.96 123.936 9.704 124.011 9.48L125.835 4.424H127.339L124.075 13H122.459ZM132.008 4.264C132.744 4.264 133.373 4.424 133.896 4.744C134.429 5.064 134.835 5.51733 135.112 6.104C135.4 6.68 135.544 7.35733 135.544 8.136V8.984H129.672C129.693 9.95467 129.939 10.696 130.408 11.208C130.888 11.7093 131.555 11.96 132.408 11.96C132.952 11.96 133.432 11.912 133.848 11.816C134.275 11.7093 134.712 11.56 135.16 11.368V12.6C134.723 12.792 134.291 12.9307 133.864 13.016C133.437 13.112 132.931 13.16 132.344 13.16C131.533 13.16 130.813 12.9947 130.184 12.664C129.565 12.3333 129.08 11.8427 128.728 11.192C128.387 10.5307 128.216 9.72533 128.216 8.776C128.216 7.83733 128.371 7.032 128.68 6.36C129 5.688 129.443 5.17067 130.008 4.808C130.584 4.44533 131.251 4.264 132.008 4.264ZM131.992 5.416C131.32 5.416 130.787 5.63467 130.392 6.072C130.008 6.49867 129.779 7.096 129.704 7.864H134.072C134.061 7.13867 133.891 6.552 133.56 6.104C133.229 5.64533 132.707 5.416 131.992 5.416ZM141.727 4.264C141.887 4.264 142.058 4.27467 142.239 4.296C142.431 4.30667 142.597 4.328 142.735 4.36L142.559 5.656C142.421 5.624 142.266 5.59733 142.095 5.576C141.935 5.55467 141.781 5.544 141.631 5.544C141.194 5.544 140.783 5.66667 140.399 5.912C140.015 6.14667 139.706 6.48267 139.471 6.92C139.247 7.34667 139.135 7.848 139.135 8.424V13H137.727V4.424H138.879L139.039 5.992H139.103C139.381 5.52267 139.738 5.11733 140.175 4.776C140.613 4.43467 141.13 4.264 141.727 4.264ZM142.993 4.424H144.497L146.353 9.304C146.513 9.73067 146.657 10.1413 146.785 10.536C146.913 10.92 147.009 11.288 147.073 11.64H147.137C147.201 11.3733 147.302 11.0267 147.441 10.6C147.579 10.1627 147.723 9.72533 147.873 9.288L149.617 4.424H151.137L147.441 14.184C147.142 14.9947 146.753 15.64 146.273 16.12C145.803 16.6 145.153 16.84 144.321 16.84C144.065 16.84 143.841 16.824 143.649 16.792C143.457 16.7707 143.291 16.744 143.153 16.712V15.592C143.27 15.6133 143.409 15.6347 143.569 15.656C143.739 15.6773 143.915 15.688 144.097 15.688C144.587 15.688 144.982 15.5493 145.281 15.272C145.59 14.9947 145.83 14.6267 146.001 14.168L146.449 13.032L142.993 4.424ZM161.737 2.68C160.51 2.68 159.545 3.09067 158.841 3.912C158.137 4.73333 157.785 5.85867 157.785 7.288C157.785 8.70667 158.11 9.832 158.761 10.664C159.422 11.4853 160.409 11.896 161.721 11.896C162.222 11.896 162.697 11.8533 163.145 11.768C163.593 11.6827 164.03 11.576 164.457 11.448V12.696C164.03 12.856 163.588 12.9733 163.129 13.048C162.681 13.1227 162.142 13.16 161.513 13.16C160.35 13.16 159.38 12.92 158.601 12.44C157.822 11.96 157.236 11.2773 156.841 10.392C156.457 9.50667 156.265 8.46667 156.265 7.272C156.265 6.12 156.473 5.10667 156.889 4.232C157.316 3.34667 157.94 2.65867 158.761 2.168C159.582 1.66667 160.58 1.416 161.753 1.416C162.958 1.416 164.009 1.64 164.905 2.088L164.329 3.304C163.977 3.144 163.582 3 163.145 2.872C162.718 2.744 162.249 2.68 161.737 2.68ZM170.006 4.28C171.052 4.28 171.825 4.50933 172.326 4.968C172.828 5.42667 173.078 6.15733 173.078 7.16V13H172.054L171.782 11.784H171.718C171.345 12.2533 170.95 12.6 170.534 12.824C170.129 13.048 169.564 13.16 168.838 13.16C168.06 13.16 167.414 12.9573 166.902 12.552C166.39 12.136 166.134 11.4907 166.134 10.616C166.134 9.76267 166.47 9.10667 167.142 8.648C167.814 8.17867 168.849 7.92267 170.246 7.88L171.702 7.832V7.32C171.702 6.60533 171.548 6.10933 171.238 5.832C170.929 5.55467 170.492 5.416 169.926 5.416C169.478 5.416 169.052 5.48533 168.646 5.624C168.241 5.752 167.862 5.90133 167.51 6.072L167.078 5.016C167.452 4.81333 167.894 4.64267 168.406 4.504C168.918 4.35467 169.452 4.28 170.006 4.28ZM170.422 8.856C169.356 8.89867 168.614 9.06933 168.198 9.368C167.793 9.66667 167.59 10.088 167.59 10.632C167.59 11.112 167.734 11.464 168.022 11.688C168.321 11.912 168.7 12.024 169.158 12.024C169.884 12.024 170.486 11.8267 170.966 11.432C171.446 11.0267 171.686 10.408 171.686 9.576V8.808L170.422 8.856ZM177.135 13H175.727V0.839999H177.135V13ZM181.26 13H179.852V0.839999H181.26V13Z" fill="#FBFAF7"/>
</svg>
