<svg width="509" height="36" viewBox="0 0 509 36" fill="none" xmlns="http://www.w3.org/2000/svg">
<path d="M3.214 1.004C4.46467 1.004 5.40733 1.19067 6.042 1.564C6.686 1.928 7.008 2.56733 7.008 3.482C7.008 4.07 6.84467 4.56 6.518 4.952C6.19133 5.33467 5.72 5.582 5.104 5.694V5.764C5.524 5.82933 5.902 5.95067 6.238 6.128C6.58333 6.30533 6.854 6.55733 7.05 6.884C7.246 7.21067 7.344 7.63533 7.344 8.158C7.344 9.06333 7.03133 9.76333 6.406 10.258C5.79 10.7527 4.94533 11 3.872 11H0.358V1.004H3.214ZM3.466 5.26C4.32467 5.26 4.91267 5.12467 5.23 4.854C5.54733 4.574 5.706 4.16333 5.706 3.622C5.706 3.07133 5.51 2.67933 5.118 2.446C4.73533 2.20333 4.11933 2.082 3.27 2.082H1.618V5.26H3.466ZM1.618 6.31V9.936H3.634C4.52067 9.936 5.13667 9.76333 5.482 9.418C5.82733 9.07267 6 8.62 6 8.06C6 7.53733 5.818 7.11733 5.454 6.8C5.09933 6.47333 4.46 6.31 3.536 6.31H1.618ZM8.11947 3.496H9.43547L11.0595 7.766C11.1995 8.13933 11.3255 8.49867 11.4375 8.844C11.5495 9.18 11.6335 9.502 11.6895 9.81H11.7455C11.8015 9.57667 11.8901 9.27333 12.0115 8.9C12.1328 8.51733 12.2588 8.13467 12.3895 7.752L13.9155 3.496H15.2455L12.0115 12.036C11.7501 12.7453 11.4095 13.31 10.9895 13.73C10.5788 14.15 10.0095 14.36 9.28147 14.36C9.05747 14.36 8.86147 14.346 8.69347 14.318C8.52547 14.2993 8.3808 14.276 8.25947 14.248V13.268C8.36214 13.2867 8.48347 13.3053 8.62347 13.324C8.7728 13.3427 8.9268 13.352 9.08547 13.352C9.5148 13.352 9.86014 13.2307 10.1215 12.988C10.3921 12.7453 10.6021 12.4233 10.7515 12.022L11.1435 11.028L8.11947 3.496ZM24.9549 8.928C24.9549 9.656 24.6842 10.2067 24.1429 10.58C23.6016 10.9533 22.8736 11.14 21.9589 11.14C21.4362 11.14 20.9836 11.098 20.6009 11.014C20.2276 10.93 19.8962 10.8133 19.6069 10.664V9.544C19.9056 9.69333 20.2649 9.83333 20.6849 9.964C21.1142 10.0853 21.5482 10.146 21.9869 10.146C22.6122 10.146 23.0649 10.048 23.3449 9.852C23.6249 9.64667 23.7649 9.376 23.7649 9.04C23.7649 8.85333 23.7136 8.68533 23.6109 8.536C23.5082 8.38667 23.3216 8.23733 23.0509 8.088C22.7896 7.93867 22.4116 7.77067 21.9169 7.584C21.4316 7.39733 21.0162 7.21067 20.6709 7.024C20.3256 6.83733 20.0596 6.61333 19.8729 6.352C19.6862 6.09067 19.5929 5.75467 19.5929 5.344C19.5929 4.70933 19.8496 4.21933 20.3629 3.874C20.8856 3.52867 21.5669 3.356 22.4069 3.356C22.8642 3.356 23.2889 3.40267 23.6809 3.496C24.0822 3.58 24.4556 3.70133 24.8009 3.86L24.3809 4.84C24.0636 4.70933 23.7322 4.59733 23.3869 4.504C23.0416 4.41067 22.6869 4.364 22.3229 4.364C21.8189 4.364 21.4316 4.448 21.1609 4.616C20.8996 4.77467 20.7689 4.994 20.7689 5.274C20.7689 5.47933 20.8296 5.65667 20.9509 5.806C21.0722 5.946 21.2729 6.086 21.5529 6.226C21.8422 6.35667 22.2249 6.51533 22.7009 6.702C23.1769 6.87933 23.5829 7.06133 23.9189 7.248C24.2549 7.43467 24.5116 7.66333 24.6889 7.934C24.8662 8.19533 24.9549 8.52667 24.9549 8.928ZM33.0401 3.496V11H32.0321L31.8501 10.006H31.7941C31.5515 10.398 31.2155 10.6873 30.7861 10.874C30.3568 11.0513 29.8995 11.14 29.4141 11.14C28.5088 11.14 27.8275 10.9253 27.3701 10.496C26.9128 10.0573 26.6841 9.362 26.6841 8.41V3.496H27.9301V8.326C27.9301 9.52067 28.4855 10.118 29.5961 10.118C30.4268 10.118 31.0008 9.88467 31.3181 9.418C31.6448 8.95133 31.8081 8.27933 31.8081 7.402V3.496H33.0401ZM36.6544 2.95C36.6544 3.26733 36.6451 3.566 36.6264 3.846C36.6171 4.11667 36.6031 4.33133 36.5844 4.49H36.6544C36.8691 4.17267 37.1631 3.90667 37.5364 3.692C37.9098 3.47733 38.3904 3.37 38.9784 3.37C39.9118 3.37 40.6584 3.69667 41.2184 4.35C41.7878 4.994 42.0724 5.96 42.0724 7.248C42.0724 8.536 41.7878 9.50667 41.2184 10.16C40.6491 10.8133 39.9024 11.14 38.9784 11.14C38.3904 11.14 37.9098 11.0327 37.5364 10.818C37.1631 10.6033 36.8691 10.3467 36.6544 10.048H36.5564L36.3044 11H35.4224V0.359999H36.6544V2.95ZM38.7684 4.392C37.9751 4.392 37.4244 4.62067 37.1164 5.078C36.8084 5.53533 36.6544 6.24467 36.6544 7.206V7.262C36.6544 8.186 36.8038 8.89533 37.1024 9.39C37.4104 9.87533 37.9751 10.118 38.7964 10.118C39.4684 10.118 39.9678 9.87067 40.2944 9.376C40.6304 8.88133 40.7984 8.16733 40.7984 7.234C40.7984 5.33933 40.1218 4.392 38.7684 4.392ZM52.2677 3.356C53.117 3.356 53.7517 3.57533 54.1717 4.014C54.5917 4.44333 54.8017 5.14333 54.8017 6.114V11H53.5837V6.17C53.5837 4.98467 53.075 4.392 52.0577 4.392C51.3297 4.392 50.807 4.602 50.4897 5.022C50.1817 5.442 50.0277 6.05333 50.0277 6.856V11H48.8097V6.17C48.8097 4.98467 48.2964 4.392 47.2697 4.392C46.5137 4.392 45.991 4.62533 45.7017 5.092C45.4124 5.55867 45.2677 6.23067 45.2677 7.108V11H44.0357V3.496H45.0297L45.2117 4.518H45.2817C45.515 4.126 45.8277 3.83667 46.2197 3.65C46.621 3.454 47.0457 3.356 47.4937 3.356C48.6697 3.356 49.435 3.776 49.7897 4.616H49.8597C50.1117 4.18667 50.4524 3.86933 50.8817 3.664C51.3204 3.45867 51.7824 3.356 52.2677 3.356ZM57.7497 0.681999C57.9364 0.681999 58.0997 0.747333 58.2397 0.877999C58.389 0.999333 58.4637 1.19533 58.4637 1.466C58.4637 1.72733 58.389 1.92333 58.2397 2.054C58.0997 2.18467 57.9364 2.25 57.7497 2.25C57.5444 2.25 57.3717 2.18467 57.2317 2.054C57.0917 1.92333 57.0217 1.72733 57.0217 1.466C57.0217 1.19533 57.0917 0.999333 57.2317 0.877999C57.3717 0.747333 57.5444 0.681999 57.7497 0.681999ZM58.3517 3.496V11H57.1197V3.496H58.3517ZM63.2351 10.132C63.4217 10.132 63.6131 10.118 63.8091 10.09C64.0051 10.0527 64.1637 10.0153 64.2851 9.978V10.916C64.1544 10.9813 63.9677 11.0327 63.7251 11.07C63.4824 11.1167 63.2491 11.14 63.0251 11.14C62.6331 11.14 62.2691 11.0747 61.9331 10.944C61.6064 10.804 61.3404 10.566 61.1351 10.23C60.9297 9.894 60.8271 9.42267 60.8271 8.816V4.448H59.7631V3.86L60.8411 3.37L61.3311 1.774H62.0591V3.496H64.2291V4.448H62.0591V8.788C62.0591 9.24533 62.1664 9.586 62.3811 9.81C62.6051 10.0247 62.8897 10.132 63.2351 10.132ZM68.2937 10.132C68.4803 10.132 68.6717 10.118 68.8677 10.09C69.0637 10.0527 69.2223 10.0153 69.3437 9.978V10.916C69.213 10.9813 69.0263 11.0327 68.7837 11.07C68.541 11.1167 68.3077 11.14 68.0837 11.14C67.6917 11.14 67.3277 11.0747 66.9917 10.944C66.665 10.804 66.399 10.566 66.1937 10.23C65.9883 9.894 65.8857 9.42267 65.8857 8.816V4.448H64.8217V3.86L65.8997 3.37L66.3897 1.774H67.1177V3.496H69.2877V4.448H67.1177V8.788C67.1177 9.24533 67.225 9.586 67.4397 9.81C67.6637 10.0247 67.9483 10.132 68.2937 10.132ZM71.4763 0.681999C71.6629 0.681999 71.8263 0.747333 71.9663 0.877999C72.1156 0.999333 72.1903 1.19533 72.1903 1.466C72.1903 1.72733 72.1156 1.92333 71.9663 2.054C71.8263 2.18467 71.6629 2.25 71.4763 2.25C71.2709 2.25 71.0983 2.18467 70.9583 2.054C70.8183 1.92333 70.7483 1.72733 70.7483 1.466C70.7483 1.19533 70.8183 0.999333 70.9583 0.877999C71.0983 0.747333 71.2709 0.681999 71.4763 0.681999ZM72.0783 3.496V11H70.8463V3.496H72.0783ZM78.0676 3.356C78.9636 3.356 79.6403 3.57533 80.0976 4.014C80.555 4.44333 80.7836 5.14333 80.7836 6.114V11H79.5656V6.198C79.5656 4.994 79.0056 4.392 77.8856 4.392C77.055 4.392 76.481 4.62533 76.1636 5.092C75.8463 5.55867 75.6876 6.23067 75.6876 7.108V11H74.4556V3.496H75.4496L75.6316 4.518H75.7016C75.9443 4.126 76.2803 3.83667 76.7096 3.65C77.139 3.454 77.5916 3.356 78.0676 3.356ZM85.7699 3.356C86.2646 3.356 86.7079 3.44933 87.0999 3.636C87.5013 3.82267 87.8419 4.10733 88.1219 4.49H88.1919L88.3599 3.496H89.3399V11.126C89.3399 12.1993 89.0646 13.0067 88.5139 13.548C87.9726 14.0893 87.1279 14.36 85.9799 14.36C84.8786 14.36 83.9779 14.2013 83.2779 13.884V12.75C84.0153 13.142 84.9393 13.338 86.0499 13.338C86.6939 13.338 87.1979 13.1467 87.5619 12.764C87.9353 12.3907 88.1219 11.8773 88.1219 11.224V10.93C88.1219 10.818 88.1266 10.6593 88.1359 10.454C88.1453 10.2393 88.1546 10.09 88.1639 10.006H88.1079C87.6039 10.762 86.8293 11.14 85.7839 11.14C84.8133 11.14 84.0526 10.7993 83.5019 10.118C82.9606 9.43667 82.6899 8.48467 82.6899 7.262C82.6899 6.06733 82.9606 5.12 83.5019 4.42C84.0526 3.71067 84.8086 3.356 85.7699 3.356ZM85.9379 4.392C85.3126 4.392 84.8273 4.644 84.4819 5.148C84.1366 5.64267 83.9639 6.352 83.9639 7.276C83.9639 8.2 84.1319 8.90933 84.4679 9.404C84.8133 9.88933 85.3126 10.132 85.9659 10.132C86.7219 10.132 87.2726 9.93133 87.6179 9.53C87.9633 9.11933 88.1359 8.46133 88.1359 7.556V7.262C88.1359 6.23533 87.9586 5.50267 87.6039 5.064C87.2493 4.616 86.6939 4.392 85.9379 4.392ZM94.1839 3.496H95.4999L97.1239 7.766C97.2639 8.13933 97.3899 8.49867 97.5019 8.844C97.6139 9.18 97.6979 9.502 97.7539 9.81H97.8099C97.8659 9.57667 97.9546 9.27333 98.0759 8.9C98.1973 8.51733 98.3233 8.13467 98.4539 7.752L99.9799 3.496H101.31L98.0759 12.036C97.8146 12.7453 97.4739 13.31 97.0539 13.73C96.6433 14.15 96.0739 14.36 95.3459 14.36C95.1219 14.36 94.9259 14.346 94.7579 14.318C94.5899 14.2993 94.4453 14.276 94.3239 14.248V13.268C94.4266 13.2867 94.5479 13.3053 94.6879 13.324C94.8373 13.3427 94.9913 13.352 95.1499 13.352C95.5793 13.352 95.9246 13.2307 96.1859 12.988C96.4566 12.7453 96.6666 12.4233 96.8159 12.022L97.2079 11.028L94.1839 3.496ZM109.021 7.234C109.021 8.47533 108.703 9.43667 108.069 10.118C107.443 10.7993 106.594 11.14 105.521 11.14C104.858 11.14 104.265 10.9907 103.743 10.692C103.229 10.384 102.823 9.94067 102.525 9.362C102.226 8.774 102.077 8.06467 102.077 7.234C102.077 5.99267 102.389 5.036 103.015 4.364C103.64 3.692 104.489 3.356 105.563 3.356C106.244 3.356 106.841 3.51 107.355 3.818C107.877 4.11667 108.283 4.55533 108.573 5.134C108.871 5.70333 109.021 6.40333 109.021 7.234ZM103.351 7.234C103.351 8.12067 103.523 8.82533 103.869 9.348C104.223 9.86133 104.783 10.118 105.549 10.118C106.305 10.118 106.86 9.86133 107.215 9.348C107.569 8.82533 107.747 8.12067 107.747 7.234C107.747 6.34733 107.569 5.652 107.215 5.148C106.86 4.644 106.3 4.392 105.535 4.392C104.769 4.392 104.214 4.644 103.869 5.148C103.523 5.652 103.351 6.34733 103.351 7.234ZM117.245 3.496V11H116.237L116.055 10.006H115.999C115.757 10.398 115.421 10.6873 114.991 10.874C114.562 11.0513 114.105 11.14 113.619 11.14C112.714 11.14 112.033 10.9253 111.575 10.496C111.118 10.0573 110.889 9.362 110.889 8.41V3.496H112.135V8.326C112.135 9.52067 112.691 10.118 113.801 10.118C114.632 10.118 115.206 9.88467 115.523 9.418C115.85 8.95133 116.013 8.27933 116.013 7.402V3.496H117.245ZM123.128 3.356C123.268 3.356 123.417 3.36533 123.576 3.384C123.744 3.39333 123.888 3.412 124.01 3.44L123.856 4.574C123.734 4.546 123.599 4.52267 123.45 4.504C123.31 4.48533 123.174 4.476 123.044 4.476C122.661 4.476 122.302 4.58333 121.966 4.798C121.63 5.00333 121.359 5.29733 121.154 5.68C120.958 6.05333 120.86 6.492 120.86 6.996V11H119.628V3.496H120.636L120.776 4.868H120.832C121.074 4.45733 121.387 4.10267 121.77 3.804C122.152 3.50533 122.605 3.356 123.128 3.356ZM131.945 3.356C132.589 3.356 133.14 3.496 133.597 3.776C134.064 4.056 134.419 4.45267 134.661 4.966C134.913 5.47 135.039 6.06267 135.039 6.744V7.486H129.901C129.92 8.33533 130.135 8.984 130.545 9.432C130.965 9.87067 131.549 10.09 132.295 10.09C132.771 10.09 133.191 10.048 133.555 9.964C133.929 9.87067 134.311 9.74 134.703 9.572V10.65C134.321 10.818 133.943 10.9393 133.569 11.014C133.196 11.098 132.753 11.14 132.239 11.14C131.53 11.14 130.9 10.9953 130.349 10.706C129.808 10.4167 129.383 9.98733 129.075 9.418C128.777 8.83933 128.627 8.13467 128.627 7.304C128.627 6.48267 128.763 5.778 129.033 5.19C129.313 4.602 129.701 4.14933 130.195 3.832C130.699 3.51467 131.283 3.356 131.945 3.356ZM131.931 4.364C131.343 4.364 130.877 4.55533 130.531 4.938C130.195 5.31133 129.995 5.834 129.929 6.506H133.751C133.742 5.87133 133.593 5.358 133.303 4.966C133.014 4.56467 132.557 4.364 131.931 4.364ZM145.182 3.356C146.031 3.356 146.666 3.57533 147.086 4.014C147.506 4.44333 147.716 5.14333 147.716 6.114V11H146.498V6.17C146.498 4.98467 145.989 4.392 144.972 4.392C144.244 4.392 143.721 4.602 143.404 5.022C143.096 5.442 142.942 6.05333 142.942 6.856V11H141.724V6.17C141.724 4.98467 141.21 4.392 140.184 4.392C139.428 4.392 138.905 4.62533 138.616 5.092C138.326 5.55867 138.182 6.23067 138.182 7.108V11H136.95V3.496H137.944L138.126 4.518H138.196C138.429 4.126 138.742 3.83667 139.134 3.65C139.535 3.454 139.96 3.356 140.408 3.356C141.584 3.356 142.349 3.776 142.704 4.616H142.774C143.026 4.18667 143.366 3.86933 143.796 3.664C144.234 3.45867 144.696 3.356 145.182 3.356ZM152.876 3.37C153.79 3.37 154.467 3.57067 154.906 3.972C155.344 4.37333 155.564 5.01267 155.564 5.89V11H154.668L154.43 9.936H154.374C154.047 10.3467 153.702 10.65 153.338 10.846C152.983 11.042 152.488 11.14 151.854 11.14C151.172 11.14 150.608 10.9627 150.16 10.608C149.712 10.244 149.488 9.67933 149.488 8.914C149.488 8.16733 149.782 7.59333 150.37 7.192C150.958 6.78133 151.863 6.55733 153.086 6.52L154.36 6.478V6.03C154.36 5.40467 154.224 4.97067 153.954 4.728C153.683 4.48533 153.3 4.364 152.806 4.364C152.414 4.364 152.04 4.42467 151.686 4.546C151.331 4.658 151 4.78867 150.692 4.938L150.314 4.014C150.64 3.83667 151.028 3.68733 151.476 3.566C151.924 3.43533 152.39 3.37 152.876 3.37ZM153.24 7.374C152.306 7.41133 151.658 7.56067 151.294 7.822C150.939 8.08333 150.762 8.452 150.762 8.928C150.762 9.348 150.888 9.656 151.14 9.852C151.401 10.048 151.732 10.146 152.134 10.146C152.768 10.146 153.296 9.97333 153.716 9.628C154.136 9.27333 154.346 8.732 154.346 8.004V7.332L153.24 7.374ZM158.511 0.681999C158.698 0.681999 158.861 0.747333 159.001 0.877999C159.151 0.999333 159.225 1.19533 159.225 1.466C159.225 1.72733 159.151 1.92333 159.001 2.054C158.861 2.18467 158.698 2.25 158.511 2.25C158.306 2.25 158.133 2.18467 157.993 2.054C157.853 1.92333 157.783 1.72733 157.783 1.466C157.783 1.19533 157.853 0.999333 157.993 0.877999C158.133 0.747333 158.306 0.681999 158.511 0.681999ZM159.113 3.496V11H157.881V3.496H159.113ZM162.723 11H161.491V0.359999H162.723V11ZM167.561 3.496H168.877L170.501 7.766C170.641 8.13933 170.767 8.49867 170.879 8.844C170.991 9.18 171.075 9.502 171.131 9.81H171.187C171.243 9.57667 171.332 9.27333 171.453 8.9C171.574 8.51733 171.7 8.13467 171.831 7.752L173.357 3.496H174.687L171.453 12.036C171.192 12.7453 170.851 13.31 170.431 13.73C170.02 14.15 169.451 14.36 168.723 14.36C168.499 14.36 168.303 14.346 168.135 14.318C167.967 14.2993 167.822 14.276 167.701 14.248V13.268C167.804 13.2867 167.925 13.3053 168.065 13.324C168.214 13.3427 168.368 13.352 168.527 13.352C168.956 13.352 169.302 13.2307 169.563 12.988C169.834 12.7453 170.044 12.4233 170.193 12.022L170.585 11.028L167.561 3.496ZM182.398 7.234C182.398 8.47533 182.08 9.43667 181.446 10.118C180.82 10.7993 179.971 11.14 178.898 11.14C178.235 11.14 177.642 10.9907 177.12 10.692C176.606 10.384 176.2 9.94067 175.902 9.362C175.603 8.774 175.454 8.06467 175.454 7.234C175.454 5.99267 175.766 5.036 176.392 4.364C177.017 3.692 177.866 3.356 178.94 3.356C179.621 3.356 180.218 3.51 180.732 3.818C181.254 4.11667 181.66 4.55533 181.95 5.134C182.248 5.70333 182.398 6.40333 182.398 7.234ZM176.728 7.234C176.728 8.12067 176.9 8.82533 177.246 9.348C177.6 9.86133 178.16 10.118 178.926 10.118C179.682 10.118 180.237 9.86133 180.592 9.348C180.946 8.82533 181.124 8.12067 181.124 7.234C181.124 6.34733 180.946 5.652 180.592 5.148C180.237 4.644 179.677 4.392 178.912 4.392C178.146 4.392 177.591 4.644 177.246 5.148C176.9 5.652 176.728 6.34733 176.728 7.234ZM190.622 3.496V11H189.614L189.432 10.006H189.376C189.133 10.398 188.797 10.6873 188.368 10.874C187.939 11.0513 187.481 11.14 186.996 11.14C186.091 11.14 185.409 10.9253 184.952 10.496C184.495 10.0573 184.266 9.362 184.266 8.41V3.496H185.512V8.326C185.512 9.52067 186.067 10.118 187.178 10.118C188.009 10.118 188.583 9.88467 188.9 9.418C189.227 8.95133 189.39 8.27933 189.39 7.402V3.496H190.622ZM199.483 3.37C200.398 3.37 201.075 3.57067 201.513 3.972C201.952 4.37333 202.171 5.01267 202.171 5.89V11H201.275L201.037 9.936H200.981C200.655 10.3467 200.309 10.65 199.945 10.846C199.591 11.042 199.096 11.14 198.461 11.14C197.78 11.14 197.215 10.9627 196.767 10.608C196.319 10.244 196.095 9.67933 196.095 8.914C196.095 8.16733 196.389 7.59333 196.977 7.192C197.565 6.78133 198.471 6.55733 199.693 6.52L200.967 6.478V6.03C200.967 5.40467 200.832 4.97067 200.561 4.728C200.291 4.48533 199.908 4.364 199.413 4.364C199.021 4.364 198.648 4.42467 198.293 4.546C197.939 4.658 197.607 4.78867 197.299 4.938L196.921 4.014C197.248 3.83667 197.635 3.68733 198.083 3.566C198.531 3.43533 198.998 3.37 199.483 3.37ZM199.847 7.374C198.914 7.41133 198.265 7.56067 197.901 7.822C197.547 8.08333 197.369 8.452 197.369 8.928C197.369 9.348 197.495 9.656 197.747 9.852C198.009 10.048 198.34 10.146 198.741 10.146C199.376 10.146 199.903 9.97333 200.323 9.628C200.743 9.27333 200.953 8.732 200.953 8.004V7.332L199.847 7.374ZM207.149 3.356C207.643 3.356 208.087 3.44933 208.479 3.636C208.88 3.82267 209.221 4.10733 209.501 4.49H209.571L209.739 3.496H210.719V11.126C210.719 12.1993 210.443 13.0067 209.893 13.548C209.351 14.0893 208.507 14.36 207.359 14.36C206.257 14.36 205.357 14.2013 204.657 13.884V12.75C205.394 13.142 206.318 13.338 207.429 13.338C208.073 13.338 208.577 13.1467 208.941 12.764C209.314 12.3907 209.501 11.8773 209.501 11.224V10.93C209.501 10.818 209.505 10.6593 209.515 10.454C209.524 10.2393 209.533 10.09 209.543 10.006H209.487C208.983 10.762 208.208 11.14 207.163 11.14C206.192 11.14 205.431 10.7993 204.881 10.118C204.339 9.43667 204.069 8.48467 204.069 7.262C204.069 6.06733 204.339 5.12 204.881 4.42C205.431 3.71067 206.187 3.356 207.149 3.356ZM207.317 4.392C206.691 4.392 206.206 4.644 205.861 5.148C205.515 5.64267 205.343 6.352 205.343 7.276C205.343 8.2 205.511 8.90933 205.847 9.404C206.192 9.88933 206.691 10.132 207.345 10.132C208.101 10.132 208.651 9.93133 208.997 9.53C209.342 9.11933 209.515 8.46133 209.515 7.556V7.262C209.515 6.23533 209.337 5.50267 208.983 5.064C208.628 4.616 208.073 4.392 207.317 4.392ZM216.602 3.356C216.742 3.356 216.891 3.36533 217.05 3.384C217.218 3.39333 217.363 3.412 217.484 3.44L217.33 4.574C217.209 4.546 217.073 4.52267 216.924 4.504C216.784 4.48533 216.649 4.476 216.518 4.476C216.135 4.476 215.776 4.58333 215.44 4.798C215.104 5.00333 214.833 5.29733 214.628 5.68C214.432 6.05333 214.334 6.492 214.334 6.996V11H213.102V3.496H214.11L214.25 4.868H214.306C214.549 4.45733 214.861 4.10267 215.244 3.804C215.627 3.50533 216.079 3.356 216.602 3.356ZM221.51 3.356C222.154 3.356 222.705 3.496 223.162 3.776C223.629 4.056 223.983 4.45267 224.226 4.966C224.478 5.47 224.604 6.06267 224.604 6.744V7.486H219.466C219.485 8.33533 219.699 8.984 220.11 9.432C220.53 9.87067 221.113 10.09 221.86 10.09C222.336 10.09 222.756 10.048 223.12 9.964C223.493 9.87067 223.876 9.74 224.268 9.572V10.65C223.885 10.818 223.507 10.9393 223.134 11.014C222.761 11.098 222.317 11.14 221.804 11.14C221.095 11.14 220.465 10.9953 219.914 10.706C219.373 10.4167 218.948 9.98733 218.64 9.418C218.341 8.83933 218.192 8.13467 218.192 7.304C218.192 6.48267 218.327 5.778 218.598 5.19C218.878 4.602 219.265 4.14933 219.76 3.832C220.264 3.51467 220.847 3.356 221.51 3.356ZM221.496 4.364C220.908 4.364 220.441 4.55533 220.096 4.938C219.76 5.31133 219.559 5.834 219.494 6.506H223.316C223.307 5.87133 223.157 5.358 222.868 4.966C222.579 4.56467 222.121 4.364 221.496 4.364ZM229.412 3.356C230.056 3.356 230.607 3.496 231.064 3.776C231.531 4.056 231.886 4.45267 232.128 4.966C232.38 5.47 232.506 6.06267 232.506 6.744V7.486H227.368C227.387 8.33533 227.602 8.984 228.012 9.432C228.432 9.87067 229.016 10.09 229.762 10.09C230.238 10.09 230.658 10.048 231.022 9.964C231.396 9.87067 231.778 9.74 232.17 9.572V10.65C231.788 10.818 231.41 10.9393 231.036 11.014C230.663 11.098 230.22 11.14 229.706 11.14C228.997 11.14 228.367 10.9953 227.816 10.706C227.275 10.4167 226.85 9.98733 226.542 9.418C226.244 8.83933 226.094 8.13467 226.094 7.304C226.094 6.48267 226.23 5.778 226.5 5.19C226.78 4.602 227.168 4.14933 227.662 3.832C228.166 3.51467 228.75 3.356 229.412 3.356ZM229.398 4.364C228.81 4.364 228.344 4.55533 227.998 4.938C227.662 5.31133 227.462 5.834 227.396 6.506H231.218C231.209 5.87133 231.06 5.358 230.77 4.966C230.481 4.56467 230.024 4.364 229.398 4.364ZM240.559 10.132C240.746 10.132 240.937 10.118 241.133 10.09C241.329 10.0527 241.488 10.0153 241.609 9.978V10.916C241.479 10.9813 241.292 11.0327 241.049 11.07C240.807 11.1167 240.573 11.14 240.349 11.14C239.957 11.14 239.593 11.0747 239.257 10.944C238.931 10.804 238.665 10.566 238.459 10.23C238.254 9.894 238.151 9.42267 238.151 8.816V4.448H237.087V3.86L238.165 3.37L238.655 1.774H239.383V3.496H241.553V4.448H239.383V8.788C239.383 9.24533 239.491 9.586 239.705 9.81C239.929 10.0247 240.214 10.132 240.559 10.132ZM249.636 7.234C249.636 8.47533 249.319 9.43667 248.684 10.118C248.059 10.7993 247.209 11.14 246.136 11.14C245.473 11.14 244.881 10.9907 244.358 10.692C243.845 10.384 243.439 9.94067 243.14 9.362C242.841 8.774 242.692 8.06467 242.692 7.234C242.692 5.99267 243.005 5.036 243.63 4.364C244.255 3.692 245.105 3.356 246.178 3.356C246.859 3.356 247.457 3.51 247.97 3.818C248.493 4.11667 248.899 4.55533 249.188 5.134C249.487 5.70333 249.636 6.40333 249.636 7.234ZM243.966 7.234C243.966 8.12067 244.139 8.82533 244.484 9.348C244.839 9.86133 245.399 10.118 246.164 10.118C246.92 10.118 247.475 9.86133 247.83 9.348C248.185 8.82533 248.362 8.12067 248.362 7.234C248.362 6.34733 248.185 5.652 247.83 5.148C247.475 4.644 246.915 4.392 246.15 4.392C245.385 4.392 244.829 4.644 244.484 5.148C244.139 5.652 243.966 6.34733 243.966 7.234ZM258.725 3.356C258.865 3.356 259.014 3.36533 259.173 3.384C259.341 3.39333 259.486 3.412 259.607 3.44L259.453 4.574C259.332 4.546 259.196 4.52267 259.047 4.504C258.907 4.48533 258.772 4.476 258.641 4.476C258.258 4.476 257.899 4.58333 257.563 4.798C257.227 5.00333 256.956 5.29733 256.751 5.68C256.555 6.05333 256.457 6.492 256.457 6.996V11H255.225V3.496H256.233L256.373 4.868H256.429C256.672 4.45733 256.984 4.10267 257.367 3.804C257.75 3.50533 258.202 3.356 258.725 3.356ZM263.633 3.356C264.277 3.356 264.828 3.496 265.285 3.776C265.752 4.056 266.106 4.45267 266.349 4.966C266.601 5.47 266.727 6.06267 266.727 6.744V7.486H261.589C261.608 8.33533 261.822 8.984 262.233 9.432C262.653 9.87067 263.236 10.09 263.983 10.09C264.459 10.09 264.879 10.048 265.243 9.964C265.616 9.87067 265.999 9.74 266.391 9.572V10.65C266.008 10.818 265.63 10.9393 265.257 11.014C264.884 11.098 264.44 11.14 263.927 11.14C263.218 11.14 262.588 10.9953 262.037 10.706C261.496 10.4167 261.071 9.98733 260.763 9.418C260.464 8.83933 260.315 8.13467 260.315 7.304C260.315 6.48267 260.45 5.778 260.721 5.19C261.001 4.602 261.388 4.14933 261.883 3.832C262.387 3.51467 262.97 3.356 263.633 3.356ZM263.619 4.364C263.031 4.364 262.564 4.55533 262.219 4.938C261.883 5.31133 261.682 5.834 261.617 6.506H265.439C265.43 5.87133 265.28 5.358 264.991 4.966C264.702 4.56467 264.244 4.364 263.619 4.364ZM271.647 11.14C270.985 11.14 270.392 11.0047 269.869 10.734C269.356 10.4633 268.95 10.0433 268.651 9.474C268.362 8.90467 268.217 8.17667 268.217 7.29C268.217 6.366 268.371 5.61467 268.679 5.036C268.987 4.45733 269.403 4.03267 269.925 3.762C270.457 3.49133 271.059 3.356 271.731 3.356C272.114 3.356 272.483 3.398 272.837 3.482C273.192 3.55667 273.481 3.65 273.705 3.762L273.327 4.784C273.103 4.7 272.842 4.62067 272.543 4.546C272.245 4.47133 271.965 4.434 271.703 4.434C270.229 4.434 269.491 5.38133 269.491 7.276C269.491 8.18133 269.669 8.87667 270.023 9.362C270.387 9.838 270.924 10.076 271.633 10.076C272.044 10.076 272.403 10.034 272.711 9.95C273.029 9.866 273.318 9.76333 273.579 9.642V10.734C273.327 10.8647 273.047 10.9627 272.739 11.028C272.441 11.1027 272.077 11.14 271.647 11.14ZM278.262 3.356C278.906 3.356 279.456 3.496 279.914 3.776C280.38 4.056 280.735 4.45267 280.978 4.966C281.23 5.47 281.356 6.06267 281.356 6.744V7.486H276.218C276.236 8.33533 276.451 8.984 276.862 9.432C277.282 9.87067 277.865 10.09 278.612 10.09C279.088 10.09 279.508 10.048 279.872 9.964C280.245 9.87067 280.628 9.74 281.02 9.572V10.65C280.637 10.818 280.259 10.9393 279.886 11.014C279.512 11.098 279.069 11.14 278.556 11.14C277.846 11.14 277.216 10.9953 276.666 10.706C276.124 10.4167 275.7 9.98733 275.392 9.418C275.093 8.83933 274.944 8.13467 274.944 7.304C274.944 6.48267 275.079 5.778 275.35 5.19C275.63 4.602 276.017 4.14933 276.512 3.832C277.016 3.51467 277.599 3.356 278.262 3.356ZM278.248 4.364C277.66 4.364 277.193 4.55533 276.848 4.938C276.512 5.31133 276.311 5.834 276.246 6.506H280.068C280.058 5.87133 279.909 5.358 279.62 4.966C279.33 4.56467 278.873 4.364 278.248 4.364ZM283.896 0.681999C284.083 0.681999 284.246 0.747333 284.386 0.877999C284.536 0.999333 284.61 1.19533 284.61 1.466C284.61 1.72733 284.536 1.92333 284.386 2.054C284.246 2.18467 284.083 2.25 283.896 2.25C283.691 2.25 283.518 2.18467 283.378 2.054C283.238 1.92333 283.168 1.72733 283.168 1.466C283.168 1.19533 283.238 0.999333 283.378 0.877999C283.518 0.747333 283.691 0.681999 283.896 0.681999ZM284.498 3.496V11H283.266V3.496H284.498ZM288.528 11L285.686 3.496H287.002L288.598 7.92C288.672 8.12533 288.752 8.354 288.836 8.606C288.92 8.858 288.994 9.10067 289.06 9.334C289.125 9.558 289.172 9.74933 289.2 9.908H289.256C289.293 9.74933 289.344 9.55333 289.41 9.32C289.484 9.08667 289.564 8.844 289.648 8.592C289.741 8.34 289.82 8.116 289.886 7.92L291.482 3.496H292.798L289.942 11H288.528ZM296.883 3.356C297.527 3.356 298.078 3.496 298.535 3.776C299.002 4.056 299.356 4.45267 299.599 4.966C299.851 5.47 299.977 6.06267 299.977 6.744V7.486H294.839C294.858 8.33533 295.072 8.984 295.483 9.432C295.903 9.87067 296.486 10.09 297.233 10.09C297.709 10.09 298.129 10.048 298.493 9.964C298.866 9.87067 299.249 9.74 299.641 9.572V10.65C299.258 10.818 298.88 10.9393 298.507 11.014C298.134 11.098 297.69 11.14 297.177 11.14C296.468 11.14 295.838 10.9953 295.287 10.706C294.746 10.4167 294.321 9.98733 294.013 9.418C293.714 8.83933 293.565 8.13467 293.565 7.304C293.565 6.48267 293.7 5.778 293.971 5.19C294.251 4.602 294.638 4.14933 295.133 3.832C295.637 3.51467 296.22 3.356 296.883 3.356ZM296.869 4.364C296.281 4.364 295.814 4.55533 295.469 4.938C295.133 5.31133 294.932 5.834 294.867 6.506H298.689C298.68 5.87133 298.53 5.358 298.241 4.966C297.952 4.56467 297.494 4.364 296.869 4.364ZM311.796 3.496V11H310.788L310.606 10.006H310.55C310.307 10.398 309.971 10.6873 309.542 10.874C309.113 11.0513 308.655 11.14 308.17 11.14C307.265 11.14 306.583 10.9253 306.126 10.496C305.669 10.0573 305.44 9.362 305.44 8.41V3.496H306.686V8.326C306.686 9.52067 307.241 10.118 308.352 10.118C309.183 10.118 309.757 9.88467 310.074 9.418C310.401 8.95133 310.564 8.27933 310.564 7.402V3.496H311.796ZM317.748 3.356C318.672 3.356 319.414 3.678 319.974 4.322C320.544 4.966 320.828 5.93667 320.828 7.234C320.828 8.51267 320.544 9.48333 319.974 10.146C319.414 10.8087 318.668 11.14 317.734 11.14C317.156 11.14 316.675 11.0327 316.292 10.818C315.919 10.594 315.625 10.3373 315.41 10.048H315.326C315.345 10.2067 315.364 10.4073 315.382 10.65C315.401 10.8927 315.41 11.1027 315.41 11.28V14.36H314.178V3.496H315.186L315.354 4.518H315.41C315.634 4.19133 315.928 3.916 316.292 3.692C316.656 3.468 317.142 3.356 317.748 3.356ZM317.524 4.392C316.759 4.392 316.218 4.60667 315.9 5.036C315.592 5.46533 315.429 6.11867 315.41 6.996V7.234C315.41 8.158 315.56 8.872 315.858 9.376C316.166 9.87067 316.731 10.118 317.552 10.118C318.01 10.118 318.383 9.992 318.672 9.74C318.971 9.488 319.19 9.14733 319.33 8.718C319.48 8.27933 319.554 7.78 319.554 7.22C319.554 6.36133 319.386 5.67533 319.05 5.162C318.724 4.64867 318.215 4.392 317.524 4.392ZM325.452 11.14C324.518 11.14 323.772 10.818 323.212 10.174C322.652 9.52067 322.372 8.55 322.372 7.262C322.372 5.974 322.652 5.00333 323.212 4.35C323.781 3.68733 324.532 3.356 325.466 3.356C326.044 3.356 326.516 3.46333 326.88 3.678C327.253 3.89267 327.556 4.154 327.79 4.462H327.874C327.864 4.34067 327.846 4.16333 327.818 3.93C327.799 3.68733 327.79 3.496 327.79 3.356V0.359999H329.022V11H328.028L327.846 9.992H327.79C327.566 10.3093 327.267 10.58 326.894 10.804C326.52 11.028 326.04 11.14 325.452 11.14ZM325.648 10.118C326.441 10.118 326.996 9.90333 327.314 9.474C327.64 9.03533 327.804 8.37733 327.804 7.5V7.276C327.804 6.34267 327.65 5.62867 327.342 5.134C327.034 4.63 326.464 4.378 325.634 4.378C324.971 4.378 324.472 4.644 324.136 5.176C323.809 5.69867 323.646 6.40333 323.646 7.29C323.646 8.186 323.809 8.88133 324.136 9.376C324.472 9.87067 324.976 10.118 325.648 10.118ZM334.247 3.37C335.162 3.37 335.838 3.57067 336.277 3.972C336.716 4.37333 336.935 5.01267 336.935 5.89V11H336.039L335.801 9.936H335.745C335.418 10.3467 335.073 10.65 334.709 10.846C334.354 11.042 333.86 11.14 333.225 11.14C332.544 11.14 331.979 10.9627 331.531 10.608C331.083 10.244 330.859 9.67933 330.859 8.914C330.859 8.16733 331.153 7.59333 331.741 7.192C332.329 6.78133 333.234 6.55733 334.457 6.52L335.731 6.478V6.03C335.731 5.40467 335.596 4.97067 335.325 4.728C335.054 4.48533 334.672 4.364 334.177 4.364C333.785 4.364 333.412 4.42467 333.057 4.546C332.702 4.658 332.371 4.78867 332.063 4.938L331.685 4.014C332.012 3.83667 332.399 3.68733 332.847 3.566C333.295 3.43533 333.762 3.37 334.247 3.37ZM334.611 7.374C333.678 7.41133 333.029 7.56067 332.665 7.822C332.31 8.08333 332.133 8.452 332.133 8.928C332.133 9.348 332.259 9.656 332.511 9.852C332.772 10.048 333.104 10.146 333.505 10.146C334.14 10.146 334.667 9.97333 335.087 9.628C335.507 9.27333 335.717 8.732 335.717 8.004V7.332L334.611 7.374ZM341.758 10.132C341.945 10.132 342.137 10.118 342.333 10.09C342.529 10.0527 342.687 10.0153 342.809 9.978V10.916C342.678 10.9813 342.491 11.0327 342.249 11.07C342.006 11.1167 341.773 11.14 341.549 11.14C341.157 11.14 340.793 11.0747 340.457 10.944C340.13 10.804 339.864 10.566 339.659 10.23C339.453 9.894 339.351 9.42267 339.351 8.816V4.448H338.287V3.86L339.365 3.37L339.855 1.774H340.583V3.496H342.753V4.448H340.583V8.788C340.583 9.24533 340.69 9.586 340.905 9.81C341.129 10.0247 341.413 10.132 341.758 10.132ZM347.209 3.356C347.853 3.356 348.404 3.496 348.861 3.776C349.328 4.056 349.682 4.45267 349.925 4.966C350.177 5.47 350.303 6.06267 350.303 6.744V7.486H345.165C345.184 8.33533 345.398 8.984 345.809 9.432C346.229 9.87067 346.812 10.09 347.559 10.09C348.035 10.09 348.455 10.048 348.819 9.964C349.192 9.87067 349.575 9.74 349.967 9.572V10.65C349.584 10.818 349.206 10.9393 348.833 11.014C348.46 11.098 348.016 11.14 347.503 11.14C346.794 11.14 346.164 10.9953 345.613 10.706C345.072 10.4167 344.647 9.98733 344.339 9.418C344.04 8.83933 343.891 8.13467 343.891 7.304C343.891 6.48267 344.026 5.778 344.297 5.19C344.577 4.602 344.964 4.14933 345.459 3.832C345.963 3.51467 346.546 3.356 347.209 3.356ZM347.195 4.364C346.607 4.364 346.14 4.55533 345.795 4.938C345.459 5.31133 345.258 5.834 345.193 6.506H349.015C349.006 5.87133 348.856 5.358 348.567 4.966C348.278 4.56467 347.82 4.364 347.195 4.364ZM357.099 8.928C357.099 9.656 356.829 10.2067 356.287 10.58C355.746 10.9533 355.018 11.14 354.103 11.14C353.581 11.14 353.128 11.098 352.745 11.014C352.372 10.93 352.041 10.8133 351.751 10.664V9.544C352.05 9.69333 352.409 9.83333 352.829 9.964C353.259 10.0853 353.693 10.146 354.131 10.146C354.757 10.146 355.209 10.048 355.489 9.852C355.769 9.64667 355.909 9.376 355.909 9.04C355.909 8.85333 355.858 8.68533 355.755 8.536C355.653 8.38667 355.466 8.23733 355.195 8.088C354.934 7.93867 354.556 7.77067 354.061 7.584C353.576 7.39733 353.161 7.21067 352.815 7.024C352.47 6.83733 352.204 6.61333 352.017 6.352C351.831 6.09067 351.737 5.75467 351.737 5.344C351.737 4.70933 351.994 4.21933 352.507 3.874C353.03 3.52867 353.711 3.356 354.551 3.356C355.009 3.356 355.433 3.40267 355.825 3.496C356.227 3.58 356.6 3.70133 356.945 3.86L356.525 4.84C356.208 4.70933 355.877 4.59733 355.531 4.504C355.186 4.41067 354.831 4.364 354.467 4.364C353.963 4.364 353.576 4.448 353.305 4.616C353.044 4.77467 352.913 4.994 352.913 5.274C352.913 5.47933 352.974 5.65667 353.095 5.806C353.217 5.946 353.417 6.086 353.697 6.226C353.987 6.35667 354.369 6.51533 354.845 6.702C355.321 6.87933 355.727 7.06133 356.063 7.248C356.399 7.43467 356.656 7.66333 356.833 7.934C357.011 8.19533 357.099 8.52667 357.099 8.928ZM365.391 3.37C366.306 3.37 366.983 3.57067 367.421 3.972C367.86 4.37333 368.079 5.01267 368.079 5.89V11H367.183L366.945 9.936H366.889C366.563 10.3467 366.217 10.65 365.853 10.846C365.499 11.042 365.004 11.14 364.369 11.14C363.688 11.14 363.123 10.9627 362.675 10.608C362.227 10.244 362.003 9.67933 362.003 8.914C362.003 8.16733 362.297 7.59333 362.885 7.192C363.473 6.78133 364.379 6.55733 365.601 6.52L366.875 6.478V6.03C366.875 5.40467 366.74 4.97067 366.469 4.728C366.199 4.48533 365.816 4.364 365.321 4.364C364.929 4.364 364.556 4.42467 364.201 4.546C363.847 4.658 363.515 4.78867 363.207 4.938L362.829 4.014C363.156 3.83667 363.543 3.68733 363.991 3.566C364.439 3.43533 364.906 3.37 365.391 3.37ZM365.755 7.374C364.822 7.41133 364.173 7.56067 363.809 7.822C363.455 8.08333 363.277 8.452 363.277 8.928C363.277 9.348 363.403 9.656 363.655 9.852C363.917 10.048 364.248 10.146 364.649 10.146C365.284 10.146 365.811 9.97333 366.231 9.628C366.651 9.27333 366.861 8.732 366.861 8.004V7.332L365.755 7.374ZM371.629 2.95C371.629 3.26733 371.62 3.566 371.601 3.846C371.592 4.11667 371.578 4.33133 371.559 4.49H371.629C371.844 4.17267 372.138 3.90667 372.511 3.692C372.884 3.47733 373.365 3.37 373.953 3.37C374.886 3.37 375.633 3.69667 376.193 4.35C376.762 4.994 377.047 5.96 377.047 7.248C377.047 8.536 376.762 9.50667 376.193 10.16C375.624 10.8133 374.877 11.14 373.953 11.14C373.365 11.14 372.884 11.0327 372.511 10.818C372.138 10.6033 371.844 10.3467 371.629 10.048H371.531L371.279 11H370.397V0.359999H371.629V2.95ZM373.743 4.392C372.95 4.392 372.399 4.62067 372.091 5.078C371.783 5.53533 371.629 6.24467 371.629 7.206V7.262C371.629 8.186 371.778 8.89533 372.077 9.39C372.385 9.87533 372.95 10.118 373.771 10.118C374.443 10.118 374.942 9.87067 375.269 9.376C375.605 8.88133 375.773 8.16733 375.773 7.234C375.773 5.33933 375.096 4.392 373.743 4.392ZM385.534 7.234C385.534 8.47533 385.217 9.43667 384.582 10.118C383.957 10.7993 383.108 11.14 382.034 11.14C381.372 11.14 380.779 10.9907 380.256 10.692C379.743 10.384 379.337 9.94067 379.038 9.362C378.74 8.774 378.59 8.06467 378.59 7.234C378.59 5.99267 378.903 5.036 379.528 4.364C380.154 3.692 381.003 3.356 382.076 3.356C382.758 3.356 383.355 3.51 383.868 3.818C384.391 4.11667 384.797 4.55533 385.086 5.134C385.385 5.70333 385.534 6.40333 385.534 7.234ZM379.864 7.234C379.864 8.12067 380.037 8.82533 380.382 9.348C380.737 9.86133 381.297 10.118 382.062 10.118C382.818 10.118 383.374 9.86133 383.728 9.348C384.083 8.82533 384.26 8.12067 384.26 7.234C384.26 6.34733 384.083 5.652 383.728 5.148C383.374 4.644 382.814 4.392 382.048 4.392C381.283 4.392 380.728 4.644 380.382 5.148C380.037 5.652 379.864 6.34733 379.864 7.234ZM393.759 3.496V11H392.751L392.569 10.006H392.513C392.27 10.398 391.934 10.6873 391.505 10.874C391.076 11.0513 390.618 11.14 390.133 11.14C389.228 11.14 388.546 10.9253 388.089 10.496C387.632 10.0573 387.403 9.362 387.403 8.41V3.496H388.649V8.326C388.649 9.52067 389.204 10.118 390.315 10.118C391.146 10.118 391.72 9.88467 392.037 9.418C392.364 8.95133 392.527 8.27933 392.527 7.402V3.496H393.759ZM398.647 10.132C398.834 10.132 399.025 10.118 399.221 10.09C399.417 10.0527 399.576 10.0153 399.697 9.978V10.916C399.567 10.9813 399.38 11.0327 399.137 11.07C398.895 11.1167 398.661 11.14 398.437 11.14C398.045 11.14 397.681 11.0747 397.345 10.944C397.019 10.804 396.753 10.566 396.547 10.23C396.342 9.894 396.239 9.42267 396.239 8.816V4.448H395.175V3.86L396.253 3.37L396.743 1.774H397.471V3.496H399.641V4.448H397.471V8.788C397.471 9.24533 397.579 9.586 397.793 9.81C398.017 10.0247 398.302 10.132 398.647 10.132ZM409.288 1.97C408.215 1.97 407.37 2.32933 406.754 3.048C406.138 3.76667 405.83 4.75133 405.83 6.002C405.83 7.24333 406.115 8.228 406.684 8.956C407.263 9.67467 408.126 10.034 409.274 10.034C409.713 10.034 410.128 9.99667 410.52 9.922C410.912 9.84733 411.295 9.754 411.668 9.642V10.734C411.295 10.874 410.908 10.9767 410.506 11.042C410.114 11.1073 409.643 11.14 409.092 11.14C408.075 11.14 407.226 10.93 406.544 10.51C405.863 10.09 405.35 9.49267 405.004 8.718C404.668 7.94333 404.5 7.03333 404.5 5.988C404.5 4.98 404.682 4.09333 405.046 3.328C405.42 2.55333 405.966 1.95133 406.684 1.522C407.403 1.08333 408.276 0.863999 409.302 0.863999C410.357 0.863999 411.276 1.06 412.06 1.452L411.556 2.516C411.248 2.376 410.903 2.25 410.52 2.138C410.147 2.026 409.736 1.97 409.288 1.97ZM414.914 11H413.682V0.359999H414.914V11ZM420.19 3.356C420.834 3.356 421.384 3.496 421.842 3.776C422.308 4.056 422.663 4.45267 422.906 4.966C423.158 5.47 423.284 6.06267 423.284 6.744V7.486H418.146C418.164 8.33533 418.379 8.984 418.79 9.432C419.21 9.87067 419.793 10.09 420.54 10.09C421.016 10.09 421.436 10.048 421.8 9.964C422.173 9.87067 422.556 9.74 422.948 9.572V10.65C422.565 10.818 422.187 10.9393 421.814 11.014C421.44 11.098 420.997 11.14 420.484 11.14C419.774 11.14 419.144 10.9953 418.594 10.706C418.052 10.4167 417.628 9.98733 417.32 9.418C417.021 8.83933 416.872 8.13467 416.872 7.304C416.872 6.48267 417.007 5.778 417.278 5.19C417.558 4.602 417.945 4.14933 418.44 3.832C418.944 3.51467 419.527 3.356 420.19 3.356ZM420.176 4.364C419.588 4.364 419.121 4.55533 418.776 4.938C418.44 5.31133 418.239 5.834 418.174 6.506H421.996C421.986 5.87133 421.837 5.358 421.548 4.966C421.258 4.56467 420.801 4.364 420.176 4.364ZM428.694 3.356C428.834 3.356 428.983 3.36533 429.142 3.384C429.31 3.39333 429.455 3.412 429.576 3.44L429.422 4.574C429.301 4.546 429.165 4.52267 429.016 4.504C428.876 4.48533 428.741 4.476 428.61 4.476C428.227 4.476 427.868 4.58333 427.532 4.798C427.196 5.00333 426.925 5.29733 426.72 5.68C426.524 6.05333 426.426 6.492 426.426 6.996V11H425.194V3.496H426.202L426.342 4.868H426.398C426.641 4.45733 426.953 4.10267 427.336 3.804C427.719 3.50533 428.171 3.356 428.694 3.356ZM432.195 5.918C432.195 6.06733 432.186 6.26333 432.167 6.506C432.158 6.74867 432.148 6.95867 432.139 7.136H432.195C432.251 7.06133 432.335 6.954 432.447 6.814C432.559 6.674 432.671 6.534 432.783 6.394C432.904 6.24467 433.007 6.12333 433.091 6.03L435.485 3.496H436.927L433.889 6.702L437.137 11H435.653L433.049 7.5L432.195 8.242V11H430.977V0.359999H432.195V5.918ZM443.342 8.928C443.342 9.656 443.071 10.2067 442.53 10.58C441.988 10.9533 441.26 11.14 440.346 11.14C439.823 11.14 439.37 11.098 438.988 11.014C438.614 10.93 438.283 10.8133 437.994 10.664V9.544C438.292 9.69333 438.652 9.83333 439.072 9.964C439.501 10.0853 439.935 10.146 440.374 10.146C440.999 10.146 441.452 10.048 441.732 9.852C442.012 9.64667 442.152 9.376 442.152 9.04C442.152 8.85333 442.1 8.68533 441.998 8.536C441.895 8.38667 441.708 8.23733 441.438 8.088C441.176 7.93867 440.798 7.77067 440.304 7.584C439.818 7.39733 439.403 7.21067 439.058 7.024C438.712 6.83733 438.446 6.61333 438.26 6.352C438.073 6.09067 437.98 5.75467 437.98 5.344C437.98 4.70933 438.236 4.21933 438.75 3.874C439.272 3.52867 439.954 3.356 440.794 3.356C441.251 3.356 441.676 3.40267 442.068 3.496C442.469 3.58 442.842 3.70133 443.188 3.86L442.768 4.84C442.45 4.70933 442.119 4.59733 441.774 4.504C441.428 4.41067 441.074 4.364 440.71 4.364C440.206 4.364 439.818 4.448 439.548 4.616C439.286 4.77467 439.156 4.994 439.156 5.274C439.156 5.47933 439.216 5.65667 439.338 5.806C439.459 5.946 439.66 6.086 439.94 6.226C440.229 6.35667 440.612 6.51533 441.088 6.702C441.564 6.87933 441.97 7.06133 442.306 7.248C442.642 7.43467 442.898 7.66333 443.076 7.934C443.253 8.19533 443.342 8.52667 443.342 8.928ZM443.979 3.496H445.295L446.919 7.766C447.059 8.13933 447.185 8.49867 447.297 8.844C447.409 9.18 447.493 9.502 447.549 9.81H447.605C447.661 9.57667 447.75 9.27333 447.871 8.9C447.992 8.51733 448.118 8.13467 448.249 7.752L449.775 3.496H451.105L447.871 12.036C447.61 12.7453 447.269 13.31 446.849 13.73C446.438 14.15 445.869 14.36 445.141 14.36C444.917 14.36 444.721 14.346 444.553 14.318C444.385 14.2993 444.24 14.276 444.119 14.248V13.268C444.222 13.2867 444.343 13.3053 444.483 13.324C444.632 13.3427 444.786 13.352 444.945 13.352C445.374 13.352 445.72 13.2307 445.981 12.988C446.252 12.7453 446.462 12.4233 446.611 12.022L447.003 11.028L443.979 3.496ZM451.549 10.244C451.549 9.89867 451.633 9.656 451.801 9.516C451.969 9.376 452.17 9.306 452.403 9.306C452.646 9.306 452.851 9.376 453.019 9.516C453.196 9.656 453.285 9.89867 453.285 10.244C453.285 10.58 453.196 10.8227 453.019 10.972C452.851 11.1213 452.646 11.196 452.403 11.196C452.17 11.196 451.969 11.1213 451.801 10.972C451.633 10.8227 451.549 10.58 451.549 10.244ZM461.886 5.918L464.49 1.004H465.848L462.516 7.122V11H461.256V7.178L457.924 1.004H459.296L461.886 5.918ZM472.87 7.234C472.87 8.47533 472.553 9.43667 471.918 10.118C471.293 10.7993 470.444 11.14 469.37 11.14C468.708 11.14 468.115 10.9907 467.592 10.692C467.079 10.384 466.673 9.94067 466.374 9.362C466.076 8.774 465.926 8.06467 465.926 7.234C465.926 5.99267 466.239 5.036 466.864 4.364C467.49 3.692 468.339 3.356 469.412 3.356C470.094 3.356 470.691 3.51 471.204 3.818C471.727 4.11667 472.133 4.55533 472.422 5.134C472.721 5.70333 472.87 6.40333 472.87 7.234ZM467.2 7.234C467.2 8.12067 467.373 8.82533 467.718 9.348C468.073 9.86133 468.633 10.118 469.398 10.118C470.154 10.118 470.71 9.86133 471.064 9.348C471.419 8.82533 471.596 8.12067 471.596 7.234C471.596 6.34733 471.419 5.652 471.064 5.148C470.71 4.644 470.15 4.392 469.384 4.392C468.619 4.392 468.064 4.644 467.718 5.148C467.373 5.652 467.2 6.34733 467.2 7.234ZM481.095 3.496V11H480.087L479.905 10.006H479.849C479.606 10.398 479.27 10.6873 478.841 10.874C478.411 11.0513 477.954 11.14 477.469 11.14C476.563 11.14 475.882 10.9253 475.425 10.496C474.967 10.0573 474.739 9.362 474.739 8.41V3.496H475.985V8.326C475.985 9.52067 476.54 10.118 477.651 10.118C478.481 10.118 479.055 9.88467 479.373 9.418C479.699 8.95133 479.863 8.27933 479.863 7.402V3.496H481.095ZM490.124 11.14C489.461 11.14 488.868 11.0047 488.346 10.734C487.832 10.4633 487.426 10.0433 487.128 9.474C486.838 8.90467 486.694 8.17667 486.694 7.29C486.694 6.366 486.848 5.61467 487.156 5.036C487.464 4.45733 487.879 4.03267 488.402 3.762C488.934 3.49133 489.536 3.356 490.208 3.356C490.59 3.356 490.959 3.398 491.314 3.482C491.668 3.55667 491.958 3.65 492.182 3.762L491.804 4.784C491.58 4.7 491.318 4.62067 491.02 4.546C490.721 4.47133 490.441 4.434 490.18 4.434C488.705 4.434 487.968 5.38133 487.968 7.276C487.968 8.18133 488.145 8.87667 488.5 9.362C488.864 9.838 489.4 10.076 490.11 10.076C490.52 10.076 490.88 10.034 491.188 9.95C491.505 9.866 491.794 9.76333 492.056 9.642V10.734C491.804 10.8647 491.524 10.9627 491.216 11.028C490.917 11.1027 490.553 11.14 490.124 11.14ZM496.682 3.37C497.597 3.37 498.274 3.57067 498.712 3.972C499.151 4.37333 499.37 5.01267 499.37 5.89V11H498.474L498.236 9.936H498.18C497.854 10.3467 497.508 10.65 497.144 10.846C496.79 11.042 496.295 11.14 495.66 11.14C494.979 11.14 494.414 10.9627 493.966 10.608C493.518 10.244 493.294 9.67933 493.294 8.914C493.294 8.16733 493.588 7.59333 494.176 7.192C494.764 6.78133 495.67 6.55733 496.892 6.52L498.166 6.478V6.03C498.166 5.40467 498.031 4.97067 497.76 4.728C497.49 4.48533 497.107 4.364 496.612 4.364C496.22 4.364 495.847 4.42467 495.492 4.546C495.138 4.658 494.806 4.78867 494.498 4.938L494.12 4.014C494.447 3.83667 494.834 3.68733 495.282 3.566C495.73 3.43533 496.197 3.37 496.682 3.37ZM497.046 7.374C496.113 7.41133 495.464 7.56067 495.1 7.822C494.746 8.08333 494.568 8.452 494.568 8.928C494.568 9.348 494.694 9.656 494.946 9.852C495.208 10.048 495.539 10.146 495.94 10.146C496.575 10.146 497.102 9.97333 497.522 9.628C497.942 9.27333 498.152 8.732 498.152 8.004V7.332L497.046 7.374ZM505.3 3.356C506.196 3.356 506.873 3.57533 507.33 4.014C507.787 4.44333 508.016 5.14333 508.016 6.114V11H506.798V6.198C506.798 4.994 506.238 4.392 505.118 4.392C504.287 4.392 503.713 4.62533 503.396 5.092C503.079 5.55867 502.92 6.23067 502.92 7.108V11H501.688V3.496H502.682L502.864 4.518H502.934C503.177 4.126 503.513 3.83667 503.942 3.65C504.371 3.454 504.824 3.356 505.3 3.356ZM6.462 24.496V32H5.454L5.272 31.006H5.216C4.97333 31.398 4.63733 31.6873 4.208 31.874C3.77867 32.0513 3.32133 32.14 2.836 32.14C1.93067 32.14 1.24933 31.9253 0.792 31.496C0.334667 31.0573 0.106 30.362 0.106 29.41V24.496H1.352V29.326C1.352 30.5207 1.90733 31.118 3.018 31.118C3.84867 31.118 4.42267 30.8847 4.74 30.418C5.06667 29.9513 5.23 29.2793 5.23 28.402V24.496H6.462ZM12.4563 24.356C13.3523 24.356 14.029 24.5753 14.4863 25.014C14.9436 25.4433 15.1723 26.1433 15.1723 27.114V32H13.9543V27.198C13.9543 25.994 13.3943 25.392 12.2743 25.392C11.4436 25.392 10.8696 25.6253 10.5523 26.092C10.235 26.5587 10.0763 27.2307 10.0763 28.108V32H8.8443V24.496H9.8383L10.0203 25.518H10.0903C10.333 25.126 10.669 24.8367 11.0983 24.65C11.5276 24.454 11.9803 24.356 12.4563 24.356ZM22.3846 29.928C22.3846 30.656 22.1139 31.2067 21.5726 31.58C21.0313 31.9533 20.3033 32.14 19.3886 32.14C18.8659 32.14 18.4133 32.098 18.0306 32.014C17.6573 31.93 17.3259 31.8133 17.0366 31.664V30.544C17.3353 30.6933 17.6946 30.8333 18.1146 30.964C18.5439 31.0853 18.9779 31.146 19.4166 31.146C20.0419 31.146 20.4946 31.048 20.7746 30.852C21.0546 30.6467 21.1946 30.376 21.1946 30.04C21.1946 29.8533 21.1433 29.6853 21.0406 29.536C20.9379 29.3867 20.7513 29.2373 20.4806 29.088C20.2193 28.9387 19.8413 28.7707 19.3466 28.584C18.8613 28.3973 18.4459 28.2107 18.1006 28.024C17.7553 27.8373 17.4893 27.6133 17.3026 27.352C17.1159 27.0907 17.0226 26.7547 17.0226 26.344C17.0226 25.7093 17.2793 25.2193 17.7926 24.874C18.3153 24.5287 18.9966 24.356 19.8366 24.356C20.2939 24.356 20.7186 24.4027 21.1106 24.496C21.5119 24.58 21.8853 24.7013 22.2306 24.86L21.8106 25.84C21.4933 25.7093 21.1619 25.5973 20.8166 25.504C20.4713 25.4107 20.1166 25.364 19.7526 25.364C19.2486 25.364 18.8613 25.448 18.5906 25.616C18.3293 25.7747 18.1986 25.994 18.1986 26.274C18.1986 26.4793 18.2593 26.6567 18.3806 26.806C18.5019 26.946 18.7026 27.086 18.9826 27.226C19.2719 27.3567 19.6546 27.5153 20.1306 27.702C20.6066 27.8793 21.0126 28.0613 21.3486 28.248C21.6846 28.4347 21.9413 28.6633 22.1186 28.934C22.2959 29.1953 22.3846 29.5267 22.3846 29.928ZM30.4698 24.496V32H29.4618L29.2798 31.006H29.2238C28.9811 31.398 28.6451 31.6873 28.2158 31.874C27.7865 32.0513 27.3291 32.14 26.8438 32.14C25.9385 32.14 25.2571 31.9253 24.7998 31.496C24.3425 31.0573 24.1138 30.362 24.1138 29.41V24.496H25.3598V29.326C25.3598 30.5207 25.9151 31.118 27.0258 31.118C27.8565 31.118 28.4305 30.8847 28.7478 30.418C29.0745 29.9513 29.2378 29.2793 29.2378 28.402V24.496H30.4698ZM34.0841 23.95C34.0841 24.2673 34.0748 24.566 34.0561 24.846C34.0468 25.1167 34.0328 25.3313 34.0141 25.49H34.0841C34.2988 25.1727 34.5928 24.9067 34.9661 24.692C35.3394 24.4773 35.8201 24.37 36.4081 24.37C37.3414 24.37 38.0881 24.6967 38.6481 25.35C39.2174 25.994 39.5021 26.96 39.5021 28.248C39.5021 29.536 39.2174 30.5067 38.6481 31.16C38.0788 31.8133 37.3321 32.14 36.4081 32.14C35.8201 32.14 35.3394 32.0327 34.9661 31.818C34.5928 31.6033 34.2988 31.3467 34.0841 31.048H33.9861L33.7341 32H32.8521V21.36H34.0841V23.95ZM36.1981 25.392C35.4048 25.392 34.8541 25.6207 34.5461 26.078C34.2381 26.5353 34.0841 27.2447 34.0841 28.206V28.262C34.0841 29.186 34.2334 29.8953 34.5321 30.39C34.8401 30.8753 35.4048 31.118 36.2261 31.118C36.8981 31.118 37.3974 30.8707 37.7241 30.376C38.0601 29.8813 38.2281 29.1673 38.2281 28.234C38.2281 26.3393 37.5514 25.392 36.1981 25.392ZM46.3514 29.928C46.3514 30.656 46.0807 31.2067 45.5394 31.58C44.9981 31.9533 44.2701 32.14 43.3554 32.14C42.8327 32.14 42.3801 32.098 41.9974 32.014C41.6241 31.93 41.2927 31.8133 41.0034 31.664V30.544C41.3021 30.6933 41.6614 30.8333 42.0814 30.964C42.5107 31.0853 42.9447 31.146 43.3834 31.146C44.0087 31.146 44.4614 31.048 44.7414 30.852C45.0214 30.6467 45.1614 30.376 45.1614 30.04C45.1614 29.8533 45.1101 29.6853 45.0074 29.536C44.9047 29.3867 44.7181 29.2373 44.4474 29.088C44.1861 28.9387 43.8081 28.7707 43.3134 28.584C42.8281 28.3973 42.4127 28.2107 42.0674 28.024C41.7221 27.8373 41.4561 27.6133 41.2694 27.352C41.0827 27.0907 40.9894 26.7547 40.9894 26.344C40.9894 25.7093 41.2461 25.2193 41.7594 24.874C42.2821 24.5287 42.9634 24.356 43.8034 24.356C44.2607 24.356 44.6854 24.4027 45.0774 24.496C45.4787 24.58 45.8521 24.7013 46.1974 24.86L45.7774 25.84C45.4601 25.7093 45.1287 25.5973 44.7834 25.504C44.4381 25.4107 44.0834 25.364 43.7194 25.364C43.2154 25.364 42.8281 25.448 42.5574 25.616C42.2961 25.7747 42.1654 25.994 42.1654 26.274C42.1654 26.4793 42.2261 26.6567 42.3474 26.806C42.4687 26.946 42.6694 27.086 42.9494 27.226C43.2387 27.3567 43.6214 27.5153 44.0974 27.702C44.5734 27.8793 44.9794 28.0613 45.3154 28.248C45.6514 28.4347 45.9081 28.6633 46.0854 28.934C46.2627 29.1953 46.3514 29.5267 46.3514 29.928ZM51.1746 32.14C50.5119 32.14 49.9193 32.0047 49.3966 31.734C48.8833 31.4633 48.4773 31.0433 48.1786 30.474C47.8893 29.9047 47.7446 29.1767 47.7446 28.29C47.7446 27.366 47.8986 26.6147 48.2066 26.036C48.5146 25.4573 48.9299 25.0327 49.4526 24.762C49.9846 24.4913 50.5866 24.356 51.2586 24.356C51.6413 24.356 52.0099 24.398 52.3646 24.482C52.7193 24.5567 53.0086 24.65 53.2326 24.762L52.8546 25.784C52.6306 25.7 52.3693 25.6207 52.0706 25.546C51.7719 25.4713 51.4919 25.434 51.2306 25.434C49.7559 25.434 49.0186 26.3813 49.0186 28.276C49.0186 29.1813 49.1959 29.8767 49.5506 30.362C49.9146 30.838 50.4513 31.076 51.1606 31.076C51.5713 31.076 51.9306 31.034 52.2386 30.95C52.5559 30.866 52.8453 30.7633 53.1066 30.642V31.734C52.8546 31.8647 52.5746 31.9627 52.2666 32.028C51.9679 32.1027 51.6039 32.14 51.1746 32.14ZM58.3912 24.356C58.5312 24.356 58.6805 24.3653 58.8392 24.384C59.0072 24.3933 59.1518 24.412 59.2732 24.44L59.1192 25.574C58.9978 25.546 58.8625 25.5227 58.7132 25.504C58.5732 25.4853 58.4378 25.476 58.3072 25.476C57.9245 25.476 57.5652 25.5833 57.2292 25.798C56.8932 26.0033 56.6225 26.2973 56.4172 26.68C56.2212 27.0533 56.1232 27.492 56.1232 27.996V32H54.8912V24.496H55.8992L56.0392 25.868H56.0952C56.3378 25.4573 56.6505 25.1027 57.0332 24.804C57.4158 24.5053 57.8685 24.356 58.3912 24.356ZM61.3044 21.682C61.491 21.682 61.6544 21.7473 61.7944 21.878C61.9437 21.9993 62.0184 22.1953 62.0184 22.466C62.0184 22.7273 61.9437 22.9233 61.7944 23.054C61.6544 23.1847 61.491 23.25 61.3044 23.25C61.099 23.25 60.9264 23.1847 60.7864 23.054C60.6464 22.9233 60.5764 22.7273 60.5764 22.466C60.5764 22.1953 60.6464 21.9993 60.7864 21.878C60.9264 21.7473 61.099 21.682 61.3044 21.682ZM61.9064 24.496V32H60.6744V24.496H61.9064ZM65.5158 23.95C65.5158 24.2673 65.5064 24.566 65.4878 24.846C65.4784 25.1167 65.4644 25.3313 65.4458 25.49H65.5158C65.7304 25.1727 66.0244 24.9067 66.3978 24.692C66.7711 24.4773 67.2518 24.37 67.8398 24.37C68.7731 24.37 69.5198 24.6967 70.0798 25.35C70.6491 25.994 70.9338 26.96 70.9338 28.248C70.9338 29.536 70.6491 30.5067 70.0798 31.16C69.5104 31.8133 68.7638 32.14 67.8398 32.14C67.2518 32.14 66.7711 32.0327 66.3978 31.818C66.0244 31.6033 65.7304 31.3467 65.5158 31.048H65.4178L65.1658 32H64.2838V21.36H65.5158V23.95ZM67.6298 25.392C66.8364 25.392 66.2858 25.6207 65.9778 26.078C65.6698 26.5353 65.5158 27.2447 65.5158 28.206V28.262C65.5158 29.186 65.6651 29.8953 65.9638 30.39C66.2718 30.8753 66.8364 31.118 67.6578 31.118C68.3298 31.118 68.8291 30.8707 69.1558 30.376C69.4918 29.8813 69.6598 29.1673 69.6598 28.234C69.6598 26.3393 68.9831 25.392 67.6298 25.392ZM75.795 24.356C76.439 24.356 76.9897 24.496 77.447 24.776C77.9137 25.056 78.2684 25.4527 78.511 25.966C78.763 26.47 78.889 27.0627 78.889 27.744V28.486H73.751C73.7697 29.3353 73.9844 29.984 74.395 30.432C74.815 30.8707 75.3984 31.09 76.145 31.09C76.621 31.09 77.041 31.048 77.405 30.964C77.7784 30.8707 78.161 30.74 78.553 30.572V31.65C78.1704 31.818 77.7924 31.9393 77.419 32.014C77.0457 32.098 76.6024 32.14 76.089 32.14C75.3797 32.14 74.7497 31.9953 74.199 31.706C73.6577 31.4167 73.233 30.9873 72.925 30.418C72.6264 29.8393 72.477 29.1347 72.477 28.304C72.477 27.4827 72.6124 26.778 72.883 26.19C73.163 25.602 73.5504 25.1493 74.045 24.832C74.549 24.5147 75.1324 24.356 75.795 24.356ZM75.781 25.364C75.193 25.364 74.7264 25.5553 74.381 25.938C74.045 26.3113 73.8444 26.834 73.779 27.506H77.601C77.5917 26.8713 77.4424 26.358 77.153 25.966C76.8637 25.5647 76.4064 25.364 75.781 25.364ZM87.2781 24.37C88.1928 24.37 88.8694 24.5707 89.3081 24.972C89.7468 25.3733 89.9661 26.0127 89.9661 26.89V32H89.0701L88.8321 30.936H88.7761C88.4494 31.3467 88.1041 31.65 87.7401 31.846C87.3854 32.042 86.8908 32.14 86.2561 32.14C85.5748 32.14 85.0101 31.9627 84.5621 31.608C84.1141 31.244 83.8901 30.6793 83.8901 29.914C83.8901 29.1673 84.1841 28.5933 84.7721 28.192C85.3601 27.7813 86.2654 27.5573 87.4881 27.52L88.7621 27.478V27.03C88.7621 26.4047 88.6268 25.9707 88.3561 25.728C88.0854 25.4853 87.7028 25.364 87.2081 25.364C86.8161 25.364 86.4428 25.4247 86.0881 25.546C85.7334 25.658 85.4021 25.7887 85.0941 25.938L84.7161 25.014C85.0428 24.8367 85.4301 24.6873 85.8781 24.566C86.3261 24.4353 86.7928 24.37 87.2781 24.37ZM87.6421 28.374C86.7088 28.4113 86.0601 28.5607 85.6961 28.822C85.3414 29.0833 85.1641 29.452 85.1641 29.928C85.1641 30.348 85.2901 30.656 85.5421 30.852C85.8034 31.048 86.1348 31.146 86.5361 31.146C87.1708 31.146 87.6981 30.9733 88.1181 30.628C88.5381 30.2733 88.7481 29.732 88.7481 29.004V28.332L87.6421 28.374ZM94.7897 31.132C94.9764 31.132 95.1678 31.118 95.3638 31.09C95.5598 31.0527 95.7184 31.0153 95.8398 30.978V31.916C95.7091 31.9813 95.5224 32.0327 95.2798 32.07C95.0371 32.1167 94.8038 32.14 94.5798 32.14C94.1878 32.14 93.8238 32.0747 93.4878 31.944C93.1611 31.804 92.8951 31.566 92.6898 31.23C92.4844 30.894 92.3818 30.4227 92.3818 29.816V25.448H91.3178V24.86L92.3958 24.37L92.8858 22.774H93.6138V24.496H95.7838V25.448H93.6138V29.788C93.6138 30.2453 93.7211 30.586 93.9358 30.81C94.1598 31.0247 94.4444 31.132 94.7897 31.132ZM103.821 24.37C104.736 24.37 105.412 24.5707 105.851 24.972C106.29 25.3733 106.509 26.0127 106.509 26.89V32H105.613L105.375 30.936H105.319C104.992 31.3467 104.647 31.65 104.283 31.846C103.928 32.042 103.434 32.14 102.799 32.14C102.118 32.14 101.553 31.9627 101.105 31.608C100.657 31.244 100.433 30.6793 100.433 29.914C100.433 29.1673 100.727 28.5933 101.315 28.192C101.903 27.7813 102.808 27.5573 104.031 27.52L105.305 27.478V27.03C105.305 26.4047 105.17 25.9707 104.899 25.728C104.628 25.4853 104.246 25.364 103.751 25.364C103.359 25.364 102.986 25.4247 102.631 25.546C102.276 25.658 101.945 25.7887 101.637 25.938L101.259 25.014C101.586 24.8367 101.973 24.6873 102.421 24.566C102.869 24.4353 103.336 24.37 103.821 24.37ZM104.185 28.374C103.252 28.4113 102.603 28.5607 102.239 28.822C101.884 29.0833 101.707 29.452 101.707 29.928C101.707 30.348 101.833 30.656 102.085 30.852C102.346 31.048 102.678 31.146 103.079 31.146C103.714 31.146 104.241 30.9733 104.661 30.628C105.081 30.2733 105.291 29.732 105.291 29.004V28.332L104.185 28.374ZM112.439 24.356C113.335 24.356 114.011 24.5753 114.469 25.014C114.926 25.4433 115.155 26.1433 115.155 27.114V32H113.937V27.198C113.937 25.994 113.377 25.392 112.257 25.392C111.426 25.392 110.852 25.6253 110.535 26.092C110.217 26.5587 110.059 27.2307 110.059 28.108V32H108.827V24.496H109.821L110.003 25.518H110.073C110.315 25.126 110.651 24.8367 111.081 24.65C111.51 24.454 111.963 24.356 112.439 24.356ZM116.305 24.496H117.621L119.245 28.766C119.385 29.1393 119.511 29.4987 119.623 29.844C119.735 30.18 119.819 30.502 119.875 30.81H119.931C119.987 30.5767 120.076 30.2733 120.197 29.9C120.318 29.5173 120.444 29.1347 120.575 28.752L122.101 24.496H123.431L120.197 33.036C119.936 33.7453 119.595 34.31 119.175 34.73C118.764 35.15 118.195 35.36 117.467 35.36C117.243 35.36 117.047 35.346 116.879 35.318C116.711 35.2993 116.566 35.276 116.445 35.248V34.268C116.548 34.2867 116.669 34.3053 116.809 34.324C116.958 34.3427 117.112 34.352 117.271 34.352C117.7 34.352 118.046 34.2307 118.307 33.988C118.578 33.7453 118.788 33.4233 118.937 33.022L119.329 32.028L116.305 24.496ZM130.76 31.132C130.947 31.132 131.138 31.118 131.334 31.09C131.53 31.0527 131.689 31.0153 131.81 30.978V31.916C131.68 31.9813 131.493 32.0327 131.25 32.07C131.008 32.1167 130.774 32.14 130.55 32.14C130.158 32.14 129.794 32.0747 129.458 31.944C129.132 31.804 128.866 31.566 128.66 31.23C128.455 30.894 128.352 30.4227 128.352 29.816V25.448H127.288V24.86L128.366 24.37L128.856 22.774H129.584V24.496H131.754V25.448H129.584V29.788C129.584 30.2453 129.692 30.586 129.906 30.81C130.13 31.0247 130.415 31.132 130.76 31.132ZM133.943 21.682C134.13 21.682 134.293 21.7473 134.433 21.878C134.582 21.9993 134.657 22.1953 134.657 22.466C134.657 22.7273 134.582 22.9233 134.433 23.054C134.293 23.1847 134.13 23.25 133.943 23.25C133.738 23.25 133.565 23.1847 133.425 23.054C133.285 22.9233 133.215 22.7273 133.215 22.466C133.215 22.1953 133.285 21.9993 133.425 21.878C133.565 21.7473 133.738 21.682 133.943 21.682ZM134.545 24.496V32H133.313V24.496H134.545ZM145.154 24.356C146.004 24.356 146.638 24.5753 147.058 25.014C147.478 25.4433 147.688 26.1433 147.688 27.114V32H146.47V27.17C146.47 25.9847 145.962 25.392 144.944 25.392C144.216 25.392 143.694 25.602 143.376 26.022C143.068 26.442 142.914 27.0533 142.914 27.856V32H141.696V27.17C141.696 25.9847 141.183 25.392 140.156 25.392C139.4 25.392 138.878 25.6253 138.588 26.092C138.299 26.5587 138.154 27.2307 138.154 28.108V32H136.922V24.496H137.916L138.098 25.518H138.168C138.402 25.126 138.714 24.8367 139.106 24.65C139.508 24.454 139.932 24.356 140.38 24.356C141.556 24.356 142.322 24.776 142.676 25.616H142.746C142.998 25.1867 143.339 24.8693 143.768 24.664C144.207 24.4587 144.669 24.356 145.154 24.356ZM152.904 24.356C153.548 24.356 154.099 24.496 154.556 24.776C155.023 25.056 155.378 25.4527 155.62 25.966C155.872 26.47 155.998 27.0627 155.998 27.744V28.486H150.86C150.879 29.3353 151.094 29.984 151.504 30.432C151.924 30.8707 152.508 31.09 153.254 31.09C153.73 31.09 154.15 31.048 154.514 30.964C154.888 30.8707 155.27 30.74 155.662 30.572V31.65C155.28 31.818 154.902 31.9393 154.528 32.014C154.155 32.098 153.712 32.14 153.198 32.14C152.489 32.14 151.859 31.9953 151.308 31.706C150.767 31.4167 150.342 30.9873 150.034 30.418C149.736 29.8393 149.586 29.1347 149.586 28.304C149.586 27.4827 149.722 26.778 149.992 26.19C150.272 25.602 150.66 25.1493 151.154 24.832C151.658 24.5147 152.242 24.356 152.904 24.356ZM152.89 25.364C152.302 25.364 151.836 25.5553 151.49 25.938C151.154 26.3113 150.954 26.834 150.888 27.506H154.71C154.701 26.8713 154.552 26.358 154.262 25.966C153.973 25.5647 153.516 25.364 152.89 25.364ZM157.727 31.244C157.727 30.8987 157.811 30.656 157.979 30.516C158.147 30.376 158.347 30.306 158.581 30.306C158.823 30.306 159.029 30.376 159.197 30.516C159.374 30.656 159.463 30.8987 159.463 31.244C159.463 31.58 159.374 31.8227 159.197 31.972C159.029 32.1213 158.823 32.196 158.581 32.196C158.347 32.196 158.147 32.1213 157.979 31.972C157.811 31.8227 157.727 31.58 157.727 31.244ZM172.502 22.004L168.932 32H167.672L164.102 22.004H165.418L167.672 28.416C167.821 28.8267 167.947 29.214 168.05 29.578C168.152 29.9327 168.236 30.2733 168.302 30.6C168.367 30.2733 168.451 29.928 168.554 29.564C168.656 29.2 168.782 28.808 168.932 28.388L171.172 22.004H172.502ZM174.316 21.682C174.503 21.682 174.666 21.7473 174.806 21.878C174.955 21.9993 175.03 22.1953 175.03 22.466C175.03 22.7273 174.955 22.9233 174.806 23.054C174.666 23.1847 174.503 23.25 174.316 23.25C174.111 23.25 173.938 23.1847 173.798 23.054C173.658 22.9233 173.588 22.7273 173.588 22.466C173.588 22.1953 173.658 21.9993 173.798 21.878C173.938 21.7473 174.111 21.682 174.316 21.682ZM174.918 24.496V32H173.686V24.496H174.918ZM180.193 24.356C180.837 24.356 181.388 24.496 181.845 24.776C182.312 25.056 182.667 25.4527 182.909 25.966C183.161 26.47 183.287 27.0627 183.287 27.744V28.486H178.149C178.168 29.3353 178.383 29.984 178.793 30.432C179.213 30.8707 179.797 31.09 180.543 31.09C181.019 31.09 181.439 31.048 181.803 30.964C182.177 30.8707 182.559 30.74 182.951 30.572V31.65C182.569 31.818 182.191 31.9393 181.817 32.014C181.444 32.098 181.001 32.14 180.487 32.14C179.778 32.14 179.148 31.9953 178.597 31.706C178.056 31.4167 177.631 30.9873 177.323 30.418C177.025 29.8393 176.875 29.1347 176.875 28.304C176.875 27.4827 177.011 26.778 177.281 26.19C177.561 25.602 177.949 25.1493 178.443 24.832C178.947 24.5147 179.531 24.356 180.193 24.356ZM180.179 25.364C179.591 25.364 179.125 25.5553 178.779 25.938C178.443 26.3113 178.243 26.834 178.177 27.506H181.999C181.99 26.8713 181.841 26.358 181.551 25.966C181.262 25.5647 180.805 25.364 180.179 25.364ZM189.768 27.758C189.647 27.3753 189.54 27.002 189.446 26.638C189.362 26.2647 189.297 25.9753 189.25 25.77H189.194C189.157 25.9753 189.096 26.2647 189.012 26.638C188.928 27.002 188.821 27.38 188.69 27.772L187.346 31.986H185.946L183.888 24.482H185.162L186.198 28.486C186.301 28.8873 186.399 29.2933 186.492 29.704C186.586 30.1147 186.651 30.4553 186.688 30.726H186.744C186.782 30.5673 186.824 30.3713 186.87 30.138C186.926 29.9047 186.987 29.662 187.052 29.41C187.118 29.1487 187.183 28.9153 187.248 28.71L188.578 24.482H189.922L191.21 28.71C191.313 29.0273 191.411 29.3727 191.504 29.746C191.607 30.1193 191.677 30.4413 191.714 30.712H191.77C191.798 30.4787 191.859 30.1567 191.952 29.746C192.055 29.3353 192.162 28.9153 192.274 28.486L193.324 24.482H194.584L192.498 31.986H191.056L189.768 27.758ZM206.091 28.234C206.091 29.4753 205.774 30.4367 205.139 31.118C204.514 31.7993 203.664 32.14 202.591 32.14C201.928 32.14 201.336 31.9907 200.813 31.692C200.3 31.384 199.894 30.9407 199.595 30.362C199.296 29.774 199.147 29.0647 199.147 28.234C199.147 26.9927 199.46 26.036 200.085 25.364C200.71 24.692 201.56 24.356 202.633 24.356C203.314 24.356 203.912 24.51 204.425 24.818C204.948 25.1167 205.354 25.5553 205.643 26.134C205.942 26.7033 206.091 27.4033 206.091 28.234ZM200.421 28.234C200.421 29.1207 200.594 29.8253 200.939 30.348C201.294 30.8613 201.854 31.118 202.619 31.118C203.375 31.118 203.93 30.8613 204.285 30.348C204.64 29.8253 204.817 29.1207 204.817 28.234C204.817 27.3473 204.64 26.652 204.285 26.148C203.93 25.644 203.37 25.392 202.605 25.392C201.84 25.392 201.284 25.644 200.939 26.148C200.594 26.652 200.421 27.3473 200.421 28.234ZM214.316 24.496V32H213.308L213.126 31.006H213.07C212.827 31.398 212.491 31.6873 212.062 31.874C211.632 32.0513 211.175 32.14 210.69 32.14C209.784 32.14 209.103 31.9253 208.646 31.496C208.188 31.0573 207.96 30.362 207.96 29.41V24.496H209.206V29.326C209.206 30.5207 209.761 31.118 210.872 31.118C211.702 31.118 212.276 30.8847 212.594 30.418C212.92 29.9513 213.084 29.2793 213.084 28.402V24.496H214.316ZM220.198 24.356C220.338 24.356 220.487 24.3653 220.646 24.384C220.814 24.3933 220.958 24.412 221.08 24.44L220.926 25.574C220.804 25.546 220.669 25.5227 220.52 25.504C220.38 25.4853 220.244 25.476 220.114 25.476C219.731 25.476 219.372 25.5833 219.036 25.798C218.7 26.0033 218.429 26.2973 218.224 26.68C218.028 27.0533 217.93 27.492 217.93 27.996V32H216.698V24.496H217.706L217.846 25.868H217.902C218.144 25.4573 218.457 25.1027 218.84 24.804C219.222 24.5053 219.675 24.356 220.198 24.356ZM229.576 25.448H227.686V32H226.454V25.448H225.138V24.874L226.454 24.454V24.02C226.454 23.0493 226.668 22.354 227.098 21.934C227.527 21.5047 228.124 21.29 228.89 21.29C229.188 21.29 229.459 21.318 229.702 21.374C229.954 21.4207 230.168 21.4767 230.346 21.542L230.024 22.508C229.874 22.4613 229.702 22.4147 229.506 22.368C229.31 22.3213 229.109 22.298 228.904 22.298C228.493 22.298 228.185 22.438 227.98 22.718C227.784 22.9887 227.686 23.418 227.686 24.006V24.496H229.576V25.448ZM237.202 24.496V32H236.194L236.012 31.006H235.956C235.714 31.398 235.378 31.6873 234.948 31.874C234.519 32.0513 234.062 32.14 233.576 32.14C232.671 32.14 231.99 31.9253 231.532 31.496C231.075 31.0573 230.846 30.362 230.846 29.41V24.496H232.092V29.326C232.092 30.5207 232.648 31.118 233.758 31.118C234.589 31.118 235.163 30.8847 235.48 30.418C235.807 29.9513 235.97 29.2793 235.97 28.402V24.496H237.202ZM240.817 32H239.585V21.36H240.817V32ZM244.426 32H243.194V21.36H244.426V32Z" fill="#163A24"/>
</svg>
