<svg width="50" height="12" viewBox="0 0 50 12" fill="none" xmlns="http://www.w3.org/2000/svg">
<path d="M5.15177 1.97C4.07843 1.97 3.23377 2.32933 2.61777 3.048C2.00177 3.76667 1.69377 4.75133 1.69377 6.002C1.69377 7.24333 1.97843 8.228 2.54777 8.956C3.12643 9.67467 3.98977 10.034 5.13777 10.034C5.57643 10.034 5.99177 9.99667 6.38377 9.922C6.77577 9.84733 7.15843 9.754 7.53177 9.642V10.734C7.15843 10.874 6.7711 10.9767 6.36977 11.042C5.97777 11.1073 5.50643 11.14 4.95577 11.14C3.93843 11.14 3.0891 10.93 2.40777 10.51C1.72643 10.09 1.2131 9.49267 0.867766 8.718C0.531766 7.94333 0.363766 7.03333 0.363766 5.988C0.363766 4.98 0.545766 4.09333 0.909766 3.328C1.2831 2.55333 1.8291 1.95133 2.54777 1.522C3.26643 1.08333 4.1391 0.863999 5.16577 0.863999C6.22043 0.863999 7.13977 1.06 7.92377 1.452L7.41977 2.516C7.11177 2.376 6.76643 2.25 6.38377 2.138C6.01043 2.026 5.59977 1.97 5.15177 1.97ZM12.3875 3.37C13.3021 3.37 13.9788 3.57067 14.4175 3.972C14.8561 4.37333 15.0755 5.01267 15.0755 5.89V11H14.1795L13.9415 9.936H13.8855C13.5588 10.3467 13.2135 10.65 12.8495 10.846C12.4948 11.042 12.0001 11.14 11.3655 11.14C10.6841 11.14 10.1195 10.9627 9.67147 10.608C9.22347 10.244 8.99947 9.67933 8.99947 8.914C8.99947 8.16733 9.29347 7.59333 9.88147 7.192C10.4695 6.78133 11.3748 6.55733 12.5975 6.52L13.8715 6.478V6.03C13.8715 5.40467 13.7361 4.97067 13.4655 4.728C13.1948 4.48533 12.8121 4.364 12.3175 4.364C11.9255 4.364 11.5521 4.42467 11.1975 4.546C10.8428 4.658 10.5115 4.78867 10.2035 4.938L9.82547 4.014C10.1521 3.83667 10.5395 3.68733 10.9875 3.566C11.4355 3.43533 11.9021 3.37 12.3875 3.37ZM12.7515 7.374C11.8181 7.41133 11.1695 7.56067 10.8055 7.822C10.4508 8.08333 10.2735 8.452 10.2735 8.928C10.2735 9.348 10.3995 9.656 10.6515 9.852C10.9128 10.048 11.2441 10.146 11.6455 10.146C12.2801 10.146 12.8075 9.97333 13.2275 9.628C13.6475 9.27333 13.8575 8.732 13.8575 8.004V7.332L12.7515 7.374ZM20.8931 3.356C21.0331 3.356 21.1825 3.36533 21.3411 3.384C21.5091 3.39333 21.6538 3.412 21.7751 3.44L21.6211 4.574C21.4998 4.546 21.3645 4.52267 21.2151 4.504C21.0751 4.48533 20.9398 4.476 20.8091 4.476C20.4265 4.476 20.0671 4.58333 19.7311 4.798C19.3951 5.00333 19.1245 5.29733 18.9191 5.68C18.7231 6.05333 18.6251 6.492 18.6251 6.996V11H17.3931V3.496H18.4011L18.5411 4.868H18.5971C18.8398 4.45733 19.1525 4.10267 19.5351 3.804C19.9178 3.50533 20.3705 3.356 20.8931 3.356ZM25.8009 3.356C26.4449 3.356 26.9956 3.496 27.4529 3.776C27.9196 4.056 28.2742 4.45267 28.5169 4.966C28.7689 5.47 28.8949 6.06267 28.8949 6.744V7.486H23.7569C23.7756 8.33533 23.9902 8.984 24.4009 9.432C24.8209 9.87067 25.4042 10.09 26.1509 10.09C26.6269 10.09 27.0469 10.048 27.4109 9.964C27.7842 9.87067 28.1669 9.74 28.5589 9.572V10.65C28.1762 10.818 27.7982 10.9393 27.4249 11.014C27.0516 11.098 26.6082 11.14 26.0949 11.14C25.3856 11.14 24.7556 10.9953 24.2049 10.706C23.6636 10.4167 23.2389 9.98733 22.9309 9.418C22.6322 8.83933 22.4829 8.13467 22.4829 7.304C22.4829 6.48267 22.6182 5.778 22.8889 5.19C23.1689 4.602 23.5562 4.14933 24.0509 3.832C24.5549 3.51467 25.1382 3.356 25.8009 3.356ZM25.7869 4.364C25.1989 4.364 24.7322 4.55533 24.3869 4.938C24.0509 5.31133 23.8502 5.834 23.7849 6.506H27.6069C27.5976 5.87133 27.4482 5.358 27.1589 4.966C26.8696 4.56467 26.4122 4.364 25.7869 4.364ZM33.7032 3.356C34.3472 3.356 34.8979 3.496 35.3552 3.776C35.8219 4.056 36.1766 4.45267 36.4192 4.966C36.6712 5.47 36.7972 6.06267 36.7972 6.744V7.486H31.6592C31.6779 8.33533 31.8926 8.984 32.3032 9.432C32.7232 9.87067 33.3066 10.09 34.0532 10.09C34.5292 10.09 34.9492 10.048 35.3132 9.964C35.6866 9.87067 36.0692 9.74 36.4612 9.572V10.65C36.0786 10.818 35.7006 10.9393 35.3272 11.014C34.9539 11.098 34.5106 11.14 33.9972 11.14C33.2879 11.14 32.6579 10.9953 32.1072 10.706C31.5659 10.4167 31.1412 9.98733 30.8332 9.418C30.5346 8.83933 30.3852 8.13467 30.3852 7.304C30.3852 6.48267 30.5206 5.778 30.7912 5.19C31.0712 4.602 31.4586 4.14933 31.9532 3.832C32.4572 3.51467 33.0406 3.356 33.7032 3.356ZM33.6892 4.364C33.1012 4.364 32.6346 4.55533 32.2892 4.938C31.9532 5.31133 31.7526 5.834 31.6872 6.506H35.5092C35.4999 5.87133 35.3506 5.358 35.0612 4.966C34.7719 4.56467 34.3146 4.364 33.6892 4.364ZM42.2076 3.356C42.3476 3.356 42.4969 3.36533 42.6556 3.384C42.8236 3.39333 42.9682 3.412 43.0896 3.44L42.9356 4.574C42.8142 4.546 42.6789 4.52267 42.5296 4.504C42.3896 4.48533 42.2542 4.476 42.1236 4.476C41.7409 4.476 41.3816 4.58333 41.0456 4.798C40.7096 5.00333 40.4389 5.29733 40.2336 5.68C40.0376 6.05333 39.9396 6.492 39.9396 6.996V11H38.7076V3.496H39.7156L39.8556 4.868H39.9116C40.1542 4.45733 40.4669 4.10267 40.8496 3.804C41.2322 3.50533 41.6849 3.356 42.2076 3.356ZM49.3768 8.928C49.3768 9.656 49.1061 10.2067 48.5648 10.58C48.0234 10.9533 47.2954 11.14 46.3808 11.14C45.8581 11.14 45.4054 11.098 45.0228 11.014C44.6494 10.93 44.3181 10.8133 44.0288 10.664V9.544C44.3274 9.69333 44.6868 9.83333 45.1068 9.964C45.5361 10.0853 45.9701 10.146 46.4088 10.146C47.0341 10.146 47.4868 10.048 47.7668 9.852C48.0468 9.64667 48.1868 9.376 48.1868 9.04C48.1868 8.85333 48.1354 8.68533 48.0328 8.536C47.9301 8.38667 47.7434 8.23733 47.4728 8.088C47.2114 7.93867 46.8334 7.77067 46.3388 7.584C45.8534 7.39733 45.4381 7.21067 45.0928 7.024C44.7474 6.83733 44.4814 6.61333 44.2948 6.352C44.1081 6.09067 44.0148 5.75467 44.0148 5.344C44.0148 4.70933 44.2714 4.21933 44.7848 3.874C45.3074 3.52867 45.9888 3.356 46.8288 3.356C47.2861 3.356 47.7108 3.40267 48.1028 3.496C48.5041 3.58 48.8774 3.70133 49.2228 3.86L48.8028 4.84C48.4854 4.70933 48.1541 4.59733 47.8088 4.504C47.4634 4.41067 47.1088 4.364 46.7448 4.364C46.2408 4.364 45.8534 4.448 45.5828 4.616C45.3214 4.77467 45.1908 4.994 45.1908 5.274C45.1908 5.47933 45.2514 5.65667 45.3728 5.806C45.4941 5.946 45.6948 6.086 45.9748 6.226C46.2641 6.35667 46.6468 6.51533 47.1228 6.702C47.5988 6.87933 48.0048 7.06133 48.3408 7.248C48.6768 7.43467 48.9334 7.66333 49.1108 7.934C49.2881 8.19533 49.3768 8.52667 49.3768 8.928Z" fill="#198C36"/>
</svg>
