<svg width="519" height="19" viewBox="0 0 519 19" fill="none" xmlns="http://www.w3.org/2000/svg">
<path d="M6.25498 2.39C4.87498 2.39 3.78898 2.852 2.99698 3.776C2.20498 4.7 1.80898 5.966 1.80898 7.574C1.80898 9.17 2.17498 10.436 2.90698 11.372C3.65098 12.296 4.76098 12.758 6.23698 12.758C6.80098 12.758 7.33498 12.71 7.83898 12.614C8.34298 12.518 8.83498 12.398 9.31498 12.254V13.658C8.83498 13.838 8.33698 13.97 7.82098 14.054C7.31698 14.138 6.71098 14.18 6.00298 14.18C4.69498 14.18 3.60298 13.91 2.72698 13.37C1.85098 12.83 1.19098 12.062 0.746977 11.066C0.314977 10.07 0.0989766 8.9 0.0989766 7.556C0.0989766 6.26 0.332977 5.12 0.800977 4.136C1.28098 3.14 1.98298 2.366 2.90698 1.814C3.83098 1.25 4.95298 0.967999 6.27298 0.967999C7.62898 0.967999 8.81098 1.22 9.81898 1.724L9.17098 3.092C8.77498 2.912 8.33098 2.75 7.83898 2.606C7.35898 2.462 6.83098 2.39 6.25498 2.39ZM13.488 14H11.904V0.319999H13.488V14ZM20.2706 4.172C21.0986 4.172 21.8066 4.352 22.3946 4.712C22.9946 5.072 23.4506 5.582 23.7626 6.242C24.0866 6.89 24.2486 7.652 24.2486 8.528V9.482H17.6426C17.6666 10.574 17.9426 11.408 18.4706 11.984C19.0106 12.548 19.7606 12.83 20.7206 12.83C21.3326 12.83 21.8726 12.776 22.3406 12.668C22.8206 12.548 23.3126 12.38 23.8166 12.164V13.55C23.3246 13.766 22.8386 13.922 22.3586 14.018C21.8786 14.126 21.3086 14.18 20.6486 14.18C19.7366 14.18 18.9266 13.994 18.2186 13.622C17.5226 13.25 16.9766 12.698 16.5806 11.966C16.1966 11.222 16.0046 10.316 16.0046 9.248C16.0046 8.192 16.1786 7.286 16.5266 6.53C16.8866 5.774 17.3846 5.192 18.0206 4.784C18.6686 4.376 19.4186 4.172 20.2706 4.172ZM20.2526 5.468C19.4966 5.468 18.8966 5.714 18.4526 6.206C18.0206 6.686 17.7626 7.358 17.6786 8.222H22.5926C22.5806 7.406 22.3886 6.746 22.0166 6.242C21.6446 5.726 21.0566 5.468 20.2526 5.468ZM31.2048 4.172C31.3848 4.172 31.5768 4.184 31.7808 4.208C31.9968 4.22 32.1828 4.244 32.3388 4.28L32.1408 5.738C31.9848 5.702 31.8108 5.672 31.6188 5.648C31.4388 5.624 31.2648 5.612 31.0968 5.612C30.6048 5.612 30.1428 5.75 29.7108 6.026C29.2788 6.29 28.9308 6.668 28.6668 7.16C28.4148 7.64 28.2888 8.204 28.2888 8.852V14H26.7048V4.352H28.0008L28.1808 6.116H28.2528C28.5648 5.588 28.9668 5.132 29.4588 4.748C29.9508 4.364 30.5328 4.172 31.2048 4.172ZM35.7064 7.466C35.7064 7.658 35.6944 7.91 35.6704 8.222C35.6584 8.534 35.6464 8.804 35.6344 9.032H35.7064C35.7784 8.936 35.8864 8.798 36.0304 8.618C36.1744 8.438 36.3184 8.258 36.4624 8.078C36.6184 7.886 36.7504 7.73 36.8584 7.61L39.9364 4.352H41.7904L37.8844 8.474L42.0604 14H40.1524L36.8044 9.5L35.7064 10.454V14H34.1404V0.319999H35.7064V7.466ZM50.0376 11.336C50.0376 12.272 49.6896 12.98 48.9936 13.46C48.2976 13.94 47.3616 14.18 46.1856 14.18C45.5136 14.18 44.9316 14.126 44.4396 14.018C43.9596 13.91 43.5336 13.76 43.1616 13.568V12.128C43.5456 12.32 44.0076 12.5 44.5476 12.668C45.0996 12.824 45.6576 12.902 46.2216 12.902C47.0256 12.902 47.6076 12.776 47.9676 12.524C48.3276 12.26 48.5076 11.912 48.5076 11.48C48.5076 11.24 48.4416 11.024 48.3096 10.832C48.1776 10.64 47.9376 10.448 47.5896 10.256C47.2536 10.064 46.7676 9.848 46.1316 9.608C45.5076 9.368 44.9736 9.128 44.5296 8.888C44.0856 8.648 43.7436 8.36 43.5036 8.024C43.2636 7.688 43.1436 7.256 43.1436 6.728C43.1436 5.912 43.4736 5.282 44.1336 4.838C44.8056 4.394 45.6816 4.172 46.7616 4.172C47.3496 4.172 47.8956 4.232 48.3996 4.352C48.9156 4.46 49.3956 4.616 49.8396 4.82L49.2996 6.08C48.8916 5.912 48.4656 5.768 48.0216 5.648C47.5776 5.528 47.1216 5.468 46.6536 5.468C46.0056 5.468 45.5076 5.576 45.1596 5.792C44.8236 5.996 44.6556 6.278 44.6556 6.638C44.6556 6.902 44.7336 7.13 44.8896 7.322C45.0456 7.502 45.3036 7.682 45.6636 7.862C46.0356 8.03 46.5276 8.234 47.1396 8.474C47.7516 8.702 48.2736 8.936 48.7056 9.176C49.1376 9.416 49.4676 9.71 49.6956 10.058C49.9236 10.394 50.0376 10.82 50.0376 11.336ZM50.8569 4.352H52.5489L54.6369 9.842C54.8169 10.322 54.9789 10.784 55.1229 11.228C55.2669 11.66 55.3749 12.074 55.4469 12.47H55.5189C55.5909 12.17 55.7049 11.78 55.8609 11.3C56.0169 10.808 56.1789 10.316 56.3469 9.824L58.3089 4.352H60.0189L55.8609 15.332C55.5249 16.244 55.0869 16.97 54.5469 17.51C54.0189 18.05 53.2869 18.32 52.3509 18.32C52.0629 18.32 51.8109 18.302 51.5949 18.266C51.3789 18.242 51.1929 18.212 51.0369 18.176V16.916C51.1689 16.94 51.3249 16.964 51.5049 16.988C51.6969 17.012 51.8949 17.024 52.0989 17.024C52.6509 17.024 53.0949 16.868 53.4309 16.556C53.7789 16.244 54.0489 15.83 54.2409 15.314L54.7449 14.036L50.8569 4.352ZM70.0904 14.18C69.2384 14.18 68.4764 14.006 67.8044 13.658C67.1444 13.31 66.6224 12.77 66.2384 12.038C65.8664 11.306 65.6804 10.37 65.6804 9.23C65.6804 8.042 65.8784 7.076 66.2744 6.332C66.6704 5.588 67.2044 5.042 67.8764 4.694C68.5604 4.346 69.3344 4.172 70.1984 4.172C70.6904 4.172 71.1644 4.226 71.6204 4.334C72.0764 4.43 72.4484 4.55 72.7364 4.694L72.2504 6.008C71.9624 5.9 71.6264 5.798 71.2424 5.702C70.8584 5.606 70.4984 5.558 70.1624 5.558C68.2664 5.558 67.3184 6.776 67.3184 9.212C67.3184 10.376 67.5464 11.27 68.0024 11.894C68.4704 12.506 69.1604 12.812 70.0724 12.812C70.6004 12.812 71.0624 12.758 71.4584 12.65C71.8664 12.542 72.2384 12.41 72.5744 12.254V13.658C72.2504 13.826 71.8904 13.952 71.4944 14.036C71.1104 14.132 70.6424 14.18 70.0904 14.18ZM78.5229 4.19C79.6989 4.19 80.5689 4.448 81.1329 4.964C81.6969 5.48 81.9789 6.302 81.9789 7.43V14H80.8269L80.5209 12.632H80.4489C80.0289 13.16 79.5849 13.55 79.1169 13.802C78.6609 14.054 78.0249 14.18 77.2089 14.18C76.3329 14.18 75.6069 13.952 75.0309 13.496C74.4549 13.028 74.1669 12.302 74.1669 11.318C74.1669 10.358 74.5449 9.62 75.3009 9.104C76.0569 8.576 77.2209 8.288 78.7929 8.24L80.4309 8.186V7.61C80.4309 6.806 80.2569 6.248 79.9089 5.936C79.5609 5.624 79.0689 5.468 78.4329 5.468C77.9289 5.468 77.4489 5.546 76.9929 5.702C76.5369 5.846 76.1109 6.014 75.7149 6.206L75.2289 5.018C75.6489 4.79 76.1469 4.598 76.7229 4.442C77.2989 4.274 77.8989 4.19 78.5229 4.19ZM78.9909 9.338C77.7909 9.386 76.9569 9.578 76.4889 9.914C76.0329 10.25 75.8049 10.724 75.8049 11.336C75.8049 11.876 75.9669 12.272 76.2909 12.524C76.6269 12.776 77.0529 12.902 77.5689 12.902C78.3849 12.902 79.0629 12.68 79.6029 12.236C80.1429 11.78 80.4129 11.084 80.4129 10.148V9.284L78.9909 9.338ZM89.6027 4.172C90.7547 4.172 91.6247 4.454 92.2127 5.018C92.8007 5.57 93.0947 6.47 93.0947 7.718V14H91.5287V7.826C91.5287 6.278 90.8087 5.504 89.3687 5.504C88.3007 5.504 87.5627 5.804 87.1547 6.404C86.7467 7.004 86.5427 7.868 86.5427 8.996V14H84.9587V4.352H86.2367L86.4707 5.666H86.5607C86.8727 5.162 87.3047 4.79 87.8567 4.55C88.4087 4.298 88.9907 4.172 89.6027 4.172ZM102.345 4.334C102.345 4.814 102.315 5.264 102.255 5.684H102.363C102.675 5.192 103.095 4.82 103.623 4.568C104.163 4.316 104.745 4.19 105.369 4.19C106.545 4.19 107.427 4.472 108.015 5.036C108.603 5.588 108.897 6.482 108.897 7.718V14H107.331V7.826C107.331 6.278 106.611 5.504 105.171 5.504C104.091 5.504 103.347 5.81 102.939 6.422C102.543 7.022 102.345 7.886 102.345 9.014V14H100.761V0.319999H102.345V4.334ZM115.614 4.172C116.442 4.172 117.15 4.352 117.738 4.712C118.338 5.072 118.794 5.582 119.106 6.242C119.43 6.89 119.592 7.652 119.592 8.528V9.482H112.986C113.01 10.574 113.286 11.408 113.814 11.984C114.354 12.548 115.104 12.83 116.064 12.83C116.676 12.83 117.216 12.776 117.684 12.668C118.164 12.548 118.656 12.38 119.16 12.164V13.55C118.668 13.766 118.182 13.922 117.702 14.018C117.222 14.126 116.652 14.18 115.992 14.18C115.08 14.18 114.27 13.994 113.562 13.622C112.866 13.25 112.32 12.698 111.924 11.966C111.54 11.222 111.348 10.316 111.348 9.248C111.348 8.192 111.522 7.286 111.87 6.53C112.23 5.774 112.728 5.192 113.364 4.784C114.012 4.376 114.762 4.172 115.614 4.172ZM115.596 5.468C114.84 5.468 114.24 5.714 113.796 6.206C113.364 6.686 113.106 7.358 113.022 8.222H117.936C117.924 7.406 117.732 6.746 117.36 6.242C116.988 5.726 116.4 5.468 115.596 5.468ZM123.633 14H122.049V0.319999H123.633V14ZM131.279 4.172C132.467 4.172 133.421 4.586 134.141 5.414C134.873 6.242 135.239 7.49 135.239 9.158C135.239 10.802 134.873 12.05 134.141 12.902C133.421 13.754 132.461 14.18 131.261 14.18C130.517 14.18 129.899 14.042 129.407 13.766C128.927 13.478 128.549 13.148 128.273 12.776H128.165C128.189 12.98 128.213 13.238 128.237 13.55C128.261 13.862 128.273 14.132 128.273 14.36V18.32H126.689V4.352H127.985L128.201 5.666H128.273C128.561 5.246 128.939 4.892 129.407 4.604C129.875 4.316 130.499 4.172 131.279 4.172ZM130.991 5.504C130.007 5.504 129.311 5.78 128.903 6.332C128.507 6.884 128.297 7.724 128.273 8.852V9.158C128.273 10.346 128.465 11.264 128.849 11.912C129.245 12.548 129.971 12.866 131.027 12.866C131.615 12.866 132.095 12.704 132.467 12.38C132.851 12.056 133.133 11.618 133.313 11.066C133.505 10.502 133.601 9.86 133.601 9.14C133.601 8.036 133.385 7.154 132.953 6.494C132.533 5.834 131.879 5.504 130.991 5.504ZM150.503 4.352V14H149.207L148.973 12.722H148.901C148.589 13.226 148.157 13.598 147.605 13.838C147.053 14.066 146.465 14.18 145.841 14.18C144.677 14.18 143.801 13.904 143.213 13.352C142.625 12.788 142.331 11.894 142.331 10.67V4.352H143.933V10.562C143.933 12.098 144.647 12.866 146.075 12.866C147.143 12.866 147.881 12.566 148.289 11.966C148.709 11.366 148.919 10.502 148.919 9.374V4.352H150.503ZM159.848 11.336C159.848 12.272 159.5 12.98 158.804 13.46C158.108 13.94 157.172 14.18 155.996 14.18C155.324 14.18 154.742 14.126 154.25 14.018C153.77 13.91 153.344 13.76 152.972 13.568V12.128C153.356 12.32 153.818 12.5 154.358 12.668C154.91 12.824 155.468 12.902 156.032 12.902C156.836 12.902 157.418 12.776 157.778 12.524C158.138 12.26 158.318 11.912 158.318 11.48C158.318 11.24 158.252 11.024 158.12 10.832C157.988 10.64 157.748 10.448 157.4 10.256C157.064 10.064 156.578 9.848 155.942 9.608C155.318 9.368 154.784 9.128 154.34 8.888C153.896 8.648 153.554 8.36 153.314 8.024C153.074 7.688 152.954 7.256 152.954 6.728C152.954 5.912 153.284 5.282 153.944 4.838C154.616 4.394 155.492 4.172 156.572 4.172C157.16 4.172 157.706 4.232 158.21 4.352C158.726 4.46 159.206 4.616 159.65 4.82L159.11 6.08C158.702 5.912 158.276 5.768 157.832 5.648C157.388 5.528 156.932 5.468 156.464 5.468C155.816 5.468 155.318 5.576 154.97 5.792C154.634 5.996 154.466 6.278 154.466 6.638C154.466 6.902 154.544 7.13 154.7 7.322C154.856 7.502 155.114 7.682 155.474 7.862C155.846 8.03 156.338 8.234 156.95 8.474C157.562 8.702 158.084 8.936 158.516 9.176C158.948 9.416 159.278 9.71 159.506 10.058C159.734 10.394 159.848 10.82 159.848 11.336ZM165.905 4.172C166.733 4.172 167.441 4.352 168.029 4.712C168.629 5.072 169.085 5.582 169.397 6.242C169.721 6.89 169.883 7.652 169.883 8.528V9.482H163.277C163.301 10.574 163.577 11.408 164.105 11.984C164.645 12.548 165.395 12.83 166.355 12.83C166.967 12.83 167.507 12.776 167.975 12.668C168.455 12.548 168.947 12.38 169.451 12.164V13.55C168.959 13.766 168.473 13.922 167.993 14.018C167.513 14.126 166.943 14.18 166.283 14.18C165.371 14.18 164.561 13.994 163.853 13.622C163.157 13.25 162.611 12.698 162.215 11.966C161.831 11.222 161.639 10.316 161.639 9.248C161.639 8.192 161.813 7.286 162.161 6.53C162.521 5.774 163.019 5.192 163.655 4.784C164.303 4.376 165.053 4.172 165.905 4.172ZM165.887 5.468C165.131 5.468 164.531 5.714 164.087 6.206C163.655 6.686 163.397 7.358 163.313 8.222H168.227C168.215 7.406 168.023 6.746 167.651 6.242C167.279 5.726 166.691 5.468 165.887 5.468ZM175.503 4.352H177.195L179.283 9.842C179.463 10.322 179.625 10.784 179.769 11.228C179.913 11.66 180.021 12.074 180.093 12.47H180.165C180.237 12.17 180.351 11.78 180.507 11.3C180.663 10.808 180.825 10.316 180.993 9.824L182.955 4.352H184.665L180.507 15.332C180.171 16.244 179.733 16.97 179.193 17.51C178.665 18.05 177.933 18.32 176.997 18.32C176.709 18.32 176.457 18.302 176.241 18.266C176.025 18.242 175.839 18.212 175.683 18.176V16.916C175.815 16.94 175.971 16.964 176.151 16.988C176.343 17.012 176.541 17.024 176.745 17.024C177.297 17.024 177.741 16.868 178.077 16.556C178.425 16.244 178.695 15.83 178.887 15.314L179.391 14.036L175.503 4.352ZM194.579 9.158C194.579 10.754 194.171 11.99 193.355 12.866C192.551 13.742 191.459 14.18 190.079 14.18C189.227 14.18 188.465 13.988 187.793 13.604C187.133 13.208 186.611 12.638 186.227 11.894C185.843 11.138 185.651 10.226 185.651 9.158C185.651 7.562 186.053 6.332 186.857 5.468C187.661 4.604 188.753 4.172 190.133 4.172C191.009 4.172 191.777 4.37 192.437 4.766C193.109 5.15 193.631 5.714 194.003 6.458C194.387 7.19 194.579 8.09 194.579 9.158ZM187.289 9.158C187.289 10.298 187.511 11.204 187.955 11.876C188.411 12.536 189.131 12.866 190.115 12.866C191.087 12.866 191.801 12.536 192.257 11.876C192.713 11.204 192.941 10.298 192.941 9.158C192.941 8.018 192.713 7.124 192.257 6.476C191.801 5.828 191.081 5.504 190.097 5.504C189.113 5.504 188.399 5.828 187.955 6.476C187.511 7.124 187.289 8.018 187.289 9.158ZM205.154 4.352V14H203.858L203.624 12.722H203.552C203.24 13.226 202.808 13.598 202.256 13.838C201.704 14.066 201.116 14.18 200.492 14.18C199.328 14.18 198.452 13.904 197.864 13.352C197.276 12.788 196.982 11.894 196.982 10.67V4.352H198.584V10.562C198.584 12.098 199.298 12.866 200.726 12.866C201.794 12.866 202.532 12.566 202.94 11.966C203.36 11.366 203.57 10.502 203.57 9.374V4.352H205.154ZM212.717 4.172C212.897 4.172 213.089 4.184 213.293 4.208C213.509 4.22 213.695 4.244 213.851 4.28L213.653 5.738C213.497 5.702 213.323 5.672 213.131 5.648C212.951 5.624 212.777 5.612 212.609 5.612C212.117 5.612 211.655 5.75 211.223 6.026C210.791 6.29 210.443 6.668 210.179 7.16C209.927 7.64 209.801 8.204 209.801 8.852V14H208.217V4.352H209.513L209.693 6.116H209.765C210.077 5.588 210.479 5.132 210.971 4.748C211.463 4.364 212.045 4.172 212.717 4.172ZM228.392 4.352V14H227.096L226.862 12.722H226.79C226.478 13.226 226.046 13.598 225.494 13.838C224.942 14.066 224.354 14.18 223.73 14.18C222.566 14.18 221.69 13.904 221.102 13.352C220.514 12.788 220.22 11.894 220.22 10.67V4.352H221.822V10.562C221.822 12.098 222.536 12.866 223.964 12.866C225.032 12.866 225.77 12.566 226.178 11.966C226.598 11.366 226.808 10.502 226.808 9.374V4.352H228.392ZM236.099 4.172C237.251 4.172 238.121 4.454 238.709 5.018C239.297 5.57 239.591 6.47 239.591 7.718V14H238.025V7.826C238.025 6.278 237.305 5.504 235.865 5.504C234.797 5.504 234.059 5.804 233.651 6.404C233.243 7.004 233.039 7.868 233.039 8.996V14H231.455V4.352H232.733L232.967 5.666H233.057C233.369 5.162 233.801 4.79 234.353 4.55C234.905 4.298 235.487 4.172 236.099 4.172ZM243.392 0.733999C243.632 0.733999 243.842 0.817999 244.022 0.985999C244.214 1.142 244.31 1.394 244.31 1.742C244.31 2.078 244.214 2.33 244.022 2.498C243.842 2.666 243.632 2.75 243.392 2.75C243.128 2.75 242.906 2.666 242.726 2.498C242.546 2.33 242.456 2.078 242.456 1.742C242.456 1.394 242.546 1.142 242.726 0.985999C242.906 0.817999 243.128 0.733999 243.392 0.733999ZM244.166 4.352V14H242.582V4.352H244.166ZM253.648 14.198C253.648 13.982 253.654 13.73 253.666 13.442C253.678 13.154 253.702 12.908 253.738 12.704H253.63C253.354 13.112 252.97 13.46 252.478 13.748C251.998 14.036 251.374 14.18 250.606 14.18C249.442 14.18 248.494 13.766 247.762 12.938C247.042 12.098 246.682 10.85 246.682 9.194C246.682 7.538 247.048 6.29 247.78 5.45C248.524 4.598 249.484 4.172 250.66 4.172C251.416 4.172 252.034 4.316 252.514 4.604C252.994 4.892 253.378 5.246 253.666 5.666H253.738L253.972 4.352H255.232V18.32H253.648V14.198ZM250.912 12.866C251.908 12.866 252.61 12.596 253.018 12.056C253.438 11.504 253.654 10.664 253.666 9.536V9.212C253.666 7.988 253.462 7.064 253.054 6.44C252.646 5.804 251.92 5.486 250.876 5.486C250.012 5.486 249.37 5.828 248.95 6.512C248.53 7.184 248.32 8.09 248.32 9.23C248.32 10.37 248.53 11.264 248.95 11.912C249.382 12.548 250.036 12.866 250.912 12.866ZM266.361 4.352V14H265.065L264.831 12.722H264.759C264.447 13.226 264.015 13.598 263.463 13.838C262.911 14.066 262.323 14.18 261.699 14.18C260.535 14.18 259.659 13.904 259.071 13.352C258.483 12.788 258.189 11.894 258.189 10.67V4.352H259.791V10.562C259.791 12.098 260.505 12.866 261.933 12.866C263.001 12.866 263.739 12.566 264.147 11.966C264.567 11.366 264.777 10.502 264.777 9.374V4.352H266.361ZM273.15 4.172C273.978 4.172 274.686 4.352 275.274 4.712C275.874 5.072 276.33 5.582 276.642 6.242C276.966 6.89 277.128 7.652 277.128 8.528V9.482H270.522C270.546 10.574 270.822 11.408 271.35 11.984C271.89 12.548 272.64 12.83 273.6 12.83C274.212 12.83 274.752 12.776 275.22 12.668C275.7 12.548 276.192 12.38 276.696 12.164V13.55C276.204 13.766 275.718 13.922 275.238 14.018C274.758 14.126 274.188 14.18 273.528 14.18C272.616 14.18 271.806 13.994 271.098 13.622C270.402 13.25 269.856 12.698 269.46 11.966C269.076 11.222 268.884 10.316 268.884 9.248C268.884 8.192 269.058 7.286 269.406 6.53C269.766 5.774 270.264 5.192 270.9 4.784C271.548 4.376 272.298 4.172 273.15 4.172ZM273.132 5.468C272.376 5.468 271.776 5.714 271.332 6.206C270.9 6.686 270.642 7.358 270.558 8.222H275.472C275.46 7.406 275.268 6.746 274.896 6.242C274.524 5.726 273.936 5.468 273.132 5.468ZM285.843 3.65C285.843 4.058 285.831 4.442 285.807 4.802C285.795 5.15 285.777 5.426 285.753 5.63H285.843C286.119 5.222 286.497 4.88 286.977 4.604C287.457 4.328 288.075 4.19 288.831 4.19C290.031 4.19 290.991 4.61 291.711 5.45C292.443 6.278 292.809 7.52 292.809 9.176C292.809 10.832 292.443 12.08 291.711 12.92C290.979 13.76 290.019 14.18 288.831 14.18C288.075 14.18 287.457 14.042 286.977 13.766C286.497 13.49 286.119 13.16 285.843 12.776H285.717L285.393 14H284.259V0.319999H285.843V3.65ZM288.561 5.504C287.541 5.504 286.833 5.798 286.437 6.386C286.041 6.974 285.843 7.886 285.843 9.122V9.194C285.843 10.382 286.035 11.294 286.419 11.93C286.815 12.554 287.541 12.866 288.597 12.866C289.461 12.866 290.103 12.548 290.523 11.912C290.955 11.276 291.171 10.358 291.171 9.158C291.171 6.722 290.301 5.504 288.561 5.504ZM303.398 4.352V14H302.102L301.868 12.722H301.796C301.484 13.226 301.052 13.598 300.5 13.838C299.948 14.066 299.36 14.18 298.736 14.18C297.572 14.18 296.696 13.904 296.108 13.352C295.52 12.788 295.226 11.894 295.226 10.67V4.352H296.828V10.562C296.828 12.098 297.542 12.866 298.97 12.866C300.038 12.866 300.776 12.566 301.184 11.966C301.604 11.366 301.814 10.502 301.814 9.374V4.352H303.398ZM312.743 11.336C312.743 12.272 312.395 12.98 311.699 13.46C311.003 13.94 310.067 14.18 308.891 14.18C308.219 14.18 307.637 14.126 307.145 14.018C306.665 13.91 306.239 13.76 305.867 13.568V12.128C306.251 12.32 306.713 12.5 307.253 12.668C307.805 12.824 308.363 12.902 308.927 12.902C309.731 12.902 310.313 12.776 310.673 12.524C311.033 12.26 311.213 11.912 311.213 11.48C311.213 11.24 311.147 11.024 311.015 10.832C310.883 10.64 310.643 10.448 310.295 10.256C309.959 10.064 309.473 9.848 308.837 9.608C308.213 9.368 307.679 9.128 307.235 8.888C306.791 8.648 306.449 8.36 306.209 8.024C305.969 7.688 305.849 7.256 305.849 6.728C305.849 5.912 306.179 5.282 306.839 4.838C307.511 4.394 308.387 4.172 309.467 4.172C310.055 4.172 310.601 4.232 311.105 4.352C311.621 4.46 312.101 4.616 312.545 4.82L312.005 6.08C311.597 5.912 311.171 5.768 310.727 5.648C310.283 5.528 309.827 5.468 309.359 5.468C308.711 5.468 308.213 5.576 307.865 5.792C307.529 5.996 307.361 6.278 307.361 6.638C307.361 6.902 307.439 7.13 307.595 7.322C307.751 7.502 308.009 7.682 308.369 7.862C308.741 8.03 309.233 8.234 309.845 8.474C310.457 8.702 310.979 8.936 311.411 9.176C311.843 9.416 312.173 9.71 312.401 10.058C312.629 10.394 312.743 10.82 312.743 11.336ZM315.884 0.733999C316.124 0.733999 316.334 0.817999 316.514 0.985999C316.706 1.142 316.802 1.394 316.802 1.742C316.802 2.078 316.706 2.33 316.514 2.498C316.334 2.666 316.124 2.75 315.884 2.75C315.62 2.75 315.398 2.666 315.218 2.498C315.038 2.33 314.948 2.078 314.948 1.742C314.948 1.394 315.038 1.142 315.218 0.985999C315.398 0.817999 315.62 0.733999 315.884 0.733999ZM316.658 4.352V14H315.074V4.352H316.658ZM324.359 4.172C325.511 4.172 326.381 4.454 326.969 5.018C327.557 5.57 327.851 6.47 327.851 7.718V14H326.285V7.826C326.285 6.278 325.565 5.504 324.125 5.504C323.057 5.504 322.319 5.804 321.911 6.404C321.503 7.004 321.299 7.868 321.299 8.996V14H319.715V4.352H320.993L321.227 5.666H321.317C321.629 5.162 322.061 4.79 322.613 4.55C323.165 4.298 323.747 4.172 324.359 4.172ZM334.568 4.172C335.396 4.172 336.104 4.352 336.692 4.712C337.292 5.072 337.748 5.582 338.06 6.242C338.384 6.89 338.546 7.652 338.546 8.528V9.482H331.94C331.964 10.574 332.24 11.408 332.768 11.984C333.308 12.548 334.058 12.83 335.018 12.83C335.63 12.83 336.17 12.776 336.638 12.668C337.118 12.548 337.61 12.38 338.114 12.164V13.55C337.622 13.766 337.136 13.922 336.656 14.018C336.176 14.126 335.606 14.18 334.946 14.18C334.034 14.18 333.224 13.994 332.516 13.622C331.82 13.25 331.274 12.698 330.878 11.966C330.494 11.222 330.302 10.316 330.302 9.248C330.302 8.192 330.476 7.286 330.824 6.53C331.184 5.774 331.682 5.192 332.318 4.784C332.966 4.376 333.716 4.172 334.568 4.172ZM334.55 5.468C333.794 5.468 333.194 5.714 332.75 6.206C332.318 6.686 332.06 7.358 331.976 8.222H336.89C336.878 7.406 336.686 6.746 336.314 6.242C335.942 5.726 335.354 5.468 334.55 5.468ZM347.284 11.336C347.284 12.272 346.936 12.98 346.24 13.46C345.544 13.94 344.608 14.18 343.432 14.18C342.76 14.18 342.178 14.126 341.686 14.018C341.206 13.91 340.78 13.76 340.408 13.568V12.128C340.792 12.32 341.254 12.5 341.794 12.668C342.346 12.824 342.904 12.902 343.468 12.902C344.272 12.902 344.854 12.776 345.214 12.524C345.574 12.26 345.754 11.912 345.754 11.48C345.754 11.24 345.688 11.024 345.556 10.832C345.424 10.64 345.184 10.448 344.836 10.256C344.5 10.064 344.014 9.848 343.378 9.608C342.754 9.368 342.22 9.128 341.776 8.888C341.332 8.648 340.99 8.36 340.75 8.024C340.51 7.688 340.39 7.256 340.39 6.728C340.39 5.912 340.72 5.282 341.38 4.838C342.052 4.394 342.928 4.172 344.008 4.172C344.596 4.172 345.142 4.232 345.646 4.352C346.162 4.46 346.642 4.616 347.086 4.82L346.546 6.08C346.138 5.912 345.712 5.768 345.268 5.648C344.824 5.528 344.368 5.468 343.9 5.468C343.252 5.468 342.754 5.576 342.406 5.792C342.07 5.996 341.902 6.278 341.902 6.638C341.902 6.902 341.98 7.13 342.136 7.322C342.292 7.502 342.55 7.682 342.91 7.862C343.282 8.03 343.774 8.234 344.386 8.474C344.998 8.702 345.52 8.936 345.952 9.176C346.384 9.416 346.714 9.71 346.942 10.058C347.17 10.394 347.284 10.82 347.284 11.336ZM355.897 11.336C355.897 12.272 355.549 12.98 354.853 13.46C354.157 13.94 353.221 14.18 352.045 14.18C351.373 14.18 350.791 14.126 350.299 14.018C349.819 13.91 349.393 13.76 349.021 13.568V12.128C349.405 12.32 349.867 12.5 350.407 12.668C350.959 12.824 351.517 12.902 352.081 12.902C352.885 12.902 353.467 12.776 353.827 12.524C354.187 12.26 354.367 11.912 354.367 11.48C354.367 11.24 354.301 11.024 354.169 10.832C354.037 10.64 353.797 10.448 353.449 10.256C353.113 10.064 352.627 9.848 351.991 9.608C351.367 9.368 350.833 9.128 350.389 8.888C349.945 8.648 349.603 8.36 349.363 8.024C349.123 7.688 349.003 7.256 349.003 6.728C349.003 5.912 349.333 5.282 349.993 4.838C350.665 4.394 351.541 4.172 352.621 4.172C353.209 4.172 353.755 4.232 354.259 4.352C354.775 4.46 355.255 4.616 355.699 4.82L355.159 6.08C354.751 5.912 354.325 5.768 353.881 5.648C353.437 5.528 352.981 5.468 352.513 5.468C351.865 5.468 351.367 5.576 351.019 5.792C350.683 5.996 350.515 6.278 350.515 6.638C350.515 6.902 350.593 7.13 350.749 7.322C350.905 7.502 351.163 7.682 351.523 7.862C351.895 8.03 352.387 8.234 352.999 8.474C353.611 8.702 354.133 8.936 354.565 9.176C354.997 9.416 355.327 9.71 355.555 10.058C355.783 10.394 355.897 10.82 355.897 11.336ZM367.548 4.172C368.7 4.172 369.57 4.454 370.158 5.018C370.746 5.57 371.04 6.47 371.04 7.718V14H369.474V7.826C369.474 6.278 368.754 5.504 367.314 5.504C366.246 5.504 365.508 5.804 365.1 6.404C364.692 7.004 364.488 7.868 364.488 8.996V14H362.904V4.352H364.182L364.416 5.666H364.506C364.818 5.162 365.25 4.79 365.802 4.55C366.354 4.298 366.936 4.172 367.548 4.172ZM377.757 4.172C378.585 4.172 379.293 4.352 379.881 4.712C380.481 5.072 380.937 5.582 381.249 6.242C381.573 6.89 381.735 7.652 381.735 8.528V9.482H375.129C375.153 10.574 375.429 11.408 375.957 11.984C376.497 12.548 377.247 12.83 378.207 12.83C378.819 12.83 379.359 12.776 379.827 12.668C380.307 12.548 380.799 12.38 381.303 12.164V13.55C380.811 13.766 380.325 13.922 379.845 14.018C379.365 14.126 378.795 14.18 378.135 14.18C377.223 14.18 376.413 13.994 375.705 13.622C375.009 13.25 374.463 12.698 374.067 11.966C373.683 11.222 373.491 10.316 373.491 9.248C373.491 8.192 373.665 7.286 374.013 6.53C374.373 5.774 374.871 5.192 375.507 4.784C376.155 4.376 376.905 4.172 377.757 4.172ZM377.739 5.468C376.983 5.468 376.383 5.714 375.939 6.206C375.507 6.686 375.249 7.358 375.165 8.222H380.079C380.067 7.406 379.875 6.746 379.503 6.242C379.131 5.726 378.543 5.468 377.739 5.468ZM387.917 4.172C388.745 4.172 389.453 4.352 390.041 4.712C390.641 5.072 391.097 5.582 391.409 6.242C391.733 6.89 391.895 7.652 391.895 8.528V9.482H385.289C385.313 10.574 385.589 11.408 386.117 11.984C386.657 12.548 387.407 12.83 388.367 12.83C388.979 12.83 389.519 12.776 389.987 12.668C390.467 12.548 390.959 12.38 391.463 12.164V13.55C390.971 13.766 390.485 13.922 390.005 14.018C389.525 14.126 388.955 14.18 388.295 14.18C387.383 14.18 386.573 13.994 385.865 13.622C385.169 13.25 384.623 12.698 384.227 11.966C383.843 11.222 383.651 10.316 383.651 9.248C383.651 8.192 383.825 7.286 384.173 6.53C384.533 5.774 385.031 5.192 385.667 4.784C386.315 4.376 387.065 4.172 387.917 4.172ZM387.899 5.468C387.143 5.468 386.543 5.714 386.099 6.206C385.667 6.686 385.409 7.358 385.325 8.222H390.239C390.227 7.406 390.035 6.746 389.663 6.242C389.291 5.726 388.703 5.468 387.899 5.468ZM397.771 14.18C396.571 14.18 395.611 13.766 394.891 12.938C394.171 12.098 393.811 10.85 393.811 9.194C393.811 7.538 394.171 6.29 394.891 5.45C395.623 4.598 396.589 4.172 397.789 4.172C398.533 4.172 399.139 4.31 399.607 4.586C400.087 4.862 400.477 5.198 400.777 5.594H400.885C400.873 5.438 400.849 5.21 400.813 4.91C400.789 4.598 400.777 4.352 400.777 4.172V0.319999H402.361V14H401.083L400.849 12.704H400.777C400.489 13.112 400.105 13.46 399.625 13.748C399.145 14.036 398.527 14.18 397.771 14.18ZM398.023 12.866C399.043 12.866 399.757 12.59 400.165 12.038C400.585 11.474 400.795 10.628 400.795 9.5V9.212C400.795 8.012 400.597 7.094 400.201 6.458C399.805 5.81 399.073 5.486 398.005 5.486C397.153 5.486 396.511 5.828 396.079 6.512C395.659 7.184 395.449 8.09 395.449 9.23C395.449 10.382 395.659 11.276 396.079 11.912C396.511 12.548 397.159 12.866 398.023 12.866ZM411.708 11.336C411.708 12.272 411.36 12.98 410.664 13.46C409.968 13.94 409.032 14.18 407.856 14.18C407.184 14.18 406.602 14.126 406.11 14.018C405.63 13.91 405.204 13.76 404.832 13.568V12.128C405.216 12.32 405.678 12.5 406.218 12.668C406.77 12.824 407.328 12.902 407.892 12.902C408.696 12.902 409.278 12.776 409.638 12.524C409.998 12.26 410.178 11.912 410.178 11.48C410.178 11.24 410.112 11.024 409.98 10.832C409.848 10.64 409.608 10.448 409.26 10.256C408.924 10.064 408.438 9.848 407.802 9.608C407.178 9.368 406.644 9.128 406.2 8.888C405.756 8.648 405.414 8.36 405.174 8.024C404.934 7.688 404.814 7.256 404.814 6.728C404.814 5.912 405.144 5.282 405.804 4.838C406.476 4.394 407.352 4.172 408.432 4.172C409.02 4.172 409.566 4.232 410.07 4.352C410.586 4.46 411.066 4.616 411.51 4.82L410.97 6.08C410.562 5.912 410.136 5.768 409.692 5.648C409.248 5.528 408.792 5.468 408.324 5.468C407.676 5.468 407.178 5.576 406.83 5.792C406.494 5.996 406.326 6.278 406.326 6.638C406.326 6.902 406.404 7.13 406.56 7.322C406.716 7.502 406.974 7.682 407.334 7.862C407.706 8.03 408.198 8.234 408.81 8.474C409.422 8.702 409.944 8.936 410.376 9.176C410.808 9.416 411.138 9.71 411.366 10.058C411.594 10.394 411.708 10.82 411.708 11.336ZM413.805 13.028C413.805 12.584 413.913 12.272 414.129 12.092C414.345 11.912 414.603 11.822 414.903 11.822C415.215 11.822 415.479 11.912 415.695 12.092C415.923 12.272 416.037 12.584 416.037 13.028C416.037 13.46 415.923 13.772 415.695 13.964C415.479 14.156 415.215 14.252 414.903 14.252C414.603 14.252 414.345 14.156 414.129 13.964C413.913 13.772 413.805 13.46 413.805 13.028ZM433.575 14H431.955V8.006H425.367V14H423.747V1.148H425.367V6.584H431.955V1.148H433.575V14ZM440.599 4.172C441.427 4.172 442.135 4.352 442.723 4.712C443.323 5.072 443.779 5.582 444.091 6.242C444.415 6.89 444.577 7.652 444.577 8.528V9.482H437.971C437.995 10.574 438.271 11.408 438.799 11.984C439.339 12.548 440.089 12.83 441.049 12.83C441.661 12.83 442.201 12.776 442.669 12.668C443.149 12.548 443.641 12.38 444.145 12.164V13.55C443.653 13.766 443.167 13.922 442.687 14.018C442.207 14.126 441.637 14.18 440.977 14.18C440.065 14.18 439.255 13.994 438.547 13.622C437.851 13.25 437.305 12.698 436.909 11.966C436.525 11.222 436.333 10.316 436.333 9.248C436.333 8.192 436.507 7.286 436.855 6.53C437.215 5.774 437.713 5.192 438.349 4.784C438.997 4.376 439.747 4.172 440.599 4.172ZM440.581 5.468C439.825 5.468 439.225 5.714 438.781 6.206C438.349 6.686 438.091 7.358 438.007 8.222H442.921C442.909 7.406 442.717 6.746 442.345 6.242C441.973 5.726 441.385 5.468 440.581 5.468ZM451.533 4.172C451.713 4.172 451.905 4.184 452.109 4.208C452.325 4.22 452.511 4.244 452.667 4.28L452.469 5.738C452.313 5.702 452.139 5.672 451.947 5.648C451.767 5.624 451.593 5.612 451.425 5.612C450.933 5.612 450.471 5.75 450.039 6.026C449.607 6.29 449.259 6.668 448.995 7.16C448.743 7.64 448.617 8.204 448.617 8.852V14H447.033V4.352H448.329L448.509 6.116H448.581C448.893 5.588 449.295 5.132 449.787 4.748C450.279 4.364 450.861 4.172 451.533 4.172ZM457.843 4.172C458.671 4.172 459.379 4.352 459.967 4.712C460.567 5.072 461.023 5.582 461.335 6.242C461.659 6.89 461.821 7.652 461.821 8.528V9.482H455.215C455.239 10.574 455.515 11.408 456.043 11.984C456.583 12.548 457.333 12.83 458.293 12.83C458.905 12.83 459.445 12.776 459.913 12.668C460.393 12.548 460.885 12.38 461.389 12.164V13.55C460.897 13.766 460.411 13.922 459.931 14.018C459.451 14.126 458.881 14.18 458.221 14.18C457.309 14.18 456.499 13.994 455.791 13.622C455.095 13.25 454.549 12.698 454.153 11.966C453.769 11.222 453.577 10.316 453.577 9.248C453.577 8.192 453.751 7.286 454.099 6.53C454.459 5.774 454.957 5.192 455.593 4.784C456.241 4.376 456.991 4.172 457.843 4.172ZM457.825 5.468C457.069 5.468 456.469 5.714 456.025 6.206C455.593 6.686 455.335 7.358 455.251 8.222H460.165C460.153 7.406 459.961 6.746 459.589 6.242C459.217 5.726 458.629 5.468 457.825 5.468ZM465.451 1.148L465.091 5.792H464.101L463.741 1.148H465.451ZM473.881 11.336C473.881 12.272 473.533 12.98 472.837 13.46C472.141 13.94 471.205 14.18 470.029 14.18C469.357 14.18 468.775 14.126 468.283 14.018C467.803 13.91 467.377 13.76 467.005 13.568V12.128C467.389 12.32 467.851 12.5 468.391 12.668C468.943 12.824 469.501 12.902 470.065 12.902C470.869 12.902 471.451 12.776 471.811 12.524C472.171 12.26 472.351 11.912 472.351 11.48C472.351 11.24 472.285 11.024 472.153 10.832C472.021 10.64 471.781 10.448 471.433 10.256C471.097 10.064 470.611 9.848 469.975 9.608C469.351 9.368 468.817 9.128 468.373 8.888C467.929 8.648 467.587 8.36 467.347 8.024C467.107 7.688 466.987 7.256 466.987 6.728C466.987 5.912 467.317 5.282 467.977 4.838C468.649 4.394 469.525 4.172 470.605 4.172C471.193 4.172 471.739 4.232 472.243 4.352C472.759 4.46 473.239 4.616 473.683 4.82L473.143 6.08C472.735 5.912 472.309 5.768 471.865 5.648C471.421 5.528 470.965 5.468 470.497 5.468C469.849 5.468 469.351 5.576 469.003 5.792C468.667 5.996 468.499 6.278 468.499 6.638C468.499 6.902 468.577 7.13 468.733 7.322C468.889 7.502 469.147 7.682 469.507 7.862C469.879 8.03 470.371 8.234 470.983 8.474C471.595 8.702 472.117 8.936 472.549 9.176C472.981 9.416 473.311 9.71 473.539 10.058C473.767 10.394 473.881 10.82 473.881 11.336ZM482.472 4.334C482.472 4.814 482.442 5.264 482.382 5.684H482.49C482.802 5.192 483.222 4.82 483.75 4.568C484.29 4.316 484.872 4.19 485.496 4.19C486.672 4.19 487.554 4.472 488.142 5.036C488.73 5.588 489.024 6.482 489.024 7.718V14H487.458V7.826C487.458 6.278 486.738 5.504 485.298 5.504C484.218 5.504 483.474 5.81 483.066 6.422C482.67 7.022 482.472 7.886 482.472 9.014V14H480.888V0.319999H482.472V4.334ZM500.403 9.158C500.403 10.754 499.995 11.99 499.179 12.866C498.375 13.742 497.283 14.18 495.903 14.18C495.051 14.18 494.289 13.988 493.617 13.604C492.957 13.208 492.435 12.638 492.051 11.894C491.667 11.138 491.475 10.226 491.475 9.158C491.475 7.562 491.877 6.332 492.681 5.468C493.485 4.604 494.577 4.172 495.957 4.172C496.833 4.172 497.601 4.37 498.261 4.766C498.933 5.15 499.455 5.714 499.827 6.458C500.211 7.19 500.403 8.09 500.403 9.158ZM493.113 9.158C493.113 10.298 493.335 11.204 493.779 11.876C494.235 12.536 494.955 12.866 495.939 12.866C496.911 12.866 497.625 12.536 498.081 11.876C498.537 11.204 498.765 10.298 498.765 9.158C498.765 8.018 498.537 7.124 498.081 6.476C497.625 5.828 496.905 5.504 495.921 5.504C494.937 5.504 494.223 5.828 493.779 6.476C493.335 7.124 493.113 8.018 493.113 9.158ZM508.79 8.546C508.634 8.054 508.496 7.574 508.376 7.106C508.268 6.626 508.184 6.254 508.124 5.99H508.052C508.004 6.254 507.926 6.626 507.818 7.106C507.71 7.574 507.572 8.06 507.404 8.564L505.676 13.982H503.876L501.23 4.334H502.868L504.2 9.482C504.332 9.998 504.458 10.52 504.578 11.048C504.698 11.576 504.782 12.014 504.83 12.362H504.902C504.95 12.158 505.004 11.906 505.064 11.606C505.136 11.306 505.214 10.994 505.298 10.67C505.382 10.334 505.466 10.034 505.55 9.77L507.26 4.334H508.988L510.644 9.77C510.776 10.178 510.902 10.622 511.022 11.102C511.154 11.582 511.244 11.996 511.292 12.344H511.364C511.4 12.044 511.478 11.63 511.598 11.102C511.73 10.574 511.868 10.034 512.012 9.482L513.362 4.334H514.982L512.3 13.982H510.446L508.79 8.546ZM516.479 5.324C516.479 4.868 516.587 4.55 516.803 4.37C517.019 4.19 517.277 4.1 517.577 4.1C517.889 4.1 518.153 4.19 518.369 4.37C518.597 4.55 518.711 4.868 518.711 5.324C518.711 5.756 518.597 6.068 518.369 6.26C518.153 6.452 517.889 6.548 517.577 6.548C517.277 6.548 517.019 6.452 516.803 6.26C516.587 6.068 516.479 5.756 516.479 5.324ZM516.479 13.028C516.479 12.584 516.587 12.272 516.803 12.092C517.019 11.912 517.277 11.822 517.577 11.822C517.889 11.822 518.153 11.912 518.369 12.092C518.597 12.272 518.711 12.584 518.711 13.028C518.711 13.46 518.597 13.772 518.369 13.964C518.153 14.156 517.889 14.252 517.577 14.252C517.277 14.252 517.019 14.156 516.803 13.964C516.587 13.772 516.479 13.46 516.479 13.028Z" fill="#163A24"/>
</svg>
