<svg width="220" height="17" viewBox="0 0 220 17" fill="none" xmlns="http://www.w3.org/2000/svg">
<path d="M6.448 2.68C5.22133 2.68 4.256 3.09067 3.552 3.912C2.848 4.73333 2.496 5.85867 2.496 7.288C2.496 8.70667 2.82133 9.832 3.472 10.664C4.13333 11.4853 5.12 11.896 6.432 11.896C6.93333 11.896 7.408 11.8533 7.856 11.768C8.304 11.6827 8.74133 11.576 9.168 11.448V12.696C8.74133 12.856 8.29867 12.9733 7.84 13.048C7.392 13.1227 6.85333 13.16 6.224 13.16C5.06133 13.16 4.09067 12.92 3.312 12.44C2.53333 11.96 1.94667 11.2773 1.552 10.392C1.168 9.50667 0.976 8.46667 0.976 7.272C0.976 6.12 1.184 5.10667 1.6 4.232C2.02667 3.34667 2.65067 2.65867 3.472 2.168C4.29333 1.66667 5.29067 1.416 6.464 1.416C7.66933 1.416 8.72 1.64 9.616 2.088L9.04 3.304C8.688 3.144 8.29333 3 7.856 2.872C7.42933 2.744 6.96 2.68 6.448 2.68ZM18.9254 8.696C18.9254 10.1147 18.5627 11.2133 17.8374 11.992C17.1227 12.7707 16.152 13.16 14.9254 13.16C14.168 13.16 13.4907 12.9893 12.8934 12.648C12.3067 12.296 11.8427 11.7893 11.5014 11.128C11.16 10.456 10.9894 9.64533 10.9894 8.696C10.9894 7.27733 11.3467 6.184 12.0614 5.416C12.776 4.648 13.7467 4.264 14.9734 4.264C15.752 4.264 16.4347 4.44 17.0214 4.792C17.6187 5.13333 18.0827 5.63467 18.4134 6.296C18.7547 6.94667 18.9254 7.74667 18.9254 8.696ZM12.4454 8.696C12.4454 9.70933 12.6427 10.5147 13.0374 11.112C13.4427 11.6987 14.0827 11.992 14.9574 11.992C15.8214 11.992 16.456 11.6987 16.8614 11.112C17.2667 10.5147 17.4694 9.70933 17.4694 8.696C17.4694 7.68267 17.2667 6.888 16.8614 6.312C16.456 5.736 15.816 5.448 14.9414 5.448C14.0667 5.448 13.432 5.736 13.0374 6.312C12.6427 6.888 12.4454 7.68267 12.4454 8.696ZM30.5649 4.264C31.5355 4.264 32.2609 4.51467 32.7409 5.016C33.2209 5.50667 33.4609 6.30667 33.4609 7.416V13H32.0689V7.48C32.0689 6.12533 31.4875 5.448 30.3249 5.448C29.4929 5.448 28.8955 5.688 28.5329 6.168C28.1809 6.648 28.0049 7.34667 28.0049 8.264V13H26.6129V7.48C26.6129 6.12533 26.0262 5.448 24.8529 5.448C23.9889 5.448 23.3915 5.71467 23.0609 6.248C22.7302 6.78133 22.5649 7.54933 22.5649 8.552V13H21.1569V4.424H22.2929L22.5009 5.592H22.5809C22.8475 5.144 23.2049 4.81333 23.6529 4.6C24.1115 4.376 24.5969 4.264 25.1089 4.264C26.4529 4.264 27.3275 4.744 27.7329 5.704H27.8129C28.1009 5.21333 28.4902 4.85067 28.9809 4.616C29.4822 4.38133 30.0102 4.264 30.5649 4.264ZM40.19 4.264C41.246 4.264 42.094 4.632 42.734 5.368C43.3847 6.104 43.71 7.21333 43.71 8.696C43.71 10.1573 43.3847 11.2667 42.734 12.024C42.094 12.7813 41.2407 13.16 40.174 13.16C39.5127 13.16 38.9633 13.0373 38.526 12.792C38.0993 12.536 37.7633 12.2427 37.518 11.912H37.422C37.4433 12.0933 37.4647 12.3227 37.486 12.6C37.5073 12.8773 37.518 13.1173 37.518 13.32V16.84H36.11V4.424H37.262L37.454 5.592H37.518C37.774 5.21867 38.11 4.904 38.526 4.648C38.942 4.392 39.4967 4.264 40.19 4.264ZM39.934 5.448C39.0593 5.448 38.4407 5.69333 38.078 6.184C37.726 6.67467 37.5393 7.42133 37.518 8.424V8.696C37.518 9.752 37.6887 10.568 38.03 11.144C38.382 11.7093 39.0273 11.992 39.966 11.992C40.4887 11.992 40.9153 11.848 41.246 11.56C41.5873 11.272 41.838 10.8827 41.998 10.392C42.1687 9.89067 42.254 9.32 42.254 8.68C42.254 7.69867 42.062 6.91467 41.678 6.328C41.3047 5.74133 40.7233 5.448 39.934 5.448ZM47.3618 13H45.9538V0.839999H47.3618V13ZM50.7988 1.208C51.0121 1.208 51.1988 1.28267 51.3588 1.432C51.5294 1.57067 51.6148 1.79467 51.6148 2.104C51.6148 2.40267 51.5294 2.62667 51.3588 2.776C51.1988 2.92533 51.0121 3 50.7988 3C50.5641 3 50.3668 2.92533 50.2068 2.776C50.0468 2.62667 49.9668 2.40267 49.9668 2.104C49.9668 1.79467 50.0468 1.57067 50.2068 1.432C50.3668 1.28267 50.5641 1.208 50.7988 1.208ZM51.4868 4.424V13H50.0788V4.424H51.4868ZM57.4518 4.28C58.4971 4.28 59.2704 4.50933 59.7718 4.968C60.2731 5.42667 60.5238 6.15733 60.5238 7.16V13H59.4998L59.2278 11.784H59.1638C58.7904 12.2533 58.3958 12.6 57.9798 12.824C57.5744 13.048 57.0091 13.16 56.2838 13.16C55.5051 13.16 54.8598 12.9573 54.3478 12.552C53.8358 12.136 53.5798 11.4907 53.5798 10.616C53.5798 9.76267 53.9158 9.10667 54.5878 8.648C55.2598 8.17867 56.2944 7.92267 57.6918 7.88L59.1478 7.832V7.32C59.1478 6.60533 58.9931 6.10933 58.6838 5.832C58.3744 5.55467 57.9371 5.416 57.3718 5.416C56.9238 5.416 56.4971 5.48533 56.0918 5.624C55.6864 5.752 55.3078 5.90133 54.9557 6.072L54.5238 5.016C54.8971 4.81333 55.3398 4.64267 55.8518 4.504C56.3638 4.35467 56.8971 4.28 57.4518 4.28ZM57.8678 8.856C56.8011 8.89867 56.0598 9.06933 55.6438 9.368C55.2384 9.66667 55.0358 10.088 55.0358 10.632C55.0358 11.112 55.1798 11.464 55.4678 11.688C55.7664 11.912 56.1451 12.024 56.6038 12.024C57.3291 12.024 57.9318 11.8267 58.4118 11.432C58.8918 11.0267 59.1318 10.408 59.1318 9.576V8.808L57.8678 8.856ZM67.3005 4.264C68.3245 4.264 69.0978 4.51467 69.6205 5.016C70.1432 5.50667 70.4045 6.30667 70.4045 7.416V13H69.0125V7.512C69.0125 6.136 68.3725 5.448 67.0925 5.448C66.1432 5.448 65.4872 5.71467 65.1245 6.248C64.7618 6.78133 64.5805 7.54933 64.5805 8.552V13H63.1725V4.424H64.3085L64.5165 5.592H64.5965C64.8738 5.144 65.2578 4.81333 65.7485 4.6C66.2392 4.376 66.7565 4.264 67.3005 4.264ZM76.5031 13.16C75.7458 13.16 75.0685 13.0053 74.4711 12.696C73.8845 12.3867 73.4205 11.9067 73.0791 11.256C72.7485 10.6053 72.5831 9.77333 72.5831 8.76C72.5831 7.704 72.7591 6.84533 73.1111 6.184C73.4631 5.52267 73.9378 5.03733 74.5351 4.728C75.1431 4.41867 75.8311 4.264 76.5991 4.264C77.0365 4.264 77.4578 4.312 77.8631 4.408C78.2685 4.49333 78.5991 4.6 78.8551 4.728L78.4231 5.896C78.1671 5.8 77.8685 5.70933 77.5271 5.624C77.1858 5.53867 76.8658 5.496 76.5671 5.496C74.8818 5.496 74.0391 6.57867 74.0391 8.744C74.0391 9.77867 74.2418 10.5733 74.6471 11.128C75.0631 11.672 75.6765 11.944 76.4871 11.944C76.9565 11.944 77.3671 11.896 77.7191 11.8C78.0818 11.704 78.4125 11.5867 78.7111 11.448V12.696C78.4231 12.8453 78.1031 12.9573 77.7511 13.032C77.4098 13.1173 76.9938 13.16 76.5031 13.16ZM84.0626 4.264C84.7986 4.264 85.428 4.424 85.9506 4.744C86.484 5.064 86.8893 5.51733 87.1666 6.104C87.4546 6.68 87.5986 7.35733 87.5986 8.136V8.984H81.7266C81.748 9.95467 81.9933 10.696 82.4626 11.208C82.9426 11.7093 83.6093 11.96 84.4626 11.96C85.0066 11.96 85.4866 11.912 85.9026 11.816C86.3293 11.7093 86.7666 11.56 87.2146 11.368V12.6C86.7773 12.792 86.3453 12.9307 85.9186 13.016C85.492 13.112 84.9853 13.16 84.3986 13.16C83.588 13.16 82.868 12.9947 82.2386 12.664C81.62 12.3333 81.1346 11.8427 80.7826 11.192C80.4413 10.5307 80.2706 9.72533 80.2706 8.776C80.2706 7.83733 80.4253 7.032 80.7346 6.36C81.0546 5.688 81.4973 5.17067 82.0626 4.808C82.6386 4.44533 83.3053 4.264 84.0626 4.264ZM84.0466 5.416C83.3746 5.416 82.8413 5.63467 82.4466 6.072C82.0626 6.49867 81.8333 7.096 81.7586 7.864H86.1266C86.116 7.13867 85.9453 6.552 85.6146 6.104C85.284 5.64533 84.7613 5.416 84.0466 5.416ZM101.298 13L99.9221 9.464H95.3941L94.0341 13H92.5781L97.0421 1.528H98.3381L102.786 13H101.298ZM98.2101 4.728C98.1781 4.64267 98.1248 4.488 98.0501 4.264C97.9755 4.04 97.9008 3.81067 97.8261 3.576C97.7621 3.33067 97.7088 3.144 97.6661 3.016C97.5915 3.34667 97.5061 3.672 97.4101 3.992C97.3141 4.30133 97.2341 4.54667 97.1701 4.728L95.8741 8.184H99.4901L98.2101 4.728ZM111.325 4.424V13H110.173L109.965 11.864H109.901C109.624 12.312 109.24 12.6427 108.749 12.856C108.258 13.0587 107.736 13.16 107.181 13.16C106.146 13.16 105.368 12.9147 104.845 12.424C104.322 11.9227 104.061 11.128 104.061 10.04V4.424H105.485V9.944C105.485 11.3093 106.12 11.992 107.389 11.992C108.338 11.992 108.994 11.7253 109.357 11.192C109.73 10.6587 109.917 9.89067 109.917 8.888V4.424H111.325ZM117.088 13.16C116.021 13.16 115.168 12.792 114.528 12.056C113.888 11.3093 113.568 10.2 113.568 8.728C113.568 7.256 113.888 6.14667 114.528 5.4C115.178 4.64267 116.037 4.264 117.104 4.264C117.765 4.264 118.304 4.38667 118.72 4.632C119.146 4.87733 119.493 5.176 119.76 5.528H119.856C119.845 5.38933 119.824 5.18667 119.792 4.92C119.77 4.64267 119.76 4.424 119.76 4.264V0.839999H121.168V13H120.032L119.824 11.848H119.76C119.504 12.2107 119.162 12.52 118.736 12.776C118.309 13.032 117.76 13.16 117.088 13.16ZM117.312 11.992C118.218 11.992 118.853 11.7467 119.216 11.256C119.589 10.7547 119.776 10.0027 119.776 9V8.744C119.776 7.67733 119.6 6.86133 119.248 6.296C118.896 5.72 118.245 5.432 117.296 5.432C116.538 5.432 115.968 5.736 115.584 6.344C115.21 6.94133 115.024 7.74667 115.024 8.76C115.024 9.784 115.21 10.5787 115.584 11.144C115.968 11.7093 116.544 11.992 117.312 11.992ZM124.611 1.208C124.825 1.208 125.011 1.28267 125.171 1.432C125.342 1.57067 125.427 1.79467 125.427 2.104C125.427 2.40267 125.342 2.62667 125.171 2.776C125.011 2.92533 124.825 3 124.611 3C124.377 3 124.179 2.92533 124.019 2.776C123.859 2.62667 123.779 2.40267 123.779 2.104C123.779 1.79467 123.859 1.57067 124.019 1.432C124.179 1.28267 124.377 1.208 124.611 1.208ZM125.299 4.424V13H123.891V4.424H125.299ZM130.88 12.008C131.094 12.008 131.312 11.992 131.536 11.96C131.76 11.9173 131.942 11.8747 132.08 11.832V12.904C131.931 12.9787 131.718 13.0373 131.44 13.08C131.163 13.1333 130.896 13.16 130.64 13.16C130.192 13.16 129.776 13.0853 129.392 12.936C129.019 12.776 128.715 12.504 128.48 12.12C128.246 11.736 128.128 11.1973 128.128 10.504V5.512H126.912V4.84L128.144 4.28L128.704 2.456H129.536V4.424H132.016V5.512H129.536V10.472C129.536 10.9947 129.659 11.384 129.904 11.64C130.16 11.8853 130.486 12.008 130.88 12.008ZM139.382 10.632C139.382 11.464 139.072 12.0933 138.454 12.52C137.835 12.9467 137.003 13.16 135.958 13.16C135.36 13.16 134.843 13.112 134.406 13.016C133.979 12.92 133.6 12.7867 133.27 12.616V11.336C133.611 11.5067 134.022 11.6667 134.502 11.816C134.992 11.9547 135.488 12.024 135.99 12.024C136.704 12.024 137.222 11.912 137.542 11.688C137.862 11.4533 138.022 11.144 138.022 10.76C138.022 10.5467 137.963 10.3547 137.846 10.184C137.728 10.0133 137.515 9.84267 137.206 9.672C136.907 9.50133 136.475 9.30933 135.91 9.096C135.355 8.88267 134.88 8.66933 134.486 8.456C134.091 8.24267 133.787 7.98667 133.574 7.688C133.36 7.38933 133.254 7.00533 133.254 6.536C133.254 5.81067 133.547 5.25067 134.134 4.856C134.731 4.46133 135.51 4.264 136.47 4.264C136.992 4.264 137.478 4.31733 137.926 4.424C138.384 4.52 138.811 4.65867 139.206 4.84L138.726 5.96C138.363 5.81067 137.984 5.68267 137.59 5.576C137.195 5.46933 136.79 5.416 136.374 5.416C135.798 5.416 135.355 5.512 135.046 5.704C134.747 5.88533 134.598 6.136 134.598 6.456C134.598 6.69067 134.667 6.89333 134.806 7.064C134.944 7.224 135.174 7.384 135.494 7.544C135.824 7.69333 136.262 7.87467 136.806 8.088C137.35 8.29067 137.814 8.49867 138.198 8.712C138.582 8.92533 138.875 9.18667 139.078 9.496C139.28 9.79467 139.382 10.1733 139.382 10.632ZM149.114 1.4C149.967 1.4 150.639 1.61867 151.13 2.056C151.631 2.48267 151.882 3.08533 151.882 3.864C151.882 4.536 151.663 5.10667 151.226 5.576C150.799 6.04533 150.255 6.472 149.594 6.856L152.682 9.832C152.959 9.50133 153.183 9.12267 153.354 8.696C153.535 8.25867 153.685 7.78933 153.802 7.288H155.226C155.055 7.97067 154.842 8.60533 154.586 9.192C154.33 9.77867 153.999 10.2907 153.594 10.728L155.93 13H154.026L152.634 11.656C152.133 12.104 151.573 12.4667 150.954 12.744C150.335 13.0213 149.583 13.16 148.698 13.16C147.599 13.16 146.725 12.888 146.074 12.344C145.423 11.8 145.098 11.0267 145.098 10.024C145.098 9.20267 145.317 8.54667 145.754 8.056C146.202 7.55467 146.805 7.09067 147.562 6.664C147.221 6.28 146.901 5.86933 146.602 5.432C146.314 4.99467 146.17 4.48267 146.17 3.896C146.17 3.10667 146.431 2.49333 146.954 2.056C147.487 1.61867 148.207 1.4 149.114 1.4ZM149.066 2.552C148.618 2.552 148.25 2.66933 147.962 2.904C147.685 3.13867 147.546 3.464 147.546 3.88C147.546 4.264 147.647 4.62133 147.85 4.952C148.053 5.272 148.346 5.62933 148.73 6.024C149.359 5.66133 149.807 5.32 150.074 5C150.351 4.66933 150.49 4.29067 150.49 3.864C150.49 3.48 150.362 3.16533 150.106 2.92C149.85 2.67467 149.503 2.552 149.066 2.552ZM148.41 7.544C147.834 7.88533 147.381 8.232 147.05 8.584C146.73 8.936 146.57 9.4 146.57 9.976C146.57 10.5627 146.767 11.032 147.162 11.384C147.557 11.736 148.085 11.912 148.746 11.912C149.429 11.912 150.015 11.8 150.506 11.576C150.997 11.352 151.407 11.0853 151.738 10.776L148.41 7.544ZM165.293 13H163.853V2.84H160.285V1.576H168.845V2.84H165.293V13ZM173.579 4.264C173.739 4.264 173.909 4.27467 174.091 4.296C174.283 4.30667 174.448 4.328 174.587 4.36L174.411 5.656C174.272 5.624 174.117 5.59733 173.947 5.576C173.787 5.55467 173.632 5.544 173.483 5.544C173.045 5.544 172.635 5.66667 172.251 5.912C171.867 6.14667 171.557 6.48267 171.323 6.92C171.099 7.34667 170.987 7.848 170.987 8.424V13H169.579V4.424H170.731L170.891 5.992H170.955C171.232 5.52267 171.589 5.11733 172.027 4.776C172.464 4.43467 172.981 4.264 173.579 4.264ZM179.124 4.28C180.169 4.28 180.942 4.50933 181.444 4.968C181.945 5.42667 182.196 6.15733 182.196 7.16V13H181.172L180.9 11.784H180.836C180.462 12.2533 180.068 12.6 179.652 12.824C179.246 13.048 178.681 13.16 177.956 13.16C177.177 13.16 176.532 12.9573 176.02 12.552C175.508 12.136 175.252 11.4907 175.252 10.616C175.252 9.76267 175.588 9.10667 176.26 8.648C176.932 8.17867 177.966 7.92267 179.364 7.88L180.82 7.832V7.32C180.82 6.60533 180.665 6.10933 180.356 5.832C180.046 5.55467 179.609 5.416 179.044 5.416C178.596 5.416 178.169 5.48533 177.764 5.624C177.358 5.752 176.98 5.90133 176.628 6.072L176.196 5.016C176.569 4.81333 177.012 4.64267 177.524 4.504C178.036 4.35467 178.569 4.28 179.124 4.28ZM179.54 8.856C178.473 8.89867 177.732 9.06933 177.316 9.368C176.91 9.66667 176.708 10.088 176.708 10.632C176.708 11.112 176.852 11.464 177.14 11.688C177.438 11.912 177.817 12.024 178.276 12.024C179.001 12.024 179.604 11.8267 180.084 11.432C180.564 11.0267 180.804 10.408 180.804 9.576V8.808L179.54 8.856ZM185.564 1.208C185.778 1.208 185.964 1.28267 186.124 1.432C186.295 1.57067 186.38 1.79467 186.38 2.104C186.38 2.40267 186.295 2.62667 186.124 2.776C185.964 2.92533 185.778 3 185.564 3C185.33 3 185.132 2.92533 184.972 2.776C184.812 2.62667 184.732 2.40267 184.732 2.104C184.732 1.79467 184.812 1.57067 184.972 1.432C185.132 1.28267 185.33 1.208 185.564 1.208ZM186.252 4.424V13H184.844V4.424H186.252ZM193.097 4.264C194.121 4.264 194.895 4.51467 195.417 5.016C195.94 5.50667 196.201 6.30667 196.201 7.416V13H194.809V7.512C194.809 6.136 194.169 5.448 192.889 5.448C191.94 5.448 191.284 5.71467 190.921 6.248C190.559 6.78133 190.377 7.54933 190.377 8.552V13H188.969V4.424H190.105L190.313 5.592H190.393C190.671 5.144 191.055 4.81333 191.545 4.6C192.036 4.376 192.553 4.264 193.097 4.264ZM199.58 1.208C199.793 1.208 199.98 1.28267 200.14 1.432C200.311 1.57067 200.396 1.79467 200.396 2.104C200.396 2.40267 200.311 2.62667 200.14 2.776C199.98 2.92533 199.793 3 199.58 3C199.345 3 199.148 2.92533 198.988 2.776C198.828 2.62667 198.748 2.40267 198.748 2.104C198.748 1.79467 198.828 1.57067 198.988 1.432C199.148 1.28267 199.345 1.208 199.58 1.208ZM200.268 4.424V13H198.86V4.424H200.268ZM207.113 4.264C208.137 4.264 208.91 4.51467 209.433 5.016C209.956 5.50667 210.217 6.30667 210.217 7.416V13H208.825V7.512C208.825 6.136 208.185 5.448 206.905 5.448C205.956 5.448 205.3 5.71467 204.937 6.248C204.574 6.78133 204.393 7.54933 204.393 8.552V13H202.985V4.424H204.121L204.329 5.592H204.409C204.686 5.144 205.07 4.81333 205.561 4.6C206.052 4.376 206.569 4.264 207.113 4.264ZM215.916 4.264C216.481 4.264 216.988 4.37067 217.436 4.584C217.894 4.79733 218.284 5.12267 218.604 5.56H218.684L218.876 4.424H219.996V13.144C219.996 14.3707 219.681 15.2933 219.052 15.912C218.433 16.5307 217.468 16.84 216.156 16.84C214.897 16.84 213.868 16.6587 213.068 16.296V15C213.91 15.448 214.966 15.672 216.236 15.672C216.972 15.672 217.548 15.4533 217.964 15.016C218.39 14.5893 218.604 14.0027 218.604 13.256V12.92C218.604 12.792 218.609 12.6107 218.62 12.376C218.63 12.1307 218.641 11.96 218.652 11.864H218.588C218.012 12.728 217.126 13.16 215.932 13.16C214.822 13.16 213.953 12.7707 213.324 11.992C212.705 11.2133 212.396 10.1253 212.396 8.728C212.396 7.36267 212.705 6.28 213.324 5.48C213.953 4.66933 214.817 4.264 215.916 4.264ZM216.108 5.448C215.393 5.448 214.838 5.736 214.444 6.312C214.049 6.87733 213.852 7.688 213.852 8.744C213.852 9.8 214.044 10.6107 214.428 11.176C214.822 11.7307 215.393 12.008 216.14 12.008C217.004 12.008 217.633 11.7787 218.028 11.32C218.422 10.8507 218.62 10.0987 218.62 9.064V8.728C218.62 7.55467 218.417 6.71733 218.012 6.216C217.606 5.704 216.972 5.448 216.108 5.448Z" fill="#163A24"/>
</svg>
