<svg width="718" height="48" viewBox="0 0 718 48" fill="none" xmlns="http://www.w3.org/2000/svg">
<path d="M16.4664 37.48C12.0184 37.48 8.17844 35.672 4.94644 32.056C1.74644 28.408 0.146438 24.232 0.146438 19.528C0.146438 14.568 1.61844 10.488 4.56244 7.288C7.53844 4.088 11.3784 2.488 16.0824 2.488C19.7624 2.488 22.9624 3.432 25.6824 5.32C28.4024 7.176 29.7624 9.256 29.7624 11.56C29.7624 12.52 29.4584 13.304 28.8504 13.912C28.2424 14.488 27.4104 14.776 26.3544 14.776C25.3944 14.776 24.5464 14.456 23.8104 13.816C23.0744 13.176 22.4344 12.408 21.8904 11.512C21.3464 10.584 20.7704 9.656 20.1624 8.728C19.5864 7.8 18.8184 7.016 17.8584 6.376C16.8984 5.736 15.7944 5.416 14.5464 5.416C12.5304 5.416 10.8024 6.328 9.36244 8.152C7.92244 9.944 7.20244 12.296 7.20244 15.208C7.20244 19.784 8.33844 23.56 10.6104 26.536C12.9144 29.512 15.5864 31 18.6264 31C22.4024 31 25.4264 28.984 27.6984 24.952C28.0824 24.408 28.5784 24.232 29.1864 24.424C29.7944 24.584 30.0664 25.016 30.0024 25.72C29.7144 29.016 28.4024 31.8 26.0664 34.072C23.7304 36.344 20.5304 37.48 16.4664 37.48ZM45.5004 37.48C41.6924 37.48 38.5404 36.312 36.0444 33.976C33.5804 31.608 32.3484 28.728 32.3484 25.336C32.3484 21.912 33.5644 19.08 35.9964 16.84C38.4284 14.6 41.3564 13.48 44.7804 13.48C48.4604 13.48 51.5324 14.648 53.9964 16.984C56.4604 19.288 57.6924 22.152 57.6924 25.576C57.6924 29 56.5244 31.848 54.1884 34.12C51.8844 36.36 48.9884 37.48 45.5004 37.48ZM46.3644 35.368C47.6764 35.368 48.6844 34.76 49.3884 33.544C50.1244 32.328 50.4924 30.616 50.4924 28.408C50.4924 26.584 50.2204 24.712 49.6764 22.792C49.1644 20.84 48.3804 19.16 47.3244 17.752C46.2684 16.312 45.1004 15.592 43.8204 15.592C40.8764 15.592 39.4044 17.928 39.4044 22.6C39.4044 24.328 39.6604 26.152 40.1724 28.072C40.7164 29.992 41.5324 31.688 42.6204 33.16C43.7404 34.632 44.9884 35.368 46.3644 35.368ZM85.3922 32.344C85.4562 33.112 85.7602 33.832 86.3042 34.504C86.8482 35.176 87.1202 35.688 87.1202 36.04V36.232C87.1202 36.776 86.7522 37.048 86.0162 37.048H77.7122C76.9762 37.048 76.6082 36.776 76.6082 36.232V36.04C76.6082 35.72 76.8962 35.224 77.4722 34.552C78.0802 33.88 78.3682 33.144 78.3362 32.344L77.8562 23.464C77.6322 18.632 76.2402 16.216 73.6802 16.216C72.4002 16.216 71.3922 16.696 70.6562 17.656C69.9522 18.616 69.6002 19.896 69.6002 21.496V32.392C69.6002 33.16 69.9362 33.88 70.6082 34.552C71.3122 35.224 71.6642 35.72 71.6642 36.04V36.232C71.6642 36.776 71.2962 37.048 70.5602 37.048H61.6322C60.8962 37.048 60.5282 36.776 60.5282 36.232V36.04C60.5282 35.72 60.8642 35.224 61.5362 34.552C62.2402 33.88 62.5922 33.16 62.5922 32.392V21.208C62.5922 20.728 62.4642 20.296 62.2082 19.912C61.9842 19.528 61.7122 19.256 61.3922 19.096C61.1042 18.904 60.8322 18.68 60.5762 18.424C60.3522 18.168 60.2402 17.912 60.2402 17.656V17.464C60.2402 17.112 60.5602 16.776 61.2002 16.456L66.9122 13.672C67.4562 13.416 67.8562 13.4 68.1122 13.624C68.4002 13.816 68.5442 14.168 68.5442 14.68V17.368C69.9202 14.776 72.2882 13.48 75.6482 13.48C78.0802 13.48 80.1442 14.296 81.8402 15.928C83.5682 17.56 84.5602 20.152 84.8162 23.704L85.3922 32.344ZM99.3872 37.432C96.3792 37.432 93.9152 36.888 91.9952 35.8C90.0752 34.712 89.1152 33.4 89.1152 31.864C89.1152 31 89.3712 30.344 89.8832 29.896C90.4272 29.448 91.1312 29.224 91.9952 29.224C92.9232 29.224 93.6752 29.56 94.2512 30.232C94.8272 30.872 95.2272 31.592 95.4512 32.392C95.7072 33.192 96.1552 33.928 96.7952 34.6C97.4672 35.24 98.3312 35.56 99.3872 35.56C100.411 35.56 101.243 35.288 101.883 34.744C102.555 34.2 102.891 33.416 102.891 32.392C102.891 31.24 102.427 30.328 101.499 29.656C100.603 28.984 99.4992 28.488 98.1872 28.168C96.8752 27.816 95.5632 27.432 94.2512 27.016C92.9392 26.568 91.8192 25.816 90.8912 24.76C89.9952 23.672 89.5472 22.264 89.5472 20.536C89.5472 18.488 90.4432 16.808 92.2352 15.496C94.0592 14.152 96.4112 13.48 99.2912 13.48C102.203 13.48 104.571 14.056 106.395 15.208C108.251 16.328 109.179 17.672 109.179 19.24C109.179 19.944 108.907 20.536 108.363 21.016C107.851 21.496 107.211 21.736 106.443 21.736C105.547 21.736 104.827 21.416 104.283 20.776C103.739 20.104 103.355 19.384 103.131 18.616C102.907 17.816 102.507 17.096 101.931 16.456C101.355 15.784 100.603 15.448 99.6752 15.448C98.7472 15.448 97.9952 15.768 97.4192 16.408C96.8432 17.016 96.5552 17.768 96.5552 18.664C96.5552 19.56 96.7952 20.312 97.2752 20.92C97.7552 21.528 98.3792 21.992 99.1472 22.312C99.9152 22.632 100.763 22.936 101.691 23.224C102.619 23.48 103.547 23.784 104.475 24.136C105.435 24.456 106.299 24.856 107.067 25.336C107.835 25.816 108.459 26.504 108.939 27.4C109.419 28.264 109.659 29.32 109.659 30.568C109.659 32.552 108.731 34.2 106.875 35.512C105.019 36.792 102.523 37.432 99.3872 37.432ZM121.204 9.4C120.372 10.168 119.252 10.552 117.844 10.552C116.436 10.552 115.284 10.168 114.388 9.4C113.524 8.6 113.092 7.576 113.092 6.328C113.092 5.112 113.524 4.12 114.388 3.352C115.284 2.552 116.436 2.152 117.844 2.152C119.252 2.152 120.372 2.552 121.204 3.352C122.068 4.12 122.5 5.112 122.5 6.328C122.5 7.576 122.068 8.6 121.204 9.4ZM113.476 37C112.772 37 112.42 36.728 112.42 36.184V35.992C112.42 35.672 112.724 35.176 113.332 34.504C113.94 33.832 114.244 33.112 114.244 32.344V21.496C114.244 20.696 113.94 19.944 113.332 19.24C112.724 18.536 112.42 18.056 112.42 17.8V17.656C112.42 17.336 112.756 17 113.428 16.648L119.428 13.672C120.036 13.416 120.516 13.4 120.868 13.624C121.22 13.816 121.396 14.152 121.396 14.632V32.344C121.396 33.112 121.732 33.832 122.404 34.504C123.076 35.176 123.412 35.672 123.412 35.992V36.184C123.412 36.728 123.044 37 122.308 37H113.476ZM149.624 32.392C149.624 33.128 149.944 33.848 150.584 34.552C151.224 35.224 151.544 35.72 151.544 36.04V36.184C151.544 36.728 151.224 37 150.584 37H144.632C143.896 37 143.528 36.648 143.528 35.944L143.432 34.888C141.96 36.616 139.88 37.48 137.192 37.48C134.088 37.48 131.432 36.408 129.224 34.264C127.016 32.088 125.912 29.144 125.912 25.432C125.912 21.944 127.016 19.08 129.224 16.84C131.432 14.6 134.104 13.48 137.24 13.48C139.48 13.48 141.352 14.104 142.856 15.352V7.672C142.856 7.032 142.648 6.504 142.232 6.088C141.848 5.672 141.448 5.32 141.032 5.032C140.648 4.744 140.456 4.44 140.456 4.12V3.976C140.456 3.432 140.792 3.064 141.464 2.872L147.752 0.951998C149 0.535997 149.624 0.855998 149.624 1.912V32.392ZM138.776 35.416C139.864 35.416 140.808 34.968 141.608 34.072C142.44 33.144 142.856 31.88 142.856 30.28V21.832C142.856 20.264 142.328 18.824 141.272 17.512C140.216 16.2 139 15.544 137.624 15.544C136.152 15.544 134.984 16.168 134.12 17.416C133.256 18.632 132.808 20.36 132.776 22.6C132.712 24.424 132.888 26.296 133.304 28.216C133.752 30.136 134.456 31.816 135.416 33.256C136.408 34.664 137.528 35.384 138.776 35.416ZM173.624 29.704C173.912 29.32 174.264 29.192 174.68 29.32C175.096 29.448 175.288 29.752 175.256 30.232C175.096 31.896 174.136 33.528 172.376 35.128C170.616 36.696 168.328 37.48 165.512 37.48C162.12 37.48 159.336 36.36 157.16 34.12C154.984 31.88 153.896 28.936 153.896 25.288C153.896 21.864 155.032 19.048 157.304 16.84C159.576 14.6 162.312 13.48 165.512 13.48C168.424 13.48 170.664 14.168 172.232 15.544C173.8 16.92 174.584 18.504 174.584 20.296C174.584 21.768 173.88 22.824 172.472 23.464L161.816 28.312C163.128 31.096 165.24 32.488 168.152 32.488C169.368 32.488 170.456 32.232 171.416 31.72C172.408 31.176 173.144 30.504 173.624 29.704ZM164.648 15.592C163.4 15.592 162.408 16.2 161.672 17.416C160.936 18.6 160.568 20.12 160.568 21.976C160.568 23.544 160.728 24.92 161.048 26.104L167.24 22.984C168.072 22.568 168.488 21.816 168.488 20.728C168.488 19.64 168.136 18.52 167.432 17.368C166.728 16.184 165.8 15.592 164.648 15.592ZM192.355 13.48C193.731 13.48 194.803 13.896 195.571 14.728C196.371 15.528 196.771 16.568 196.771 17.848C196.771 20.376 195.747 21.64 193.699 21.64C192.867 21.64 192.211 21.432 191.731 21.016C191.283 20.568 191.011 20.088 190.915 19.576C190.819 19.064 190.627 18.6 190.339 18.184C190.051 17.736 189.619 17.512 189.043 17.512C188.179 17.512 187.539 18.024 187.123 19.048C186.707 20.072 186.499 21.32 186.499 22.792V32.392C186.499 32.968 186.691 33.48 187.075 33.928C187.491 34.344 187.891 34.712 188.275 35.032C188.691 35.352 188.899 35.672 188.899 35.992V36.184C188.899 36.728 188.547 37 187.843 37H178.963C178.227 37 177.859 36.728 177.859 36.184V35.992C177.859 35.672 178.163 35.176 178.771 34.504C179.411 33.832 179.731 33.128 179.731 32.392V21.16C179.731 20.392 179.363 19.704 178.627 19.096C177.891 18.488 177.523 18.024 177.523 17.704V17.512C177.523 17.064 177.859 16.68 178.531 16.36L184.291 13.672C185.315 13.192 185.827 13.512 185.827 14.632V18.232C186.915 15.064 189.091 13.48 192.355 13.48ZM226.499 29.704C226.787 29.32 227.139 29.192 227.555 29.32C227.971 29.448 228.163 29.752 228.131 30.232C227.971 31.896 227.011 33.528 225.251 35.128C223.491 36.696 221.203 37.48 218.387 37.48C214.995 37.48 212.211 36.36 210.035 34.12C207.859 31.88 206.771 28.936 206.771 25.288C206.771 21.864 207.907 19.048 210.179 16.84C212.451 14.6 215.187 13.48 218.387 13.48C221.299 13.48 223.539 14.168 225.107 15.544C226.675 16.92 227.459 18.504 227.459 20.296C227.459 21.768 226.755 22.824 225.347 23.464L214.691 28.312C216.003 31.096 218.115 32.488 221.027 32.488C222.243 32.488 223.331 32.232 224.291 31.72C225.283 31.176 226.019 30.504 226.499 29.704ZM217.523 15.592C216.275 15.592 215.283 16.2 214.547 17.416C213.811 18.6 213.443 20.12 213.443 21.976C213.443 23.544 213.603 24.92 213.923 26.104L220.115 22.984C220.947 22.568 221.363 21.816 221.363 20.728C221.363 19.64 221.011 18.52 220.307 17.368C219.603 16.184 218.675 15.592 217.523 15.592ZM253.736 13.96C254.408 13.96 254.744 14.216 254.744 14.728V14.92C254.744 15.304 254.312 15.848 253.448 16.552C252.584 17.224 252.024 17.896 251.768 18.568L245.144 35.848C244.888 36.616 244.36 37 243.56 37H240.44C239.736 37 239.224 36.616 238.904 35.848L230.936 18.568C230.68 17.992 230.216 17.352 229.544 16.648C228.904 15.912 228.584 15.336 228.584 14.92V14.728C228.584 14.216 228.904 13.96 229.544 13.96H239.096C239.736 13.96 240.056 14.232 240.056 14.776V14.968C240.056 15.224 239.912 15.544 239.624 15.928C239.336 16.312 239.112 16.68 238.952 17.032C238.792 17.352 238.824 17.912 239.048 18.712L244.088 31.624L248.6 19.624C248.92 18.472 248.952 17.672 248.696 17.224C248.44 16.776 248.072 16.36 247.592 15.976C247.144 15.56 246.92 15.224 246.92 14.968V14.776C246.92 14.232 247.256 13.96 247.928 13.96H253.736ZM274.453 29.704C274.741 29.32 275.093 29.192 275.509 29.32C275.925 29.448 276.117 29.752 276.085 30.232C275.925 31.896 274.965 33.528 273.205 35.128C271.445 36.696 269.157 37.48 266.341 37.48C262.949 37.48 260.165 36.36 257.989 34.12C255.813 31.88 254.725 28.936 254.725 25.288C254.725 21.864 255.861 19.048 258.133 16.84C260.405 14.6 263.141 13.48 266.341 13.48C269.253 13.48 271.493 14.168 273.061 15.544C274.629 16.92 275.413 18.504 275.413 20.296C275.413 21.768 274.709 22.824 273.301 23.464L262.645 28.312C263.957 31.096 266.069 32.488 268.981 32.488C270.197 32.488 271.285 32.232 272.245 31.72C273.237 31.176 273.973 30.504 274.453 29.704ZM265.477 15.592C264.229 15.592 263.237 16.2 262.501 17.416C261.765 18.6 261.397 20.12 261.397 21.976C261.397 23.544 261.557 24.92 261.877 26.104L268.069 22.984C268.901 22.568 269.317 21.816 269.317 20.728C269.317 19.64 268.965 18.52 268.261 17.368C267.557 16.184 266.629 15.592 265.477 15.592ZM293.183 13.48C294.559 13.48 295.631 13.896 296.399 14.728C297.199 15.528 297.599 16.568 297.599 17.848C297.599 20.376 296.575 21.64 294.527 21.64C293.695 21.64 293.039 21.432 292.559 21.016C292.111 20.568 291.839 20.088 291.743 19.576C291.647 19.064 291.455 18.6 291.167 18.184C290.879 17.736 290.447 17.512 289.871 17.512C289.007 17.512 288.367 18.024 287.951 19.048C287.535 20.072 287.327 21.32 287.327 22.792V32.392C287.327 32.968 287.519 33.48 287.903 33.928C288.319 34.344 288.719 34.712 289.103 35.032C289.519 35.352 289.727 35.672 289.727 35.992V36.184C289.727 36.728 289.375 37 288.671 37H279.791C279.055 37 278.687 36.728 278.687 36.184V35.992C278.687 35.672 278.991 35.176 279.599 34.504C280.239 33.832 280.559 33.128 280.559 32.392V21.16C280.559 20.392 280.191 19.704 279.455 19.096C278.719 18.488 278.351 18.024 278.351 17.704V17.512C278.351 17.064 278.687 16.68 279.359 16.36L285.119 13.672C286.143 13.192 286.655 13.512 286.655 14.632V18.232C287.743 15.064 289.919 13.48 293.183 13.48ZM323.636 13.96C324.276 13.96 324.596 14.216 324.596 14.728V14.968C324.596 15.384 324.26 15.944 323.588 16.648C322.948 17.352 322.468 18.04 322.148 18.712L313.076 38.44C312.66 39.368 312.308 40.12 312.02 40.696C311.732 41.272 311.284 42.024 310.676 42.952C310.1 43.912 309.524 44.664 308.948 45.208C308.372 45.752 307.652 46.232 306.788 46.648C305.924 47.064 305.028 47.272 304.1 47.272C302.052 47.272 300.356 46.744 299.012 45.688C297.7 44.632 297.044 43.448 297.044 42.136C297.044 41.272 297.3 40.568 297.812 40.024C298.324 39.512 299.028 39.256 299.924 39.256C300.82 39.256 301.524 39.544 302.036 40.12C302.548 40.728 302.884 41.4 303.044 42.136C303.204 42.872 303.444 43.528 303.764 44.104C304.116 44.712 304.564 45.016 305.108 45.016C306.58 45.016 308.228 42.776 310.052 38.296L300.5 18.712C300.148 18.008 299.62 17.32 298.916 16.648C298.244 15.944 297.908 15.384 297.908 14.968V14.728C297.908 14.216 298.244 13.96 298.916 13.96H307.892C308.5 13.96 308.804 14.232 308.804 14.776V14.968C308.804 15.256 308.66 15.592 308.372 15.976C308.084 16.328 307.892 16.664 307.796 16.984C307.7 17.304 307.796 17.912 308.084 18.808L313.7 31.816L318.884 19.48C319.204 18.392 319.204 17.64 318.884 17.224C318.564 16.808 318.132 16.408 317.588 16.024C317.044 15.608 316.772 15.256 316.772 14.968V14.776C316.772 14.232 317.108 13.96 317.78 13.96H323.636ZM337.954 37.48C334.146 37.48 330.994 36.312 328.498 33.976C326.034 31.608 324.802 28.728 324.802 25.336C324.802 21.912 326.018 19.08 328.45 16.84C330.882 14.6 333.81 13.48 337.234 13.48C340.914 13.48 343.986 14.648 346.45 16.984C348.914 19.288 350.146 22.152 350.146 25.576C350.146 29 348.978 31.848 346.642 34.12C344.338 36.36 341.442 37.48 337.954 37.48ZM338.818 35.368C340.13 35.368 341.138 34.76 341.842 33.544C342.578 32.328 342.946 30.616 342.946 28.408C342.946 26.584 342.674 24.712 342.13 22.792C341.618 20.84 340.834 19.16 339.778 17.752C338.722 16.312 337.554 15.592 336.274 15.592C333.33 15.592 331.858 17.928 331.858 22.6C331.858 24.328 332.114 26.152 332.626 28.072C333.17 29.992 333.986 31.688 335.074 33.16C336.194 34.632 337.442 35.368 338.818 35.368ZM377.845 32.344C377.909 33.112 378.213 33.832 378.757 34.504C379.301 35.176 379.573 35.688 379.573 36.04V36.232C379.573 36.776 379.205 37.048 378.469 37.048H370.165C369.429 37.048 369.061 36.776 369.061 36.232V36.04C369.061 35.72 369.349 35.224 369.925 34.552C370.533 33.88 370.821 33.144 370.789 32.344L370.309 23.464C370.085 18.632 368.693 16.216 366.133 16.216C364.853 16.216 363.845 16.696 363.109 17.656C362.405 18.616 362.053 19.896 362.053 21.496V32.392C362.053 33.16 362.389 33.88 363.061 34.552C363.765 35.224 364.117 35.72 364.117 36.04V36.232C364.117 36.776 363.749 37.048 363.013 37.048H354.085C353.349 37.048 352.981 36.776 352.981 36.232V36.04C352.981 35.72 353.317 35.224 353.989 34.552C354.693 33.88 355.045 33.16 355.045 32.392V21.208C355.045 20.728 354.917 20.296 354.661 19.912C354.437 19.528 354.165 19.256 353.845 19.096C353.557 18.904 353.285 18.68 353.029 18.424C352.805 18.168 352.693 17.912 352.693 17.656V17.464C352.693 17.112 353.013 16.776 353.653 16.456L359.365 13.672C359.909 13.416 360.309 13.4 360.565 13.624C360.853 13.816 360.997 14.168 360.997 14.68V17.368C362.373 14.776 364.741 13.48 368.101 13.48C370.533 13.48 372.597 14.296 374.293 15.928C376.021 17.56 377.013 20.152 377.269 23.704L377.845 32.344ZM401.296 29.704C401.584 29.32 401.936 29.192 402.352 29.32C402.768 29.448 402.96 29.752 402.928 30.232C402.768 31.896 401.808 33.528 400.048 35.128C398.288 36.696 396 37.48 393.184 37.48C389.792 37.48 387.008 36.36 384.832 34.12C382.656 31.88 381.568 28.936 381.568 25.288C381.568 21.864 382.704 19.048 384.976 16.84C387.248 14.6 389.984 13.48 393.184 13.48C396.096 13.48 398.336 14.168 399.904 15.544C401.472 16.92 402.256 18.504 402.256 20.296C402.256 21.768 401.552 22.824 400.144 23.464L389.488 28.312C390.8 31.096 392.912 32.488 395.824 32.488C397.04 32.488 398.128 32.232 399.088 31.72C400.08 31.176 400.816 30.504 401.296 29.704ZM392.32 15.592C391.072 15.592 390.08 16.2 389.344 17.416C388.608 18.6 388.24 20.12 388.24 21.976C388.24 23.544 388.4 24.92 388.72 26.104L394.912 22.984C395.744 22.568 396.16 21.816 396.16 20.728C396.16 19.64 395.808 18.52 395.104 17.368C394.4 16.184 393.472 15.592 392.32 15.592ZM406.321 16.504C405.233 12.088 404.673 8.552 404.641 5.896C404.641 4.744 404.977 3.864 405.649 3.256C406.353 2.616 407.201 2.296 408.193 2.296C409.185 2.296 410.033 2.6 410.737 3.208C411.441 3.816 411.793 4.712 411.793 5.896C411.761 7.24 411.521 9.064 411.073 11.368C410.657 13.672 410.289 15.384 409.969 16.504C409.681 17.368 409.057 17.8 408.097 17.8C407.169 17.768 406.577 17.336 406.321 16.504ZM423.856 37.432C420.848 37.432 418.384 36.888 416.464 35.8C414.544 34.712 413.584 33.4 413.584 31.864C413.584 31 413.84 30.344 414.352 29.896C414.896 29.448 415.6 29.224 416.464 29.224C417.392 29.224 418.144 29.56 418.72 30.232C419.296 30.872 419.696 31.592 419.92 32.392C420.176 33.192 420.624 33.928 421.264 34.6C421.936 35.24 422.8 35.56 423.856 35.56C424.88 35.56 425.712 35.288 426.352 34.744C427.024 34.2 427.36 33.416 427.36 32.392C427.36 31.24 426.896 30.328 425.968 29.656C425.072 28.984 423.968 28.488 422.656 28.168C421.344 27.816 420.032 27.432 418.72 27.016C417.408 26.568 416.288 25.816 415.36 24.76C414.464 23.672 414.016 22.264 414.016 20.536C414.016 18.488 414.912 16.808 416.704 15.496C418.528 14.152 420.88 13.48 423.76 13.48C426.672 13.48 429.04 14.056 430.864 15.208C432.72 16.328 433.648 17.672 433.648 19.24C433.648 19.944 433.376 20.536 432.832 21.016C432.32 21.496 431.68 21.736 430.912 21.736C430.016 21.736 429.296 21.416 428.752 20.776C428.208 20.104 427.824 19.384 427.6 18.616C427.376 17.816 426.976 17.096 426.4 16.456C425.824 15.784 425.072 15.448 424.144 15.448C423.216 15.448 422.464 15.768 421.888 16.408C421.312 17.016 421.024 17.768 421.024 18.664C421.024 19.56 421.264 20.312 421.744 20.92C422.224 21.528 422.848 21.992 423.616 22.312C424.384 22.632 425.232 22.936 426.16 23.224C427.088 23.48 428.016 23.784 428.944 24.136C429.904 24.456 430.768 24.856 431.536 25.336C432.304 25.816 432.928 26.504 433.408 27.4C433.888 28.264 434.128 29.32 434.128 30.568C434.128 32.552 433.2 34.2 431.344 35.512C429.488 36.792 426.992 37.432 423.856 37.432ZM460.94 13.48C463.948 13.48 466.556 14.52 468.764 16.6C471.004 18.68 472.124 21.512 472.124 25.096C472.124 28.712 471.02 31.688 468.812 34.024C466.636 36.328 464.012 37.48 460.94 37.48C458.348 37.48 456.252 36.632 454.652 34.936V35.992C454.652 36.696 454.284 37.048 453.548 37.048L447.356 37C446.684 37 446.348 36.728 446.348 36.184V36.04C446.348 35.72 446.652 35.224 447.26 34.552C447.9 33.848 448.22 33.112 448.22 32.344V8.824C448.22 8.024 447.852 7.304 447.116 6.664C446.38 5.992 446.012 5.496 446.012 5.176V5.032C446.012 4.584 446.38 4.2 447.116 3.88L453.308 0.999997C453.852 0.711997 454.316 0.663998 454.7 0.855999C455.116 1.016 455.324 1.384 455.324 1.96V15.4C456.7 14.12 458.572 13.48 460.94 13.48ZM460.22 35.416C461.788 35.416 462.988 34.776 463.82 33.496C464.684 32.216 465.116 30.376 465.116 27.976C465.116 25.896 464.892 23.928 464.444 22.072C464.028 20.216 463.356 18.664 462.428 17.416C461.5 16.168 460.428 15.544 459.212 15.544C458.092 15.544 457.164 15.992 456.428 16.888C455.692 17.784 455.324 18.952 455.324 20.392V29.08C455.324 30.712 455.82 32.184 456.812 33.496C457.836 34.776 458.972 35.416 460.22 35.416ZM494.343 29.704C494.631 29.32 494.983 29.192 495.399 29.32C495.815 29.448 496.007 29.752 495.975 30.232C495.815 31.896 494.855 33.528 493.095 35.128C491.335 36.696 489.047 37.48 486.231 37.48C482.839 37.48 480.055 36.36 477.879 34.12C475.703 31.88 474.615 28.936 474.615 25.288C474.615 21.864 475.751 19.048 478.023 16.84C480.295 14.6 483.031 13.48 486.231 13.48C489.143 13.48 491.383 14.168 492.951 15.544C494.519 16.92 495.303 18.504 495.303 20.296C495.303 21.768 494.599 22.824 493.191 23.464L482.535 28.312C483.847 31.096 485.959 32.488 488.871 32.488C490.087 32.488 491.175 32.232 492.135 31.72C493.127 31.176 493.863 30.504 494.343 29.704ZM485.367 15.592C484.119 15.592 483.127 16.2 482.391 17.416C481.655 18.6 481.287 20.12 481.287 21.976C481.287 23.544 481.447 24.92 481.767 26.104L487.959 22.984C488.791 22.568 489.207 21.816 489.207 20.728C489.207 19.64 488.855 18.52 488.151 17.368C487.447 16.184 486.519 15.592 485.367 15.592ZM508.465 37.432C505.457 37.432 502.993 36.888 501.073 35.8C499.153 34.712 498.193 33.4 498.193 31.864C498.193 31 498.449 30.344 498.961 29.896C499.505 29.448 500.209 29.224 501.073 29.224C502.001 29.224 502.753 29.56 503.329 30.232C503.905 30.872 504.305 31.592 504.529 32.392C504.785 33.192 505.233 33.928 505.873 34.6C506.545 35.24 507.409 35.56 508.465 35.56C509.489 35.56 510.321 35.288 510.961 34.744C511.633 34.2 511.969 33.416 511.969 32.392C511.969 31.24 511.505 30.328 510.577 29.656C509.681 28.984 508.577 28.488 507.265 28.168C505.953 27.816 504.641 27.432 503.329 27.016C502.017 26.568 500.897 25.816 499.969 24.76C499.073 23.672 498.625 22.264 498.625 20.536C498.625 18.488 499.521 16.808 501.313 15.496C503.137 14.152 505.489 13.48 508.369 13.48C511.281 13.48 513.649 14.056 515.473 15.208C517.329 16.328 518.257 17.672 518.257 19.24C518.257 19.944 517.985 20.536 517.441 21.016C516.929 21.496 516.289 21.736 515.521 21.736C514.625 21.736 513.905 21.416 513.361 20.776C512.817 20.104 512.433 19.384 512.209 18.616C511.985 17.816 511.585 17.096 511.009 16.456C510.433 15.784 509.681 15.448 508.753 15.448C507.825 15.448 507.073 15.768 506.497 16.408C505.921 17.016 505.633 17.768 505.633 18.664C505.633 19.56 505.873 20.312 506.353 20.92C506.833 21.528 507.457 21.992 508.225 22.312C508.993 22.632 509.841 22.936 510.769 23.224C511.697 23.48 512.625 23.784 513.553 24.136C514.513 24.456 515.377 24.856 516.145 25.336C516.913 25.816 517.537 26.504 518.017 27.4C518.497 28.264 518.737 29.32 518.737 30.568C518.737 32.552 517.809 34.2 515.953 35.512C514.097 36.792 511.601 37.432 508.465 37.432ZM530.716 37.48C528.476 37.48 526.7 36.776 525.388 35.368C524.108 33.928 523.468 31.864 523.468 29.176V16.744H521.212C520.572 16.744 520.252 16.424 520.252 15.784V14.968C520.252 14.296 520.572 13.96 521.212 13.96H522.412C523.724 13.96 524.828 13.528 525.724 12.664C526.652 11.8 527.244 10.648 527.5 9.208C527.66 8.44 528.028 8.056 528.604 8.056H529.564C530.268 8.056 530.62 8.44 530.62 9.208L530.668 13.96H536.188C536.444 13.96 536.668 14.056 536.86 14.248C537.052 14.44 537.148 14.68 537.148 14.968V15.784C537.148 16.072 537.052 16.312 536.86 16.504C536.668 16.664 536.444 16.744 536.188 16.744H530.668V29.272C530.668 30.2 530.892 30.952 531.34 31.528C531.82 32.072 532.412 32.344 533.116 32.344C534.78 32.344 535.868 31.624 536.38 30.184C536.668 29.768 537.02 29.608 537.436 29.704C537.884 29.768 538.108 30.024 538.108 30.472C538.108 32.328 537.436 33.96 536.092 35.368C534.78 36.776 532.988 37.48 530.716 37.48ZM558.641 9.4C557.809 10.168 556.689 10.552 555.281 10.552C553.873 10.552 552.721 10.168 551.825 9.4C550.961 8.6 550.529 7.576 550.529 6.328C550.529 5.112 550.961 4.12 551.825 3.352C552.721 2.552 553.873 2.152 555.281 2.152C556.689 2.152 557.809 2.552 558.641 3.352C559.505 4.12 559.937 5.112 559.937 6.328C559.937 7.576 559.505 8.6 558.641 9.4ZM550.913 37C550.209 37 549.857 36.728 549.857 36.184V35.992C549.857 35.672 550.161 35.176 550.769 34.504C551.377 33.832 551.681 33.112 551.681 32.344V21.496C551.681 20.696 551.377 19.944 550.769 19.24C550.161 18.536 549.857 18.056 549.857 17.8V17.656C549.857 17.336 550.193 17 550.865 16.648L556.865 13.672C557.473 13.416 557.953 13.4 558.305 13.624C558.657 13.816 558.833 14.152 558.833 14.632V32.344C558.833 33.112 559.169 33.832 559.841 34.504C560.513 35.176 560.849 35.672 560.849 35.992V36.184C560.849 36.728 560.481 37 559.745 37H550.913ZM588.502 32.344C588.566 33.112 588.87 33.832 589.414 34.504C589.958 35.176 590.23 35.688 590.23 36.04V36.232C590.23 36.776 589.862 37.048 589.126 37.048H580.822C580.086 37.048 579.718 36.776 579.718 36.232V36.04C579.718 35.72 580.006 35.224 580.582 34.552C581.19 33.88 581.478 33.144 581.446 32.344L580.966 23.464C580.742 18.632 579.35 16.216 576.79 16.216C575.51 16.216 574.502 16.696 573.766 17.656C573.062 18.616 572.71 19.896 572.71 21.496V32.392C572.71 33.16 573.046 33.88 573.718 34.552C574.422 35.224 574.774 35.72 574.774 36.04V36.232C574.774 36.776 574.406 37.048 573.67 37.048H564.742C564.006 37.048 563.638 36.776 563.638 36.232V36.04C563.638 35.72 563.974 35.224 564.646 34.552C565.35 33.88 565.702 33.16 565.702 32.392V21.208C565.702 20.728 565.574 20.296 565.318 19.912C565.094 19.528 564.822 19.256 564.502 19.096C564.214 18.904 563.942 18.68 563.686 18.424C563.462 18.168 563.35 17.912 563.35 17.656V17.464C563.35 17.112 563.67 16.776 564.31 16.456L570.022 13.672C570.566 13.416 570.966 13.4 571.222 13.624C571.51 13.816 571.654 14.168 571.654 14.68V17.368C573.03 14.776 575.398 13.48 578.758 13.48C581.19 13.48 583.254 14.296 584.95 15.928C586.678 17.56 587.67 20.152 587.926 23.704L588.502 32.344ZM601.685 37.48C599.445 37.48 597.669 36.776 596.357 35.368C595.077 33.928 594.437 31.864 594.437 29.176V16.744H592.181C591.541 16.744 591.221 16.424 591.221 15.784V14.968C591.221 14.296 591.541 13.96 592.181 13.96H593.381C594.693 13.96 595.797 13.528 596.693 12.664C597.621 11.8 598.213 10.648 598.469 9.208C598.629 8.44 598.997 8.056 599.573 8.056H600.533C601.237 8.056 601.589 8.44 601.589 9.208L601.637 13.96H607.157C607.413 13.96 607.637 14.056 607.829 14.248C608.021 14.44 608.117 14.68 608.117 14.968V15.784C608.117 16.072 608.021 16.312 607.829 16.504C607.637 16.664 607.413 16.744 607.157 16.744H601.637V29.272C601.637 30.2 601.861 30.952 602.309 31.528C602.789 32.072 603.381 32.344 604.085 32.344C605.749 32.344 606.837 31.624 607.349 30.184C607.637 29.768 607.989 29.608 608.405 29.704C608.853 29.768 609.077 30.024 609.077 30.472C609.077 32.328 608.405 33.96 607.061 35.368C605.749 36.776 603.957 37.48 601.685 37.48ZM630.187 29.704C630.475 29.32 630.827 29.192 631.243 29.32C631.659 29.448 631.851 29.752 631.819 30.232C631.659 31.896 630.699 33.528 628.939 35.128C627.179 36.696 624.891 37.48 622.075 37.48C618.683 37.48 615.899 36.36 613.723 34.12C611.547 31.88 610.459 28.936 610.459 25.288C610.459 21.864 611.595 19.048 613.867 16.84C616.139 14.6 618.875 13.48 622.075 13.48C624.987 13.48 627.227 14.168 628.795 15.544C630.363 16.92 631.147 18.504 631.147 20.296C631.147 21.768 630.443 22.824 629.035 23.464L618.379 28.312C619.691 31.096 621.803 32.488 624.715 32.488C625.931 32.488 627.019 32.232 627.979 31.72C628.971 31.176 629.707 30.504 630.187 29.704ZM621.211 15.592C619.963 15.592 618.971 16.2 618.235 17.416C617.499 18.6 617.131 20.12 617.131 21.976C617.131 23.544 617.291 24.92 617.611 26.104L623.803 22.984C624.635 22.568 625.051 21.816 625.051 20.728C625.051 19.64 624.699 18.52 623.995 17.368C623.291 16.184 622.363 15.592 621.211 15.592ZM648.917 13.48C650.293 13.48 651.365 13.896 652.133 14.728C652.933 15.528 653.333 16.568 653.333 17.848C653.333 20.376 652.309 21.64 650.261 21.64C649.429 21.64 648.773 21.432 648.293 21.016C647.845 20.568 647.573 20.088 647.477 19.576C647.381 19.064 647.189 18.6 646.901 18.184C646.613 17.736 646.181 17.512 645.605 17.512C644.741 17.512 644.101 18.024 643.685 19.048C643.269 20.072 643.061 21.32 643.061 22.792V32.392C643.061 32.968 643.253 33.48 643.637 33.928C644.053 34.344 644.453 34.712 644.837 35.032C645.253 35.352 645.461 35.672 645.461 35.992V36.184C645.461 36.728 645.109 37 644.405 37H635.525C634.789 37 634.421 36.728 634.421 36.184V35.992C634.421 35.672 634.725 35.176 635.333 34.504C635.973 33.832 636.293 33.128 636.293 32.392V21.16C636.293 20.392 635.925 19.704 635.189 19.096C634.453 18.488 634.085 18.024 634.085 17.704V17.512C634.085 17.064 634.421 16.68 635.093 16.36L640.853 13.672C641.877 13.192 642.389 13.512 642.389 14.632V18.232C643.477 15.064 645.653 13.48 648.917 13.48ZM674.015 29.704C674.303 29.32 674.655 29.192 675.071 29.32C675.487 29.448 675.679 29.752 675.647 30.232C675.487 31.896 674.527 33.528 672.767 35.128C671.007 36.696 668.719 37.48 665.903 37.48C662.511 37.48 659.727 36.36 657.551 34.12C655.375 31.88 654.287 28.936 654.287 25.288C654.287 21.864 655.423 19.048 657.695 16.84C659.967 14.6 662.703 13.48 665.903 13.48C668.815 13.48 671.055 14.168 672.623 15.544C674.191 16.92 674.975 18.504 674.975 20.296C674.975 21.768 674.271 22.824 672.863 23.464L662.207 28.312C663.519 31.096 665.631 32.488 668.543 32.488C669.759 32.488 670.847 32.232 671.807 31.72C672.799 31.176 673.535 30.504 674.015 29.704ZM665.039 15.592C663.791 15.592 662.799 16.2 662.063 17.416C661.327 18.6 660.959 20.12 660.959 21.976C660.959 23.544 661.119 24.92 661.439 26.104L667.631 22.984C668.463 22.568 668.879 21.816 668.879 20.728C668.879 19.64 668.527 18.52 667.823 17.368C667.119 16.184 666.191 15.592 665.039 15.592ZM688.137 37.432C685.129 37.432 682.665 36.888 680.745 35.8C678.825 34.712 677.865 33.4 677.865 31.864C677.865 31 678.121 30.344 678.633 29.896C679.177 29.448 679.881 29.224 680.745 29.224C681.673 29.224 682.425 29.56 683.001 30.232C683.577 30.872 683.977 31.592 684.201 32.392C684.457 33.192 684.905 33.928 685.545 34.6C686.217 35.24 687.081 35.56 688.137 35.56C689.161 35.56 689.993 35.288 690.633 34.744C691.305 34.2 691.641 33.416 691.641 32.392C691.641 31.24 691.177 30.328 690.249 29.656C689.353 28.984 688.249 28.488 686.937 28.168C685.625 27.816 684.313 27.432 683.001 27.016C681.689 26.568 680.569 25.816 679.641 24.76C678.745 23.672 678.297 22.264 678.297 20.536C678.297 18.488 679.193 16.808 680.985 15.496C682.809 14.152 685.161 13.48 688.041 13.48C690.953 13.48 693.321 14.056 695.145 15.208C697.001 16.328 697.929 17.672 697.929 19.24C697.929 19.944 697.657 20.536 697.113 21.016C696.601 21.496 695.961 21.736 695.193 21.736C694.297 21.736 693.577 21.416 693.033 20.776C692.489 20.104 692.105 19.384 691.881 18.616C691.657 17.816 691.257 17.096 690.681 16.456C690.105 15.784 689.353 15.448 688.425 15.448C687.497 15.448 686.745 15.768 686.169 16.408C685.593 17.016 685.305 17.768 685.305 18.664C685.305 19.56 685.545 20.312 686.025 20.92C686.505 21.528 687.129 21.992 687.897 22.312C688.665 22.632 689.513 22.936 690.441 23.224C691.369 23.48 692.297 23.784 693.225 24.136C694.185 24.456 695.049 24.856 695.817 25.336C696.585 25.816 697.209 26.504 697.689 27.4C698.169 28.264 698.409 29.32 698.409 30.568C698.409 32.552 697.481 34.2 695.625 35.512C693.769 36.792 691.273 37.432 688.137 37.432ZM710.388 37.48C708.148 37.48 706.372 36.776 705.06 35.368C703.78 33.928 703.14 31.864 703.14 29.176V16.744H700.884C700.244 16.744 699.924 16.424 699.924 15.784V14.968C699.924 14.296 700.244 13.96 700.884 13.96H702.084C703.396 13.96 704.5 13.528 705.396 12.664C706.324 11.8 706.916 10.648 707.172 9.208C707.332 8.44 707.7 8.056 708.276 8.056H709.236C709.94 8.056 710.292 8.44 710.292 9.208L710.34 13.96H715.86C716.116 13.96 716.34 14.056 716.532 14.248C716.724 14.44 716.82 14.68 716.82 14.968V15.784C716.82 16.072 716.724 16.312 716.532 16.504C716.34 16.664 716.116 16.744 715.86 16.744H710.34V29.272C710.34 30.2 710.564 30.952 711.012 31.528C711.492 32.072 712.084 32.344 712.788 32.344C714.452 32.344 715.54 31.624 716.052 30.184C716.34 29.768 716.692 29.608 717.108 29.704C717.556 29.768 717.78 30.024 717.78 30.472C717.78 32.328 717.108 33.96 715.764 35.368C714.452 36.776 712.66 37.48 710.388 37.48Z" fill="#163A24"/>
</svg>
