<svg width="164" height="15" viewBox="0 0 164 15" fill="none" xmlns="http://www.w3.org/2000/svg">
<path d="M7.45925 14H0.27725V1.148H7.45925V2.57H1.89725V6.584H7.13525V7.988H1.89725V12.578H7.45925V14ZM13.4832 14.18C12.2832 14.18 11.3232 13.766 10.6032 12.938C9.8832 12.098 9.5232 10.85 9.5232 9.194C9.5232 7.538 9.8832 6.29 10.6032 5.45C11.3352 4.598 12.3012 4.172 13.5012 4.172C14.2452 4.172 14.8512 4.31 15.3192 4.586C15.7992 4.862 16.1892 5.198 16.4892 5.594H16.5972C16.5852 5.438 16.5612 5.21 16.5252 4.91C16.5012 4.598 16.4892 4.352 16.4892 4.172V0.319999H18.0732V14H16.7952L16.5612 12.704H16.4892C16.2012 13.112 15.8172 13.46 15.3372 13.748C14.8572 14.036 14.2392 14.18 13.4832 14.18ZM13.7352 12.866C14.7552 12.866 15.4692 12.59 15.8772 12.038C16.2972 11.474 16.5072 10.628 16.5072 9.5V9.212C16.5072 8.012 16.3092 7.094 15.9132 6.458C15.5172 5.81 14.7852 5.486 13.7172 5.486C12.8652 5.486 12.2232 5.828 11.7912 6.512C11.3712 7.184 11.1612 8.09 11.1612 9.23C11.1612 10.382 11.3712 11.276 11.7912 11.912C12.2232 12.548 12.8712 12.866 13.7352 12.866ZM29.2014 4.352V14H27.9054L27.6714 12.722H27.5994C27.2874 13.226 26.8554 13.598 26.3034 13.838C25.7514 14.066 25.1634 14.18 24.5394 14.18C23.3754 14.18 22.4994 13.904 21.9114 13.352C21.3234 12.788 21.0294 11.894 21.0294 10.67V4.352H22.6314V10.562C22.6314 12.098 23.3454 12.866 24.7734 12.866C25.8414 12.866 26.5794 12.566 26.9874 11.966C27.4074 11.366 27.6174 10.502 27.6174 9.374V4.352H29.2014ZM36.1344 14.18C35.2824 14.18 34.5204 14.006 33.8484 13.658C33.1884 13.31 32.6664 12.77 32.2824 12.038C31.9104 11.306 31.7244 10.37 31.7244 9.23C31.7244 8.042 31.9224 7.076 32.3184 6.332C32.7144 5.588 33.2484 5.042 33.9204 4.694C34.6044 4.346 35.3784 4.172 36.2424 4.172C36.7344 4.172 37.2084 4.226 37.6644 4.334C38.1204 4.43 38.4924 4.55 38.7804 4.694L38.2944 6.008C38.0064 5.9 37.6704 5.798 37.2864 5.702C36.9024 5.606 36.5424 5.558 36.2064 5.558C34.3104 5.558 33.3624 6.776 33.3624 9.212C33.3624 10.376 33.5904 11.27 34.0464 11.894C34.5144 12.506 35.2044 12.812 36.1164 12.812C36.6444 12.812 37.1064 12.758 37.5024 12.65C37.9104 12.542 38.2824 12.41 38.6184 12.254V13.658C38.2944 13.826 37.9344 13.952 37.5384 14.036C37.1544 14.132 36.6864 14.18 36.1344 14.18ZM44.5668 4.19C45.7428 4.19 46.6128 4.448 47.1768 4.964C47.7408 5.48 48.0228 6.302 48.0228 7.43V14H46.8708L46.5648 12.632H46.4928C46.0728 13.16 45.6288 13.55 45.1608 13.802C44.7048 14.054 44.0688 14.18 43.2528 14.18C42.3768 14.18 41.6508 13.952 41.0748 13.496C40.4988 13.028 40.2108 12.302 40.2108 11.318C40.2108 10.358 40.5888 9.62 41.3448 9.104C42.1008 8.576 43.2648 8.288 44.8368 8.24L46.4748 8.186V7.61C46.4748 6.806 46.3008 6.248 45.9528 5.936C45.6048 5.624 45.1128 5.468 44.4768 5.468C43.9728 5.468 43.4928 5.546 43.0368 5.702C42.5808 5.846 42.1548 6.014 41.7588 6.206L41.2728 5.018C41.6928 4.79 42.1908 4.598 42.7668 4.442C43.3428 4.274 43.9428 4.19 44.5668 4.19ZM45.0348 9.338C43.8348 9.386 43.0008 9.578 42.5328 9.914C42.0768 10.25 41.8488 10.724 41.8488 11.336C41.8488 11.876 42.0108 12.272 42.3348 12.524C42.6708 12.776 43.0968 12.902 43.6128 12.902C44.4288 12.902 45.1068 12.68 45.6468 12.236C46.1868 11.78 46.4568 11.084 46.4568 10.148V9.284L45.0348 9.338ZM54.2247 12.884C54.4647 12.884 54.7107 12.866 54.9627 12.83C55.2147 12.782 55.4187 12.734 55.5747 12.686V13.892C55.4067 13.976 55.1667 14.042 54.8547 14.09C54.5427 14.15 54.2427 14.18 53.9547 14.18C53.4507 14.18 52.9827 14.096 52.5507 13.928C52.1307 13.748 51.7887 13.442 51.5247 13.01C51.2607 12.578 51.1287 11.972 51.1287 11.192V5.576H49.7607V4.82L51.1467 4.19L51.7767 2.138H52.7127V4.352H55.5027V5.576H52.7127V11.156C52.7127 11.744 52.8507 12.182 53.1267 12.47C53.4147 12.746 53.7807 12.884 54.2247 12.884ZM61.2326 4.172C62.0606 4.172 62.7686 4.352 63.3566 4.712C63.9566 5.072 64.4126 5.582 64.7246 6.242C65.0486 6.89 65.2106 7.652 65.2106 8.528V9.482H58.6046C58.6286 10.574 58.9046 11.408 59.4326 11.984C59.9726 12.548 60.7226 12.83 61.6826 12.83C62.2946 12.83 62.8346 12.776 63.3026 12.668C63.7826 12.548 64.2746 12.38 64.7786 12.164V13.55C64.2866 13.766 63.8006 13.922 63.3206 14.018C62.8406 14.126 62.2706 14.18 61.6106 14.18C60.6986 14.18 59.8886 13.994 59.1806 13.622C58.4846 13.25 57.9386 12.698 57.5426 11.966C57.1586 11.222 56.9666 10.316 56.9666 9.248C56.9666 8.192 57.1406 7.286 57.4886 6.53C57.8486 5.774 58.3466 5.192 58.9826 4.784C59.6306 4.376 60.3806 4.172 61.2326 4.172ZM61.2146 5.468C60.4586 5.468 59.8586 5.714 59.4146 6.206C58.9826 6.686 58.7246 7.358 58.6406 8.222H63.5546C63.5426 7.406 63.3506 6.746 62.9786 6.242C62.6066 5.726 62.0186 5.468 61.2146 5.468ZM73.9487 11.336C73.9487 12.272 73.6007 12.98 72.9047 13.46C72.2087 13.94 71.2727 14.18 70.0967 14.18C69.4247 14.18 68.8427 14.126 68.3507 14.018C67.8707 13.91 67.4447 13.76 67.0727 13.568V12.128C67.4567 12.32 67.9187 12.5 68.4587 12.668C69.0107 12.824 69.5687 12.902 70.1327 12.902C70.9367 12.902 71.5187 12.776 71.8787 12.524C72.2387 12.26 72.4187 11.912 72.4187 11.48C72.4187 11.24 72.3527 11.024 72.2207 10.832C72.0887 10.64 71.8487 10.448 71.5007 10.256C71.1647 10.064 70.6787 9.848 70.0427 9.608C69.4187 9.368 68.8847 9.128 68.4407 8.888C67.9967 8.648 67.6547 8.36 67.4147 8.024C67.1747 7.688 67.0547 7.256 67.0547 6.728C67.0547 5.912 67.3847 5.282 68.0447 4.838C68.7167 4.394 69.5927 4.172 70.6727 4.172C71.2607 4.172 71.8067 4.232 72.3107 4.352C72.8267 4.46 73.3067 4.616 73.7507 4.82L73.2107 6.08C72.8027 5.912 72.3767 5.768 71.9327 5.648C71.4887 5.528 71.0327 5.468 70.5647 5.468C69.9167 5.468 69.4187 5.576 69.0707 5.792C68.7347 5.996 68.5667 6.278 68.5667 6.638C68.5667 6.902 68.6447 7.13 68.8007 7.322C68.9567 7.502 69.2147 7.682 69.5747 7.862C69.9467 8.03 70.4387 8.234 71.0507 8.474C71.6627 8.702 72.1847 8.936 72.6167 9.176C73.0487 9.416 73.3787 9.71 73.6067 10.058C73.8347 10.394 73.9487 10.82 73.9487 11.336ZM84.8978 0.95C85.8578 0.95 86.6138 1.196 87.1658 1.688C87.7298 2.168 88.0118 2.846 88.0118 3.722C88.0118 4.478 87.7658 5.12 87.2738 5.648C86.7938 6.176 86.1818 6.656 85.4378 7.088L88.9118 10.436C89.2238 10.064 89.4758 9.638 89.6678 9.158C89.8718 8.666 90.0398 8.138 90.1718 7.574H91.7738C91.5818 8.342 91.3418 9.056 91.0538 9.716C90.7658 10.376 90.3938 10.952 89.9378 11.444L92.5658 14H90.4238L88.8578 12.488C88.2938 12.992 87.6638 13.4 86.9678 13.712C86.2718 14.024 85.4258 14.18 84.4298 14.18C83.1938 14.18 82.2098 13.874 81.4778 13.262C80.7458 12.65 80.3798 11.78 80.3798 10.652C80.3798 9.728 80.6258 8.99 81.1178 8.438C81.6218 7.874 82.2998 7.352 83.1518 6.872C82.7678 6.44 82.4078 5.978 82.0718 5.486C81.7478 4.994 81.5858 4.418 81.5858 3.758C81.5858 2.87 81.8798 2.18 82.4678 1.688C83.0678 1.196 83.8778 0.95 84.8978 0.95ZM84.8438 2.246C84.3398 2.246 83.9258 2.378 83.6018 2.642C83.2898 2.906 83.1338 3.272 83.1338 3.74C83.1338 4.172 83.2478 4.574 83.4758 4.946C83.7038 5.306 84.0338 5.708 84.4658 6.152C85.1738 5.744 85.6778 5.36 85.9778 5C86.2898 4.628 86.4458 4.202 86.4458 3.722C86.4458 3.29 86.3018 2.936 86.0138 2.66C85.7258 2.384 85.3358 2.246 84.8438 2.246ZM84.1058 7.862C83.4578 8.246 82.9478 8.636 82.5758 9.032C82.2158 9.428 82.0358 9.95 82.0358 10.598C82.0358 11.258 82.2578 11.786 82.7018 12.182C83.1458 12.578 83.7398 12.776 84.4838 12.776C85.2518 12.776 85.9118 12.65 86.4638 12.398C87.0158 12.146 87.4778 11.846 87.8498 11.498L84.1058 7.862ZM102.649 14H98.0052V13.064L99.5172 12.722V2.444L98.0052 2.084V1.148H102.649V2.084L101.137 2.444V12.722L102.649 13.064V14ZM109.559 4.172C110.711 4.172 111.581 4.454 112.169 5.018C112.757 5.57 113.051 6.47 113.051 7.718V14H111.485V7.826C111.485 6.278 110.765 5.504 109.325 5.504C108.257 5.504 107.519 5.804 107.111 6.404C106.703 7.004 106.499 7.868 106.499 8.996V14H104.915V4.352H106.193L106.427 5.666H106.517C106.829 5.162 107.261 4.79 107.813 4.55C108.365 4.298 108.947 4.172 109.559 4.172ZM120.488 5.576H118.058V14H116.474V5.576H114.782V4.838L116.474 4.298V3.74C116.474 2.492 116.75 1.598 117.302 1.058C117.854 0.505999 118.622 0.229999 119.606 0.229999C119.99 0.229999 120.338 0.265999 120.65 0.337999C120.974 0.398 121.25 0.47 121.478 0.553999L121.064 1.796C120.872 1.736 120.65 1.676 120.398 1.616C120.146 1.556 119.888 1.526 119.624 1.526C119.096 1.526 118.7 1.706 118.436 2.066C118.184 2.414 118.058 2.966 118.058 3.722V4.352H120.488V5.576ZM130.617 9.158C130.617 10.754 130.209 11.99 129.393 12.866C128.589 13.742 127.497 14.18 126.117 14.18C125.265 14.18 124.503 13.988 123.831 13.604C123.171 13.208 122.649 12.638 122.265 11.894C121.881 11.138 121.689 10.226 121.689 9.158C121.689 7.562 122.091 6.332 122.895 5.468C123.699 4.604 124.791 4.172 126.171 4.172C127.047 4.172 127.815 4.37 128.475 4.766C129.147 5.15 129.669 5.714 130.041 6.458C130.425 7.19 130.617 8.09 130.617 9.158ZM123.327 9.158C123.327 10.298 123.549 11.204 123.993 11.876C124.449 12.536 125.169 12.866 126.153 12.866C127.125 12.866 127.839 12.536 128.295 11.876C128.751 11.204 128.979 10.298 128.979 9.158C128.979 8.018 128.751 7.124 128.295 6.476C127.839 5.828 127.119 5.504 126.135 5.504C125.151 5.504 124.437 5.828 123.993 6.476C123.549 7.124 123.327 8.018 123.327 9.158ZM137.628 4.172C137.808 4.172 138 4.184 138.204 4.208C138.42 4.22 138.606 4.244 138.762 4.28L138.564 5.738C138.408 5.702 138.234 5.672 138.042 5.648C137.862 5.624 137.688 5.612 137.52 5.612C137.028 5.612 136.566 5.75 136.134 6.026C135.702 6.29 135.354 6.668 135.09 7.16C134.838 7.64 134.712 8.204 134.712 8.852V14H133.128V4.352H134.424L134.604 6.116H134.676C134.988 5.588 135.39 5.132 135.882 4.748C136.374 4.364 136.956 4.172 137.628 4.172ZM151.147 4.172C152.239 4.172 153.055 4.454 153.595 5.018C154.135 5.57 154.405 6.47 154.405 7.718V14H152.839V7.79C152.839 6.266 152.185 5.504 150.877 5.504C149.941 5.504 149.269 5.774 148.861 6.314C148.465 6.854 148.267 7.64 148.267 8.672V14H146.701V7.79C146.701 6.266 146.041 5.504 144.721 5.504C143.749 5.504 143.077 5.804 142.705 6.404C142.333 7.004 142.147 7.868 142.147 8.996V14H140.563V4.352H141.841L142.075 5.666H142.165C142.465 5.162 142.867 4.79 143.371 4.55C143.887 4.298 144.433 4.172 145.009 4.172C146.521 4.172 147.505 4.712 147.961 5.792H148.051C148.375 5.24 148.813 4.832 149.365 4.568C149.929 4.304 150.523 4.172 151.147 4.172ZM163.667 11.336C163.667 12.272 163.319 12.98 162.623 13.46C161.927 13.94 160.991 14.18 159.815 14.18C159.143 14.18 158.561 14.126 158.069 14.018C157.589 13.91 157.163 13.76 156.791 13.568V12.128C157.175 12.32 157.637 12.5 158.177 12.668C158.729 12.824 159.287 12.902 159.851 12.902C160.655 12.902 161.237 12.776 161.597 12.524C161.957 12.26 162.137 11.912 162.137 11.48C162.137 11.24 162.071 11.024 161.939 10.832C161.807 10.64 161.567 10.448 161.219 10.256C160.883 10.064 160.397 9.848 159.761 9.608C159.137 9.368 158.603 9.128 158.159 8.888C157.715 8.648 157.373 8.36 157.133 8.024C156.893 7.688 156.773 7.256 156.773 6.728C156.773 5.912 157.103 5.282 157.763 4.838C158.435 4.394 159.311 4.172 160.391 4.172C160.979 4.172 161.525 4.232 162.029 4.352C162.545 4.46 163.025 4.616 163.469 4.82L162.929 6.08C162.521 5.912 162.095 5.768 161.651 5.648C161.207 5.528 160.751 5.468 160.283 5.468C159.635 5.468 159.137 5.576 158.789 5.792C158.453 5.996 158.285 6.278 158.285 6.638C158.285 6.902 158.363 7.13 158.519 7.322C158.675 7.502 158.933 7.682 159.293 7.862C159.665 8.03 160.157 8.234 160.769 8.474C161.381 8.702 161.903 8.936 162.335 9.176C162.767 9.416 163.097 9.71 163.325 10.058C163.553 10.394 163.667 10.82 163.667 11.336Z" fill="#FBFAF7"/>
</svg>
