<svg width="174" height="17" viewBox="0 0 174 17" fill="none" xmlns="http://www.w3.org/2000/svg">
<path d="M6.936 13H0.552V1.576H6.936V2.84H1.992V6.408H6.648V7.656H1.992V11.736H6.936V13ZM18.6586 4.264C19.6293 4.264 20.3546 4.51467 20.8346 5.016C21.3146 5.50667 21.5546 6.30667 21.5546 7.416V13H20.1626V7.48C20.1626 6.12533 19.5813 5.448 18.4186 5.448C17.5866 5.448 16.9893 5.688 16.6266 6.168C16.2746 6.648 16.0986 7.34667 16.0986 8.264V13H14.7066V7.48C14.7066 6.12533 14.12 5.448 12.9466 5.448C12.0826 5.448 11.4853 5.71467 11.1546 6.248C10.824 6.78133 10.6586 7.54933 10.6586 8.552V13H9.25063V4.424H10.3866L10.5946 5.592H10.6746C10.9413 5.144 11.2986 4.81333 11.7466 4.6C12.2053 4.376 12.6906 4.264 13.2026 4.264C14.5466 4.264 15.4213 4.744 15.8266 5.704H15.9066C16.1946 5.21333 16.584 4.85067 17.0746 4.616C17.576 4.38133 18.104 4.264 18.6586 4.264ZM28.2838 4.264C29.3398 4.264 30.1878 4.632 30.8278 5.368C31.4784 6.104 31.8038 7.21333 31.8038 8.696C31.8038 10.1573 31.4784 11.2667 30.8278 12.024C30.1878 12.7813 29.3344 13.16 28.2678 13.16C27.6064 13.16 27.0571 13.0373 26.6198 12.792C26.1931 12.536 25.8571 12.2427 25.6118 11.912H25.5158C25.5371 12.0933 25.5584 12.3227 25.5798 12.6C25.6011 12.8773 25.6118 13.1173 25.6118 13.32V16.84H24.2038V4.424H25.3558L25.5478 5.592H25.6118C25.8678 5.21867 26.2038 4.904 26.6198 4.648C27.0358 4.392 27.5904 4.264 28.2838 4.264ZM28.0278 5.448C27.1531 5.448 26.5344 5.69333 26.1718 6.184C25.8198 6.67467 25.6331 7.42133 25.6118 8.424V8.696C25.6118 9.752 25.7824 10.568 26.1238 11.144C26.4758 11.7093 27.1211 11.992 28.0598 11.992C28.5824 11.992 29.0091 11.848 29.3398 11.56C29.6811 11.272 29.9318 10.8827 30.0918 10.392C30.2624 9.89067 30.3478 9.32 30.3478 8.68C30.3478 7.69867 30.1558 6.91467 29.7718 6.328C29.3984 5.74133 28.8171 5.448 28.0278 5.448ZM35.4555 13H34.0475V0.839999H35.4555V13ZM45.6285 8.696C45.6285 10.1147 45.2658 11.2133 44.5405 11.992C43.8258 12.7707 42.8552 13.16 41.6285 13.16C40.8712 13.16 40.1938 12.9893 39.5965 12.648C39.0098 12.296 38.5458 11.7893 38.2045 11.128C37.8632 10.456 37.6925 9.64533 37.6925 8.696C37.6925 7.27733 38.0498 6.184 38.7645 5.416C39.4792 4.648 40.4498 4.264 41.6765 4.264C42.4552 4.264 43.1378 4.44 43.7245 4.792C44.3218 5.13333 44.7858 5.63467 45.1165 6.296C45.4578 6.94667 45.6285 7.74667 45.6285 8.696ZM39.1485 8.696C39.1485 9.70933 39.3458 10.5147 39.7405 11.112C40.1458 11.6987 40.7858 11.992 41.6605 11.992C42.5245 11.992 43.1592 11.6987 43.5645 11.112C43.9698 10.5147 44.1725 9.70933 44.1725 8.696C44.1725 7.68267 43.9698 6.888 43.5645 6.312C43.1592 5.736 42.5192 5.448 41.6445 5.448C40.7698 5.448 40.1352 5.736 39.7405 6.312C39.3458 6.888 39.1485 7.68267 39.1485 8.696ZM46.2035 4.424H47.7075L49.5635 9.304C49.7235 9.73067 49.8675 10.1413 49.9955 10.536C50.1235 10.92 50.2195 11.288 50.2835 11.64H50.3475C50.4115 11.3733 50.5128 11.0267 50.6515 10.6C50.7902 10.1627 50.9342 9.72533 51.0835 9.288L52.8275 4.424H54.3475L50.6515 14.184C50.3528 14.9947 49.9635 15.64 49.4835 16.12C49.0142 16.6 48.3635 16.84 47.5315 16.84C47.2755 16.84 47.0515 16.824 46.8595 16.792C46.6675 16.7707 46.5022 16.744 46.3635 16.712V15.592C46.4808 15.6133 46.6195 15.6347 46.7795 15.656C46.9502 15.6773 47.1262 15.688 47.3075 15.688C47.7982 15.688 48.1928 15.5493 48.4915 15.272C48.8008 14.9947 49.0408 14.6267 49.2115 14.168L49.6595 13.032L46.2035 4.424ZM59.0158 4.264C59.7518 4.264 60.3811 4.424 60.9038 4.744C61.4371 5.064 61.8424 5.51733 62.1198 6.104C62.4078 6.68 62.5518 7.35733 62.5518 8.136V8.984H56.6798C56.7011 9.95467 56.9464 10.696 57.4158 11.208C57.8958 11.7093 58.5624 11.96 59.4158 11.96C59.9598 11.96 60.4398 11.912 60.8558 11.816C61.2824 11.7093 61.7198 11.56 62.1678 11.368V12.6C61.7304 12.792 61.2984 12.9307 60.8718 13.016C60.4451 13.112 59.9384 13.16 59.3518 13.16C58.5411 13.16 57.8211 12.9947 57.1918 12.664C56.5731 12.3333 56.0878 11.8427 55.7358 11.192C55.3944 10.5307 55.2238 9.72533 55.2238 8.776C55.2238 7.83733 55.3784 7.032 55.6878 6.36C56.0078 5.688 56.4504 5.17067 57.0158 4.808C57.5918 4.44533 58.2584 4.264 59.0158 4.264ZM58.9998 5.416C58.3278 5.416 57.7944 5.63467 57.3998 6.072C57.0158 6.49867 56.7864 7.096 56.7118 7.864H61.0798C61.0691 7.13867 60.8984 6.552 60.5678 6.104C60.2371 5.64533 59.7144 5.416 58.9998 5.416ZM68.047 4.264C68.783 4.264 69.4123 4.424 69.935 4.744C70.4683 5.064 70.8737 5.51733 71.151 6.104C71.439 6.68 71.583 7.35733 71.583 8.136V8.984H65.711C65.7323 9.95467 65.9777 10.696 66.447 11.208C66.927 11.7093 67.5937 11.96 68.447 11.96C68.991 11.96 69.471 11.912 69.887 11.816C70.3137 11.7093 70.751 11.56 71.199 11.368V12.6C70.7617 12.792 70.3297 12.9307 69.903 13.016C69.4763 13.112 68.9697 13.16 68.383 13.16C67.5723 13.16 66.8523 12.9947 66.223 12.664C65.6043 12.3333 65.119 11.8427 64.767 11.192C64.4257 10.5307 64.255 9.72533 64.255 8.776C64.255 7.83733 64.4097 7.032 64.719 6.36C65.039 5.688 65.4817 5.17067 66.047 4.808C66.623 4.44533 67.2897 4.264 68.047 4.264ZM68.031 5.416C67.359 5.416 66.8257 5.63467 66.431 6.072C66.047 6.49867 65.8177 7.096 65.743 7.864H70.111C70.1003 7.13867 69.9297 6.552 69.599 6.104C69.2683 5.64533 68.7457 5.416 68.031 5.416ZM87.2665 7.176C87.2665 9.10667 86.7385 10.5627 85.6825 11.544C84.6372 12.5147 83.1758 13 81.2985 13H78.1145V1.576H81.6345C82.7865 1.576 83.7838 1.78933 84.6265 2.216C85.4692 2.64267 86.1198 3.272 86.5785 4.104C87.0372 4.92533 87.2665 5.94933 87.2665 7.176ZM85.7465 7.224C85.7465 5.69867 85.3678 4.584 84.6105 3.88C83.8638 3.16533 82.8025 2.808 81.4265 2.808H79.5545V11.768H81.1065C84.1998 11.768 85.7465 10.2533 85.7465 7.224ZM92.858 4.28C93.9033 4.28 94.6767 4.50933 95.178 4.968C95.6793 5.42667 95.93 6.15733 95.93 7.16V13H94.906L94.634 11.784H94.57C94.1967 12.2533 93.802 12.6 93.386 12.824C92.9807 13.048 92.4153 13.16 91.69 13.16C90.9113 13.16 90.266 12.9573 89.754 12.552C89.242 12.136 88.986 11.4907 88.986 10.616C88.986 9.76267 89.322 9.10667 89.994 8.648C90.666 8.17867 91.7007 7.92267 93.098 7.88L94.554 7.832V7.32C94.554 6.60533 94.3993 6.10933 94.09 5.832C93.7807 5.55467 93.3433 5.416 92.778 5.416C92.33 5.416 91.9033 5.48533 91.498 5.624C91.0927 5.752 90.714 5.90133 90.362 6.072L89.93 5.016C90.3033 4.81333 90.746 4.64267 91.258 4.504C91.77 4.35467 92.3033 4.28 92.858 4.28ZM93.274 8.856C92.2073 8.89867 91.466 9.06933 91.05 9.368C90.6447 9.66667 90.442 10.088 90.442 10.632C90.442 11.112 90.586 11.464 90.874 11.688C91.1727 11.912 91.5513 12.024 92.01 12.024C92.7353 12.024 93.338 11.8267 93.818 11.432C94.298 11.0267 94.538 10.408 94.538 9.576V8.808L93.274 8.856ZM101.443 12.008C101.656 12.008 101.875 11.992 102.099 11.96C102.323 11.9173 102.504 11.8747 102.643 11.832V12.904C102.493 12.9787 102.28 13.0373 102.003 13.08C101.725 13.1333 101.459 13.16 101.203 13.16C100.755 13.16 100.339 13.0853 99.9548 12.936C99.5814 12.776 99.2774 12.504 99.0428 12.12C98.8081 11.736 98.6908 11.1973 98.6908 10.504V5.512H97.4748V4.84L98.7068 4.28L99.2668 2.456H100.099V4.424H102.579V5.512H100.099V10.472C100.099 10.9947 100.221 11.384 100.467 11.64C100.723 11.8853 101.048 12.008 101.443 12.008ZM107.608 4.28C108.653 4.28 109.427 4.50933 109.928 4.968C110.429 5.42667 110.68 6.15733 110.68 7.16V13H109.656L109.384 11.784H109.32C108.947 12.2533 108.552 12.6 108.136 12.824C107.731 13.048 107.165 13.16 106.44 13.16C105.661 13.16 105.016 12.9573 104.504 12.552C103.992 12.136 103.736 11.4907 103.736 10.616C103.736 9.76267 104.072 9.10667 104.744 8.648C105.416 8.17867 106.451 7.92267 107.848 7.88L109.304 7.832V7.32C109.304 6.60533 109.149 6.10933 108.84 5.832C108.531 5.55467 108.093 5.416 107.528 5.416C107.08 5.416 106.653 5.48533 106.248 5.624C105.843 5.752 105.464 5.90133 105.112 6.072L104.68 5.016C105.053 4.81333 105.496 4.64267 106.008 4.504C106.52 4.35467 107.053 4.28 107.608 4.28ZM108.024 8.856C106.957 8.89867 106.216 9.06933 105.8 9.368C105.395 9.66667 105.192 10.088 105.192 10.632C105.192 11.112 105.336 11.464 105.624 11.688C105.923 11.912 106.301 12.024 106.76 12.024C107.485 12.024 108.088 11.8267 108.568 11.432C109.048 11.0267 109.288 10.408 109.288 9.576V8.808L108.024 8.856ZM124.157 9.944C124.157 10.9573 123.789 11.7467 123.053 12.312C122.317 12.8773 121.325 13.16 120.077 13.16C119.437 13.16 118.845 13.112 118.301 13.016C117.757 12.92 117.304 12.7867 116.941 12.616V11.24C117.325 11.4107 117.8 11.5653 118.365 11.704C118.941 11.8427 119.533 11.912 120.141 11.912C120.994 11.912 121.634 11.7467 122.061 11.416C122.498 11.0853 122.717 10.6373 122.717 10.072C122.717 9.69867 122.637 9.384 122.477 9.128C122.317 8.872 122.04 8.63733 121.645 8.424C121.261 8.2 120.722 7.96533 120.029 7.72C119.058 7.368 118.322 6.936 117.821 6.424C117.33 5.912 117.085 5.21333 117.085 4.328C117.085 3.72 117.24 3.20267 117.549 2.776C117.858 2.33867 118.285 2.00267 118.829 1.768C119.384 1.53333 120.018 1.416 120.733 1.416C121.362 1.416 121.938 1.47467 122.461 1.592C122.984 1.70933 123.458 1.864 123.885 2.056L123.437 3.288C123.042 3.11733 122.61 2.97333 122.141 2.856C121.682 2.73867 121.202 2.68 120.701 2.68C119.986 2.68 119.448 2.83467 119.085 3.144C118.722 3.44267 118.541 3.84267 118.541 4.344C118.541 4.728 118.621 5.048 118.781 5.304C118.941 5.56 119.202 5.78933 119.565 5.992C119.928 6.19467 120.418 6.41333 121.037 6.648C121.709 6.89333 122.274 7.16 122.733 7.448C123.202 7.72533 123.554 8.06133 123.789 8.456C124.034 8.85067 124.157 9.34667 124.157 9.944ZM129.13 12.008C129.344 12.008 129.562 11.992 129.786 11.96C130.01 11.9173 130.192 11.8747 130.33 11.832V12.904C130.181 12.9787 129.968 13.0373 129.69 13.08C129.413 13.1333 129.146 13.16 128.89 13.16C128.442 13.16 128.026 13.0853 127.642 12.936C127.269 12.776 126.965 12.504 126.73 12.12C126.496 11.736 126.378 11.1973 126.378 10.504V5.512H125.162V4.84L126.394 4.28L126.954 2.456H127.786V4.424H130.266V5.512H127.786V10.472C127.786 10.9947 127.909 11.384 128.154 11.64C128.41 11.8853 128.736 12.008 129.13 12.008ZM139.503 8.696C139.503 10.1147 139.141 11.2133 138.416 11.992C137.701 12.7707 136.73 13.16 135.504 13.16C134.746 13.16 134.069 12.9893 133.472 12.648C132.885 12.296 132.421 11.7893 132.08 11.128C131.738 10.456 131.568 9.64533 131.568 8.696C131.568 7.27733 131.925 6.184 132.64 5.416C133.354 4.648 134.325 4.264 135.552 4.264C136.33 4.264 137.013 4.44 137.6 4.792C138.197 5.13333 138.661 5.63467 138.992 6.296C139.333 6.94667 139.503 7.74667 139.503 8.696ZM133.024 8.696C133.024 9.70933 133.221 10.5147 133.616 11.112C134.021 11.6987 134.661 11.992 135.536 11.992C136.4 11.992 137.034 11.6987 137.44 11.112C137.845 10.5147 138.048 9.70933 138.048 8.696C138.048 7.68267 137.845 6.888 137.44 6.312C137.034 5.736 136.394 5.448 135.52 5.448C134.645 5.448 134.01 5.736 133.616 6.312C133.221 6.888 133.024 7.68267 133.024 8.696ZM145.735 4.264C145.895 4.264 146.066 4.27467 146.247 4.296C146.439 4.30667 146.604 4.328 146.743 4.36L146.567 5.656C146.428 5.624 146.274 5.59733 146.103 5.576C145.943 5.55467 145.788 5.544 145.639 5.544C145.202 5.544 144.791 5.66667 144.407 5.912C144.023 6.14667 143.714 6.48267 143.479 6.92C143.255 7.34667 143.143 7.848 143.143 8.424V13H141.735V4.424H142.887L143.047 5.992H143.111C143.388 5.52267 143.746 5.11733 144.183 4.776C144.62 4.43467 145.138 4.264 145.735 4.264ZM151.28 4.28C152.325 4.28 153.099 4.50933 153.6 4.968C154.101 5.42667 154.352 6.15733 154.352 7.16V13H153.328L153.056 11.784H152.992C152.619 12.2533 152.224 12.6 151.808 12.824C151.403 13.048 150.837 13.16 150.112 13.16C149.333 13.16 148.688 12.9573 148.176 12.552C147.664 12.136 147.408 11.4907 147.408 10.616C147.408 9.76267 147.744 9.10667 148.416 8.648C149.088 8.17867 150.123 7.92267 151.52 7.88L152.976 7.832V7.32C152.976 6.60533 152.821 6.10933 152.512 5.832C152.203 5.55467 151.765 5.416 151.2 5.416C150.752 5.416 150.325 5.48533 149.92 5.624C149.515 5.752 149.136 5.90133 148.784 6.072L148.352 5.016C148.725 4.81333 149.168 4.64267 149.68 4.504C150.192 4.35467 150.725 4.28 151.28 4.28ZM151.696 8.856C150.629 8.89867 149.888 9.06933 149.472 9.368C149.067 9.66667 148.864 10.088 148.864 10.632C148.864 11.112 149.008 11.464 149.296 11.688C149.595 11.912 149.973 12.024 150.432 12.024C151.157 12.024 151.76 11.8267 152.24 11.432C152.72 11.0267 152.96 10.408 152.96 9.576V8.808L151.696 8.856ZM160.041 4.264C160.606 4.264 161.113 4.37067 161.561 4.584C162.019 4.79733 162.409 5.12267 162.729 5.56H162.809L163.001 4.424H164.121V13.144C164.121 14.3707 163.806 15.2933 163.177 15.912C162.558 16.5307 161.593 16.84 160.281 16.84C159.022 16.84 157.993 16.6587 157.193 16.296V15C158.035 15.448 159.091 15.672 160.361 15.672C161.097 15.672 161.673 15.4533 162.089 15.016C162.515 14.5893 162.729 14.0027 162.729 13.256V12.92C162.729 12.792 162.734 12.6107 162.745 12.376C162.755 12.1307 162.766 11.96 162.777 11.864H162.713C162.137 12.728 161.251 13.16 160.057 13.16C158.947 13.16 158.078 12.7707 157.449 11.992C156.83 11.2133 156.521 10.1253 156.521 8.728C156.521 7.36267 156.83 6.28 157.449 5.48C158.078 4.66933 158.942 4.264 160.041 4.264ZM160.233 5.448C159.518 5.448 158.963 5.736 158.569 6.312C158.174 6.87733 157.977 7.688 157.977 8.744C157.977 9.8 158.169 10.6107 158.553 11.176C158.947 11.7307 159.518 12.008 160.265 12.008C161.129 12.008 161.758 11.7787 162.153 11.32C162.547 10.8507 162.745 10.0987 162.745 9.064V8.728C162.745 7.55467 162.542 6.71733 162.137 6.216C161.731 5.704 161.097 5.448 160.233 5.448ZM170.156 4.264C170.892 4.264 171.522 4.424 172.044 4.744C172.578 5.064 172.983 5.51733 173.26 6.104C173.548 6.68 173.692 7.35733 173.692 8.136V8.984H167.82C167.842 9.95467 168.087 10.696 168.556 11.208C169.036 11.7093 169.703 11.96 170.556 11.96C171.1 11.96 171.58 11.912 171.996 11.816C172.423 11.7093 172.86 11.56 173.308 11.368V12.6C172.871 12.792 172.439 12.9307 172.012 13.016C171.586 13.112 171.079 13.16 170.492 13.16C169.682 13.16 168.962 12.9947 168.332 12.664C167.714 12.3333 167.228 11.8427 166.876 11.192C166.535 10.5307 166.364 9.72533 166.364 8.776C166.364 7.83733 166.519 7.032 166.828 6.36C167.148 5.688 167.591 5.17067 168.156 4.808C168.732 4.44533 169.399 4.264 170.156 4.264ZM170.14 5.416C169.468 5.416 168.935 5.63467 168.54 6.072C168.156 6.49867 167.927 7.096 167.852 7.864H172.22C172.21 7.13867 172.039 6.552 171.708 6.104C171.378 5.64533 170.855 5.416 170.14 5.416Z" fill="#163A24"/>
</svg>
