<svg width="193" height="19" viewBox="0 0 193 19" fill="none" xmlns="http://www.w3.org/2000/svg">
<path d="M7.40456 14H0.222563V1.148H7.40456V2.57H1.84256V6.584H7.08056V7.988H1.84256V12.578H7.40456V14ZM20.5925 4.172C21.6845 4.172 22.5005 4.454 23.0405 5.018C23.5805 5.57 23.8505 6.47 23.8505 7.718V14H22.2845V7.79C22.2845 6.266 21.6305 5.504 20.3225 5.504C19.3865 5.504 18.7145 5.774 18.3065 6.314C17.9105 6.854 17.7125 7.64 17.7125 8.672V14H16.1465V7.79C16.1465 6.266 15.4865 5.504 14.1665 5.504C13.1945 5.504 12.5225 5.804 12.1505 6.404C11.7785 7.004 11.5925 7.868 11.5925 8.996V14H10.0085V4.352H11.2865L11.5205 5.666H11.6105C11.9105 5.162 12.3125 4.79 12.8165 4.55C13.3325 4.298 13.8785 4.172 14.4545 4.172C15.9665 4.172 16.9505 4.712 17.4065 5.792H17.4965C17.8205 5.24 18.2585 4.832 18.8105 4.568C19.3745 4.304 19.9685 4.172 20.5925 4.172ZM31.4208 4.172C32.6088 4.172 33.5628 4.586 34.2828 5.414C35.0148 6.242 35.3808 7.49 35.3808 9.158C35.3808 10.802 35.0148 12.05 34.2828 12.902C33.5628 13.754 32.6028 14.18 31.4028 14.18C30.6588 14.18 30.0408 14.042 29.5488 13.766C29.0688 13.478 28.6908 13.148 28.4148 12.776H28.3068C28.3308 12.98 28.3548 13.238 28.3788 13.55C28.4028 13.862 28.4148 14.132 28.4148 14.36V18.32H26.8308V4.352H28.1268L28.3428 5.666H28.4148C28.7028 5.246 29.0808 4.892 29.5488 4.604C30.0168 4.316 30.6408 4.172 31.4208 4.172ZM31.1328 5.504C30.1488 5.504 29.4528 5.78 29.0448 6.332C28.6488 6.884 28.4388 7.724 28.4148 8.852V9.158C28.4148 10.346 28.6068 11.264 28.9908 11.912C29.3868 12.548 30.1128 12.866 31.1688 12.866C31.7568 12.866 32.2368 12.704 32.6088 12.38C32.9928 12.056 33.2748 11.618 33.4548 11.066C33.6468 10.502 33.7428 9.86 33.7428 9.14C33.7428 8.036 33.5268 7.154 33.0948 6.494C32.6748 5.834 32.0208 5.504 31.1328 5.504ZM39.489 14H37.905V0.319999H39.489V14ZM50.9336 9.158C50.9336 10.754 50.5256 11.99 49.7096 12.866C48.9056 13.742 47.8136 14.18 46.4336 14.18C45.5816 14.18 44.8196 13.988 44.1476 13.604C43.4876 13.208 42.9656 12.638 42.5816 11.894C42.1976 11.138 42.0056 10.226 42.0056 9.158C42.0056 7.562 42.4076 6.332 43.2116 5.468C44.0156 4.604 45.1076 4.172 46.4876 4.172C47.3636 4.172 48.1316 4.37 48.7916 4.766C49.4636 5.15 49.9856 5.714 50.3576 6.458C50.7416 7.19 50.9336 8.09 50.9336 9.158ZM43.6436 9.158C43.6436 10.298 43.8656 11.204 44.3096 11.876C44.7656 12.536 45.4856 12.866 46.4696 12.866C47.4416 12.866 48.1556 12.536 48.6116 11.876C49.0676 11.204 49.2956 10.298 49.2956 9.158C49.2956 8.018 49.0676 7.124 48.6116 6.476C48.1556 5.828 47.4356 5.504 46.4516 5.504C45.4676 5.504 44.7536 5.828 44.3096 6.476C43.8656 7.124 43.6436 8.018 43.6436 9.158ZM51.5805 4.352H53.2725L55.3605 9.842C55.5405 10.322 55.7025 10.784 55.8465 11.228C55.9905 11.66 56.0985 12.074 56.1705 12.47H56.2425C56.3145 12.17 56.4285 11.78 56.5845 11.3C56.7405 10.808 56.9025 10.316 57.0705 9.824L59.0325 4.352H60.7425L56.5845 15.332C56.2485 16.244 55.8105 16.97 55.2705 17.51C54.7425 18.05 54.0105 18.32 53.0745 18.32C52.7865 18.32 52.5345 18.302 52.3185 18.266C52.1025 18.242 51.9165 18.212 51.7605 18.176V16.916C51.8925 16.94 52.0485 16.964 52.2285 16.988C52.4205 17.012 52.6185 17.024 52.8225 17.024C53.3745 17.024 53.8185 16.868 54.1545 16.556C54.5025 16.244 54.7725 15.83 54.9645 15.314L55.4685 14.036L51.5805 4.352ZM65.9943 4.172C66.8223 4.172 67.5303 4.352 68.1183 4.712C68.7183 5.072 69.1743 5.582 69.4863 6.242C69.8103 6.89 69.9723 7.652 69.9723 8.528V9.482H63.3663C63.3903 10.574 63.6663 11.408 64.1943 11.984C64.7343 12.548 65.4843 12.83 66.4443 12.83C67.0563 12.83 67.5963 12.776 68.0643 12.668C68.5443 12.548 69.0363 12.38 69.5403 12.164V13.55C69.0483 13.766 68.5623 13.922 68.0823 14.018C67.6023 14.126 67.0323 14.18 66.3723 14.18C65.4603 14.18 64.6503 13.994 63.9423 13.622C63.2463 13.25 62.7003 12.698 62.3043 11.966C61.9203 11.222 61.7283 10.316 61.7283 9.248C61.7283 8.192 61.9023 7.286 62.2503 6.53C62.6103 5.774 63.1083 5.192 63.7443 4.784C64.3923 4.376 65.1423 4.172 65.9943 4.172ZM65.9763 5.468C65.2203 5.468 64.6203 5.714 64.1763 6.206C63.7443 6.686 63.4863 7.358 63.4023 8.222H68.3163C68.3043 7.406 68.1123 6.746 67.7403 6.242C67.3683 5.726 66.7803 5.468 65.9763 5.468ZM76.1544 4.172C76.9824 4.172 77.6904 4.352 78.2784 4.712C78.8784 5.072 79.3344 5.582 79.6464 6.242C79.9704 6.89 80.1324 7.652 80.1324 8.528V9.482H73.5264C73.5504 10.574 73.8264 11.408 74.3544 11.984C74.8944 12.548 75.6444 12.83 76.6044 12.83C77.2164 12.83 77.7564 12.776 78.2244 12.668C78.7044 12.548 79.1964 12.38 79.7004 12.164V13.55C79.2084 13.766 78.7224 13.922 78.2424 14.018C77.7624 14.126 77.1924 14.18 76.5324 14.18C75.6204 14.18 74.8104 13.994 74.1024 13.622C73.4064 13.25 72.8604 12.698 72.4644 11.966C72.0804 11.222 71.8884 10.316 71.8884 9.248C71.8884 8.192 72.0624 7.286 72.4104 6.53C72.7704 5.774 73.2684 5.192 73.9044 4.784C74.5524 4.376 75.3024 4.172 76.1544 4.172ZM76.1364 5.468C75.3804 5.468 74.7804 5.714 74.3364 6.206C73.9044 6.686 73.6464 7.358 73.5624 8.222H78.4764C78.4644 7.406 78.2724 6.746 77.9004 6.242C77.5284 5.726 76.9404 5.468 76.1364 5.468ZM94.6624 14H87.4804V1.148H94.6624V2.57H89.1004V6.584H94.3384V7.988H89.1004V12.578H94.6624V14ZM99.5523 9.068L96.2223 4.352H98.0223L100.506 7.988L102.972 4.352H104.754L101.424 9.068L104.934 14H103.134L100.506 10.148L97.8423 14H96.0603L99.5523 9.068ZM111.384 4.172C112.572 4.172 113.526 4.586 114.246 5.414C114.978 6.242 115.344 7.49 115.344 9.158C115.344 10.802 114.978 12.05 114.246 12.902C113.526 13.754 112.566 14.18 111.366 14.18C110.622 14.18 110.004 14.042 109.512 13.766C109.032 13.478 108.654 13.148 108.378 12.776H108.27C108.294 12.98 108.318 13.238 108.342 13.55C108.366 13.862 108.378 14.132 108.378 14.36V18.32H106.794V4.352H108.09L108.306 5.666H108.378C108.666 5.246 109.044 4.892 109.512 4.604C109.98 4.316 110.604 4.172 111.384 4.172ZM111.096 5.504C110.112 5.504 109.416 5.78 109.008 6.332C108.612 6.884 108.402 7.724 108.378 8.852V9.158C108.378 10.346 108.57 11.264 108.954 11.912C109.35 12.548 110.076 12.866 111.132 12.866C111.72 12.866 112.2 12.704 112.572 12.38C112.956 12.056 113.238 11.618 113.418 11.066C113.61 10.502 113.706 9.86 113.706 9.14C113.706 8.036 113.49 7.154 113.058 6.494C112.638 5.834 111.984 5.504 111.096 5.504ZM121.594 4.172C122.422 4.172 123.13 4.352 123.718 4.712C124.318 5.072 124.774 5.582 125.086 6.242C125.41 6.89 125.572 7.652 125.572 8.528V9.482H118.966C118.99 10.574 119.266 11.408 119.794 11.984C120.334 12.548 121.084 12.83 122.044 12.83C122.656 12.83 123.196 12.776 123.664 12.668C124.144 12.548 124.636 12.38 125.14 12.164V13.55C124.648 13.766 124.162 13.922 123.682 14.018C123.202 14.126 122.632 14.18 121.972 14.18C121.06 14.18 120.25 13.994 119.542 13.622C118.846 13.25 118.3 12.698 117.904 11.966C117.52 11.222 117.328 10.316 117.328 9.248C117.328 8.192 117.502 7.286 117.85 6.53C118.21 5.774 118.708 5.192 119.344 4.784C119.992 4.376 120.742 4.172 121.594 4.172ZM121.576 5.468C120.82 5.468 120.22 5.714 119.776 6.206C119.344 6.686 119.086 7.358 119.002 8.222H123.916C123.904 7.406 123.712 6.746 123.34 6.242C122.968 5.726 122.38 5.468 121.576 5.468ZM131.898 14.18C131.046 14.18 130.284 14.006 129.612 13.658C128.952 13.31 128.43 12.77 128.046 12.038C127.674 11.306 127.488 10.37 127.488 9.23C127.488 8.042 127.686 7.076 128.082 6.332C128.478 5.588 129.012 5.042 129.684 4.694C130.368 4.346 131.142 4.172 132.006 4.172C132.498 4.172 132.972 4.226 133.428 4.334C133.884 4.43 134.256 4.55 134.544 4.694L134.058 6.008C133.77 5.9 133.434 5.798 133.05 5.702C132.666 5.606 132.306 5.558 131.97 5.558C130.074 5.558 129.126 6.776 129.126 9.212C129.126 10.376 129.354 11.27 129.81 11.894C130.278 12.506 130.968 12.812 131.88 12.812C132.408 12.812 132.87 12.758 133.266 12.65C133.674 12.542 134.046 12.41 134.382 12.254V13.658C134.058 13.826 133.698 13.952 133.302 14.036C132.918 14.132 132.45 14.18 131.898 14.18ZM139.898 12.884C140.138 12.884 140.384 12.866 140.636 12.83C140.888 12.782 141.092 12.734 141.248 12.686V13.892C141.08 13.976 140.84 14.042 140.528 14.09C140.216 14.15 139.916 14.18 139.628 14.18C139.124 14.18 138.656 14.096 138.224 13.928C137.804 13.748 137.462 13.442 137.198 13.01C136.934 12.578 136.802 11.972 136.802 11.192V5.576H135.434V4.82L136.82 4.19L137.45 2.138H138.386V4.352H141.176V5.576H138.386V11.156C138.386 11.744 138.524 12.182 138.8 12.47C139.088 12.746 139.454 12.884 139.898 12.884ZM146.834 4.19C148.01 4.19 148.88 4.448 149.444 4.964C150.008 5.48 150.29 6.302 150.29 7.43V14H149.138L148.832 12.632H148.76C148.34 13.16 147.896 13.55 147.428 13.802C146.972 14.054 146.336 14.18 145.52 14.18C144.644 14.18 143.918 13.952 143.342 13.496C142.766 13.028 142.478 12.302 142.478 11.318C142.478 10.358 142.856 9.62 143.612 9.104C144.368 8.576 145.532 8.288 147.104 8.24L148.742 8.186V7.61C148.742 6.806 148.568 6.248 148.22 5.936C147.872 5.624 147.38 5.468 146.744 5.468C146.24 5.468 145.76 5.546 145.304 5.702C144.848 5.846 144.422 6.014 144.026 6.206L143.54 5.018C143.96 4.79 144.458 4.598 145.034 4.442C145.61 4.274 146.21 4.19 146.834 4.19ZM147.302 9.338C146.102 9.386 145.268 9.578 144.8 9.914C144.344 10.25 144.116 10.724 144.116 11.336C144.116 11.876 144.278 12.272 144.602 12.524C144.938 12.776 145.364 12.902 145.88 12.902C146.696 12.902 147.374 12.68 147.914 12.236C148.454 11.78 148.724 11.084 148.724 10.148V9.284L147.302 9.338ZM156.492 12.884C156.732 12.884 156.978 12.866 157.23 12.83C157.482 12.782 157.686 12.734 157.842 12.686V13.892C157.674 13.976 157.434 14.042 157.122 14.09C156.81 14.15 156.51 14.18 156.222 14.18C155.718 14.18 155.25 14.096 154.818 13.928C154.398 13.748 154.056 13.442 153.792 13.01C153.528 12.578 153.396 11.972 153.396 11.192V5.576H152.028V4.82L153.414 4.19L154.044 2.138H154.98V4.352H157.77V5.576H154.98V11.156C154.98 11.744 155.118 12.182 155.394 12.47C155.682 12.746 156.048 12.884 156.492 12.884ZM160.584 0.733999C160.824 0.733999 161.034 0.817999 161.214 0.985999C161.406 1.142 161.502 1.394 161.502 1.742C161.502 2.078 161.406 2.33 161.214 2.498C161.034 2.666 160.824 2.75 160.584 2.75C160.32 2.75 160.098 2.666 159.918 2.498C159.738 2.33 159.648 2.078 159.648 1.742C159.648 1.394 159.738 1.142 159.918 0.985999C160.098 0.817999 160.32 0.733999 160.584 0.733999ZM161.358 4.352V14H159.774V4.352H161.358ZM172.803 9.158C172.803 10.754 172.395 11.99 171.579 12.866C170.775 13.742 169.683 14.18 168.303 14.18C167.451 14.18 166.689 13.988 166.017 13.604C165.357 13.208 164.835 12.638 164.451 11.894C164.067 11.138 163.875 10.226 163.875 9.158C163.875 7.562 164.277 6.332 165.081 5.468C165.885 4.604 166.977 4.172 168.357 4.172C169.233 4.172 170.001 4.37 170.661 4.766C171.333 5.15 171.855 5.714 172.227 6.458C172.611 7.19 172.803 8.09 172.803 9.158ZM165.513 9.158C165.513 10.298 165.735 11.204 166.179 11.876C166.635 12.536 167.355 12.866 168.339 12.866C169.311 12.866 170.025 12.536 170.481 11.876C170.937 11.204 171.165 10.298 171.165 9.158C171.165 8.018 170.937 7.124 170.481 6.476C170.025 5.828 169.305 5.504 168.321 5.504C167.337 5.504 166.623 5.828 166.179 6.476C165.735 7.124 165.513 8.018 165.513 9.158ZM179.957 4.172C181.109 4.172 181.979 4.454 182.567 5.018C183.155 5.57 183.449 6.47 183.449 7.718V14H181.883V7.826C181.883 6.278 181.163 5.504 179.723 5.504C178.655 5.504 177.917 5.804 177.509 6.404C177.101 7.004 176.897 7.868 176.897 8.996V14H175.313V4.352H176.591L176.825 5.666H176.915C177.227 5.162 177.659 4.79 178.211 4.55C178.763 4.298 179.345 4.172 179.957 4.172ZM192.722 11.336C192.722 12.272 192.374 12.98 191.678 13.46C190.982 13.94 190.046 14.18 188.87 14.18C188.198 14.18 187.616 14.126 187.124 14.018C186.644 13.91 186.218 13.76 185.846 13.568V12.128C186.23 12.32 186.692 12.5 187.232 12.668C187.784 12.824 188.342 12.902 188.906 12.902C189.71 12.902 190.292 12.776 190.652 12.524C191.012 12.26 191.192 11.912 191.192 11.48C191.192 11.24 191.126 11.024 190.994 10.832C190.862 10.64 190.622 10.448 190.274 10.256C189.938 10.064 189.452 9.848 188.816 9.608C188.192 9.368 187.658 9.128 187.214 8.888C186.77 8.648 186.428 8.36 186.188 8.024C185.948 7.688 185.828 7.256 185.828 6.728C185.828 5.912 186.158 5.282 186.818 4.838C187.49 4.394 188.366 4.172 189.446 4.172C190.034 4.172 190.58 4.232 191.084 4.352C191.6 4.46 192.08 4.616 192.524 4.82L191.984 6.08C191.576 5.912 191.15 5.768 190.706 5.648C190.262 5.528 189.806 5.468 189.338 5.468C188.69 5.468 188.192 5.576 187.844 5.792C187.508 5.996 187.34 6.278 187.34 6.638C187.34 6.902 187.418 7.13 187.574 7.322C187.73 7.502 187.988 7.682 188.348 7.862C188.72 8.03 189.212 8.234 189.824 8.474C190.436 8.702 190.958 8.936 191.39 9.176C191.822 9.416 192.152 9.71 192.38 10.058C192.608 10.394 192.722 10.82 192.722 11.336Z" fill="#FBFAF7"/>
</svg>
