<svg width="35" height="11" viewBox="0 0 35 11" fill="none" xmlns="http://www.w3.org/2000/svg">
<path d="M5.37889 5.099H8.58989V9.649C8.08722 9.81367 7.58022 9.935 7.06889 10.013C6.55756 10.091 5.97689 10.13 5.32689 10.13C4.36489 10.13 3.55456 9.93933 2.89589 9.558C2.23722 9.168 1.73456 8.61767 1.38789 7.907C1.04989 7.18767 0.880891 6.33833 0.880891 5.359C0.880891 4.38833 1.07156 3.54767 1.45289 2.837C1.83422 2.12633 2.38022 1.576 3.09089 1.186C3.81022 0.787333 4.67689 0.588 5.69089 0.588C6.21089 0.588 6.70056 0.635666 7.15989 0.730999C7.62789 0.826333 8.06122 0.960666 8.45989 1.134L8.01789 2.148C7.68856 2.00067 7.31589 1.875 6.89989 1.771C6.49256 1.667 6.06789 1.615 5.62589 1.615C4.51656 1.615 3.64989 1.94867 3.02589 2.616C2.41056 3.28333 2.10289 4.19767 2.10289 5.359C2.10289 6.09567 2.21989 6.75 2.45389 7.322C2.69656 7.88533 3.07356 8.32733 3.58489 8.648C4.09622 8.96 4.76789 9.116 5.59989 9.116C6.00722 9.116 6.35389 9.09433 6.63989 9.051C6.92589 9.00767 7.18589 8.95567 7.41989 8.895V6.139H5.37889V5.099ZM18.2429 5.268C18.2429 6.83667 17.8139 8.01967 16.9559 8.817C16.1066 9.60567 14.9192 10 13.3939 10H10.8069V0.717999H13.6669C14.6029 0.717999 15.4132 0.891333 16.0979 1.238C16.7826 1.58467 17.3112 2.096 17.6839 2.772C18.0566 3.43933 18.2429 4.27133 18.2429 5.268ZM17.0079 5.307C17.0079 4.06767 16.7002 3.162 16.0849 2.59C15.4782 2.00933 14.6159 1.719 13.4979 1.719H11.9769V8.999H13.2379C15.7512 8.999 17.0079 7.76833 17.0079 5.307ZM22.76 0.717999C23.9733 0.717999 24.8573 0.956333 25.412 1.433C25.9667 1.90967 26.244 2.58133 26.244 3.448C26.244 3.95933 26.127 4.44033 25.893 4.891C25.6677 5.333 25.282 5.69267 24.736 5.97C24.1987 6.24733 23.4663 6.386 22.539 6.386H21.473V10H20.303V0.717999H22.76ZM22.656 1.719H21.473V5.385H22.409C23.293 5.385 23.9517 5.242 24.385 4.956C24.8183 4.67 25.035 4.18467 25.035 3.5C25.035 2.902 24.8443 2.45567 24.463 2.161C24.0817 1.86633 23.4793 1.719 22.656 1.719ZM30.7351 0.717999C31.8878 0.717999 32.7371 0.938999 33.2831 1.381C33.8378 1.81433 34.1151 2.473 34.1151 3.357C34.1151 3.851 34.0241 4.26267 33.8421 4.592C33.6601 4.92133 33.4261 5.18567 33.1401 5.385C32.8628 5.57567 32.5681 5.72733 32.2561 5.84L34.8041 10H33.4391L31.1901 6.165H29.3441V10H28.1741V0.717999H30.7351ZM30.6701 1.732H29.3441V5.177H30.7351C31.4891 5.177 32.0394 5.02967 32.3861 4.735C32.7328 4.43167 32.9061 3.98967 32.9061 3.409C32.9061 2.80233 32.7241 2.37333 32.3601 2.122C31.9961 1.862 31.4328 1.732 30.6701 1.732Z" fill="#198C36"/>
</svg>
