<svg width="543" height="48" viewBox="0 0 543 48" fill="none" xmlns="http://www.w3.org/2000/svg">
<path d="M17.2233 37.48C12.3913 37.48 8.32731 35.752 5.03131 32.296C1.73531 28.808 0.0873125 24.712 0.0873125 20.008C0.0873125 14.792 1.67131 10.568 4.83931 7.336C8.00731 4.104 11.8153 2.488 16.2633 2.488C20.1993 2.488 23.4793 3.384 26.1033 5.176C28.7593 6.968 30.0873 9.016 30.0873 11.32C30.0873 12.312 29.7833 13.112 29.1753 13.72C28.5993 14.328 27.8153 14.632 26.8233 14.632C25.8633 14.632 24.9673 14.312 24.1353 13.672C23.3353 13.032 22.6313 12.264 22.0233 11.368C21.4153 10.472 20.7753 9.576 20.1033 8.68C19.4633 7.784 18.6473 7.016 17.6553 6.376C16.6953 5.736 15.6073 5.416 14.3913 5.416C12.3113 5.416 10.5833 6.36 9.20731 8.248C7.83131 10.136 7.14331 12.504 7.14331 15.352C7.14331 20.152 8.29531 24.232 10.5993 27.592C12.9353 30.952 15.7033 32.632 18.9033 32.632C20.5673 32.632 22.0073 32.312 23.2233 31.672V24.616C23.2233 24.136 23.0633 23.704 22.7433 23.32C22.4553 22.904 22.1353 22.6 21.7833 22.408C21.4313 22.216 21.0953 21.992 20.7753 21.736C20.4873 21.48 20.3433 21.224 20.3433 20.968V20.776C20.3433 20.2 20.7433 19.912 21.5433 19.912L31.3833 19.96C32.1193 19.96 32.4873 20.232 32.4873 20.776V20.968C32.4873 21.288 32.2793 21.608 31.8633 21.928C31.4473 22.216 31.0313 22.584 30.6153 23.032C30.1993 23.48 29.9913 24.024 29.9913 24.664V30.808C29.9913 31.992 29.3993 33.048 28.2153 33.976C25.3353 36.312 21.6713 37.48 17.2233 37.48ZM53.9369 29.704C54.2249 29.32 54.5769 29.192 54.9929 29.32C55.4089 29.448 55.6009 29.752 55.5689 30.232C55.4089 31.896 54.4489 33.528 52.6889 35.128C50.9289 36.696 48.6409 37.48 45.8249 37.48C42.4329 37.48 39.6489 36.36 37.4729 34.12C35.2969 31.88 34.2089 28.936 34.2089 25.288C34.2089 21.864 35.3449 19.048 37.6169 16.84C39.8889 14.6 42.6249 13.48 45.8249 13.48C48.7369 13.48 50.9769 14.168 52.5449 15.544C54.1129 16.92 54.8969 18.504 54.8969 20.296C54.8969 21.768 54.1929 22.824 52.7849 23.464L42.1289 28.312C43.4409 31.096 45.5529 32.488 48.4649 32.488C49.6809 32.488 50.7689 32.232 51.7289 31.72C52.7209 31.176 53.4569 30.504 53.9369 29.704ZM44.9609 15.592C43.7129 15.592 42.7209 16.2 41.9849 17.416C41.2489 18.6 40.8809 20.12 40.8809 21.976C40.8809 23.544 41.0409 24.92 41.3609 26.104L47.5529 22.984C48.3849 22.568 48.8009 21.816 48.8009 20.728C48.8009 19.64 48.4489 18.52 47.7449 17.368C47.0409 16.184 46.1129 15.592 44.9609 15.592ZM67.4351 37.48C65.1951 37.48 63.4191 36.776 62.1071 35.368C60.8271 33.928 60.1871 31.864 60.1871 29.176V16.744H57.9311C57.2911 16.744 56.9711 16.424 56.9711 15.784V14.968C56.9711 14.296 57.2911 13.96 57.9311 13.96H59.1311C60.4431 13.96 61.5471 13.528 62.4431 12.664C63.3711 11.8 63.9631 10.648 64.2191 9.208C64.3791 8.44 64.7471 8.056 65.3231 8.056H66.2831C66.9871 8.056 67.3391 8.44 67.3391 9.208L67.3871 13.96H72.9071C73.1631 13.96 73.3871 14.056 73.5791 14.248C73.7711 14.44 73.8671 14.68 73.8671 14.968V15.784C73.8671 16.072 73.7711 16.312 73.5791 16.504C73.3871 16.664 73.1631 16.744 72.9071 16.744H67.3871V29.272C67.3871 30.2 67.6111 30.952 68.0591 31.528C68.5391 32.072 69.1311 32.344 69.8351 32.344C71.4991 32.344 72.5871 31.624 73.0991 30.184C73.3871 29.768 73.7391 29.608 74.1551 29.704C74.6031 29.768 74.8271 30.024 74.8271 30.472C74.8271 32.328 74.1551 33.96 72.8111 35.368C71.4991 36.776 69.7071 37.48 67.4351 37.48ZM100.592 37.48C96.3362 37.48 92.8962 36.584 90.2722 34.792C87.6802 32.968 86.3842 30.984 86.3842 28.84C86.3842 27.944 86.6242 27.24 87.1042 26.728C87.5842 26.184 88.3042 25.912 89.2642 25.912C90.1282 25.944 90.8642 26.264 91.4722 26.872C92.1122 27.48 92.6562 28.216 93.1042 29.08C93.5842 29.944 94.0962 30.808 94.6402 31.672C95.1842 32.504 95.9842 33.224 97.0402 33.832C98.0962 34.44 99.3762 34.744 100.88 34.744C102.576 34.744 103.92 34.312 104.912 33.448C105.936 32.552 106.448 31.368 106.448 29.896C106.448 28.52 106.08 27.384 105.344 26.488C104.64 25.592 103.712 24.92 102.56 24.472C101.44 23.992 100.192 23.592 98.8162 23.272C97.4402 22.92 96.0642 22.52 94.6882 22.072C93.3122 21.624 92.0482 21.064 90.8962 20.392C89.7442 19.688 88.8002 18.68 88.0642 17.368C87.3602 16.024 87.0082 14.392 87.0082 12.472C87.0082 9.528 88.1442 7.128 90.4162 5.272C92.7202 3.416 95.8242 2.488 99.7282 2.488C103.568 2.488 106.752 3.352 109.28 5.08C111.84 6.776 113.104 8.68 113.072 10.792C113.072 12.776 112.048 13.768 110 13.768C109.04 13.768 108.24 13.48 107.6 12.904C106.992 12.296 106.48 11.576 106.064 10.744C105.68 9.912 105.264 9.08 104.816 8.248C104.368 7.416 103.696 6.712 102.8 6.136C101.936 5.528 100.864 5.224 99.5842 5.224C97.8242 5.224 96.4802 5.688 95.5522 6.616C94.6242 7.544 94.1602 8.728 94.1602 10.168C94.1602 11.544 94.5122 12.696 95.2162 13.624C95.9522 14.552 96.8802 15.256 98.0002 15.736C99.1522 16.216 100.416 16.648 101.792 17.032C103.168 17.384 104.544 17.8 105.92 18.28C107.296 18.728 108.544 19.288 109.664 19.96C110.816 20.632 111.744 21.624 112.448 22.936C113.184 24.248 113.552 25.832 113.552 27.688C113.552 30.696 112.304 33.08 109.808 34.84C107.312 36.6 104.24 37.48 100.592 37.48ZM125.607 37.48C123.367 37.48 121.591 36.776 120.279 35.368C118.999 33.928 118.359 31.864 118.359 29.176V16.744H116.103C115.463 16.744 115.143 16.424 115.143 15.784V14.968C115.143 14.296 115.463 13.96 116.103 13.96H117.303C118.615 13.96 119.719 13.528 120.615 12.664C121.543 11.8 122.135 10.648 122.391 9.208C122.551 8.44 122.919 8.056 123.495 8.056H124.455C125.159 8.056 125.511 8.44 125.511 9.208L125.559 13.96H131.079C131.335 13.96 131.559 14.056 131.751 14.248C131.943 14.44 132.039 14.68 132.039 14.968V15.784C132.039 16.072 131.943 16.312 131.751 16.504C131.559 16.664 131.335 16.744 131.079 16.744H125.559V29.272C125.559 30.2 125.783 30.952 126.231 31.528C126.711 32.072 127.303 32.344 128.007 32.344C129.671 32.344 130.759 31.624 131.271 30.184C131.559 29.768 131.911 29.608 132.327 29.704C132.775 29.768 132.999 30.024 132.999 30.472C132.999 32.328 132.327 33.96 130.983 35.368C129.671 36.776 127.879 37.48 125.607 37.48ZM156.504 32.2C156.6 32.936 156.776 33.528 157.032 33.976C157.32 34.424 157.608 34.712 157.896 34.84C158.184 34.936 158.44 35.064 158.664 35.224C158.888 35.384 159 35.608 159 35.896C159 36.824 157.464 37.288 154.392 37.288C152.984 37.288 151.944 37.112 151.272 36.76C150.632 36.376 150.248 35.688 150.12 34.696C148.872 36.552 146.744 37.48 143.736 37.48C141.048 37.48 138.872 36.856 137.208 35.608C135.544 34.36 134.712 32.568 134.712 30.232C134.68 27.928 135.496 26.136 137.16 24.856C138.824 23.576 140.904 22.936 143.4 22.936C145.512 22.936 147.256 23.416 148.632 24.376L148.584 23.8C148.264 20.76 147.816 18.616 147.24 17.368C146.664 16.12 145.688 15.496 144.312 15.496C143.448 15.496 142.744 15.816 142.2 16.456C141.656 17.096 141.272 17.8 141.048 18.568C140.824 19.336 140.456 20.04 139.944 20.68C139.432 21.32 138.776 21.64 137.976 21.64C137.112 21.64 136.408 21.4 135.864 20.92C135.352 20.408 135.096 19.752 135.096 18.952C135.096 17.288 135.976 15.96 137.736 14.968C139.528 13.976 141.72 13.48 144.312 13.48C147.416 13.48 149.96 14.36 151.944 16.12C153.928 17.88 155.096 20.28 155.448 23.32L156.504 32.2ZM145.848 35.368C146.904 35.368 147.752 34.936 148.392 34.072C149.032 33.176 149.32 32.168 149.256 31.048L149.112 29.368C148.984 27.992 148.568 26.936 147.864 26.2C147.192 25.464 146.344 25.096 145.32 25.096C144.296 25.096 143.448 25.464 142.776 26.2C142.136 26.936 141.816 27.912 141.816 29.128C141.816 30.856 142.184 32.328 142.92 33.544C143.688 34.76 144.664 35.368 145.848 35.368ZM175.183 13.48C176.559 13.48 177.631 13.896 178.399 14.728C179.199 15.528 179.599 16.568 179.599 17.848C179.599 20.376 178.575 21.64 176.527 21.64C175.695 21.64 175.039 21.432 174.559 21.016C174.111 20.568 173.839 20.088 173.743 19.576C173.647 19.064 173.455 18.6 173.167 18.184C172.879 17.736 172.447 17.512 171.871 17.512C171.007 17.512 170.367 18.024 169.951 19.048C169.535 20.072 169.327 21.32 169.327 22.792V32.392C169.327 32.968 169.519 33.48 169.903 33.928C170.319 34.344 170.719 34.712 171.103 35.032C171.519 35.352 171.727 35.672 171.727 35.992V36.184C171.727 36.728 171.375 37 170.671 37H161.791C161.055 37 160.687 36.728 160.687 36.184V35.992C160.687 35.672 160.991 35.176 161.599 34.504C162.239 33.832 162.559 33.128 162.559 32.392V21.16C162.559 20.392 162.191 19.704 161.455 19.096C160.719 18.488 160.351 18.024 160.351 17.704V17.512C160.351 17.064 160.687 16.68 161.359 16.36L167.119 13.672C168.143 13.192 168.655 13.512 168.655 14.632V18.232C169.743 15.064 171.919 13.48 175.183 13.48ZM190.529 37.48C188.289 37.48 186.513 36.776 185.201 35.368C183.921 33.928 183.281 31.864 183.281 29.176V16.744H181.025C180.385 16.744 180.065 16.424 180.065 15.784V14.968C180.065 14.296 180.385 13.96 181.025 13.96H182.225C183.537 13.96 184.641 13.528 185.537 12.664C186.465 11.8 187.057 10.648 187.313 9.208C187.473 8.44 187.841 8.056 188.417 8.056H189.377C190.081 8.056 190.433 8.44 190.433 9.208L190.481 13.96H196.001C196.257 13.96 196.481 14.056 196.673 14.248C196.865 14.44 196.961 14.68 196.961 14.968V15.784C196.961 16.072 196.865 16.312 196.673 16.504C196.481 16.664 196.257 16.744 196.001 16.744H190.481V29.272C190.481 30.2 190.705 30.952 191.153 31.528C191.633 32.072 192.225 32.344 192.929 32.344C194.593 32.344 195.681 31.624 196.193 30.184C196.481 29.768 196.833 29.608 197.249 29.704C197.697 29.768 197.921 30.024 197.921 30.472C197.921 32.328 197.249 33.96 195.905 35.368C194.593 36.776 192.801 37.48 190.529 37.48ZM219.031 29.704C219.319 29.32 219.671 29.192 220.087 29.32C220.503 29.448 220.695 29.752 220.663 30.232C220.503 31.896 219.543 33.528 217.783 35.128C216.023 36.696 213.735 37.48 210.919 37.48C207.527 37.48 204.743 36.36 202.567 34.12C200.391 31.88 199.303 28.936 199.303 25.288C199.303 21.864 200.439 19.048 202.711 16.84C204.983 14.6 207.719 13.48 210.919 13.48C213.831 13.48 216.071 14.168 217.639 15.544C219.207 16.92 219.991 18.504 219.991 20.296C219.991 21.768 219.287 22.824 217.879 23.464L207.223 28.312C208.535 31.096 210.647 32.488 213.559 32.488C214.775 32.488 215.863 32.232 216.823 31.72C217.815 31.176 218.551 30.504 219.031 29.704ZM210.055 15.592C208.807 15.592 207.815 16.2 207.079 17.416C206.343 18.6 205.975 20.12 205.975 21.976C205.975 23.544 206.135 24.92 206.455 26.104L212.647 22.984C213.479 22.568 213.895 21.816 213.895 20.728C213.895 19.64 213.543 18.52 212.839 17.368C212.135 16.184 211.207 15.592 210.055 15.592ZM246.593 32.392C246.593 33.128 246.913 33.848 247.553 34.552C248.193 35.224 248.513 35.72 248.513 36.04V36.184C248.513 36.728 248.193 37 247.553 37H241.601C240.865 37 240.497 36.648 240.497 35.944L240.401 34.888C238.929 36.616 236.849 37.48 234.161 37.48C231.057 37.48 228.401 36.408 226.193 34.264C223.985 32.088 222.881 29.144 222.881 25.432C222.881 21.944 223.985 19.08 226.193 16.84C228.401 14.6 231.073 13.48 234.209 13.48C236.449 13.48 238.321 14.104 239.825 15.352V7.672C239.825 7.032 239.617 6.504 239.201 6.088C238.817 5.672 238.417 5.32 238.001 5.032C237.617 4.744 237.425 4.44 237.425 4.12V3.976C237.425 3.432 237.761 3.064 238.433 2.872L244.721 0.951998C245.969 0.535997 246.593 0.855998 246.593 1.912V32.392ZM235.745 35.416C236.833 35.416 237.777 34.968 238.577 34.072C239.409 33.144 239.825 31.88 239.825 30.28V21.832C239.825 20.264 239.297 18.824 238.241 17.512C237.185 16.2 235.969 15.544 234.593 15.544C233.121 15.544 231.953 16.168 231.089 17.416C230.225 18.632 229.777 20.36 229.745 22.6C229.681 24.424 229.857 26.296 230.273 28.216C230.721 30.136 231.425 31.816 232.385 33.256C233.377 34.664 234.497 35.384 235.745 35.416ZM305.239 2.92C305.943 2.92 306.295 3.176 306.295 3.688V3.88C306.295 4.232 305.911 4.728 305.143 5.368C304.375 5.976 303.847 6.696 303.559 7.528L294.391 34.984C293.943 36.328 293.015 37 291.607 37C290.295 37 289.415 36.376 288.967 35.128L282.967 17.128L276.871 34.984C276.455 36.328 275.623 37 274.375 37C273.671 37 273.127 36.856 272.743 36.568C272.391 36.28 272.055 35.8 271.735 35.128L260.455 7.576C260.103 6.744 259.527 6.024 258.727 5.416C257.927 4.776 257.527 4.248 257.527 3.832V3.688C257.527 3.176 257.879 2.92 258.583 2.92H268.711C269.447 2.92 269.815 3.176 269.815 3.688V3.88C269.815 4.2 269.607 4.536 269.191 4.888C268.807 5.208 268.471 5.592 268.183 6.04C267.895 6.456 267.863 6.968 268.087 7.576L275.671 28.072L281.191 11.752L279.799 7.528C279.575 6.824 279.031 6.136 278.167 5.464C277.303 4.76 276.871 4.216 276.871 3.832V3.688C276.871 3.176 277.207 2.92 277.879 2.92H287.959C288.631 2.92 288.967 3.176 288.967 3.688V3.832C288.967 4.088 288.823 4.344 288.535 4.6C288.279 4.856 287.991 5.08 287.671 5.272C287.383 5.432 287.143 5.72 286.951 6.136C286.791 6.52 286.791 6.984 286.951 7.528L293.143 27.928L299.623 7.528C299.783 7.08 299.783 6.664 299.623 6.28C299.463 5.896 299.239 5.608 298.951 5.416C298.663 5.224 298.391 4.984 298.135 4.696C297.879 4.408 297.751 4.136 297.751 3.88V3.736C297.751 3.192 298.103 2.92 298.807 2.92H305.239ZM316.376 9.4C315.544 10.168 314.424 10.552 313.016 10.552C311.608 10.552 310.456 10.168 309.56 9.4C308.696 8.6 308.264 7.576 308.264 6.328C308.264 5.112 308.696 4.12 309.56 3.352C310.456 2.552 311.608 2.152 313.016 2.152C314.424 2.152 315.544 2.552 316.376 3.352C317.24 4.12 317.672 5.112 317.672 6.328C317.672 7.576 317.24 8.6 316.376 9.4ZM308.648 37C307.944 37 307.592 36.728 307.592 36.184V35.992C307.592 35.672 307.896 35.176 308.504 34.504C309.112 33.832 309.416 33.112 309.416 32.344V21.496C309.416 20.696 309.112 19.944 308.504 19.24C307.896 18.536 307.592 18.056 307.592 17.8V17.656C307.592 17.336 307.928 17 308.6 16.648L314.6 13.672C315.208 13.416 315.688 13.4 316.04 13.624C316.392 13.816 316.568 14.152 316.568 14.632V32.344C316.568 33.112 316.904 33.832 317.576 34.504C318.248 35.176 318.584 35.672 318.584 35.992V36.184C318.584 36.728 318.216 37 317.48 37H308.648ZM330.732 37.48C328.492 37.48 326.716 36.776 325.404 35.368C324.124 33.928 323.484 31.864 323.484 29.176V16.744H321.228C320.588 16.744 320.268 16.424 320.268 15.784V14.968C320.268 14.296 320.588 13.96 321.228 13.96H322.428C323.74 13.96 324.844 13.528 325.74 12.664C326.668 11.8 327.26 10.648 327.516 9.208C327.676 8.44 328.044 8.056 328.62 8.056H329.58C330.284 8.056 330.636 8.44 330.636 9.208L330.684 13.96H336.204C336.46 13.96 336.684 14.056 336.876 14.248C337.068 14.44 337.164 14.68 337.164 14.968V15.784C337.164 16.072 337.068 16.312 336.876 16.504C336.684 16.664 336.46 16.744 336.204 16.744H330.684V29.272C330.684 30.2 330.908 30.952 331.356 31.528C331.836 32.072 332.428 32.344 333.132 32.344C334.796 32.344 335.884 31.624 336.396 30.184C336.684 29.768 337.036 29.608 337.452 29.704C337.9 29.768 338.124 30.024 338.124 30.472C338.124 32.328 337.452 33.96 336.108 35.368C334.796 36.776 333.004 37.48 330.732 37.48ZM364.413 32.296C364.477 33.064 364.781 33.784 365.325 34.456C365.869 35.128 366.141 35.64 366.141 35.992V36.184C366.141 36.728 365.789 37 365.085 37H356.733C356.029 37 355.677 36.728 355.677 36.184V35.992C355.677 35.672 355.965 35.176 356.541 34.504C357.149 33.832 357.437 33.112 357.405 32.344L356.925 23.128C356.701 18.52 355.309 16.216 352.749 16.216C351.469 16.216 350.461 16.696 349.725 17.656C349.021 18.616 348.669 19.896 348.669 21.496V32.392C348.669 33.128 349.005 33.832 349.677 34.504C350.381 35.176 350.733 35.672 350.733 35.992V36.184C350.733 36.728 350.349 37 349.581 37H340.701C339.965 37 339.597 36.728 339.597 36.184V35.992C339.597 35.672 339.933 35.176 340.605 34.504C341.277 33.832 341.613 33.128 341.613 32.392V8.488C341.613 7.72 341.245 7.032 340.509 6.424C339.805 5.816 339.453 5.352 339.453 5.032V4.888C339.453 4.408 339.773 4.008 340.413 3.688L346.749 0.903998C347.293 0.679997 347.709 0.647998 347.997 0.808C348.317 0.967999 348.477 1.288 348.477 1.768L348.429 16.168C349.933 14.376 352.029 13.48 354.717 13.48C357.149 13.48 359.213 14.28 360.909 15.88C362.605 17.448 363.565 19.928 363.789 23.32L364.413 32.296ZM394.357 37.48C389.909 37.48 386.069 35.672 382.837 32.056C379.637 28.408 378.037 24.232 378.037 19.528C378.037 14.568 379.509 10.488 382.453 7.288C385.429 4.088 389.269 2.488 393.973 2.488C397.653 2.488 400.853 3.432 403.573 5.32C406.293 7.176 407.653 9.256 407.653 11.56C407.653 12.52 407.349 13.304 406.741 13.912C406.133 14.488 405.301 14.776 404.245 14.776C403.285 14.776 402.437 14.456 401.701 13.816C400.965 13.176 400.325 12.408 399.781 11.512C399.237 10.584 398.661 9.656 398.053 8.728C397.477 7.8 396.709 7.016 395.749 6.376C394.789 5.736 393.685 5.416 392.437 5.416C390.421 5.416 388.693 6.328 387.253 8.152C385.813 9.944 385.093 12.296 385.093 15.208C385.093 19.784 386.229 23.56 388.501 26.536C390.805 29.512 393.477 31 396.517 31C400.293 31 403.317 28.984 405.589 24.952C405.973 24.408 406.469 24.232 407.077 24.424C407.685 24.584 407.957 25.016 407.893 25.72C407.605 29.016 406.293 31.8 403.957 34.072C401.621 36.344 398.421 37.48 394.357 37.48ZM411.391 37C410.655 37 410.287 36.728 410.287 36.184V35.992C410.287 35.672 410.591 35.176 411.199 34.504C411.839 33.832 412.159 33.128 412.159 32.392V8.776C412.159 7.944 411.839 7.192 411.199 6.52C410.591 5.848 410.287 5.384 410.287 5.128V4.936C410.287 4.552 410.607 4.232 411.247 3.976L417.295 0.999997C417.935 0.743999 418.415 0.711999 418.735 0.903998C419.087 1.096 419.263 1.416 419.263 1.864V32.392C419.263 33.128 419.599 33.832 420.271 34.504C420.975 35.176 421.327 35.672 421.327 35.992V36.184C421.327 36.728 420.959 37 420.223 37H411.391ZM443.468 29.704C443.756 29.32 444.108 29.192 444.524 29.32C444.94 29.448 445.132 29.752 445.1 30.232C444.94 31.896 443.98 33.528 442.22 35.128C440.46 36.696 438.172 37.48 435.356 37.48C431.964 37.48 429.18 36.36 427.004 34.12C424.828 31.88 423.74 28.936 423.74 25.288C423.74 21.864 424.876 19.048 427.148 16.84C429.42 14.6 432.156 13.48 435.356 13.48C438.268 13.48 440.508 14.168 442.076 15.544C443.644 16.92 444.428 18.504 444.428 20.296C444.428 21.768 443.724 22.824 442.316 23.464L431.66 28.312C432.972 31.096 435.084 32.488 437.996 32.488C439.212 32.488 440.3 32.232 441.26 31.72C442.252 31.176 442.988 30.504 443.468 29.704ZM434.492 15.592C433.244 15.592 432.252 16.2 431.516 17.416C430.78 18.6 430.412 20.12 430.412 21.976C430.412 23.544 430.572 24.92 430.892 26.104L437.084 22.984C437.916 22.568 438.332 21.816 438.332 20.728C438.332 19.64 437.98 18.52 437.276 17.368C436.572 16.184 435.644 15.592 434.492 15.592ZM462.198 13.48C463.574 13.48 464.646 13.896 465.414 14.728C466.214 15.528 466.614 16.568 466.614 17.848C466.614 20.376 465.59 21.64 463.542 21.64C462.71 21.64 462.054 21.432 461.574 21.016C461.126 20.568 460.854 20.088 460.758 19.576C460.662 19.064 460.47 18.6 460.182 18.184C459.894 17.736 459.462 17.512 458.886 17.512C458.022 17.512 457.382 18.024 456.966 19.048C456.55 20.072 456.342 21.32 456.342 22.792V32.392C456.342 32.968 456.534 33.48 456.918 33.928C457.334 34.344 457.734 34.712 458.118 35.032C458.534 35.352 458.742 35.672 458.742 35.992V36.184C458.742 36.728 458.39 37 457.686 37H448.806C448.07 37 447.702 36.728 447.702 36.184V35.992C447.702 35.672 448.006 35.176 448.614 34.504C449.254 33.832 449.574 33.128 449.574 32.392V21.16C449.574 20.392 449.206 19.704 448.47 19.096C447.734 18.488 447.366 18.024 447.366 17.704V17.512C447.366 17.064 447.702 16.68 448.374 16.36L454.134 13.672C455.158 13.192 455.67 13.512 455.67 14.632V18.232C456.758 15.064 458.934 13.48 462.198 13.48ZM492.136 33.4C492.328 33.656 492.808 34.056 493.576 34.6C494.344 35.112 494.728 35.592 494.728 36.04V36.184C494.728 36.728 494.408 37 493.768 37H484.84C484.2 37 483.88 36.712 483.88 36.136V36.04C483.88 35.72 484.104 35.304 484.552 34.792C485.032 34.28 485.128 33.816 484.84 33.4L479.656 26.104L476.824 28.744V32.392C476.824 33.128 477.16 33.832 477.832 34.504C478.536 35.176 478.888 35.672 478.888 35.992V36.184C478.888 36.728 478.52 37 477.784 37H468.952C468.248 37 467.896 36.728 467.896 36.184V35.992C467.896 35.672 468.2 35.176 468.808 34.504C469.416 33.832 469.72 33.128 469.72 32.392V8.776C469.72 7.944 469.352 7.192 468.616 6.52C467.912 5.848 467.56 5.384 467.56 5.128V4.936C467.56 4.552 467.88 4.232 468.52 3.976L474.904 0.999997C475.48 0.743999 475.944 0.711999 476.296 0.903998C476.648 1.096 476.824 1.416 476.824 1.864V25.096L484.408 18.52C484.76 18.264 484.888 17.96 484.792 17.608C484.728 17.256 484.584 16.968 484.36 16.744C484.136 16.488 483.896 16.2 483.64 15.88C483.384 15.528 483.256 15.224 483.256 14.968V14.776C483.256 14.232 483.576 13.96 484.216 13.96H491.08C491.72 13.96 492.04 14.216 492.04 14.728V14.92C492.04 15.272 491.832 15.624 491.416 15.976C491.032 16.296 490.456 16.696 489.688 17.176C488.952 17.656 488.36 18.088 487.912 18.472L484.024 22.072L492.136 33.4ZM505.028 37.432C502.02 37.432 499.556 36.888 497.636 35.8C495.716 34.712 494.756 33.4 494.756 31.864C494.756 31 495.012 30.344 495.524 29.896C496.068 29.448 496.772 29.224 497.636 29.224C498.564 29.224 499.316 29.56 499.892 30.232C500.468 30.872 500.868 31.592 501.092 32.392C501.348 33.192 501.796 33.928 502.436 34.6C503.108 35.24 503.972 35.56 505.028 35.56C506.052 35.56 506.884 35.288 507.524 34.744C508.196 34.2 508.532 33.416 508.532 32.392C508.532 31.24 508.068 30.328 507.14 29.656C506.244 28.984 505.14 28.488 503.828 28.168C502.516 27.816 501.204 27.432 499.892 27.016C498.58 26.568 497.46 25.816 496.532 24.76C495.636 23.672 495.188 22.264 495.188 20.536C495.188 18.488 496.084 16.808 497.876 15.496C499.7 14.152 502.052 13.48 504.932 13.48C507.844 13.48 510.212 14.056 512.036 15.208C513.892 16.328 514.82 17.672 514.82 19.24C514.82 19.944 514.548 20.536 514.004 21.016C513.492 21.496 512.852 21.736 512.084 21.736C511.188 21.736 510.468 21.416 509.924 20.776C509.38 20.104 508.996 19.384 508.772 18.616C508.548 17.816 508.148 17.096 507.572 16.456C506.996 15.784 506.244 15.448 505.316 15.448C504.388 15.448 503.636 15.768 503.06 16.408C502.484 17.016 502.196 17.768 502.196 18.664C502.196 19.56 502.436 20.312 502.916 20.92C503.396 21.528 504.02 21.992 504.788 22.312C505.556 22.632 506.404 22.936 507.332 23.224C508.26 23.48 509.188 23.784 510.116 24.136C511.076 24.456 511.94 24.856 512.708 25.336C513.476 25.816 514.1 26.504 514.58 27.4C515.06 28.264 515.3 29.32 515.3 30.568C515.3 32.552 514.372 34.2 512.516 35.512C510.66 36.792 508.164 37.432 505.028 37.432ZM541.496 13.96C542.136 13.96 542.456 14.216 542.456 14.728V14.968C542.456 15.384 542.12 15.944 541.448 16.648C540.808 17.352 540.328 18.04 540.008 18.712L530.936 38.44C530.52 39.368 530.168 40.12 529.88 40.696C529.592 41.272 529.144 42.024 528.536 42.952C527.96 43.912 527.384 44.664 526.808 45.208C526.232 45.752 525.512 46.232 524.648 46.648C523.784 47.064 522.888 47.272 521.96 47.272C519.912 47.272 518.216 46.744 516.872 45.688C515.56 44.632 514.904 43.448 514.904 42.136C514.904 41.272 515.16 40.568 515.672 40.024C516.184 39.512 516.888 39.256 517.784 39.256C518.68 39.256 519.384 39.544 519.896 40.12C520.408 40.728 520.744 41.4 520.904 42.136C521.064 42.872 521.304 43.528 521.624 44.104C521.976 44.712 522.424 45.016 522.968 45.016C524.44 45.016 526.088 42.776 527.912 38.296L518.36 18.712C518.008 18.008 517.48 17.32 516.776 16.648C516.104 15.944 515.768 15.384 515.768 14.968V14.728C515.768 14.216 516.104 13.96 516.776 13.96H525.752C526.36 13.96 526.664 14.232 526.664 14.776V14.968C526.664 15.256 526.52 15.592 526.232 15.976C525.944 16.328 525.752 16.664 525.656 16.984C525.56 17.304 525.656 17.912 525.944 18.808L531.56 31.816L536.744 19.48C537.064 18.392 537.064 17.64 536.744 17.224C536.424 16.808 535.992 16.408 535.448 16.024C534.904 15.608 534.632 15.256 534.632 14.968V14.776C534.632 14.232 534.968 13.96 535.64 13.96H541.496Z" fill="#FBFAF7"/>
</svg>
