<svg width="734" height="98" viewBox="0 0 734 98" fill="none" xmlns="http://www.w3.org/2000/svg">
<path d="M1.86781 37C1.13181 37 0.763813 36.728 0.763813 36.184V36.04C0.763813 35.72 1.06781 35.224 1.67581 34.552C2.31581 33.848 2.63581 33.112 2.63581 32.344V7.576C2.63581 6.776 2.31581 6.04 1.67581 5.368C1.06781 4.696 0.763813 4.2 0.763813 3.88V3.688C0.763813 3.176 1.11581 2.92 1.81981 2.92H23.2278C24.0918 2.92 24.5878 3.368 24.7158 4.264L25.8678 9.88C26.0278 10.712 25.7078 11.128 24.9078 11.128H24.6198C24.1398 11.128 23.6118 10.856 23.0358 10.312C22.4918 9.736 21.9958 9.128 21.5478 8.488C21.1318 7.816 20.5878 7.208 19.9158 6.664C19.2758 6.088 18.6038 5.8 17.8998 5.8H11.7558C10.4758 5.8 9.83581 6.488 9.83581 7.864V18.184H16.0278C16.5718 18.184 17.0358 18.008 17.4198 17.656C17.8358 17.272 18.1398 16.872 18.3318 16.456C18.5238 16.008 18.7478 15.608 19.0038 15.256C19.2918 14.872 19.5638 14.68 19.8198 14.68H20.2038C20.7478 14.68 21.0198 15.016 21.0198 15.688V23.416C21.0198 24.088 20.7478 24.424 20.2038 24.424H19.8198C19.5638 24.424 19.2918 24.248 19.0038 23.896C18.7478 23.544 18.5238 23.176 18.3318 22.792C18.1398 22.376 17.8358 21.992 17.4198 21.64C17.0358 21.288 16.5718 21.112 16.0278 21.112H9.83581L9.78781 31.144C9.78781 31.944 9.99581 32.648 10.4118 33.256C10.8278 33.832 11.4678 34.12 12.3318 34.12H19.3878C20.0918 34.12 20.7478 33.832 21.3558 33.256C21.9958 32.68 22.4918 32.04 22.8438 31.336C23.2278 30.632 23.6918 29.992 24.2358 29.416C24.7798 28.84 25.3238 28.552 25.8678 28.552H26.2518C26.5718 28.552 26.8118 28.68 26.9718 28.936C27.1318 29.192 27.1798 29.48 27.1158 29.8L26.0598 35.608C25.8678 36.536 25.3558 37 24.5238 37H1.86781ZM69.1796 32.344C69.2436 33.112 69.5476 33.832 70.0916 34.504C70.6356 35.176 70.9076 35.688 70.9076 36.04V36.232C70.9076 36.776 70.5556 37.048 69.8516 37.048H61.5476C60.8116 37.048 60.4436 36.776 60.4436 36.232V36.04C60.4436 35.72 60.7316 35.224 61.3076 34.552C61.9156 33.88 62.1876 33.16 62.1236 32.392L61.6436 23.608C61.5156 20.952 61.1156 19.064 60.4436 17.944C59.7716 16.792 58.7796 16.216 57.4676 16.216C56.3476 16.216 55.4356 16.68 54.7316 17.608C54.0276 18.536 53.6436 19.736 53.5796 21.208C53.7076 21.848 53.7716 22.616 53.7716 23.512V32.392C53.7716 33.16 54.0436 33.88 54.5876 34.552C55.1636 35.224 55.4516 35.72 55.4516 36.04V36.232C55.4516 36.776 55.0996 37.048 54.3956 37.048H46.0916C45.3556 37.048 44.9876 36.776 44.9876 36.232V36.04C44.9876 35.72 45.2756 35.224 45.8516 34.552C46.4276 33.88 46.7156 33.16 46.7156 32.392V23.032C46.7156 20.856 46.3316 19.176 45.5636 17.992C44.7956 16.808 43.7876 16.216 42.5396 16.216C41.2596 16.216 40.2516 16.712 39.5156 17.704C38.7796 18.696 38.4116 19.976 38.4116 21.544V32.392C38.4116 33.16 38.7476 33.88 39.4196 34.552C40.1236 35.224 40.4756 35.72 40.4756 36.04V36.232C40.4756 36.776 40.1076 37.048 39.3716 37.048H30.4436C29.7076 37.048 29.3396 36.776 29.3396 36.232V36.04C29.3396 35.72 29.6756 35.224 30.3476 34.552C31.0516 33.88 31.4036 33.16 31.4036 32.392V21.208C31.4036 20.6 31.2116 20.088 30.8276 19.672C30.4436 19.256 30.0436 18.904 29.6276 18.616C29.2436 18.296 29.0516 17.976 29.0516 17.656V17.464C29.0516 17.112 29.3876 16.776 30.0596 16.456L36.1076 13.672C36.6516 13.416 37.0676 13.4 37.3556 13.624C37.6436 13.816 37.7876 14.168 37.7876 14.68V16.936C39.2916 14.632 41.4996 13.48 44.4116 13.48C48.0596 13.48 50.7156 14.92 52.3796 17.8C53.0196 16.456 53.9796 15.4 55.2596 14.632C56.5716 13.864 58.0436 13.48 59.6756 13.48C62.1076 13.48 64.1396 14.296 65.7716 15.928C67.4036 17.528 68.3476 20.152 68.6036 23.8L69.1796 32.344ZM87.3277 13.48C90.3357 13.48 92.9597 14.52 95.1997 16.6C97.4397 18.68 98.5597 21.512 98.5597 25.096C98.5597 28.712 97.4557 31.688 95.2477 34.024C93.0717 36.328 90.4477 37.48 87.3757 37.48C85.1357 37.48 83.2637 36.856 81.7597 35.608V42.76C81.7597 43.528 82.0957 44.248 82.7677 44.92C83.4397 45.592 83.7757 46.088 83.7757 46.408V46.6C83.7757 47.144 83.4077 47.416 82.6717 47.416H73.9837C73.2477 47.416 72.8797 47.144 72.8797 46.6V46.408C72.8797 46.088 73.1837 45.592 73.7917 44.92C74.4317 44.248 74.7517 43.528 74.7517 42.76V21.16C74.7517 20.456 74.3837 19.816 73.6477 19.24C72.9117 18.632 72.5437 18.152 72.5437 17.8V17.56C72.5437 17.112 72.8637 16.728 73.5037 16.408L78.8797 13.768C80.0957 13.16 80.7037 13.448 80.7037 14.632L80.6557 16.648C81.9997 14.536 84.2237 13.48 87.3277 13.48ZM86.6557 35.416C88.1917 35.416 89.3757 34.776 90.2077 33.496C91.0717 32.216 91.5037 30.376 91.5037 27.976C91.5037 24.712 90.9757 21.832 89.9197 19.336C88.8637 16.808 87.4397 15.544 85.6477 15.544C84.6557 15.544 83.7917 15.912 83.0557 16.648C82.3197 17.352 81.8877 18.28 81.7597 19.432V28.6C81.7597 30.456 82.2557 32.056 83.2477 33.4C84.2397 34.744 85.3757 35.416 86.6557 35.416ZM102.25 37C101.514 37 101.146 36.728 101.146 36.184V35.992C101.146 35.672 101.45 35.176 102.058 34.504C102.698 33.832 103.018 33.128 103.018 32.392V8.776C103.018 7.944 102.698 7.192 102.058 6.52C101.45 5.848 101.146 5.384 101.146 5.128V4.936C101.146 4.552 101.466 4.232 102.106 3.976L108.154 0.999997C108.794 0.743999 109.274 0.711999 109.594 0.903998C109.946 1.096 110.122 1.416 110.122 1.864V32.392C110.122 33.128 110.458 33.832 111.13 34.504C111.834 35.176 112.186 35.672 112.186 35.992V36.184C112.186 36.728 111.818 37 111.082 37H102.25ZM127.704 37.48C123.896 37.48 120.744 36.312 118.248 33.976C115.784 31.608 114.552 28.728 114.552 25.336C114.552 21.912 115.768 19.08 118.2 16.84C120.632 14.6 123.56 13.48 126.984 13.48C130.664 13.48 133.736 14.648 136.2 16.984C138.664 19.288 139.896 22.152 139.896 25.576C139.896 29 138.728 31.848 136.392 34.12C134.088 36.36 131.192 37.48 127.704 37.48ZM128.568 35.368C129.88 35.368 130.888 34.76 131.592 33.544C132.328 32.328 132.696 30.616 132.696 28.408C132.696 26.584 132.424 24.712 131.88 22.792C131.368 20.84 130.584 19.16 129.528 17.752C128.472 16.312 127.304 15.592 126.024 15.592C123.08 15.592 121.608 17.928 121.608 22.6C121.608 24.328 121.864 26.152 122.376 28.072C122.92 29.992 123.736 31.688 124.824 33.16C125.944 34.632 127.192 35.368 128.568 35.368ZM165.746 13.96C166.386 13.96 166.706 14.216 166.706 14.728V14.968C166.706 15.384 166.37 15.944 165.698 16.648C165.058 17.352 164.578 18.04 164.258 18.712L155.186 38.44C154.77 39.368 154.418 40.12 154.13 40.696C153.842 41.272 153.394 42.024 152.786 42.952C152.21 43.912 151.634 44.664 151.058 45.208C150.482 45.752 149.762 46.232 148.898 46.648C148.034 47.064 147.138 47.272 146.21 47.272C144.162 47.272 142.466 46.744 141.122 45.688C139.81 44.632 139.154 43.448 139.154 42.136C139.154 41.272 139.41 40.568 139.922 40.024C140.434 39.512 141.138 39.256 142.034 39.256C142.93 39.256 143.634 39.544 144.146 40.12C144.658 40.728 144.994 41.4 145.154 42.136C145.314 42.872 145.554 43.528 145.874 44.104C146.226 44.712 146.674 45.016 147.218 45.016C148.69 45.016 150.338 42.776 152.162 38.296L142.61 18.712C142.258 18.008 141.73 17.32 141.026 16.648C140.354 15.944 140.018 15.384 140.018 14.968V14.728C140.018 14.216 140.354 13.96 141.026 13.96H150.002C150.61 13.96 150.914 14.232 150.914 14.776V14.968C150.914 15.256 150.77 15.592 150.482 15.976C150.194 16.328 150.002 16.664 149.906 16.984C149.81 17.304 149.906 17.912 150.194 18.808L155.81 31.816L160.994 19.48C161.314 18.392 161.314 17.64 160.994 17.224C160.674 16.808 160.242 16.408 159.698 16.024C159.154 15.608 158.882 15.256 158.882 14.968V14.776C158.882 14.232 159.218 13.96 159.89 13.96H165.746ZM186.687 29.704C186.975 29.32 187.327 29.192 187.743 29.32C188.159 29.448 188.351 29.752 188.319 30.232C188.159 31.896 187.199 33.528 185.439 35.128C183.679 36.696 181.391 37.48 178.575 37.48C175.183 37.48 172.399 36.36 170.223 34.12C168.047 31.88 166.959 28.936 166.959 25.288C166.959 21.864 168.095 19.048 170.367 16.84C172.639 14.6 175.375 13.48 178.575 13.48C181.487 13.48 183.727 14.168 185.295 15.544C186.863 16.92 187.647 18.504 187.647 20.296C187.647 21.768 186.943 22.824 185.535 23.464L174.879 28.312C176.191 31.096 178.303 32.488 181.215 32.488C182.431 32.488 183.519 32.232 184.479 31.72C185.471 31.176 186.207 30.504 186.687 29.704ZM177.711 15.592C176.463 15.592 175.471 16.2 174.735 17.416C173.999 18.6 173.631 20.12 173.631 21.976C173.631 23.544 173.791 24.92 174.111 26.104L180.303 22.984C181.135 22.568 181.551 21.816 181.551 20.728C181.551 19.64 181.199 18.52 180.495 17.368C179.791 16.184 178.863 15.592 177.711 15.592ZM210.265 29.704C210.553 29.32 210.905 29.192 211.321 29.32C211.737 29.448 211.929 29.752 211.897 30.232C211.737 31.896 210.777 33.528 209.017 35.128C207.257 36.696 204.969 37.48 202.153 37.48C198.761 37.48 195.977 36.36 193.801 34.12C191.625 31.88 190.537 28.936 190.537 25.288C190.537 21.864 191.673 19.048 193.945 16.84C196.217 14.6 198.953 13.48 202.153 13.48C205.065 13.48 207.305 14.168 208.873 15.544C210.441 16.92 211.225 18.504 211.225 20.296C211.225 21.768 210.521 22.824 209.113 23.464L198.457 28.312C199.769 31.096 201.881 32.488 204.793 32.488C206.009 32.488 207.097 32.232 208.057 31.72C209.049 31.176 209.785 30.504 210.265 29.704ZM201.289 15.592C200.041 15.592 199.049 16.2 198.313 17.416C197.577 18.6 197.209 20.12 197.209 21.976C197.209 23.544 197.369 24.92 197.689 26.104L203.881 22.984C204.713 22.568 205.129 21.816 205.129 20.728C205.129 19.64 204.777 18.52 204.073 17.368C203.369 16.184 202.441 15.592 201.289 15.592ZM224.387 37.432C221.379 37.432 218.915 36.888 216.995 35.8C215.075 34.712 214.115 33.4 214.115 31.864C214.115 31 214.371 30.344 214.883 29.896C215.427 29.448 216.131 29.224 216.995 29.224C217.923 29.224 218.675 29.56 219.251 30.232C219.827 30.872 220.227 31.592 220.451 32.392C220.707 33.192 221.155 33.928 221.795 34.6C222.467 35.24 223.331 35.56 224.387 35.56C225.411 35.56 226.243 35.288 226.883 34.744C227.555 34.2 227.891 33.416 227.891 32.392C227.891 31.24 227.427 30.328 226.499 29.656C225.603 28.984 224.499 28.488 223.187 28.168C221.875 27.816 220.563 27.432 219.251 27.016C217.939 26.568 216.819 25.816 215.891 24.76C214.995 23.672 214.547 22.264 214.547 20.536C214.547 18.488 215.443 16.808 217.235 15.496C219.059 14.152 221.411 13.48 224.291 13.48C227.203 13.48 229.571 14.056 231.395 15.208C233.251 16.328 234.179 17.672 234.179 19.24C234.179 19.944 233.907 20.536 233.363 21.016C232.851 21.496 232.211 21.736 231.443 21.736C230.547 21.736 229.827 21.416 229.283 20.776C228.739 20.104 228.355 19.384 228.131 18.616C227.907 17.816 227.507 17.096 226.931 16.456C226.355 15.784 225.603 15.448 224.675 15.448C223.747 15.448 222.995 15.768 222.419 16.408C221.843 17.016 221.555 17.768 221.555 18.664C221.555 19.56 221.795 20.312 222.275 20.92C222.755 21.528 223.379 21.992 224.147 22.312C224.915 22.632 225.763 22.936 226.691 23.224C227.619 23.48 228.547 23.784 229.475 24.136C230.435 24.456 231.299 24.856 232.067 25.336C232.835 25.816 233.459 26.504 233.939 27.4C234.419 28.264 234.659 29.32 234.659 30.568C234.659 32.552 233.731 34.2 231.875 35.512C230.019 36.792 227.523 37.432 224.387 37.432ZM259.072 37.48C255.52 37.48 252.56 36.296 250.192 33.928C247.856 31.56 246.688 28.728 246.688 25.432C246.688 21.848 247.856 18.968 250.192 16.792C252.56 14.616 255.424 13.512 258.784 13.48C261.536 13.448 263.872 14.088 265.792 15.4C267.744 16.712 268.72 18.312 268.72 20.2C268.72 20.904 268.48 21.496 268 21.976C267.52 22.424 266.768 22.632 265.744 22.6C264.976 22.568 264.304 22.296 263.728 21.784C263.152 21.272 262.672 20.68 262.288 20.008C261.936 19.336 261.568 18.664 261.184 17.992C260.8 17.32 260.32 16.76 259.744 16.312C259.168 15.832 258.496 15.592 257.728 15.592C256.384 15.592 255.296 16.2 254.464 17.416C253.664 18.632 253.264 20.152 253.264 21.976C253.264 25.176 254 27.736 255.472 29.656C256.976 31.576 258.96 32.536 261.424 32.536C263.952 32.536 265.872 31.416 267.184 29.176C267.376 28.92 267.6 28.776 267.856 28.744C268.144 28.68 268.384 28.744 268.576 28.936C268.8 29.096 268.896 29.336 268.864 29.656C268.704 31.8 267.76 33.64 266.032 35.176C264.336 36.712 262.016 37.48 259.072 37.48ZM284.313 37.48C280.505 37.48 277.353 36.312 274.857 33.976C272.393 31.608 271.161 28.728 271.161 25.336C271.161 21.912 272.377 19.08 274.809 16.84C277.241 14.6 280.169 13.48 283.593 13.48C287.273 13.48 290.345 14.648 292.809 16.984C295.273 19.288 296.505 22.152 296.505 25.576C296.505 29 295.337 31.848 293.001 34.12C290.697 36.36 287.801 37.48 284.313 37.48ZM285.177 35.368C286.489 35.368 287.497 34.76 288.201 33.544C288.937 32.328 289.305 30.616 289.305 28.408C289.305 26.584 289.033 24.712 288.489 22.792C287.977 20.84 287.193 19.16 286.137 17.752C285.081 16.312 283.913 15.592 282.633 15.592C279.689 15.592 278.217 17.928 278.217 22.6C278.217 24.328 278.473 26.152 278.985 28.072C279.529 29.992 280.345 31.688 281.433 33.16C282.553 34.632 283.801 35.368 285.177 35.368ZM339.133 32.344C339.197 33.112 339.501 33.832 340.045 34.504C340.589 35.176 340.861 35.688 340.861 36.04V36.232C340.861 36.776 340.509 37.048 339.805 37.048H331.501C330.765 37.048 330.397 36.776 330.397 36.232V36.04C330.397 35.72 330.685 35.224 331.261 34.552C331.869 33.88 332.141 33.16 332.077 32.392L331.597 23.608C331.469 20.952 331.069 19.064 330.397 17.944C329.725 16.792 328.733 16.216 327.421 16.216C326.301 16.216 325.389 16.68 324.685 17.608C323.981 18.536 323.597 19.736 323.533 21.208C323.661 21.848 323.725 22.616 323.725 23.512V32.392C323.725 33.16 323.997 33.88 324.541 34.552C325.117 35.224 325.405 35.72 325.405 36.04V36.232C325.405 36.776 325.053 37.048 324.349 37.048H316.045C315.309 37.048 314.941 36.776 314.941 36.232V36.04C314.941 35.72 315.229 35.224 315.805 34.552C316.381 33.88 316.669 33.16 316.669 32.392V23.032C316.669 20.856 316.285 19.176 315.517 17.992C314.749 16.808 313.741 16.216 312.493 16.216C311.213 16.216 310.205 16.712 309.469 17.704C308.733 18.696 308.365 19.976 308.365 21.544V32.392C308.365 33.16 308.701 33.88 309.373 34.552C310.077 35.224 310.429 35.72 310.429 36.04V36.232C310.429 36.776 310.061 37.048 309.325 37.048H300.397C299.661 37.048 299.293 36.776 299.293 36.232V36.04C299.293 35.72 299.629 35.224 300.301 34.552C301.005 33.88 301.357 33.16 301.357 32.392V21.208C301.357 20.6 301.165 20.088 300.781 19.672C300.397 19.256 299.997 18.904 299.581 18.616C299.197 18.296 299.005 17.976 299.005 17.656V17.464C299.005 17.112 299.341 16.776 300.013 16.456L306.061 13.672C306.605 13.416 307.021 13.4 307.309 13.624C307.597 13.816 307.741 14.168 307.741 14.68V16.936C309.245 14.632 311.453 13.48 314.365 13.48C318.013 13.48 320.669 14.92 322.333 17.8C322.973 16.456 323.933 15.4 325.213 14.632C326.525 13.864 327.997 13.48 329.629 13.48C332.061 13.48 334.093 14.296 335.725 15.928C337.357 17.528 338.301 20.152 338.557 23.8L339.133 32.344ZM362.609 29.704C362.897 29.32 363.249 29.192 363.665 29.32C364.081 29.448 364.273 29.752 364.241 30.232C364.081 31.896 363.121 33.528 361.361 35.128C359.601 36.696 357.313 37.48 354.497 37.48C351.105 37.48 348.321 36.36 346.145 34.12C343.969 31.88 342.881 28.936 342.881 25.288C342.881 21.864 344.017 19.048 346.289 16.84C348.561 14.6 351.297 13.48 354.497 13.48C357.409 13.48 359.649 14.168 361.217 15.544C362.785 16.92 363.569 18.504 363.569 20.296C363.569 21.768 362.865 22.824 361.457 23.464L350.801 28.312C352.113 31.096 354.225 32.488 357.137 32.488C358.353 32.488 359.441 32.232 360.401 31.72C361.393 31.176 362.129 30.504 362.609 29.704ZM353.633 15.592C352.385 15.592 351.393 16.2 350.657 17.416C349.921 18.6 349.553 20.12 349.553 21.976C349.553 23.544 349.713 24.92 350.033 26.104L356.225 22.984C357.057 22.568 357.473 21.816 357.473 20.728C357.473 19.64 357.121 18.52 356.417 17.368C355.713 16.184 354.785 15.592 353.633 15.592ZM385.423 9.4C384.591 10.168 383.471 10.552 382.063 10.552C380.655 10.552 379.503 10.168 378.607 9.4C377.743 8.6 377.311 7.576 377.311 6.328C377.311 5.112 377.743 4.12 378.607 3.352C379.503 2.552 380.655 2.152 382.063 2.152C383.471 2.152 384.591 2.552 385.423 3.352C386.287 4.12 386.719 5.112 386.719 6.328C386.719 7.576 386.287 8.6 385.423 9.4ZM377.695 37C376.991 37 376.639 36.728 376.639 36.184V35.992C376.639 35.672 376.943 35.176 377.551 34.504C378.159 33.832 378.463 33.112 378.463 32.344V21.496C378.463 20.696 378.159 19.944 377.551 19.24C376.943 18.536 376.639 18.056 376.639 17.8V17.656C376.639 17.336 376.975 17 377.647 16.648L383.647 13.672C384.255 13.416 384.735 13.4 385.087 13.624C385.439 13.816 385.615 14.152 385.615 14.632V32.344C385.615 33.112 385.951 33.832 386.623 34.504C387.295 35.176 387.631 35.672 387.631 35.992V36.184C387.631 36.728 387.263 37 386.527 37H377.695ZM415.283 32.344C415.347 33.112 415.651 33.832 416.195 34.504C416.739 35.176 417.011 35.688 417.011 36.04V36.232C417.011 36.776 416.643 37.048 415.907 37.048H407.603C406.867 37.048 406.499 36.776 406.499 36.232V36.04C406.499 35.72 406.787 35.224 407.363 34.552C407.971 33.88 408.259 33.144 408.227 32.344L407.747 23.464C407.523 18.632 406.131 16.216 403.571 16.216C402.291 16.216 401.283 16.696 400.547 17.656C399.843 18.616 399.491 19.896 399.491 21.496V32.392C399.491 33.16 399.827 33.88 400.499 34.552C401.203 35.224 401.555 35.72 401.555 36.04V36.232C401.555 36.776 401.187 37.048 400.451 37.048H391.523C390.787 37.048 390.419 36.776 390.419 36.232V36.04C390.419 35.72 390.755 35.224 391.427 34.552C392.131 33.88 392.483 33.16 392.483 32.392V21.208C392.483 20.728 392.355 20.296 392.099 19.912C391.875 19.528 391.603 19.256 391.283 19.096C390.995 18.904 390.723 18.68 390.467 18.424C390.243 18.168 390.131 17.912 390.131 17.656V17.464C390.131 17.112 390.451 16.776 391.091 16.456L396.803 13.672C397.347 13.416 397.747 13.4 398.003 13.624C398.291 13.816 398.435 14.168 398.435 14.68V17.368C399.811 14.776 402.179 13.48 405.539 13.48C407.971 13.48 410.035 14.296 411.731 15.928C413.459 17.56 414.451 20.152 414.707 23.704L415.283 32.344ZM450.786 32.2C450.882 32.936 451.058 33.528 451.314 33.976C451.602 34.424 451.89 34.712 452.178 34.84C452.466 34.936 452.722 35.064 452.946 35.224C453.17 35.384 453.282 35.608 453.282 35.896C453.282 36.824 451.746 37.288 448.674 37.288C447.266 37.288 446.226 37.112 445.554 36.76C444.914 36.376 444.53 35.688 444.402 34.696C443.154 36.552 441.026 37.48 438.018 37.48C435.33 37.48 433.154 36.856 431.49 35.608C429.826 34.36 428.994 32.568 428.994 30.232C428.962 27.928 429.778 26.136 431.442 24.856C433.106 23.576 435.186 22.936 437.682 22.936C439.794 22.936 441.538 23.416 442.914 24.376L442.866 23.8C442.546 20.76 442.098 18.616 441.522 17.368C440.946 16.12 439.97 15.496 438.594 15.496C437.73 15.496 437.026 15.816 436.482 16.456C435.938 17.096 435.554 17.8 435.33 18.568C435.106 19.336 434.738 20.04 434.226 20.68C433.714 21.32 433.058 21.64 432.258 21.64C431.394 21.64 430.69 21.4 430.146 20.92C429.634 20.408 429.378 19.752 429.378 18.952C429.378 17.288 430.258 15.96 432.018 14.968C433.81 13.976 436.002 13.48 438.594 13.48C441.698 13.48 444.242 14.36 446.226 16.12C448.21 17.88 449.378 20.28 449.73 23.32L450.786 32.2ZM440.13 35.368C441.186 35.368 442.034 34.936 442.674 34.072C443.314 33.176 443.602 32.168 443.538 31.048L443.394 29.368C443.266 27.992 442.85 26.936 442.146 26.2C441.474 25.464 440.626 25.096 439.602 25.096C438.578 25.096 437.73 25.464 437.058 26.2C436.418 26.936 436.098 27.912 436.098 29.128C436.098 30.856 436.466 32.328 437.202 33.544C437.97 34.76 438.946 35.368 440.13 35.368ZM455.688 37C454.952 37 454.584 36.728 454.584 36.184V35.992C454.584 35.672 454.888 35.176 455.496 34.504C456.136 33.832 456.456 33.128 456.456 32.392V8.776C456.456 7.944 456.136 7.192 455.496 6.52C454.888 5.848 454.584 5.384 454.584 5.128V4.936C454.584 4.552 454.904 4.232 455.544 3.976L461.592 0.999997C462.232 0.743999 462.712 0.711999 463.032 0.903998C463.384 1.096 463.56 1.416 463.56 1.864V32.392C463.56 33.128 463.896 33.832 464.568 34.504C465.272 35.176 465.624 35.672 465.624 35.992V36.184C465.624 36.728 465.256 37 464.52 37H455.688ZM469.141 37C468.405 37 468.037 36.728 468.037 36.184V35.992C468.037 35.672 468.341 35.176 468.949 34.504C469.589 33.832 469.909 33.128 469.909 32.392V8.776C469.909 7.944 469.589 7.192 468.949 6.52C468.341 5.848 468.037 5.384 468.037 5.128V4.936C468.037 4.552 468.357 4.232 468.997 3.976L475.045 0.999997C475.685 0.743999 476.165 0.711999 476.485 0.903998C476.837 1.096 477.013 1.416 477.013 1.864V32.392C477.013 33.128 477.349 33.832 478.021 34.504C478.725 35.176 479.077 35.672 479.077 35.992V36.184C479.077 36.728 478.709 37 477.973 37H469.141ZM501.606 37.432C498.598 37.432 496.134 36.888 494.214 35.8C492.294 34.712 491.334 33.4 491.334 31.864C491.334 31 491.59 30.344 492.102 29.896C492.646 29.448 493.35 29.224 494.214 29.224C495.142 29.224 495.894 29.56 496.47 30.232C497.046 30.872 497.446 31.592 497.67 32.392C497.926 33.192 498.374 33.928 499.014 34.6C499.686 35.24 500.55 35.56 501.606 35.56C502.63 35.56 503.462 35.288 504.102 34.744C504.774 34.2 505.11 33.416 505.11 32.392C505.11 31.24 504.646 30.328 503.718 29.656C502.822 28.984 501.718 28.488 500.406 28.168C499.094 27.816 497.782 27.432 496.47 27.016C495.158 26.568 494.038 25.816 493.11 24.76C492.214 23.672 491.766 22.264 491.766 20.536C491.766 18.488 492.662 16.808 494.454 15.496C496.278 14.152 498.63 13.48 501.51 13.48C504.422 13.48 506.79 14.056 508.614 15.208C510.47 16.328 511.398 17.672 511.398 19.24C511.398 19.944 511.126 20.536 510.582 21.016C510.07 21.496 509.43 21.736 508.662 21.736C507.766 21.736 507.046 21.416 506.502 20.776C505.958 20.104 505.574 19.384 505.35 18.616C505.126 17.816 504.726 17.096 504.15 16.456C503.574 15.784 502.822 15.448 501.894 15.448C500.966 15.448 500.214 15.768 499.638 16.408C499.062 17.016 498.774 17.768 498.774 18.664C498.774 19.56 499.014 20.312 499.494 20.92C499.974 21.528 500.598 21.992 501.366 22.312C502.134 22.632 502.982 22.936 503.91 23.224C504.838 23.48 505.766 23.784 506.694 24.136C507.654 24.456 508.518 24.856 509.286 25.336C510.054 25.816 510.678 26.504 511.158 27.4C511.638 28.264 511.878 29.32 511.878 30.568C511.878 32.552 510.95 34.2 509.094 35.512C507.238 36.792 504.742 37.432 501.606 37.432ZM539.023 32.296C539.087 33.064 539.391 33.784 539.935 34.456C540.479 35.128 540.751 35.64 540.751 35.992V36.184C540.751 36.728 540.399 37 539.695 37H531.343C530.639 37 530.287 36.728 530.287 36.184V35.992C530.287 35.672 530.575 35.176 531.151 34.504C531.759 33.832 532.047 33.112 532.015 32.344L531.535 23.128C531.311 18.52 529.919 16.216 527.359 16.216C526.079 16.216 525.071 16.696 524.335 17.656C523.631 18.616 523.279 19.896 523.279 21.496V32.392C523.279 33.128 523.615 33.832 524.287 34.504C524.991 35.176 525.343 35.672 525.343 35.992V36.184C525.343 36.728 524.959 37 524.191 37H515.311C514.575 37 514.207 36.728 514.207 36.184V35.992C514.207 35.672 514.543 35.176 515.215 34.504C515.887 33.832 516.223 33.128 516.223 32.392V8.488C516.223 7.72 515.855 7.032 515.119 6.424C514.415 5.816 514.063 5.352 514.063 5.032V4.888C514.063 4.408 514.383 4.008 515.023 3.688L521.359 0.903998C521.903 0.679997 522.319 0.647998 522.607 0.808C522.927 0.967999 523.087 1.288 523.087 1.768L523.039 16.168C524.543 14.376 526.639 13.48 529.327 13.48C531.759 13.48 533.823 14.28 535.519 15.88C537.215 17.448 538.175 19.928 538.399 23.32L539.023 32.296ZM564.739 32.2C564.835 32.936 565.011 33.528 565.267 33.976C565.555 34.424 565.843 34.712 566.131 34.84C566.419 34.936 566.675 35.064 566.899 35.224C567.123 35.384 567.235 35.608 567.235 35.896C567.235 36.824 565.699 37.288 562.627 37.288C561.219 37.288 560.179 37.112 559.507 36.76C558.867 36.376 558.483 35.688 558.355 34.696C557.107 36.552 554.979 37.48 551.971 37.48C549.283 37.48 547.107 36.856 545.443 35.608C543.779 34.36 542.947 32.568 542.947 30.232C542.915 27.928 543.731 26.136 545.395 24.856C547.059 23.576 549.139 22.936 551.635 22.936C553.747 22.936 555.491 23.416 556.867 24.376L556.819 23.8C556.499 20.76 556.051 18.616 555.475 17.368C554.899 16.12 553.923 15.496 552.547 15.496C551.683 15.496 550.979 15.816 550.435 16.456C549.891 17.096 549.507 17.8 549.283 18.568C549.059 19.336 548.691 20.04 548.179 20.68C547.667 21.32 547.011 21.64 546.211 21.64C545.347 21.64 544.643 21.4 544.099 20.92C543.587 20.408 543.331 19.752 543.331 18.952C543.331 17.288 544.211 15.96 545.971 14.968C547.763 13.976 549.955 13.48 552.547 13.48C555.651 13.48 558.195 14.36 560.179 16.12C562.163 17.88 563.331 20.28 563.683 23.32L564.739 32.2ZM554.083 35.368C555.139 35.368 555.987 34.936 556.627 34.072C557.267 33.176 557.555 32.168 557.491 31.048L557.347 29.368C557.219 27.992 556.803 26.936 556.099 26.2C555.427 25.464 554.579 25.096 553.555 25.096C552.531 25.096 551.683 25.464 551.011 26.2C550.371 26.936 550.051 27.912 550.051 29.128C550.051 30.856 550.419 32.328 551.155 33.544C551.923 34.76 552.899 35.368 554.083 35.368ZM582.937 13.48C585.945 13.48 588.569 14.52 590.809 16.6C593.049 18.68 594.169 21.512 594.169 25.096C594.169 28.712 593.065 31.688 590.857 34.024C588.681 36.328 586.057 37.48 582.985 37.48C580.745 37.48 578.873 36.856 577.369 35.608V42.76C577.369 43.528 577.705 44.248 578.377 44.92C579.049 45.592 579.385 46.088 579.385 46.408V46.6C579.385 47.144 579.017 47.416 578.281 47.416H569.593C568.857 47.416 568.489 47.144 568.489 46.6V46.408C568.489 46.088 568.793 45.592 569.401 44.92C570.041 44.248 570.361 43.528 570.361 42.76V21.16C570.361 20.456 569.993 19.816 569.257 19.24C568.521 18.632 568.153 18.152 568.153 17.8V17.56C568.153 17.112 568.473 16.728 569.113 16.408L574.489 13.768C575.705 13.16 576.313 13.448 576.313 14.632L576.265 16.648C577.609 14.536 579.833 13.48 582.937 13.48ZM582.265 35.416C583.801 35.416 584.985 34.776 585.817 33.496C586.681 32.216 587.113 30.376 587.113 27.976C587.113 24.712 586.585 21.832 585.529 19.336C584.473 16.808 583.049 15.544 581.257 15.544C580.265 15.544 579.401 15.912 578.665 16.648C577.929 17.352 577.497 18.28 577.369 19.432V28.6C577.369 30.456 577.865 32.056 578.857 33.4C579.849 34.744 580.985 35.416 582.265 35.416ZM616.484 29.704C616.772 29.32 617.124 29.192 617.54 29.32C617.956 29.448 618.148 29.752 618.116 30.232C617.956 31.896 616.996 33.528 615.236 35.128C613.476 36.696 611.188 37.48 608.372 37.48C604.98 37.48 602.196 36.36 600.02 34.12C597.844 31.88 596.756 28.936 596.756 25.288C596.756 21.864 597.892 19.048 600.164 16.84C602.436 14.6 605.172 13.48 608.372 13.48C611.284 13.48 613.524 14.168 615.092 15.544C616.66 16.92 617.444 18.504 617.444 20.296C617.444 21.768 616.74 22.824 615.332 23.464L604.676 28.312C605.988 31.096 608.1 32.488 611.012 32.488C612.228 32.488 613.316 32.232 614.276 31.72C615.268 31.176 616.004 30.504 616.484 29.704ZM607.508 15.592C606.26 15.592 605.268 16.2 604.532 17.416C603.796 18.6 603.428 20.12 603.428 21.976C603.428 23.544 603.588 24.92 603.908 26.104L610.1 22.984C610.932 22.568 611.348 21.816 611.348 20.728C611.348 19.64 610.996 18.52 610.292 17.368C609.588 16.184 608.66 15.592 607.508 15.592ZM630.606 37.432C627.598 37.432 625.134 36.888 623.214 35.8C621.294 34.712 620.334 33.4 620.334 31.864C620.334 31 620.59 30.344 621.102 29.896C621.646 29.448 622.35 29.224 623.214 29.224C624.142 29.224 624.894 29.56 625.47 30.232C626.046 30.872 626.446 31.592 626.67 32.392C626.926 33.192 627.374 33.928 628.014 34.6C628.686 35.24 629.55 35.56 630.606 35.56C631.63 35.56 632.462 35.288 633.102 34.744C633.774 34.2 634.11 33.416 634.11 32.392C634.11 31.24 633.646 30.328 632.718 29.656C631.822 28.984 630.718 28.488 629.406 28.168C628.094 27.816 626.782 27.432 625.47 27.016C624.158 26.568 623.038 25.816 622.11 24.76C621.214 23.672 620.766 22.264 620.766 20.536C620.766 18.488 621.662 16.808 623.454 15.496C625.278 14.152 627.63 13.48 630.51 13.48C633.422 13.48 635.79 14.056 637.614 15.208C639.47 16.328 640.398 17.672 640.398 19.24C640.398 19.944 640.126 20.536 639.582 21.016C639.07 21.496 638.43 21.736 637.662 21.736C636.766 21.736 636.046 21.416 635.502 20.776C634.958 20.104 634.574 19.384 634.35 18.616C634.126 17.816 633.726 17.096 633.15 16.456C632.574 15.784 631.822 15.448 630.894 15.448C629.966 15.448 629.214 15.768 628.638 16.408C628.062 17.016 627.774 17.768 627.774 18.664C627.774 19.56 628.014 20.312 628.494 20.92C628.974 21.528 629.598 21.992 630.366 22.312C631.134 22.632 631.982 22.936 632.91 23.224C633.838 23.48 634.766 23.784 635.694 24.136C636.654 24.456 637.518 24.856 638.286 25.336C639.054 25.816 639.678 26.504 640.158 27.4C640.638 28.264 640.878 29.32 640.878 30.568C640.878 32.552 639.95 34.2 638.094 35.512C636.238 36.792 633.742 37.432 630.606 37.432ZM675.082 32.2C675.178 32.936 675.354 33.528 675.61 33.976C675.898 34.424 676.186 34.712 676.474 34.84C676.762 34.936 677.018 35.064 677.242 35.224C677.466 35.384 677.578 35.608 677.578 35.896C677.578 36.824 676.042 37.288 672.97 37.288C671.562 37.288 670.522 37.112 669.85 36.76C669.21 36.376 668.826 35.688 668.698 34.696C667.45 36.552 665.322 37.48 662.314 37.48C659.626 37.48 657.45 36.856 655.786 35.608C654.122 34.36 653.29 32.568 653.29 30.232C653.258 27.928 654.074 26.136 655.738 24.856C657.402 23.576 659.482 22.936 661.978 22.936C664.09 22.936 665.834 23.416 667.21 24.376L667.162 23.8C666.842 20.76 666.394 18.616 665.818 17.368C665.242 16.12 664.266 15.496 662.89 15.496C662.026 15.496 661.322 15.816 660.778 16.456C660.234 17.096 659.85 17.8 659.626 18.568C659.402 19.336 659.034 20.04 658.522 20.68C658.01 21.32 657.354 21.64 656.554 21.64C655.69 21.64 654.986 21.4 654.442 20.92C653.93 20.408 653.674 19.752 653.674 18.952C653.674 17.288 654.554 15.96 656.314 14.968C658.106 13.976 660.298 13.48 662.89 13.48C665.994 13.48 668.538 14.36 670.522 16.12C672.506 17.88 673.674 20.28 674.026 23.32L675.082 32.2ZM664.426 35.368C665.482 35.368 666.33 34.936 666.97 34.072C667.61 33.176 667.898 32.168 667.834 31.048L667.69 29.368C667.562 27.992 667.146 26.936 666.442 26.2C665.77 25.464 664.922 25.096 663.898 25.096C662.874 25.096 662.026 25.464 661.354 26.2C660.714 26.936 660.394 27.912 660.394 29.128C660.394 30.856 660.762 32.328 661.498 33.544C662.266 34.76 663.242 35.368 664.426 35.368ZM704.033 32.344C704.097 33.112 704.401 33.832 704.945 34.504C705.489 35.176 705.761 35.688 705.761 36.04V36.232C705.761 36.776 705.393 37.048 704.657 37.048H696.353C695.617 37.048 695.249 36.776 695.249 36.232V36.04C695.249 35.72 695.537 35.224 696.113 34.552C696.721 33.88 697.009 33.144 696.977 32.344L696.497 23.464C696.273 18.632 694.881 16.216 692.321 16.216C691.041 16.216 690.033 16.696 689.297 17.656C688.593 18.616 688.241 19.896 688.241 21.496V32.392C688.241 33.16 688.577 33.88 689.249 34.552C689.953 35.224 690.305 35.72 690.305 36.04V36.232C690.305 36.776 689.937 37.048 689.201 37.048H680.273C679.537 37.048 679.169 36.776 679.169 36.232V36.04C679.169 35.72 679.505 35.224 680.177 34.552C680.881 33.88 681.233 33.16 681.233 32.392V21.208C681.233 20.728 681.105 20.296 680.849 19.912C680.625 19.528 680.353 19.256 680.033 19.096C679.745 18.904 679.473 18.68 679.217 18.424C678.993 18.168 678.881 17.912 678.881 17.656V17.464C678.881 17.112 679.201 16.776 679.841 16.456L685.553 13.672C686.097 13.416 686.497 13.4 686.753 13.624C687.041 13.816 687.185 14.168 687.185 14.68V17.368C688.561 14.776 690.929 13.48 694.289 13.48C696.721 13.48 698.785 14.296 700.481 15.928C702.209 17.56 703.201 20.152 703.457 23.704L704.033 32.344ZM731.468 32.392C731.468 33.128 731.788 33.848 732.428 34.552C733.068 35.224 733.388 35.72 733.388 36.04V36.184C733.388 36.728 733.068 37 732.428 37H726.476C725.74 37 725.372 36.648 725.372 35.944L725.276 34.888C723.804 36.616 721.724 37.48 719.036 37.48C715.932 37.48 713.276 36.408 711.068 34.264C708.86 32.088 707.756 29.144 707.756 25.432C707.756 21.944 708.86 19.08 711.068 16.84C713.276 14.6 715.948 13.48 719.084 13.48C721.324 13.48 723.196 14.104 724.7 15.352V7.672C724.7 7.032 724.492 6.504 724.076 6.088C723.692 5.672 723.292 5.32 722.876 5.032C722.492 4.744 722.3 4.44 722.3 4.12V3.976C722.3 3.432 722.636 3.064 723.308 2.872L729.596 0.951998C730.844 0.535997 731.468 0.855998 731.468 1.912V32.392ZM720.62 35.416C721.708 35.416 722.652 34.968 723.452 34.072C724.284 33.144 724.7 31.88 724.7 30.28V21.832C724.7 20.264 724.172 18.824 723.116 17.512C722.06 16.2 720.844 15.544 719.468 15.544C717.996 15.544 716.828 16.168 715.964 17.416C715.1 18.632 714.652 20.36 714.62 22.6C714.556 24.424 714.732 26.296 715.148 28.216C715.596 30.136 716.3 31.816 717.26 33.256C718.252 34.664 719.372 35.384 720.62 35.416ZM128.575 91.432C125.567 91.432 123.103 90.888 121.183 89.8C119.263 88.712 118.303 87.4 118.303 85.864C118.303 85 118.559 84.344 119.071 83.896C119.615 83.448 120.319 83.224 121.183 83.224C122.111 83.224 122.863 83.56 123.439 84.232C124.015 84.872 124.415 85.592 124.639 86.392C124.895 87.192 125.343 87.928 125.983 88.6C126.655 89.24 127.519 89.56 128.575 89.56C129.599 89.56 130.431 89.288 131.071 88.744C131.743 88.2 132.079 87.416 132.079 86.392C132.079 85.24 131.615 84.328 130.687 83.656C129.791 82.984 128.687 82.488 127.375 82.168C126.063 81.816 124.751 81.432 123.439 81.016C122.127 80.568 121.007 79.816 120.079 78.76C119.183 77.672 118.735 76.264 118.735 74.536C118.735 72.488 119.631 70.808 121.423 69.496C123.247 68.152 125.599 67.48 128.479 67.48C131.391 67.48 133.759 68.056 135.583 69.208C137.439 70.328 138.367 71.672 138.367 73.24C138.367 73.944 138.095 74.536 137.551 75.016C137.039 75.496 136.399 75.736 135.631 75.736C134.735 75.736 134.015 75.416 133.471 74.776C132.927 74.104 132.543 73.384 132.319 72.616C132.095 71.816 131.695 71.096 131.119 70.456C130.543 69.784 129.791 69.448 128.863 69.448C127.935 69.448 127.183 69.768 126.607 70.408C126.031 71.016 125.743 71.768 125.743 72.664C125.743 73.56 125.983 74.312 126.463 74.92C126.943 75.528 127.567 75.992 128.335 76.312C129.103 76.632 129.951 76.936 130.879 77.224C131.807 77.48 132.735 77.784 133.663 78.136C134.623 78.456 135.487 78.856 136.255 79.336C137.023 79.816 137.647 80.504 138.127 81.4C138.607 82.264 138.847 83.32 138.847 84.568C138.847 86.552 137.919 88.2 136.063 89.512C134.207 90.792 131.711 91.432 128.575 91.432ZM150.391 63.4C149.559 64.168 148.439 64.552 147.031 64.552C145.623 64.552 144.471 64.168 143.575 63.4C142.711 62.6 142.279 61.576 142.279 60.328C142.279 59.112 142.711 58.12 143.575 57.352C144.471 56.552 145.623 56.152 147.031 56.152C148.439 56.152 149.559 56.552 150.391 57.352C151.255 58.12 151.687 59.112 151.687 60.328C151.687 61.576 151.255 62.6 150.391 63.4ZM142.663 91C141.959 91 141.607 90.728 141.607 90.184V89.992C141.607 89.672 141.911 89.176 142.519 88.504C143.127 87.832 143.431 87.112 143.431 86.344V75.496C143.431 74.696 143.127 73.944 142.519 73.24C141.911 72.536 141.607 72.056 141.607 71.8V71.656C141.607 71.336 141.943 71 142.615 70.648L148.615 67.672C149.223 67.416 149.703 67.4 150.055 67.624C150.407 67.816 150.583 68.152 150.583 68.632V86.344C150.583 87.112 150.919 87.832 151.591 88.504C152.263 89.176 152.599 89.672 152.599 89.992V90.184C152.599 90.728 152.231 91 151.495 91H142.663ZM176.508 83.752C177.34 83.752 177.644 84.216 177.42 85.144L176.028 89.896C175.804 90.632 175.404 91 174.828 91H156.108C155.82 91 155.548 90.904 155.292 90.712C155.068 90.488 154.956 90.232 154.956 89.944V89.464C154.956 89.144 155.26 88.552 155.868 87.688L168.108 69.88H162.492C161.66 69.88 160.876 70.296 160.14 71.128C159.436 71.928 158.764 72.744 158.124 73.576C157.516 74.376 156.892 74.776 156.252 74.776H155.964C155.548 74.776 155.26 74.632 155.1 74.344C154.94 74.024 154.94 73.64 155.1 73.192L156.3 69.304C156.492 68.792 156.684 68.44 156.876 68.248C157.068 68.056 157.388 67.96 157.836 67.96H175.02C175.34 67.96 175.596 68.056 175.788 68.248C175.98 68.44 176.076 68.664 176.076 68.92V69.4C176.076 69.656 175.66 70.408 174.828 71.656L162.732 89.08H169.308C170.076 89.08 170.812 88.808 171.516 88.264C172.22 87.688 172.78 87.08 173.196 86.44C173.644 85.768 174.14 85.16 174.684 84.616C175.228 84.04 175.74 83.752 176.22 83.752H176.508ZM198.593 83.704C198.881 83.32 199.233 83.192 199.649 83.32C200.065 83.448 200.257 83.752 200.225 84.232C200.065 85.896 199.105 87.528 197.345 89.128C195.585 90.696 193.297 91.48 190.481 91.48C187.089 91.48 184.305 90.36 182.129 88.12C179.953 85.88 178.865 82.936 178.865 79.288C178.865 75.864 180.001 73.048 182.273 70.84C184.545 68.6 187.281 67.48 190.481 67.48C193.393 67.48 195.633 68.168 197.201 69.544C198.769 70.92 199.553 72.504 199.553 74.296C199.553 75.768 198.849 76.824 197.441 77.464L186.785 82.312C188.097 85.096 190.209 86.488 193.121 86.488C194.337 86.488 195.425 86.232 196.385 85.72C197.377 85.176 198.113 84.504 198.593 83.704ZM189.617 69.592C188.369 69.592 187.377 70.2 186.641 71.416C185.905 72.6 185.537 74.12 185.537 75.976C185.537 77.544 185.697 78.92 186.017 80.104L192.209 76.984C193.041 76.568 193.457 75.816 193.457 74.728C193.457 73.64 193.105 72.52 192.401 71.368C191.697 70.184 190.769 69.592 189.617 69.592ZM212.715 91.432C209.707 91.432 207.243 90.888 205.323 89.8C203.403 88.712 202.443 87.4 202.443 85.864C202.443 85 202.699 84.344 203.211 83.896C203.755 83.448 204.459 83.224 205.323 83.224C206.251 83.224 207.003 83.56 207.579 84.232C208.155 84.872 208.555 85.592 208.779 86.392C209.035 87.192 209.483 87.928 210.123 88.6C210.795 89.24 211.659 89.56 212.715 89.56C213.739 89.56 214.571 89.288 215.211 88.744C215.883 88.2 216.219 87.416 216.219 86.392C216.219 85.24 215.755 84.328 214.827 83.656C213.931 82.984 212.827 82.488 211.515 82.168C210.203 81.816 208.891 81.432 207.579 81.016C206.267 80.568 205.147 79.816 204.219 78.76C203.323 77.672 202.875 76.264 202.875 74.536C202.875 72.488 203.771 70.808 205.563 69.496C207.387 68.152 209.739 67.48 212.619 67.48C215.531 67.48 217.899 68.056 219.723 69.208C221.579 70.328 222.507 71.672 222.507 73.24C222.507 73.944 222.235 74.536 221.691 75.016C221.179 75.496 220.539 75.736 219.771 75.736C218.875 75.736 218.155 75.416 217.611 74.776C217.067 74.104 216.683 73.384 216.459 72.616C216.235 71.816 215.835 71.096 215.259 70.456C214.683 69.784 213.931 69.448 213.003 69.448C212.075 69.448 211.323 69.768 210.747 70.408C210.171 71.016 209.883 71.768 209.883 72.664C209.883 73.56 210.123 74.312 210.603 74.92C211.083 75.528 211.707 75.992 212.475 76.312C213.243 76.632 214.091 76.936 215.019 77.224C215.947 77.48 216.875 77.784 217.803 78.136C218.763 78.456 219.627 78.856 220.395 79.336C221.163 79.816 221.787 80.504 222.267 81.4C222.747 82.264 222.987 83.32 222.987 84.568C222.987 86.552 222.059 88.2 220.203 89.512C218.347 90.792 215.851 91.432 212.715 91.432ZM230.308 91.48C229.028 91.48 227.972 91.144 227.14 90.472C226.308 89.768 225.892 88.776 225.892 87.496C225.892 86.216 226.308 85.24 227.14 84.568C227.972 83.864 229.028 83.512 230.308 83.512C231.556 83.512 232.596 83.864 233.428 84.568C234.26 85.24 234.676 86.216 234.676 87.496C234.676 88.776 234.26 89.768 233.428 90.472C232.596 91.144 231.556 91.48 230.308 91.48ZM249.602 91C248.866 91 248.498 90.728 248.498 90.184V90.04C248.498 89.72 248.802 89.224 249.41 88.552C250.05 87.848 250.37 87.128 250.37 86.392V61.528C250.37 60.76 250.05 60.04 249.41 59.368C248.802 58.696 248.498 58.2 248.498 57.88V57.688C248.498 57.176 248.85 56.92 249.554 56.92H271.298C272.162 56.92 272.658 57.384 272.786 58.312L273.938 63.928C274.098 64.76 273.762 65.176 272.93 65.176H272.69C272.21 65.176 271.682 64.904 271.106 64.36C270.562 63.784 270.066 63.176 269.618 62.536C269.202 61.864 268.658 61.256 267.986 60.712C267.314 60.136 266.626 59.848 265.922 59.848H259.586C258.338 59.848 257.714 60.52 257.714 61.864V73.576H264.146C264.594 73.576 265.01 73.4 265.394 73.048C265.81 72.664 266.13 72.248 266.354 71.8C266.578 71.352 266.834 70.952 267.122 70.6C267.41 70.216 267.698 70.024 267.986 70.024H268.37C268.914 70.024 269.186 70.376 269.186 71.08V78.808C269.186 79.48 268.914 79.816 268.37 79.816H267.986C267.698 79.816 267.41 79.64 267.122 79.288C266.834 78.936 266.578 78.552 266.354 78.136C266.13 77.72 265.81 77.336 265.394 76.984C265.01 76.632 264.594 76.456 264.146 76.456H257.714V86.392C257.714 87.128 258.05 87.848 258.722 88.552C259.426 89.224 259.778 89.72 259.778 90.04V90.184C259.778 90.728 259.394 91 258.626 91H249.602ZM284.454 63.4C283.622 64.168 282.502 64.552 281.094 64.552C279.686 64.552 278.534 64.168 277.638 63.4C276.774 62.6 276.342 61.576 276.342 60.328C276.342 59.112 276.774 58.12 277.638 57.352C278.534 56.552 279.686 56.152 281.094 56.152C282.502 56.152 283.622 56.552 284.454 57.352C285.318 58.12 285.75 59.112 285.75 60.328C285.75 61.576 285.318 62.6 284.454 63.4ZM276.726 91C276.022 91 275.67 90.728 275.67 90.184V89.992C275.67 89.672 275.974 89.176 276.582 88.504C277.19 87.832 277.494 87.112 277.494 86.344V75.496C277.494 74.696 277.19 73.944 276.582 73.24C275.974 72.536 275.67 72.056 275.67 71.8V71.656C275.67 71.336 276.006 71 276.678 70.648L282.678 67.672C283.286 67.416 283.766 67.4 284.118 67.624C284.47 67.816 284.646 68.152 284.646 68.632V86.344C284.646 87.112 284.982 87.832 285.654 88.504C286.326 89.176 286.662 89.672 286.662 89.992V90.184C286.662 90.728 286.294 91 285.558 91H276.726ZM314.314 86.344C314.378 87.112 314.682 87.832 315.226 88.504C315.77 89.176 316.042 89.688 316.042 90.04V90.232C316.042 90.776 315.674 91.048 314.938 91.048H306.634C305.898 91.048 305.53 90.776 305.53 90.232V90.04C305.53 89.72 305.818 89.224 306.394 88.552C307.002 87.88 307.29 87.144 307.258 86.344L306.778 77.464C306.554 72.632 305.162 70.216 302.602 70.216C301.322 70.216 300.314 70.696 299.578 71.656C298.874 72.616 298.522 73.896 298.522 75.496V86.392C298.522 87.16 298.858 87.88 299.53 88.552C300.234 89.224 300.586 89.72 300.586 90.04V90.232C300.586 90.776 300.218 91.048 299.482 91.048H290.554C289.818 91.048 289.45 90.776 289.45 90.232V90.04C289.45 89.72 289.786 89.224 290.458 88.552C291.162 87.88 291.514 87.16 291.514 86.392V75.208C291.514 74.728 291.386 74.296 291.13 73.912C290.906 73.528 290.634 73.256 290.314 73.096C290.026 72.904 289.754 72.68 289.498 72.424C289.274 72.168 289.162 71.912 289.162 71.656V71.464C289.162 71.112 289.482 70.776 290.122 70.456L295.834 67.672C296.378 67.416 296.778 67.4 297.034 67.624C297.322 67.816 297.466 68.168 297.466 68.68V71.368C298.842 68.776 301.21 67.48 304.57 67.48C307.002 67.48 309.066 68.296 310.762 69.928C312.49 71.56 313.482 74.152 313.738 77.704L314.314 86.344ZM341.749 86.392C341.749 87.128 342.069 87.848 342.709 88.552C343.349 89.224 343.669 89.72 343.669 90.04V90.184C343.669 90.728 343.349 91 342.709 91H336.757C336.021 91 335.653 90.648 335.653 89.944L335.557 88.888C334.085 90.616 332.005 91.48 329.317 91.48C326.213 91.48 323.557 90.408 321.349 88.264C319.141 86.088 318.037 83.144 318.037 79.432C318.037 75.944 319.141 73.08 321.349 70.84C323.557 68.6 326.229 67.48 329.365 67.48C331.605 67.48 333.477 68.104 334.981 69.352V61.672C334.981 61.032 334.773 60.504 334.357 60.088C333.973 59.672 333.573 59.32 333.157 59.032C332.773 58.744 332.581 58.44 332.581 58.12V57.976C332.581 57.432 332.917 57.064 333.589 56.872L339.877 54.952C341.125 54.536 341.749 54.856 341.749 55.912V86.392ZM330.901 89.416C331.989 89.416 332.933 88.968 333.733 88.072C334.565 87.144 334.981 85.88 334.981 84.28V75.832C334.981 74.264 334.453 72.824 333.397 71.512C332.341 70.2 331.125 69.544 329.749 69.544C328.277 69.544 327.109 70.168 326.245 71.416C325.381 72.632 324.933 74.36 324.901 76.6C324.837 78.424 325.013 80.296 325.429 82.216C325.877 84.136 326.581 85.816 327.541 87.256C328.533 88.664 329.653 89.384 330.901 89.416ZM365.279 91.48C363.039 91.48 361.263 90.776 359.951 89.368C358.671 87.928 358.031 85.864 358.031 83.176V70.744H355.775C355.135 70.744 354.815 70.424 354.815 69.784V68.968C354.815 68.296 355.135 67.96 355.775 67.96H356.975C358.287 67.96 359.391 67.528 360.287 66.664C361.215 65.8 361.807 64.648 362.063 63.208C362.223 62.44 362.591 62.056 363.167 62.056H364.127C364.831 62.056 365.183 62.44 365.183 63.208L365.231 67.96H370.751C371.007 67.96 371.231 68.056 371.423 68.248C371.615 68.44 371.711 68.68 371.711 68.968V69.784C371.711 70.072 371.615 70.312 371.423 70.504C371.231 70.664 371.007 70.744 370.751 70.744H365.231V83.272C365.231 84.2 365.455 84.952 365.903 85.528C366.383 86.072 366.975 86.344 367.679 86.344C369.343 86.344 370.431 85.624 370.943 84.184C371.231 83.768 371.583 83.608 371.999 83.704C372.447 83.768 372.671 84.024 372.671 84.472C372.671 86.328 371.999 87.96 370.655 89.368C369.343 90.776 367.551 91.48 365.279 91.48ZM398.96 86.296C399.024 87.064 399.328 87.784 399.872 88.456C400.416 89.128 400.688 89.64 400.688 89.992V90.184C400.688 90.728 400.336 91 399.632 91H391.28C390.576 91 390.224 90.728 390.224 90.184V89.992C390.224 89.672 390.512 89.176 391.088 88.504C391.696 87.832 391.984 87.112 391.952 86.344L391.472 77.128C391.248 72.52 389.856 70.216 387.296 70.216C386.016 70.216 385.008 70.696 384.272 71.656C383.568 72.616 383.216 73.896 383.216 75.496V86.392C383.216 87.128 383.552 87.832 384.224 88.504C384.928 89.176 385.28 89.672 385.28 89.992V90.184C385.28 90.728 384.896 91 384.128 91H375.248C374.512 91 374.144 90.728 374.144 90.184V89.992C374.144 89.672 374.48 89.176 375.152 88.504C375.824 87.832 376.16 87.128 376.16 86.392V62.488C376.16 61.72 375.792 61.032 375.056 60.424C374.352 59.816 374 59.352 374 59.032V58.888C374 58.408 374.32 58.008 374.96 57.688L381.296 54.904C381.84 54.68 382.256 54.648 382.544 54.808C382.864 54.968 383.024 55.288 383.024 55.768L382.976 70.168C384.48 68.376 386.576 67.48 389.264 67.48C391.696 67.48 393.76 68.28 395.456 69.88C397.152 71.448 398.112 73.928 398.336 77.32L398.96 86.296ZM422.468 83.704C422.756 83.32 423.108 83.192 423.524 83.32C423.94 83.448 424.132 83.752 424.1 84.232C423.94 85.896 422.98 87.528 421.22 89.128C419.46 90.696 417.172 91.48 414.356 91.48C410.964 91.48 408.18 90.36 406.004 88.12C403.828 85.88 402.74 82.936 402.74 79.288C402.74 75.864 403.876 73.048 406.148 70.84C408.42 68.6 411.156 67.48 414.356 67.48C417.268 67.48 419.508 68.168 421.076 69.544C422.644 70.92 423.428 72.504 423.428 74.296C423.428 75.768 422.724 76.824 421.316 77.464L410.66 82.312C411.972 85.096 414.084 86.488 416.996 86.488C418.212 86.488 419.3 86.232 420.26 85.72C421.252 85.176 421.988 84.504 422.468 83.704ZM413.492 69.592C412.244 69.592 411.252 70.2 410.516 71.416C409.78 72.6 409.412 74.12 409.412 75.976C409.412 77.544 409.572 78.92 409.892 80.104L416.084 76.984C416.916 76.568 417.332 75.816 417.332 74.728C417.332 73.64 416.98 72.52 416.276 71.368C415.572 70.184 414.644 69.592 413.492 69.592ZM451.042 67.48C452.418 67.48 453.49 67.896 454.258 68.728C455.058 69.528 455.458 70.568 455.458 71.848C455.458 74.376 454.434 75.64 452.386 75.64C451.554 75.64 450.898 75.432 450.418 75.016C449.97 74.568 449.698 74.088 449.602 73.576C449.506 73.064 449.314 72.6 449.026 72.184C448.738 71.736 448.306 71.512 447.73 71.512C446.866 71.512 446.226 72.024 445.81 73.048C445.394 74.072 445.186 75.32 445.186 76.792V86.392C445.186 86.968 445.378 87.48 445.762 87.928C446.178 88.344 446.578 88.712 446.962 89.032C447.378 89.352 447.586 89.672 447.586 89.992V90.184C447.586 90.728 447.234 91 446.53 91H437.65C436.914 91 436.546 90.728 436.546 90.184V89.992C436.546 89.672 436.85 89.176 437.458 88.504C438.098 87.832 438.418 87.128 438.418 86.392V75.16C438.418 74.392 438.05 73.704 437.314 73.096C436.578 72.488 436.21 72.024 436.21 71.704V71.512C436.21 71.064 436.546 70.68 437.218 70.36L442.978 67.672C444.002 67.192 444.514 67.512 444.514 68.632V72.232C445.602 69.064 447.778 67.48 451.042 67.48ZM465.86 63.4C465.028 64.168 463.908 64.552 462.5 64.552C461.092 64.552 459.94 64.168 459.044 63.4C458.18 62.6 457.748 61.576 457.748 60.328C457.748 59.112 458.18 58.12 459.044 57.352C459.94 56.552 461.092 56.152 462.5 56.152C463.908 56.152 465.028 56.552 465.86 57.352C466.724 58.12 467.156 59.112 467.156 60.328C467.156 61.576 466.724 62.6 465.86 63.4ZM458.132 91C457.428 91 457.076 90.728 457.076 90.184V89.992C457.076 89.672 457.38 89.176 457.988 88.504C458.596 87.832 458.9 87.112 458.9 86.344V75.496C458.9 74.696 458.596 73.944 457.988 73.24C457.38 72.536 457.076 72.056 457.076 71.8V71.656C457.076 71.336 457.412 71 458.084 70.648L464.084 67.672C464.692 67.416 465.172 67.4 465.524 67.624C465.876 67.816 466.052 68.152 466.052 68.632V86.344C466.052 87.112 466.388 87.832 467.06 88.504C467.732 89.176 468.068 89.672 468.068 89.992V90.184C468.068 90.728 467.7 91 466.964 91H458.132ZM491.592 67.96C492.808 67.96 493.608 68.088 493.992 68.344C494.408 68.568 494.536 68.92 494.376 69.4C494.28 69.88 494.072 70.232 493.752 70.456C493.432 70.648 492.888 70.808 492.12 70.936C491.352 71.064 490.888 71.16 490.728 71.224C492.52 73.08 493.416 75.128 493.416 77.368C493.416 79.224 492.936 80.888 491.976 82.36C491.048 83.8 489.736 84.92 488.04 85.72C491.88 86.584 493.8 88.408 493.8 91.192C493.8 93.208 492.648 94.824 490.344 96.04C488.072 97.288 485.208 97.912 481.752 97.912C478.296 97.912 475.56 97.288 473.544 96.04C471.56 94.792 470.568 93.208 470.568 91.288C470.568 90.552 470.808 89.928 471.288 89.416C471.768 88.872 472.472 88.6 473.4 88.6C474.264 88.6 475 88.984 475.608 89.752C476.216 90.488 476.68 91.304 477 92.2C477.352 93.128 477.944 93.96 478.776 94.696C479.608 95.464 480.648 95.864 481.896 95.896C483.368 95.896 484.536 95.48 485.4 94.648C486.296 93.816 486.744 92.728 486.744 91.384C486.744 88.856 485.752 87.384 483.768 86.968C482.936 87.032 482.312 87.064 481.896 87.064C478.664 87.064 475.976 86.168 473.832 84.376C471.72 82.552 470.664 80.28 470.664 77.56C470.664 74.552 471.72 72.12 473.832 70.264C475.944 68.408 478.68 67.48 482.04 67.48C482.904 67.48 484.264 67.56 486.12 67.72C487.976 67.88 489.8 67.96 491.592 67.96ZM477.432 74.392C477.432 77.016 477.976 79.432 479.064 81.64C480.184 83.816 481.48 84.904 482.952 84.904C484.072 84.904 484.952 84.472 485.592 83.608C486.264 82.712 486.6 81.544 486.6 80.104C486.6 78.536 486.376 76.952 485.928 75.352C485.48 73.752 484.808 72.392 483.912 71.272C483.016 70.152 482.04 69.592 480.984 69.592C479.896 69.592 479.032 70.024 478.392 70.888C477.752 71.752 477.432 72.92 477.432 74.392ZM521.538 86.296C521.602 87.064 521.906 87.784 522.45 88.456C522.994 89.128 523.266 89.64 523.266 89.992V90.184C523.266 90.728 522.914 91 522.21 91H513.858C513.154 91 512.802 90.728 512.802 90.184V89.992C512.802 89.672 513.09 89.176 513.666 88.504C514.274 87.832 514.562 87.112 514.53 86.344L514.05 77.128C513.826 72.52 512.434 70.216 509.874 70.216C508.594 70.216 507.586 70.696 506.85 71.656C506.146 72.616 505.794 73.896 505.794 75.496V86.392C505.794 87.128 506.13 87.832 506.802 88.504C507.506 89.176 507.858 89.672 507.858 89.992V90.184C507.858 90.728 507.474 91 506.706 91H497.826C497.09 91 496.722 90.728 496.722 90.184V89.992C496.722 89.672 497.058 89.176 497.73 88.504C498.402 87.832 498.738 87.128 498.738 86.392V62.488C498.738 61.72 498.37 61.032 497.634 60.424C496.93 59.816 496.578 59.352 496.578 59.032V58.888C496.578 58.408 496.898 58.008 497.538 57.688L503.874 54.904C504.418 54.68 504.834 54.648 505.122 54.808C505.442 54.968 505.602 55.288 505.602 55.768L505.554 70.168C507.058 68.376 509.154 67.48 511.842 67.48C514.274 67.48 516.338 68.28 518.034 69.88C519.73 71.448 520.69 73.928 520.914 77.32L521.538 86.296ZM534.779 91.48C532.539 91.48 530.763 90.776 529.451 89.368C528.171 87.928 527.531 85.864 527.531 83.176V70.744H525.275C524.635 70.744 524.315 70.424 524.315 69.784V68.968C524.315 68.296 524.635 67.96 525.275 67.96H526.475C527.787 67.96 528.891 67.528 529.787 66.664C530.715 65.8 531.307 64.648 531.563 63.208C531.723 62.44 532.091 62.056 532.667 62.056H533.627C534.331 62.056 534.683 62.44 534.683 63.208L534.731 67.96H540.251C540.507 67.96 540.731 68.056 540.923 68.248C541.115 68.44 541.211 68.68 541.211 68.968V69.784C541.211 70.072 541.115 70.312 540.923 70.504C540.731 70.664 540.507 70.744 540.251 70.744H534.731V83.272C534.731 84.2 534.955 84.952 535.403 85.528C535.883 86.072 536.475 86.344 537.179 86.344C538.843 86.344 539.931 85.624 540.443 84.184C540.731 83.768 541.083 83.608 541.499 83.704C541.947 83.768 542.171 84.024 542.171 84.472C542.171 86.328 541.499 87.96 540.155 89.368C538.843 90.776 537.051 91.48 534.779 91.48ZM568.56 57.928C566.992 57.928 565.76 58.744 564.864 60.376C563.968 62.008 563.6 64.024 563.76 66.424V67.96H569.52C569.776 67.96 570 68.056 570.192 68.248C570.384 68.44 570.48 68.664 570.48 68.92V69.832C570.48 70.088 570.384 70.312 570.192 70.504C570 70.664 569.776 70.744 569.52 70.744H563.76V86.344C563.76 86.92 563.968 87.432 564.384 87.88C564.8 88.328 565.2 88.712 565.584 89.032C566 89.352 566.208 89.672 566.208 89.992V90.184C566.208 90.728 565.888 91 565.248 91H555.984C555.312 91 554.976 90.728 554.976 90.184V89.992C554.976 89.672 555.296 89.176 555.936 88.504C556.576 87.832 556.896 87.112 556.896 86.344V70.744H553.488C552.816 70.744 552.48 70.44 552.48 69.832V68.92C552.48 68.664 552.576 68.44 552.768 68.248C552.96 68.056 553.2 67.96 553.488 67.96H556.896V65.992C556.896 62.92 558.048 60.456 560.352 58.6C562.656 56.744 565.696 55.816 569.472 55.816C572.704 55.816 575.264 56.504 577.152 57.88C579.072 59.224 580.032 60.76 580.032 62.488C580.032 63.224 579.776 63.848 579.264 64.36C578.752 64.84 578.096 65.08 577.296 65.08C576.368 65.08 575.568 64.84 574.896 64.36C574.224 63.848 573.68 63.256 573.264 62.584C572.88 61.88 572.496 61.176 572.112 60.472C571.76 59.768 571.28 59.176 570.672 58.696C570.096 58.184 569.392 57.928 568.56 57.928ZM581.952 86.344C581.952 87.112 582.288 87.832 582.96 88.504C583.632 89.176 583.968 89.672 583.968 89.992V90.184C583.968 90.728 583.6 91 582.864 91H573.984C573.248 91 572.88 90.728 572.88 90.184V89.992C572.88 89.672 573.184 89.176 573.792 88.504C574.432 87.832 574.752 87.112 574.752 86.344V75.496C574.752 74.696 574.432 73.944 573.792 73.24C573.184 72.536 572.88 72.056 572.88 71.8V71.656C572.88 71.336 573.216 71 573.888 70.648L579.984 67.672C580.592 67.416 581.072 67.4 581.424 67.624C581.776 67.816 581.952 68.152 581.952 68.632V86.344ZM595.998 91.48C593.758 91.48 591.982 90.776 590.67 89.368C589.39 87.928 588.75 85.864 588.75 83.176V70.744H586.494C585.854 70.744 585.534 70.424 585.534 69.784V68.968C585.534 68.296 585.854 67.96 586.494 67.96H587.694C589.006 67.96 590.11 67.528 591.006 66.664C591.934 65.8 592.526 64.648 592.782 63.208C592.942 62.44 593.31 62.056 593.886 62.056H594.846C595.55 62.056 595.902 62.44 595.902 63.208L595.95 67.96H601.47C601.726 67.96 601.95 68.056 602.142 68.248C602.334 68.44 602.43 68.68 602.43 68.968V69.784C602.43 70.072 602.334 70.312 602.142 70.504C601.95 70.664 601.726 70.744 601.47 70.744H595.95V83.272C595.95 84.2 596.174 84.952 596.622 85.528C597.102 86.072 597.694 86.344 598.398 86.344C600.062 86.344 601.15 85.624 601.662 84.184C601.95 83.768 602.302 83.608 602.718 83.704C603.166 83.768 603.39 84.024 603.39 84.472C603.39 86.328 602.718 87.96 601.374 89.368C600.062 90.776 598.27 91.48 595.998 91.48ZM609.855 91.48C608.575 91.48 607.519 91.144 606.687 90.472C605.855 89.768 605.439 88.776 605.439 87.496C605.439 86.216 605.855 85.24 606.687 84.568C607.519 83.864 608.575 83.512 609.855 83.512C611.103 83.512 612.143 83.864 612.975 84.568C613.807 85.24 614.223 86.216 614.223 87.496C614.223 88.776 613.807 89.768 612.975 90.472C612.143 91.144 611.103 91.48 609.855 91.48Z" fill="#163A24"/>
</svg>
