<svg width="340" height="19" viewBox="0 0 340 19" fill="none" xmlns="http://www.w3.org/2000/svg">
<path d="M10.241 14H8.62099V8.006H2.03299V14H0.412992V1.148H2.03299V6.584H8.62099V1.148H10.241V14ZM17.3008 1.148C18.8968 1.148 20.0728 1.454 20.8288 2.066C21.5968 2.666 21.9808 3.578 21.9808 4.802C21.9808 5.486 21.8548 6.056 21.6028 6.512C21.3508 6.968 21.0268 7.334 20.6308 7.61C20.2468 7.874 19.8388 8.084 19.4068 8.24L22.9348 14H21.0448L17.9308 8.69H15.3748V14H13.7548V1.148H17.3008ZM17.2108 2.552H15.3748V7.322H17.3008C18.3448 7.322 19.1068 7.118 19.5868 6.71C20.0668 6.29 20.3068 5.678 20.3068 4.874C20.3068 4.034 20.0548 3.44 19.5508 3.092C19.0468 2.732 18.2668 2.552 17.2108 2.552ZM30.2218 0.733999C30.4618 0.733999 30.6718 0.817999 30.8518 0.985999C31.0438 1.142 31.1398 1.394 31.1398 1.742C31.1398 2.078 31.0438 2.33 30.8518 2.498C30.6718 2.666 30.4618 2.75 30.2218 2.75C29.9578 2.75 29.7358 2.666 29.5558 2.498C29.3758 2.33 29.2858 2.078 29.2858 1.742C29.2858 1.394 29.3758 1.142 29.5558 0.985999C29.7358 0.817999 29.9578 0.733999 30.2218 0.733999ZM30.9958 4.352V14H29.4118V4.352H30.9958ZM40.3345 11.336C40.3345 12.272 39.9865 12.98 39.2905 13.46C38.5945 13.94 37.6585 14.18 36.4825 14.18C35.8105 14.18 35.2285 14.126 34.7365 14.018C34.2565 13.91 33.8305 13.76 33.4585 13.568V12.128C33.8425 12.32 34.3045 12.5 34.8445 12.668C35.3965 12.824 35.9545 12.902 36.5185 12.902C37.3225 12.902 37.9045 12.776 38.2645 12.524C38.6245 12.26 38.8045 11.912 38.8045 11.48C38.8045 11.24 38.7385 11.024 38.6065 10.832C38.4745 10.64 38.2345 10.448 37.8865 10.256C37.5505 10.064 37.0645 9.848 36.4285 9.608C35.8045 9.368 35.2705 9.128 34.8265 8.888C34.3825 8.648 34.0405 8.36 33.8005 8.024C33.5605 7.688 33.4405 7.256 33.4405 6.728C33.4405 5.912 33.7705 5.282 34.4305 4.838C35.1025 4.394 35.9785 4.172 37.0585 4.172C37.6465 4.172 38.1925 4.232 38.6965 4.352C39.2125 4.46 39.6925 4.616 40.1365 4.82L39.5965 6.08C39.1885 5.912 38.7625 5.768 38.3185 5.648C37.8745 5.528 37.4185 5.468 36.9505 5.468C36.3025 5.468 35.8045 5.576 35.4565 5.792C35.1205 5.996 34.9525 6.278 34.9525 6.638C34.9525 6.902 35.0305 7.13 35.1865 7.322C35.3425 7.502 35.6005 7.682 35.9605 7.862C36.3325 8.03 36.8245 8.234 37.4365 8.474C38.0485 8.702 38.5705 8.936 39.0025 9.176C39.4345 9.416 39.7645 9.71 39.9925 10.058C40.2205 10.394 40.3345 10.82 40.3345 11.336ZM51.7875 5.576H49.3575V14H47.7735V5.576H46.0815V4.838L47.7735 4.298V3.74C47.7735 2.492 48.0495 1.598 48.6015 1.058C49.1535 0.505999 49.9215 0.229999 50.9055 0.229999C51.2895 0.229999 51.6375 0.265999 51.9495 0.337999C52.2735 0.398 52.5495 0.47 52.7775 0.553999L52.3635 1.796C52.1715 1.736 51.9495 1.676 51.6975 1.616C51.4455 1.556 51.1875 1.526 50.9235 1.526C50.3955 1.526 49.9995 1.706 49.7355 2.066C49.4835 2.414 49.3575 2.966 49.3575 3.722V4.352H51.7875V5.576ZM61.917 9.158C61.917 10.754 61.509 11.99 60.693 12.866C59.889 13.742 58.797 14.18 57.417 14.18C56.565 14.18 55.803 13.988 55.131 13.604C54.471 13.208 53.949 12.638 53.565 11.894C53.181 11.138 52.989 10.226 52.989 9.158C52.989 7.562 53.391 6.332 54.195 5.468C54.999 4.604 56.091 4.172 57.471 4.172C58.347 4.172 59.115 4.37 59.775 4.766C60.447 5.15 60.969 5.714 61.341 6.458C61.725 7.19 61.917 8.09 61.917 9.158ZM54.627 9.158C54.627 10.298 54.849 11.204 55.293 11.876C55.749 12.536 56.469 12.866 57.453 12.866C58.425 12.866 59.139 12.536 59.595 11.876C60.051 11.204 60.279 10.298 60.279 9.158C60.279 8.018 60.051 7.124 59.595 6.476C59.139 5.828 58.419 5.504 57.435 5.504C56.451 5.504 55.737 5.828 55.293 6.476C54.849 7.124 54.627 8.018 54.627 9.158ZM68.9275 4.172C69.1075 4.172 69.2995 4.184 69.5035 4.208C69.7195 4.22 69.9055 4.244 70.0615 4.28L69.8635 5.738C69.7075 5.702 69.5335 5.672 69.3415 5.648C69.1615 5.624 68.9875 5.612 68.8195 5.612C68.3275 5.612 67.8655 5.75 67.4335 6.026C67.0015 6.29 66.6535 6.668 66.3895 7.16C66.1375 7.64 66.0115 8.204 66.0115 8.852V14H64.4275V4.352H65.7235L65.9035 6.116H65.9755C66.2875 5.588 66.6895 5.132 67.1815 4.748C67.6735 4.364 68.2555 4.172 68.9275 4.172ZM80.2648 4.172C81.0928 4.172 81.8008 4.352 82.3888 4.712C82.9888 5.072 83.4448 5.582 83.7568 6.242C84.0808 6.89 84.2428 7.652 84.2428 8.528V9.482H77.6368C77.6608 10.574 77.9368 11.408 78.4648 11.984C79.0048 12.548 79.7548 12.83 80.7148 12.83C81.3268 12.83 81.8668 12.776 82.3348 12.668C82.8148 12.548 83.3068 12.38 83.8108 12.164V13.55C83.3188 13.766 82.8328 13.922 82.3528 14.018C81.8728 14.126 81.3028 14.18 80.6428 14.18C79.7308 14.18 78.9208 13.994 78.2128 13.622C77.5168 13.25 76.9708 12.698 76.5748 11.966C76.1908 11.222 75.9988 10.316 75.9988 9.248C75.9988 8.192 76.1728 7.286 76.5208 6.53C76.8808 5.774 77.3788 5.192 78.0148 4.784C78.6628 4.376 79.4128 4.172 80.2648 4.172ZM80.2468 5.468C79.4908 5.468 78.8908 5.714 78.4468 6.206C78.0148 6.686 77.7568 7.358 77.6728 8.222H82.5868C82.5748 7.406 82.3828 6.746 82.0108 6.242C81.6388 5.726 81.0508 5.468 80.2468 5.468ZM88.4714 14L84.8174 4.352H86.5094L88.5614 10.04C88.6574 10.304 88.7594 10.598 88.8674 10.922C88.9754 11.246 89.0714 11.558 89.1554 11.858C89.2394 12.146 89.2994 12.392 89.3354 12.596H89.4074C89.4554 12.392 89.5214 12.14 89.6054 11.84C89.7014 11.54 89.8034 11.228 89.9114 10.904C90.0314 10.58 90.1334 10.292 90.2174 10.04L92.2694 4.352H93.9614L90.2894 14H88.4714ZM99.214 4.172C100.042 4.172 100.75 4.352 101.338 4.712C101.938 5.072 102.394 5.582 102.706 6.242C103.03 6.89 103.192 7.652 103.192 8.528V9.482H96.586C96.61 10.574 96.886 11.408 97.414 11.984C97.954 12.548 98.704 12.83 99.664 12.83C100.276 12.83 100.816 12.776 101.284 12.668C101.764 12.548 102.256 12.38 102.76 12.164V13.55C102.268 13.766 101.782 13.922 101.302 14.018C100.822 14.126 100.252 14.18 99.592 14.18C98.68 14.18 97.87 13.994 97.162 13.622C96.466 13.25 95.92 12.698 95.524 11.966C95.14 11.222 94.948 10.316 94.948 9.248C94.948 8.192 95.122 7.286 95.47 6.53C95.83 5.774 96.328 5.192 96.964 4.784C97.612 4.376 98.362 4.172 99.214 4.172ZM99.196 5.468C98.44 5.468 97.84 5.714 97.396 6.206C96.964 6.686 96.706 7.358 96.622 8.222H101.536C101.524 7.406 101.332 6.746 100.96 6.242C100.588 5.726 100 5.468 99.196 5.468ZM110.148 4.172C110.328 4.172 110.52 4.184 110.724 4.208C110.94 4.22 111.126 4.244 111.282 4.28L111.084 5.738C110.928 5.702 110.754 5.672 110.562 5.648C110.382 5.624 110.208 5.612 110.04 5.612C109.548 5.612 109.086 5.75 108.654 6.026C108.222 6.29 107.874 6.668 107.61 7.16C107.358 7.64 107.232 8.204 107.232 8.852V14H105.648V4.352H106.944L107.124 6.116H107.196C107.508 5.588 107.91 5.132 108.402 4.748C108.894 4.364 109.476 4.172 110.148 4.172ZM111.572 4.352H113.264L115.352 9.842C115.532 10.322 115.694 10.784 115.838 11.228C115.982 11.66 116.09 12.074 116.162 12.47H116.234C116.306 12.17 116.42 11.78 116.576 11.3C116.732 10.808 116.894 10.316 117.062 9.824L119.024 4.352H120.734L116.576 15.332C116.24 16.244 115.802 16.97 115.262 17.51C114.734 18.05 114.002 18.32 113.066 18.32C112.778 18.32 112.526 18.302 112.31 18.266C112.094 18.242 111.908 18.212 111.752 18.176V16.916C111.884 16.94 112.04 16.964 112.22 16.988C112.412 17.012 112.61 17.024 112.814 17.024C113.366 17.024 113.81 16.868 114.146 16.556C114.494 16.244 114.764 15.83 114.956 15.314L115.46 14.036L111.572 4.352ZM130.647 9.158C130.647 10.754 130.239 11.99 129.423 12.866C128.619 13.742 127.527 14.18 126.147 14.18C125.295 14.18 124.533 13.988 123.861 13.604C123.201 13.208 122.679 12.638 122.295 11.894C121.911 11.138 121.719 10.226 121.719 9.158C121.719 7.562 122.121 6.332 122.925 5.468C123.729 4.604 124.821 4.172 126.201 4.172C127.077 4.172 127.845 4.37 128.505 4.766C129.177 5.15 129.699 5.714 130.071 6.458C130.455 7.19 130.647 8.09 130.647 9.158ZM123.357 9.158C123.357 10.298 123.579 11.204 124.023 11.876C124.479 12.536 125.199 12.866 126.183 12.866C127.155 12.866 127.869 12.536 128.325 11.876C128.781 11.204 129.009 10.298 129.009 9.158C129.009 8.018 128.781 7.124 128.325 6.476C127.869 5.828 127.149 5.504 126.165 5.504C125.181 5.504 124.467 5.828 124.023 6.476C123.579 7.124 123.357 8.018 123.357 9.158ZM137.802 4.172C138.954 4.172 139.824 4.454 140.412 5.018C141 5.57 141.294 6.47 141.294 7.718V14H139.728V7.826C139.728 6.278 139.008 5.504 137.568 5.504C136.5 5.504 135.762 5.804 135.354 6.404C134.946 7.004 134.742 7.868 134.742 8.996V14H133.158V4.352H134.436L134.67 5.666H134.76C135.072 5.162 135.504 4.79 136.056 4.55C136.608 4.298 137.19 4.172 137.802 4.172ZM148.011 4.172C148.839 4.172 149.547 4.352 150.135 4.712C150.735 5.072 151.191 5.582 151.503 6.242C151.827 6.89 151.989 7.652 151.989 8.528V9.482H145.383C145.407 10.574 145.683 11.408 146.211 11.984C146.751 12.548 147.501 12.83 148.461 12.83C149.073 12.83 149.613 12.776 150.081 12.668C150.561 12.548 151.053 12.38 151.557 12.164V13.55C151.065 13.766 150.579 13.922 150.099 14.018C149.619 14.126 149.049 14.18 148.389 14.18C147.477 14.18 146.667 13.994 145.959 13.622C145.263 13.25 144.717 12.698 144.321 11.966C143.937 11.222 143.745 10.316 143.745 9.248C143.745 8.192 143.919 7.286 144.267 6.53C144.627 5.774 145.125 5.192 145.761 4.784C146.409 4.376 147.159 4.172 148.011 4.172ZM147.993 5.468C147.237 5.468 146.637 5.714 146.193 6.206C145.761 6.686 145.503 7.358 145.419 8.222H150.333C150.321 7.406 150.129 6.746 149.757 6.242C149.385 5.726 148.797 5.468 147.993 5.468ZM154.211 13.028C154.211 12.584 154.319 12.272 154.535 12.092C154.751 11.912 155.009 11.822 155.309 11.822C155.621 11.822 155.885 11.912 156.101 12.092C156.329 12.272 156.443 12.584 156.443 13.028C156.443 13.46 156.329 13.772 156.101 13.964C155.885 14.156 155.621 14.252 155.309 14.252C155.009 14.252 154.751 14.156 154.535 13.964C154.319 13.772 154.211 13.46 154.211 13.028ZM169.661 2.39C168.281 2.39 167.195 2.852 166.403 3.776C165.611 4.7 165.215 5.966 165.215 7.574C165.215 9.17 165.581 10.436 166.313 11.372C167.057 12.296 168.167 12.758 169.643 12.758C170.207 12.758 170.741 12.71 171.245 12.614C171.749 12.518 172.241 12.398 172.721 12.254V13.658C172.241 13.838 171.743 13.97 171.227 14.054C170.723 14.138 170.117 14.18 169.409 14.18C168.101 14.18 167.009 13.91 166.133 13.37C165.257 12.83 164.597 12.062 164.153 11.066C163.721 10.07 163.505 8.9 163.505 7.556C163.505 6.26 163.739 5.12 164.207 4.136C164.687 3.14 165.389 2.366 166.313 1.814C167.237 1.25 168.359 0.967999 169.679 0.967999C171.035 0.967999 172.217 1.22 173.225 1.724L172.577 3.092C172.181 2.912 171.737 2.75 171.245 2.606C170.765 2.462 170.237 2.39 169.661 2.39ZM176.894 14H175.31V0.319999H176.894V14ZM183.677 4.172C184.505 4.172 185.213 4.352 185.801 4.712C186.401 5.072 186.857 5.582 187.169 6.242C187.493 6.89 187.655 7.652 187.655 8.528V9.482H181.049C181.073 10.574 181.349 11.408 181.877 11.984C182.417 12.548 183.167 12.83 184.127 12.83C184.739 12.83 185.279 12.776 185.747 12.668C186.227 12.548 186.719 12.38 187.223 12.164V13.55C186.731 13.766 186.245 13.922 185.765 14.018C185.285 14.126 184.715 14.18 184.055 14.18C183.143 14.18 182.333 13.994 181.625 13.622C180.929 13.25 180.383 12.698 179.987 11.966C179.603 11.222 179.411 10.316 179.411 9.248C179.411 8.192 179.585 7.286 179.933 6.53C180.293 5.774 180.791 5.192 181.427 4.784C182.075 4.376 182.825 4.172 183.677 4.172ZM183.659 5.468C182.903 5.468 182.303 5.714 181.859 6.206C181.427 6.686 181.169 7.358 181.085 8.222H185.999C185.987 7.406 185.795 6.746 185.423 6.242C185.051 5.726 184.463 5.468 183.659 5.468ZM194.611 4.172C194.791 4.172 194.983 4.184 195.187 4.208C195.403 4.22 195.589 4.244 195.745 4.28L195.547 5.738C195.391 5.702 195.217 5.672 195.025 5.648C194.845 5.624 194.671 5.612 194.503 5.612C194.011 5.612 193.549 5.75 193.117 6.026C192.685 6.29 192.337 6.668 192.073 7.16C191.821 7.64 191.695 8.204 191.695 8.852V14H190.111V4.352H191.407L191.587 6.116H191.659C191.971 5.588 192.373 5.132 192.865 4.748C193.357 4.364 193.939 4.172 194.611 4.172ZM199.113 7.466C199.113 7.658 199.101 7.91 199.077 8.222C199.065 8.534 199.053 8.804 199.041 9.032H199.113C199.185 8.936 199.293 8.798 199.437 8.618C199.581 8.438 199.725 8.258 199.869 8.078C200.025 7.886 200.157 7.73 200.265 7.61L203.343 4.352H205.197L201.291 8.474L205.467 14H203.559L200.211 9.5L199.113 10.454V14H197.547V0.319999H199.113V7.466ZM213.444 11.336C213.444 12.272 213.096 12.98 212.4 13.46C211.704 13.94 210.768 14.18 209.592 14.18C208.92 14.18 208.338 14.126 207.846 14.018C207.366 13.91 206.94 13.76 206.568 13.568V12.128C206.952 12.32 207.414 12.5 207.954 12.668C208.506 12.824 209.064 12.902 209.628 12.902C210.432 12.902 211.014 12.776 211.374 12.524C211.734 12.26 211.914 11.912 211.914 11.48C211.914 11.24 211.848 11.024 211.716 10.832C211.584 10.64 211.344 10.448 210.996 10.256C210.66 10.064 210.174 9.848 209.538 9.608C208.914 9.368 208.38 9.128 207.936 8.888C207.492 8.648 207.15 8.36 206.91 8.024C206.67 7.688 206.55 7.256 206.55 6.728C206.55 5.912 206.88 5.282 207.54 4.838C208.212 4.394 209.088 4.172 210.168 4.172C210.756 4.172 211.302 4.232 211.806 4.352C212.322 4.46 212.802 4.616 213.246 4.82L212.706 6.08C212.298 5.912 211.872 5.768 211.428 5.648C210.984 5.528 210.528 5.468 210.06 5.468C209.412 5.468 208.914 5.576 208.566 5.792C208.23 5.996 208.062 6.278 208.062 6.638C208.062 6.902 208.14 7.13 208.296 7.322C208.452 7.502 208.71 7.682 209.07 7.862C209.442 8.03 209.934 8.234 210.546 8.474C211.158 8.702 211.68 8.936 212.112 9.176C212.544 9.416 212.874 9.71 213.102 10.058C213.33 10.394 213.444 10.82 213.444 11.336ZM214.263 4.352H215.955L218.043 9.842C218.223 10.322 218.385 10.784 218.529 11.228C218.673 11.66 218.781 12.074 218.853 12.47H218.925C218.997 12.17 219.111 11.78 219.267 11.3C219.423 10.808 219.585 10.316 219.753 9.824L221.715 4.352H223.425L219.267 15.332C218.931 16.244 218.493 16.97 217.953 17.51C217.425 18.05 216.693 18.32 215.757 18.32C215.469 18.32 215.217 18.302 215.001 18.266C214.785 18.242 214.599 18.212 214.443 18.176V16.916C214.575 16.94 214.731 16.964 214.911 16.988C215.103 17.012 215.301 17.024 215.505 17.024C216.057 17.024 216.501 16.868 216.837 16.556C217.185 16.244 217.455 15.83 217.647 15.314L218.151 14.036L214.263 4.352ZM233.497 14.18C232.645 14.18 231.883 14.006 231.211 13.658C230.551 13.31 230.029 12.77 229.645 12.038C229.273 11.306 229.087 10.37 229.087 9.23C229.087 8.042 229.285 7.076 229.681 6.332C230.077 5.588 230.611 5.042 231.283 4.694C231.967 4.346 232.741 4.172 233.605 4.172C234.097 4.172 234.571 4.226 235.027 4.334C235.483 4.43 235.855 4.55 236.143 4.694L235.657 6.008C235.369 5.9 235.033 5.798 234.649 5.702C234.265 5.606 233.905 5.558 233.569 5.558C231.673 5.558 230.725 6.776 230.725 9.212C230.725 10.376 230.953 11.27 231.409 11.894C231.877 12.506 232.567 12.812 233.479 12.812C234.007 12.812 234.469 12.758 234.865 12.65C235.273 12.542 235.645 12.41 235.981 12.254V13.658C235.657 13.826 235.297 13.952 234.901 14.036C234.517 14.132 234.049 14.18 233.497 14.18ZM241.929 4.19C243.105 4.19 243.975 4.448 244.539 4.964C245.103 5.48 245.385 6.302 245.385 7.43V14H244.233L243.927 12.632H243.855C243.435 13.16 242.991 13.55 242.523 13.802C242.067 14.054 241.431 14.18 240.615 14.18C239.739 14.18 239.013 13.952 238.437 13.496C237.861 13.028 237.573 12.302 237.573 11.318C237.573 10.358 237.951 9.62 238.707 9.104C239.463 8.576 240.627 8.288 242.199 8.24L243.837 8.186V7.61C243.837 6.806 243.663 6.248 243.315 5.936C242.967 5.624 242.475 5.468 241.839 5.468C241.335 5.468 240.855 5.546 240.399 5.702C239.943 5.846 239.517 6.014 239.121 6.206L238.635 5.018C239.055 4.79 239.553 4.598 240.129 4.442C240.705 4.274 241.305 4.19 241.929 4.19ZM242.397 9.338C241.197 9.386 240.363 9.578 239.895 9.914C239.439 10.25 239.211 10.724 239.211 11.336C239.211 11.876 239.373 12.272 239.697 12.524C240.033 12.776 240.459 12.902 240.975 12.902C241.791 12.902 242.469 12.68 243.009 12.236C243.549 11.78 243.819 11.084 243.819 10.148V9.284L242.397 9.338ZM253.009 4.172C254.161 4.172 255.031 4.454 255.619 5.018C256.207 5.57 256.501 6.47 256.501 7.718V14H254.935V7.826C254.935 6.278 254.215 5.504 252.775 5.504C251.707 5.504 250.969 5.804 250.561 6.404C250.153 7.004 249.949 7.868 249.949 8.996V14H248.365V4.352H249.643L249.877 5.666H249.967C250.279 5.162 250.711 4.79 251.263 4.55C251.815 4.298 252.397 4.172 253.009 4.172ZM265.752 4.334C265.752 4.814 265.722 5.264 265.662 5.684H265.77C266.082 5.192 266.502 4.82 267.03 4.568C267.57 4.316 268.152 4.19 268.776 4.19C269.952 4.19 270.834 4.472 271.422 5.036C272.01 5.588 272.304 6.482 272.304 7.718V14H270.738V7.826C270.738 6.278 270.018 5.504 268.578 5.504C267.498 5.504 266.754 5.81 266.346 6.422C265.95 7.022 265.752 7.886 265.752 9.014V14H264.168V0.319999H265.752V4.334ZM279.021 4.172C279.849 4.172 280.557 4.352 281.145 4.712C281.745 5.072 282.201 5.582 282.513 6.242C282.837 6.89 282.999 7.652 282.999 8.528V9.482H276.393C276.417 10.574 276.693 11.408 277.221 11.984C277.761 12.548 278.511 12.83 279.471 12.83C280.083 12.83 280.623 12.776 281.091 12.668C281.571 12.548 282.063 12.38 282.567 12.164V13.55C282.075 13.766 281.589 13.922 281.109 14.018C280.629 14.126 280.059 14.18 279.399 14.18C278.487 14.18 277.677 13.994 276.969 13.622C276.273 13.25 275.727 12.698 275.331 11.966C274.947 11.222 274.755 10.316 274.755 9.248C274.755 8.192 274.929 7.286 275.277 6.53C275.637 5.774 276.135 5.192 276.771 4.784C277.419 4.376 278.169 4.172 279.021 4.172ZM279.003 5.468C278.247 5.468 277.647 5.714 277.203 6.206C276.771 6.686 276.513 7.358 276.429 8.222H281.343C281.331 7.406 281.139 6.746 280.767 6.242C280.395 5.726 279.807 5.468 279.003 5.468ZM287.039 14H285.455V0.319999H287.039V14ZM294.685 4.172C295.873 4.172 296.827 4.586 297.547 5.414C298.279 6.242 298.645 7.49 298.645 9.158C298.645 10.802 298.279 12.05 297.547 12.902C296.827 13.754 295.867 14.18 294.667 14.18C293.923 14.18 293.305 14.042 292.813 13.766C292.333 13.478 291.955 13.148 291.679 12.776H291.571C291.595 12.98 291.619 13.238 291.643 13.55C291.667 13.862 291.679 14.132 291.679 14.36V18.32H290.095V4.352H291.391L291.607 5.666H291.679C291.967 5.246 292.345 4.892 292.813 4.604C293.281 4.316 293.905 4.172 294.685 4.172ZM294.397 5.504C293.413 5.504 292.717 5.78 292.309 6.332C291.913 6.884 291.703 7.724 291.679 8.852V9.158C291.679 10.346 291.871 11.264 292.255 11.912C292.651 12.548 293.377 12.866 294.433 12.866C295.021 12.866 295.501 12.704 295.873 12.38C296.257 12.056 296.539 11.618 296.719 11.066C296.911 10.502 297.007 9.86 297.007 9.14C297.007 8.036 296.791 7.154 296.359 6.494C295.939 5.834 295.285 5.504 294.397 5.504ZM304.333 4.352H306.025L308.113 9.842C308.293 10.322 308.455 10.784 308.599 11.228C308.743 11.66 308.851 12.074 308.923 12.47H308.995C309.067 12.17 309.181 11.78 309.337 11.3C309.493 10.808 309.655 10.316 309.823 9.824L311.785 4.352H313.495L309.337 15.332C309.001 16.244 308.563 16.97 308.023 17.51C307.495 18.05 306.763 18.32 305.827 18.32C305.539 18.32 305.287 18.302 305.071 18.266C304.855 18.242 304.669 18.212 304.513 18.176V16.916C304.645 16.94 304.801 16.964 304.981 16.988C305.173 17.012 305.371 17.024 305.575 17.024C306.127 17.024 306.571 16.868 306.907 16.556C307.255 16.244 307.525 15.83 307.717 15.314L308.221 14.036L304.333 4.352ZM323.409 9.158C323.409 10.754 323.001 11.99 322.185 12.866C321.381 13.742 320.289 14.18 318.909 14.18C318.057 14.18 317.295 13.988 316.623 13.604C315.963 13.208 315.441 12.638 315.057 11.894C314.673 11.138 314.481 10.226 314.481 9.158C314.481 7.562 314.883 6.332 315.687 5.468C316.491 4.604 317.583 4.172 318.963 4.172C319.839 4.172 320.607 4.37 321.267 4.766C321.939 5.15 322.461 5.714 322.833 6.458C323.217 7.19 323.409 8.09 323.409 9.158ZM316.119 9.158C316.119 10.298 316.341 11.204 316.785 11.876C317.241 12.536 317.961 12.866 318.945 12.866C319.917 12.866 320.631 12.536 321.087 11.876C321.543 11.204 321.771 10.298 321.771 9.158C321.771 8.018 321.543 7.124 321.087 6.476C320.631 5.828 319.911 5.504 318.927 5.504C317.943 5.504 317.229 5.828 316.785 6.476C316.341 7.124 316.119 8.018 316.119 9.158ZM333.984 4.352V14H332.688L332.454 12.722H332.382C332.07 13.226 331.638 13.598 331.086 13.838C330.534 14.066 329.946 14.18 329.322 14.18C328.158 14.18 327.282 13.904 326.694 13.352C326.106 12.788 325.812 11.894 325.812 10.67V4.352H327.414V10.562C327.414 12.098 328.128 12.866 329.556 12.866C330.624 12.866 331.362 12.566 331.77 11.966C332.19 11.366 332.4 10.502 332.4 9.374V4.352H333.984ZM336.813 13.028C336.813 12.584 336.921 12.272 337.137 12.092C337.353 11.912 337.611 11.822 337.911 11.822C338.223 11.822 338.487 11.912 338.703 12.092C338.931 12.272 339.045 12.584 339.045 13.028C339.045 13.46 338.931 13.772 338.703 13.964C338.487 14.156 338.223 14.252 337.911 14.252C337.611 14.252 337.353 14.156 337.137 13.964C336.921 13.772 336.813 13.46 336.813 13.028Z" fill="#163A24"/>
</svg>
