<svg width="815" height="48" viewBox="0 0 815 48" fill="none" xmlns="http://www.w3.org/2000/svg">
<path d="M1.74281 37C1.03881 37 0.686813 36.728 0.686813 36.184V36.04C0.686813 35.72 0.990813 35.224 1.59881 34.552C2.20681 33.848 2.51081 33.128 2.51081 32.392V7.528C2.51081 6.792 2.20681 6.088 1.59881 5.416C0.990813 4.712 0.686813 4.2 0.686813 3.88V3.688C0.686813 3.176 1.03881 2.92 1.74281 2.92H10.7188C11.4548 2.92 11.8228 3.176 11.8228 3.688V3.88C11.8228 4.2 11.4868 4.712 10.8148 5.416C10.1428 6.088 9.80681 6.792 9.80681 7.528V18.184H24.4948V7.528C24.4948 6.792 24.1908 6.088 23.5828 5.416C22.9748 4.712 22.6708 4.2 22.6708 3.88V3.688C22.6708 3.176 23.0228 2.92 23.7268 2.92H32.7028C33.4388 2.92 33.8068 3.176 33.8068 3.688V3.88C33.8068 4.2 33.4548 4.712 32.7508 5.416C32.0788 6.088 31.7428 6.792 31.7428 7.528V32.392C31.7428 33.128 32.0788 33.848 32.7508 34.552C33.4548 35.224 33.8068 35.72 33.8068 36.04V36.184C33.8068 36.728 33.4388 37 32.7028 37H23.7268C23.0228 37 22.6708 36.728 22.6708 36.184V36.04C22.6708 35.72 22.9748 35.224 23.5828 34.552C24.1908 33.848 24.4948 33.128 24.4948 32.392V21.352H9.80681L9.75881 32.392C9.75881 33.128 10.0948 33.848 10.7668 34.552C11.4708 35.224 11.8228 35.72 11.8228 36.04V36.184C11.8228 36.728 11.4548 37 10.7188 37H1.74281ZM65.5423 32.392C65.9583 33.032 66.4543 33.592 67.0303 34.072C67.6383 34.52 68.1183 34.888 68.4703 35.176C68.8223 35.432 68.9983 35.72 68.9983 36.04V36.184C68.9983 36.728 68.6303 37 67.8943 37H57.8623C57.1583 37 56.8063 36.728 56.8063 36.184V36.04C56.8063 35.752 56.9823 35.432 57.3343 35.08C57.7183 34.696 57.9743 34.36 58.1023 34.072C58.2623 33.752 58.1823 33.192 57.8623 32.392L52.8223 24.04L47.5423 24.136V32.392C47.5423 33.128 47.8783 33.848 48.5503 34.552C49.2543 35.224 49.6063 35.72 49.6063 36.04V36.184C49.6063 36.728 49.2223 37 48.4543 37H39.4303C38.7263 37 38.3743 36.728 38.3743 36.184V36.04C38.3743 35.72 38.6783 35.224 39.2863 34.552C39.8943 33.848 40.1983 33.128 40.1983 32.392V7.528C40.1983 6.792 39.8943 6.088 39.2863 5.416C38.6783 4.712 38.3743 4.2 38.3743 3.88V3.688C38.3743 3.176 38.7263 2.92 39.4303 2.92H51.2863C55.7343 2.92 59.2543 3.832 61.8463 5.656C64.4703 7.48 65.7983 10.152 65.8303 13.672C65.8303 15.624 65.2543 17.432 64.1023 19.096C62.9823 20.728 61.3663 21.992 59.2543 22.888L65.5423 32.392ZM50.2303 21.208H52.2943C54.1183 21.208 55.5743 20.648 56.6623 19.528C57.7823 18.376 58.3423 16.696 58.3423 14.488C58.3423 11.864 57.5743 9.768 56.0383 8.2C54.5343 6.632 52.7903 5.848 50.8063 5.848H49.1743C48.0863 5.848 47.5423 6.568 47.5423 8.008V17.992C47.5423 19.144 47.7503 19.976 48.1663 20.488C48.6143 20.968 49.3023 21.208 50.2303 21.208ZM82.0866 37C81.3506 37 80.9826 36.728 80.9826 36.184V35.992C80.9826 35.704 81.2866 35.224 81.8946 34.552C82.5346 33.848 82.8546 33.128 82.8546 32.392V7.528C82.8546 6.824 82.5346 6.12 81.8946 5.416C81.2866 4.712 80.9826 4.2 80.9826 3.88V3.688C80.9826 3.176 81.3506 2.92 82.0866 2.92H93.0306C97.6066 2.92 101.287 3.848 104.071 5.704C106.887 7.528 108.295 10.344 108.295 14.152C108.295 17.768 107.047 20.632 104.551 22.744C102.055 24.856 98.6786 25.912 94.4226 25.912H90.1506V32.392C90.1506 33.128 90.4866 33.848 91.1586 34.552C91.8626 35.224 92.2146 35.704 92.2146 35.992V36.184C92.2146 36.728 91.8466 37 91.1106 37H82.0866ZM92.2146 23.08H94.4226C96.4066 23.08 97.9586 22.408 99.0786 21.064C100.199 19.688 100.759 17.96 100.759 15.88C100.759 12.776 99.9746 10.328 98.4066 8.536C96.8706 6.712 95.0786 5.8 93.0306 5.8H91.7346C90.6786 5.8 90.1506 6.488 90.1506 7.864V20.92C90.1506 22.36 90.8386 23.08 92.2146 23.08ZM125.089 13.48C126.465 13.48 127.537 13.896 128.305 14.728C129.105 15.528 129.505 16.568 129.505 17.848C129.505 20.376 128.481 21.64 126.433 21.64C125.601 21.64 124.945 21.432 124.465 21.016C124.017 20.568 123.745 20.088 123.649 19.576C123.553 19.064 123.361 18.6 123.073 18.184C122.785 17.736 122.353 17.512 121.777 17.512C120.913 17.512 120.273 18.024 119.857 19.048C119.441 20.072 119.233 21.32 119.233 22.792V32.392C119.233 32.968 119.425 33.48 119.809 33.928C120.225 34.344 120.625 34.712 121.009 35.032C121.425 35.352 121.633 35.672 121.633 35.992V36.184C121.633 36.728 121.281 37 120.577 37H111.697C110.961 37 110.593 36.728 110.593 36.184V35.992C110.593 35.672 110.897 35.176 111.505 34.504C112.145 33.832 112.465 33.128 112.465 32.392V21.16C112.465 20.392 112.097 19.704 111.361 19.096C110.625 18.488 110.257 18.024 110.257 17.704V17.512C110.257 17.064 110.593 16.68 111.265 16.36L117.025 13.672C118.049 13.192 118.561 13.512 118.561 14.632V18.232C119.649 15.064 121.825 13.48 125.089 13.48ZM143.563 37.48C139.755 37.48 136.603 36.312 134.107 33.976C131.643 31.608 130.411 28.728 130.411 25.336C130.411 21.912 131.627 19.08 134.059 16.84C136.491 14.6 139.419 13.48 142.843 13.48C146.523 13.48 149.595 14.648 152.059 16.984C154.523 19.288 155.755 22.152 155.755 25.576C155.755 29 154.587 31.848 152.251 34.12C149.947 36.36 147.051 37.48 143.563 37.48ZM144.427 35.368C145.739 35.368 146.747 34.76 147.451 33.544C148.187 32.328 148.555 30.616 148.555 28.408C148.555 26.584 148.283 24.712 147.739 22.792C147.227 20.84 146.443 19.16 145.387 17.752C144.331 16.312 143.163 15.592 141.883 15.592C138.939 15.592 137.467 17.928 137.467 22.6C137.467 24.328 137.723 26.152 138.235 28.072C138.779 29.992 139.595 31.688 140.683 33.16C141.803 34.632 143.051 35.368 144.427 35.368ZM182.015 32.392C182.015 33.128 182.335 33.848 182.975 34.552C183.615 35.224 183.935 35.72 183.935 36.04V36.184C183.935 36.728 183.615 37 182.975 37H177.023C176.287 37 175.919 36.648 175.919 35.944L175.823 34.888C174.351 36.616 172.271 37.48 169.583 37.48C166.479 37.48 163.823 36.408 161.615 34.264C159.407 32.088 158.303 29.144 158.303 25.432C158.303 21.944 159.407 19.08 161.615 16.84C163.823 14.6 166.495 13.48 169.631 13.48C171.871 13.48 173.743 14.104 175.247 15.352V7.672C175.247 7.032 175.039 6.504 174.623 6.088C174.239 5.672 173.839 5.32 173.423 5.032C173.039 4.744 172.847 4.44 172.847 4.12V3.976C172.847 3.432 173.183 3.064 173.855 2.872L180.143 0.951998C181.391 0.535997 182.015 0.855998 182.015 1.912V32.392ZM171.167 35.416C172.255 35.416 173.199 34.968 173.999 34.072C174.831 33.144 175.247 31.88 175.247 30.28V21.832C175.247 20.264 174.719 18.824 173.663 17.512C172.607 16.2 171.391 15.544 170.015 15.544C168.543 15.544 167.375 16.168 166.511 17.416C165.647 18.632 165.199 20.36 165.167 22.6C165.103 24.424 165.279 26.296 165.695 28.216C166.143 30.136 166.847 31.816 167.807 33.256C168.799 34.664 169.919 35.384 171.167 35.416ZM209.951 32.104C209.951 32.968 210.063 33.624 210.287 34.072C210.543 34.488 210.815 34.728 211.103 34.792C211.391 34.824 211.647 34.92 211.871 35.08C212.127 35.24 212.255 35.512 212.255 35.896C212.255 36.824 210.831 37.288 207.983 37.288C206.575 37.288 205.519 37.064 204.815 36.616C204.143 36.136 203.775 35.32 203.711 34.168C202.367 36.376 200.047 37.48 196.751 37.48C194.159 37.48 192.015 36.616 190.319 34.888C188.655 33.128 187.823 30.664 187.823 27.496V19.384C187.823 18.584 187.503 17.848 186.863 17.176C186.255 16.472 185.951 15.992 185.951 15.736V15.592C185.951 15.016 186.287 14.68 186.959 14.584L193.007 13.672C194.319 13.512 194.975 13.8 194.975 14.536L194.831 28.216C194.831 32.568 196.159 34.744 198.815 34.744C199.999 34.744 200.975 34.232 201.743 33.208C202.543 32.152 202.943 30.792 202.943 29.128V19.384C202.943 18.584 202.623 17.848 201.983 17.176C201.343 16.472 201.023 15.992 201.023 15.736V15.592C201.023 15.016 201.343 14.68 201.983 14.584L208.127 13.672C209.343 13.544 209.951 13.832 209.951 14.536V32.104ZM226.509 37.48C222.957 37.48 219.997 36.296 217.629 33.928C215.293 31.56 214.125 28.728 214.125 25.432C214.125 21.848 215.293 18.968 217.629 16.792C219.997 14.616 222.861 13.512 226.221 13.48C228.973 13.448 231.309 14.088 233.229 15.4C235.181 16.712 236.157 18.312 236.157 20.2C236.157 20.904 235.917 21.496 235.437 21.976C234.957 22.424 234.205 22.632 233.181 22.6C232.413 22.568 231.741 22.296 231.165 21.784C230.589 21.272 230.109 20.68 229.725 20.008C229.373 19.336 229.005 18.664 228.621 17.992C228.237 17.32 227.757 16.76 227.181 16.312C226.605 15.832 225.933 15.592 225.165 15.592C223.821 15.592 222.733 16.2 221.901 17.416C221.101 18.632 220.701 20.152 220.701 21.976C220.701 25.176 221.437 27.736 222.909 29.656C224.413 31.576 226.397 32.536 228.861 32.536C231.389 32.536 233.309 31.416 234.621 29.176C234.813 28.92 235.037 28.776 235.293 28.744C235.581 28.68 235.821 28.744 236.013 28.936C236.237 29.096 236.333 29.336 236.301 29.656C236.141 31.8 235.197 33.64 233.469 35.176C231.773 36.712 229.453 37.48 226.509 37.48ZM248.294 37.48C246.054 37.48 244.278 36.776 242.966 35.368C241.686 33.928 241.046 31.864 241.046 29.176V16.744H238.79C238.15 16.744 237.83 16.424 237.83 15.784V14.968C237.83 14.296 238.15 13.96 238.79 13.96H239.99C241.302 13.96 242.406 13.528 243.302 12.664C244.23 11.8 244.822 10.648 245.078 9.208C245.238 8.44 245.606 8.056 246.182 8.056H247.142C247.846 8.056 248.198 8.44 248.198 9.208L248.246 13.96H253.766C254.022 13.96 254.246 14.056 254.438 14.248C254.63 14.44 254.726 14.68 254.726 14.968V15.784C254.726 16.072 254.63 16.312 254.438 16.504C254.246 16.664 254.022 16.744 253.766 16.744H248.246V29.272C248.246 30.2 248.47 30.952 248.918 31.528C249.398 32.072 249.99 32.344 250.694 32.344C252.358 32.344 253.446 31.624 253.958 30.184C254.246 29.768 254.598 29.608 255.014 29.704C255.462 29.768 255.686 30.024 255.686 30.472C255.686 32.328 255.014 33.96 253.67 35.368C252.358 36.776 250.566 37.48 248.294 37.48ZM266.376 9.4C265.544 10.168 264.424 10.552 263.016 10.552C261.608 10.552 260.456 10.168 259.56 9.4C258.696 8.6 258.264 7.576 258.264 6.328C258.264 5.112 258.696 4.12 259.56 3.352C260.456 2.552 261.608 2.152 263.016 2.152C264.424 2.152 265.544 2.552 266.376 3.352C267.24 4.12 267.672 5.112 267.672 6.328C267.672 7.576 267.24 8.6 266.376 9.4ZM258.648 37C257.944 37 257.592 36.728 257.592 36.184V35.992C257.592 35.672 257.896 35.176 258.504 34.504C259.112 33.832 259.416 33.112 259.416 32.344V21.496C259.416 20.696 259.112 19.944 258.504 19.24C257.896 18.536 257.592 18.056 257.592 17.8V17.656C257.592 17.336 257.928 17 258.6 16.648L264.6 13.672C265.208 13.416 265.688 13.4 266.04 13.624C266.392 13.816 266.568 14.152 266.568 14.632V32.344C266.568 33.112 266.904 33.832 267.576 34.504C268.248 35.176 268.584 35.672 268.584 35.992V36.184C268.584 36.728 268.216 37 267.48 37H258.648ZM284.188 37.48C280.38 37.48 277.228 36.312 274.732 33.976C272.268 31.608 271.036 28.728 271.036 25.336C271.036 21.912 272.252 19.08 274.684 16.84C277.116 14.6 280.044 13.48 283.468 13.48C287.148 13.48 290.22 14.648 292.684 16.984C295.148 19.288 296.38 22.152 296.38 25.576C296.38 29 295.212 31.848 292.876 34.12C290.572 36.36 287.676 37.48 284.188 37.48ZM285.052 35.368C286.364 35.368 287.372 34.76 288.076 33.544C288.812 32.328 289.18 30.616 289.18 28.408C289.18 26.584 288.908 24.712 288.364 22.792C287.852 20.84 287.068 19.16 286.012 17.752C284.956 16.312 283.788 15.592 282.508 15.592C279.564 15.592 278.092 17.928 278.092 22.6C278.092 24.328 278.348 26.152 278.86 28.072C279.404 29.992 280.22 31.688 281.308 33.16C282.428 34.632 283.676 35.368 285.052 35.368ZM324.08 32.344C324.144 33.112 324.448 33.832 324.992 34.504C325.536 35.176 325.808 35.688 325.808 36.04V36.232C325.808 36.776 325.44 37.048 324.704 37.048H316.4C315.664 37.048 315.296 36.776 315.296 36.232V36.04C315.296 35.72 315.584 35.224 316.16 34.552C316.768 33.88 317.056 33.144 317.024 32.344L316.544 23.464C316.32 18.632 314.928 16.216 312.368 16.216C311.088 16.216 310.08 16.696 309.344 17.656C308.64 18.616 308.288 19.896 308.288 21.496V32.392C308.288 33.16 308.624 33.88 309.296 34.552C310 35.224 310.352 35.72 310.352 36.04V36.232C310.352 36.776 309.984 37.048 309.248 37.048H300.32C299.584 37.048 299.216 36.776 299.216 36.232V36.04C299.216 35.72 299.552 35.224 300.224 34.552C300.928 33.88 301.28 33.16 301.28 32.392V21.208C301.28 20.728 301.152 20.296 300.896 19.912C300.672 19.528 300.4 19.256 300.08 19.096C299.792 18.904 299.52 18.68 299.264 18.424C299.04 18.168 298.928 17.912 298.928 17.656V17.464C298.928 17.112 299.248 16.776 299.888 16.456L305.6 13.672C306.144 13.416 306.544 13.4 306.8 13.624C307.088 13.816 307.232 14.168 307.232 14.68V17.368C308.608 14.776 310.976 13.48 314.336 13.48C316.768 13.48 318.832 14.296 320.528 15.928C322.256 17.56 323.248 20.152 323.504 23.704L324.08 32.344ZM350.75 37.48C346.942 37.48 343.79 36.312 341.294 33.976C338.83 31.608 337.598 28.728 337.598 25.336C337.598 21.912 338.814 19.08 341.246 16.84C343.678 14.6 346.606 13.48 350.03 13.48C353.71 13.48 356.782 14.648 359.246 16.984C361.71 19.288 362.942 22.152 362.942 25.576C362.942 29 361.774 31.848 359.438 34.12C357.134 36.36 354.238 37.48 350.75 37.48ZM351.614 35.368C352.926 35.368 353.934 34.76 354.638 33.544C355.374 32.328 355.742 30.616 355.742 28.408C355.742 26.584 355.47 24.712 354.926 22.792C354.414 20.84 353.63 19.16 352.574 17.752C351.518 16.312 350.35 15.592 349.07 15.592C346.126 15.592 344.654 17.928 344.654 22.6C344.654 24.328 344.91 26.152 345.422 28.072C345.966 29.992 346.782 31.688 347.87 33.16C348.99 34.632 350.238 35.368 351.614 35.368ZM377.456 1.816C379.44 1.816 381.136 2.376 382.544 3.496C383.984 4.616 384.704 5.928 384.704 7.432C384.704 8.072 384.464 8.648 383.984 9.16C383.536 9.672 382.88 9.928 382.016 9.928C381.056 9.928 380.304 9.72 379.76 9.304C379.216 8.888 378.864 8.392 378.704 7.816C378.544 7.208 378.4 6.616 378.272 6.04C378.176 5.432 377.952 4.92 377.6 4.504C377.248 4.056 376.736 3.832 376.064 3.832C375.264 3.832 374.672 4.184 374.288 4.888C373.904 5.56 373.728 6.44 373.76 7.528C373.824 8.616 373.952 9.704 374.144 10.792C374.368 11.88 374.656 12.936 375.008 13.96H380.864C381.12 13.96 381.344 14.056 381.536 14.248C381.728 14.44 381.824 14.664 381.824 14.92V15.832C381.824 16.088 381.728 16.312 381.536 16.504C381.344 16.664 381.12 16.744 380.864 16.744H375.2V32.344C375.2 32.92 375.392 33.432 375.776 33.88C376.192 34.328 376.592 34.712 376.976 35.032C377.392 35.352 377.6 35.672 377.6 35.992V36.184C377.6 36.728 377.296 37 376.688 37H367.328C366.656 37 366.32 36.728 366.32 36.184V35.992C366.32 35.672 366.64 35.176 367.28 34.504C367.92 33.832 368.24 33.112 368.24 32.344V16.744H364.832C364.16 16.744 363.824 16.44 363.824 15.832V14.92C363.824 14.664 363.92 14.44 364.112 14.248C364.304 14.056 364.544 13.96 364.832 13.96H368.24V10.936C368.24 8.248 369.024 6.056 370.592 4.36C372.16 2.664 374.448 1.816 377.456 1.816ZM401.716 37.48C399.476 37.48 397.7 36.776 396.388 35.368C395.108 33.928 394.468 31.864 394.468 29.176V16.744H392.212C391.572 16.744 391.252 16.424 391.252 15.784V14.968C391.252 14.296 391.572 13.96 392.212 13.96H393.412C394.724 13.96 395.828 13.528 396.724 12.664C397.652 11.8 398.244 10.648 398.5 9.208C398.66 8.44 399.028 8.056 399.604 8.056H400.564C401.268 8.056 401.62 8.44 401.62 9.208L401.668 13.96H407.188C407.444 13.96 407.668 14.056 407.86 14.248C408.052 14.44 408.148 14.68 408.148 14.968V15.784C408.148 16.072 408.052 16.312 407.86 16.504C407.668 16.664 407.444 16.744 407.188 16.744H401.668V29.272C401.668 30.2 401.892 30.952 402.34 31.528C402.82 32.072 403.412 32.344 404.116 32.344C405.78 32.344 406.868 31.624 407.38 30.184C407.668 29.768 408.02 29.608 408.436 29.704C408.884 29.768 409.108 30.024 409.108 30.472C409.108 32.328 408.436 33.96 407.092 35.368C405.78 36.776 403.988 37.48 401.716 37.48ZM435.398 32.296C435.462 33.064 435.766 33.784 436.31 34.456C436.854 35.128 437.126 35.64 437.126 35.992V36.184C437.126 36.728 436.774 37 436.07 37H427.718C427.014 37 426.662 36.728 426.662 36.184V35.992C426.662 35.672 426.95 35.176 427.526 34.504C428.134 33.832 428.422 33.112 428.39 32.344L427.91 23.128C427.686 18.52 426.294 16.216 423.734 16.216C422.454 16.216 421.446 16.696 420.71 17.656C420.006 18.616 419.654 19.896 419.654 21.496V32.392C419.654 33.128 419.99 33.832 420.662 34.504C421.366 35.176 421.718 35.672 421.718 35.992V36.184C421.718 36.728 421.334 37 420.566 37H411.686C410.95 37 410.582 36.728 410.582 36.184V35.992C410.582 35.672 410.918 35.176 411.59 34.504C412.262 33.832 412.598 33.128 412.598 32.392V8.488C412.598 7.72 412.23 7.032 411.494 6.424C410.79 5.816 410.438 5.352 410.438 5.032V4.888C410.438 4.408 410.758 4.008 411.398 3.688L417.734 0.903998C418.278 0.679997 418.694 0.647998 418.982 0.808C419.302 0.967999 419.462 1.288 419.462 1.768L419.414 16.168C420.918 14.376 423.014 13.48 425.702 13.48C428.134 13.48 430.198 14.28 431.894 15.88C433.59 17.448 434.55 19.928 434.774 23.32L435.398 32.296ZM458.906 29.704C459.194 29.32 459.546 29.192 459.962 29.32C460.378 29.448 460.57 29.752 460.538 30.232C460.378 31.896 459.418 33.528 457.658 35.128C455.898 36.696 453.61 37.48 450.794 37.48C447.402 37.48 444.618 36.36 442.442 34.12C440.266 31.88 439.178 28.936 439.178 25.288C439.178 21.864 440.314 19.048 442.586 16.84C444.858 14.6 447.594 13.48 450.794 13.48C453.706 13.48 455.946 14.168 457.514 15.544C459.082 16.92 459.866 18.504 459.866 20.296C459.866 21.768 459.162 22.824 457.754 23.464L447.098 28.312C448.41 31.096 450.522 32.488 453.434 32.488C454.65 32.488 455.738 32.232 456.698 31.72C457.69 31.176 458.426 30.504 458.906 29.704ZM449.93 15.592C448.682 15.592 447.69 16.2 446.954 17.416C446.218 18.6 445.85 20.12 445.85 21.976C445.85 23.544 446.01 24.92 446.33 26.104L452.522 22.984C453.354 22.568 453.77 21.816 453.77 20.728C453.77 19.64 453.418 18.52 452.714 17.368C452.01 16.184 451.082 15.592 449.93 15.592ZM474.712 37C474.008 37 473.656 36.728 473.656 36.184V36.04C473.656 35.72 473.96 35.224 474.568 34.552C475.176 33.848 475.48 33.128 475.48 32.392V7.528C475.48 6.792 475.176 6.088 474.568 5.416C473.96 4.712 473.656 4.2 473.656 3.88V3.688C473.656 3.176 474.008 2.92 474.712 2.92H483.688C484.424 2.92 484.792 3.176 484.792 3.688V3.88C484.792 4.2 484.456 4.712 483.784 5.416C483.112 6.088 482.776 6.792 482.776 7.528V18.184H497.464V7.528C497.464 6.792 497.16 6.088 496.552 5.416C495.944 4.712 495.64 4.2 495.64 3.88V3.688C495.64 3.176 495.992 2.92 496.696 2.92H505.672C506.408 2.92 506.776 3.176 506.776 3.688V3.88C506.776 4.2 506.424 4.712 505.72 5.416C505.048 6.088 504.712 6.792 504.712 7.528V32.392C504.712 33.128 505.048 33.848 505.72 34.552C506.424 35.224 506.776 35.72 506.776 36.04V36.184C506.776 36.728 506.408 37 505.672 37H496.696C495.992 37 495.64 36.728 495.64 36.184V36.04C495.64 35.72 495.944 35.224 496.552 34.552C497.16 33.848 497.464 33.128 497.464 32.392V21.352H482.776L482.728 32.392C482.728 33.128 483.064 33.848 483.736 34.552C484.44 35.224 484.792 35.72 484.792 36.04V36.184C484.792 36.728 484.424 37 483.688 37H474.712ZM519.173 9.4C518.341 10.168 517.221 10.552 515.813 10.552C514.405 10.552 513.253 10.168 512.357 9.4C511.493 8.6 511.061 7.576 511.061 6.328C511.061 5.112 511.493 4.12 512.357 3.352C513.253 2.552 514.405 2.152 515.813 2.152C517.221 2.152 518.341 2.552 519.173 3.352C520.037 4.12 520.469 5.112 520.469 6.328C520.469 7.576 520.037 8.6 519.173 9.4ZM511.445 37C510.741 37 510.389 36.728 510.389 36.184V35.992C510.389 35.672 510.693 35.176 511.301 34.504C511.909 33.832 512.213 33.112 512.213 32.344V21.496C512.213 20.696 511.909 19.944 511.301 19.24C510.693 18.536 510.389 18.056 510.389 17.8V17.656C510.389 17.336 510.725 17 511.397 16.648L517.397 13.672C518.005 13.416 518.485 13.4 518.837 13.624C519.189 13.816 519.365 14.152 519.365 14.632V32.344C519.365 33.112 519.701 33.832 520.373 34.504C521.045 35.176 521.381 35.672 521.381 35.992V36.184C521.381 36.728 521.013 37 520.277 37H511.445ZM544.905 13.96C546.121 13.96 546.921 14.088 547.305 14.344C547.721 14.568 547.849 14.92 547.689 15.4C547.593 15.88 547.385 16.232 547.065 16.456C546.745 16.648 546.201 16.808 545.433 16.936C544.665 17.064 544.201 17.16 544.041 17.224C545.833 19.08 546.729 21.128 546.729 23.368C546.729 25.224 546.249 26.888 545.289 28.36C544.361 29.8 543.049 30.92 541.353 31.72C545.193 32.584 547.113 34.408 547.113 37.192C547.113 39.208 545.961 40.824 543.657 42.04C541.385 43.288 538.521 43.912 535.065 43.912C531.609 43.912 528.873 43.288 526.857 42.04C524.873 40.792 523.881 39.208 523.881 37.288C523.881 36.552 524.121 35.928 524.601 35.416C525.081 34.872 525.785 34.6 526.713 34.6C527.577 34.6 528.313 34.984 528.921 35.752C529.529 36.488 529.993 37.304 530.313 38.2C530.665 39.128 531.257 39.96 532.089 40.696C532.921 41.464 533.961 41.864 535.209 41.896C536.681 41.896 537.849 41.48 538.713 40.648C539.609 39.816 540.057 38.728 540.057 37.384C540.057 34.856 539.065 33.384 537.081 32.968C536.249 33.032 535.625 33.064 535.209 33.064C531.977 33.064 529.289 32.168 527.145 30.376C525.033 28.552 523.977 26.28 523.977 23.56C523.977 20.552 525.033 18.12 527.145 16.264C529.257 14.408 531.993 13.48 535.353 13.48C536.217 13.48 537.577 13.56 539.433 13.72C541.289 13.88 543.113 13.96 544.905 13.96ZM530.745 20.392C530.745 23.016 531.289 25.432 532.377 27.64C533.497 29.816 534.793 30.904 536.265 30.904C537.385 30.904 538.265 30.472 538.905 29.608C539.577 28.712 539.913 27.544 539.913 26.104C539.913 24.536 539.689 22.952 539.241 21.352C538.793 19.752 538.121 18.392 537.225 17.272C536.329 16.152 535.353 15.592 534.297 15.592C533.209 15.592 532.345 16.024 531.705 16.888C531.065 17.752 530.745 18.92 530.745 20.392ZM574.851 32.296C574.915 33.064 575.219 33.784 575.763 34.456C576.307 35.128 576.579 35.64 576.579 35.992V36.184C576.579 36.728 576.227 37 575.523 37H567.171C566.467 37 566.115 36.728 566.115 36.184V35.992C566.115 35.672 566.403 35.176 566.979 34.504C567.587 33.832 567.875 33.112 567.843 32.344L567.363 23.128C567.139 18.52 565.747 16.216 563.187 16.216C561.907 16.216 560.899 16.696 560.163 17.656C559.459 18.616 559.107 19.896 559.107 21.496V32.392C559.107 33.128 559.443 33.832 560.115 34.504C560.819 35.176 561.171 35.672 561.171 35.992V36.184C561.171 36.728 560.787 37 560.019 37H551.139C550.403 37 550.035 36.728 550.035 36.184V35.992C550.035 35.672 550.371 35.176 551.043 34.504C551.715 33.832 552.051 33.128 552.051 32.392V8.488C552.051 7.72 551.683 7.032 550.947 6.424C550.243 5.816 549.891 5.352 549.891 5.032V4.888C549.891 4.408 550.211 4.008 550.851 3.688L557.187 0.903998C557.731 0.679997 558.147 0.647998 558.435 0.808C558.755 0.967999 558.915 1.288 558.915 1.768L558.867 16.168C560.371 14.376 562.467 13.48 565.155 13.48C567.587 13.48 569.651 14.28 571.347 15.88C573.043 17.448 574.003 19.928 574.227 23.32L574.851 32.296ZM598.359 29.704C598.647 29.32 598.999 29.192 599.415 29.32C599.831 29.448 600.023 29.752 599.991 30.232C599.831 31.896 598.871 33.528 597.111 35.128C595.351 36.696 593.063 37.48 590.247 37.48C586.855 37.48 584.071 36.36 581.895 34.12C579.719 31.88 578.631 28.936 578.631 25.288C578.631 21.864 579.767 19.048 582.039 16.84C584.311 14.6 587.047 13.48 590.247 13.48C593.159 13.48 595.399 14.168 596.967 15.544C598.535 16.92 599.319 18.504 599.319 20.296C599.319 21.768 598.615 22.824 597.207 23.464L586.551 28.312C587.863 31.096 589.975 32.488 592.887 32.488C594.103 32.488 595.191 32.232 596.151 31.72C597.143 31.176 597.879 30.504 598.359 29.704ZM589.383 15.592C588.135 15.592 587.143 16.2 586.407 17.416C585.671 18.6 585.303 20.12 585.303 21.976C585.303 23.544 585.463 24.92 585.783 26.104L591.975 22.984C592.807 22.568 593.223 21.816 593.223 20.728C593.223 19.64 592.871 18.52 592.167 17.368C591.463 16.184 590.535 15.592 589.383 15.592ZM612.481 37.432C609.473 37.432 607.009 36.888 605.089 35.8C603.169 34.712 602.209 33.4 602.209 31.864C602.209 31 602.465 30.344 602.977 29.896C603.521 29.448 604.225 29.224 605.089 29.224C606.017 29.224 606.769 29.56 607.345 30.232C607.921 30.872 608.321 31.592 608.545 32.392C608.801 33.192 609.249 33.928 609.889 34.6C610.561 35.24 611.425 35.56 612.481 35.56C613.505 35.56 614.337 35.288 614.977 34.744C615.649 34.2 615.985 33.416 615.985 32.392C615.985 31.24 615.521 30.328 614.593 29.656C613.697 28.984 612.593 28.488 611.281 28.168C609.969 27.816 608.657 27.432 607.345 27.016C606.033 26.568 604.913 25.816 603.985 24.76C603.089 23.672 602.641 22.264 602.641 20.536C602.641 18.488 603.537 16.808 605.329 15.496C607.153 14.152 609.505 13.48 612.385 13.48C615.297 13.48 617.665 14.056 619.489 15.208C621.345 16.328 622.273 17.672 622.273 19.24C622.273 19.944 622.001 20.536 621.457 21.016C620.945 21.496 620.305 21.736 619.537 21.736C618.641 21.736 617.921 21.416 617.377 20.776C616.833 20.104 616.449 19.384 616.225 18.616C616.001 17.816 615.601 17.096 615.025 16.456C614.449 15.784 613.697 15.448 612.769 15.448C611.841 15.448 611.089 15.768 610.513 16.408C609.937 17.016 609.649 17.768 609.649 18.664C609.649 19.56 609.889 20.312 610.369 20.92C610.849 21.528 611.473 21.992 612.241 22.312C613.009 22.632 613.857 22.936 614.785 23.224C615.713 23.48 616.641 23.784 617.569 24.136C618.529 24.456 619.393 24.856 620.161 25.336C620.929 25.816 621.553 26.504 622.033 27.4C622.513 28.264 622.753 29.32 622.753 30.568C622.753 32.552 621.825 34.2 619.969 35.512C618.113 36.792 615.617 37.432 612.481 37.432ZM634.732 37.48C632.492 37.48 630.716 36.776 629.404 35.368C628.124 33.928 627.484 31.864 627.484 29.176V16.744H625.228C624.588 16.744 624.268 16.424 624.268 15.784V14.968C624.268 14.296 624.588 13.96 625.228 13.96H626.428C627.74 13.96 628.844 13.528 629.74 12.664C630.668 11.8 631.26 10.648 631.516 9.208C631.676 8.44 632.044 8.056 632.62 8.056H633.58C634.284 8.056 634.636 8.44 634.636 9.208L634.684 13.96H640.204C640.46 13.96 640.684 14.056 640.876 14.248C641.068 14.44 641.164 14.68 641.164 14.968V15.784C641.164 16.072 641.068 16.312 640.876 16.504C640.684 16.664 640.46 16.744 640.204 16.744H634.684V29.272C634.684 30.2 634.908 30.952 635.356 31.528C635.836 32.072 636.428 32.344 637.132 32.344C638.796 32.344 639.884 31.624 640.396 30.184C640.684 29.768 641.036 29.608 641.452 29.704C641.9 29.768 642.124 30.024 642.124 30.472C642.124 32.328 641.452 33.96 640.108 35.368C638.796 36.776 637.004 37.48 634.732 37.48ZM688.529 39.496C688.753 39.464 688.945 39.528 689.105 39.688C689.265 39.848 689.281 40.056 689.153 40.312C688.929 41.688 688.001 42.872 686.369 43.864C684.737 44.856 682.849 45.352 680.705 45.352C679.137 45.352 677.601 45.048 676.097 44.44C674.593 43.864 673.313 43.224 672.257 42.52C671.233 41.848 669.969 41.208 668.465 40.6C666.961 40.024 665.441 39.736 663.905 39.736C663.265 39.736 662.593 39.784 661.889 39.88C661.217 40.008 660.705 40.104 660.353 40.168C660.033 40.264 659.553 40.424 658.913 40.648L658.001 40.936C657.489 41.032 657.169 40.824 657.041 40.312C656.913 39.8 657.025 39.288 657.377 38.776C658.721 37.08 660.481 35.976 662.657 35.464C659.937 33.992 657.777 31.896 656.177 29.176C654.577 26.456 653.777 23.416 653.777 20.056C653.777 14.872 655.329 10.648 658.433 7.384C661.569 4.088 665.633 2.44 670.625 2.44C675.425 2.44 679.425 4.152 682.625 7.576C685.825 10.968 687.425 15.16 687.425 20.152C687.425 24.856 685.985 28.824 683.105 32.056C680.257 35.256 676.657 37.048 672.305 37.432C672.433 37.496 672.705 37.64 673.121 37.864C673.569 38.12 673.857 38.28 673.985 38.344C674.145 38.408 674.417 38.536 674.801 38.728C675.217 38.952 675.521 39.096 675.713 39.16C675.937 39.256 676.241 39.384 676.625 39.544C677.041 39.736 677.377 39.864 677.633 39.928C677.889 39.992 678.225 40.072 678.641 40.168C679.057 40.296 679.425 40.376 679.745 40.408C680.097 40.472 680.481 40.52 680.897 40.552C681.345 40.584 681.777 40.6 682.193 40.6C683.089 40.6 683.905 40.552 684.641 40.456C685.409 40.36 685.985 40.264 686.369 40.168C686.753 40.072 687.169 39.944 687.617 39.784C688.097 39.624 688.401 39.528 688.529 39.496ZM668.033 5.56C665.825 5.56 664.065 6.36 662.753 7.96C661.473 9.56 660.833 11.688 660.833 14.344C660.833 17.608 661.345 20.776 662.369 23.848C663.425 26.92 664.881 29.448 666.737 31.432C668.593 33.384 670.609 34.36 672.785 34.36C674.993 34.36 676.769 33.544 678.113 31.912C679.457 30.28 680.129 28.2 680.129 25.672C680.129 22.536 679.601 19.432 678.545 16.36C677.489 13.256 676.017 10.68 674.129 8.632C672.241 6.584 670.209 5.56 668.033 5.56ZM713.764 32.104C713.764 32.968 713.876 33.624 714.1 34.072C714.356 34.488 714.628 34.728 714.916 34.792C715.204 34.824 715.46 34.92 715.684 35.08C715.94 35.24 716.068 35.512 716.068 35.896C716.068 36.824 714.644 37.288 711.796 37.288C710.388 37.288 709.332 37.064 708.628 36.616C707.956 36.136 707.588 35.32 707.524 34.168C706.18 36.376 703.86 37.48 700.564 37.48C697.972 37.48 695.828 36.616 694.132 34.888C692.468 33.128 691.636 30.664 691.636 27.496V19.384C691.636 18.584 691.316 17.848 690.676 17.176C690.068 16.472 689.764 15.992 689.764 15.736V15.592C689.764 15.016 690.1 14.68 690.772 14.584L696.82 13.672C698.132 13.512 698.788 13.8 698.788 14.536L698.644 28.216C698.644 32.568 699.972 34.744 702.628 34.744C703.812 34.744 704.788 34.232 705.556 33.208C706.356 32.152 706.756 30.792 706.756 29.128V19.384C706.756 18.584 706.436 17.848 705.796 17.176C705.156 16.472 704.836 15.992 704.836 15.736V15.592C704.836 15.016 705.156 14.68 705.796 14.584L711.94 13.672C713.156 13.544 713.764 13.832 713.764 14.536V32.104ZM740.114 32.2C740.21 32.936 740.386 33.528 740.642 33.976C740.93 34.424 741.218 34.712 741.506 34.84C741.794 34.936 742.05 35.064 742.274 35.224C742.498 35.384 742.61 35.608 742.61 35.896C742.61 36.824 741.074 37.288 738.002 37.288C736.594 37.288 735.554 37.112 734.882 36.76C734.242 36.376 733.858 35.688 733.73 34.696C732.482 36.552 730.354 37.48 727.346 37.48C724.658 37.48 722.482 36.856 720.818 35.608C719.154 34.36 718.322 32.568 718.322 30.232C718.29 27.928 719.106 26.136 720.77 24.856C722.434 23.576 724.514 22.936 727.01 22.936C729.122 22.936 730.866 23.416 732.242 24.376L732.194 23.8C731.874 20.76 731.426 18.616 730.85 17.368C730.274 16.12 729.298 15.496 727.922 15.496C727.058 15.496 726.354 15.816 725.81 16.456C725.266 17.096 724.882 17.8 724.658 18.568C724.434 19.336 724.066 20.04 723.554 20.68C723.042 21.32 722.386 21.64 721.586 21.64C720.722 21.64 720.018 21.4 719.474 20.92C718.962 20.408 718.706 19.752 718.706 18.952C718.706 17.288 719.586 15.96 721.346 14.968C723.138 13.976 725.33 13.48 727.922 13.48C731.026 13.48 733.57 14.36 735.554 16.12C737.538 17.88 738.706 20.28 739.058 23.32L740.114 32.2ZM729.458 35.368C730.514 35.368 731.362 34.936 732.002 34.072C732.642 33.176 732.93 32.168 732.866 31.048L732.722 29.368C732.594 27.992 732.178 26.936 731.474 26.2C730.802 25.464 729.954 25.096 728.93 25.096C727.906 25.096 727.058 25.464 726.386 26.2C725.746 26.936 725.426 27.912 725.426 29.128C725.426 30.856 725.794 32.328 726.53 33.544C727.298 34.76 728.274 35.368 729.458 35.368ZM745.016 37C744.28 37 743.912 36.728 743.912 36.184V35.992C743.912 35.672 744.216 35.176 744.824 34.504C745.464 33.832 745.784 33.128 745.784 32.392V8.776C745.784 7.944 745.464 7.192 744.824 6.52C744.216 5.848 743.912 5.384 743.912 5.128V4.936C743.912 4.552 744.232 4.232 744.872 3.976L750.92 0.999997C751.56 0.743999 752.04 0.711999 752.36 0.903998C752.712 1.096 752.888 1.416 752.888 1.864V32.392C752.888 33.128 753.224 33.832 753.896 34.504C754.6 35.176 754.952 35.672 754.952 35.992V36.184C754.952 36.728 754.584 37 753.848 37H745.016ZM766.485 9.4C765.653 10.168 764.533 10.552 763.125 10.552C761.717 10.552 760.565 10.168 759.669 9.4C758.805 8.6 758.373 7.576 758.373 6.328C758.373 5.112 758.805 4.12 759.669 3.352C760.565 2.552 761.717 2.152 763.125 2.152C764.533 2.152 765.653 2.552 766.485 3.352C767.349 4.12 767.781 5.112 767.781 6.328C767.781 7.576 767.349 8.6 766.485 9.4ZM758.757 37C758.053 37 757.701 36.728 757.701 36.184V35.992C757.701 35.672 758.005 35.176 758.613 34.504C759.221 33.832 759.525 33.112 759.525 32.344V21.496C759.525 20.696 759.221 19.944 758.613 19.24C758.005 18.536 757.701 18.056 757.701 17.8V17.656C757.701 17.336 758.037 17 758.709 16.648L764.709 13.672C765.317 13.416 765.797 13.4 766.149 13.624C766.501 13.816 766.677 14.152 766.677 14.632V32.344C766.677 33.112 767.013 33.832 767.685 34.504C768.357 35.176 768.693 35.672 768.693 35.992V36.184C768.693 36.728 768.325 37 767.589 37H758.757ZM780.841 37.48C778.601 37.48 776.825 36.776 775.513 35.368C774.233 33.928 773.593 31.864 773.593 29.176V16.744H771.337C770.697 16.744 770.377 16.424 770.377 15.784V14.968C770.377 14.296 770.697 13.96 771.337 13.96H772.537C773.849 13.96 774.953 13.528 775.849 12.664C776.777 11.8 777.369 10.648 777.625 9.208C777.785 8.44 778.153 8.056 778.729 8.056H779.689C780.393 8.056 780.745 8.44 780.745 9.208L780.793 13.96H786.313C786.569 13.96 786.793 14.056 786.985 14.248C787.177 14.44 787.273 14.68 787.273 14.968V15.784C787.273 16.072 787.177 16.312 786.985 16.504C786.793 16.664 786.569 16.744 786.313 16.744H780.793V29.272C780.793 30.2 781.017 30.952 781.465 31.528C781.945 32.072 782.537 32.344 783.241 32.344C784.905 32.344 785.993 31.624 786.505 30.184C786.793 29.768 787.145 29.608 787.561 29.704C788.009 29.768 788.233 30.024 788.233 30.472C788.233 32.328 787.561 33.96 786.217 35.368C784.905 36.776 783.113 37.48 780.841 37.48ZM813.808 13.96C814.448 13.96 814.768 14.216 814.768 14.728V14.968C814.768 15.384 814.432 15.944 813.76 16.648C813.12 17.352 812.64 18.04 812.32 18.712L803.248 38.44C802.832 39.368 802.48 40.12 802.192 40.696C801.904 41.272 801.456 42.024 800.848 42.952C800.272 43.912 799.696 44.664 799.12 45.208C798.544 45.752 797.824 46.232 796.96 46.648C796.096 47.064 795.2 47.272 794.272 47.272C792.224 47.272 790.528 46.744 789.184 45.688C787.872 44.632 787.216 43.448 787.216 42.136C787.216 41.272 787.472 40.568 787.984 40.024C788.496 39.512 789.2 39.256 790.096 39.256C790.992 39.256 791.696 39.544 792.208 40.12C792.72 40.728 793.056 41.4 793.216 42.136C793.376 42.872 793.616 43.528 793.936 44.104C794.288 44.712 794.736 45.016 795.28 45.016C796.752 45.016 798.4 42.776 800.224 38.296L790.672 18.712C790.32 18.008 789.792 17.32 789.088 16.648C788.416 15.944 788.08 15.384 788.08 14.968V14.728C788.08 14.216 788.416 13.96 789.088 13.96H798.064C798.672 13.96 798.976 14.232 798.976 14.776V14.968C798.976 15.256 798.832 15.592 798.544 15.976C798.256 16.328 798.064 16.664 797.968 16.984C797.872 17.304 797.968 17.912 798.256 18.808L803.872 31.816L809.056 19.48C809.376 18.392 809.376 17.64 809.056 17.224C808.736 16.808 808.304 16.408 807.76 16.024C807.216 15.608 806.944 15.256 806.944 14.968V14.776C806.944 14.232 807.28 13.96 807.952 13.96H813.808Z" fill="#FBFAF7"/>
</svg>
