<svg width="348" height="45" viewBox="0 0 348 45" fill="none" xmlns="http://www.w3.org/2000/svg">
<path d="M0.923969 33.201V33.06C0.923969 32.7467 1.22164 32.261 1.81697 31.603C2.4123 30.945 2.70997 30.24 2.70997 29.488V5.142C2.70997 4.42133 2.4123 3.732 1.81697 3.074C1.22164 2.38467 0.923969 1.88333 0.923969 1.57V1.382C0.923969 0.880665 1.26864 0.629998 1.95797 0.629998H10.747C11.4363 0.629998 11.781 0.880665 11.781 1.382V1.57C11.781 1.88333 11.452 2.38467 10.794 3.074C10.136 3.732 9.80697 4.42133 9.80697 5.142V29.488C9.80697 30.24 10.136 30.945 10.794 31.603C11.452 32.261 11.781 32.7467 11.781 33.06V33.201C11.781 33.7337 11.4363 34 10.747 34H1.95797C1.26864 34 0.923969 33.7337 0.923969 33.201ZM24.0704 34.47C21.877 34.47 20.138 33.7807 18.8534 32.402C17.6 30.992 16.9734 28.971 16.9734 26.339V14.166H14.7644C14.1377 14.166 13.8244 13.8527 13.8244 13.226V12.427C13.8244 11.769 14.1377 11.44 14.7644 11.44H15.9394C17.224 11.44 18.305 11.017 19.1824 10.171C20.091 9.325 20.6707 8.197 20.9214 6.787C21.078 6.035 21.4384 5.659 22.0024 5.659H22.9424C23.6317 5.659 23.9764 6.035 23.9764 6.787L24.0234 11.44H29.4284C29.679 11.44 29.8984 11.534 30.0864 11.722C30.2744 11.91 30.3684 12.145 30.3684 12.427V13.226C30.3684 13.508 30.2744 13.743 30.0864 13.931C29.8984 14.0877 29.679 14.166 29.4284 14.166H24.0234V26.433C24.0234 27.3417 24.2427 28.078 24.6814 28.642C25.1514 29.1747 25.731 29.441 26.4204 29.441C28.0497 29.441 29.115 28.736 29.6164 27.326C29.8984 26.9187 30.243 26.762 30.6504 26.856C31.089 26.9187 31.3084 27.1693 31.3084 27.608C31.3084 29.4253 30.6504 31.0233 29.3344 32.402C28.0497 33.7807 26.295 34.47 24.0704 34.47ZM34.913 13.931C33.8477 9.607 33.2994 6.14467 33.268 3.544C33.268 2.416 33.597 1.55433 34.255 0.959C34.9444 0.332332 35.7747 0.0189977 36.746 0.0189977C37.7174 0.0189977 38.5477 0.316664 39.237 0.911997C39.9264 1.50733 40.271 2.38466 40.271 3.544C40.2397 4.86 40.0047 6.646 39.566 8.902C39.1587 11.158 38.7984 12.8343 38.485 13.931C38.203 14.777 37.592 15.2 36.652 15.2C35.7434 15.1687 35.1637 14.7457 34.913 13.931ZM52.0827 34.423C49.1374 34.423 46.7247 33.8903 44.8447 32.825C42.9647 31.7597 42.0247 30.475 42.0247 28.971C42.0247 28.125 42.2754 27.4827 42.7767 27.044C43.3094 26.6053 43.9987 26.386 44.8447 26.386C45.7534 26.386 46.4897 26.715 47.0537 27.373C47.6177 27.9997 48.0094 28.7047 48.2287 29.488C48.4794 30.2713 48.9181 30.992 49.5447 31.65C50.2027 32.2767 51.0487 32.59 52.0827 32.59C53.0854 32.59 53.9001 32.3237 54.5267 31.791C55.1847 31.2583 55.5137 30.4907 55.5137 29.488C55.5137 28.36 55.0594 27.467 54.1507 26.809C53.2734 26.151 52.1924 25.6653 50.9077 25.352C49.6231 25.0073 48.3384 24.6313 47.0537 24.224C45.7691 23.7853 44.6724 23.049 43.7637 22.015C42.8864 20.9497 42.4477 19.571 42.4477 17.879C42.4477 15.8737 43.3251 14.2287 45.0797 12.944C46.8657 11.628 49.1687 10.97 51.9887 10.97C54.8401 10.97 57.1587 11.534 58.9447 12.662C60.7621 13.7587 61.6707 15.0747 61.6707 16.61C61.6707 17.2993 61.4044 17.879 60.8717 18.349C60.3704 18.819 59.7437 19.054 58.9917 19.054C58.1144 19.054 57.4094 18.7407 56.8767 18.114C56.3441 17.456 55.9681 16.751 55.7487 15.999C55.5294 15.2157 55.1377 14.5107 54.5737 13.884C54.0097 13.226 53.2734 12.897 52.3647 12.897C51.4561 12.897 50.7197 13.2103 50.1557 13.837C49.5917 14.4323 49.3097 15.1687 49.3097 16.046C49.3097 16.9233 49.5447 17.6597 50.0147 18.255C50.4847 18.8503 51.0957 19.3047 51.8477 19.618C52.5997 19.9313 53.4301 20.229 54.3387 20.511C55.2474 20.7617 56.1561 21.0593 57.0647 21.404C58.0047 21.7173 58.8507 22.109 59.6027 22.579C60.3547 23.049 60.9657 23.7227 61.4357 24.6C61.9057 25.446 62.1407 26.48 62.1407 27.702C62.1407 29.6447 61.2321 31.2583 59.4147 32.543C57.5974 33.7963 55.1534 34.423 52.0827 34.423ZM93.4706 26.856C93.7526 26.48 94.0973 26.3547 94.5046 26.48C94.912 26.6053 95.1 26.903 95.0686 27.373C94.912 29.0023 93.972 30.6003 92.2486 32.167C90.5253 33.7023 88.285 34.47 85.5276 34.47C82.2063 34.47 79.4803 33.3733 77.3496 31.18C75.219 28.9867 74.1536 26.104 74.1536 22.532C74.1536 19.1793 75.266 16.422 77.4906 14.26C79.7153 12.0667 82.3943 10.97 85.5276 10.97C88.379 10.97 90.5723 11.6437 92.1076 12.991C93.643 14.3383 94.4106 15.8893 94.4106 17.644C94.4106 19.0853 93.7213 20.1193 92.3426 20.746L81.9086 25.493C83.1933 28.219 85.2613 29.582 88.1126 29.582C89.3033 29.582 90.3686 29.3313 91.3086 28.83C92.28 28.2973 93.0006 27.6393 93.4706 26.856ZM84.6816 13.038C83.4596 13.038 82.4883 13.6333 81.7676 14.824C81.047 15.9833 80.6866 17.4717 80.6866 19.289C80.6866 20.8243 80.8433 22.1717 81.1566 23.331L87.2196 20.276C88.0343 19.8687 88.4416 19.1323 88.4416 18.067C88.4416 17.0017 88.097 15.905 87.4076 14.777C86.7183 13.6177 85.8096 13.038 84.6816 13.038ZM118.72 29.3C118.814 30.0207 118.986 30.6003 119.237 31.039C119.519 31.4777 119.801 31.7597 120.083 31.885C120.365 31.979 120.615 32.1043 120.835 32.261C121.054 32.4177 121.164 32.637 121.164 32.919C121.164 33.8277 119.66 34.282 116.652 34.282C115.273 34.282 114.255 34.1097 113.597 33.765C112.97 33.389 112.594 32.7153 112.469 31.744C111.247 33.5613 109.163 34.47 106.218 34.47C103.586 34.47 101.455 33.859 99.8256 32.637C98.1962 31.415 97.3816 29.6603 97.3816 27.373C97.3502 25.117 98.1492 23.3623 99.7786 22.109C101.408 20.8557 103.445 20.229 105.889 20.229C107.957 20.229 109.664 20.699 111.012 21.639L110.965 21.075C110.651 18.0983 110.213 15.999 109.649 14.777C109.085 13.555 108.129 12.944 106.782 12.944C105.936 12.944 105.246 13.2573 104.714 13.884C104.181 14.5107 103.805 15.2 103.586 15.952C103.366 16.704 103.006 17.3933 102.505 18.02C102.003 18.6467 101.361 18.96 100.578 18.96C99.7316 18.96 99.0422 18.725 98.5096 18.255C98.0082 17.7537 97.7576 17.1113 97.7576 16.328C97.7576 14.6987 98.6192 13.3983 100.343 12.427C102.097 11.4557 104.244 10.97 106.782 10.97C109.821 10.97 112.312 11.8317 114.255 13.555C116.197 15.2783 117.341 17.6283 117.686 20.605L118.72 29.3ZM108.286 32.402C109.32 32.402 110.15 31.979 110.777 31.133C111.403 30.2557 111.685 29.2687 111.623 28.172L111.482 26.527C111.356 25.1797 110.949 24.1457 110.26 23.425C109.602 22.7043 108.771 22.344 107.769 22.344C106.766 22.344 105.936 22.7043 105.278 23.425C104.651 24.1457 104.338 25.1013 104.338 26.292C104.338 27.984 104.698 29.4253 105.419 30.616C106.171 31.8067 107.126 32.402 108.286 32.402ZM132.497 34.423C129.551 34.423 127.139 33.8903 125.259 32.825C123.379 31.7597 122.439 30.475 122.439 28.971C122.439 28.125 122.689 27.4827 123.191 27.044C123.723 26.6053 124.413 26.386 125.259 26.386C126.167 26.386 126.904 26.715 127.468 27.373C128.032 27.9997 128.423 28.7047 128.643 29.488C128.893 30.2713 129.332 30.992 129.959 31.65C130.617 32.2767 131.463 32.59 132.497 32.59C133.499 32.59 134.314 32.3237 134.941 31.791C135.599 31.2583 135.928 30.4907 135.928 29.488C135.928 28.36 135.473 27.467 134.565 26.809C133.687 26.151 132.606 25.6653 131.322 25.352C130.037 25.0073 128.752 24.6313 127.468 24.224C126.183 23.7853 125.086 23.049 124.178 22.015C123.3 20.9497 122.862 19.571 122.862 17.879C122.862 15.8737 123.739 14.2287 125.494 12.944C127.28 11.628 129.583 10.97 132.403 10.97C135.254 10.97 137.573 11.534 139.359 12.662C141.176 13.7587 142.085 15.0747 142.085 16.61C142.085 17.2993 141.818 17.879 141.286 18.349C140.784 18.819 140.158 19.054 139.406 19.054C138.528 19.054 137.823 18.7407 137.291 18.114C136.758 17.456 136.382 16.751 136.163 15.999C135.943 15.2157 135.552 14.5107 134.988 13.884C134.424 13.226 133.687 12.897 132.779 12.897C131.87 12.897 131.134 13.2103 130.57 13.837C130.006 14.4323 129.724 15.1687 129.724 16.046C129.724 16.9233 129.959 17.6597 130.429 18.255C130.899 18.8503 131.51 19.3047 132.262 19.618C133.014 19.9313 133.844 20.229 134.753 20.511C135.661 20.7617 136.57 21.0593 137.479 21.404C138.419 21.7173 139.265 22.109 140.017 22.579C140.769 23.049 141.38 23.7227 141.85 24.6C142.32 25.446 142.555 26.48 142.555 27.702C142.555 29.6447 141.646 31.2583 139.829 32.543C138.011 33.7963 135.567 34.423 132.497 34.423ZM168.205 11.44C168.832 11.44 169.145 11.6907 169.145 12.192V12.427C169.145 12.8343 168.816 13.3827 168.158 14.072C167.531 14.7613 167.061 15.435 166.748 16.093L157.865 35.41C157.458 36.3187 157.113 37.055 156.831 37.619C156.549 38.183 156.11 38.9193 155.515 39.828C154.951 40.768 154.387 41.5043 153.823 42.037C153.259 42.5697 152.554 43.0397 151.708 43.447C150.862 43.8543 149.985 44.058 149.076 44.058C147.071 44.058 145.41 43.541 144.094 42.507C142.809 41.473 142.167 40.3137 142.167 39.029C142.167 38.183 142.418 37.4937 142.919 36.961C143.42 36.4597 144.11 36.209 144.987 36.209C145.864 36.209 146.554 36.491 147.055 37.055C147.556 37.6503 147.885 38.3083 148.042 39.029C148.199 39.7497 148.434 40.392 148.747 40.956C149.092 41.5513 149.53 41.849 150.063 41.849C151.504 41.849 153.118 39.6557 154.904 35.269L145.551 16.093C145.206 15.4037 144.689 14.73 144 14.072C143.342 13.3827 143.013 12.8343 143.013 12.427V12.192C143.013 11.6907 143.342 11.44 144 11.44H152.789C153.384 11.44 153.682 11.7063 153.682 12.239V12.427C153.682 12.709 153.541 13.038 153.259 13.414C152.977 13.7587 152.789 14.0877 152.695 14.401C152.601 14.7143 152.695 15.3097 152.977 16.187L158.476 28.924L163.552 16.845C163.865 15.7797 163.865 15.0433 163.552 14.636C163.239 14.2287 162.816 13.837 162.283 13.461C161.75 13.0537 161.484 12.709 161.484 12.427V12.239C161.484 11.7063 161.813 11.44 162.471 11.44H168.205ZM200.235 29.3C200.329 30.0207 200.502 30.6003 200.752 31.039C201.034 31.4777 201.316 31.7597 201.598 31.885C201.88 31.979 202.131 32.1043 202.35 32.261C202.57 32.4177 202.679 32.637 202.679 32.919C202.679 33.8277 201.175 34.282 198.167 34.282C196.789 34.282 195.77 34.1097 195.112 33.765C194.486 33.389 194.11 32.7153 193.984 31.744C192.762 33.5613 190.679 34.47 187.733 34.47C185.101 34.47 182.971 33.859 181.341 32.637C179.712 31.415 178.897 29.6603 178.897 27.373C178.866 25.117 179.665 23.3623 181.294 22.109C182.924 20.8557 184.96 20.229 187.404 20.229C189.472 20.229 191.18 20.699 192.527 21.639L192.48 21.075C192.167 18.0983 191.728 15.999 191.164 14.777C190.6 13.555 189.645 12.944 188.297 12.944C187.451 12.944 186.762 13.2573 186.229 13.884C185.697 14.5107 185.321 15.2 185.101 15.952C184.882 16.704 184.522 17.3933 184.02 18.02C183.519 18.6467 182.877 18.96 182.093 18.96C181.247 18.96 180.558 18.725 180.025 18.255C179.524 17.7537 179.273 17.1113 179.273 16.328C179.273 14.6987 180.135 13.3983 181.858 12.427C183.613 11.4557 185.759 10.97 188.297 10.97C191.337 10.97 193.828 11.8317 195.77 13.555C197.713 15.2783 198.857 17.6283 199.201 20.605L200.235 29.3ZM189.801 32.402C190.835 32.402 191.666 31.979 192.292 31.133C192.919 30.2557 193.201 29.2687 193.138 28.172L192.997 26.527C192.872 25.1797 192.465 24.1457 191.775 23.425C191.117 22.7043 190.287 22.344 189.284 22.344C188.282 22.344 187.451 22.7043 186.793 23.425C186.167 24.1457 185.853 25.1013 185.853 26.292C185.853 27.984 186.214 29.4253 186.934 30.616C187.686 31.8067 188.642 32.402 189.801 32.402ZM214.012 34.423C211.067 34.423 208.654 33.8903 206.774 32.825C204.894 31.7597 203.954 30.475 203.954 28.971C203.954 28.125 204.205 27.4827 204.706 27.044C205.239 26.6053 205.928 26.386 206.774 26.386C207.683 26.386 208.419 26.715 208.983 27.373C209.547 27.9997 209.939 28.7047 210.158 29.488C210.409 30.2713 210.848 30.992 211.474 31.65C212.132 32.2767 212.978 32.59 214.012 32.59C215.015 32.59 215.83 32.3237 216.456 31.791C217.114 31.2583 217.443 30.4907 217.443 29.488C217.443 28.36 216.989 27.467 216.08 26.809C215.203 26.151 214.122 25.6653 212.837 25.352C211.553 25.0073 210.268 24.6313 208.983 24.224C207.699 23.7853 206.602 23.049 205.693 22.015C204.816 20.9497 204.377 19.571 204.377 17.879C204.377 15.8737 205.255 14.2287 207.009 12.944C208.795 11.628 211.098 10.97 213.918 10.97C216.77 10.97 219.088 11.534 220.874 12.662C222.692 13.7587 223.6 15.0747 223.6 16.61C223.6 17.2993 223.334 17.879 222.801 18.349C222.3 18.819 221.673 19.054 220.921 19.054C220.044 19.054 219.339 18.7407 218.806 18.114C218.274 17.456 217.898 16.751 217.678 15.999C217.459 15.2157 217.067 14.5107 216.503 13.884C215.939 13.226 215.203 12.897 214.294 12.897C213.386 12.897 212.649 13.2103 212.085 13.837C211.521 14.4323 211.239 15.1687 211.239 16.046C211.239 16.9233 211.474 17.6597 211.944 18.255C212.414 18.8503 213.025 19.3047 213.777 19.618C214.529 19.9313 215.36 20.229 216.268 20.511C217.177 20.7617 218.086 21.0593 218.994 21.404C219.934 21.7173 220.78 22.109 221.532 22.579C222.284 23.049 222.895 23.7227 223.365 24.6C223.835 25.446 224.07 26.48 224.07 27.702C224.07 29.6447 223.162 31.2583 221.344 32.543C219.527 33.7963 217.083 34.423 214.012 34.423ZM238.151 34C237.462 34 237.117 33.7337 237.117 33.201V33.06C237.117 32.7467 237.54 32.214 238.386 31.462C239.232 30.6787 239.655 29.8953 239.655 29.112V8.667C239.655 8.009 239.483 7.50767 239.138 7.163C238.794 6.787 238.418 6.56767 238.01 6.505C237.634 6.411 237.274 6.27 236.929 6.082C236.585 5.86267 236.412 5.58067 236.412 5.236V5.001C236.412 4.531 236.835 4.108 237.681 3.732L244.261 0.864998C245.264 0.488999 246.047 0.442 246.611 0.724C247.207 0.974665 247.504 1.41333 247.504 2.04C247.504 2.38467 247.316 2.90167 246.94 3.591C246.596 4.28033 246.423 5.095 246.423 6.035V29.112C246.423 29.582 246.564 30.0363 246.846 30.475C247.128 30.8823 247.426 31.2113 247.739 31.462C248.084 31.6813 248.397 31.9477 248.679 32.261C248.961 32.543 249.102 32.8093 249.102 33.06V33.201C249.102 33.7337 248.773 34 248.115 34H238.151ZM254.688 40.862C254.218 41.144 253.779 41.0813 253.372 40.674C252.996 40.2667 252.996 39.8593 253.372 39.452C254.281 38.5747 254.923 37.8383 255.299 37.243C255.706 36.679 255.957 36.0523 256.051 35.363C256.145 34.7677 255.973 34.47 255.534 34.47C254.688 34.47 253.967 34.1097 253.372 33.389C252.777 32.6683 252.479 31.744 252.479 30.616C252.479 29.3 252.855 28.2503 253.607 27.467C254.359 26.6523 255.362 26.245 256.615 26.245C257.806 26.245 258.824 26.6993 259.67 27.608C260.516 28.4853 260.939 29.6917 260.939 31.227C260.939 35.0497 258.855 38.2613 254.688 40.862ZM298.497 25.211C298.81 25.211 299.045 25.3207 299.202 25.54C299.358 25.728 299.405 25.963 299.343 26.245L297.933 32.919C297.713 33.6397 297.322 34 296.758 34H274.762C274.48 34 274.213 33.906 273.963 33.718C273.743 33.4987 273.634 33.248 273.634 32.966V32.402C273.634 30.5847 274.198 28.783 275.326 26.997C276.485 25.211 277.879 23.5973 279.509 22.156C281.138 20.6833 282.767 19.242 284.397 17.832C286.026 16.3907 287.405 14.8867 288.533 13.32C289.692 11.722 290.272 10.1553 290.272 8.62C290.272 6.928 289.833 5.565 288.956 4.531C288.11 3.497 287.123 2.98 285.995 2.98C284.929 2.98 284.021 3.43433 283.269 4.343C282.548 5.25166 282.015 6.23866 281.671 7.304C281.357 8.36933 280.825 9.35633 280.073 10.265C279.352 11.1737 278.459 11.628 277.394 11.628C276.391 11.628 275.561 11.3303 274.903 10.735C274.245 10.1397 273.916 9.325 273.916 8.291C273.916 6.16033 275.075 4.28033 277.394 2.651C279.712 0.990332 282.564 0.159999 285.948 0.159999C289.52 0.159999 292.355 0.927666 294.455 2.463C296.585 3.967 297.651 6.23867 297.651 9.278C297.651 10.594 297.353 11.8473 296.758 13.038C296.194 14.1973 295.442 15.247 294.502 16.187C293.562 17.0957 292.512 17.9887 291.353 18.866C290.193 19.712 289.003 20.5423 287.781 21.357C286.559 22.1403 285.415 22.9237 284.35 23.707C283.284 24.4903 282.344 25.3363 281.53 26.245C280.746 27.1537 280.214 28.078 279.932 29.018H293.139C293.891 29.018 294.549 28.83 295.113 28.454C295.677 28.0467 296.068 27.608 296.288 27.138C296.538 26.6367 296.805 26.198 297.087 25.822C297.4 25.4147 297.698 25.211 297.98 25.211H298.497ZM304.488 40.862C304.018 41.144 303.579 41.0813 303.172 40.674C302.796 40.2667 302.796 39.8593 303.172 39.452C304.08 38.5747 304.723 37.8383 305.099 37.243C305.506 36.679 305.757 36.0523 305.851 35.363C305.945 34.7677 305.772 34.47 305.334 34.47C304.488 34.47 303.767 34.1097 303.172 33.389C302.576 32.6683 302.279 31.744 302.279 30.616C302.279 29.3 302.655 28.2503 303.407 27.467C304.159 26.6523 305.161 26.245 306.415 26.245C307.605 26.245 308.624 26.6993 309.47 27.608C310.316 28.4853 310.739 29.6917 310.739 31.227C310.739 35.0497 308.655 38.2613 304.488 40.862ZM337.205 14.401C340.432 14.495 343.001 15.435 344.913 17.221C346.824 18.9757 347.78 21.2473 347.78 24.036C347.78 26.9813 346.62 29.4567 344.302 31.462C341.983 33.4673 338.928 34.47 335.137 34.47C331.314 34.47 328.384 33.7963 326.348 32.449C324.311 31.1017 323.293 29.582 323.293 27.89C323.293 26.8247 323.575 25.9787 324.139 25.352C324.703 24.694 325.47 24.365 326.442 24.365C327.194 24.365 327.852 24.6157 328.416 25.117C329.011 25.6183 329.497 26.2293 329.873 26.95C330.28 27.6393 330.687 28.3443 331.095 29.065C331.502 29.7857 332.05 30.3967 332.74 30.898C333.429 31.3993 334.228 31.65 335.137 31.65C336.735 31.65 338.019 31.039 338.991 29.817C339.962 28.595 340.448 27.0283 340.448 25.117C340.448 22.8923 339.899 21.1533 338.803 19.9C337.737 18.6153 336.312 17.973 334.526 17.973H333.774C333.084 17.973 332.614 17.7067 332.364 17.174C332.144 16.6413 332.238 16.093 332.646 15.529L339.508 6.693H325.408C324.468 6.693 323.998 6.23867 323.998 5.33V1.899C323.998 1.053 324.452 0.629998 325.361 0.629998H345.994C346.746 0.629998 347.122 0.958999 347.122 1.617V2.228C347.122 2.76066 346.777 3.43433 346.088 4.249L337.205 14.401Z" fill="#163A24"/>
</svg>
