<svg width="271" height="60" viewBox="0 0 271 60" fill="none" xmlns="http://www.w3.org/2000/svg">
<path d="M17.676 19.284C17.9187 19.6947 18.18 20.04 18.46 20.32C18.7587 20.6 18.9827 20.8147 19.132 20.964C19.2813 21.0947 19.356 21.2533 19.356 21.44V21.524C19.356 21.8413 19.16 22 18.768 22H12.832C12.4213 22 12.216 21.8413 12.216 21.524V21.44C12.216 21.272 12.328 21.076 12.552 20.852C12.776 20.628 12.944 20.432 13.056 20.264C13.1867 20.096 13.168 19.816 13 19.424L8.492 11.836L5.636 14.72V19.284C5.636 19.732 5.832 20.1613 6.224 20.572C6.63467 20.964 6.84 21.2533 6.84 21.44V21.524C6.84 21.8413 6.62533 22 6.196 22H0.96C0.549333 22 0.344 21.8413 0.344 21.524V21.44C0.344 21.2533 0.521333 20.964 0.876 20.572C1.23067 20.1613 1.408 19.732 1.408 19.284V4.808C1.408 4.37867 1.23067 3.968 0.876 3.576C0.521333 3.16533 0.344 2.86667 0.344 2.68V2.568C0.344 2.26933 0.549333 2.12 0.96 2.12H6.196C6.62533 2.12 6.84 2.26933 6.84 2.568V2.68C6.84 2.86667 6.63467 3.16533 6.224 3.576C5.832 3.968 5.636 4.37867 5.636 4.808V12.144L12.804 4.836C13.0467 4.612 13.1773 4.39733 13.196 4.192C13.2333 3.968 13.196 3.79067 13.084 3.66C12.9907 3.51067 12.8787 3.34267 12.748 3.156C12.636 2.96933 12.58 2.81067 12.58 2.68V2.568C12.58 2.26933 12.7947 2.12 13.224 2.12H17.256C17.6667 2.12 17.872 2.26933 17.872 2.568V2.68C17.872 2.86667 17.7507 3.05333 17.508 3.24C17.284 3.42667 16.9573 3.66933 16.528 3.968C16.0987 4.248 15.7347 4.53733 15.436 4.836L11.404 8.896L17.676 19.284ZM34.3336 19.284C34.3709 19.732 34.5483 20.152 34.8656 20.544C35.1829 20.936 35.3416 21.2347 35.3416 21.44V21.552C35.3416 21.8693 35.1269 22.028 34.6976 22.028H29.8536C29.4243 22.028 29.2096 21.8693 29.2096 21.552V21.44C29.2096 21.2533 29.3776 20.964 29.7136 20.572C30.0683 20.18 30.2363 19.7507 30.2176 19.284L29.9376 14.104C29.8069 11.2853 28.9949 9.876 27.5016 9.876C26.7549 9.876 26.1669 10.156 25.7376 10.716C25.3269 11.276 25.1216 12.0227 25.1216 12.956V19.312C25.1216 19.76 25.3176 20.18 25.7096 20.572C26.1203 20.964 26.3256 21.2533 26.3256 21.44V21.552C26.3256 21.8693 26.1109 22.028 25.6816 22.028H20.4736C20.0443 22.028 19.8296 21.8693 19.8296 21.552V21.44C19.8296 21.2533 20.0256 20.964 20.4176 20.572C20.8283 20.18 21.0336 19.76 21.0336 19.312V12.788C21.0336 12.508 20.9589 12.256 20.8096 12.032C20.6789 11.808 20.5203 11.6493 20.3336 11.556C20.1656 11.444 20.0069 11.3133 19.8576 11.164C19.7269 11.0147 19.6616 10.8653 19.6616 10.716V10.604C19.6616 10.3987 19.8483 10.2027 20.2216 10.016L23.5536 8.392C23.8709 8.24267 24.1043 8.23333 24.2536 8.364C24.4216 8.476 24.5056 8.68133 24.5056 8.98V10.548C25.3083 9.036 26.6896 8.28 28.6496 8.28C30.0683 8.28 31.2723 8.756 32.2616 9.708C33.2696 10.66 33.8483 12.172 33.9976 14.244L34.3336 19.284ZM44.1493 22.28C41.928 22.28 40.0893 21.5987 38.6333 20.236C37.196 18.8547 36.4773 17.1747 36.4773 15.196C36.4773 13.1987 37.1867 11.5467 38.6053 10.24C40.024 8.93333 41.732 8.28 43.7293 8.28C45.876 8.28 47.668 8.96133 49.1053 10.324C50.5427 11.668 51.2613 13.3387 51.2613 15.336C51.2613 17.3333 50.58 18.9947 49.2173 20.32C47.8733 21.6267 46.184 22.28 44.1493 22.28ZM44.6533 21.048C45.4187 21.048 46.0067 20.6933 46.4173 19.984C46.8467 19.2747 47.0613 18.276 47.0613 16.988C47.0613 15.924 46.9027 14.832 46.5853 13.712C46.2867 12.5733 45.8293 11.5933 45.2133 10.772C44.5973 9.932 43.916 9.512 43.1693 9.512C41.452 9.512 40.5933 10.8747 40.5933 13.6C40.5933 14.608 40.7427 15.672 41.0413 16.792C41.3587 17.912 41.8347 18.9013 42.4693 19.76C43.1227 20.6187 43.8507 21.048 44.6533 21.048ZM71.8827 8.56C72.256 8.56 72.4427 8.70933 72.4427 9.008V9.148C72.4427 9.372 72.2187 9.67067 71.7707 10.044C71.3414 10.4173 71.052 10.828 70.9027 11.276L67.2907 21.328C67.1414 21.776 66.8427 22 66.3947 22H65.4707C64.9854 22 64.6774 21.776 64.5467 21.328L61.9707 13.04L59.3667 21.328C59.2174 21.776 58.9094 22 58.4427 22H57.7987C57.3507 22 57.052 21.776 56.9027 21.328L52.8147 11.276C52.6654 10.884 52.404 10.492 52.0307 10.1C51.6574 9.68933 51.4707 9.372 51.4707 9.148V9.008C51.4707 8.70933 51.6574 8.56 52.0307 8.56H57.0147C57.3694 8.56 57.5467 8.71867 57.5467 9.036V9.148C57.5467 9.29733 57.4814 9.44667 57.3507 9.596C57.22 9.72667 57.08 9.848 56.9307 9.96C56.8 10.072 56.6974 10.2493 56.6227 10.492C56.5667 10.7347 56.5947 11.0147 56.7067 11.332L58.9467 17.912L61.5507 9.204C61.6627 8.84933 61.8774 8.672 62.1947 8.672L63.7347 8.644C64.052 8.644 64.2667 8.812 64.3787 9.148L66.9267 17.912L69.0827 11.696C69.232 11.304 69.2507 10.968 69.1387 10.688C69.0454 10.3893 68.9054 10.1747 68.7187 10.044C68.5507 9.91333 68.3827 9.77333 68.2147 9.624C68.0467 9.456 67.9627 9.29733 67.9627 9.148V9.036C67.9627 8.71867 68.1494 8.56 68.5227 8.56H71.8827ZM95.0509 2.12C95.4616 2.12 95.6669 2.26933 95.6669 2.568V2.68C95.6669 2.904 95.4429 3.20267 94.9949 3.576C94.5656 3.94933 94.2203 4.36 93.9589 4.808L88.6949 13.908V19.312C88.6949 19.7413 88.8909 20.1613 89.2829 20.572C89.6749 20.964 89.8709 21.2533 89.8709 21.44V21.524C89.8709 21.8413 89.6656 22 89.2549 22H83.9629C83.5523 22 83.3469 21.8413 83.3469 21.524V21.44C83.3469 21.2533 83.5243 20.964 83.8789 20.572C84.2336 20.1613 84.4109 19.7413 84.4109 19.312V14.216L78.4749 4.808C78.2323 4.416 77.8683 4.024 77.3829 3.632C76.8976 3.24 76.6549 2.92267 76.6549 2.68V2.568C76.6549 2.26933 76.8789 2.12 77.3269 2.12H83.6829C84.1123 2.12 84.3269 2.26933 84.3269 2.568V2.68C84.3269 2.86667 84.1869 3.06267 83.9069 3.268C83.6456 3.47333 83.4216 3.70667 83.2349 3.968C83.0483 4.21067 83.0483 4.49067 83.2349 4.808L87.5469 12.368L91.8589 4.808C92.0269 4.54667 92.0643 4.304 91.9709 4.08C91.8776 3.856 91.7376 3.688 91.5509 3.576C91.3643 3.44533 91.1776 3.30533 90.9909 3.156C90.8229 2.988 90.7389 2.82933 90.7389 2.68V2.568C90.7389 2.26933 90.9443 2.12 91.3549 2.12H95.0509ZM100.942 22.28C98.721 22.28 96.8823 21.5987 95.4263 20.236C93.989 18.8547 93.2703 17.1747 93.2703 15.196C93.2703 13.1987 93.9796 11.5467 95.3983 10.24C96.817 8.93333 98.525 8.28 100.522 8.28C102.669 8.28 104.461 8.96133 105.898 10.324C107.336 11.668 108.054 13.3387 108.054 15.336C108.054 17.3333 107.373 18.9947 106.01 20.32C104.666 21.6267 102.977 22.28 100.942 22.28ZM101.446 21.048C102.212 21.048 102.8 20.6933 103.21 19.984C103.64 19.2747 103.854 18.276 103.854 16.988C103.854 15.924 103.696 14.832 103.378 13.712C103.08 12.5733 102.622 11.5933 102.006 10.772C101.39 9.932 100.709 9.512 99.9623 9.512C98.245 9.512 97.3863 10.8747 97.3863 13.6C97.3863 14.608 97.5356 15.672 97.8343 16.792C98.1516 17.912 98.6276 18.9013 99.2623 19.76C99.9156 20.6187 100.644 21.048 101.446 21.048ZM123.345 19.144C123.345 19.648 123.41 20.0307 123.541 20.292C123.69 20.5347 123.849 20.6747 124.017 20.712C124.185 20.7307 124.334 20.7867 124.465 20.88C124.614 20.9733 124.689 21.132 124.689 21.356C124.689 21.8973 123.858 22.168 122.197 22.168C121.375 22.168 120.759 22.0373 120.349 21.776C119.957 21.496 119.742 21.02 119.705 20.348C118.921 21.636 117.567 22.28 115.645 22.28C114.133 22.28 112.882 21.776 111.893 20.768C110.922 19.7413 110.437 18.304 110.437 16.456V11.724C110.437 11.2573 110.25 10.828 109.877 10.436C109.522 10.0253 109.345 9.74533 109.345 9.596V9.512C109.345 9.176 109.541 8.98 109.933 8.924L113.461 8.392C114.226 8.29867 114.609 8.46667 114.609 8.896L114.525 16.876C114.525 19.4147 115.299 20.684 116.849 20.684C117.539 20.684 118.109 20.3853 118.557 19.788C119.023 19.172 119.257 18.3787 119.257 17.408V11.724C119.257 11.2573 119.07 10.828 118.697 10.436C118.323 10.0253 118.137 9.74533 118.137 9.596V9.512C118.137 9.176 118.323 8.98 118.697 8.924L122.281 8.392C122.99 8.31733 123.345 8.48533 123.345 8.896V19.144ZM134.599 8.28C135.402 8.28 136.027 8.52267 136.475 9.008C136.942 9.47467 137.175 10.0813 137.175 10.828C137.175 12.3027 136.578 13.04 135.383 13.04C134.898 13.04 134.515 12.9187 134.235 12.676C133.974 12.4147 133.815 12.1347 133.759 11.836C133.703 11.5373 133.591 11.2667 133.423 11.024C133.255 10.7627 133.003 10.632 132.667 10.632C132.163 10.632 131.79 10.9307 131.547 11.528C131.305 12.1253 131.183 12.8533 131.183 13.712V19.312C131.183 19.648 131.295 19.9467 131.519 20.208C131.762 20.4507 131.995 20.6653 132.219 20.852C132.462 21.0387 132.583 21.2253 132.583 21.412V21.524C132.583 21.8413 132.378 22 131.967 22H126.787C126.358 22 126.143 21.8413 126.143 21.524V21.412C126.143 21.2253 126.321 20.936 126.675 20.544C127.049 20.152 127.235 19.7413 127.235 19.312V12.76C127.235 12.312 127.021 11.9107 126.591 11.556C126.162 11.2013 125.947 10.9307 125.947 10.744V10.632C125.947 10.3707 126.143 10.1467 126.535 9.96L129.895 8.392C130.493 8.112 130.791 8.29867 130.791 8.952V11.052C131.426 9.204 132.695 8.28 134.599 8.28ZM143.625 21.524V21.44C143.625 21.2533 143.803 20.964 144.157 20.572C144.512 20.18 144.689 19.76 144.689 19.312V4.808C144.689 4.37867 144.512 3.968 144.157 3.576C143.803 3.16533 143.625 2.86667 143.625 2.68V2.568C143.625 2.26933 143.831 2.12 144.241 2.12H149.477C149.888 2.12 150.093 2.26933 150.093 2.568V2.68C150.093 2.86667 149.897 3.16533 149.505 3.576C149.113 3.968 148.917 4.37867 148.917 4.808V19.312C148.917 19.76 149.113 20.18 149.505 20.572C149.897 20.964 150.093 21.2533 150.093 21.44V21.524C150.093 21.8413 149.888 22 149.477 22H144.241C143.831 22 143.625 21.8413 143.625 21.524ZM166.65 19.284C166.687 19.732 166.865 20.152 167.182 20.544C167.499 20.936 167.658 21.2347 167.658 21.44V21.552C167.658 21.8693 167.443 22.028 167.014 22.028H162.17C161.741 22.028 161.526 21.8693 161.526 21.552V21.44C161.526 21.2533 161.694 20.964 162.03 20.572C162.385 20.18 162.553 19.7507 162.534 19.284L162.254 14.104C162.123 11.2853 161.311 9.876 159.818 9.876C159.071 9.876 158.483 10.156 158.054 10.716C157.643 11.276 157.438 12.0227 157.438 12.956V19.312C157.438 19.76 157.634 20.18 158.026 20.572C158.437 20.964 158.642 21.2533 158.642 21.44V21.552C158.642 21.8693 158.427 22.028 157.998 22.028H152.79C152.361 22.028 152.146 21.8693 152.146 21.552V21.44C152.146 21.2533 152.342 20.964 152.734 20.572C153.145 20.18 153.35 19.76 153.35 19.312V12.788C153.35 12.508 153.275 12.256 153.126 12.032C152.995 11.808 152.837 11.6493 152.65 11.556C152.482 11.444 152.323 11.3133 152.174 11.164C152.043 11.0147 151.978 10.8653 151.978 10.716V10.604C151.978 10.3987 152.165 10.2027 152.538 10.016L155.87 8.392C156.187 8.24267 156.421 8.23333 156.57 8.364C156.738 8.476 156.822 8.68133 156.822 8.98V10.548C157.625 9.036 159.006 8.28 160.966 8.28C162.385 8.28 163.589 8.756 164.578 9.708C165.586 10.66 166.165 12.172 166.314 14.244L166.65 19.284ZM182.654 19.312C182.654 19.7413 182.84 20.1613 183.214 20.572C183.587 20.964 183.774 21.2533 183.774 21.44V21.524C183.774 21.8413 183.587 22 183.214 22H179.742C179.312 22 179.098 21.7947 179.098 21.384L179.042 20.768C178.183 21.776 176.97 22.28 175.402 22.28C173.591 22.28 172.042 21.6547 170.754 20.404C169.466 19.1347 168.822 17.4173 168.822 15.252C168.822 13.2173 169.466 11.5467 170.754 10.24C172.042 8.93333 173.6 8.28 175.43 8.28C176.736 8.28 177.828 8.644 178.706 9.372V4.892C178.706 4.51867 178.584 4.21067 178.342 3.968C178.118 3.72533 177.884 3.52 177.642 3.352C177.418 3.184 177.306 3.00667 177.306 2.82V2.736C177.306 2.41867 177.502 2.204 177.894 2.092L181.562 0.971999C182.29 0.729332 182.654 0.915999 182.654 1.532V19.312ZM176.326 21.076C176.96 21.076 177.511 20.8147 177.978 20.292C178.463 19.7507 178.706 19.0133 178.706 18.08V13.152C178.706 12.2373 178.398 11.3973 177.782 10.632C177.166 9.86667 176.456 9.484 175.654 9.484C174.795 9.484 174.114 9.848 173.61 10.576C173.106 11.2853 172.844 12.2933 172.826 13.6C172.788 14.664 172.891 15.756 173.134 16.876C173.395 17.996 173.806 18.976 174.366 19.816C174.944 20.6373 175.598 21.0573 176.326 21.076ZM198.95 19.144C198.95 19.648 199.015 20.0307 199.146 20.292C199.295 20.5347 199.454 20.6747 199.622 20.712C199.79 20.7307 199.939 20.7867 200.07 20.88C200.219 20.9733 200.294 21.132 200.294 21.356C200.294 21.8973 199.463 22.168 197.802 22.168C196.981 22.168 196.365 22.0373 195.954 21.776C195.562 21.496 195.347 21.02 195.31 20.348C194.526 21.636 193.173 22.28 191.25 22.28C189.738 22.28 188.487 21.776 187.498 20.768C186.527 19.7413 186.042 18.304 186.042 16.456V11.724C186.042 11.2573 185.855 10.828 185.482 10.436C185.127 10.0253 184.95 9.74533 184.95 9.596V9.512C184.95 9.176 185.146 8.98 185.538 8.924L189.066 8.392C189.831 8.29867 190.214 8.46667 190.214 8.896L190.13 16.876C190.13 19.4147 190.905 20.684 192.454 20.684C193.145 20.684 193.714 20.3853 194.162 19.788C194.629 19.172 194.862 18.3787 194.862 17.408V11.724C194.862 11.2573 194.675 10.828 194.302 10.436C193.929 10.0253 193.742 9.74533 193.742 9.596V9.512C193.742 9.176 193.929 8.98 194.302 8.924L197.886 8.392C198.595 8.31733 198.95 8.48533 198.95 8.896V19.144ZM207.517 22.252C205.762 22.252 204.325 21.9347 203.205 21.3C202.085 20.6653 201.525 19.9 201.525 19.004C201.525 18.5 201.674 18.1173 201.973 17.856C202.29 17.5947 202.701 17.464 203.205 17.464C203.746 17.464 204.185 17.66 204.521 18.052C204.857 18.4253 205.09 18.8453 205.221 19.312C205.37 19.7787 205.632 20.208 206.005 20.6C206.397 20.9733 206.901 21.16 207.517 21.16C208.114 21.16 208.6 21.0013 208.973 20.684C209.365 20.3667 209.561 19.9093 209.561 19.312C209.561 18.64 209.29 18.108 208.749 17.716C208.226 17.324 207.582 17.0347 206.817 16.848C206.052 16.6427 205.286 16.4187 204.521 16.176C203.756 15.9147 203.102 15.476 202.561 14.86C202.038 14.2253 201.777 13.404 201.777 12.396C201.777 11.2013 202.3 10.2213 203.345 9.456C204.409 8.672 205.781 8.28 207.461 8.28C209.16 8.28 210.541 8.616 211.605 9.288C212.688 9.94133 213.229 10.7253 213.229 11.64C213.229 12.0507 213.07 12.396 212.753 12.676C212.454 12.956 212.081 13.096 211.633 13.096C211.11 13.096 210.69 12.9093 210.373 12.536C210.056 12.144 209.832 11.724 209.701 11.276C209.57 10.8093 209.337 10.3893 209.001 10.016C208.665 9.624 208.226 9.428 207.685 9.428C207.144 9.428 206.705 9.61467 206.369 9.988C206.033 10.3427 205.865 10.7813 205.865 11.304C205.865 11.8267 206.005 12.2653 206.285 12.62C206.565 12.9747 206.929 13.2453 207.377 13.432C207.825 13.6187 208.32 13.796 208.861 13.964C209.402 14.1133 209.944 14.2907 210.485 14.496C211.045 14.6827 211.549 14.916 211.997 15.196C212.445 15.476 212.809 15.8773 213.089 16.4C213.369 16.904 213.509 17.52 213.509 18.248C213.509 19.4053 212.968 20.3667 211.885 21.132C210.802 21.8787 209.346 22.252 207.517 22.252ZM220.497 22.28C219.19 22.28 218.154 21.8693 217.389 21.048C216.642 20.208 216.269 19.004 216.269 17.436V10.184H214.953C214.579 10.184 214.393 9.99733 214.393 9.624V9.148C214.393 8.756 214.579 8.56 214.953 8.56H215.653C216.418 8.56 217.062 8.308 217.585 7.804C218.126 7.3 218.471 6.628 218.621 5.788C218.714 5.34 218.929 5.116 219.265 5.116H219.825C220.235 5.116 220.441 5.34 220.441 5.788L220.469 8.56H223.689C223.838 8.56 223.969 8.616 224.081 8.728C224.193 8.84 224.249 8.98 224.249 9.148V9.624C224.249 9.792 224.193 9.932 224.081 10.044C223.969 10.1373 223.838 10.184 223.689 10.184H220.469V17.492C220.469 18.0333 220.599 18.472 220.861 18.808C221.141 19.1253 221.486 19.284 221.897 19.284C222.867 19.284 223.502 18.864 223.801 18.024C223.969 17.7813 224.174 17.688 224.417 17.744C224.678 17.7813 224.809 17.9307 224.809 18.192C224.809 19.2747 224.417 20.2267 223.633 21.048C222.867 21.8693 221.822 22.28 220.497 22.28ZM234.404 8.28C235.207 8.28 235.832 8.52267 236.28 9.008C236.747 9.47467 236.98 10.0813 236.98 10.828C236.98 12.3027 236.383 13.04 235.188 13.04C234.703 13.04 234.32 12.9187 234.04 12.676C233.779 12.4147 233.62 12.1347 233.564 11.836C233.508 11.5373 233.396 11.2667 233.228 11.024C233.06 10.7627 232.808 10.632 232.472 10.632C231.968 10.632 231.595 10.9307 231.352 11.528C231.109 12.1253 230.988 12.8533 230.988 13.712V19.312C230.988 19.648 231.1 19.9467 231.324 20.208C231.567 20.4507 231.8 20.6653 232.024 20.852C232.267 21.0387 232.388 21.2253 232.388 21.412V21.524C232.388 21.8413 232.183 22 231.772 22H226.592C226.163 22 225.948 21.8413 225.948 21.524V21.412C225.948 21.2253 226.125 20.936 226.48 20.544C226.853 20.152 227.04 19.7413 227.04 19.312V12.76C227.04 12.312 226.825 11.9107 226.396 11.556C225.967 11.2013 225.752 10.9307 225.752 10.744V10.632C225.752 10.3707 225.948 10.1467 226.34 9.96L229.7 8.392C230.297 8.112 230.596 8.29867 230.596 8.952V11.052C231.231 9.204 232.5 8.28 234.404 8.28ZM252.169 8.56C252.542 8.56 252.729 8.70933 252.729 9.008V9.148C252.729 9.39067 252.533 9.71733 252.141 10.128C251.767 10.5387 251.487 10.94 251.301 11.332L246.009 22.84C245.766 23.3813 245.561 23.82 245.393 24.156C245.225 24.492 244.963 24.9307 244.609 25.472C244.273 26.032 243.937 26.4707 243.601 26.788C243.265 27.1053 242.845 27.3853 242.341 27.628C241.837 27.8707 241.314 27.992 240.773 27.992C239.578 27.992 238.589 27.684 237.805 27.068C237.039 26.452 236.657 25.7613 236.657 24.996C236.657 24.492 236.806 24.0813 237.105 23.764C237.403 23.4653 237.814 23.316 238.337 23.316C238.859 23.316 239.27 23.484 239.569 23.82C239.867 24.1747 240.063 24.5667 240.157 24.996C240.25 25.4253 240.39 25.808 240.577 26.144C240.782 26.4987 241.043 26.676 241.361 26.676C242.219 26.676 243.181 25.3693 244.245 22.756L238.673 11.332C238.467 10.9213 238.159 10.52 237.749 10.128C237.357 9.71733 237.161 9.39067 237.161 9.148V9.008C237.161 8.70933 237.357 8.56 237.749 8.56H242.985C243.339 8.56 243.517 8.71867 243.517 9.036V9.148C243.517 9.316 243.433 9.512 243.265 9.736C243.097 9.94133 242.985 10.1373 242.929 10.324C242.873 10.5107 242.929 10.8653 243.097 11.388L246.373 18.976L249.397 11.78C249.583 11.1453 249.583 10.7067 249.397 10.464C249.21 10.2213 248.958 9.988 248.641 9.764C248.323 9.52133 248.165 9.316 248.165 9.148V9.036C248.165 8.71867 248.361 8.56 248.753 8.56H252.169ZM254.765 10.044C254.13 7.468 253.803 5.40533 253.785 3.856C253.785 3.184 253.981 2.67067 254.373 2.316C254.783 1.94267 255.278 1.756 255.857 1.756C256.435 1.756 256.93 1.93333 257.341 2.288C257.751 2.64266 257.957 3.16533 257.957 3.856C257.938 4.64 257.798 5.704 257.537 7.048C257.294 8.392 257.079 9.39067 256.893 10.044C256.725 10.548 256.361 10.8 255.801 10.8C255.259 10.7813 254.914 10.5293 254.765 10.044ZM264.993 22.252C263.239 22.252 261.801 21.9347 260.681 21.3C259.561 20.6653 259.001 19.9 259.001 19.004C259.001 18.5 259.151 18.1173 259.449 17.856C259.767 17.5947 260.177 17.464 260.681 17.464C261.223 17.464 261.661 17.66 261.997 18.052C262.333 18.4253 262.567 18.8453 262.697 19.312C262.847 19.7787 263.108 20.208 263.481 20.6C263.873 20.9733 264.377 21.16 264.993 21.16C265.591 21.16 266.076 21.0013 266.449 20.684C266.841 20.3667 267.037 19.9093 267.037 19.312C267.037 18.64 266.767 18.108 266.225 17.716C265.703 17.324 265.059 17.0347 264.293 16.848C263.528 16.6427 262.763 16.4187 261.997 16.176C261.232 15.9147 260.579 15.476 260.037 14.86C259.515 14.2253 259.253 13.404 259.253 12.396C259.253 11.2013 259.776 10.2213 260.821 9.456C261.885 8.672 263.257 8.28 264.937 8.28C266.636 8.28 268.017 8.616 269.081 9.288C270.164 9.94133 270.705 10.7253 270.705 11.64C270.705 12.0507 270.547 12.396 270.229 12.676C269.931 12.956 269.557 13.096 269.109 13.096C268.587 13.096 268.167 12.9093 267.849 12.536C267.532 12.144 267.308 11.724 267.177 11.276C267.047 10.8093 266.813 10.3893 266.477 10.016C266.141 9.624 265.703 9.428 265.161 9.428C264.62 9.428 264.181 9.61467 263.845 9.988C263.509 10.3427 263.341 10.7813 263.341 11.304C263.341 11.8267 263.481 12.2653 263.761 12.62C264.041 12.9747 264.405 13.2453 264.853 13.432C265.301 13.6187 265.796 13.796 266.337 13.964C266.879 14.1133 267.42 14.2907 267.961 14.496C268.521 14.6827 269.025 14.916 269.473 15.196C269.921 15.476 270.285 15.8773 270.565 16.4C270.845 16.904 270.985 17.52 270.985 18.248C270.985 19.4053 270.444 20.3667 269.361 21.132C268.279 21.8787 266.823 22.252 264.993 22.252ZM0.96 53C0.549333 53 0.344 52.8413 0.344 52.524V52.44C0.344 52.2533 0.521333 51.964 0.876 51.572C1.23067 51.1613 1.408 50.7413 1.408 50.312V35.808C1.408 35.36 1.23067 34.9493 0.876 34.576C0.521333 34.184 0.344 33.8853 0.344 33.68V33.568C0.344 33.2693 0.549333 33.12 0.96 33.12H6.224C6.672 33.12 6.896 33.2693 6.896 33.568V33.68C6.896 33.8853 6.69067 34.184 6.28 34.576C5.888 34.9493 5.692 35.36 5.692 35.808V49.724C5.692 50.172 5.78533 50.5453 5.972 50.844C6.17733 51.1427 6.476 51.292 6.868 51.292H10.9C11.3667 51.292 11.796 51.1053 12.188 50.732C12.58 50.34 12.8787 49.92 13.084 49.472C13.308 49.024 13.5507 48.6133 13.812 48.24C14.092 47.848 14.3627 47.652 14.624 47.652H14.96C15.3707 47.652 15.5293 47.8573 15.436 48.268L14.708 52.188C14.596 52.7293 14.3067 53 13.84 53H0.96ZM27.943 48.744C28.111 48.52 28.3164 48.4453 28.559 48.52C28.8017 48.5947 28.9137 48.772 28.895 49.052C28.8017 50.0227 28.2417 50.9747 27.215 51.908C26.1884 52.8227 24.8537 53.28 23.211 53.28C21.2324 53.28 19.6084 52.6267 18.339 51.32C17.0697 50.0133 16.435 48.296 16.435 46.168C16.435 44.1707 17.0977 42.528 18.423 41.24C19.7484 39.9333 21.3444 39.28 23.211 39.28C24.9097 39.28 26.2164 39.6813 27.131 40.484C28.0457 41.2867 28.503 42.2107 28.503 43.256C28.503 44.1147 28.0924 44.7307 27.271 45.104L21.055 47.932C21.8204 49.556 23.0524 50.368 24.751 50.368C25.4604 50.368 26.095 50.2187 26.655 49.92C27.2337 49.6027 27.663 49.2107 27.943 48.744ZM22.707 40.512C21.979 40.512 21.4004 40.8667 20.971 41.576C20.5417 42.2667 20.327 43.1533 20.327 44.236C20.327 45.1507 20.4204 45.9533 20.607 46.644L24.219 44.824C24.7044 44.5813 24.947 44.1427 24.947 43.508C24.947 42.8733 24.7417 42.22 24.331 41.548C23.9204 40.8573 23.379 40.512 22.707 40.512ZM42.4529 39.56C43.1623 39.56 43.6289 39.6347 43.8529 39.784C44.0956 39.9147 44.1703 40.12 44.0769 40.4C44.0209 40.68 43.8996 40.8853 43.7129 41.016C43.5263 41.128 43.2089 41.2213 42.7609 41.296C42.3129 41.3707 42.0423 41.4267 41.9489 41.464C42.9943 42.5467 43.5169 43.7413 43.5169 45.048C43.5169 46.1307 43.2369 47.1013 42.6769 47.96C42.1356 48.8 41.3703 49.4533 40.3809 49.92C42.6209 50.424 43.7409 51.488 43.7409 53.112C43.7409 54.288 43.0689 55.2307 41.7249 55.94C40.3996 56.668 38.7289 57.032 36.7129 57.032C34.6969 57.032 33.1009 56.668 31.9249 55.94C30.7676 55.212 30.1889 54.288 30.1889 53.168C30.1889 52.7387 30.3289 52.3747 30.6089 52.076C30.8889 51.7587 31.2996 51.6 31.8409 51.6C32.3449 51.6 32.7743 51.824 33.1289 52.272C33.4836 52.7013 33.7543 53.1773 33.9409 53.7C34.1463 54.2413 34.4916 54.7267 34.9769 55.156C35.4623 55.604 36.0689 55.8373 36.7969 55.856C37.6556 55.856 38.3369 55.6133 38.8409 55.128C39.3636 54.6427 39.6249 54.008 39.6249 53.224C39.6249 51.7493 39.0463 50.8907 37.8889 50.648C37.4036 50.6853 37.0396 50.704 36.7969 50.704C34.9116 50.704 33.3436 50.1813 32.0929 49.136C30.8609 48.072 30.2449 46.7467 30.2449 45.16C30.2449 43.4053 30.8609 41.9867 32.0929 40.904C33.3249 39.8213 34.9209 39.28 36.8809 39.28C37.3849 39.28 38.1783 39.3267 39.2609 39.42C40.3436 39.5133 41.4076 39.56 42.4529 39.56ZM34.1929 43.312C34.1929 44.8427 34.5103 46.252 35.1449 47.54C35.7983 48.8093 36.5543 49.444 37.4129 49.444C38.0663 49.444 38.5796 49.192 38.9529 48.688C39.3449 48.1653 39.5409 47.484 39.5409 46.644C39.5409 45.7293 39.4103 44.8053 39.1489 43.872C38.8876 42.9387 38.4956 42.1453 37.9729 41.492C37.4503 40.8387 36.8809 40.512 36.2649 40.512C35.6303 40.512 35.1263 40.764 34.7529 41.268C34.3796 41.772 34.1929 42.4533 34.1929 43.312ZM58.2974 50.2C58.3534 50.6293 58.4561 50.9747 58.6054 51.236C58.7734 51.4973 58.9414 51.6653 59.1094 51.74C59.2774 51.796 59.4268 51.8707 59.5574 51.964C59.6881 52.0573 59.7534 52.188 59.7534 52.356C59.7534 52.8973 58.8574 53.168 57.0654 53.168C56.2441 53.168 55.6374 53.0653 55.2454 52.86C54.8721 52.636 54.6481 52.2347 54.5734 51.656C53.8454 52.7387 52.6041 53.28 50.8494 53.28C49.2814 53.28 48.0121 52.916 47.0414 52.188C46.0708 51.46 45.5854 50.4147 45.5854 49.052C45.5668 47.708 46.0428 46.6627 47.0134 45.916C47.9841 45.1693 49.1974 44.796 50.6534 44.796C51.8854 44.796 52.9028 45.076 53.7054 45.636L53.6774 45.3C53.4908 43.5267 53.2294 42.276 52.8934 41.548C52.5574 40.82 51.9881 40.456 51.1854 40.456C50.6814 40.456 50.2708 40.6427 49.9534 41.016C49.6361 41.3893 49.4121 41.8 49.2814 42.248C49.1508 42.696 48.9361 43.1067 48.6374 43.48C48.3388 43.8533 47.9561 44.04 47.4894 44.04C46.9854 44.04 46.5748 43.9 46.2574 43.62C45.9588 43.3213 45.8094 42.9387 45.8094 42.472C45.8094 41.5013 46.3228 40.7267 47.3494 40.148C48.3948 39.5693 49.6734 39.28 51.1854 39.28C52.9961 39.28 54.4801 39.7933 55.6374 40.82C56.7948 41.8467 57.4761 43.2467 57.6814 45.02L58.2974 50.2ZM52.0814 52.048C52.6974 52.048 53.1921 51.796 53.5654 51.292C53.9388 50.7693 54.1068 50.1813 54.0694 49.528L53.9854 48.548C53.9108 47.7453 53.6681 47.1293 53.2574 46.7C52.8654 46.2707 52.3708 46.056 51.7734 46.056C51.1761 46.056 50.6814 46.2707 50.2894 46.7C49.9161 47.1293 49.7294 47.6987 49.7294 48.408C49.7294 49.416 49.9441 50.2747 50.3734 50.984C50.8214 51.6933 51.3908 52.048 52.0814 52.048ZM61.1572 53C60.7278 53 60.5132 52.8413 60.5132 52.524V52.412C60.5132 52.2253 60.6905 51.936 61.0452 51.544C61.4185 51.152 61.6052 50.7413 61.6052 50.312V36.536C61.6052 36.0507 61.4185 35.612 61.0452 35.22C60.6905 34.828 60.5132 34.5573 60.5132 34.408V34.296C60.5132 34.072 60.6998 33.8853 61.0732 33.736L64.6012 32C64.9745 31.8507 65.2545 31.832 65.4412 31.944C65.6465 32.056 65.7492 32.2427 65.7492 32.504V50.312C65.7492 50.7413 65.9452 51.152 66.3372 51.544C66.7478 51.936 66.9532 52.2253 66.9532 52.412V52.524C66.9532 52.8413 66.7385 53 66.3092 53H61.1572ZM75.335 53C74.9243 53 74.719 52.8413 74.719 52.524V52.44C74.719 52.2533 74.8963 51.964 75.251 51.572C75.6057 51.1613 75.783 50.7413 75.783 50.312V35.808C75.783 35.36 75.6057 34.9493 75.251 34.576C74.8963 34.184 74.719 33.8853 74.719 33.68V33.568C74.719 33.2693 74.9243 33.12 75.335 33.12H80.599C81.047 33.12 81.271 33.2693 81.271 33.568V33.68C81.271 33.8853 81.0657 34.184 80.655 34.576C80.263 34.9493 80.067 35.36 80.067 35.808V49.724C80.067 50.172 80.1603 50.5453 80.347 50.844C80.5523 51.1427 80.851 51.292 81.243 51.292H85.275C85.7417 51.292 86.171 51.1053 86.563 50.732C86.955 50.34 87.2537 49.92 87.459 49.472C87.683 49.024 87.9257 48.6133 88.187 48.24C88.467 47.848 88.7377 47.652 88.999 47.652H89.335C89.7457 47.652 89.9043 47.8573 89.811 48.268L89.083 52.188C88.971 52.7293 88.6817 53 88.215 53H75.335ZM103.606 50.2C103.662 50.6293 103.765 50.9747 103.914 51.236C104.082 51.4973 104.25 51.6653 104.418 51.74C104.586 51.796 104.735 51.8707 104.866 51.964C104.997 52.0573 105.062 52.188 105.062 52.356C105.062 52.8973 104.166 53.168 102.374 53.168C101.553 53.168 100.946 53.0653 100.554 52.86C100.181 52.636 99.9567 52.2347 99.882 51.656C99.154 52.7387 97.9127 53.28 96.158 53.28C94.59 53.28 93.3207 52.916 92.35 52.188C91.3794 51.46 90.894 50.4147 90.894 49.052C90.8754 47.708 91.3514 46.6627 92.322 45.916C93.2927 45.1693 94.506 44.796 95.962 44.796C97.194 44.796 98.2114 45.076 99.014 45.636L98.986 45.3C98.7994 43.5267 98.538 42.276 98.202 41.548C97.866 40.82 97.2967 40.456 96.494 40.456C95.99 40.456 95.5794 40.6427 95.262 41.016C94.9447 41.3893 94.7207 41.8 94.59 42.248C94.4594 42.696 94.2447 43.1067 93.946 43.48C93.6474 43.8533 93.2647 44.04 92.798 44.04C92.294 44.04 91.8834 43.9 91.566 43.62C91.2674 43.3213 91.118 42.9387 91.118 42.472C91.118 41.5013 91.6314 40.7267 92.658 40.148C93.7034 39.5693 94.982 39.28 96.494 39.28C98.3047 39.28 99.7887 39.7933 100.946 40.82C102.103 41.8467 102.785 43.2467 102.99 45.02L103.606 50.2ZM97.39 52.048C98.006 52.048 98.5007 51.796 98.874 51.292C99.2474 50.7693 99.4154 50.1813 99.378 49.528L99.294 48.548C99.2194 47.7453 98.9767 47.1293 98.566 46.7C98.174 46.2707 97.6794 46.056 97.082 46.056C96.4847 46.056 95.99 46.2707 95.598 46.7C95.2247 47.1293 95.038 47.6987 95.038 48.408C95.038 49.416 95.2527 50.2747 95.682 50.984C96.13 51.6933 96.6994 52.048 97.39 52.048ZM120.494 50.284C120.531 50.732 120.708 51.152 121.026 51.544C121.343 51.936 121.502 52.2347 121.502 52.44V52.552C121.502 52.8693 121.287 53.028 120.858 53.028H116.014C115.584 53.028 115.37 52.8693 115.37 52.552V52.44C115.37 52.2533 115.538 51.964 115.874 51.572C116.228 51.18 116.396 50.7507 116.378 50.284L116.098 45.104C115.967 42.2853 115.155 40.876 113.662 40.876C112.915 40.876 112.327 41.156 111.898 41.716C111.487 42.276 111.282 43.0227 111.282 43.956V50.312C111.282 50.76 111.478 51.18 111.87 51.572C112.28 51.964 112.486 52.2533 112.486 52.44V52.552C112.486 52.8693 112.271 53.028 111.842 53.028H106.634C106.204 53.028 105.99 52.8693 105.99 52.552V52.44C105.99 52.2533 106.186 51.964 106.578 51.572C106.988 51.18 107.194 50.76 107.194 50.312V43.788C107.194 43.508 107.119 43.256 106.97 43.032C106.839 42.808 106.68 42.6493 106.494 42.556C106.326 42.444 106.167 42.3133 106.018 42.164C105.887 42.0147 105.822 41.8653 105.822 41.716V41.604C105.822 41.3987 106.008 41.2027 106.382 41.016L109.714 39.392C110.031 39.2427 110.264 39.2333 110.414 39.364C110.582 39.476 110.666 39.6813 110.666 39.98V41.548C111.468 40.036 112.85 39.28 114.81 39.28C116.228 39.28 117.432 39.756 118.422 40.708C119.43 41.66 120.008 43.172 120.158 45.244L120.494 50.284ZM136.498 50.312C136.498 50.7413 136.684 51.1613 137.058 51.572C137.431 51.964 137.618 52.2533 137.618 52.44V52.524C137.618 52.8413 137.431 53 137.058 53H133.586C133.156 53 132.942 52.7947 132.942 52.384L132.886 51.768C132.027 52.776 130.814 53.28 129.246 53.28C127.435 53.28 125.886 52.6547 124.598 51.404C123.31 50.1347 122.666 48.4173 122.666 46.252C122.666 44.2173 123.31 42.5467 124.598 41.24C125.886 39.9333 127.444 39.28 129.274 39.28C130.58 39.28 131.672 39.644 132.55 40.372V35.892C132.55 35.5187 132.428 35.2107 132.186 34.968C131.962 34.7253 131.728 34.52 131.486 34.352C131.262 34.184 131.15 34.0067 131.15 33.82V33.736C131.15 33.4187 131.346 33.204 131.738 33.092L135.406 31.972C136.134 31.7293 136.498 31.916 136.498 32.532V50.312ZM130.169 52.076C130.804 52.076 131.355 51.8147 131.822 51.292C132.307 50.7507 132.55 50.0133 132.55 49.08V44.152C132.55 43.2373 132.242 42.3973 131.626 41.632C131.01 40.8667 130.3 40.484 129.498 40.484C128.639 40.484 127.958 40.848 127.454 41.576C126.95 42.2853 126.688 43.2933 126.67 44.6C126.632 45.664 126.735 46.756 126.978 47.876C127.239 48.996 127.65 49.976 128.21 50.816C128.788 51.6373 129.442 52.0573 130.169 52.076ZM144.982 53.252C143.227 53.252 141.79 52.9347 140.67 52.3C139.55 51.6653 138.99 50.9 138.99 50.004C138.99 49.5 139.139 49.1173 139.438 48.856C139.755 48.5947 140.166 48.464 140.67 48.464C141.211 48.464 141.65 48.66 141.986 49.052C142.322 49.4253 142.555 49.8453 142.686 50.312C142.835 50.7787 143.096 51.208 143.47 51.6C143.862 51.9733 144.366 52.16 144.982 52.16C145.579 52.16 146.064 52.0013 146.438 51.684C146.83 51.3667 147.026 50.9093 147.026 50.312C147.026 49.64 146.755 49.108 146.214 48.716C145.691 48.324 145.047 48.0347 144.282 47.848C143.516 47.6427 142.751 47.4187 141.986 47.176C141.22 46.9147 140.567 46.476 140.026 45.86C139.503 45.2253 139.242 44.404 139.242 43.396C139.242 42.2013 139.764 41.2213 140.81 40.456C141.874 39.672 143.246 39.28 144.926 39.28C146.624 39.28 148.006 39.616 149.07 40.288C150.152 40.9413 150.694 41.7253 150.694 42.64C150.694 43.0507 150.535 43.396 150.218 43.676C149.919 43.956 149.546 44.096 149.098 44.096C148.575 44.096 148.155 43.9093 147.838 43.536C147.52 43.144 147.296 42.724 147.166 42.276C147.035 41.8093 146.802 41.3893 146.466 41.016C146.13 40.624 145.691 40.428 145.15 40.428C144.608 40.428 144.17 40.6147 143.834 40.988C143.498 41.3427 143.33 41.7813 143.33 42.304C143.33 42.8267 143.47 43.2653 143.75 43.62C144.03 43.9747 144.394 44.2453 144.842 44.432C145.29 44.6187 145.784 44.796 146.326 44.964C146.867 45.1133 147.408 45.2907 147.95 45.496C148.51 45.6827 149.014 45.916 149.462 46.196C149.91 46.476 150.274 46.8773 150.554 47.4C150.834 47.904 150.974 48.52 150.974 49.248C150.974 50.4053 150.432 51.3667 149.35 52.132C148.267 52.8787 146.811 53.252 144.982 53.252ZM159.472 53.28C157.4 53.28 155.673 52.5893 154.292 51.208C152.929 49.8267 152.248 48.1747 152.248 46.252C152.248 44.1613 152.929 42.4813 154.292 41.212C155.673 39.9427 157.344 39.2987 159.304 39.28C160.909 39.2613 162.272 39.6347 163.392 40.4C164.531 41.1653 165.1 42.0987 165.1 43.2C165.1 43.6107 164.96 43.956 164.68 44.236C164.4 44.4973 163.961 44.6187 163.364 44.6C162.916 44.5813 162.524 44.4227 162.188 44.124C161.852 43.8253 161.572 43.48 161.348 43.088C161.143 42.696 160.928 42.304 160.704 41.912C160.48 41.52 160.2 41.1933 159.864 40.932C159.528 40.652 159.136 40.512 158.688 40.512C157.904 40.512 157.269 40.8667 156.784 41.576C156.317 42.2853 156.084 43.172 156.084 44.236C156.084 46.1027 156.513 47.596 157.372 48.716C158.249 49.836 159.407 50.396 160.844 50.396C162.319 50.396 163.439 49.7427 164.204 48.436C164.316 48.2867 164.447 48.2027 164.596 48.184C164.764 48.1467 164.904 48.184 165.016 48.296C165.147 48.3893 165.203 48.5293 165.184 48.716C165.091 49.9667 164.54 51.04 163.532 51.936C162.543 52.832 161.189 53.28 159.472 53.28ZM179.348 50.2C179.404 50.6293 179.507 50.9747 179.656 51.236C179.824 51.4973 179.992 51.6653 180.16 51.74C180.328 51.796 180.478 51.8707 180.608 51.964C180.739 52.0573 180.804 52.188 180.804 52.356C180.804 52.8973 179.908 53.168 178.116 53.168C177.295 53.168 176.688 53.0653 176.296 52.86C175.923 52.636 175.699 52.2347 175.624 51.656C174.896 52.7387 173.655 53.28 171.9 53.28C170.332 53.28 169.063 52.916 168.092 52.188C167.122 51.46 166.636 50.4147 166.636 49.052C166.618 47.708 167.094 46.6627 168.064 45.916C169.035 45.1693 170.248 44.796 171.704 44.796C172.936 44.796 173.954 45.076 174.756 45.636L174.728 45.3C174.542 43.5267 174.28 42.276 173.944 41.548C173.608 40.82 173.039 40.456 172.236 40.456C171.732 40.456 171.322 40.6427 171.004 41.016C170.687 41.3893 170.463 41.8 170.332 42.248C170.202 42.696 169.987 43.1067 169.688 43.48C169.39 43.8533 169.007 44.04 168.54 44.04C168.036 44.04 167.626 43.9 167.308 43.62C167.01 43.3213 166.86 42.9387 166.86 42.472C166.86 41.5013 167.374 40.7267 168.4 40.148C169.446 39.5693 170.724 39.28 172.236 39.28C174.047 39.28 175.531 39.7933 176.688 40.82C177.846 41.8467 178.527 43.2467 178.732 45.02L179.348 50.2ZM173.132 52.048C173.748 52.048 174.243 51.796 174.616 51.292C174.99 50.7693 175.158 50.1813 175.12 49.528L175.036 48.548C174.962 47.7453 174.719 47.1293 174.308 46.7C173.916 46.2707 173.422 46.056 172.824 46.056C172.227 46.056 171.732 46.2707 171.34 46.7C170.967 47.1293 170.78 47.6987 170.78 48.408C170.78 49.416 170.995 50.2747 171.424 50.984C171.872 51.6933 172.442 52.048 173.132 52.048ZM189.964 39.28C191.719 39.28 193.249 39.8867 194.556 41.1C195.863 42.3133 196.516 43.9653 196.516 46.056C196.516 48.1653 195.872 49.9013 194.584 51.264C193.315 52.608 191.784 53.28 189.992 53.28C188.685 53.28 187.593 52.916 186.716 52.188V56.36C186.716 56.808 186.912 57.228 187.304 57.62C187.696 58.012 187.892 58.3013 187.892 58.488V58.6C187.892 58.9173 187.677 59.076 187.248 59.076H182.18C181.751 59.076 181.536 58.9173 181.536 58.6V58.488C181.536 58.3013 181.713 58.012 182.068 57.62C182.441 57.228 182.628 56.808 182.628 56.36V43.76C182.628 43.3493 182.413 42.976 181.984 42.64C181.555 42.2853 181.34 42.0053 181.34 41.8V41.66C181.34 41.3987 181.527 41.1747 181.9 40.988L185.036 39.448C185.745 39.0933 186.1 39.2613 186.1 39.952L186.072 41.128C186.856 39.896 188.153 39.28 189.964 39.28ZM189.572 52.076C190.468 52.076 191.159 51.7027 191.644 50.956C192.148 50.2093 192.4 49.136 192.4 47.736C192.4 45.832 192.092 44.152 191.476 42.696C190.86 41.2213 190.029 40.484 188.984 40.484C188.405 40.484 187.901 40.6987 187.472 41.128C187.043 41.5387 186.791 42.08 186.716 42.752V48.1C186.716 49.1827 187.005 50.116 187.584 50.9C188.163 51.684 188.825 52.076 189.572 52.076ZM209.533 48.744C209.701 48.52 209.906 48.4453 210.149 48.52C210.392 48.5947 210.504 48.772 210.485 49.052C210.392 50.0227 209.832 50.9747 208.805 51.908C207.778 52.8227 206.444 53.28 204.801 53.28C202.822 53.28 201.198 52.6267 199.929 51.32C198.66 50.0133 198.025 48.296 198.025 46.168C198.025 44.1707 198.688 42.528 200.013 41.24C201.338 39.9333 202.934 39.28 204.801 39.28C206.5 39.28 207.806 39.6813 208.721 40.484C209.636 41.2867 210.093 42.2107 210.093 43.256C210.093 44.1147 209.682 44.7307 208.861 45.104L202.645 47.932C203.41 49.556 204.642 50.368 206.341 50.368C207.05 50.368 207.685 50.2187 208.245 49.92C208.824 49.6027 209.253 49.2107 209.533 48.744ZM204.297 40.512C203.569 40.512 202.99 40.8667 202.561 41.576C202.132 42.2667 201.917 43.1533 201.917 44.236C201.917 45.1507 202.01 45.9533 202.197 46.644L205.809 44.824C206.294 44.5813 206.537 44.1427 206.537 43.508C206.537 42.8733 206.332 42.22 205.921 41.548C205.51 40.8573 204.969 40.512 204.297 40.512Z" fill="#163A24"/>
</svg>
