<svg width="355" height="19" viewBox="0 0 355 19" fill="none" xmlns="http://www.w3.org/2000/svg">
<path d="M6.23436 14L2.00436 2.732H1.93236C1.96836 3.104 1.99836 3.608 2.02236 4.244C2.04636 4.868 2.05836 5.522 2.05836 6.206V14H0.564359V1.148H2.95836L6.91836 11.678H6.99036L11.0224 1.148H13.3984V14H11.7964V6.098C11.7964 5.474 11.8084 4.856 11.8324 4.244C11.8684 3.632 11.8984 3.134 11.9224 2.75H11.8504L7.56636 14H6.23436ZM20.3324 4.19C21.5084 4.19 22.3784 4.448 22.9424 4.964C23.5064 5.48 23.7884 6.302 23.7884 7.43V14H22.6364L22.3304 12.632H22.2584C21.8384 13.16 21.3944 13.55 20.9264 13.802C20.4704 14.054 19.8344 14.18 19.0184 14.18C18.1424 14.18 17.4164 13.952 16.8404 13.496C16.2644 13.028 15.9764 12.302 15.9764 11.318C15.9764 10.358 16.3544 9.62 17.1104 9.104C17.8664 8.576 19.0304 8.288 20.6024 8.24L22.2404 8.186V7.61C22.2404 6.806 22.0664 6.248 21.7184 5.936C21.3704 5.624 20.8784 5.468 20.2424 5.468C19.7384 5.468 19.2584 5.546 18.8024 5.702C18.3464 5.846 17.9204 6.014 17.5244 6.206L17.0384 5.018C17.4584 4.79 17.9564 4.598 18.5324 4.442C19.1084 4.274 19.7084 4.19 20.3324 4.19ZM20.8004 9.338C19.6004 9.386 18.7664 9.578 18.2984 9.914C17.8424 10.25 17.6144 10.724 17.6144 11.336C17.6144 11.876 17.7764 12.272 18.1004 12.524C18.4364 12.776 18.8624 12.902 19.3784 12.902C20.1944 12.902 20.8724 12.68 21.4124 12.236C21.9524 11.78 22.2224 11.084 22.2224 10.148V9.284L20.8004 9.338ZM28.3343 7.466C28.3343 7.658 28.3223 7.91 28.2983 8.222C28.2863 8.534 28.2743 8.804 28.2623 9.032H28.3343C28.4063 8.936 28.5143 8.798 28.6583 8.618C28.8023 8.438 28.9463 8.258 29.0903 8.078C29.2463 7.886 29.3783 7.73 29.4863 7.61L32.5643 4.352H34.4183L30.5123 8.474L34.6883 14H32.7803L29.4323 9.5L28.3343 10.454V14H26.7683V0.319999H28.3343V7.466ZM40.1095 4.172C40.9375 4.172 41.6455 4.352 42.2335 4.712C42.8335 5.072 43.2895 5.582 43.6015 6.242C43.9255 6.89 44.0875 7.652 44.0875 8.528V9.482H37.4815C37.5055 10.574 37.7815 11.408 38.3095 11.984C38.8495 12.548 39.5995 12.83 40.5595 12.83C41.1715 12.83 41.7115 12.776 42.1795 12.668C42.6595 12.548 43.1515 12.38 43.6555 12.164V13.55C43.1635 13.766 42.6775 13.922 42.1975 14.018C41.7175 14.126 41.1475 14.18 40.4875 14.18C39.5755 14.18 38.7655 13.994 38.0575 13.622C37.3615 13.25 36.8155 12.698 36.4195 11.966C36.0355 11.222 35.8435 10.316 35.8435 9.248C35.8435 8.192 36.0175 7.286 36.3655 6.53C36.7255 5.774 37.2235 5.192 37.8595 4.784C38.5075 4.376 39.2575 4.172 40.1095 4.172ZM40.0915 5.468C39.3355 5.468 38.7355 5.714 38.2915 6.206C37.8595 6.686 37.6015 7.358 37.5175 8.222H42.4315C42.4195 7.406 42.2275 6.746 41.8555 6.242C41.4835 5.726 40.8955 5.468 40.0915 5.468ZM57.5015 11.336C57.5015 12.272 57.1535 12.98 56.4575 13.46C55.7615 13.94 54.8255 14.18 53.6495 14.18C52.9775 14.18 52.3955 14.126 51.9035 14.018C51.4235 13.91 50.9975 13.76 50.6255 13.568V12.128C51.0095 12.32 51.4715 12.5 52.0115 12.668C52.5635 12.824 53.1215 12.902 53.6855 12.902C54.4895 12.902 55.0715 12.776 55.4315 12.524C55.7915 12.26 55.9715 11.912 55.9715 11.48C55.9715 11.24 55.9055 11.024 55.7735 10.832C55.6415 10.64 55.4015 10.448 55.0535 10.256C54.7175 10.064 54.2315 9.848 53.5955 9.608C52.9715 9.368 52.4375 9.128 51.9935 8.888C51.5495 8.648 51.2075 8.36 50.9675 8.024C50.7275 7.688 50.6075 7.256 50.6075 6.728C50.6075 5.912 50.9375 5.282 51.5975 4.838C52.2695 4.394 53.1455 4.172 54.2255 4.172C54.8135 4.172 55.3595 4.232 55.8635 4.352C56.3795 4.46 56.8595 4.616 57.3035 4.82L56.7635 6.08C56.3555 5.912 55.9295 5.768 55.4855 5.648C55.0415 5.528 54.5855 5.468 54.1175 5.468C53.4695 5.468 52.9715 5.576 52.6235 5.792C52.2875 5.996 52.1195 6.278 52.1195 6.638C52.1195 6.902 52.1975 7.13 52.3535 7.322C52.5095 7.502 52.7675 7.682 53.1275 7.862C53.4995 8.03 53.9915 8.234 54.6035 8.474C55.2155 8.702 55.7375 8.936 56.1695 9.176C56.6015 9.416 56.9315 9.71 57.1595 10.058C57.3875 10.394 57.5015 10.82 57.5015 11.336ZM67.8967 4.352V14H66.6007L66.3667 12.722H66.2947C65.9827 13.226 65.5507 13.598 64.9987 13.838C64.4467 14.066 63.8587 14.18 63.2347 14.18C62.0707 14.18 61.1947 13.904 60.6067 13.352C60.0187 12.788 59.7247 11.894 59.7247 10.67V4.352H61.3267V10.562C61.3267 12.098 62.0407 12.866 63.4687 12.866C64.5367 12.866 65.2747 12.566 65.6827 11.966C66.1027 11.366 66.3127 10.502 66.3127 9.374V4.352H67.8967ZM75.4597 4.172C75.6397 4.172 75.8317 4.184 76.0357 4.208C76.2517 4.22 76.4377 4.244 76.5937 4.28L76.3957 5.738C76.2397 5.702 76.0657 5.672 75.8737 5.648C75.6937 5.624 75.5197 5.612 75.3517 5.612C74.8597 5.612 74.3977 5.75 73.9657 6.026C73.5337 6.29 73.1857 6.668 72.9217 7.16C72.6697 7.64 72.5437 8.204 72.5437 8.852V14H70.9597V4.352H72.2557L72.4357 6.116H72.5077C72.8197 5.588 73.2217 5.132 73.7137 4.748C74.2057 4.364 74.7877 4.172 75.4597 4.172ZM81.7697 4.172C82.5977 4.172 83.3057 4.352 83.8937 4.712C84.4937 5.072 84.9497 5.582 85.2617 6.242C85.5857 6.89 85.7477 7.652 85.7477 8.528V9.482H79.1417C79.1657 10.574 79.4417 11.408 79.9697 11.984C80.5097 12.548 81.2597 12.83 82.2197 12.83C82.8317 12.83 83.3717 12.776 83.8397 12.668C84.3197 12.548 84.8117 12.38 85.3157 12.164V13.55C84.8237 13.766 84.3377 13.922 83.8577 14.018C83.3777 14.126 82.8077 14.18 82.1477 14.18C81.2357 14.18 80.4257 13.994 79.7177 13.622C79.0217 13.25 78.4757 12.698 78.0797 11.966C77.6957 11.222 77.5037 10.316 77.5037 9.248C77.5037 8.192 77.6777 7.286 78.0257 6.53C78.3857 5.774 78.8837 5.192 79.5197 4.784C80.1677 4.376 80.9177 4.172 81.7697 4.172ZM81.7517 5.468C80.9957 5.468 80.3957 5.714 79.9517 6.206C79.5197 6.686 79.2617 7.358 79.1777 8.222H84.0917C84.0797 7.406 83.8877 6.746 83.5157 6.242C83.1437 5.726 82.5557 5.468 81.7517 5.468ZM91.3676 4.352H93.0596L95.1476 9.842C95.3276 10.322 95.4896 10.784 95.6336 11.228C95.7776 11.66 95.8856 12.074 95.9576 12.47H96.0296C96.1016 12.17 96.2156 11.78 96.3716 11.3C96.5276 10.808 96.6896 10.316 96.8576 9.824L98.8196 4.352H100.53L96.3716 15.332C96.0356 16.244 95.5976 16.97 95.0576 17.51C94.5296 18.05 93.7976 18.32 92.8616 18.32C92.5736 18.32 92.3216 18.302 92.1056 18.266C91.8896 18.242 91.7036 18.212 91.5476 18.176V16.916C91.6796 16.94 91.8356 16.964 92.0156 16.988C92.2076 17.012 92.4056 17.024 92.6096 17.024C93.1616 17.024 93.6056 16.868 93.9416 16.556C94.2896 16.244 94.5596 15.83 94.7516 15.314L95.2556 14.036L91.3676 4.352ZM110.443 9.158C110.443 10.754 110.035 11.99 109.219 12.866C108.415 13.742 107.323 14.18 105.943 14.18C105.091 14.18 104.329 13.988 103.657 13.604C102.997 13.208 102.475 12.638 102.091 11.894C101.707 11.138 101.515 10.226 101.515 9.158C101.515 7.562 101.917 6.332 102.721 5.468C103.525 4.604 104.617 4.172 105.997 4.172C106.873 4.172 107.641 4.37 108.301 4.766C108.973 5.15 109.495 5.714 109.867 6.458C110.251 7.19 110.443 8.09 110.443 9.158ZM103.153 9.158C103.153 10.298 103.375 11.204 103.819 11.876C104.275 12.536 104.995 12.866 105.979 12.866C106.951 12.866 107.665 12.536 108.121 11.876C108.577 11.204 108.805 10.298 108.805 9.158C108.805 8.018 108.577 7.124 108.121 6.476C107.665 5.828 106.945 5.504 105.961 5.504C104.977 5.504 104.263 5.828 103.819 6.476C103.375 7.124 103.153 8.018 103.153 9.158ZM121.018 4.352V14H119.722L119.488 12.722H119.416C119.104 13.226 118.672 13.598 118.12 13.838C117.568 14.066 116.98 14.18 116.356 14.18C115.192 14.18 114.316 13.904 113.728 13.352C113.14 12.788 112.846 11.894 112.846 10.67V4.352H114.448V10.562C114.448 12.098 115.162 12.866 116.59 12.866C117.658 12.866 118.396 12.566 118.804 11.966C119.224 11.366 119.434 10.502 119.434 9.374V4.352H121.018ZM128.581 4.172C128.761 4.172 128.953 4.184 129.157 4.208C129.373 4.22 129.559 4.244 129.715 4.28L129.517 5.738C129.361 5.702 129.187 5.672 128.995 5.648C128.815 5.624 128.641 5.612 128.473 5.612C127.981 5.612 127.519 5.75 127.087 6.026C126.655 6.29 126.307 6.668 126.043 7.16C125.791 7.64 125.665 8.204 125.665 8.852V14H124.081V4.352H125.377L125.557 6.116H125.629C125.941 5.588 126.343 5.132 126.835 4.748C127.327 4.364 127.909 4.172 128.581 4.172ZM137.776 3.65C137.776 4.058 137.764 4.442 137.74 4.802C137.728 5.15 137.71 5.426 137.686 5.63H137.776C138.052 5.222 138.43 4.88 138.91 4.604C139.39 4.328 140.008 4.19 140.764 4.19C141.964 4.19 142.924 4.61 143.644 5.45C144.376 6.278 144.742 7.52 144.742 9.176C144.742 10.832 144.376 12.08 143.644 12.92C142.912 13.76 141.952 14.18 140.764 14.18C140.008 14.18 139.39 14.042 138.91 13.766C138.43 13.49 138.052 13.16 137.776 12.776H137.65L137.326 14H136.192V0.319999H137.776V3.65ZM140.494 5.504C139.474 5.504 138.766 5.798 138.37 6.386C137.974 6.974 137.776 7.886 137.776 9.122V9.194C137.776 10.382 137.968 11.294 138.352 11.93C138.748 12.554 139.474 12.866 140.53 12.866C141.394 12.866 142.036 12.548 142.456 11.912C142.888 11.276 143.104 10.358 143.104 9.158C143.104 6.722 142.234 5.504 140.494 5.504ZM155.33 4.352V14H154.034L153.8 12.722H153.728C153.416 13.226 152.984 13.598 152.432 13.838C151.88 14.066 151.292 14.18 150.668 14.18C149.504 14.18 148.628 13.904 148.04 13.352C147.452 12.788 147.158 11.894 147.158 10.67V4.352H148.76V10.562C148.76 12.098 149.474 12.866 150.902 12.866C151.97 12.866 152.708 12.566 153.116 11.966C153.536 11.366 153.746 10.502 153.746 9.374V4.352H155.33ZM164.675 11.336C164.675 12.272 164.327 12.98 163.631 13.46C162.935 13.94 161.999 14.18 160.823 14.18C160.151 14.18 159.569 14.126 159.077 14.018C158.597 13.91 158.171 13.76 157.799 13.568V12.128C158.183 12.32 158.645 12.5 159.185 12.668C159.737 12.824 160.295 12.902 160.859 12.902C161.663 12.902 162.245 12.776 162.605 12.524C162.965 12.26 163.145 11.912 163.145 11.48C163.145 11.24 163.079 11.024 162.947 10.832C162.815 10.64 162.575 10.448 162.227 10.256C161.891 10.064 161.405 9.848 160.769 9.608C160.145 9.368 159.611 9.128 159.167 8.888C158.723 8.648 158.381 8.36 158.141 8.024C157.901 7.688 157.781 7.256 157.781 6.728C157.781 5.912 158.111 5.282 158.771 4.838C159.443 4.394 160.319 4.172 161.399 4.172C161.987 4.172 162.533 4.232 163.037 4.352C163.553 4.46 164.033 4.616 164.477 4.82L163.937 6.08C163.529 5.912 163.103 5.768 162.659 5.648C162.215 5.528 161.759 5.468 161.291 5.468C160.643 5.468 160.145 5.576 159.797 5.792C159.461 5.996 159.293 6.278 159.293 6.638C159.293 6.902 159.371 7.13 159.527 7.322C159.683 7.502 159.941 7.682 160.301 7.862C160.673 8.03 161.165 8.234 161.777 8.474C162.389 8.702 162.911 8.936 163.343 9.176C163.775 9.416 164.105 9.71 164.333 10.058C164.561 10.394 164.675 10.82 164.675 11.336ZM167.817 0.733999C168.057 0.733999 168.267 0.817999 168.447 0.985999C168.639 1.142 168.735 1.394 168.735 1.742C168.735 2.078 168.639 2.33 168.447 2.498C168.267 2.666 168.057 2.75 167.817 2.75C167.553 2.75 167.331 2.666 167.151 2.498C166.971 2.33 166.881 2.078 166.881 1.742C166.881 1.394 166.971 1.142 167.151 0.985999C167.331 0.817999 167.553 0.733999 167.817 0.733999ZM168.591 4.352V14H167.007V4.352H168.591ZM176.291 4.172C177.443 4.172 178.313 4.454 178.901 5.018C179.489 5.57 179.783 6.47 179.783 7.718V14H178.217V7.826C178.217 6.278 177.497 5.504 176.057 5.504C174.989 5.504 174.251 5.804 173.843 6.404C173.435 7.004 173.231 7.868 173.231 8.996V14H171.647V4.352H172.925L173.159 5.666H173.249C173.561 5.162 173.993 4.79 174.545 4.55C175.097 4.298 175.679 4.172 176.291 4.172ZM186.5 4.172C187.328 4.172 188.036 4.352 188.624 4.712C189.224 5.072 189.68 5.582 189.992 6.242C190.316 6.89 190.478 7.652 190.478 8.528V9.482H183.872C183.896 10.574 184.172 11.408 184.7 11.984C185.24 12.548 185.99 12.83 186.95 12.83C187.562 12.83 188.102 12.776 188.57 12.668C189.05 12.548 189.542 12.38 190.046 12.164V13.55C189.554 13.766 189.068 13.922 188.588 14.018C188.108 14.126 187.538 14.18 186.878 14.18C185.966 14.18 185.156 13.994 184.448 13.622C183.752 13.25 183.206 12.698 182.81 11.966C182.426 11.222 182.234 10.316 182.234 9.248C182.234 8.192 182.408 7.286 182.756 6.53C183.116 5.774 183.614 5.192 184.25 4.784C184.898 4.376 185.648 4.172 186.5 4.172ZM186.482 5.468C185.726 5.468 185.126 5.714 184.682 6.206C184.25 6.686 183.992 7.358 183.908 8.222H188.822C188.81 7.406 188.618 6.746 188.246 6.242C187.874 5.726 187.286 5.468 186.482 5.468ZM199.216 11.336C199.216 12.272 198.868 12.98 198.172 13.46C197.476 13.94 196.54 14.18 195.364 14.18C194.692 14.18 194.11 14.126 193.618 14.018C193.138 13.91 192.712 13.76 192.34 13.568V12.128C192.724 12.32 193.186 12.5 193.726 12.668C194.278 12.824 194.836 12.902 195.4 12.902C196.204 12.902 196.786 12.776 197.146 12.524C197.506 12.26 197.686 11.912 197.686 11.48C197.686 11.24 197.62 11.024 197.488 10.832C197.356 10.64 197.116 10.448 196.768 10.256C196.432 10.064 195.946 9.848 195.31 9.608C194.686 9.368 194.152 9.128 193.708 8.888C193.264 8.648 192.922 8.36 192.682 8.024C192.442 7.688 192.322 7.256 192.322 6.728C192.322 5.912 192.652 5.282 193.312 4.838C193.984 4.394 194.86 4.172 195.94 4.172C196.528 4.172 197.074 4.232 197.578 4.352C198.094 4.46 198.574 4.616 199.018 4.82L198.478 6.08C198.07 5.912 197.644 5.768 197.2 5.648C196.756 5.528 196.3 5.468 195.832 5.468C195.184 5.468 194.686 5.576 194.338 5.792C194.002 5.996 193.834 6.278 193.834 6.638C193.834 6.902 193.912 7.13 194.068 7.322C194.224 7.502 194.482 7.682 194.842 7.862C195.214 8.03 195.706 8.234 196.318 8.474C196.93 8.702 197.452 8.936 197.884 9.176C198.316 9.416 198.646 9.71 198.874 10.058C199.102 10.394 199.216 10.82 199.216 11.336ZM207.83 11.336C207.83 12.272 207.482 12.98 206.786 13.46C206.09 13.94 205.154 14.18 203.978 14.18C203.306 14.18 202.724 14.126 202.232 14.018C201.752 13.91 201.326 13.76 200.954 13.568V12.128C201.338 12.32 201.8 12.5 202.34 12.668C202.892 12.824 203.45 12.902 204.014 12.902C204.818 12.902 205.4 12.776 205.76 12.524C206.12 12.26 206.3 11.912 206.3 11.48C206.3 11.24 206.234 11.024 206.102 10.832C205.97 10.64 205.73 10.448 205.382 10.256C205.046 10.064 204.56 9.848 203.924 9.608C203.3 9.368 202.766 9.128 202.322 8.888C201.878 8.648 201.536 8.36 201.296 8.024C201.056 7.688 200.936 7.256 200.936 6.728C200.936 5.912 201.266 5.282 201.926 4.838C202.598 4.394 203.474 4.172 204.554 4.172C205.142 4.172 205.688 4.232 206.192 4.352C206.708 4.46 207.188 4.616 207.632 4.82L207.092 6.08C206.684 5.912 206.258 5.768 205.814 5.648C205.37 5.528 204.914 5.468 204.446 5.468C203.798 5.468 203.3 5.576 202.952 5.792C202.616 5.996 202.448 6.278 202.448 6.638C202.448 6.902 202.526 7.13 202.682 7.322C202.838 7.502 203.096 7.682 203.456 7.862C203.828 8.03 204.32 8.234 204.932 8.474C205.544 8.702 206.066 8.936 206.498 9.176C206.93 9.416 207.26 9.71 207.488 10.058C207.716 10.394 207.83 10.82 207.83 11.336ZM219.427 4.172C220.615 4.172 221.569 4.586 222.289 5.414C223.021 6.242 223.387 7.49 223.387 9.158C223.387 10.802 223.021 12.05 222.289 12.902C221.569 13.754 220.609 14.18 219.409 14.18C218.665 14.18 218.047 14.042 217.555 13.766C217.075 13.478 216.697 13.148 216.421 12.776H216.313C216.337 12.98 216.361 13.238 216.385 13.55C216.409 13.862 216.421 14.132 216.421 14.36V18.32H214.837V4.352H216.133L216.349 5.666H216.421C216.709 5.246 217.087 4.892 217.555 4.604C218.023 4.316 218.647 4.172 219.427 4.172ZM219.139 5.504C218.155 5.504 217.459 5.78 217.051 6.332C216.655 6.884 216.445 7.724 216.421 8.852V9.158C216.421 10.346 216.613 11.264 216.997 11.912C217.393 12.548 218.119 12.866 219.175 12.866C219.763 12.866 220.243 12.704 220.615 12.38C220.999 12.056 221.281 11.618 221.461 11.066C221.653 10.502 221.749 9.86 221.749 9.14C221.749 8.036 221.533 7.154 221.101 6.494C220.681 5.834 220.027 5.504 219.139 5.504ZM233.975 4.352V14H232.679L232.445 12.722H232.373C232.061 13.226 231.629 13.598 231.077 13.838C230.525 14.066 229.937 14.18 229.313 14.18C228.149 14.18 227.273 13.904 226.685 13.352C226.097 12.788 225.803 11.894 225.803 10.67V4.352H227.405V10.562C227.405 12.098 228.119 12.866 229.547 12.866C230.615 12.866 231.353 12.566 231.761 11.966C232.181 11.366 232.391 10.502 232.391 9.374V4.352H233.975ZM240.26 12.884C240.5 12.884 240.746 12.866 240.998 12.83C241.25 12.782 241.454 12.734 241.61 12.686V13.892C241.442 13.976 241.202 14.042 240.89 14.09C240.578 14.15 240.278 14.18 239.99 14.18C239.486 14.18 239.018 14.096 238.586 13.928C238.166 13.748 237.824 13.442 237.56 13.01C237.296 12.578 237.164 11.972 237.164 11.192V5.576H235.796V4.82L237.182 4.19L237.812 2.138H238.748V4.352H241.538V5.576H238.748V11.156C238.748 11.744 238.886 12.182 239.162 12.47C239.45 12.746 239.816 12.884 240.26 12.884ZM249.824 11.336C249.824 12.272 249.476 12.98 248.78 13.46C248.084 13.94 247.148 14.18 245.972 14.18C245.3 14.18 244.718 14.126 244.226 14.018C243.746 13.91 243.32 13.76 242.948 13.568V12.128C243.332 12.32 243.794 12.5 244.334 12.668C244.886 12.824 245.444 12.902 246.008 12.902C246.812 12.902 247.394 12.776 247.754 12.524C248.114 12.26 248.294 11.912 248.294 11.48C248.294 11.24 248.228 11.024 248.096 10.832C247.964 10.64 247.724 10.448 247.376 10.256C247.04 10.064 246.554 9.848 245.918 9.608C245.294 9.368 244.76 9.128 244.316 8.888C243.872 8.648 243.53 8.36 243.29 8.024C243.05 7.688 242.93 7.256 242.93 6.728C242.93 5.912 243.26 5.282 243.92 4.838C244.592 4.394 245.468 4.172 246.548 4.172C247.136 4.172 247.682 4.232 248.186 4.352C248.702 4.46 249.182 4.616 249.626 4.82L249.086 6.08C248.678 5.912 248.252 5.768 247.808 5.648C247.364 5.528 246.908 5.468 246.44 5.468C245.792 5.468 245.294 5.576 244.946 5.792C244.61 5.996 244.442 6.278 244.442 6.638C244.442 6.902 244.52 7.13 244.676 7.322C244.832 7.502 245.09 7.682 245.45 7.862C245.822 8.03 246.314 8.234 246.926 8.474C247.538 8.702 248.06 8.936 248.492 9.176C248.924 9.416 249.254 9.71 249.482 10.058C249.71 10.394 249.824 10.82 249.824 11.336ZM261.421 4.172C262.609 4.172 263.563 4.586 264.283 5.414C265.015 6.242 265.381 7.49 265.381 9.158C265.381 10.802 265.015 12.05 264.283 12.902C263.563 13.754 262.603 14.18 261.403 14.18C260.659 14.18 260.041 14.042 259.549 13.766C259.069 13.478 258.691 13.148 258.415 12.776H258.307C258.331 12.98 258.355 13.238 258.379 13.55C258.403 13.862 258.415 14.132 258.415 14.36V18.32H256.831V4.352H258.127L258.343 5.666H258.415C258.703 5.246 259.081 4.892 259.549 4.604C260.017 4.316 260.641 4.172 261.421 4.172ZM261.133 5.504C260.149 5.504 259.453 5.78 259.045 6.332C258.649 6.884 258.439 7.724 258.415 8.852V9.158C258.415 10.346 258.607 11.264 258.991 11.912C259.387 12.548 260.113 12.866 261.169 12.866C261.757 12.866 262.237 12.704 262.609 12.38C262.993 12.056 263.275 11.618 263.455 11.066C263.647 10.502 263.743 9.86 263.743 9.14C263.743 8.036 263.527 7.154 263.095 6.494C262.675 5.834 262.021 5.504 261.133 5.504ZM271.631 4.172C272.459 4.172 273.167 4.352 273.755 4.712C274.355 5.072 274.811 5.582 275.123 6.242C275.447 6.89 275.609 7.652 275.609 8.528V9.482H269.003C269.027 10.574 269.303 11.408 269.831 11.984C270.371 12.548 271.121 12.83 272.081 12.83C272.693 12.83 273.233 12.776 273.701 12.668C274.181 12.548 274.673 12.38 275.177 12.164V13.55C274.685 13.766 274.199 13.922 273.719 14.018C273.239 14.126 272.669 14.18 272.009 14.18C271.097 14.18 270.287 13.994 269.579 13.622C268.883 13.25 268.337 12.698 267.941 11.966C267.557 11.222 267.365 10.316 267.365 9.248C267.365 8.192 267.539 7.286 267.887 6.53C268.247 5.774 268.745 5.192 269.381 4.784C270.029 4.376 270.779 4.172 271.631 4.172ZM271.613 5.468C270.857 5.468 270.257 5.714 269.813 6.206C269.381 6.686 269.123 7.358 269.039 8.222H273.953C273.941 7.406 273.749 6.746 273.377 6.242C273.005 5.726 272.417 5.468 271.613 5.468ZM286.453 9.158C286.453 10.754 286.045 11.99 285.229 12.866C284.425 13.742 283.333 14.18 281.953 14.18C281.101 14.18 280.339 13.988 279.667 13.604C279.007 13.208 278.485 12.638 278.101 11.894C277.717 11.138 277.525 10.226 277.525 9.158C277.525 7.562 277.927 6.332 278.731 5.468C279.535 4.604 280.627 4.172 282.007 4.172C282.883 4.172 283.651 4.37 284.311 4.766C284.983 5.15 285.505 5.714 285.877 6.458C286.261 7.19 286.453 8.09 286.453 9.158ZM279.163 9.158C279.163 10.298 279.385 11.204 279.829 11.876C280.285 12.536 281.005 12.866 281.989 12.866C282.961 12.866 283.675 12.536 284.131 11.876C284.587 11.204 284.815 10.298 284.815 9.158C284.815 8.018 284.587 7.124 284.131 6.476C283.675 5.828 282.955 5.504 281.971 5.504C280.987 5.504 280.273 5.828 279.829 6.476C279.385 7.124 279.163 8.018 279.163 9.158ZM293.554 4.172C294.742 4.172 295.696 4.586 296.416 5.414C297.148 6.242 297.514 7.49 297.514 9.158C297.514 10.802 297.148 12.05 296.416 12.902C295.696 13.754 294.736 14.18 293.536 14.18C292.792 14.18 292.174 14.042 291.682 13.766C291.202 13.478 290.824 13.148 290.548 12.776H290.44C290.464 12.98 290.488 13.238 290.512 13.55C290.536 13.862 290.548 14.132 290.548 14.36V18.32H288.964V4.352H290.26L290.476 5.666H290.548C290.836 5.246 291.214 4.892 291.682 4.604C292.15 4.316 292.774 4.172 293.554 4.172ZM293.266 5.504C292.282 5.504 291.586 5.78 291.178 6.332C290.782 6.884 290.572 7.724 290.548 8.852V9.158C290.548 10.346 290.74 11.264 291.124 11.912C291.52 12.548 292.246 12.866 293.302 12.866C293.89 12.866 294.37 12.704 294.742 12.38C295.126 12.056 295.408 11.618 295.588 11.066C295.78 10.502 295.876 9.86 295.876 9.14C295.876 8.036 295.66 7.154 295.228 6.494C294.808 5.834 294.154 5.504 293.266 5.504ZM301.622 14H300.038V0.319999H301.622V14ZM308.404 4.172C309.232 4.172 309.94 4.352 310.528 4.712C311.128 5.072 311.584 5.582 311.896 6.242C312.22 6.89 312.382 7.652 312.382 8.528V9.482H305.776C305.8 10.574 306.076 11.408 306.604 11.984C307.144 12.548 307.894 12.83 308.854 12.83C309.466 12.83 310.006 12.776 310.474 12.668C310.954 12.548 311.446 12.38 311.95 12.164V13.55C311.458 13.766 310.972 13.922 310.492 14.018C310.012 14.126 309.442 14.18 308.782 14.18C307.87 14.18 307.06 13.994 306.352 13.622C305.656 13.25 305.11 12.698 304.714 11.966C304.33 11.222 304.138 10.316 304.138 9.248C304.138 8.192 304.312 7.286 304.66 6.53C305.02 5.774 305.518 5.192 306.154 4.784C306.802 4.376 307.552 4.172 308.404 4.172ZM308.386 5.468C307.63 5.468 307.03 5.714 306.586 6.206C306.154 6.686 305.896 7.358 305.812 8.222H310.726C310.714 7.406 310.522 6.746 310.15 6.242C309.778 5.726 309.19 5.468 308.386 5.468ZM323.96 5.576H321.53V14H319.946V5.576H318.254V4.838L319.946 4.298V3.74C319.946 2.492 320.222 1.598 320.774 1.058C321.326 0.505999 322.094 0.229999 323.078 0.229999C323.462 0.229999 323.81 0.265999 324.122 0.337999C324.446 0.398 324.722 0.47 324.95 0.553999L324.536 1.796C324.344 1.736 324.122 1.676 323.87 1.616C323.618 1.556 323.36 1.526 323.096 1.526C322.568 1.526 322.172 1.706 321.908 2.066C321.656 2.414 321.53 2.966 321.53 3.722V4.352H323.96V5.576ZM326.516 0.733999C326.756 0.733999 326.966 0.817999 327.146 0.985999C327.338 1.142 327.434 1.394 327.434 1.742C327.434 2.078 327.338 2.33 327.146 2.498C326.966 2.666 326.756 2.75 326.516 2.75C326.252 2.75 326.03 2.666 325.85 2.498C325.67 2.33 325.58 2.078 325.58 1.742C325.58 1.394 325.67 1.142 325.85 0.985999C326.03 0.817999 326.252 0.733999 326.516 0.733999ZM327.29 4.352V14H325.706V4.352H327.29ZM334.843 4.172C335.023 4.172 335.215 4.184 335.419 4.208C335.635 4.22 335.821 4.244 335.977 4.28L335.779 5.738C335.623 5.702 335.449 5.672 335.257 5.648C335.077 5.624 334.903 5.612 334.735 5.612C334.243 5.612 333.781 5.75 333.349 6.026C332.917 6.29 332.569 6.668 332.305 7.16C332.053 7.64 331.927 8.204 331.927 8.852V14H330.343V4.352H331.639L331.819 6.116H331.891C332.203 5.588 332.605 5.132 333.097 4.748C333.589 4.364 334.171 4.172 334.843 4.172ZM344.06 11.336C344.06 12.272 343.712 12.98 343.016 13.46C342.32 13.94 341.384 14.18 340.208 14.18C339.536 14.18 338.954 14.126 338.462 14.018C337.982 13.91 337.556 13.76 337.184 13.568V12.128C337.568 12.32 338.03 12.5 338.57 12.668C339.122 12.824 339.68 12.902 340.244 12.902C341.048 12.902 341.63 12.776 341.99 12.524C342.35 12.26 342.53 11.912 342.53 11.48C342.53 11.24 342.464 11.024 342.332 10.832C342.2 10.64 341.96 10.448 341.612 10.256C341.276 10.064 340.79 9.848 340.154 9.608C339.53 9.368 338.996 9.128 338.552 8.888C338.108 8.648 337.766 8.36 337.526 8.024C337.286 7.688 337.166 7.256 337.166 6.728C337.166 5.912 337.496 5.282 338.156 4.838C338.828 4.394 339.704 4.172 340.784 4.172C341.372 4.172 341.918 4.232 342.422 4.352C342.938 4.46 343.418 4.616 343.862 4.82L343.322 6.08C342.914 5.912 342.488 5.768 342.044 5.648C341.6 5.528 341.144 5.468 340.676 5.468C340.028 5.468 339.53 5.576 339.182 5.792C338.846 5.996 338.678 6.278 338.678 6.638C338.678 6.902 338.756 7.13 338.912 7.322C339.068 7.502 339.326 7.682 339.686 7.862C340.058 8.03 340.55 8.234 341.162 8.474C341.774 8.702 342.296 8.936 342.728 9.176C343.16 9.416 343.49 9.71 343.718 10.058C343.946 10.394 344.06 10.82 344.06 11.336ZM349.613 12.884C349.853 12.884 350.099 12.866 350.351 12.83C350.603 12.782 350.807 12.734 350.963 12.686V13.892C350.795 13.976 350.555 14.042 350.243 14.09C349.931 14.15 349.631 14.18 349.343 14.18C348.839 14.18 348.371 14.096 347.939 13.928C347.519 13.748 347.177 13.442 346.913 13.01C346.649 12.578 346.517 11.972 346.517 11.192V5.576H345.149V4.82L346.535 4.19L347.165 2.138H348.101V4.352H350.891V5.576H348.101V11.156C348.101 11.744 348.239 12.182 348.515 12.47C348.803 12.746 349.169 12.884 349.613 12.884ZM352.661 13.028C352.661 12.584 352.769 12.272 352.985 12.092C353.201 11.912 353.459 11.822 353.759 11.822C354.071 11.822 354.335 11.912 354.551 12.092C354.779 12.272 354.893 12.584 354.893 13.028C354.893 13.46 354.779 13.772 354.551 13.964C354.335 14.156 354.071 14.252 353.759 14.252C353.459 14.252 353.201 14.156 352.985 13.964C352.769 13.772 352.661 13.46 352.661 13.028Z" fill="#FBFAF7"/>
</svg>
