<svg width="356" height="92" viewBox="0 0 356 92" fill="none" xmlns="http://www.w3.org/2000/svg">
<path d="M31.312 2.92C32.048 2.92 32.416 3.192 32.416 3.736V3.88C32.416 4.2 32.064 4.712 31.36 5.416C30.688 6.088 30.352 6.792 30.352 7.528V35.08C30.352 35.688 30.176 36.168 29.824 36.52C29.504 36.84 29.056 37 28.48 37H26.224C25.52 37 24.816 36.504 24.112 35.512L5.824 10.984V32.296C5.824 33.064 6.176 33.8 6.88 34.504C7.616 35.208 7.984 35.72 7.984 36.04V36.184C7.984 36.728 7.616 37 6.88 37H1.312C0.576 37 0.208 36.728 0.208 36.184V36.04C0.208 35.72 0.528 35.208 1.168 34.504C1.808 33.8 2.128 33.064 2.128 32.296V7.576C2.128 6.808 1.808 6.088 1.168 5.416C0.528 4.744 0.208 4.248 0.208 3.928V3.736C0.208 3.192 0.576 2.92 1.312 2.92H7.312C8.208 2.92 8.96 3.368 9.568 4.264L26.656 27.976V7.528C26.656 6.792 26.304 6.088 25.6 5.416C24.928 4.712 24.592 4.2 24.592 3.88V3.736C24.592 3.192 24.96 2.92 25.696 2.92H31.312ZM47.7426 37.48C43.9346 37.48 40.7826 36.312 38.2866 33.976C35.8226 31.608 34.5906 28.728 34.5906 25.336C34.5906 21.912 35.8066 19.08 38.2386 16.84C40.6706 14.6 43.5986 13.48 47.0226 13.48C50.7026 13.48 53.7746 14.648 56.2386 16.984C58.7026 19.288 59.9346 22.152 59.9346 25.576C59.9346 29 58.7666 31.848 56.4306 34.12C54.1266 36.36 51.2306 37.48 47.7426 37.48ZM48.6066 35.368C49.9186 35.368 50.9266 34.76 51.6306 33.544C52.3666 32.328 52.7346 30.616 52.7346 28.408C52.7346 26.584 52.4626 24.712 51.9186 22.792C51.4066 20.84 50.6226 19.16 49.5666 17.752C48.5106 16.312 47.3426 15.592 46.0626 15.592C43.1186 15.592 41.6466 17.928 41.6466 22.6C41.6466 24.328 41.9026 26.152 42.4146 28.072C42.9586 29.992 43.7746 31.688 44.8626 33.16C45.9826 34.632 47.2306 35.368 48.6066 35.368ZM71.896 37.48C69.656 37.48 67.88 36.776 66.568 35.368C65.288 33.928 64.648 31.864 64.648 29.176V16.744H62.392C61.752 16.744 61.432 16.424 61.432 15.784V14.968C61.432 14.296 61.752 13.96 62.392 13.96H63.592C64.904 13.96 66.008 13.528 66.904 12.664C67.832 11.8 68.424 10.648 68.68 9.208C68.84 8.44 69.208 8.056 69.784 8.056H70.744C71.448 8.056 71.8 8.44 71.8 9.208L71.848 13.96H77.368C77.624 13.96 77.848 14.056 78.04 14.248C78.232 14.44 78.328 14.68 78.328 14.968V15.784C78.328 16.072 78.232 16.312 78.04 16.504C77.848 16.664 77.624 16.744 77.368 16.744H71.848V29.272C71.848 30.2 72.072 30.952 72.52 31.528C73 32.072 73.592 32.344 74.296 32.344C75.96 32.344 77.048 31.624 77.56 30.184C77.848 29.768 78.2 29.608 78.616 29.704C79.064 29.768 79.288 30.024 79.288 30.472C79.288 32.328 78.616 33.96 77.272 35.368C75.96 36.776 74.168 37.48 71.896 37.48ZM99.5331 9.4C98.6691 10.168 97.5331 10.552 96.1251 10.552C94.7171 10.552 93.5811 10.168 92.7171 9.4C91.8531 8.6 91.4211 7.576 91.4211 6.328C91.4211 5.112 91.8531 4.12 92.7171 3.352C93.5811 2.552 94.7171 2.152 96.1251 2.152C97.5331 2.152 98.6691 2.552 99.5331 3.352C100.397 4.12 100.829 5.112 100.829 6.328C100.829 7.576 100.397 8.6 99.5331 9.4ZM92.2851 46.312C90.2051 46.312 88.5411 45.896 87.2931 45.064C86.0131 44.264 85.3731 43.112 85.3731 41.608C85.3731 40.744 85.6611 40.04 86.2371 39.496C86.8131 38.952 87.5331 38.68 88.3971 38.68C89.3571 38.68 90.0931 38.952 90.6051 39.496C91.1171 40.04 91.4211 40.648 91.5171 41.32C91.6451 41.992 91.8691 42.6 92.1891 43.144C92.5411 43.688 93.0371 43.96 93.6771 43.96C94.2531 43.96 94.7171 43.752 95.0691 43.336C95.4211 42.92 95.5971 42.392 95.5971 41.752C95.5971 40.632 95.1651 39.432 94.3011 38.152C93.4371 36.904 93.0051 35.848 93.0051 34.984V21.496C93.0051 20.696 92.7011 19.96 92.0931 19.288C91.4851 18.584 91.1811 18.088 91.1811 17.8V17.656C91.1811 17.336 91.5011 17 92.1411 16.648L98.2851 13.672C98.8931 13.416 99.3571 13.4 99.6771 13.624C100.029 13.816 100.205 14.152 100.205 14.632V37.192C100.205 39.496 99.7091 41.448 98.7171 43.048C97.2131 45.224 95.0691 46.312 92.2851 46.312ZM127.631 32.104C127.631 32.968 127.743 33.624 127.967 34.072C128.223 34.488 128.495 34.728 128.783 34.792C129.071 34.824 129.327 34.92 129.551 35.08C129.807 35.24 129.935 35.512 129.935 35.896C129.935 36.824 128.511 37.288 125.663 37.288C124.255 37.288 123.199 37.064 122.495 36.616C121.823 36.136 121.455 35.32 121.391 34.168C120.047 36.376 117.727 37.48 114.431 37.48C111.839 37.48 109.695 36.616 107.999 34.888C106.335 33.128 105.503 30.664 105.503 27.496V19.384C105.503 18.584 105.183 17.848 104.543 17.176C103.935 16.472 103.631 15.992 103.631 15.736V15.592C103.631 15.016 103.967 14.68 104.639 14.584L110.687 13.672C111.999 13.512 112.655 13.8 112.655 14.536L112.511 28.216C112.511 32.568 113.839 34.744 116.495 34.744C117.679 34.744 118.655 34.232 119.423 33.208C120.223 32.152 120.623 30.792 120.623 29.128V19.384C120.623 18.584 120.303 17.848 119.663 17.176C119.023 16.472 118.703 15.992 118.703 15.736V15.592C118.703 15.016 119.023 14.68 119.663 14.584L125.807 13.672C127.023 13.544 127.631 13.832 127.631 14.536V32.104ZM142.317 37.432C139.309 37.432 136.845 36.888 134.925 35.8C133.005 34.712 132.045 33.4 132.045 31.864C132.045 31 132.301 30.344 132.813 29.896C133.357 29.448 134.061 29.224 134.925 29.224C135.853 29.224 136.605 29.56 137.181 30.232C137.757 30.872 138.157 31.592 138.381 32.392C138.637 33.192 139.085 33.928 139.725 34.6C140.397 35.24 141.261 35.56 142.317 35.56C143.341 35.56 144.173 35.288 144.813 34.744C145.485 34.2 145.821 33.416 145.821 32.392C145.821 31.24 145.357 30.328 144.429 29.656C143.533 28.984 142.429 28.488 141.117 28.168C139.805 27.816 138.493 27.432 137.181 27.016C135.869 26.568 134.749 25.816 133.821 24.76C132.925 23.672 132.477 22.264 132.477 20.536C132.477 18.488 133.373 16.808 135.165 15.496C136.989 14.152 139.341 13.48 142.221 13.48C145.133 13.48 147.501 14.056 149.325 15.208C151.181 16.328 152.109 17.672 152.109 19.24C152.109 19.944 151.837 20.536 151.293 21.016C150.781 21.496 150.141 21.736 149.373 21.736C148.477 21.736 147.757 21.416 147.213 20.776C146.669 20.104 146.285 19.384 146.061 18.616C145.837 17.816 145.437 17.096 144.861 16.456C144.285 15.784 143.533 15.448 142.605 15.448C141.677 15.448 140.925 15.768 140.349 16.408C139.773 17.016 139.485 17.768 139.485 18.664C139.485 19.56 139.725 20.312 140.205 20.92C140.685 21.528 141.309 21.992 142.077 22.312C142.845 22.632 143.693 22.936 144.621 23.224C145.549 23.48 146.477 23.784 147.405 24.136C148.365 24.456 149.229 24.856 149.997 25.336C150.765 25.816 151.389 26.504 151.869 27.4C152.349 28.264 152.589 29.32 152.589 30.568C152.589 32.552 151.661 34.2 149.805 35.512C147.949 36.792 145.453 37.432 142.317 37.432ZM164.568 37.48C162.328 37.48 160.552 36.776 159.24 35.368C157.96 33.928 157.32 31.864 157.32 29.176V16.744H155.064C154.424 16.744 154.104 16.424 154.104 15.784V14.968C154.104 14.296 154.424 13.96 155.064 13.96H156.264C157.576 13.96 158.68 13.528 159.576 12.664C160.504 11.8 161.096 10.648 161.352 9.208C161.512 8.44 161.88 8.056 162.456 8.056H163.416C164.12 8.056 164.472 8.44 164.472 9.208L164.52 13.96H170.04C170.296 13.96 170.52 14.056 170.712 14.248C170.904 14.44 171 14.68 171 14.968V15.784C171 16.072 170.904 16.312 170.712 16.504C170.52 16.664 170.296 16.744 170.04 16.744H164.52V29.272C164.52 30.2 164.744 30.952 165.192 31.528C165.672 32.072 166.264 32.344 166.968 32.344C168.632 32.344 169.72 31.624 170.232 30.184C170.52 29.768 170.872 29.608 171.288 29.704C171.736 29.768 171.96 30.024 171.96 30.472C171.96 32.328 171.288 33.96 169.944 35.368C168.632 36.776 166.84 37.48 164.568 37.48ZM205.309 32.2C205.405 32.936 205.581 33.528 205.837 33.976C206.125 34.424 206.413 34.712 206.701 34.84C206.989 34.936 207.245 35.064 207.469 35.224C207.693 35.384 207.805 35.608 207.805 35.896C207.805 36.824 206.269 37.288 203.197 37.288C201.789 37.288 200.749 37.112 200.077 36.76C199.437 36.376 199.053 35.688 198.925 34.696C197.677 36.552 195.549 37.48 192.541 37.48C189.853 37.48 187.677 36.856 186.013 35.608C184.349 34.36 183.517 32.568 183.517 30.232C183.485 27.928 184.301 26.136 185.965 24.856C187.629 23.576 189.709 22.936 192.205 22.936C194.317 22.936 196.061 23.416 197.437 24.376L197.389 23.8C197.069 20.76 196.621 18.616 196.045 17.368C195.469 16.12 194.493 15.496 193.117 15.496C192.253 15.496 191.549 15.816 191.005 16.456C190.461 17.096 190.077 17.8 189.853 18.568C189.629 19.336 189.261 20.04 188.749 20.68C188.237 21.32 187.581 21.64 186.781 21.64C185.917 21.64 185.213 21.4 184.669 20.92C184.157 20.408 183.901 19.752 183.901 18.952C183.901 17.288 184.781 15.96 186.541 14.968C188.333 13.976 190.525 13.48 193.117 13.48C196.221 13.48 198.765 14.36 200.749 16.12C202.733 17.88 203.901 20.28 204.253 23.32L205.309 32.2ZM194.653 35.368C195.709 35.368 196.557 34.936 197.197 34.072C197.837 33.176 198.125 32.168 198.061 31.048L197.917 29.368C197.789 27.992 197.373 26.936 196.669 26.2C195.997 25.464 195.149 25.096 194.125 25.096C193.101 25.096 192.253 25.464 191.581 26.2C190.941 26.936 190.621 27.912 190.621 29.128C190.621 30.856 190.989 32.328 191.725 33.544C192.493 34.76 193.469 35.368 194.653 35.368ZM234.259 32.344C234.323 33.112 234.627 33.832 235.171 34.504C235.715 35.176 235.987 35.688 235.987 36.04V36.232C235.987 36.776 235.619 37.048 234.883 37.048H226.579C225.843 37.048 225.475 36.776 225.475 36.232V36.04C225.475 35.72 225.763 35.224 226.339 34.552C226.947 33.88 227.235 33.144 227.203 32.344L226.723 23.464C226.499 18.632 225.107 16.216 222.547 16.216C221.267 16.216 220.259 16.696 219.523 17.656C218.819 18.616 218.467 19.896 218.467 21.496V32.392C218.467 33.16 218.803 33.88 219.475 34.552C220.179 35.224 220.531 35.72 220.531 36.04V36.232C220.531 36.776 220.163 37.048 219.427 37.048H210.499C209.763 37.048 209.395 36.776 209.395 36.232V36.04C209.395 35.72 209.731 35.224 210.403 34.552C211.107 33.88 211.459 33.16 211.459 32.392V21.208C211.459 20.728 211.331 20.296 211.075 19.912C210.851 19.528 210.579 19.256 210.259 19.096C209.971 18.904 209.699 18.68 209.443 18.424C209.219 18.168 209.107 17.912 209.107 17.656V17.464C209.107 17.112 209.427 16.776 210.067 16.456L215.779 13.672C216.323 13.416 216.723 13.4 216.979 13.624C217.267 13.816 217.411 14.168 217.411 14.68V17.368C218.787 14.776 221.155 13.48 224.515 13.48C226.947 13.48 229.011 14.296 230.707 15.928C232.435 17.56 233.427 20.152 233.683 23.704L234.259 32.344ZM251.086 37.48C247.278 37.48 244.126 36.312 241.63 33.976C239.166 31.608 237.934 28.728 237.934 25.336C237.934 21.912 239.15 19.08 241.582 16.84C244.014 14.6 246.942 13.48 250.366 13.48C254.046 13.48 257.118 14.648 259.582 16.984C262.046 19.288 263.278 22.152 263.278 25.576C263.278 29 262.11 31.848 259.774 34.12C257.47 36.36 254.574 37.48 251.086 37.48ZM251.95 35.368C253.262 35.368 254.27 34.76 254.974 33.544C255.71 32.328 256.078 30.616 256.078 28.408C256.078 26.584 255.806 24.712 255.262 22.792C254.75 20.84 253.966 19.16 252.91 17.752C251.854 16.312 250.686 15.592 249.406 15.592C246.462 15.592 244.99 17.928 244.99 22.6C244.99 24.328 245.246 26.152 245.758 28.072C246.302 29.992 247.118 31.688 248.206 33.16C249.326 34.632 250.574 35.368 251.95 35.368ZM275.24 37.48C273 37.48 271.224 36.776 269.912 35.368C268.632 33.928 267.992 31.864 267.992 29.176V16.744H265.736C265.096 16.744 264.776 16.424 264.776 15.784V14.968C264.776 14.296 265.096 13.96 265.736 13.96H266.936C268.248 13.96 269.352 13.528 270.248 12.664C271.176 11.8 271.768 10.648 272.024 9.208C272.184 8.44 272.552 8.056 273.128 8.056H274.088C274.792 8.056 275.144 8.44 275.144 9.208L275.192 13.96H280.712C280.968 13.96 281.192 14.056 281.384 14.248C281.576 14.44 281.672 14.68 281.672 14.968V15.784C281.672 16.072 281.576 16.312 281.384 16.504C281.192 16.664 280.968 16.744 280.712 16.744H275.192V29.272C275.192 30.2 275.416 30.952 275.864 31.528C276.344 32.072 276.936 32.344 277.64 32.344C279.304 32.344 280.392 31.624 280.904 30.184C281.192 29.768 281.544 29.608 281.96 29.704C282.408 29.768 282.632 30.024 282.632 30.472C282.632 32.328 281.96 33.96 280.616 35.368C279.304 36.776 277.512 37.48 275.24 37.48ZM308.921 32.296C308.985 33.064 309.289 33.784 309.833 34.456C310.377 35.128 310.649 35.64 310.649 35.992V36.184C310.649 36.728 310.297 37 309.593 37H301.241C300.537 37 300.185 36.728 300.185 36.184V35.992C300.185 35.672 300.473 35.176 301.049 34.504C301.657 33.832 301.945 33.112 301.913 32.344L301.433 23.128C301.209 18.52 299.817 16.216 297.257 16.216C295.977 16.216 294.969 16.696 294.233 17.656C293.529 18.616 293.177 19.896 293.177 21.496V32.392C293.177 33.128 293.513 33.832 294.185 34.504C294.889 35.176 295.241 35.672 295.241 35.992V36.184C295.241 36.728 294.857 37 294.089 37H285.209C284.473 37 284.105 36.728 284.105 36.184V35.992C284.105 35.672 284.441 35.176 285.113 34.504C285.785 33.832 286.121 33.128 286.121 32.392V8.488C286.121 7.72 285.753 7.032 285.017 6.424C284.313 5.816 283.961 5.352 283.961 5.032V4.888C283.961 4.408 284.281 4.008 284.921 3.688L291.257 0.903998C291.801 0.679997 292.217 0.647998 292.505 0.808C292.825 0.967999 292.985 1.288 292.985 1.768L292.937 16.168C294.441 14.376 296.537 13.48 299.225 13.48C301.657 13.48 303.721 14.28 305.417 15.88C307.113 17.448 308.073 19.928 308.297 23.32L308.921 32.296ZM332.429 29.704C332.717 29.32 333.069 29.192 333.485 29.32C333.901 29.448 334.093 29.752 334.061 30.232C333.901 31.896 332.941 33.528 331.181 35.128C329.421 36.696 327.133 37.48 324.317 37.48C320.925 37.48 318.141 36.36 315.965 34.12C313.789 31.88 312.701 28.936 312.701 25.288C312.701 21.864 313.837 19.048 316.109 16.84C318.381 14.6 321.117 13.48 324.317 13.48C327.229 13.48 329.469 14.168 331.037 15.544C332.605 16.92 333.389 18.504 333.389 20.296C333.389 21.768 332.685 22.824 331.277 23.464L320.621 28.312C321.933 31.096 324.045 32.488 326.957 32.488C328.173 32.488 329.261 32.232 330.221 31.72C331.213 31.176 331.949 30.504 332.429 29.704ZM323.453 15.592C322.205 15.592 321.213 16.2 320.477 17.416C319.741 18.6 319.373 20.12 319.373 21.976C319.373 23.544 319.533 24.92 319.853 26.104L326.045 22.984C326.877 22.568 327.293 21.816 327.293 20.728C327.293 19.64 326.941 18.52 326.237 17.368C325.533 16.184 324.605 15.592 323.453 15.592ZM351.159 13.48C352.535 13.48 353.607 13.896 354.375 14.728C355.175 15.528 355.575 16.568 355.575 17.848C355.575 20.376 354.551 21.64 352.503 21.64C351.671 21.64 351.015 21.432 350.535 21.016C350.087 20.568 349.815 20.088 349.719 19.576C349.623 19.064 349.431 18.6 349.143 18.184C348.855 17.736 348.423 17.512 347.847 17.512C346.983 17.512 346.343 18.024 345.927 19.048C345.511 20.072 345.303 21.32 345.303 22.792V32.392C345.303 32.968 345.495 33.48 345.879 33.928C346.295 34.344 346.695 34.712 347.079 35.032C347.495 35.352 347.703 35.672 347.703 35.992V36.184C347.703 36.728 347.351 37 346.647 37H337.767C337.031 37 336.663 36.728 336.663 36.184V35.992C336.663 35.672 336.967 35.176 337.575 34.504C338.215 33.832 338.535 33.128 338.535 32.392V21.16C338.535 20.392 338.167 19.704 337.431 19.096C336.695 18.488 336.327 18.024 336.327 17.704V17.512C336.327 17.064 336.663 16.68 337.335 16.36L343.095 13.672C344.119 13.192 344.631 13.512 344.631 14.632V18.232C345.719 15.064 347.895 13.48 351.159 13.48ZM1.36 91C0.656 91 0.304 90.728 0.304 90.184V90.04C0.304 89.72 0.608 89.224 1.216 88.552C1.824 87.848 2.128 87.128 2.128 86.392V61.528C2.128 60.792 1.824 60.088 1.216 59.416C0.608 58.712 0.304 58.2 0.304 57.88V57.688C0.304 57.176 0.656 56.92 1.36 56.92H10.336C11.072 56.92 11.44 57.176 11.44 57.688V57.88C11.44 58.2 11.104 58.712 10.432 59.416C9.76 60.088 9.424 60.792 9.424 61.528V72.184H24.112V61.528C24.112 60.792 23.808 60.088 23.2 59.416C22.592 58.712 22.288 58.2 22.288 57.88V57.688C22.288 57.176 22.64 56.92 23.344 56.92H32.32C33.056 56.92 33.424 57.176 33.424 57.688V57.88C33.424 58.2 33.072 58.712 32.368 59.416C31.696 60.088 31.36 60.792 31.36 61.528V86.392C31.36 87.128 31.696 87.848 32.368 88.552C33.072 89.224 33.424 89.72 33.424 90.04V90.184C33.424 90.728 33.056 91 32.32 91H23.344C22.64 91 22.288 90.728 22.288 90.184V90.04C22.288 89.72 22.592 89.224 23.2 88.552C23.808 87.848 24.112 87.128 24.112 86.392V75.352H9.424L9.376 86.392C9.376 87.128 9.712 87.848 10.384 88.552C11.088 89.224 11.44 89.72 11.44 90.04V90.184C11.44 90.728 11.072 91 10.336 91H1.36ZM65.1595 86.392C65.5755 87.032 66.0715 87.592 66.6475 88.072C67.2555 88.52 67.7355 88.888 68.0875 89.176C68.4395 89.432 68.6155 89.72 68.6155 90.04V90.184C68.6155 90.728 68.2475 91 67.5115 91H57.4795C56.7755 91 56.4235 90.728 56.4235 90.184V90.04C56.4235 89.752 56.5995 89.432 56.9515 89.08C57.3355 88.696 57.5915 88.36 57.7195 88.072C57.8795 87.752 57.7995 87.192 57.4795 86.392L52.4395 78.04L47.1595 78.136V86.392C47.1595 87.128 47.4955 87.848 48.1675 88.552C48.8715 89.224 49.2235 89.72 49.2235 90.04V90.184C49.2235 90.728 48.8395 91 48.0715 91H39.0475C38.3435 91 37.9915 90.728 37.9915 90.184V90.04C37.9915 89.72 38.2955 89.224 38.9035 88.552C39.5115 87.848 39.8155 87.128 39.8155 86.392V61.528C39.8155 60.792 39.5115 60.088 38.9035 59.416C38.2955 58.712 37.9915 58.2 37.9915 57.88V57.688C37.9915 57.176 38.3435 56.92 39.0475 56.92H50.9035C55.3515 56.92 58.8715 57.832 61.4635 59.656C64.0875 61.48 65.4155 64.152 65.4475 67.672C65.4475 69.624 64.8715 71.432 63.7195 73.096C62.5995 74.728 60.9835 75.992 58.8715 76.888L65.1595 86.392ZM49.8475 75.208H51.9115C53.7355 75.208 55.1915 74.648 56.2795 73.528C57.3995 72.376 57.9595 70.696 57.9595 68.488C57.9595 65.864 57.1915 63.768 55.6555 62.2C54.1515 60.632 52.4075 59.848 50.4235 59.848H48.7915C47.7035 59.848 47.1595 60.568 47.1595 62.008V71.992C47.1595 73.144 47.3675 73.976 47.7835 74.488C48.2315 74.968 48.9195 75.208 49.8475 75.208ZM94.4718 67.48C95.8478 67.48 96.9198 67.896 97.6878 68.728C98.4878 69.528 98.8878 70.568 98.8878 71.848C98.8878 74.376 97.8638 75.64 95.8158 75.64C94.9838 75.64 94.3278 75.432 93.8478 75.016C93.3998 74.568 93.1278 74.088 93.0318 73.576C92.9358 73.064 92.7438 72.6 92.4557 72.184C92.1678 71.736 91.7358 71.512 91.1598 71.512C90.2958 71.512 89.6558 72.024 89.2398 73.048C88.8238 74.072 88.6158 75.32 88.6158 76.792V86.392C88.6158 86.968 88.8078 87.48 89.1918 87.928C89.6078 88.344 90.0078 88.712 90.3918 89.032C90.8078 89.352 91.0157 89.672 91.0157 89.992V90.184C91.0157 90.728 90.6638 91 89.9598 91H81.0798C80.3438 91 79.9758 90.728 79.9758 90.184V89.992C79.9758 89.672 80.2798 89.176 80.8878 88.504C81.5278 87.832 81.8478 87.128 81.8478 86.392V75.16C81.8478 74.392 81.4798 73.704 80.7438 73.096C80.0078 72.488 79.6398 72.024 79.6398 71.704V71.512C79.6398 71.064 79.9758 70.68 80.6478 70.36L86.4078 67.672C87.4318 67.192 87.9438 67.512 87.9438 68.632V72.232C89.0318 69.064 91.2078 67.48 94.4718 67.48ZM119.57 83.704C119.858 83.32 120.21 83.192 120.626 83.32C121.042 83.448 121.234 83.752 121.202 84.232C121.042 85.896 120.082 87.528 118.322 89.128C116.562 90.696 114.274 91.48 111.458 91.48C108.066 91.48 105.282 90.36 103.106 88.12C100.93 85.88 99.8418 82.936 99.8418 79.288C99.8418 75.864 100.978 73.048 103.25 70.84C105.522 68.6 108.258 67.48 111.458 67.48C114.37 67.48 116.61 68.168 118.178 69.544C119.746 70.92 120.53 72.504 120.53 74.296C120.53 75.768 119.826 76.824 118.418 77.464L107.762 82.312C109.074 85.096 111.186 86.488 114.098 86.488C115.314 86.488 116.402 86.232 117.362 85.72C118.354 85.176 119.09 84.504 119.57 83.704ZM110.594 69.592C109.346 69.592 108.354 70.2 107.618 71.416C106.882 72.6 106.514 74.12 106.514 75.976C106.514 77.544 106.674 78.92 106.994 80.104L113.186 76.984C114.018 76.568 114.434 75.816 114.434 74.728C114.434 73.64 114.082 72.52 113.378 71.368C112.674 70.184 111.746 69.592 110.594 69.592ZM133.692 91.432C130.684 91.432 128.22 90.888 126.3 89.8C124.38 88.712 123.42 87.4 123.42 85.864C123.42 85 123.676 84.344 124.188 83.896C124.732 83.448 125.436 83.224 126.3 83.224C127.228 83.224 127.98 83.56 128.556 84.232C129.132 84.872 129.532 85.592 129.756 86.392C130.012 87.192 130.46 87.928 131.1 88.6C131.772 89.24 132.636 89.56 133.692 89.56C134.716 89.56 135.548 89.288 136.188 88.744C136.86 88.2 137.196 87.416 137.196 86.392C137.196 85.24 136.732 84.328 135.804 83.656C134.908 82.984 133.804 82.488 132.492 82.168C131.18 81.816 129.868 81.432 128.556 81.016C127.244 80.568 126.124 79.816 125.196 78.76C124.3 77.672 123.852 76.264 123.852 74.536C123.852 72.488 124.748 70.808 126.54 69.496C128.364 68.152 130.716 67.48 133.596 67.48C136.508 67.48 138.876 68.056 140.7 69.208C142.556 70.328 143.484 71.672 143.484 73.24C143.484 73.944 143.212 74.536 142.668 75.016C142.156 75.496 141.516 75.736 140.748 75.736C139.852 75.736 139.132 75.416 138.588 74.776C138.044 74.104 137.66 73.384 137.436 72.616C137.212 71.816 136.812 71.096 136.236 70.456C135.66 69.784 134.908 69.448 133.98 69.448C133.052 69.448 132.3 69.768 131.724 70.408C131.148 71.016 130.86 71.768 130.86 72.664C130.86 73.56 131.1 74.312 131.58 74.92C132.06 75.528 132.684 75.992 133.452 76.312C134.22 76.632 135.068 76.936 135.996 77.224C136.924 77.48 137.852 77.784 138.78 78.136C139.74 78.456 140.604 78.856 141.372 79.336C142.14 79.816 142.764 80.504 143.244 81.4C143.724 82.264 143.964 83.32 143.964 84.568C143.964 86.552 143.036 88.2 141.18 89.512C139.324 90.792 136.828 91.432 133.692 91.432ZM159.493 91.48C155.685 91.48 152.533 90.312 150.037 87.976C147.573 85.608 146.341 82.728 146.341 79.336C146.341 75.912 147.557 73.08 149.989 70.84C152.421 68.6 155.349 67.48 158.773 67.48C162.453 67.48 165.525 68.648 167.989 70.984C170.453 73.288 171.685 76.152 171.685 79.576C171.685 83 170.517 85.848 168.181 88.12C165.877 90.36 162.981 91.48 159.493 91.48ZM160.357 89.368C161.669 89.368 162.677 88.76 163.381 87.544C164.117 86.328 164.485 84.616 164.485 82.408C164.485 80.584 164.213 78.712 163.669 76.792C163.157 74.84 162.373 73.16 161.317 71.752C160.261 70.312 159.093 69.592 157.813 69.592C154.869 69.592 153.397 71.928 153.397 76.6C153.397 78.328 153.653 80.152 154.165 82.072C154.709 83.992 155.525 85.688 156.613 87.16C157.733 88.632 158.981 89.368 160.357 89.368ZM197.896 86.104C197.896 86.968 198.008 87.624 198.232 88.072C198.488 88.488 198.76 88.728 199.048 88.792C199.336 88.824 199.592 88.92 199.816 89.08C200.072 89.24 200.2 89.512 200.2 89.896C200.2 90.824 198.776 91.288 195.928 91.288C194.52 91.288 193.464 91.064 192.76 90.616C192.088 90.136 191.72 89.32 191.656 88.168C190.312 90.376 187.992 91.48 184.696 91.48C182.104 91.48 179.96 90.616 178.264 88.888C176.6 87.128 175.768 84.664 175.768 81.496V73.384C175.768 72.584 175.448 71.848 174.808 71.176C174.2 70.472 173.896 69.992 173.896 69.736V69.592C173.896 69.016 174.232 68.68 174.904 68.584L180.952 67.672C182.264 67.512 182.92 67.8 182.92 68.536L182.776 82.216C182.776 86.568 184.104 88.744 186.76 88.744C187.944 88.744 188.92 88.232 189.688 87.208C190.488 86.152 190.888 84.792 190.888 83.128V73.384C190.888 72.584 190.568 71.848 189.928 71.176C189.288 70.472 188.968 69.992 188.968 69.736V69.592C188.968 69.016 189.288 68.68 189.928 68.584L196.072 67.672C197.288 67.544 197.896 67.832 197.896 68.536V86.104ZM217.191 67.48C218.567 67.48 219.639 67.896 220.407 68.728C221.207 69.528 221.607 70.568 221.607 71.848C221.607 74.376 220.583 75.64 218.535 75.64C217.703 75.64 217.047 75.432 216.567 75.016C216.119 74.568 215.847 74.088 215.751 73.576C215.655 73.064 215.463 72.6 215.174 72.184C214.887 71.736 214.455 71.512 213.879 71.512C213.015 71.512 212.375 72.024 211.959 73.048C211.543 74.072 211.335 75.32 211.335 76.792V86.392C211.335 86.968 211.527 87.48 211.911 87.928C212.327 88.344 212.727 88.712 213.111 89.032C213.527 89.352 213.734 89.672 213.734 89.992V90.184C213.734 90.728 213.383 91 212.679 91H203.799C203.063 91 202.695 90.728 202.695 90.184V89.992C202.695 89.672 202.999 89.176 203.607 88.504C204.247 87.832 204.567 87.128 204.567 86.392V75.16C204.567 74.392 204.199 73.704 203.463 73.096C202.727 72.488 202.359 72.024 202.359 71.704V71.512C202.359 71.064 202.695 70.68 203.367 70.36L209.127 67.672C210.151 67.192 210.663 67.512 210.663 68.632V72.232C211.751 69.064 213.927 67.48 217.191 67.48ZM234.705 91.48C231.153 91.48 228.193 90.296 225.825 87.928C223.489 85.56 222.321 82.728 222.321 79.432C222.321 75.848 223.489 72.968 225.825 70.792C228.193 68.616 231.057 67.512 234.417 67.48C237.169 67.448 239.505 68.088 241.425 69.4C243.377 70.712 244.353 72.312 244.353 74.2C244.353 74.904 244.113 75.496 243.633 75.976C243.153 76.424 242.401 76.632 241.377 76.6C240.609 76.568 239.937 76.296 239.361 75.784C238.785 75.272 238.305 74.68 237.921 74.008C237.569 73.336 237.201 72.664 236.817 71.992C236.433 71.32 235.953 70.76 235.377 70.312C234.801 69.832 234.129 69.592 233.361 69.592C232.017 69.592 230.929 70.2 230.097 71.416C229.297 72.632 228.897 74.152 228.897 75.976C228.897 79.176 229.633 81.736 231.105 83.656C232.609 85.576 234.593 86.536 237.057 86.536C239.585 86.536 241.505 85.416 242.817 83.176C243.009 82.92 243.233 82.776 243.489 82.744C243.777 82.68 244.017 82.744 244.209 82.936C244.433 83.096 244.529 83.336 244.497 83.656C244.337 85.8 243.393 87.64 241.665 89.176C239.969 90.712 237.649 91.48 234.705 91.48ZM266.57 83.704C266.858 83.32 267.21 83.192 267.626 83.32C268.042 83.448 268.234 83.752 268.202 84.232C268.042 85.896 267.082 87.528 265.322 89.128C263.562 90.696 261.274 91.48 258.458 91.48C255.066 91.48 252.282 90.36 250.106 88.12C247.93 85.88 246.842 82.936 246.842 79.288C246.842 75.864 247.978 73.048 250.25 70.84C252.522 68.6 255.258 67.48 258.458 67.48C261.37 67.48 263.61 68.168 265.178 69.544C266.746 70.92 267.53 72.504 267.53 74.296C267.53 75.768 266.826 76.824 265.418 77.464L254.762 82.312C256.074 85.096 258.186 86.488 261.098 86.488C262.314 86.488 263.402 86.232 264.362 85.72C265.354 85.176 266.09 84.504 266.57 83.704ZM257.594 69.592C256.346 69.592 255.354 70.2 254.618 71.416C253.882 72.6 253.514 74.12 253.514 75.976C253.514 77.544 253.674 78.92 253.994 80.104L260.186 76.984C261.018 76.568 261.434 75.816 261.434 74.728C261.434 73.64 261.082 72.52 260.378 71.368C259.674 70.184 258.746 69.592 257.594 69.592ZM275.316 91.48C274.036 91.48 272.98 91.144 272.148 90.472C271.316 89.768 270.9 88.776 270.9 87.496C270.9 86.216 271.316 85.24 272.148 84.568C272.98 83.864 274.036 83.512 275.316 83.512C276.564 83.512 277.604 83.864 278.436 84.568C279.268 85.24 279.684 86.216 279.684 87.496C279.684 88.776 279.268 89.768 278.436 90.472C277.604 91.144 276.564 91.48 275.316 91.48Z" fill="#163A24"/>
</svg>
