<svg width="394" height="229" viewBox="0 0 394 229" fill="none" xmlns="http://www.w3.org/2000/svg">
<path d="M3.36 37C2.656 37 2.304 36.728 2.304 36.184V36.04C2.304 35.72 2.608 35.224 3.216 34.552C3.824 33.848 4.128 33.128 4.128 32.392V7.528C4.128 6.792 3.824 6.088 3.216 5.416C2.608 4.712 2.304 4.2 2.304 3.88V3.688C2.304 3.176 2.656 2.92 3.36 2.92H12.336C13.072 2.92 13.44 3.176 13.44 3.688V3.88C13.44 4.2 13.104 4.712 12.432 5.416C11.76 6.088 11.424 6.792 11.424 7.528V18.184H26.112V7.528C26.112 6.792 25.808 6.088 25.2 5.416C24.592 4.712 24.288 4.2 24.288 3.88V3.688C24.288 3.176 24.64 2.92 25.344 2.92H34.32C35.056 2.92 35.424 3.176 35.424 3.688V3.88C35.424 4.2 35.072 4.712 34.368 5.416C33.696 6.088 33.36 6.792 33.36 7.528V32.392C33.36 33.128 33.696 33.848 34.368 34.552C35.072 35.224 35.424 35.72 35.424 36.04V36.184C35.424 36.728 35.056 37 34.32 37H25.344C24.64 37 24.288 36.728 24.288 36.184V36.04C24.288 35.72 24.592 35.224 25.2 34.552C25.808 33.848 26.112 33.128 26.112 32.392V21.352H11.424L11.376 32.392C11.376 33.128 11.712 33.848 12.384 34.552C13.088 35.224 13.44 35.72 13.44 36.04V36.184C13.44 36.728 13.072 37 12.336 37H3.36ZM51.0083 37.48C47.2003 37.48 44.0483 36.312 41.5523 33.976C39.0883 31.608 37.8563 28.728 37.8563 25.336C37.8563 21.912 39.0723 19.08 41.5043 16.84C43.9363 14.6 46.8643 13.48 50.2883 13.48C53.9683 13.48 57.0403 14.648 59.5043 16.984C61.9683 19.288 63.2003 22.152 63.2003 25.576C63.2003 29 62.0323 31.848 59.6963 34.12C57.3923 36.36 54.4963 37.48 51.0083 37.48ZM51.8723 35.368C53.1843 35.368 54.1923 34.76 54.8963 33.544C55.6323 32.328 56.0003 30.616 56.0003 28.408C56.0003 26.584 55.7283 24.712 55.1843 22.792C54.6723 20.84 53.8883 19.16 52.8323 17.752C51.7763 16.312 50.6083 15.592 49.3282 15.592C46.3843 15.592 44.9123 17.928 44.9123 22.6C44.9123 24.328 45.1683 26.152 45.6803 28.072C46.2243 29.992 47.0403 31.688 48.1283 33.16C49.2483 34.632 50.4963 35.368 51.8723 35.368ZM98.5511 13.96C99.1911 13.96 99.5111 14.216 99.5111 14.728V14.968C99.5111 15.352 99.1271 15.864 98.3591 16.504C97.6231 17.144 97.1271 17.848 96.8711 18.616L90.6791 35.848C90.4231 36.616 89.9111 37 89.1431 37H87.5591C86.7271 37 86.1991 36.616 85.9751 35.848L81.5591 21.64L77.0951 35.848C76.8391 36.616 76.3111 37 75.5111 37H74.4071C73.6391 37 73.1271 36.616 72.8711 35.848L65.8631 18.616C65.6071 17.944 65.1591 17.272 64.5191 16.6C63.8791 15.896 63.5591 15.352 63.5591 14.968V14.728C63.5591 14.216 63.8791 13.96 64.5191 13.96H73.0631C73.6711 13.96 73.9751 14.232 73.9751 14.776V14.968C73.9751 15.224 73.8631 15.48 73.6391 15.736C73.4151 15.96 73.1751 16.168 72.9191 16.36C72.6951 16.552 72.5191 16.856 72.3911 17.272C72.2951 17.688 72.3431 18.168 72.5351 18.712L76.3751 29.992L80.8391 15.064C81.0311 14.456 81.3991 14.152 81.9431 14.152L84.5831 14.104C85.1271 14.104 85.4951 14.392 85.6871 14.968L90.0551 29.992L93.7511 19.336C94.0071 18.664 94.0391 18.088 93.8471 17.608C93.6871 17.096 93.4471 16.728 93.1271 16.504C92.8391 16.28 92.5511 16.04 92.2631 15.784C91.9751 15.496 91.8311 15.224 91.8311 14.968V14.776C91.8311 14.232 92.1511 13.96 92.7911 13.96H98.5511ZM118.849 37.48C116.609 37.48 114.833 36.776 113.521 35.368C112.241 33.928 111.601 31.864 111.601 29.176V16.744H109.345C108.705 16.744 108.385 16.424 108.385 15.784V14.968C108.385 14.296 108.705 13.96 109.345 13.96H110.545C111.857 13.96 112.961 13.528 113.857 12.664C114.785 11.8 115.377 10.648 115.633 9.208C115.793 8.44 116.161 8.056 116.737 8.056H117.697C118.401 8.056 118.753 8.44 118.753 9.208L118.801 13.96H124.321C124.577 13.96 124.801 14.056 124.993 14.248C125.185 14.44 125.281 14.68 125.281 14.968V15.784C125.281 16.072 125.185 16.312 124.993 16.504C124.801 16.664 124.577 16.744 124.321 16.744H118.801V29.272C118.801 30.2 119.025 30.952 119.473 31.528C119.953 32.072 120.545 32.344 121.249 32.344C122.913 32.344 124.001 31.624 124.513 30.184C124.801 29.768 125.153 29.608 125.569 29.704C126.017 29.768 126.241 30.024 126.241 30.472C126.241 32.328 125.569 33.96 124.225 35.368C122.913 36.776 121.121 37.48 118.849 37.48ZM152.531 32.296C152.595 33.064 152.899 33.784 153.443 34.456C153.987 35.128 154.259 35.64 154.259 35.992V36.184C154.259 36.728 153.907 37 153.203 37H144.851C144.147 37 143.795 36.728 143.795 36.184V35.992C143.795 35.672 144.083 35.176 144.659 34.504C145.267 33.832 145.555 33.112 145.523 32.344L145.043 23.128C144.819 18.52 143.427 16.216 140.867 16.216C139.587 16.216 138.579 16.696 137.843 17.656C137.139 18.616 136.787 19.896 136.787 21.496V32.392C136.787 33.128 137.123 33.832 137.795 34.504C138.499 35.176 138.851 35.672 138.851 35.992V36.184C138.851 36.728 138.467 37 137.699 37H128.819C128.083 37 127.715 36.728 127.715 36.184V35.992C127.715 35.672 128.051 35.176 128.723 34.504C129.395 33.832 129.73 33.128 129.73 32.392V8.488C129.73 7.72 129.363 7.032 128.627 6.424C127.923 5.816 127.571 5.352 127.571 5.032V4.888C127.571 4.408 127.891 4.008 128.531 3.688L134.867 0.903998C135.411 0.679997 135.827 0.647998 136.115 0.808C136.435 0.967999 136.595 1.288 136.595 1.768L136.547 16.168C138.051 14.376 140.147 13.48 142.835 13.48C145.267 13.48 147.331 14.28 149.027 15.88C150.723 17.448 151.683 19.928 151.906 23.32L152.531 32.296ZM176.039 29.704C176.327 29.32 176.679 29.192 177.095 29.32C177.511 29.448 177.703 29.752 177.671 30.232C177.511 31.896 176.551 33.528 174.791 35.128C173.031 36.696 170.743 37.48 167.927 37.48C164.535 37.48 161.751 36.36 159.575 34.12C157.399 31.88 156.311 28.936 156.311 25.288C156.311 21.864 157.447 19.048 159.719 16.84C161.991 14.6 164.727 13.48 167.927 13.48C170.839 13.48 173.079 14.168 174.647 15.544C176.215 16.92 176.999 18.504 176.999 20.296C176.999 21.768 176.295 22.824 174.887 23.464L164.231 28.312C165.543 31.096 167.655 32.488 170.567 32.488C171.783 32.488 172.871 32.232 173.831 31.72C174.823 31.176 175.559 30.504 176.039 29.704ZM167.062 15.592C165.815 15.592 164.823 16.2 164.087 17.416C163.351 18.6 162.983 20.12 162.983 21.976C162.983 23.544 163.143 24.92 163.463 26.104L169.655 22.984C170.487 22.568 170.903 21.816 170.903 20.728C170.903 19.64 170.551 18.52 169.847 17.368C169.143 16.184 168.215 15.592 167.062 15.592ZM200.004 37.432C196.996 37.432 194.532 36.888 192.612 35.8C190.692 34.712 189.732 33.4 189.732 31.864C189.732 31 189.988 30.344 190.5 29.896C191.044 29.448 191.748 29.224 192.612 29.224C193.54 29.224 194.292 29.56 194.868 30.232C195.444 30.872 195.844 31.592 196.068 32.392C196.324 33.192 196.772 33.928 197.412 34.6C198.084 35.24 198.948 35.56 200.004 35.56C201.028 35.56 201.86 35.288 202.5 34.744C203.172 34.2 203.508 33.416 203.508 32.392C203.508 31.24 203.044 30.328 202.116 29.656C201.22 28.984 200.116 28.488 198.804 28.168C197.492 27.816 196.18 27.432 194.868 27.016C193.556 26.568 192.436 25.816 191.508 24.76C190.612 23.672 190.164 22.264 190.164 20.536C190.164 18.488 191.06 16.808 192.852 15.496C194.676 14.152 197.028 13.48 199.908 13.48C202.82 13.48 205.188 14.056 207.012 15.208C208.868 16.328 209.796 17.672 209.796 19.24C209.796 19.944 209.524 20.536 208.98 21.016C208.468 21.496 207.828 21.736 207.06 21.736C206.164 21.736 205.444 21.416 204.9 20.776C204.356 20.104 203.972 19.384 203.748 18.616C203.524 17.816 203.124 17.096 202.548 16.456C201.972 15.784 201.22 15.448 200.292 15.448C199.364 15.448 198.612 15.768 198.036 16.408C197.46 17.016 197.172 17.768 197.172 18.664C197.172 19.56 197.412 20.312 197.892 20.92C198.372 21.528 198.996 21.992 199.764 22.312C200.532 22.632 201.38 22.936 202.308 23.224C203.236 23.48 204.164 23.784 205.092 24.136C206.052 24.456 206.916 24.856 207.684 25.336C208.452 25.816 209.076 26.504 209.556 27.4C210.036 28.264 210.276 29.32 210.276 30.568C210.276 32.552 209.348 34.2 207.492 35.512C205.636 36.792 203.14 37.432 200.004 37.432ZM224.845 37.48C221.293 37.48 218.333 36.296 215.965 33.928C213.629 31.56 212.461 28.728 212.461 25.432C212.461 21.848 213.629 18.968 215.965 16.792C218.333 14.616 221.197 13.512 224.557 13.48C227.309 13.448 229.645 14.088 231.565 15.4C233.517 16.712 234.493 18.312 234.493 20.2C234.493 20.904 234.253 21.496 233.773 21.976C233.293 22.424 232.541 22.632 231.517 22.6C230.749 22.568 230.077 22.296 229.501 21.784C228.925 21.272 228.445 20.68 228.061 20.008C227.709 19.336 227.341 18.664 226.957 17.992C226.573 17.32 226.093 16.76 225.517 16.312C224.941 15.832 224.269 15.592 223.501 15.592C222.157 15.592 221.069 16.2 220.237 17.416C219.437 18.632 219.037 20.152 219.037 21.976C219.037 25.176 219.773 27.736 221.245 29.656C222.749 31.576 224.733 32.536 227.197 32.536C229.725 32.536 231.645 31.416 232.957 29.176C233.149 28.92 233.373 28.776 233.629 28.744C233.917 28.68 234.157 28.744 234.349 28.936C234.573 29.096 234.669 29.336 234.637 29.656C234.477 31.8 233.533 33.64 231.805 35.176C230.109 36.712 227.789 37.48 224.845 37.48ZM256.71 29.704C256.998 29.32 257.35 29.192 257.766 29.32C258.182 29.448 258.374 29.752 258.342 30.232C258.182 31.896 257.222 33.528 255.462 35.128C253.702 36.696 251.414 37.48 248.598 37.48C245.206 37.48 242.422 36.36 240.246 34.12C238.07 31.88 236.982 28.936 236.982 25.288C236.982 21.864 238.118 19.048 240.39 16.84C242.662 14.6 245.398 13.48 248.598 13.48C251.51 13.48 253.75 14.168 255.318 15.544C256.886 16.92 257.67 18.504 257.67 20.296C257.67 21.768 256.966 22.824 255.558 23.464L244.902 28.312C246.214 31.096 248.326 32.488 251.238 32.488C252.454 32.488 253.542 32.232 254.502 31.72C255.494 31.176 256.23 30.504 256.71 29.704ZM247.734 15.592C246.486 15.592 245.494 16.2 244.758 17.416C244.022 18.6 243.654 20.12 243.654 21.976C243.654 23.544 243.814 24.92 244.134 26.104L250.326 22.984C251.158 22.568 251.574 21.816 251.574 20.728C251.574 19.64 251.222 18.52 250.518 17.368C249.814 16.184 248.886 15.592 247.734 15.592ZM285.713 32.344C285.777 33.112 286.081 33.832 286.625 34.504C287.169 35.176 287.441 35.688 287.441 36.04V36.232C287.441 36.776 287.073 37.048 286.337 37.048H278.033C277.297 37.048 276.929 36.776 276.929 36.232V36.04C276.929 35.72 277.217 35.224 277.793 34.552C278.401 33.88 278.689 33.144 278.657 32.344L278.177 23.464C277.953 18.632 276.561 16.216 274.001 16.216C272.721 16.216 271.713 16.696 270.977 17.656C270.273 18.616 269.921 19.896 269.921 21.496V32.392C269.921 33.16 270.257 33.88 270.929 34.552C271.633 35.224 271.984 35.72 271.984 36.04V36.232C271.984 36.776 271.617 37.048 270.881 37.048H261.953C261.217 37.048 260.849 36.776 260.849 36.232V36.04C260.849 35.72 261.185 35.224 261.857 34.552C262.561 33.88 262.913 33.16 262.913 32.392V21.208C262.913 20.728 262.785 20.296 262.529 19.912C262.305 19.528 262.033 19.256 261.713 19.096C261.425 18.904 261.153 18.68 260.896 18.424C260.673 18.168 260.561 17.912 260.561 17.656V17.464C260.561 17.112 260.881 16.776 261.521 16.456L267.233 13.672C267.777 13.416 268.177 13.4 268.433 13.624C268.721 13.816 268.865 14.168 268.865 14.68V17.368C270.241 14.776 272.609 13.48 275.969 13.48C278.401 13.48 280.465 14.296 282.161 15.928C283.889 17.56 284.881 20.152 285.137 23.704L285.713 32.344ZM309.164 29.704C309.452 29.32 309.804 29.192 310.22 29.32C310.636 29.448 310.828 29.752 310.796 30.232C310.636 31.896 309.676 33.528 307.916 35.128C306.156 36.696 303.868 37.48 301.052 37.48C297.66 37.48 294.876 36.36 292.7 34.12C290.524 31.88 289.436 28.936 289.436 25.288C289.436 21.864 290.572 19.048 292.844 16.84C295.116 14.6 297.852 13.48 301.052 13.48C303.964 13.48 306.204 14.168 307.772 15.544C309.34 16.92 310.124 18.504 310.124 20.296C310.124 21.768 309.42 22.824 308.012 23.464L297.356 28.312C298.668 31.096 300.78 32.488 303.692 32.488C304.908 32.488 305.996 32.232 306.956 31.72C307.948 31.176 308.684 30.504 309.164 29.704ZM300.188 15.592C298.94 15.592 297.948 16.2 297.212 17.416C296.476 18.6 296.108 20.12 296.108 21.976C296.108 23.544 296.268 24.92 296.588 26.104L302.78 22.984C303.612 22.568 304.028 21.816 304.028 20.728C304.028 19.64 303.676 18.52 302.972 17.368C302.268 16.184 301.34 15.592 300.188 15.592ZM323.286 37.432C320.278 37.432 317.814 36.888 315.894 35.8C313.974 34.712 313.014 33.4 313.014 31.864C313.014 31 313.27 30.344 313.782 29.896C314.326 29.448 315.03 29.224 315.894 29.224C316.822 29.224 317.574 29.56 318.15 30.232C318.726 30.872 319.126 31.592 319.35 32.392C319.606 33.192 320.054 33.928 320.694 34.6C321.366 35.24 322.23 35.56 323.286 35.56C324.31 35.56 325.142 35.288 325.782 34.744C326.454 34.2 326.79 33.416 326.79 32.392C326.79 31.24 326.326 30.328 325.398 29.656C324.502 28.984 323.398 28.488 322.086 28.168C320.774 27.816 319.462 27.432 318.15 27.016C316.838 26.568 315.718 25.816 314.79 24.76C313.894 23.672 313.446 22.264 313.446 20.536C313.446 18.488 314.342 16.808 316.134 15.496C317.958 14.152 320.31 13.48 323.19 13.48C326.102 13.48 328.47 14.056 330.294 15.208C332.15 16.328 333.078 17.672 333.078 19.24C333.078 19.944 332.806 20.536 332.262 21.016C331.75 21.496 331.11 21.736 330.342 21.736C329.446 21.736 328.726 21.416 328.182 20.776C327.638 20.104 327.254 19.384 327.03 18.616C326.806 17.816 326.406 17.096 325.83 16.456C325.254 15.784 324.502 15.448 323.574 15.448C322.646 15.448 321.894 15.768 321.318 16.408C320.742 17.016 320.454 17.768 320.454 18.664C320.454 19.56 320.694 20.312 321.174 20.92C321.654 21.528 322.278 21.992 323.046 22.312C323.814 22.632 324.662 22.936 325.59 23.224C326.518 23.48 327.446 23.784 328.374 24.136C329.334 24.456 330.198 24.856 330.966 25.336C331.734 25.816 332.358 26.504 332.838 27.4C333.318 28.264 333.558 29.32 333.558 30.568C333.558 32.552 332.63 34.2 330.774 35.512C328.918 36.792 326.422 37.432 323.286 37.432ZM16.224 57.928C14.656 57.928 13.424 58.744 12.528 60.376C11.632 62.008 11.264 64.024 11.424 66.424V67.96H17.184C17.44 67.96 17.664 68.056 17.856 68.248C18.048 68.44 18.144 68.664 18.144 68.92V69.832C18.144 70.088 18.048 70.312 17.856 70.504C17.664 70.664 17.44 70.744 17.184 70.744H11.424V86.344C11.424 86.92 11.632 87.432 12.048 87.88C12.464 88.328 12.864 88.712 13.248 89.032C13.664 89.352 13.872 89.672 13.872 89.992V90.184C13.872 90.728 13.552 91 12.912 91H3.648C2.976 91 2.64 90.728 2.64 90.184V89.992C2.64 89.672 2.96 89.176 3.6 88.504C4.24 87.832 4.56 87.112 4.56 86.344V70.744H1.152C0.48 70.744 0.144 70.44 0.144 69.832V68.92C0.144 68.664 0.24 68.44 0.432 68.248C0.624 68.056 0.864 67.96 1.152 67.96H4.56V65.992C4.56 62.92 5.712 60.456 8.016 58.6C10.32 56.744 13.36 55.816 17.136 55.816C20.368 55.816 22.928 56.504 24.816 57.88C26.736 59.224 27.696 60.76 27.696 62.488C27.696 63.224 27.44 63.848 26.928 64.36C26.416 64.84 25.76 65.08 24.96 65.08C24.032 65.08 23.232 64.84 22.56 64.36C21.888 63.848 21.344 63.256 20.928 62.584C20.544 61.88 20.16 61.176 19.776 60.472C19.424 59.768 18.944 59.176 18.336 58.696C17.76 58.184 17.056 57.928 16.224 57.928ZM29.616 86.344C29.616 87.112 29.952 87.832 30.624 88.504C31.296 89.176 31.632 89.672 31.632 89.992V90.184C31.632 90.728 31.264 91 30.528 91H21.648C20.912 91 20.544 90.728 20.544 90.184V89.992C20.544 89.672 20.848 89.176 21.456 88.504C22.096 87.832 22.416 87.112 22.416 86.344V75.496C22.416 74.696 22.096 73.944 21.456 73.24C20.848 72.536 20.544 72.056 20.544 71.8V71.656C20.544 71.336 20.88 71 21.552 70.648L27.648 67.672C28.256 67.416 28.736 67.4 29.088 67.624C29.44 67.816 29.616 68.152 29.616 68.632V86.344ZM43.6616 91.48C41.4216 91.48 39.6456 90.776 38.3336 89.368C37.0536 87.928 36.4136 85.864 36.4136 83.176V70.744H34.1576C33.5176 70.744 33.1976 70.424 33.1976 69.784V68.968C33.1976 68.296 33.5176 67.96 34.1576 67.96H35.3576C36.6696 67.96 37.7736 67.528 38.6696 66.664C39.5976 65.8 40.1896 64.648 40.4456 63.208C40.6056 62.44 40.9736 62.056 41.5496 62.056H42.5096C43.2136 62.056 43.5656 62.44 43.5656 63.208L43.6136 67.96H49.1336C49.3896 67.96 49.6136 68.056 49.8056 68.248C49.9976 68.44 50.0936 68.68 50.0936 68.968V69.784C50.0936 70.072 49.9976 70.312 49.8056 70.504C49.6136 70.664 49.3896 70.744 49.1336 70.744H43.6136V83.272C43.6136 84.2 43.8376 84.952 44.2856 85.528C44.7656 86.072 45.3576 86.344 46.0616 86.344C47.7256 86.344 48.8136 85.624 49.3256 84.184C49.6136 83.768 49.9656 83.608 50.3816 83.704C50.8296 83.768 51.0536 84.024 51.0536 84.472C51.0536 86.328 50.3816 87.96 49.0376 89.368C47.7256 90.776 45.9336 91.48 43.6616 91.48ZM71.8804 91.48C69.6404 91.48 67.8644 90.776 66.5524 89.368C65.2724 87.928 64.6324 85.864 64.6324 83.176V70.744H62.3764C61.7364 70.744 61.4164 70.424 61.4164 69.784V68.968C61.4164 68.296 61.7364 67.96 62.3764 67.96H63.5764C64.8884 67.96 65.9924 67.528 66.8884 66.664C67.8164 65.8 68.4084 64.648 68.6644 63.208C68.8244 62.44 69.1924 62.056 69.7684 62.056H70.7284C71.4324 62.056 71.7844 62.44 71.7844 63.208L71.8324 67.96H77.3524C77.6084 67.96 77.8324 68.056 78.0244 68.248C78.2164 68.44 78.3124 68.68 78.3124 68.968V69.784C78.3124 70.072 78.2164 70.312 78.0244 70.504C77.8324 70.664 77.6084 70.744 77.3524 70.744H71.8324V83.272C71.8324 84.2 72.0564 84.952 72.5044 85.528C72.9844 86.072 73.5764 86.344 74.2804 86.344C75.9444 86.344 77.0324 85.624 77.5444 84.184C77.8324 83.768 78.1844 83.608 78.6004 83.704C79.0484 83.768 79.2724 84.024 79.2724 84.472C79.2724 86.328 78.6004 87.96 77.2564 89.368C75.9444 90.776 74.1524 91.48 71.8804 91.48ZM93.7583 91.48C89.9503 91.48 86.7983 90.312 84.3023 87.976C81.8383 85.608 80.6063 82.728 80.6063 79.336C80.6063 75.912 81.8223 73.08 84.2543 70.84C86.6863 68.6 89.6143 67.48 93.0383 67.48C96.7183 67.48 99.7903 68.648 102.254 70.984C104.718 73.288 105.95 76.152 105.95 79.576C105.95 83 104.782 85.848 102.446 88.12C100.142 90.36 97.2463 91.48 93.7583 91.48ZM94.6223 89.368C95.9343 89.368 96.9423 88.76 97.6463 87.544C98.3823 86.328 98.7503 84.616 98.7503 82.408C98.7503 80.584 98.4783 78.712 97.9343 76.792C97.4223 74.84 96.6383 73.16 95.5823 71.752C94.5263 70.312 93.3583 69.592 92.0782 69.592C89.1343 69.592 87.6623 71.928 87.6623 76.6C87.6623 78.328 87.9183 80.152 88.4303 82.072C88.9743 83.992 89.7903 85.688 90.8783 87.16C91.9983 88.632 93.2463 89.368 94.6223 89.368ZM129.522 67.96C130.738 67.96 131.538 68.088 131.922 68.344C132.338 68.568 132.466 68.92 132.306 69.4C132.21 69.88 132.002 70.232 131.682 70.456C131.362 70.648 130.818 70.808 130.05 70.936C129.282 71.064 128.818 71.16 128.658 71.224C130.45 73.08 131.346 75.128 131.346 77.368C131.346 79.224 130.866 80.888 129.906 82.36C128.978 83.8 127.666 84.92 125.97 85.72C129.81 86.584 131.73 88.408 131.73 91.192C131.73 93.208 130.578 94.824 128.274 96.04C126.002 97.288 123.138 97.912 119.682 97.912C116.226 97.912 113.49 97.288 111.474 96.04C109.49 94.792 108.498 93.208 108.498 91.288C108.498 90.552 108.738 89.928 109.218 89.416C109.698 88.872 110.402 88.6 111.33 88.6C112.194 88.6 112.93 88.984 113.538 89.752C114.146 90.488 114.61 91.304 114.93 92.2C115.282 93.128 115.874 93.96 116.706 94.696C117.538 95.464 118.578 95.864 119.826 95.896C121.298 95.896 122.466 95.48 123.33 94.648C124.226 93.816 124.674 92.728 124.674 91.384C124.674 88.856 123.682 87.384 121.698 86.968C120.866 87.032 120.242 87.064 119.826 87.064C116.594 87.064 113.906 86.168 111.762 84.376C109.65 82.552 108.594 80.28 108.594 77.56C108.594 74.552 109.65 72.12 111.762 70.264C113.874 68.408 116.61 67.48 119.97 67.48C120.834 67.48 122.194 67.56 124.05 67.72C125.906 67.88 127.73 67.96 129.522 67.96ZM115.362 74.392C115.362 77.016 115.906 79.432 116.994 81.64C118.114 83.816 119.41 84.904 120.882 84.904C122.002 84.904 122.882 84.472 123.522 83.608C124.194 82.712 124.53 81.544 124.53 80.104C124.53 78.536 124.306 76.952 123.858 75.352C123.41 73.752 122.738 72.392 121.842 71.272C120.946 70.152 119.97 69.592 118.914 69.592C117.826 69.592 116.962 70.024 116.322 70.888C115.682 71.752 115.362 72.92 115.362 74.392ZM154.476 83.704C154.764 83.32 155.116 83.192 155.532 83.32C155.948 83.448 156.14 83.752 156.108 84.232C155.948 85.896 154.988 87.528 153.228 89.128C151.468 90.696 149.18 91.48 146.364 91.48C142.972 91.48 140.188 90.36 138.012 88.12C135.836 85.88 134.748 82.936 134.748 79.288C134.748 75.864 135.884 73.048 138.156 70.84C140.428 68.6 143.164 67.48 146.364 67.48C149.276 67.48 151.516 68.168 153.084 69.544C154.652 70.92 155.436 72.504 155.436 74.296C155.436 75.768 154.732 76.824 153.324 77.464L142.668 82.312C143.98 85.096 146.092 86.488 149.004 86.488C150.22 86.488 151.308 86.232 152.268 85.72C153.26 85.176 153.996 84.504 154.476 83.704ZM145.5 69.592C144.252 69.592 143.26 70.2 142.524 71.416C141.788 72.6 141.42 74.12 141.42 75.976C141.42 77.544 141.58 78.92 141.9 80.104L148.092 76.984C148.924 76.568 149.34 75.816 149.34 74.728C149.34 73.64 148.988 72.52 148.284 71.368C147.58 70.184 146.652 69.592 145.5 69.592ZM167.974 91.48C165.734 91.48 163.958 90.776 162.646 89.368C161.366 87.928 160.726 85.864 160.726 83.176V70.744H158.47C157.83 70.744 157.51 70.424 157.51 69.784V68.968C157.51 68.296 157.83 67.96 158.47 67.96H159.67C160.982 67.96 162.086 67.528 162.982 66.664C163.91 65.8 164.502 64.648 164.758 63.208C164.918 62.44 165.286 62.056 165.862 62.056H166.822C167.526 62.056 167.878 62.44 167.878 63.208L167.926 67.96H173.446C173.702 67.96 173.926 68.056 174.118 68.248C174.31 68.44 174.406 68.68 174.406 68.968V69.784C174.406 70.072 174.31 70.312 174.118 70.504C173.926 70.664 173.702 70.744 173.446 70.744H167.926V83.272C167.926 84.2 168.15 84.952 168.598 85.528C169.078 86.072 169.67 86.344 170.374 86.344C172.038 86.344 173.126 85.624 173.638 84.184C173.926 83.768 174.278 83.608 174.694 83.704C175.142 83.768 175.366 84.024 175.366 84.472C175.366 86.328 174.694 87.96 173.35 89.368C172.038 90.776 170.246 91.48 167.974 91.48ZM201.656 86.296C201.72 87.064 202.024 87.784 202.568 88.456C203.112 89.128 203.384 89.64 203.384 89.992V90.184C203.384 90.728 203.032 91 202.328 91H193.976C193.272 91 192.92 90.728 192.92 90.184V89.992C192.92 89.672 193.208 89.176 193.784 88.504C194.392 87.832 194.68 87.112 194.648 86.344L194.168 77.128C193.944 72.52 192.552 70.216 189.992 70.216C188.712 70.216 187.704 70.696 186.968 71.656C186.264 72.616 185.912 73.896 185.912 75.496V86.392C185.912 87.128 186.248 87.832 186.92 88.504C187.624 89.176 187.976 89.672 187.976 89.992V90.184C187.976 90.728 187.592 91 186.824 91H177.944C177.208 91 176.84 90.728 176.84 90.184V89.992C176.84 89.672 177.176 89.176 177.848 88.504C178.52 87.832 178.855 87.128 178.855 86.392V62.488C178.855 61.72 178.488 61.032 177.752 60.424C177.048 59.816 176.696 59.352 176.696 59.032V58.888C176.696 58.408 177.016 58.008 177.656 57.688L183.992 54.904C184.536 54.68 184.952 54.648 185.24 54.808C185.56 54.968 185.72 55.288 185.72 55.768L185.672 70.168C187.176 68.376 189.272 67.48 191.96 67.48C194.392 67.48 196.456 68.28 198.152 69.88C199.848 71.448 200.808 73.928 201.031 77.32L201.656 86.296ZM225.164 83.704C225.452 83.32 225.804 83.192 226.22 83.32C226.636 83.448 226.828 83.752 226.796 84.232C226.636 85.896 225.676 87.528 223.916 89.128C222.156 90.696 219.868 91.48 217.052 91.48C213.66 91.48 210.876 90.36 208.7 88.12C206.524 85.88 205.436 82.936 205.436 79.288C205.436 75.864 206.572 73.048 208.844 70.84C211.116 68.6 213.852 67.48 217.052 67.48C219.964 67.48 222.204 68.168 223.772 69.544C225.34 70.92 226.124 72.504 226.124 74.296C226.124 75.768 225.42 76.824 224.012 77.464L213.356 82.312C214.668 85.096 216.78 86.488 219.692 86.488C220.908 86.488 221.996 86.232 222.956 85.72C223.948 85.176 224.684 84.504 225.164 83.704ZM216.188 69.592C214.94 69.592 213.948 70.2 213.212 71.416C212.476 72.6 212.108 74.12 212.108 75.976C212.108 77.544 212.268 78.92 212.588 80.104L218.78 76.984C219.612 76.568 220.028 75.816 220.028 74.728C220.028 73.64 219.676 72.52 218.972 71.368C218.268 70.184 217.34 69.592 216.188 69.592ZM243.894 67.48C245.27 67.48 246.342 67.896 247.11 68.728C247.91 69.528 248.31 70.568 248.31 71.848C248.31 74.376 247.286 75.64 245.238 75.64C244.406 75.64 243.75 75.432 243.27 75.016C242.822 74.568 242.55 74.088 242.454 73.576C242.358 73.064 242.166 72.6 241.878 72.184C241.59 71.736 241.158 71.512 240.582 71.512C239.718 71.512 239.078 72.024 238.662 73.048C238.246 74.072 238.038 75.32 238.038 76.792V86.392C238.038 86.968 238.23 87.48 238.614 87.928C239.03 88.344 239.43 88.712 239.814 89.032C240.23 89.352 240.438 89.672 240.438 89.992V90.184C240.438 90.728 240.086 91 239.382 91H230.502C229.766 91 229.398 90.728 229.398 90.184V89.992C229.398 89.672 229.702 89.176 230.31 88.504C230.95 87.832 231.27 87.128 231.27 86.392V75.16C231.27 74.392 230.902 73.704 230.166 73.096C229.43 72.488 229.062 72.024 229.062 71.704V71.512C229.062 71.064 229.398 70.68 230.07 70.36L235.83 67.672C236.854 67.192 237.366 67.512 237.366 68.632V72.232C238.454 69.064 240.63 67.48 243.894 67.48Z" fill="#163A24"/>
<path d="M8.928 150H1.746V137.148H8.928V138.57H3.366V142.584H8.604V143.988H3.366V148.578H8.928V150ZM22.116 140.172C23.208 140.172 24.024 140.454 24.564 141.018C25.104 141.57 25.374 142.47 25.374 143.718V150H23.808V143.79C23.808 142.266 23.154 141.504 21.846 141.504C20.91 141.504 20.238 141.774 19.83 142.314C19.434 142.854 19.236 143.64 19.236 144.672V150H17.67V143.79C17.67 142.266 17.01 141.504 15.69 141.504C14.718 141.504 14.046 141.804 13.674 142.404C13.302 143.004 13.116 143.868 13.116 144.996V150H11.532V140.352H12.81L13.044 141.666H13.134C13.434 141.162 13.836 140.79 14.34 140.55C14.856 140.298 15.402 140.172 15.978 140.172C17.49 140.172 18.474 140.712 18.93 141.792H19.02C19.344 141.24 19.782 140.832 20.334 140.568C20.898 140.304 21.492 140.172 22.116 140.172ZM32.9442 140.172C34.1322 140.172 35.0862 140.586 35.8062 141.414C36.5382 142.242 36.9042 143.49 36.9042 145.158C36.9042 146.802 36.5382 148.05 35.8062 148.902C35.0862 149.754 34.1262 150.18 32.9262 150.18C32.1822 150.18 31.5642 150.042 31.0722 149.766C30.5922 149.478 30.2142 149.148 29.9382 148.776H29.8302C29.8542 148.98 29.8782 149.238 29.9022 149.55C29.9262 149.862 29.9382 150.132 29.9382 150.36V154.32H28.3542V140.352H29.6502L29.8662 141.666H29.9382C30.2262 141.246 30.6042 140.892 31.0722 140.604C31.5402 140.316 32.1642 140.172 32.9442 140.172ZM32.6562 141.504C31.6722 141.504 30.9762 141.78 30.5682 142.332C30.1722 142.884 29.9622 143.724 29.9382 144.852V145.158C29.9382 146.346 30.1302 147.264 30.5142 147.912C30.9102 148.548 31.6362 148.866 32.6922 148.866C33.2802 148.866 33.7602 148.704 34.1322 148.38C34.5162 148.056 34.7982 147.618 34.9782 147.066C35.1702 146.502 35.2662 145.86 35.2662 145.14C35.2662 144.036 35.0502 143.154 34.6182 142.494C34.1982 141.834 33.5442 141.504 32.6562 141.504ZM41.0124 150H39.4284V136.32H41.0124V150ZM52.4571 145.158C52.4571 146.754 52.0491 147.99 51.2331 148.866C50.4291 149.742 49.3371 150.18 47.9571 150.18C47.1051 150.18 46.3431 149.988 45.6711 149.604C45.0111 149.208 44.4891 148.638 44.1051 147.894C43.7211 147.138 43.5291 146.226 43.5291 145.158C43.5291 143.562 43.9311 142.332 44.7351 141.468C45.5391 140.604 46.6311 140.172 48.0111 140.172C48.8871 140.172 49.6551 140.37 50.3151 140.766C50.9871 141.15 51.5091 141.714 51.8811 142.458C52.2651 143.19 52.4571 144.09 52.4571 145.158ZM45.1671 145.158C45.1671 146.298 45.3891 147.204 45.8331 147.876C46.2891 148.536 47.0091 148.866 47.9931 148.866C48.9651 148.866 49.6791 148.536 50.1351 147.876C50.5911 147.204 50.8191 146.298 50.8191 145.158C50.8191 144.018 50.5911 143.124 50.1351 142.476C49.6791 141.828 48.9591 141.504 47.9751 141.504C46.9911 141.504 46.2771 141.828 45.8331 142.476C45.3891 143.124 45.1671 144.018 45.1671 145.158ZM53.1039 140.352H54.7959L56.8839 145.842C57.0639 146.322 57.2259 146.784 57.3699 147.228C57.5139 147.66 57.6219 148.074 57.6939 148.47H57.7659C57.8379 148.17 57.9519 147.78 58.1079 147.3C58.2639 146.808 58.4259 146.316 58.5939 145.824L60.5559 140.352H62.2659L58.1079 151.332C57.7719 152.244 57.3339 152.97 56.7939 153.51C56.2659 154.05 55.5339 154.32 54.5979 154.32C54.3099 154.32 54.0579 154.302 53.8419 154.266C53.6259 154.242 53.4399 154.212 53.2839 154.176V152.916C53.4159 152.94 53.5719 152.964 53.7519 152.988C53.9439 153.012 54.1419 153.024 54.3459 153.024C54.8979 153.024 55.3419 152.868 55.6779 152.556C56.0259 152.244 56.2959 151.83 56.4879 151.314L56.9919 150.036L53.1039 140.352ZM67.5177 140.172C68.3457 140.172 69.0537 140.352 69.6417 140.712C70.2417 141.072 70.6977 141.582 71.0097 142.242C71.3337 142.89 71.4957 143.652 71.4957 144.528V145.482H64.8897C64.9137 146.574 65.1897 147.408 65.7177 147.984C66.2577 148.548 67.0077 148.83 67.9677 148.83C68.5797 148.83 69.1197 148.776 69.5877 148.668C70.0677 148.548 70.5597 148.38 71.0637 148.164V149.55C70.5717 149.766 70.0857 149.922 69.6057 150.018C69.1257 150.126 68.5557 150.18 67.8957 150.18C66.9837 150.18 66.1737 149.994 65.4657 149.622C64.7697 149.25 64.2237 148.698 63.8277 147.966C63.4437 147.222 63.2517 146.316 63.2517 145.248C63.2517 144.192 63.4257 143.286 63.7737 142.53C64.1337 141.774 64.6317 141.192 65.2677 140.784C65.9157 140.376 66.6657 140.172 67.5177 140.172ZM67.4997 141.468C66.7437 141.468 66.1437 141.714 65.6997 142.206C65.2677 142.686 65.0097 143.358 64.9257 144.222H69.8397C69.8277 143.406 69.6357 142.746 69.2637 142.242C68.8917 141.726 68.3037 141.468 67.4997 141.468ZM77.6779 140.172C78.5059 140.172 79.2139 140.352 79.8019 140.712C80.4019 141.072 80.8579 141.582 81.1699 142.242C81.4939 142.89 81.6559 143.652 81.6559 144.528V145.482H75.0499C75.0739 146.574 75.3499 147.408 75.8779 147.984C76.4179 148.548 77.1679 148.83 78.1279 148.83C78.7399 148.83 79.2799 148.776 79.7479 148.668C80.2279 148.548 80.7199 148.38 81.2239 148.164V149.55C80.7319 149.766 80.2459 149.922 79.7659 150.018C79.2859 150.126 78.7159 150.18 78.0559 150.18C77.1439 150.18 76.3339 149.994 75.6259 149.622C74.9299 149.25 74.3839 148.698 73.9879 147.966C73.6039 147.222 73.4119 146.316 73.4119 145.248C73.4119 144.192 73.5859 143.286 73.9339 142.53C74.2939 141.774 74.7919 141.192 75.4279 140.784C76.0759 140.376 76.8259 140.172 77.6779 140.172ZM77.6599 141.468C76.9039 141.468 76.3039 141.714 75.8599 142.206C75.4279 142.686 75.1699 143.358 75.0859 144.222H79.9999C79.9879 143.406 79.7959 142.746 79.4239 142.242C79.0519 141.726 78.4639 141.468 77.6599 141.468ZM93.0718 150H91.4518V138.57H87.4378V137.148H97.0678V138.57H93.0718V150ZM102.393 140.172C102.573 140.172 102.765 140.184 102.969 140.208C103.185 140.22 103.371 140.244 103.527 140.28L103.329 141.738C103.173 141.702 102.999 141.672 102.807 141.648C102.627 141.624 102.453 141.612 102.285 141.612C101.793 141.612 101.331 141.75 100.899 142.026C100.467 142.29 100.119 142.668 99.8553 143.16C99.6033 143.64 99.4773 144.204 99.4773 144.852V150H97.8933V140.352H99.1893L99.3693 142.116H99.4413C99.7533 141.588 100.155 141.132 100.647 140.748C101.139 140.364 101.721 140.172 102.393 140.172ZM108.631 140.19C109.807 140.19 110.677 140.448 111.241 140.964C111.805 141.48 112.087 142.302 112.087 143.43V150H110.935L110.629 148.632H110.557C110.137 149.16 109.693 149.55 109.225 149.802C108.769 150.054 108.133 150.18 107.317 150.18C106.441 150.18 105.715 149.952 105.139 149.496C104.563 149.028 104.275 148.302 104.275 147.318C104.275 146.358 104.653 145.62 105.409 145.104C106.165 144.576 107.329 144.288 108.901 144.24L110.539 144.186V143.61C110.539 142.806 110.365 142.248 110.017 141.936C109.669 141.624 109.177 141.468 108.541 141.468C108.037 141.468 107.557 141.546 107.101 141.702C106.645 141.846 106.219 142.014 105.823 142.206L105.337 141.018C105.757 140.79 106.255 140.598 106.831 140.442C107.407 140.274 108.007 140.19 108.631 140.19ZM109.099 145.338C107.899 145.386 107.065 145.578 106.597 145.914C106.141 146.25 105.913 146.724 105.913 147.336C105.913 147.876 106.075 148.272 106.399 148.524C106.735 148.776 107.161 148.902 107.677 148.902C108.493 148.902 109.171 148.68 109.711 148.236C110.251 147.78 110.521 147.084 110.521 146.148V145.284L109.099 145.338ZM115.877 136.734C116.117 136.734 116.327 136.818 116.507 136.986C116.699 137.142 116.795 137.394 116.795 137.742C116.795 138.078 116.699 138.33 116.507 138.498C116.327 138.666 116.117 138.75 115.877 138.75C115.613 138.75 115.391 138.666 115.211 138.498C115.031 138.33 114.941 138.078 114.941 137.742C114.941 137.394 115.031 137.142 115.211 136.986C115.391 136.818 115.613 136.734 115.877 136.734ZM116.651 140.352V150H115.067V140.352H116.651ZM124.352 140.172C125.504 140.172 126.374 140.454 126.962 141.018C127.55 141.57 127.844 142.47 127.844 143.718V150H126.278V143.826C126.278 142.278 125.558 141.504 124.118 141.504C123.05 141.504 122.312 141.804 121.904 142.404C121.496 143.004 121.292 143.868 121.292 144.996V150H119.708V140.352H120.986L121.22 141.666H121.31C121.622 141.162 122.054 140.79 122.606 140.55C123.158 140.298 123.74 140.172 124.352 140.172ZM131.645 136.734C131.885 136.734 132.095 136.818 132.275 136.986C132.467 137.142 132.563 137.394 132.563 137.742C132.563 138.078 132.467 138.33 132.275 138.498C132.095 138.666 131.885 138.75 131.645 138.75C131.381 138.75 131.159 138.666 130.979 138.498C130.799 138.33 130.709 138.078 130.709 137.742C130.709 137.394 130.799 137.142 130.979 136.986C131.159 136.818 131.381 136.734 131.645 136.734ZM132.419 140.352V150H130.835V140.352H132.419ZM140.119 140.172C141.271 140.172 142.141 140.454 142.729 141.018C143.317 141.57 143.611 142.47 143.611 143.718V150H142.045V143.826C142.045 142.278 141.325 141.504 139.885 141.504C138.817 141.504 138.079 141.804 137.671 142.404C137.263 143.004 137.059 143.868 137.059 144.996V150H135.475V140.352H136.753L136.987 141.666H137.077C137.389 141.162 137.821 140.79 138.373 140.55C138.925 140.298 139.507 140.172 140.119 140.172ZM150.022 140.172C150.658 140.172 151.228 140.292 151.732 140.532C152.248 140.772 152.686 141.138 153.046 141.63H153.136L153.352 140.352H154.612V150.162C154.612 151.542 154.258 152.58 153.55 153.276C152.854 153.972 151.768 154.32 150.292 154.32C148.876 154.32 147.718 154.116 146.818 153.708V152.25C147.766 152.754 148.954 153.006 150.382 153.006C151.21 153.006 151.858 152.76 152.326 152.268C152.806 151.788 153.046 151.128 153.046 150.288V149.91C153.046 149.766 153.052 149.562 153.064 149.298C153.076 149.022 153.088 148.83 153.1 148.722H153.028C152.38 149.694 151.384 150.18 150.04 150.18C148.792 150.18 147.814 149.742 147.106 148.866C146.41 147.99 146.062 146.766 146.062 145.194C146.062 143.658 146.41 142.44 147.106 141.54C147.814 140.628 148.786 140.172 150.022 140.172ZM150.238 141.504C149.434 141.504 148.81 141.828 148.366 142.476C147.922 143.112 147.7 144.024 147.7 145.212C147.7 146.4 147.916 147.312 148.348 147.948C148.792 148.572 149.434 148.884 150.274 148.884C151.246 148.884 151.954 148.626 152.398 148.11C152.842 147.582 153.064 146.736 153.064 145.572V145.194C153.064 143.874 152.836 142.932 152.38 142.368C151.924 141.792 151.21 141.504 150.238 141.504ZM166.294 136.95C167.254 136.95 168.01 137.196 168.562 137.688C169.126 138.168 169.408 138.846 169.408 139.722C169.408 140.478 169.162 141.12 168.67 141.648C168.19 142.176 167.578 142.656 166.834 143.088L170.308 146.436C170.62 146.064 170.872 145.638 171.064 145.158C171.268 144.666 171.436 144.138 171.568 143.574H173.17C172.978 144.342 172.738 145.056 172.45 145.716C172.162 146.376 171.79 146.952 171.334 147.444L173.962 150H171.82L170.254 148.488C169.69 148.992 169.06 149.4 168.364 149.712C167.668 150.024 166.822 150.18 165.826 150.18C164.59 150.18 163.606 149.874 162.874 149.262C162.142 148.65 161.776 147.78 161.776 146.652C161.776 145.728 162.022 144.99 162.514 144.438C163.018 143.874 163.696 143.352 164.548 142.872C164.164 142.44 163.804 141.978 163.468 141.486C163.144 140.994 162.982 140.418 162.982 139.758C162.982 138.87 163.276 138.18 163.864 137.688C164.464 137.196 165.274 136.95 166.294 136.95ZM166.24 138.246C165.736 138.246 165.322 138.378 164.998 138.642C164.686 138.906 164.53 139.272 164.53 139.74C164.53 140.172 164.644 140.574 164.872 140.946C165.1 141.306 165.43 141.708 165.862 142.152C166.57 141.744 167.074 141.36 167.374 141C167.686 140.628 167.842 140.202 167.842 139.722C167.842 139.29 167.698 138.936 167.41 138.66C167.122 138.384 166.732 138.246 166.24 138.246ZM165.502 143.862C164.854 144.246 164.344 144.636 163.972 145.032C163.612 145.428 163.432 145.95 163.432 146.598C163.432 147.258 163.654 147.786 164.098 148.182C164.542 148.578 165.136 148.776 165.88 148.776C166.648 148.776 167.308 148.65 167.86 148.398C168.412 148.146 168.874 147.846 169.246 147.498L165.502 143.862ZM190.724 143.448C190.724 145.62 190.13 147.258 188.942 148.362C187.766 149.454 186.122 150 184.01 150H180.428V137.148H184.388C185.684 137.148 186.806 137.388 187.754 137.868C188.702 138.348 189.434 139.056 189.95 139.992C190.466 140.916 190.724 142.068 190.724 143.448ZM189.014 143.502C189.014 141.786 188.588 140.532 187.736 139.74C186.896 138.936 185.702 138.534 184.154 138.534H182.048V148.614H183.794C187.274 148.614 189.014 146.91 189.014 143.502ZM197.086 140.172C197.914 140.172 198.622 140.352 199.21 140.712C199.81 141.072 200.266 141.582 200.578 142.242C200.902 142.89 201.064 143.652 201.064 144.528V145.482H194.458C194.482 146.574 194.758 147.408 195.286 147.984C195.826 148.548 196.576 148.83 197.536 148.83C198.148 148.83 198.688 148.776 199.156 148.668C199.636 148.548 200.128 148.38 200.632 148.164V149.55C200.14 149.766 199.654 149.922 199.174 150.018C198.694 150.126 198.124 150.18 197.464 150.18C196.552 150.18 195.742 149.994 195.034 149.622C194.338 149.25 193.792 148.698 193.396 147.966C193.012 147.222 192.82 146.316 192.82 145.248C192.82 144.192 192.994 143.286 193.342 142.53C193.702 141.774 194.2 141.192 194.836 140.784C195.484 140.376 196.234 140.172 197.086 140.172ZM197.068 141.468C196.312 141.468 195.712 141.714 195.268 142.206C194.836 142.686 194.578 143.358 194.494 144.222H199.408C199.396 143.406 199.204 142.746 198.832 142.242C198.46 141.726 197.872 141.468 197.068 141.468ZM205.293 150L201.639 140.352H203.331L205.383 146.04C205.479 146.304 205.581 146.598 205.689 146.922C205.797 147.246 205.893 147.558 205.977 147.858C206.061 148.146 206.121 148.392 206.157 148.596H206.229C206.277 148.392 206.343 148.14 206.427 147.84C206.523 147.54 206.625 147.228 206.733 146.904C206.853 146.58 206.955 146.292 207.039 146.04L209.091 140.352H210.783L207.111 150H205.293ZM216.035 140.172C216.863 140.172 217.571 140.352 218.159 140.712C218.759 141.072 219.215 141.582 219.527 142.242C219.851 142.89 220.013 143.652 220.013 144.528V145.482H213.407C213.431 146.574 213.707 147.408 214.235 147.984C214.775 148.548 215.525 148.83 216.485 148.83C217.097 148.83 217.637 148.776 218.105 148.668C218.585 148.548 219.077 148.38 219.581 148.164V149.55C219.089 149.766 218.603 149.922 218.123 150.018C217.643 150.126 217.073 150.18 216.413 150.18C215.501 150.18 214.691 149.994 213.983 149.622C213.287 149.25 212.741 148.698 212.345 147.966C211.961 147.222 211.769 146.316 211.769 145.248C211.769 144.192 211.943 143.286 212.291 142.53C212.651 141.774 213.149 141.192 213.785 140.784C214.433 140.376 215.183 140.172 216.035 140.172ZM216.017 141.468C215.261 141.468 214.661 141.714 214.217 142.206C213.785 142.686 213.527 143.358 213.443 144.222H218.357C218.345 143.406 218.153 142.746 217.781 142.242C217.409 141.726 216.821 141.468 216.017 141.468ZM224.053 150H222.469V136.32H224.053V150ZM235.498 145.158C235.498 146.754 235.09 147.99 234.274 148.866C233.47 149.742 232.378 150.18 230.998 150.18C230.146 150.18 229.384 149.988 228.712 149.604C228.052 149.208 227.53 148.638 227.146 147.894C226.762 147.138 226.57 146.226 226.57 145.158C226.57 143.562 226.972 142.332 227.776 141.468C228.58 140.604 229.672 140.172 231.052 140.172C231.928 140.172 232.696 140.37 233.356 140.766C234.028 141.15 234.55 141.714 234.922 142.458C235.306 143.19 235.498 144.09 235.498 145.158ZM228.208 145.158C228.208 146.298 228.43 147.204 228.874 147.876C229.33 148.536 230.05 148.866 231.034 148.866C232.006 148.866 232.72 148.536 233.176 147.876C233.632 147.204 233.86 146.298 233.86 145.158C233.86 144.018 233.632 143.124 233.176 142.476C232.72 141.828 232 141.504 231.016 141.504C230.032 141.504 229.318 141.828 228.874 142.476C228.43 143.124 228.208 144.018 228.208 145.158ZM242.599 140.172C243.787 140.172 244.741 140.586 245.461 141.414C246.193 142.242 246.559 143.49 246.559 145.158C246.559 146.802 246.193 148.05 245.461 148.902C244.741 149.754 243.781 150.18 242.581 150.18C241.837 150.18 241.219 150.042 240.727 149.766C240.247 149.478 239.869 149.148 239.593 148.776H239.485C239.509 148.98 239.533 149.238 239.557 149.55C239.581 149.862 239.593 150.132 239.593 150.36V154.32H238.009V140.352H239.305L239.521 141.666H239.593C239.881 141.246 240.259 140.892 240.727 140.604C241.195 140.316 241.819 140.172 242.599 140.172ZM242.311 141.504C241.327 141.504 240.631 141.78 240.223 142.332C239.827 142.884 239.617 143.724 239.593 144.852V145.158C239.593 146.346 239.785 147.264 240.169 147.912C240.565 148.548 241.291 148.866 242.347 148.866C242.935 148.866 243.415 148.704 243.787 148.38C244.171 148.056 244.453 147.618 244.633 147.066C244.825 146.502 244.921 145.86 244.921 145.14C244.921 144.036 244.705 143.154 244.273 142.494C243.853 141.834 243.199 141.504 242.311 141.504ZM259.667 140.172C260.759 140.172 261.575 140.454 262.115 141.018C262.655 141.57 262.925 142.47 262.925 143.718V150H261.359V143.79C261.359 142.266 260.705 141.504 259.397 141.504C258.461 141.504 257.789 141.774 257.381 142.314C256.985 142.854 256.787 143.64 256.787 144.672V150H255.221V143.79C255.221 142.266 254.561 141.504 253.241 141.504C252.269 141.504 251.597 141.804 251.225 142.404C250.853 143.004 250.667 143.868 250.667 144.996V150H249.083V140.352H250.361L250.595 141.666H250.685C250.985 141.162 251.387 140.79 251.891 140.55C252.407 140.298 252.953 140.172 253.529 140.172C255.041 140.172 256.025 140.712 256.481 141.792H256.571C256.895 141.24 257.333 140.832 257.885 140.568C258.449 140.304 259.043 140.172 259.667 140.172ZM269.631 140.172C270.459 140.172 271.167 140.352 271.755 140.712C272.355 141.072 272.811 141.582 273.123 142.242C273.447 142.89 273.609 143.652 273.609 144.528V145.482H267.003C267.027 146.574 267.303 147.408 267.831 147.984C268.371 148.548 269.121 148.83 270.081 148.83C270.693 148.83 271.233 148.776 271.701 148.668C272.181 148.548 272.673 148.38 273.177 148.164V149.55C272.685 149.766 272.199 149.922 271.719 150.018C271.239 150.126 270.669 150.18 270.009 150.18C269.097 150.18 268.287 149.994 267.579 149.622C266.883 149.25 266.337 148.698 265.941 147.966C265.557 147.222 265.365 146.316 265.365 145.248C265.365 144.192 265.539 143.286 265.887 142.53C266.247 141.774 266.745 141.192 267.381 140.784C268.029 140.376 268.779 140.172 269.631 140.172ZM269.613 141.468C268.857 141.468 268.257 141.714 267.813 142.206C267.381 142.686 267.123 143.358 267.039 144.222H271.953C271.941 143.406 271.749 142.746 271.377 142.242C271.005 141.726 270.417 141.468 269.613 141.468ZM280.709 140.172C281.861 140.172 282.731 140.454 283.319 141.018C283.907 141.57 284.201 142.47 284.201 143.718V150H282.635V143.826C282.635 142.278 281.915 141.504 280.475 141.504C279.407 141.504 278.669 141.804 278.261 142.404C277.853 143.004 277.649 143.868 277.649 144.996V150H276.065V140.352H277.343L277.577 141.666H277.667C277.979 141.162 278.411 140.79 278.963 140.55C279.515 140.298 280.097 140.172 280.709 140.172ZM290.414 148.884C290.654 148.884 290.9 148.866 291.152 148.83C291.404 148.782 291.608 148.734 291.764 148.686V149.892C291.596 149.976 291.356 150.042 291.044 150.09C290.732 150.15 290.432 150.18 290.144 150.18C289.64 150.18 289.172 150.096 288.74 149.928C288.32 149.748 287.978 149.442 287.714 149.01C287.45 148.578 287.318 147.972 287.318 147.192V141.576H285.95V140.82L287.336 140.19L287.966 138.138H288.902V140.352H291.692V141.576H288.902V147.156C288.902 147.744 289.04 148.182 289.316 148.47C289.604 148.746 289.97 148.884 290.414 148.884ZM295.622 148.11C295.466 148.746 295.238 149.442 294.938 150.198C294.65 150.966 294.362 151.674 294.074 152.322H292.904C293.072 151.638 293.24 150.888 293.408 150.072C293.588 149.256 293.72 148.536 293.804 147.912H295.496L295.622 148.11ZM313.7 143.448C313.7 145.62 313.106 147.258 311.918 148.362C310.742 149.454 309.098 150 306.986 150H303.404V137.148H307.364C308.66 137.148 309.782 137.388 310.73 137.868C311.678 138.348 312.41 139.056 312.926 139.992C313.442 140.916 313.7 142.068 313.7 143.448ZM311.99 143.502C311.99 141.786 311.564 140.532 310.712 139.74C309.872 138.936 308.678 138.534 307.13 138.534H305.024V148.614H306.77C310.25 148.614 311.99 146.91 311.99 143.502ZM317.147 136.734C317.387 136.734 317.597 136.818 317.777 136.986C317.969 137.142 318.065 137.394 318.065 137.742C318.065 138.078 317.969 138.33 317.777 138.498C317.597 138.666 317.387 138.75 317.147 138.75C316.883 138.75 316.661 138.666 316.481 138.498C316.301 138.33 316.211 138.078 316.211 137.742C316.211 137.394 316.301 137.142 316.481 136.986C316.661 136.818 316.883 136.734 317.147 136.734ZM317.921 140.352V150H316.337V140.352H317.921ZM323.101 150L319.447 140.352H321.139L323.191 146.04C323.287 146.304 323.389 146.598 323.497 146.922C323.605 147.246 323.701 147.558 323.785 147.858C323.869 148.146 323.929 148.392 323.965 148.596H324.037C324.085 148.392 324.151 148.14 324.235 147.84C324.331 147.54 324.433 147.228 324.541 146.904C324.661 146.58 324.763 146.292 324.847 146.04L326.899 140.352H328.591L324.919 150H323.101ZM333.844 140.172C334.672 140.172 335.38 140.352 335.968 140.712C336.568 141.072 337.024 141.582 337.336 142.242C337.66 142.89 337.822 143.652 337.822 144.528V145.482H331.216C331.24 146.574 331.516 147.408 332.044 147.984C332.584 148.548 333.334 148.83 334.294 148.83C334.906 148.83 335.446 148.776 335.914 148.668C336.394 148.548 336.886 148.38 337.39 148.164V149.55C336.898 149.766 336.412 149.922 335.932 150.018C335.452 150.126 334.882 150.18 334.222 150.18C333.31 150.18 332.5 149.994 331.792 149.622C331.096 149.25 330.55 148.698 330.154 147.966C329.77 147.222 329.578 146.316 329.578 145.248C329.578 144.192 329.752 143.286 330.1 142.53C330.46 141.774 330.958 141.192 331.594 140.784C332.242 140.376 332.992 140.172 333.844 140.172ZM333.826 141.468C333.07 141.468 332.47 141.714 332.026 142.206C331.594 142.686 331.336 143.358 331.252 144.222H336.166C336.154 143.406 335.962 142.746 335.59 142.242C335.218 141.726 334.63 141.468 333.826 141.468ZM344.778 140.172C344.958 140.172 345.15 140.184 345.354 140.208C345.57 140.22 345.756 140.244 345.912 140.28L345.714 141.738C345.558 141.702 345.384 141.672 345.192 141.648C345.012 141.624 344.838 141.612 344.67 141.612C344.178 141.612 343.716 141.75 343.284 142.026C342.852 142.29 342.504 142.668 342.24 143.16C341.988 143.64 341.862 144.204 341.862 144.852V150H340.278V140.352H341.574L341.754 142.116H341.826C342.138 141.588 342.54 141.132 343.032 140.748C343.524 140.364 344.106 140.172 344.778 140.172ZM353.996 147.336C353.996 148.272 353.648 148.98 352.952 149.46C352.256 149.94 351.32 150.18 350.144 150.18C349.472 150.18 348.89 150.126 348.398 150.018C347.918 149.91 347.492 149.76 347.12 149.568V148.128C347.504 148.32 347.966 148.5 348.506 148.668C349.058 148.824 349.616 148.902 350.18 148.902C350.984 148.902 351.566 148.776 351.926 148.524C352.286 148.26 352.466 147.912 352.466 147.48C352.466 147.24 352.4 147.024 352.268 146.832C352.136 146.64 351.896 146.448 351.548 146.256C351.212 146.064 350.726 145.848 350.09 145.608C349.466 145.368 348.932 145.128 348.488 144.888C348.044 144.648 347.702 144.36 347.462 144.024C347.222 143.688 347.102 143.256 347.102 142.728C347.102 141.912 347.432 141.282 348.092 140.838C348.764 140.394 349.64 140.172 350.72 140.172C351.308 140.172 351.854 140.232 352.358 140.352C352.874 140.46 353.354 140.616 353.798 140.82L353.258 142.08C352.85 141.912 352.424 141.768 351.98 141.648C351.536 141.528 351.08 141.468 350.612 141.468C349.964 141.468 349.466 141.576 349.118 141.792C348.782 141.996 348.614 142.278 348.614 142.638C348.614 142.902 348.692 143.13 348.848 143.322C349.004 143.502 349.262 143.682 349.622 143.862C349.994 144.03 350.486 144.234 351.098 144.474C351.71 144.702 352.232 144.936 352.664 145.176C353.096 145.416 353.426 145.71 353.654 146.058C353.882 146.394 353.996 146.82 353.996 147.336ZM357.137 136.734C357.377 136.734 357.587 136.818 357.767 136.986C357.959 137.142 358.055 137.394 358.055 137.742C358.055 138.078 357.959 138.33 357.767 138.498C357.587 138.666 357.377 138.75 357.137 138.75C356.873 138.75 356.651 138.666 356.471 138.498C356.291 138.33 356.201 138.078 356.201 137.742C356.201 137.394 356.291 137.142 356.471 136.986C356.651 136.818 356.873 136.734 357.137 136.734ZM357.911 140.352V150H356.327V140.352H357.911ZM364.189 148.884C364.43 148.884 364.676 148.866 364.928 148.83C365.18 148.782 365.384 148.734 365.54 148.686V149.892C365.372 149.976 365.132 150.042 364.82 150.09C364.508 150.15 364.208 150.18 363.92 150.18C363.416 150.18 362.948 150.096 362.516 149.928C362.096 149.748 361.754 149.442 361.49 149.01C361.226 148.578 361.094 147.972 361.094 147.192V141.576H359.726V140.82L361.112 140.19L361.742 138.138H362.678V140.352H365.468V141.576H362.678V147.156C362.678 147.744 362.816 148.182 363.092 148.47C363.38 148.746 363.746 148.884 364.189 148.884ZM365.959 140.352H367.651L369.739 145.842C369.919 146.322 370.081 146.784 370.225 147.228C370.369 147.66 370.477 148.074 370.549 148.47H370.621C370.693 148.17 370.807 147.78 370.963 147.3C371.119 146.808 371.281 146.316 371.449 145.824L373.411 140.352H375.121L370.963 151.332C370.627 152.244 370.189 152.97 369.649 153.51C369.121 154.05 368.389 154.32 367.453 154.32C367.165 154.32 366.913 154.302 366.697 154.266C366.481 154.242 366.295 154.212 366.139 154.176V152.916C366.271 152.94 366.427 152.964 366.607 152.988C366.799 153.012 366.997 153.024 367.201 153.024C367.753 153.024 368.197 152.868 368.533 152.556C368.881 152.244 369.151 151.83 369.343 151.314L369.847 150.036L365.959 140.352ZM5.472 163.95C6.432 163.95 7.188 164.196 7.74 164.688C8.304 165.168 8.586 165.846 8.586 166.722C8.586 167.478 8.34 168.12 7.848 168.648C7.368 169.176 6.756 169.656 6.012 170.088L9.486 173.436C9.798 173.064 10.05 172.638 10.242 172.158C10.446 171.666 10.614 171.138 10.746 170.574H12.348C12.156 171.342 11.916 172.056 11.628 172.716C11.34 173.376 10.968 173.952 10.512 174.444L13.14 177H10.998L9.432 175.488C8.868 175.992 8.238 176.4 7.542 176.712C6.846 177.024 6 177.18 5.004 177.18C3.768 177.18 2.784 176.874 2.052 176.262C1.32 175.65 0.954 174.78 0.954 173.652C0.954 172.728 1.2 171.99 1.692 171.438C2.196 170.874 2.874 170.352 3.726 169.872C3.342 169.44 2.982 168.978 2.646 168.486C2.322 167.994 2.16 167.418 2.16 166.758C2.16 165.87 2.454 165.18 3.042 164.688C3.642 164.196 4.452 163.95 5.472 163.95ZM5.418 165.246C4.914 165.246 4.5 165.378 4.176 165.642C3.864 165.906 3.708 166.272 3.708 166.74C3.708 167.172 3.822 167.574 4.05 167.946C4.278 168.306 4.608 168.708 5.04 169.152C5.748 168.744 6.252 168.36 6.552 168C6.864 167.628 7.02 167.202 7.02 166.722C7.02 166.29 6.876 165.936 6.588 165.66C6.3 165.384 5.91 165.246 5.418 165.246ZM4.68 170.862C4.032 171.246 3.522 171.636 3.15 172.032C2.79 172.428 2.61 172.95 2.61 173.598C2.61 174.258 2.832 174.786 3.276 175.182C3.72 175.578 4.314 175.776 5.058 175.776C5.826 175.776 6.486 175.65 7.038 175.398C7.59 175.146 8.052 174.846 8.424 174.498L4.68 170.862ZM23.2234 177H18.5794V176.064L20.0914 175.722V165.444L18.5794 165.084V164.148H23.2234V165.084L21.7114 165.444V175.722L23.2234 176.064V177ZM30.133 167.172C31.285 167.172 32.155 167.454 32.743 168.018C33.331 168.57 33.625 169.47 33.625 170.718V177H32.059V170.826C32.059 169.278 31.339 168.504 29.899 168.504C28.831 168.504 28.093 168.804 27.685 169.404C27.277 170.004 27.073 170.868 27.073 171.996V177H25.489V167.352H26.767L27.001 168.666H27.091C27.403 168.162 27.835 167.79 28.387 167.55C28.939 167.298 29.521 167.172 30.133 167.172ZM40.4859 177.18C39.6339 177.18 38.8719 177.006 38.1999 176.658C37.5399 176.31 37.0179 175.77 36.6339 175.038C36.2619 174.306 36.0759 173.37 36.0759 172.23C36.0759 171.042 36.2739 170.076 36.6699 169.332C37.0659 168.588 37.5999 168.042 38.2719 167.694C38.9559 167.346 39.7299 167.172 40.5939 167.172C41.0859 167.172 41.5599 167.226 42.0159 167.334C42.4719 167.43 42.8439 167.55 43.1319 167.694L42.6459 169.008C42.3579 168.9 42.0219 168.798 41.6379 168.702C41.2539 168.606 40.8939 168.558 40.5579 168.558C38.6619 168.558 37.7139 169.776 37.7139 172.212C37.7139 173.376 37.9419 174.27 38.3979 174.894C38.8659 175.506 39.5559 175.812 40.4679 175.812C40.9959 175.812 41.4579 175.758 41.8539 175.65C42.2619 175.542 42.6339 175.41 42.9699 175.254V176.658C42.6459 176.826 42.2859 176.952 41.8899 177.036C41.5059 177.132 41.0379 177.18 40.4859 177.18ZM46.8484 177H45.2644V163.32H46.8484V177ZM57.969 167.352V177H56.673L56.439 175.722H56.367C56.055 176.226 55.623 176.598 55.071 176.838C54.519 177.066 53.931 177.18 53.307 177.18C52.143 177.18 51.267 176.904 50.679 176.352C50.091 175.788 49.797 174.894 49.797 173.67V167.352H51.399V173.562C51.399 175.098 52.113 175.866 53.541 175.866C54.609 175.866 55.347 175.566 55.755 174.966C56.175 174.366 56.385 173.502 56.385 172.374V167.352H57.969ZM67.314 174.336C67.314 175.272 66.966 175.98 66.27 176.46C65.574 176.94 64.638 177.18 63.462 177.18C62.79 177.18 62.208 177.126 61.716 177.018C61.236 176.91 60.81 176.76 60.438 176.568V175.128C60.822 175.32 61.284 175.5 61.824 175.668C62.376 175.824 62.934 175.902 63.498 175.902C64.302 175.902 64.884 175.776 65.244 175.524C65.604 175.26 65.784 174.912 65.784 174.48C65.784 174.24 65.718 174.024 65.586 173.832C65.454 173.64 65.214 173.448 64.866 173.256C64.53 173.064 64.044 172.848 63.408 172.608C62.784 172.368 62.25 172.128 61.806 171.888C61.362 171.648 61.02 171.36 60.78 171.024C60.54 170.688 60.42 170.256 60.42 169.728C60.42 168.912 60.75 168.282 61.41 167.838C62.082 167.394 62.958 167.172 64.038 167.172C64.626 167.172 65.172 167.232 65.676 167.352C66.192 167.46 66.672 167.616 67.116 167.82L66.576 169.08C66.168 168.912 65.742 168.768 65.298 168.648C64.854 168.528 64.398 168.468 63.93 168.468C63.282 168.468 62.784 168.576 62.436 168.792C62.1 168.996 61.932 169.278 61.932 169.638C61.932 169.902 62.01 170.13 62.166 170.322C62.322 170.502 62.58 170.682 62.94 170.862C63.312 171.03 63.804 171.234 64.416 171.474C65.028 171.702 65.55 171.936 65.982 172.176C66.414 172.416 66.744 172.71 66.972 173.058C67.2 173.394 67.314 173.82 67.314 174.336ZM70.4552 163.734C70.6952 163.734 70.9052 163.818 71.0852 163.986C71.2772 164.142 71.3732 164.394 71.3732 164.742C71.3732 165.078 71.2772 165.33 71.0852 165.498C70.9052 165.666 70.6952 165.75 70.4552 165.75C70.1912 165.75 69.9692 165.666 69.7892 165.498C69.6092 165.33 69.5192 165.078 69.5192 164.742C69.5192 164.394 69.6092 164.142 69.7892 163.986C69.9692 163.818 70.1912 163.734 70.4552 163.734ZM71.2292 167.352V177H69.6452V167.352H71.2292ZM82.6739 172.158C82.6739 173.754 82.2659 174.99 81.4499 175.866C80.6459 176.742 79.5539 177.18 78.1739 177.18C77.3219 177.18 76.5599 176.988 75.8879 176.604C75.2279 176.208 74.7059 175.638 74.3219 174.894C73.9379 174.138 73.7459 173.226 73.7459 172.158C73.7459 170.562 74.1479 169.332 74.9519 168.468C75.7559 167.604 76.8479 167.172 78.2279 167.172C79.1039 167.172 79.8719 167.37 80.5319 167.766C81.2039 168.15 81.7259 168.714 82.0979 169.458C82.4819 170.19 82.6739 171.09 82.6739 172.158ZM75.3839 172.158C75.3839 173.298 75.6059 174.204 76.0499 174.876C76.5059 175.536 77.2259 175.866 78.2099 175.866C79.1819 175.866 79.8959 175.536 80.3519 174.876C80.8079 174.204 81.0359 173.298 81.0359 172.158C81.0359 171.018 80.8079 170.124 80.3519 169.476C79.8959 168.828 79.1759 168.504 78.1919 168.504C77.2079 168.504 76.4939 168.828 76.0499 169.476C75.6059 170.124 75.3839 171.018 75.3839 172.158ZM89.8283 167.172C90.9803 167.172 91.8503 167.454 92.4383 168.018C93.0263 168.57 93.3203 169.47 93.3203 170.718V177H91.7543V170.826C91.7543 169.278 91.0343 168.504 89.5943 168.504C88.5263 168.504 87.7883 168.804 87.3803 169.404C86.9723 170.004 86.7683 170.868 86.7683 171.996V177H85.1843V167.352H86.4623L86.6963 168.666H86.7863C87.0983 168.162 87.5303 167.79 88.0823 167.55C88.6343 167.298 89.2163 167.172 89.8283 167.172ZM104.605 164.148C106.285 164.148 107.509 164.478 108.277 165.138C109.045 165.798 109.429 166.728 109.429 167.928C109.429 168.636 109.267 169.302 108.943 169.926C108.631 170.538 108.097 171.036 107.341 171.42C106.597 171.804 105.583 171.996 104.299 171.996H102.823V177H101.203V164.148H104.605ZM104.461 165.534H102.823V170.61H104.119C105.343 170.61 106.255 170.412 106.855 170.016C107.455 169.62 107.755 168.948 107.755 168C107.755 167.172 107.491 166.554 106.963 166.146C106.435 165.738 105.601 165.534 104.461 165.534ZM116.385 167.172C116.565 167.172 116.757 167.184 116.961 167.208C117.177 167.22 117.363 167.244 117.519 167.28L117.321 168.738C117.165 168.702 116.991 168.672 116.799 168.648C116.619 168.624 116.445 168.612 116.277 168.612C115.785 168.612 115.323 168.75 114.891 169.026C114.459 169.29 114.111 169.668 113.847 170.16C113.595 170.64 113.469 171.204 113.469 171.852V177H111.885V167.352H113.181L113.361 169.116H113.433C113.745 168.588 114.147 168.132 114.639 167.748C115.131 167.364 115.713 167.172 116.385 167.172ZM127.357 172.158C127.357 173.754 126.949 174.99 126.133 175.866C125.329 176.742 124.237 177.18 122.857 177.18C122.005 177.18 121.243 176.988 120.571 176.604C119.911 176.208 119.389 175.638 119.005 174.894C118.621 174.138 118.429 173.226 118.429 172.158C118.429 170.562 118.831 169.332 119.635 168.468C120.439 167.604 121.531 167.172 122.911 167.172C123.787 167.172 124.555 167.37 125.215 167.766C125.887 168.15 126.409 168.714 126.781 169.458C127.165 170.19 127.357 171.09 127.357 172.158ZM120.067 172.158C120.067 173.298 120.289 174.204 120.733 174.876C121.189 175.536 121.909 175.866 122.893 175.866C123.865 175.866 124.579 175.536 125.035 174.876C125.491 174.204 125.719 173.298 125.719 172.158C125.719 171.018 125.491 170.124 125.035 169.476C124.579 168.828 123.859 168.504 122.875 168.504C121.891 168.504 121.177 168.828 120.733 169.476C120.289 170.124 120.067 171.018 120.067 172.158ZM133.288 167.172C133.924 167.172 134.494 167.292 134.998 167.532C135.514 167.772 135.952 168.138 136.312 168.63H136.402L136.618 167.352H137.878V177.162C137.878 178.542 137.524 179.58 136.816 180.276C136.12 180.972 135.034 181.32 133.558 181.32C132.142 181.32 130.984 181.116 130.084 180.708V179.25C131.032 179.754 132.22 180.006 133.648 180.006C134.476 180.006 135.124 179.76 135.592 179.268C136.072 178.788 136.312 178.128 136.312 177.288V176.91C136.312 176.766 136.318 176.562 136.33 176.298C136.342 176.022 136.354 175.83 136.366 175.722H136.294C135.646 176.694 134.65 177.18 133.306 177.18C132.058 177.18 131.08 176.742 130.372 175.866C129.676 174.99 129.328 173.766 129.328 172.194C129.328 170.658 129.676 169.44 130.372 168.54C131.08 167.628 132.052 167.172 133.288 167.172ZM133.504 168.504C132.7 168.504 132.076 168.828 131.632 169.476C131.188 170.112 130.966 171.024 130.966 172.212C130.966 173.4 131.182 174.312 131.614 174.948C132.058 175.572 132.7 175.884 133.54 175.884C134.512 175.884 135.22 175.626 135.664 175.11C136.108 174.582 136.33 173.736 136.33 172.572V172.194C136.33 170.874 136.102 169.932 135.646 169.368C135.19 168.792 134.476 168.504 133.504 168.504ZM145.442 167.172C145.622 167.172 145.814 167.184 146.018 167.208C146.234 167.22 146.42 167.244 146.576 167.28L146.378 168.738C146.222 168.702 146.048 168.672 145.856 168.648C145.676 168.624 145.502 168.612 145.334 168.612C144.842 168.612 144.38 168.75 143.948 169.026C143.516 169.29 143.168 169.668 142.904 170.16C142.652 170.64 142.526 171.204 142.526 171.852V177H140.942V167.352H142.238L142.418 169.116H142.49C142.802 168.588 143.204 168.132 143.696 167.748C144.188 167.364 144.77 167.172 145.442 167.172ZM151.68 167.19C152.856 167.19 153.726 167.448 154.29 167.964C154.854 168.48 155.136 169.302 155.136 170.43V177H153.984L153.678 175.632H153.606C153.186 176.16 152.742 176.55 152.274 176.802C151.818 177.054 151.182 177.18 150.366 177.18C149.49 177.18 148.764 176.952 148.188 176.496C147.612 176.028 147.324 175.302 147.324 174.318C147.324 173.358 147.702 172.62 148.458 172.104C149.214 171.576 150.378 171.288 151.95 171.24L153.588 171.186V170.61C153.588 169.806 153.414 169.248 153.066 168.936C152.718 168.624 152.226 168.468 151.59 168.468C151.086 168.468 150.606 168.546 150.15 168.702C149.694 168.846 149.268 169.014 148.872 169.206L148.386 168.018C148.806 167.79 149.304 167.598 149.88 167.442C150.456 167.274 151.056 167.19 151.68 167.19ZM152.148 172.338C150.948 172.386 150.114 172.578 149.646 172.914C149.19 173.25 148.962 173.724 148.962 174.336C148.962 174.876 149.124 175.272 149.448 175.524C149.784 175.776 150.21 175.902 150.726 175.902C151.542 175.902 152.22 175.68 152.76 175.236C153.3 174.78 153.57 174.084 153.57 173.148V172.284L152.148 172.338ZM168.7 167.172C169.792 167.172 170.608 167.454 171.148 168.018C171.688 168.57 171.958 169.47 171.958 170.718V177H170.392V170.79C170.392 169.266 169.738 168.504 168.43 168.504C167.494 168.504 166.822 168.774 166.414 169.314C166.018 169.854 165.82 170.64 165.82 171.672V177H164.254V170.79C164.254 169.266 163.594 168.504 162.274 168.504C161.302 168.504 160.63 168.804 160.258 169.404C159.886 170.004 159.7 170.868 159.7 171.996V177H158.116V167.352H159.394L159.628 168.666H159.718C160.018 168.162 160.42 167.79 160.924 167.55C161.44 167.298 161.986 167.172 162.562 167.172C164.074 167.172 165.058 167.712 165.514 168.792H165.604C165.928 168.24 166.366 167.832 166.918 167.568C167.482 167.304 168.076 167.172 168.7 167.172ZM181.22 174.336C181.22 175.272 180.872 175.98 180.176 176.46C179.48 176.94 178.544 177.18 177.368 177.18C176.696 177.18 176.114 177.126 175.622 177.018C175.142 176.91 174.716 176.76 174.344 176.568V175.128C174.728 175.32 175.19 175.5 175.73 175.668C176.282 175.824 176.84 175.902 177.404 175.902C178.208 175.902 178.79 175.776 179.15 175.524C179.51 175.26 179.69 174.912 179.69 174.48C179.69 174.24 179.624 174.024 179.492 173.832C179.36 173.64 179.12 173.448 178.772 173.256C178.436 173.064 177.95 172.848 177.314 172.608C176.69 172.368 176.156 172.128 175.712 171.888C175.268 171.648 174.926 171.36 174.686 171.024C174.446 170.688 174.326 170.256 174.326 169.728C174.326 168.912 174.656 168.282 175.316 167.838C175.988 167.394 176.864 167.172 177.944 167.172C178.532 167.172 179.078 167.232 179.582 167.352C180.098 167.46 180.578 167.616 181.022 167.82L180.482 169.08C180.074 168.912 179.648 168.768 179.204 168.648C178.76 168.528 178.304 168.468 177.836 168.468C177.188 168.468 176.69 168.576 176.342 168.792C176.006 168.996 175.838 169.278 175.838 169.638C175.838 169.902 175.916 170.13 176.072 170.322C176.228 170.502 176.486 170.682 176.846 170.862C177.218 171.03 177.71 171.234 178.322 171.474C178.934 171.702 179.456 171.936 179.888 172.176C180.32 172.416 180.65 172.71 180.878 173.058C181.106 173.394 181.22 173.82 181.22 174.336ZM185.477 175.11C185.321 175.746 185.093 176.442 184.793 177.198C184.505 177.966 184.217 178.674 183.929 179.322H182.759C182.927 178.638 183.095 177.888 183.263 177.072C183.443 176.256 183.575 175.536 183.659 174.912H185.351L185.477 175.11ZM196.698 167.19C197.874 167.19 198.744 167.448 199.308 167.964C199.872 168.48 200.154 169.302 200.154 170.43V177H199.002L198.696 175.632H198.624C198.204 176.16 197.76 176.55 197.292 176.802C196.836 177.054 196.2 177.18 195.384 177.18C194.508 177.18 193.782 176.952 193.206 176.496C192.63 176.028 192.342 175.302 192.342 174.318C192.342 173.358 192.72 172.62 193.476 172.104C194.232 171.576 195.396 171.288 196.968 171.24L198.606 171.186V170.61C198.606 169.806 198.432 169.248 198.084 168.936C197.736 168.624 197.244 168.468 196.608 168.468C196.104 168.468 195.624 168.546 195.168 168.702C194.712 168.846 194.286 169.014 193.89 169.206L193.404 168.018C193.824 167.79 194.322 167.598 194.898 167.442C195.474 167.274 196.074 167.19 196.698 167.19ZM197.166 172.338C195.966 172.386 195.132 172.578 194.664 172.914C194.208 173.25 193.98 173.724 193.98 174.336C193.98 174.876 194.142 175.272 194.466 175.524C194.802 175.776 195.228 175.902 195.744 175.902C196.56 175.902 197.238 175.68 197.778 175.236C198.318 174.78 198.588 174.084 198.588 173.148V172.284L197.166 172.338ZM207.778 167.172C208.93 167.172 209.8 167.454 210.388 168.018C210.976 168.57 211.27 169.47 211.27 170.718V177H209.704V170.826C209.704 169.278 208.984 168.504 207.544 168.504C206.476 168.504 205.738 168.804 205.33 169.404C204.922 170.004 204.718 170.868 204.718 171.996V177H203.134V167.352H204.412L204.646 168.666H204.736C205.048 168.162 205.48 167.79 206.032 167.55C206.584 167.298 207.166 167.172 207.778 167.172ZM217.68 177.18C216.48 177.18 215.52 176.766 214.8 175.938C214.08 175.098 213.72 173.85 213.72 172.194C213.72 170.538 214.08 169.29 214.8 168.45C215.532 167.598 216.498 167.172 217.698 167.172C218.442 167.172 219.048 167.31 219.516 167.586C219.996 167.862 220.386 168.198 220.686 168.594H220.794C220.782 168.438 220.758 168.21 220.722 167.91C220.698 167.598 220.686 167.352 220.686 167.172V163.32H222.27V177H220.992L220.758 175.704H220.686C220.398 176.112 220.014 176.46 219.534 176.748C219.054 177.036 218.436 177.18 217.68 177.18ZM217.932 175.866C218.952 175.866 219.666 175.59 220.074 175.038C220.494 174.474 220.704 173.628 220.704 172.5V172.212C220.704 171.012 220.506 170.094 220.11 169.458C219.714 168.81 218.982 168.486 217.914 168.486C217.062 168.486 216.42 168.828 215.988 169.512C215.568 170.184 215.358 171.09 215.358 172.23C215.358 173.382 215.568 174.276 215.988 174.912C216.42 175.548 217.068 175.866 217.932 175.866ZM235.734 165.39C234.354 165.39 233.268 165.852 232.476 166.776C231.684 167.7 231.288 168.966 231.288 170.574C231.288 172.17 231.654 173.436 232.386 174.372C233.13 175.296 234.24 175.758 235.716 175.758C236.28 175.758 236.814 175.71 237.318 175.614C237.822 175.518 238.314 175.398 238.794 175.254V176.658C238.314 176.838 237.816 176.97 237.3 177.054C236.796 177.138 236.19 177.18 235.482 177.18C234.174 177.18 233.082 176.91 232.206 176.37C231.33 175.83 230.67 175.062 230.226 174.066C229.794 173.07 229.578 171.9 229.578 170.556C229.578 169.26 229.812 168.12 230.28 167.136C230.76 166.14 231.462 165.366 232.386 164.814C233.31 164.25 234.432 163.968 235.752 163.968C237.108 163.968 238.29 164.22 239.298 164.724L238.65 166.092C238.254 165.912 237.81 165.75 237.318 165.606C236.838 165.462 236.31 165.39 235.734 165.39ZM249.772 172.158C249.772 173.754 249.364 174.99 248.548 175.866C247.744 176.742 246.652 177.18 245.272 177.18C244.42 177.18 243.658 176.988 242.986 176.604C242.326 176.208 241.804 175.638 241.42 174.894C241.036 174.138 240.844 173.226 240.844 172.158C240.844 170.562 241.246 169.332 242.05 168.468C242.854 167.604 243.946 167.172 245.326 167.172C246.202 167.172 246.97 167.37 247.63 167.766C248.302 168.15 248.824 168.714 249.196 169.458C249.58 170.19 249.772 171.09 249.772 172.158ZM242.482 172.158C242.482 173.298 242.704 174.204 243.148 174.876C243.604 175.536 244.324 175.866 245.308 175.866C246.28 175.866 246.994 175.536 247.45 174.876C247.906 174.204 248.134 173.298 248.134 172.158C248.134 171.018 247.906 170.124 247.45 169.476C246.994 168.828 246.274 168.504 245.29 168.504C244.306 168.504 243.592 168.828 243.148 169.476C242.704 170.124 242.482 171.018 242.482 172.158ZM256.926 167.172C258.078 167.172 258.948 167.454 259.536 168.018C260.124 168.57 260.418 169.47 260.418 170.718V177H258.852V170.826C258.852 169.278 258.132 168.504 256.692 168.504C255.624 168.504 254.886 168.804 254.478 169.404C254.07 170.004 253.866 170.868 253.866 171.996V177H252.282V167.352H253.56L253.794 168.666H253.884C254.196 168.162 254.628 167.79 255.18 167.55C255.732 167.298 256.314 167.172 256.926 167.172ZM267.855 168.576H265.425V177H263.841V168.576H262.149V167.838L263.841 167.298V166.74C263.841 165.492 264.117 164.598 264.669 164.058C265.221 163.506 265.989 163.23 266.973 163.23C267.357 163.23 267.705 163.266 268.017 163.338C268.341 163.398 268.617 163.47 268.845 163.554L268.431 164.796C268.239 164.736 268.017 164.676 267.765 164.616C267.513 164.556 267.255 164.526 266.991 164.526C266.463 164.526 266.067 164.706 265.803 165.066C265.551 165.414 265.425 165.966 265.425 166.722V167.352H267.855V168.576ZM271.185 177H269.601V163.32H271.185V177ZM275.047 163.734C275.287 163.734 275.497 163.818 275.677 163.986C275.869 164.142 275.965 164.394 275.965 164.742C275.965 165.078 275.869 165.33 275.677 165.498C275.497 165.666 275.287 165.75 275.047 165.75C274.783 165.75 274.561 165.666 274.381 165.498C274.201 165.33 274.111 165.078 274.111 164.742C274.111 164.394 274.201 164.142 274.381 163.986C274.561 163.818 274.783 163.734 275.047 163.734ZM275.821 167.352V177H274.237V167.352H275.821ZM282.748 177.18C281.896 177.18 281.134 177.006 280.462 176.658C279.802 176.31 279.28 175.77 278.896 175.038C278.524 174.306 278.338 173.37 278.338 172.23C278.338 171.042 278.536 170.076 278.932 169.332C279.328 168.588 279.862 168.042 280.534 167.694C281.218 167.346 281.992 167.172 282.856 167.172C283.348 167.172 283.822 167.226 284.278 167.334C284.734 167.43 285.106 167.55 285.394 167.694L284.908 169.008C284.62 168.9 284.284 168.798 283.9 168.702C283.516 168.606 283.156 168.558 282.82 168.558C280.924 168.558 279.976 169.776 279.976 172.212C279.976 173.376 280.204 174.27 280.66 174.894C281.128 175.506 281.818 175.812 282.73 175.812C283.258 175.812 283.72 175.758 284.116 175.65C284.524 175.542 284.896 175.41 285.232 175.254V176.658C284.908 176.826 284.548 176.952 284.152 177.036C283.768 177.132 283.3 177.18 282.748 177.18ZM290.748 175.884C290.988 175.884 291.234 175.866 291.486 175.83C291.738 175.782 291.942 175.734 292.098 175.686V176.892C291.93 176.976 291.69 177.042 291.378 177.09C291.066 177.15 290.766 177.18 290.478 177.18C289.974 177.18 289.506 177.096 289.074 176.928C288.654 176.748 288.312 176.442 288.048 176.01C287.784 175.578 287.652 174.972 287.652 174.192V168.576H286.284V167.82L287.67 167.19L288.3 165.138H289.236V167.352H292.026V168.576H289.236V174.156C289.236 174.744 289.374 175.182 289.65 175.47C289.938 175.746 290.304 175.884 290.748 175.884ZM5.292 191.148C6.888 191.148 8.064 191.454 8.82 192.066C9.588 192.666 9.972 193.578 9.972 194.802C9.972 195.486 9.846 196.056 9.594 196.512C9.342 196.968 9.018 197.334 8.622 197.61C8.238 197.874 7.83 198.084 7.398 198.24L10.926 204H9.036L5.922 198.69H3.366V204H1.746V191.148H5.292ZM5.202 192.552H3.366V197.322H5.292C6.336 197.322 7.098 197.118 7.578 196.71C8.058 196.29 8.298 195.678 8.298 194.874C8.298 194.034 8.046 193.44 7.542 193.092C7.038 192.732 6.258 192.552 5.202 192.552ZM16.4533 194.172C17.2813 194.172 17.9893 194.352 18.5773 194.712C19.1773 195.072 19.6333 195.582 19.9453 196.242C20.2693 196.89 20.4313 197.652 20.4313 198.528V199.482H13.8253C13.8493 200.574 14.1253 201.408 14.6533 201.984C15.1933 202.548 15.9433 202.83 16.9033 202.83C17.5153 202.83 18.0553 202.776 18.5233 202.668C19.0033 202.548 19.4953 202.38 19.9993 202.164V203.55C19.5073 203.766 19.0213 203.922 18.5413 204.018C18.0613 204.126 17.4913 204.18 16.8313 204.18C15.9193 204.18 15.1093 203.994 14.4013 203.622C13.7053 203.25 13.1593 202.698 12.7633 201.966C12.3793 201.222 12.1873 200.316 12.1873 199.248C12.1873 198.192 12.3613 197.286 12.7093 196.53C13.0693 195.774 13.5673 195.192 14.2033 194.784C14.8513 194.376 15.6013 194.172 16.4533 194.172ZM16.4353 195.468C15.6793 195.468 15.0793 195.714 14.6353 196.206C14.2033 196.686 13.9453 197.358 13.8613 198.222H18.7753C18.7633 197.406 18.5713 196.746 18.1993 196.242C17.8273 195.726 17.2393 195.468 16.4353 195.468ZM29.1694 201.336C29.1694 202.272 28.8214 202.98 28.1254 203.46C27.4294 203.94 26.4934 204.18 25.3174 204.18C24.6454 204.18 24.0634 204.126 23.5714 204.018C23.0914 203.91 22.6654 203.76 22.2934 203.568V202.128C22.6774 202.32 23.1394 202.5 23.6794 202.668C24.2314 202.824 24.7894 202.902 25.3534 202.902C26.1574 202.902 26.7394 202.776 27.0994 202.524C27.4594 202.26 27.6394 201.912 27.6394 201.48C27.6394 201.24 27.5734 201.024 27.4414 200.832C27.3094 200.64 27.0694 200.448 26.7214 200.256C26.3854 200.064 25.8994 199.848 25.2634 199.608C24.6394 199.368 24.1054 199.128 23.6614 198.888C23.2174 198.648 22.8754 198.36 22.6354 198.024C22.3954 197.688 22.2754 197.256 22.2754 196.728C22.2754 195.912 22.6054 195.282 23.2654 194.838C23.9374 194.394 24.8134 194.172 25.8934 194.172C26.4814 194.172 27.0274 194.232 27.5314 194.352C28.0474 194.46 28.5274 194.616 28.9714 194.82L28.4314 196.08C28.0234 195.912 27.5974 195.768 27.1534 195.648C26.7094 195.528 26.2534 195.468 25.7854 195.468C25.1374 195.468 24.6394 195.576 24.2914 195.792C23.9554 195.996 23.7874 196.278 23.7874 196.638C23.7874 196.902 23.8654 197.13 24.0214 197.322C24.1774 197.502 24.4354 197.682 24.7954 197.862C25.1674 198.03 25.6594 198.234 26.2714 198.474C26.8834 198.702 27.4054 198.936 27.8374 199.176C28.2694 199.416 28.5994 199.71 28.8274 200.058C29.0554 200.394 29.1694 200.82 29.1694 201.336ZM39.8887 199.158C39.8887 200.754 39.4807 201.99 38.6647 202.866C37.8607 203.742 36.7687 204.18 35.3887 204.18C34.5367 204.18 33.7747 203.988 33.1027 203.604C32.4427 203.208 31.9207 202.638 31.5367 201.894C31.1527 201.138 30.9607 200.226 30.9607 199.158C30.9607 197.562 31.3627 196.332 32.1667 195.468C32.9707 194.604 34.0627 194.172 35.4427 194.172C36.3187 194.172 37.0867 194.37 37.7467 194.766C38.4187 195.15 38.9407 195.714 39.3127 196.458C39.6967 197.19 39.8887 198.09 39.8887 199.158ZM32.5987 199.158C32.5987 200.298 32.8207 201.204 33.2647 201.876C33.7207 202.536 34.4407 202.866 35.4247 202.866C36.3967 202.866 37.1107 202.536 37.5667 201.876C38.0227 201.204 38.2507 200.298 38.2507 199.158C38.2507 198.018 38.0227 197.124 37.5667 196.476C37.1107 195.828 36.3907 195.504 35.4067 195.504C34.4227 195.504 33.7087 195.828 33.2647 196.476C32.8207 197.124 32.5987 198.018 32.5987 199.158ZM43.9831 204H42.3991V190.32H43.9831V204ZM55.1038 194.352V204H53.8078L53.5738 202.722H53.5018C53.1898 203.226 52.7578 203.598 52.2058 203.838C51.6538 204.066 51.0658 204.18 50.4418 204.18C49.2778 204.18 48.4018 203.904 47.8138 203.352C47.2258 202.788 46.9318 201.894 46.9318 200.67V194.352H48.5338V200.562C48.5338 202.098 49.2478 202.866 50.6758 202.866C51.7438 202.866 52.4818 202.566 52.8898 201.966C53.3098 201.366 53.5198 200.502 53.5198 199.374V194.352H55.1038ZM61.3887 202.884C61.6287 202.884 61.8747 202.866 62.1267 202.83C62.3787 202.782 62.5827 202.734 62.7387 202.686V203.892C62.5707 203.976 62.3307 204.042 62.0187 204.09C61.7067 204.15 61.4067 204.18 61.1187 204.18C60.6147 204.18 60.1467 204.096 59.7147 203.928C59.2947 203.748 58.9527 203.442 58.6887 203.01C58.4247 202.578 58.2927 201.972 58.2927 201.192V195.576H56.9247V194.82L58.3107 194.19L58.9407 192.138H59.8767V194.352H62.6667V195.576H59.8767V201.156C59.8767 201.744 60.0147 202.182 60.2907 202.47C60.5787 202.746 60.9447 202.884 61.3887 202.884ZM65.4806 190.734C65.7206 190.734 65.9306 190.818 66.1106 190.986C66.3026 191.142 66.3986 191.394 66.3986 191.742C66.3986 192.078 66.3026 192.33 66.1106 192.498C65.9306 192.666 65.7206 192.75 65.4806 192.75C65.2166 192.75 64.9946 192.666 64.8146 192.498C64.6346 192.33 64.5446 192.078 64.5446 191.742C64.5446 191.394 64.6346 191.142 64.8146 190.986C64.9946 190.818 65.2166 190.734 65.4806 190.734ZM66.2546 194.352V204H64.6706V194.352H66.2546ZM77.6992 199.158C77.6992 200.754 77.2913 201.99 76.4753 202.866C75.6713 203.742 74.5793 204.18 73.1993 204.18C72.3473 204.18 71.5853 203.988 70.9133 203.604C70.2533 203.208 69.7313 202.638 69.3473 201.894C68.9633 201.138 68.7713 200.226 68.7713 199.158C68.7713 197.562 69.1733 196.332 69.9773 195.468C70.7813 194.604 71.8733 194.172 73.2533 194.172C74.1293 194.172 74.8973 194.37 75.5573 194.766C76.2293 195.15 76.7513 195.714 77.1233 196.458C77.5073 197.19 77.6992 198.09 77.6992 199.158ZM70.4093 199.158C70.4093 200.298 70.6313 201.204 71.0753 201.876C71.5313 202.536 72.2513 202.866 73.2353 202.866C74.2073 202.866 74.9213 202.536 75.3773 201.876C75.8333 201.204 76.0613 200.298 76.0613 199.158C76.0613 198.018 75.8333 197.124 75.3773 196.476C74.9213 195.828 74.2013 195.504 73.2173 195.504C72.2333 195.504 71.5193 195.828 71.0753 196.476C70.6313 197.124 70.4093 198.018 70.4093 199.158ZM84.8537 194.172C86.0057 194.172 86.8757 194.454 87.4637 195.018C88.0517 195.57 88.3457 196.47 88.3457 197.718V204H86.7797V197.826C86.7797 196.278 86.0597 195.504 84.6197 195.504C83.5517 195.504 82.8137 195.804 82.4057 196.404C81.9977 197.004 81.7937 197.868 81.7937 198.996V204H80.2097V194.352H81.4877L81.7217 195.666H81.8117C82.1237 195.162 82.5557 194.79 83.1077 194.55C83.6597 194.298 84.2417 194.172 84.8537 194.172ZM91.1026 203.028C91.1026 202.584 91.2106 202.272 91.4266 202.092C91.6426 201.912 91.9006 201.822 92.2006 201.822C92.5126 201.822 92.7766 201.912 92.9926 202.092C93.2206 202.272 93.3346 202.584 93.3346 203.028C93.3346 203.46 93.2206 203.772 92.9926 203.964C92.7766 204.156 92.5126 204.252 92.2006 204.252C91.9006 204.252 91.6426 204.156 91.4266 203.964C91.2106 203.772 91.1026 203.46 91.1026 203.028Z" fill="#163A24"/>
</svg>
