<svg width="748" height="46" viewBox="0 0 748 46" fill="none" xmlns="http://www.w3.org/2000/svg">
<path d="M2.5828 14H0.962797V1.148H8.1448V2.57H2.5828V7.124H7.8028V8.546H2.5828V14ZM18.4688 9.158C18.4688 10.754 18.0608 11.99 17.2448 12.866C16.4408 13.742 15.3488 14.18 13.9688 14.18C13.1168 14.18 12.3548 13.988 11.6828 13.604C11.0228 13.208 10.5008 12.638 10.1168 11.894C9.73278 11.138 9.54078 10.226 9.54078 9.158C9.54078 7.562 9.94278 6.332 10.7468 5.468C11.5508 4.604 12.6428 4.172 14.0228 4.172C14.8988 4.172 15.6668 4.37 16.3268 4.766C16.9988 5.15 17.5208 5.714 17.8928 6.458C18.2768 7.19 18.4688 8.09 18.4688 9.158ZM11.1788 9.158C11.1788 10.298 11.4008 11.204 11.8448 11.876C12.3008 12.536 13.0208 12.866 14.0048 12.866C14.9768 12.866 15.6908 12.536 16.1468 11.876C16.6028 11.204 16.8308 10.298 16.8308 9.158C16.8308 8.018 16.6028 7.124 16.1468 6.476C15.6908 5.828 14.9708 5.504 13.9868 5.504C13.0028 5.504 12.2888 5.828 11.8448 6.476C11.4008 7.124 11.1788 8.018 11.1788 9.158ZM24.8492 14.18C23.9972 14.18 23.2352 14.006 22.5632 13.658C21.9032 13.31 21.3812 12.77 20.9972 12.038C20.6252 11.306 20.4392 10.37 20.4392 9.23C20.4392 8.042 20.6372 7.076 21.0332 6.332C21.4292 5.588 21.9632 5.042 22.6352 4.694C23.3192 4.346 24.0932 4.172 24.9572 4.172C25.4492 4.172 25.9232 4.226 26.3792 4.334C26.8352 4.43 27.2072 4.55 27.4952 4.694L27.0092 6.008C26.7212 5.9 26.3852 5.798 26.0012 5.702C25.6172 5.606 25.2572 5.558 24.9212 5.558C23.0252 5.558 22.0772 6.776 22.0772 9.212C22.0772 10.376 22.3052 11.27 22.7612 11.894C23.2292 12.506 23.9192 12.812 24.8312 12.812C25.3592 12.812 25.8212 12.758 26.2172 12.65C26.6252 12.542 26.9972 12.41 27.3332 12.254V13.658C27.0092 13.826 26.6492 13.952 26.2532 14.036C25.8692 14.132 25.4012 14.18 24.8492 14.18ZM37.6917 4.352V14H36.3957L36.1617 12.722H36.0897C35.7777 13.226 35.3457 13.598 34.7937 13.838C34.2417 14.066 33.6537 14.18 33.0297 14.18C31.8657 14.18 30.9897 13.904 30.4017 13.352C29.8137 12.788 29.5197 11.894 29.5197 10.67V4.352H31.1217V10.562C31.1217 12.098 31.8357 12.866 33.2637 12.866C34.3317 12.866 35.0697 12.566 35.4777 11.966C35.8977 11.366 36.1077 10.502 36.1077 9.374V4.352H37.6917ZM47.0366 11.336C47.0366 12.272 46.6886 12.98 45.9926 13.46C45.2966 13.94 44.3606 14.18 43.1846 14.18C42.5126 14.18 41.9306 14.126 41.4386 14.018C40.9586 13.91 40.5326 13.76 40.1606 13.568V12.128C40.5446 12.32 41.0066 12.5 41.5466 12.668C42.0986 12.824 42.6566 12.902 43.2206 12.902C44.0246 12.902 44.6066 12.776 44.9666 12.524C45.3266 12.26 45.5066 11.912 45.5066 11.48C45.5066 11.24 45.4406 11.024 45.3086 10.832C45.1766 10.64 44.9366 10.448 44.5886 10.256C44.2526 10.064 43.7666 9.848 43.1306 9.608C42.5066 9.368 41.9726 9.128 41.5286 8.888C41.0846 8.648 40.7426 8.36 40.5026 8.024C40.2626 7.688 40.1426 7.256 40.1426 6.728C40.1426 5.912 40.4726 5.282 41.1326 4.838C41.8046 4.394 42.6806 4.172 43.7606 4.172C44.3486 4.172 44.8946 4.232 45.3986 4.352C45.9146 4.46 46.3946 4.616 46.8386 4.82L46.2986 6.08C45.8906 5.912 45.4646 5.768 45.0206 5.648C44.5766 5.528 44.1206 5.468 43.6526 5.468C43.0046 5.468 42.5066 5.576 42.1586 5.792C41.8226 5.996 41.6546 6.278 41.6546 6.638C41.6546 6.902 41.7326 7.13 41.8886 7.322C42.0446 7.502 42.3026 7.682 42.6626 7.862C43.0346 8.03 43.5266 8.234 44.1386 8.474C44.7506 8.702 45.2726 8.936 45.7046 9.176C46.1366 9.416 46.4666 9.71 46.6946 10.058C46.9226 10.394 47.0366 10.82 47.0366 11.336ZM62.4317 9.158C62.4317 10.754 62.0237 11.99 61.2077 12.866C60.4037 13.742 59.3117 14.18 57.9317 14.18C57.0797 14.18 56.3177 13.988 55.6457 13.604C54.9857 13.208 54.4637 12.638 54.0797 11.894C53.6957 11.138 53.5037 10.226 53.5037 9.158C53.5037 7.562 53.9057 6.332 54.7097 5.468C55.5137 4.604 56.6057 4.172 57.9857 4.172C58.8617 4.172 59.6297 4.37 60.2897 4.766C60.9617 5.15 61.4837 5.714 61.8557 6.458C62.2397 7.19 62.4317 8.09 62.4317 9.158ZM55.1417 9.158C55.1417 10.298 55.3637 11.204 55.8077 11.876C56.2637 12.536 56.9837 12.866 57.9677 12.866C58.9397 12.866 59.6537 12.536 60.1097 11.876C60.5657 11.204 60.7937 10.298 60.7937 9.158C60.7937 8.018 60.5657 7.124 60.1097 6.476C59.6537 5.828 58.9337 5.504 57.9497 5.504C56.9657 5.504 56.2517 5.828 55.8077 6.476C55.3637 7.124 55.1417 8.018 55.1417 9.158ZM69.5861 4.172C70.7381 4.172 71.6081 4.454 72.1961 5.018C72.7841 5.57 73.0781 6.47 73.0781 7.718V14H71.5121V7.826C71.5121 6.278 70.7921 5.504 69.3521 5.504C68.2841 5.504 67.5461 5.804 67.1381 6.404C66.7301 7.004 66.5261 7.868 66.5261 8.996V14H64.9421V4.352H66.2201L66.4541 5.666H66.5441C66.8561 5.162 67.2881 4.79 67.8401 4.55C68.3921 4.298 68.9741 4.172 69.5861 4.172ZM84.6148 14.18C83.7628 14.18 83.0008 14.006 82.3288 13.658C81.6688 13.31 81.1468 12.77 80.7628 12.038C80.3908 11.306 80.2048 10.37 80.2048 9.23C80.2048 8.042 80.4028 7.076 80.7988 6.332C81.1948 5.588 81.7288 5.042 82.4008 4.694C83.0848 4.346 83.8588 4.172 84.7228 4.172C85.2148 4.172 85.6888 4.226 86.1448 4.334C86.6008 4.43 86.9728 4.55 87.2608 4.694L86.7748 6.008C86.4868 5.9 86.1508 5.798 85.7668 5.702C85.3828 5.606 85.0228 5.558 84.6868 5.558C82.7908 5.558 81.8428 6.776 81.8428 9.212C81.8428 10.376 82.0708 11.27 82.5268 11.894C82.9948 12.506 83.6848 12.812 84.5968 12.812C85.1248 12.812 85.5868 12.758 85.9828 12.65C86.3908 12.542 86.7628 12.41 87.0988 12.254V13.658C86.7748 13.826 86.4148 13.952 86.0188 14.036C85.6348 14.132 85.1668 14.18 84.6148 14.18ZM93.0473 4.19C94.2233 4.19 95.0933 4.448 95.6573 4.964C96.2213 5.48 96.5033 6.302 96.5033 7.43V14H95.3513L95.0453 12.632H94.9733C94.5533 13.16 94.1093 13.55 93.6413 13.802C93.1853 14.054 92.5493 14.18 91.7333 14.18C90.8573 14.18 90.1313 13.952 89.5553 13.496C88.9793 13.028 88.6913 12.302 88.6913 11.318C88.6913 10.358 89.0693 9.62 89.8253 9.104C90.5813 8.576 91.7453 8.288 93.3173 8.24L94.9553 8.186V7.61C94.9553 6.806 94.7813 6.248 94.4333 5.936C94.0853 5.624 93.5933 5.468 92.9573 5.468C92.4533 5.468 91.9733 5.546 91.5173 5.702C91.0613 5.846 90.6353 6.014 90.2393 6.206L89.7533 5.018C90.1733 4.79 90.6713 4.598 91.2473 4.442C91.8233 4.274 92.4233 4.19 93.0473 4.19ZM93.5153 9.338C92.3153 9.386 91.4813 9.578 91.0133 9.914C90.5573 10.25 90.3293 10.724 90.3293 11.336C90.3293 11.876 90.4913 12.272 90.8153 12.524C91.1513 12.776 91.5773 12.902 92.0933 12.902C92.9093 12.902 93.5873 12.68 94.1273 12.236C94.6673 11.78 94.9373 11.084 94.9373 10.148V9.284L93.5153 9.338ZM105.765 11.336C105.765 12.272 105.417 12.98 104.721 13.46C104.025 13.94 103.089 14.18 101.913 14.18C101.241 14.18 100.659 14.126 100.167 14.018C99.6871 13.91 99.2611 13.76 98.8891 13.568V12.128C99.2731 12.32 99.7351 12.5 100.275 12.668C100.827 12.824 101.385 12.902 101.949 12.902C102.753 12.902 103.335 12.776 103.695 12.524C104.055 12.26 104.235 11.912 104.235 11.48C104.235 11.24 104.169 11.024 104.037 10.832C103.905 10.64 103.665 10.448 103.317 10.256C102.981 10.064 102.495 9.848 101.859 9.608C101.235 9.368 100.701 9.128 100.257 8.888C99.8131 8.648 99.4711 8.36 99.2311 8.024C98.9911 7.688 98.8711 7.256 98.8711 6.728C98.8711 5.912 99.2011 5.282 99.8611 4.838C100.533 4.394 101.409 4.172 102.489 4.172C103.077 4.172 103.623 4.232 104.127 4.352C104.643 4.46 105.123 4.616 105.567 4.82L105.027 6.08C104.619 5.912 104.193 5.768 103.749 5.648C103.305 5.528 102.849 5.468 102.381 5.468C101.733 5.468 101.235 5.576 100.887 5.792C100.551 5.996 100.383 6.278 100.383 6.638C100.383 6.902 100.461 7.13 100.617 7.322C100.773 7.502 101.031 7.682 101.391 7.862C101.763 8.03 102.255 8.234 102.867 8.474C103.479 8.702 104.001 8.936 104.433 9.176C104.865 9.416 105.195 9.71 105.423 10.058C105.651 10.394 105.765 10.82 105.765 11.336ZM111.318 12.884C111.558 12.884 111.804 12.866 112.056 12.83C112.308 12.782 112.512 12.734 112.668 12.686V13.892C112.5 13.976 112.26 14.042 111.948 14.09C111.636 14.15 111.336 14.18 111.048 14.18C110.544 14.18 110.076 14.096 109.644 13.928C109.224 13.748 108.882 13.442 108.618 13.01C108.354 12.578 108.222 11.972 108.222 11.192V5.576H106.854V4.82L108.24 4.19L108.87 2.138H109.806V4.352H112.596V5.576H109.806V11.156C109.806 11.744 109.944 12.182 110.22 12.47C110.508 12.746 110.874 12.884 111.318 12.884ZM115.41 0.733999C115.65 0.733999 115.86 0.817999 116.04 0.985999C116.232 1.142 116.328 1.394 116.328 1.742C116.328 2.078 116.232 2.33 116.04 2.498C115.86 2.666 115.65 2.75 115.41 2.75C115.146 2.75 114.924 2.666 114.744 2.498C114.564 2.33 114.474 2.078 114.474 1.742C114.474 1.394 114.564 1.142 114.744 0.985999C114.924 0.817999 115.146 0.733999 115.41 0.733999ZM116.184 4.352V14H114.6V4.352H116.184ZM123.885 4.172C125.037 4.172 125.907 4.454 126.495 5.018C127.083 5.57 127.377 6.47 127.377 7.718V14H125.811V7.826C125.811 6.278 125.091 5.504 123.651 5.504C122.583 5.504 121.845 5.804 121.437 6.404C121.029 7.004 120.825 7.868 120.825 8.996V14H119.241V4.352H120.519L120.753 5.666H120.843C121.155 5.162 121.587 4.79 122.139 4.55C122.691 4.298 123.273 4.172 123.885 4.172ZM133.788 4.172C134.424 4.172 134.994 4.292 135.498 4.532C136.014 4.772 136.452 5.138 136.812 5.63H136.902L137.118 4.352H138.378V14.162C138.378 15.542 138.024 16.58 137.316 17.276C136.62 17.972 135.534 18.32 134.058 18.32C132.642 18.32 131.484 18.116 130.584 17.708V16.25C131.532 16.754 132.72 17.006 134.148 17.006C134.976 17.006 135.624 16.76 136.092 16.268C136.572 15.788 136.812 15.128 136.812 14.288V13.91C136.812 13.766 136.818 13.562 136.83 13.298C136.842 13.022 136.854 12.83 136.866 12.722H136.794C136.146 13.694 135.15 14.18 133.806 14.18C132.558 14.18 131.58 13.742 130.872 12.866C130.176 11.99 129.828 10.766 129.828 9.194C129.828 7.658 130.176 6.44 130.872 5.54C131.58 4.628 132.552 4.172 133.788 4.172ZM134.004 5.504C133.2 5.504 132.576 5.828 132.132 6.476C131.688 7.112 131.466 8.024 131.466 9.212C131.466 10.4 131.682 11.312 132.114 11.948C132.558 12.572 133.2 12.884 134.04 12.884C135.012 12.884 135.72 12.626 136.164 12.11C136.608 11.582 136.83 10.736 136.83 9.572V9.194C136.83 7.874 136.602 6.932 136.146 6.368C135.69 5.792 134.976 5.504 134.004 5.504ZM149.772 4.19C150.948 4.19 151.818 4.448 152.382 4.964C152.946 5.48 153.228 6.302 153.228 7.43V14H152.076L151.77 12.632H151.698C151.278 13.16 150.834 13.55 150.366 13.802C149.91 14.054 149.274 14.18 148.458 14.18C147.582 14.18 146.856 13.952 146.28 13.496C145.704 13.028 145.416 12.302 145.416 11.318C145.416 10.358 145.794 9.62 146.55 9.104C147.306 8.576 148.47 8.288 150.042 8.24L151.68 8.186V7.61C151.68 6.806 151.506 6.248 151.158 5.936C150.81 5.624 150.318 5.468 149.682 5.468C149.178 5.468 148.698 5.546 148.242 5.702C147.786 5.846 147.36 6.014 146.964 6.206L146.478 5.018C146.898 4.79 147.396 4.598 147.972 4.442C148.548 4.274 149.148 4.19 149.772 4.19ZM150.24 9.338C149.04 9.386 148.206 9.578 147.738 9.914C147.282 10.25 147.054 10.724 147.054 11.336C147.054 11.876 147.216 12.272 147.54 12.524C147.876 12.776 148.302 12.902 148.818 12.902C149.634 12.902 150.312 12.68 150.852 12.236C151.392 11.78 151.662 11.084 151.662 10.148V9.284L150.24 9.338ZM160.852 4.172C162.004 4.172 162.874 4.454 163.462 5.018C164.05 5.57 164.344 6.47 164.344 7.718V14H162.778V7.826C162.778 6.278 162.058 5.504 160.618 5.504C159.55 5.504 158.812 5.804 158.404 6.404C157.996 7.004 157.792 7.868 157.792 8.996V14H156.208V4.352H157.486L157.72 5.666H157.81C158.122 5.162 158.554 4.79 159.106 4.55C159.658 4.298 160.24 4.172 160.852 4.172ZM170.755 14.18C169.555 14.18 168.595 13.766 167.875 12.938C167.155 12.098 166.795 10.85 166.795 9.194C166.795 7.538 167.155 6.29 167.875 5.45C168.607 4.598 169.573 4.172 170.773 4.172C171.517 4.172 172.123 4.31 172.591 4.586C173.071 4.862 173.461 5.198 173.761 5.594H173.869C173.857 5.438 173.833 5.21 173.797 4.91C173.773 4.598 173.761 4.352 173.761 4.172V0.319999H175.345V14H174.067L173.833 12.704H173.761C173.473 13.112 173.089 13.46 172.609 13.748C172.129 14.036 171.511 14.18 170.755 14.18ZM171.007 12.866C172.027 12.866 172.741 12.59 173.149 12.038C173.569 11.474 173.779 10.628 173.779 9.5V9.212C173.779 8.012 173.581 7.094 173.185 6.458C172.789 5.81 172.057 5.486 170.989 5.486C170.137 5.486 169.495 5.828 169.063 6.512C168.643 7.184 168.433 8.09 168.433 9.23C168.433 10.382 168.643 11.276 169.063 11.912C169.495 12.548 170.143 12.866 171.007 12.866ZM189.367 11.336C189.367 12.272 189.019 12.98 188.323 13.46C187.627 13.94 186.691 14.18 185.515 14.18C184.843 14.18 184.261 14.126 183.769 14.018C183.289 13.91 182.863 13.76 182.491 13.568V12.128C182.875 12.32 183.337 12.5 183.877 12.668C184.429 12.824 184.987 12.902 185.551 12.902C186.355 12.902 186.937 12.776 187.297 12.524C187.657 12.26 187.837 11.912 187.837 11.48C187.837 11.24 187.771 11.024 187.639 10.832C187.507 10.64 187.267 10.448 186.919 10.256C186.583 10.064 186.097 9.848 185.461 9.608C184.837 9.368 184.303 9.128 183.859 8.888C183.415 8.648 183.073 8.36 182.833 8.024C182.593 7.688 182.473 7.256 182.473 6.728C182.473 5.912 182.803 5.282 183.463 4.838C184.135 4.394 185.011 4.172 186.091 4.172C186.679 4.172 187.225 4.232 187.729 4.352C188.245 4.46 188.725 4.616 189.169 4.82L188.629 6.08C188.221 5.912 187.795 5.768 187.351 5.648C186.907 5.528 186.451 5.468 185.983 5.468C185.335 5.468 184.837 5.576 184.489 5.792C184.153 5.996 183.985 6.278 183.985 6.638C183.985 6.902 184.063 7.13 184.219 7.322C184.375 7.502 184.633 7.682 184.993 7.862C185.365 8.03 185.857 8.234 186.469 8.474C187.081 8.702 187.603 8.936 188.035 9.176C188.467 9.416 188.797 9.71 189.025 10.058C189.253 10.394 189.367 10.82 189.367 11.336ZM195.568 14.18C194.716 14.18 193.954 14.006 193.282 13.658C192.622 13.31 192.1 12.77 191.716 12.038C191.344 11.306 191.158 10.37 191.158 9.23C191.158 8.042 191.356 7.076 191.752 6.332C192.148 5.588 192.682 5.042 193.354 4.694C194.038 4.346 194.812 4.172 195.676 4.172C196.168 4.172 196.642 4.226 197.098 4.334C197.554 4.43 197.926 4.55 198.214 4.694L197.728 6.008C197.44 5.9 197.104 5.798 196.72 5.702C196.336 5.606 195.976 5.558 195.64 5.558C193.744 5.558 192.796 6.776 192.796 9.212C192.796 10.376 193.024 11.27 193.48 11.894C193.948 12.506 194.638 12.812 195.55 12.812C196.078 12.812 196.54 12.758 196.936 12.65C197.344 12.542 197.716 12.41 198.052 12.254V13.658C197.728 13.826 197.368 13.952 196.972 14.036C196.588 14.132 196.12 14.18 195.568 14.18ZM204.846 4.172C205.026 4.172 205.218 4.184 205.422 4.208C205.638 4.22 205.824 4.244 205.98 4.28L205.782 5.738C205.626 5.702 205.452 5.672 205.26 5.648C205.08 5.624 204.906 5.612 204.738 5.612C204.246 5.612 203.784 5.75 203.352 6.026C202.92 6.29 202.572 6.668 202.308 7.16C202.056 7.64 201.93 8.204 201.93 8.852V14H200.346V4.352H201.642L201.822 6.116H201.894C202.206 5.588 202.608 5.132 203.1 4.748C203.592 4.364 204.174 4.172 204.846 4.172ZM211.156 4.172C211.984 4.172 212.692 4.352 213.28 4.712C213.88 5.072 214.336 5.582 214.648 6.242C214.972 6.89 215.134 7.652 215.134 8.528V9.482H208.528C208.552 10.574 208.828 11.408 209.356 11.984C209.896 12.548 210.646 12.83 211.606 12.83C212.218 12.83 212.758 12.776 213.226 12.668C213.706 12.548 214.198 12.38 214.702 12.164V13.55C214.21 13.766 213.724 13.922 213.244 14.018C212.764 14.126 212.194 14.18 211.534 14.18C210.622 14.18 209.812 13.994 209.104 13.622C208.408 13.25 207.862 12.698 207.466 11.966C207.082 11.222 206.89 10.316 206.89 9.248C206.89 8.192 207.064 7.286 207.412 6.53C207.772 5.774 208.27 5.192 208.906 4.784C209.554 4.376 210.304 4.172 211.156 4.172ZM211.138 5.468C210.382 5.468 209.782 5.714 209.338 6.206C208.906 6.686 208.648 7.358 208.564 8.222H213.478C213.466 7.406 213.274 6.746 212.902 6.242C212.53 5.726 211.942 5.468 211.138 5.468ZM221.317 4.172C222.145 4.172 222.853 4.352 223.441 4.712C224.041 5.072 224.497 5.582 224.809 6.242C225.133 6.89 225.295 7.652 225.295 8.528V9.482H218.689C218.713 10.574 218.989 11.408 219.517 11.984C220.057 12.548 220.807 12.83 221.767 12.83C222.379 12.83 222.919 12.776 223.387 12.668C223.867 12.548 224.359 12.38 224.863 12.164V13.55C224.371 13.766 223.885 13.922 223.405 14.018C222.925 14.126 222.355 14.18 221.695 14.18C220.783 14.18 219.973 13.994 219.265 13.622C218.569 13.25 218.023 12.698 217.627 11.966C217.243 11.222 217.051 10.316 217.051 9.248C217.051 8.192 217.225 7.286 217.573 6.53C217.933 5.774 218.431 5.192 219.067 4.784C219.715 4.376 220.465 4.172 221.317 4.172ZM221.299 5.468C220.543 5.468 219.943 5.714 219.499 6.206C219.067 6.686 218.809 7.358 218.725 8.222H223.639C223.627 7.406 223.435 6.746 223.063 6.242C222.691 5.726 222.103 5.468 221.299 5.468ZM232.395 4.172C233.547 4.172 234.417 4.454 235.005 5.018C235.593 5.57 235.887 6.47 235.887 7.718V14H234.321V7.826C234.321 6.278 233.601 5.504 232.161 5.504C231.093 5.504 230.355 5.804 229.947 6.404C229.539 7.004 229.335 7.868 229.335 8.996V14H227.751V4.352H229.029L229.263 5.666H229.353C229.665 5.162 230.097 4.79 230.649 4.55C231.201 4.298 231.783 4.172 232.395 4.172ZM239.688 0.733999C239.928 0.733999 240.138 0.817999 240.318 0.985999C240.51 1.142 240.606 1.394 240.606 1.742C240.606 2.078 240.51 2.33 240.318 2.498C240.138 2.666 239.928 2.75 239.688 2.75C239.424 2.75 239.202 2.666 239.022 2.498C238.842 2.33 238.752 2.078 238.752 1.742C238.752 1.394 238.842 1.142 239.022 0.985999C239.202 0.817999 239.424 0.733999 239.688 0.733999ZM240.462 4.352V14H238.878V4.352H240.462ZM248.162 4.172C249.314 4.172 250.184 4.454 250.772 5.018C251.36 5.57 251.654 6.47 251.654 7.718V14H250.088V7.826C250.088 6.278 249.368 5.504 247.928 5.504C246.86 5.504 246.122 5.804 245.714 6.404C245.306 7.004 245.102 7.868 245.102 8.996V14H243.518V4.352H244.796L245.03 5.666H245.12C245.432 5.162 245.864 4.79 246.416 4.55C246.968 4.298 247.55 4.172 248.162 4.172ZM258.065 4.172C258.701 4.172 259.271 4.292 259.775 4.532C260.291 4.772 260.729 5.138 261.089 5.63H261.179L261.395 4.352H262.655V14.162C262.655 15.542 262.301 16.58 261.593 17.276C260.897 17.972 259.811 18.32 258.335 18.32C256.919 18.32 255.761 18.116 254.861 17.708V16.25C255.809 16.754 256.997 17.006 258.425 17.006C259.253 17.006 259.901 16.76 260.369 16.268C260.849 15.788 261.089 15.128 261.089 14.288V13.91C261.089 13.766 261.095 13.562 261.107 13.298C261.119 13.022 261.131 12.83 261.143 12.722H261.071C260.423 13.694 259.427 14.18 258.083 14.18C256.835 14.18 255.857 13.742 255.149 12.866C254.453 11.99 254.105 10.766 254.105 9.194C254.105 7.658 254.453 6.44 255.149 5.54C255.857 4.628 256.829 4.172 258.065 4.172ZM258.281 5.504C257.477 5.504 256.853 5.828 256.409 6.476C255.965 7.112 255.743 8.024 255.743 9.212C255.743 10.4 255.959 11.312 256.391 11.948C256.835 12.572 257.477 12.884 258.317 12.884C259.289 12.884 259.997 12.626 260.441 12.11C260.885 11.582 261.107 10.736 261.107 9.572V9.194C261.107 7.874 260.879 6.932 260.423 6.368C259.967 5.792 259.253 5.504 258.281 5.504ZM265.485 13.028C265.485 12.584 265.593 12.272 265.809 12.092C266.025 11.912 266.283 11.822 266.583 11.822C266.895 11.822 267.159 11.912 267.375 12.092C267.603 12.272 267.717 12.584 267.717 13.028C267.717 13.46 267.603 13.772 267.375 13.964C267.159 14.156 266.895 14.252 266.583 14.252C266.283 14.252 266.025 14.156 265.809 13.964C265.593 13.772 265.485 13.46 265.485 13.028ZM275.428 14V1.148H277.048V12.56H282.664V14H275.428ZM288.377 4.172C289.205 4.172 289.913 4.352 290.501 4.712C291.101 5.072 291.557 5.582 291.869 6.242C292.193 6.89 292.355 7.652 292.355 8.528V9.482H285.749C285.773 10.574 286.049 11.408 286.577 11.984C287.117 12.548 287.867 12.83 288.827 12.83C289.439 12.83 289.979 12.776 290.447 12.668C290.927 12.548 291.419 12.38 291.923 12.164V13.55C291.431 13.766 290.945 13.922 290.465 14.018C289.985 14.126 289.415 14.18 288.755 14.18C287.843 14.18 287.033 13.994 286.325 13.622C285.629 13.25 285.083 12.698 284.687 11.966C284.303 11.222 284.111 10.316 284.111 9.248C284.111 8.192 284.285 7.286 284.633 6.53C284.993 5.774 285.491 5.192 286.127 4.784C286.775 4.376 287.525 4.172 288.377 4.172ZM288.359 5.468C287.603 5.468 287.003 5.714 286.559 6.206C286.127 6.686 285.869 7.358 285.785 8.222H290.699C290.687 7.406 290.495 6.746 290.123 6.242C289.751 5.726 289.163 5.468 288.359 5.468ZM298.033 12.884C298.273 12.884 298.519 12.866 298.771 12.83C299.023 12.782 299.227 12.734 299.383 12.686V13.892C299.215 13.976 298.975 14.042 298.663 14.09C298.351 14.15 298.051 14.18 297.763 14.18C297.259 14.18 296.791 14.096 296.359 13.928C295.939 13.748 295.597 13.442 295.333 13.01C295.069 12.578 294.937 11.972 294.937 11.192V5.576H293.569V4.82L294.955 4.19L295.585 2.138H296.521V4.352H299.311V5.576H296.521V11.156C296.521 11.744 296.659 12.182 296.935 12.47C297.223 12.746 297.589 12.884 298.033 12.884ZM311.715 2.39C310.335 2.39 309.249 2.852 308.457 3.776C307.665 4.7 307.269 5.966 307.269 7.574C307.269 9.17 307.635 10.436 308.367 11.372C309.111 12.296 310.221 12.758 311.697 12.758C312.261 12.758 312.795 12.71 313.299 12.614C313.803 12.518 314.295 12.398 314.775 12.254V13.658C314.295 13.838 313.797 13.97 313.281 14.054C312.777 14.138 312.171 14.18 311.463 14.18C310.155 14.18 309.063 13.91 308.187 13.37C307.311 12.83 306.651 12.062 306.207 11.066C305.775 10.07 305.559 8.9 305.559 7.556C305.559 6.26 305.793 5.12 306.261 4.136C306.741 3.14 307.443 2.366 308.367 1.814C309.291 1.25 310.413 0.967999 311.733 0.967999C313.089 0.967999 314.271 1.22 315.279 1.724L314.631 3.092C314.235 2.912 313.791 2.75 313.299 2.606C312.819 2.462 312.291 2.39 311.715 2.39ZM318.948 14H317.364V0.319999H318.948V14ZM325.731 4.172C326.559 4.172 327.267 4.352 327.855 4.712C328.455 5.072 328.911 5.582 329.223 6.242C329.547 6.89 329.709 7.652 329.709 8.528V9.482H323.103C323.127 10.574 323.403 11.408 323.931 11.984C324.471 12.548 325.221 12.83 326.181 12.83C326.793 12.83 327.333 12.776 327.801 12.668C328.281 12.548 328.773 12.38 329.277 12.164V13.55C328.785 13.766 328.299 13.922 327.819 14.018C327.339 14.126 326.769 14.18 326.109 14.18C325.197 14.18 324.387 13.994 323.679 13.622C322.983 13.25 322.437 12.698 322.041 11.966C321.657 11.222 321.465 10.316 321.465 9.248C321.465 8.192 321.639 7.286 321.987 6.53C322.347 5.774 322.845 5.192 323.481 4.784C324.129 4.376 324.879 4.172 325.731 4.172ZM325.713 5.468C324.957 5.468 324.357 5.714 323.913 6.206C323.481 6.686 323.223 7.358 323.139 8.222H328.053C328.041 7.406 327.849 6.746 327.477 6.242C327.105 5.726 326.517 5.468 325.713 5.468ZM336.665 4.172C336.845 4.172 337.037 4.184 337.241 4.208C337.457 4.22 337.643 4.244 337.799 4.28L337.601 5.738C337.445 5.702 337.271 5.672 337.079 5.648C336.899 5.624 336.725 5.612 336.557 5.612C336.065 5.612 335.603 5.75 335.171 6.026C334.739 6.29 334.391 6.668 334.127 7.16C333.875 7.64 333.749 8.204 333.749 8.852V14H332.165V4.352H333.461L333.641 6.116H333.713C334.025 5.588 334.427 5.132 334.919 4.748C335.411 4.364 335.993 4.172 336.665 4.172ZM341.166 7.466C341.166 7.658 341.154 7.91 341.13 8.222C341.118 8.534 341.106 8.804 341.094 9.032H341.166C341.238 8.936 341.346 8.798 341.49 8.618C341.634 8.438 341.778 8.258 341.922 8.078C342.078 7.886 342.21 7.73 342.318 7.61L345.396 4.352H347.25L343.344 8.474L347.52 14H345.612L342.264 9.5L341.166 10.454V14H339.6V0.319999H341.166V7.466ZM355.498 11.336C355.498 12.272 355.15 12.98 354.454 13.46C353.758 13.94 352.822 14.18 351.646 14.18C350.974 14.18 350.392 14.126 349.9 14.018C349.42 13.91 348.994 13.76 348.622 13.568V12.128C349.006 12.32 349.468 12.5 350.008 12.668C350.56 12.824 351.118 12.902 351.682 12.902C352.486 12.902 353.068 12.776 353.428 12.524C353.788 12.26 353.968 11.912 353.968 11.48C353.968 11.24 353.902 11.024 353.77 10.832C353.638 10.64 353.398 10.448 353.05 10.256C352.714 10.064 352.228 9.848 351.592 9.608C350.968 9.368 350.434 9.128 349.99 8.888C349.546 8.648 349.204 8.36 348.964 8.024C348.724 7.688 348.604 7.256 348.604 6.728C348.604 5.912 348.934 5.282 349.594 4.838C350.266 4.394 351.142 4.172 352.222 4.172C352.81 4.172 353.356 4.232 353.86 4.352C354.376 4.46 354.856 4.616 355.3 4.82L354.76 6.08C354.352 5.912 353.926 5.768 353.482 5.648C353.038 5.528 352.582 5.468 352.114 5.468C351.466 5.468 350.968 5.576 350.62 5.792C350.284 5.996 350.116 6.278 350.116 6.638C350.116 6.902 350.194 7.13 350.35 7.322C350.506 7.502 350.764 7.682 351.124 7.862C351.496 8.03 351.988 8.234 352.6 8.474C353.212 8.702 353.734 8.936 354.166 9.176C354.598 9.416 354.928 9.71 355.156 10.058C355.384 10.394 355.498 10.82 355.498 11.336ZM356.317 4.352H358.009L360.097 9.842C360.277 10.322 360.439 10.784 360.583 11.228C360.727 11.66 360.835 12.074 360.907 12.47H360.979C361.051 12.17 361.165 11.78 361.321 11.3C361.477 10.808 361.639 10.316 361.807 9.824L363.769 4.352H365.479L361.321 15.332C360.985 16.244 360.547 16.97 360.007 17.51C359.479 18.05 358.747 18.32 357.811 18.32C357.523 18.32 357.271 18.302 357.055 18.266C356.839 18.242 356.653 18.212 356.497 18.176V16.916C356.629 16.94 356.785 16.964 356.965 16.988C357.157 17.012 357.355 17.024 357.559 17.024C358.111 17.024 358.555 16.868 358.891 16.556C359.239 16.244 359.509 15.83 359.701 15.314L360.205 14.036L356.317 4.352ZM373.264 4.334C373.264 4.814 373.234 5.264 373.174 5.684H373.282C373.594 5.192 374.014 4.82 374.542 4.568C375.082 4.316 375.664 4.19 376.288 4.19C377.464 4.19 378.346 4.472 378.934 5.036C379.522 5.588 379.816 6.482 379.816 7.718V14H378.25V7.826C378.25 6.278 377.53 5.504 376.09 5.504C375.01 5.504 374.266 5.81 373.858 6.422C373.462 7.022 373.264 7.886 373.264 9.014V14H371.68V0.319999H373.264V4.334ZM386.461 4.19C387.637 4.19 388.507 4.448 389.071 4.964C389.635 5.48 389.917 6.302 389.917 7.43V14H388.765L388.459 12.632H388.387C387.967 13.16 387.523 13.55 387.055 13.802C386.599 14.054 385.963 14.18 385.147 14.18C384.271 14.18 383.545 13.952 382.969 13.496C382.393 13.028 382.105 12.302 382.105 11.318C382.105 10.358 382.483 9.62 383.239 9.104C383.995 8.576 385.159 8.288 386.731 8.24L388.369 8.186V7.61C388.369 6.806 388.195 6.248 387.847 5.936C387.499 5.624 387.007 5.468 386.371 5.468C385.867 5.468 385.387 5.546 384.931 5.702C384.475 5.846 384.049 6.014 383.653 6.206L383.167 5.018C383.587 4.79 384.085 4.598 384.661 4.442C385.237 4.274 385.837 4.19 386.461 4.19ZM386.929 9.338C385.729 9.386 384.895 9.578 384.427 9.914C383.971 10.25 383.743 10.724 383.743 11.336C383.743 11.876 383.905 12.272 384.229 12.524C384.565 12.776 384.991 12.902 385.507 12.902C386.323 12.902 387.001 12.68 387.541 12.236C388.081 11.78 388.351 11.084 388.351 10.148V9.284L386.929 9.338ZM397.541 4.172C398.693 4.172 399.563 4.454 400.151 5.018C400.739 5.57 401.033 6.47 401.033 7.718V14H399.467V7.826C399.467 6.278 398.747 5.504 397.307 5.504C396.239 5.504 395.501 5.804 395.093 6.404C394.685 7.004 394.481 7.868 394.481 8.996V14H392.897V4.352H394.175L394.409 5.666H394.499C394.811 5.162 395.243 4.79 395.795 4.55C396.347 4.298 396.929 4.172 397.541 4.172ZM407.444 14.18C406.244 14.18 405.284 13.766 404.564 12.938C403.844 12.098 403.484 10.85 403.484 9.194C403.484 7.538 403.844 6.29 404.564 5.45C405.296 4.598 406.262 4.172 407.462 4.172C408.206 4.172 408.812 4.31 409.28 4.586C409.76 4.862 410.15 5.198 410.45 5.594H410.558C410.546 5.438 410.522 5.21 410.486 4.91C410.462 4.598 410.45 4.352 410.45 4.172V0.319999H412.034V14H410.756L410.522 12.704H410.45C410.162 13.112 409.778 13.46 409.298 13.748C408.818 14.036 408.2 14.18 407.444 14.18ZM407.696 12.866C408.716 12.866 409.43 12.59 409.838 12.038C410.258 11.474 410.468 10.628 410.468 9.5V9.212C410.468 8.012 410.27 7.094 409.874 6.458C409.478 5.81 408.746 5.486 407.678 5.486C406.826 5.486 406.184 5.828 405.752 6.512C405.332 7.184 405.122 8.09 405.122 9.23C405.122 10.382 405.332 11.276 405.752 11.912C406.184 12.548 406.832 12.866 407.696 12.866ZM416.682 14H415.098V0.319999H416.682V14ZM423.465 4.172C424.293 4.172 425.001 4.352 425.589 4.712C426.189 5.072 426.645 5.582 426.957 6.242C427.281 6.89 427.443 7.652 427.443 8.528V9.482H420.837C420.861 10.574 421.137 11.408 421.665 11.984C422.205 12.548 422.955 12.83 423.915 12.83C424.527 12.83 425.067 12.776 425.535 12.668C426.015 12.548 426.507 12.38 427.011 12.164V13.55C426.519 13.766 426.033 13.922 425.553 14.018C425.073 14.126 424.503 14.18 423.843 14.18C422.931 14.18 422.121 13.994 421.413 13.622C420.717 13.25 420.171 12.698 419.775 11.966C419.391 11.222 419.199 10.316 419.199 9.248C419.199 8.192 419.373 7.286 419.721 6.53C420.081 5.774 420.579 5.192 421.215 4.784C421.863 4.376 422.613 4.172 423.465 4.172ZM423.447 5.468C422.691 5.468 422.091 5.714 421.647 6.206C421.215 6.686 420.957 7.358 420.873 8.222H425.787C425.775 7.406 425.583 6.746 425.211 6.242C424.839 5.726 424.251 5.468 423.447 5.468ZM438.445 14.18C437.593 14.18 436.831 14.006 436.159 13.658C435.499 13.31 434.977 12.77 434.593 12.038C434.221 11.306 434.035 10.37 434.035 9.23C434.035 8.042 434.233 7.076 434.629 6.332C435.025 5.588 435.559 5.042 436.231 4.694C436.915 4.346 437.689 4.172 438.553 4.172C439.045 4.172 439.519 4.226 439.975 4.334C440.431 4.43 440.803 4.55 441.091 4.694L440.605 6.008C440.317 5.9 439.981 5.798 439.597 5.702C439.213 5.606 438.853 5.558 438.517 5.558C436.621 5.558 435.673 6.776 435.673 9.212C435.673 10.376 435.901 11.27 436.357 11.894C436.825 12.506 437.515 12.812 438.427 12.812C438.955 12.812 439.417 12.758 439.813 12.65C440.221 12.542 440.593 12.41 440.929 12.254V13.658C440.605 13.826 440.245 13.952 439.849 14.036C439.465 14.132 438.997 14.18 438.445 14.18ZM451.611 9.158C451.611 10.754 451.203 11.99 450.387 12.866C449.583 13.742 448.491 14.18 447.111 14.18C446.259 14.18 445.497 13.988 444.825 13.604C444.165 13.208 443.643 12.638 443.259 11.894C442.875 11.138 442.683 10.226 442.683 9.158C442.683 7.562 443.085 6.332 443.889 5.468C444.693 4.604 445.785 4.172 447.165 4.172C448.041 4.172 448.809 4.37 449.469 4.766C450.141 5.15 450.663 5.714 451.035 6.458C451.419 7.19 451.611 8.09 451.611 9.158ZM444.321 9.158C444.321 10.298 444.543 11.204 444.987 11.876C445.443 12.536 446.163 12.866 447.147 12.866C448.119 12.866 448.833 12.536 449.289 11.876C449.745 11.204 449.973 10.298 449.973 9.158C449.973 8.018 449.745 7.124 449.289 6.476C448.833 5.828 448.113 5.504 447.129 5.504C446.145 5.504 445.431 5.828 444.987 6.476C444.543 7.124 444.321 8.018 444.321 9.158ZM458.766 4.172C459.918 4.172 460.788 4.454 461.376 5.018C461.964 5.57 462.258 6.47 462.258 7.718V14H460.692V7.826C460.692 6.278 459.972 5.504 458.532 5.504C457.464 5.504 456.726 5.804 456.318 6.404C455.91 7.004 455.706 7.868 455.706 8.996V14H454.122V4.352H455.4L455.634 5.666H455.724C456.036 5.162 456.468 4.79 457.02 4.55C457.572 4.298 458.154 4.172 458.766 4.172ZM468.471 12.884C468.711 12.884 468.957 12.866 469.209 12.83C469.461 12.782 469.665 12.734 469.821 12.686V13.892C469.653 13.976 469.413 14.042 469.101 14.09C468.789 14.15 468.489 14.18 468.201 14.18C467.697 14.18 467.229 14.096 466.797 13.928C466.377 13.748 466.035 13.442 465.771 13.01C465.507 12.578 465.375 11.972 465.375 11.192V5.576H464.007V4.82L465.393 4.19L466.023 2.138H466.959V4.352H469.749V5.576H466.959V11.156C466.959 11.744 467.097 12.182 467.373 12.47C467.661 12.746 468.027 12.884 468.471 12.884ZM476.253 4.172C476.433 4.172 476.625 4.184 476.829 4.208C477.045 4.22 477.231 4.244 477.387 4.28L477.189 5.738C477.033 5.702 476.859 5.672 476.667 5.648C476.487 5.624 476.313 5.612 476.145 5.612C475.653 5.612 475.191 5.75 474.759 6.026C474.327 6.29 473.979 6.668 473.715 7.16C473.463 7.64 473.337 8.204 473.337 8.852V14H471.753V4.352H473.049L473.229 6.116H473.301C473.613 5.588 474.015 5.132 474.507 4.748C474.999 4.364 475.581 4.172 476.253 4.172ZM482.491 4.19C483.667 4.19 484.537 4.448 485.101 4.964C485.665 5.48 485.947 6.302 485.947 7.43V14H484.795L484.489 12.632H484.417C483.997 13.16 483.553 13.55 483.085 13.802C482.629 14.054 481.993 14.18 481.177 14.18C480.301 14.18 479.575 13.952 478.999 13.496C478.423 13.028 478.135 12.302 478.135 11.318C478.135 10.358 478.513 9.62 479.269 9.104C480.025 8.576 481.189 8.288 482.761 8.24L484.399 8.186V7.61C484.399 6.806 484.225 6.248 483.877 5.936C483.529 5.624 483.037 5.468 482.401 5.468C481.897 5.468 481.417 5.546 480.961 5.702C480.505 5.846 480.079 6.014 479.683 6.206L479.197 5.018C479.617 4.79 480.115 4.598 480.691 4.442C481.267 4.274 481.867 4.19 482.491 4.19ZM482.959 9.338C481.759 9.386 480.925 9.578 480.457 9.914C480.001 10.25 479.773 10.724 479.773 11.336C479.773 11.876 479.935 12.272 480.259 12.524C480.595 12.776 481.021 12.902 481.537 12.902C482.353 12.902 483.031 12.68 483.571 12.236C484.111 11.78 484.381 11.084 484.381 10.148V9.284L482.959 9.338ZM492.796 14.18C491.944 14.18 491.182 14.006 490.51 13.658C489.85 13.31 489.328 12.77 488.944 12.038C488.572 11.306 488.386 10.37 488.386 9.23C488.386 8.042 488.584 7.076 488.98 6.332C489.376 5.588 489.91 5.042 490.582 4.694C491.266 4.346 492.04 4.172 492.904 4.172C493.396 4.172 493.87 4.226 494.326 4.334C494.782 4.43 495.154 4.55 495.442 4.694L494.956 6.008C494.668 5.9 494.332 5.798 493.948 5.702C493.564 5.606 493.204 5.558 492.868 5.558C490.972 5.558 490.024 6.776 490.024 9.212C490.024 10.376 490.252 11.27 490.708 11.894C491.176 12.506 491.866 12.812 492.778 12.812C493.306 12.812 493.768 12.758 494.164 12.65C494.572 12.542 494.944 12.41 495.28 12.254V13.658C494.956 13.826 494.596 13.952 494.2 14.036C493.816 14.132 493.348 14.18 492.796 14.18ZM500.797 12.884C501.037 12.884 501.283 12.866 501.535 12.83C501.787 12.782 501.991 12.734 502.147 12.686V13.892C501.979 13.976 501.739 14.042 501.427 14.09C501.115 14.15 500.815 14.18 500.527 14.18C500.023 14.18 499.555 14.096 499.123 13.928C498.703 13.748 498.361 13.442 498.097 13.01C497.833 12.578 497.701 11.972 497.701 11.192V5.576H496.333V4.82L497.719 4.19L498.349 2.138H499.285V4.352H502.075V5.576H499.285V11.156C499.285 11.744 499.423 12.182 499.699 12.47C499.987 12.746 500.353 12.884 500.797 12.884ZM510.361 11.336C510.361 12.272 510.013 12.98 509.317 13.46C508.621 13.94 507.685 14.18 506.509 14.18C505.837 14.18 505.255 14.126 504.763 14.018C504.283 13.91 503.857 13.76 503.485 13.568V12.128C503.869 12.32 504.331 12.5 504.871 12.668C505.423 12.824 505.981 12.902 506.545 12.902C507.349 12.902 507.931 12.776 508.291 12.524C508.651 12.26 508.831 11.912 508.831 11.48C508.831 11.24 508.765 11.024 508.633 10.832C508.501 10.64 508.261 10.448 507.913 10.256C507.577 10.064 507.091 9.848 506.455 9.608C505.831 9.368 505.297 9.128 504.853 8.888C504.409 8.648 504.067 8.36 503.827 8.024C503.587 7.688 503.467 7.256 503.467 6.728C503.467 5.912 503.797 5.282 504.457 4.838C505.129 4.394 506.005 4.172 507.085 4.172C507.673 4.172 508.219 4.232 508.723 4.352C509.239 4.46 509.719 4.616 510.163 4.82L509.623 6.08C509.215 5.912 508.789 5.768 508.345 5.648C507.901 5.528 507.445 5.468 506.977 5.468C506.329 5.468 505.831 5.576 505.483 5.792C505.147 5.996 504.979 6.278 504.979 6.638C504.979 6.902 505.057 7.13 505.213 7.322C505.369 7.502 505.627 7.682 505.987 7.862C506.359 8.03 506.851 8.234 507.463 8.474C508.075 8.702 508.597 8.936 509.029 9.176C509.461 9.416 509.791 9.71 510.019 10.058C510.247 10.394 510.361 10.82 510.361 11.336ZM514.618 12.11C514.462 12.746 514.234 13.442 513.934 14.198C513.646 14.966 513.358 15.674 513.07 16.322H511.9C512.068 15.638 512.236 14.888 512.404 14.072C512.584 13.256 512.716 12.536 512.8 11.912H514.492L514.618 12.11ZM526.684 4.172C526.864 4.172 527.056 4.184 527.26 4.208C527.476 4.22 527.662 4.244 527.818 4.28L527.62 5.738C527.464 5.702 527.29 5.672 527.098 5.648C526.918 5.624 526.744 5.612 526.576 5.612C526.084 5.612 525.622 5.75 525.19 6.026C524.758 6.29 524.41 6.668 524.146 7.16C523.894 7.64 523.768 8.204 523.768 8.852V14H522.184V4.352H523.48L523.66 6.116H523.732C524.044 5.588 524.446 5.132 524.938 4.748C525.43 4.364 526.012 4.172 526.684 4.172ZM532.994 4.172C533.822 4.172 534.53 4.352 535.118 4.712C535.718 5.072 536.174 5.582 536.486 6.242C536.81 6.89 536.972 7.652 536.972 8.528V9.482H530.366C530.39 10.574 530.666 11.408 531.194 11.984C531.734 12.548 532.484 12.83 533.444 12.83C534.056 12.83 534.596 12.776 535.064 12.668C535.544 12.548 536.036 12.38 536.54 12.164V13.55C536.048 13.766 535.562 13.922 535.082 14.018C534.602 14.126 534.032 14.18 533.372 14.18C532.46 14.18 531.65 13.994 530.942 13.622C530.246 13.25 529.7 12.698 529.304 11.966C528.92 11.222 528.728 10.316 528.728 9.248C528.728 8.192 528.902 7.286 529.25 6.53C529.61 5.774 530.108 5.192 530.744 4.784C531.392 4.376 532.142 4.172 532.994 4.172ZM532.976 5.468C532.22 5.468 531.62 5.714 531.176 6.206C530.744 6.686 530.486 7.358 530.402 8.222H535.316C535.304 7.406 535.112 6.746 534.74 6.242C534.368 5.726 533.78 5.468 532.976 5.468ZM545.71 11.336C545.71 12.272 545.362 12.98 544.666 13.46C543.97 13.94 543.034 14.18 541.858 14.18C541.186 14.18 540.604 14.126 540.112 14.018C539.632 13.91 539.206 13.76 538.834 13.568V12.128C539.218 12.32 539.68 12.5 540.22 12.668C540.772 12.824 541.33 12.902 541.894 12.902C542.698 12.902 543.28 12.776 543.64 12.524C544 12.26 544.18 11.912 544.18 11.48C544.18 11.24 544.114 11.024 543.982 10.832C543.85 10.64 543.61 10.448 543.262 10.256C542.926 10.064 542.44 9.848 541.804 9.608C541.18 9.368 540.646 9.128 540.202 8.888C539.758 8.648 539.416 8.36 539.176 8.024C538.936 7.688 538.816 7.256 538.816 6.728C538.816 5.912 539.146 5.282 539.806 4.838C540.478 4.394 541.354 4.172 542.434 4.172C543.022 4.172 543.568 4.232 544.072 4.352C544.588 4.46 545.068 4.616 545.512 4.82L544.972 6.08C544.564 5.912 544.138 5.768 543.694 5.648C543.25 5.528 542.794 5.468 542.326 5.468C541.678 5.468 541.18 5.576 540.832 5.792C540.496 5.996 540.328 6.278 540.328 6.638C540.328 6.902 540.406 7.13 540.562 7.322C540.718 7.502 540.976 7.682 541.336 7.862C541.708 8.03 542.2 8.234 542.812 8.474C543.424 8.702 543.946 8.936 544.378 9.176C544.81 9.416 545.14 9.71 545.368 10.058C545.596 10.394 545.71 10.82 545.71 11.336ZM556.43 9.158C556.43 10.754 556.022 11.99 555.206 12.866C554.402 13.742 553.31 14.18 551.93 14.18C551.078 14.18 550.316 13.988 549.644 13.604C548.984 13.208 548.462 12.638 548.078 11.894C547.694 11.138 547.502 10.226 547.502 9.158C547.502 7.562 547.904 6.332 548.708 5.468C549.512 4.604 550.604 4.172 551.984 4.172C552.86 4.172 553.628 4.37 554.288 4.766C554.96 5.15 555.482 5.714 555.854 6.458C556.238 7.19 556.43 8.09 556.43 9.158ZM549.14 9.158C549.14 10.298 549.362 11.204 549.806 11.876C550.262 12.536 550.982 12.866 551.966 12.866C552.938 12.866 553.652 12.536 554.108 11.876C554.564 11.204 554.792 10.298 554.792 9.158C554.792 8.018 554.564 7.124 554.108 6.476C553.652 5.828 552.932 5.504 551.948 5.504C550.964 5.504 550.25 5.828 549.806 6.476C549.362 7.124 549.14 8.018 549.14 9.158ZM560.524 14H558.94V0.319999H560.524V14ZM565.705 14L562.051 4.352H563.743L565.795 10.04C565.891 10.304 565.993 10.598 566.101 10.922C566.209 11.246 566.305 11.558 566.389 11.858C566.473 12.146 566.533 12.392 566.569 12.596H566.641C566.689 12.392 566.755 12.14 566.839 11.84C566.935 11.54 567.037 11.228 567.145 10.904C567.265 10.58 567.367 10.292 567.451 10.04L569.503 4.352H571.195L567.523 14H565.705ZM576.447 4.172C577.275 4.172 577.983 4.352 578.571 4.712C579.171 5.072 579.627 5.582 579.939 6.242C580.263 6.89 580.425 7.652 580.425 8.528V9.482H573.819C573.843 10.574 574.119 11.408 574.647 11.984C575.187 12.548 575.937 12.83 576.897 12.83C577.509 12.83 578.049 12.776 578.517 12.668C578.997 12.548 579.489 12.38 579.993 12.164V13.55C579.501 13.766 579.015 13.922 578.535 14.018C578.055 14.126 577.485 14.18 576.825 14.18C575.913 14.18 575.103 13.994 574.395 13.622C573.699 13.25 573.153 12.698 572.757 11.966C572.373 11.222 572.181 10.316 572.181 9.248C572.181 8.192 572.355 7.286 572.703 6.53C573.063 5.774 573.561 5.192 574.197 4.784C574.845 4.376 575.595 4.172 576.447 4.172ZM576.429 5.468C575.673 5.468 575.073 5.714 574.629 6.206C574.197 6.686 573.939 7.358 573.855 8.222H578.769C578.757 7.406 578.565 6.746 578.193 6.242C577.821 5.726 577.233 5.468 576.429 5.468ZM591.211 4.19C592.387 4.19 593.257 4.448 593.821 4.964C594.385 5.48 594.667 6.302 594.667 7.43V14H593.515L593.209 12.632H593.137C592.717 13.16 592.273 13.55 591.805 13.802C591.349 14.054 590.713 14.18 589.897 14.18C589.021 14.18 588.295 13.952 587.719 13.496C587.143 13.028 586.855 12.302 586.855 11.318C586.855 10.358 587.233 9.62 587.989 9.104C588.745 8.576 589.909 8.288 591.481 8.24L593.119 8.186V7.61C593.119 6.806 592.945 6.248 592.597 5.936C592.249 5.624 591.757 5.468 591.121 5.468C590.617 5.468 590.137 5.546 589.681 5.702C589.225 5.846 588.799 6.014 588.403 6.206L587.917 5.018C588.337 4.79 588.835 4.598 589.411 4.442C589.987 4.274 590.587 4.19 591.211 4.19ZM591.679 9.338C590.479 9.386 589.645 9.578 589.177 9.914C588.721 10.25 588.493 10.724 588.493 11.336C588.493 11.876 588.655 12.272 588.979 12.524C589.315 12.776 589.741 12.902 590.257 12.902C591.073 12.902 591.751 12.68 592.291 12.236C592.831 11.78 593.101 11.084 593.101 10.148V9.284L591.679 9.338ZM602.291 4.172C603.443 4.172 604.313 4.454 604.901 5.018C605.489 5.57 605.783 6.47 605.783 7.718V14H604.217V7.826C604.217 6.278 603.497 5.504 602.057 5.504C600.989 5.504 600.251 5.804 599.843 6.404C599.435 7.004 599.231 7.868 599.231 8.996V14H597.647V4.352H598.925L599.159 5.666H599.249C599.561 5.162 599.993 4.79 600.545 4.55C601.097 4.298 601.679 4.172 602.291 4.172ZM607.262 4.352H608.954L611.042 9.842C611.222 10.322 611.384 10.784 611.528 11.228C611.672 11.66 611.78 12.074 611.852 12.47H611.924C611.996 12.17 612.11 11.78 612.266 11.3C612.422 10.808 612.584 10.316 612.752 9.824L614.714 4.352H616.424L612.266 15.332C611.93 16.244 611.492 16.97 610.952 17.51C610.424 18.05 609.692 18.32 608.756 18.32C608.468 18.32 608.216 18.302 608 18.266C607.784 18.242 607.598 18.212 607.442 18.176V16.916C607.574 16.94 607.73 16.964 607.91 16.988C608.102 17.012 608.3 17.024 608.504 17.024C609.056 17.024 609.5 16.868 609.836 16.556C610.184 16.244 610.454 15.83 610.646 15.314L611.15 14.036L607.262 4.352ZM631.014 9.158C631.014 10.754 630.606 11.99 629.79 12.866C628.986 13.742 627.894 14.18 626.514 14.18C625.662 14.18 624.9 13.988 624.228 13.604C623.568 13.208 623.046 12.638 622.662 11.894C622.278 11.138 622.086 10.226 622.086 9.158C622.086 7.562 622.488 6.332 623.292 5.468C624.096 4.604 625.188 4.172 626.568 4.172C627.444 4.172 628.212 4.37 628.872 4.766C629.544 5.15 630.066 5.714 630.438 6.458C630.822 7.19 631.014 8.09 631.014 9.158ZM623.724 9.158C623.724 10.298 623.946 11.204 624.39 11.876C624.846 12.536 625.566 12.866 626.55 12.866C627.522 12.866 628.236 12.536 628.692 11.876C629.148 11.204 629.376 10.298 629.376 9.158C629.376 8.018 629.148 7.124 628.692 6.476C628.236 5.828 627.516 5.504 626.532 5.504C625.548 5.504 624.834 5.828 624.39 6.476C623.946 7.124 623.724 8.018 623.724 9.158ZM638.168 4.172C639.32 4.172 640.19 4.454 640.778 5.018C641.366 5.57 641.66 6.47 641.66 7.718V14H640.094V7.826C640.094 6.278 639.374 5.504 637.934 5.504C636.866 5.504 636.128 5.804 635.72 6.404C635.312 7.004 635.108 7.868 635.108 8.996V14H633.524V4.352H634.802L635.036 5.666H635.126C635.438 5.162 635.87 4.79 636.422 4.55C636.974 4.298 637.556 4.172 638.168 4.172ZM655.609 11.336C655.609 12.272 655.261 12.98 654.565 13.46C653.869 13.94 652.933 14.18 651.757 14.18C651.085 14.18 650.503 14.126 650.011 14.018C649.531 13.91 649.105 13.76 648.733 13.568V12.128C649.117 12.32 649.579 12.5 650.119 12.668C650.671 12.824 651.229 12.902 651.793 12.902C652.597 12.902 653.179 12.776 653.539 12.524C653.899 12.26 654.079 11.912 654.079 11.48C654.079 11.24 654.013 11.024 653.881 10.832C653.749 10.64 653.509 10.448 653.161 10.256C652.825 10.064 652.339 9.848 651.703 9.608C651.079 9.368 650.545 9.128 650.101 8.888C649.657 8.648 649.315 8.36 649.075 8.024C648.835 7.688 648.715 7.256 648.715 6.728C648.715 5.912 649.045 5.282 649.705 4.838C650.377 4.394 651.253 4.172 652.333 4.172C652.921 4.172 653.467 4.232 653.971 4.352C654.487 4.46 654.967 4.616 655.411 4.82L654.871 6.08C654.463 5.912 654.037 5.768 653.593 5.648C653.149 5.528 652.693 5.468 652.225 5.468C651.577 5.468 651.079 5.576 650.731 5.792C650.395 5.996 650.227 6.278 650.227 6.638C650.227 6.902 650.305 7.13 650.461 7.322C650.617 7.502 650.875 7.682 651.235 7.862C651.607 8.03 652.099 8.234 652.711 8.474C653.323 8.702 653.845 8.936 654.277 9.176C654.709 9.416 655.039 9.71 655.267 10.058C655.495 10.394 655.609 10.82 655.609 11.336ZM661.666 4.172C662.494 4.172 663.202 4.352 663.79 4.712C664.39 5.072 664.846 5.582 665.158 6.242C665.482 6.89 665.644 7.652 665.644 8.528V9.482H659.038C659.062 10.574 659.338 11.408 659.866 11.984C660.406 12.548 661.156 12.83 662.116 12.83C662.728 12.83 663.268 12.776 663.736 12.668C664.216 12.548 664.708 12.38 665.212 12.164V13.55C664.72 13.766 664.234 13.922 663.754 14.018C663.274 14.126 662.704 14.18 662.044 14.18C661.132 14.18 660.322 13.994 659.614 13.622C658.918 13.25 658.372 12.698 657.976 11.966C657.592 11.222 657.4 10.316 657.4 9.248C657.4 8.192 657.574 7.286 657.922 6.53C658.282 5.774 658.78 5.192 659.416 4.784C660.064 4.376 660.814 4.172 661.666 4.172ZM661.648 5.468C660.892 5.468 660.292 5.714 659.848 6.206C659.416 6.686 659.158 7.358 659.074 8.222H663.988C663.976 7.406 663.784 6.746 663.412 6.242C663.04 5.726 662.452 5.468 661.648 5.468ZM671.322 12.884C671.562 12.884 671.808 12.866 672.06 12.83C672.312 12.782 672.516 12.734 672.672 12.686V13.892C672.504 13.976 672.264 14.042 671.952 14.09C671.64 14.15 671.34 14.18 671.052 14.18C670.548 14.18 670.08 14.096 669.648 13.928C669.228 13.748 668.886 13.442 668.622 13.01C668.358 12.578 668.226 11.972 668.226 11.192V5.576H666.858V4.82L668.244 4.19L668.874 2.138H669.81V4.352H672.6V5.576H669.81V11.156C669.81 11.744 669.948 12.182 670.224 12.47C670.512 12.746 670.878 12.884 671.322 12.884ZM673.794 9.878V8.474H678.15V9.878H673.794ZM684.275 14.18C683.423 14.18 682.661 14.006 681.989 13.658C681.329 13.31 680.807 12.77 680.423 12.038C680.051 11.306 679.865 10.37 679.865 9.23C679.865 8.042 680.063 7.076 680.459 6.332C680.855 5.588 681.389 5.042 682.061 4.694C682.745 4.346 683.519 4.172 684.383 4.172C684.875 4.172 685.349 4.226 685.805 4.334C686.261 4.43 686.633 4.55 686.921 4.694L686.435 6.008C686.147 5.9 685.811 5.798 685.427 5.702C685.043 5.606 684.683 5.558 684.347 5.558C682.451 5.558 681.503 6.776 681.503 9.212C681.503 10.376 681.731 11.27 682.187 11.894C682.655 12.506 683.345 12.812 684.257 12.812C684.785 12.812 685.247 12.758 685.643 12.65C686.051 12.542 686.423 12.41 686.759 12.254V13.658C686.435 13.826 686.075 13.952 685.679 14.036C685.295 14.132 684.827 14.18 684.275 14.18ZM697.441 9.158C697.441 10.754 697.033 11.99 696.217 12.866C695.413 13.742 694.321 14.18 692.941 14.18C692.089 14.18 691.327 13.988 690.655 13.604C689.995 13.208 689.473 12.638 689.089 11.894C688.705 11.138 688.513 10.226 688.513 9.158C688.513 7.562 688.915 6.332 689.719 5.468C690.523 4.604 691.615 4.172 692.995 4.172C693.871 4.172 694.639 4.37 695.299 4.766C695.971 5.15 696.493 5.714 696.865 6.458C697.249 7.19 697.441 8.09 697.441 9.158ZM690.151 9.158C690.151 10.298 690.373 11.204 690.817 11.876C691.273 12.536 691.993 12.866 692.977 12.866C693.949 12.866 694.663 12.536 695.119 11.876C695.575 11.204 695.803 10.298 695.803 9.158C695.803 8.018 695.575 7.124 695.119 6.476C694.663 5.828 693.943 5.504 692.959 5.504C691.975 5.504 691.261 5.828 690.817 6.476C690.373 7.124 690.151 8.018 690.151 9.158ZM704.596 4.172C705.748 4.172 706.618 4.454 707.206 5.018C707.794 5.57 708.088 6.47 708.088 7.718V14H706.522V7.826C706.522 6.278 705.802 5.504 704.362 5.504C703.294 5.504 702.556 5.804 702.148 6.404C701.74 7.004 701.536 7.868 701.536 8.996V14H699.952V4.352H701.23L701.464 5.666H701.554C701.866 5.162 702.298 4.79 702.85 4.55C703.402 4.298 703.984 4.172 704.596 4.172ZM715.525 5.576H713.095V14H711.511V5.576H709.819V4.838L711.511 4.298V3.74C711.511 2.492 711.787 1.598 712.339 1.058C712.891 0.505999 713.659 0.229999 714.643 0.229999C715.027 0.229999 715.375 0.265999 715.687 0.337999C716.011 0.398 716.287 0.47 716.515 0.553999L716.101 1.796C715.909 1.736 715.687 1.676 715.435 1.616C715.183 1.556 714.925 1.526 714.661 1.526C714.133 1.526 713.737 1.706 713.473 2.066C713.221 2.414 713.095 2.966 713.095 3.722V4.352H715.525V5.576ZM718.855 14H717.271V0.319999H718.855V14ZM722.717 0.733999C722.957 0.733999 723.167 0.817999 723.347 0.985999C723.539 1.142 723.635 1.394 723.635 1.742C723.635 2.078 723.539 2.33 723.347 2.498C723.167 2.666 722.957 2.75 722.717 2.75C722.453 2.75 722.231 2.666 722.051 2.498C721.871 2.33 721.781 2.078 721.781 1.742C721.781 1.394 721.871 1.142 722.051 0.985999C722.231 0.817999 722.453 0.733999 722.717 0.733999ZM723.491 4.352V14H721.907V4.352H723.491ZM730.418 14.18C729.566 14.18 728.804 14.006 728.132 13.658C727.472 13.31 726.95 12.77 726.566 12.038C726.194 11.306 726.008 10.37 726.008 9.23C726.008 8.042 726.206 7.076 726.602 6.332C726.998 5.588 727.532 5.042 728.204 4.694C728.888 4.346 729.662 4.172 730.526 4.172C731.018 4.172 731.492 4.226 731.948 4.334C732.404 4.43 732.776 4.55 733.064 4.694L732.578 6.008C732.29 5.9 731.954 5.798 731.57 5.702C731.186 5.606 730.826 5.558 730.49 5.558C728.594 5.558 727.646 6.776 727.646 9.212C727.646 10.376 727.874 11.27 728.33 11.894C728.798 12.506 729.488 12.812 730.4 12.812C730.928 12.812 731.39 12.758 731.786 12.65C732.194 12.542 732.566 12.41 732.902 12.254V13.658C732.578 13.826 732.218 13.952 731.822 14.036C731.438 14.132 730.97 14.18 730.418 14.18ZM738.418 12.884C738.658 12.884 738.904 12.866 739.156 12.83C739.408 12.782 739.612 12.734 739.768 12.686V13.892C739.6 13.976 739.36 14.042 739.048 14.09C738.736 14.15 738.436 14.18 738.148 14.18C737.644 14.18 737.176 14.096 736.744 13.928C736.324 13.748 735.982 13.442 735.718 13.01C735.454 12.578 735.322 11.972 735.322 11.192V5.576H733.954V4.82L735.34 4.19L735.97 2.138H736.906V4.352H739.696V5.576H736.906V11.156C736.906 11.744 737.044 12.182 737.32 12.47C737.608 12.746 737.974 12.884 738.418 12.884ZM747.982 11.336C747.982 12.272 747.634 12.98 746.938 13.46C746.242 13.94 745.306 14.18 744.13 14.18C743.458 14.18 742.876 14.126 742.384 14.018C741.904 13.91 741.478 13.76 741.106 13.568V12.128C741.49 12.32 741.952 12.5 742.492 12.668C743.044 12.824 743.602 12.902 744.166 12.902C744.97 12.902 745.552 12.776 745.912 12.524C746.272 12.26 746.452 11.912 746.452 11.48C746.452 11.24 746.386 11.024 746.254 10.832C746.122 10.64 745.882 10.448 745.534 10.256C745.198 10.064 744.712 9.848 744.076 9.608C743.452 9.368 742.918 9.128 742.474 8.888C742.03 8.648 741.688 8.36 741.448 8.024C741.208 7.688 741.088 7.256 741.088 6.728C741.088 5.912 741.418 5.282 742.078 4.838C742.75 4.394 743.626 4.172 744.706 4.172C745.294 4.172 745.84 4.232 746.344 4.352C746.86 4.46 747.34 4.616 747.784 4.82L747.244 6.08C746.836 5.912 746.41 5.768 745.966 5.648C745.522 5.528 745.066 5.468 744.598 5.468C743.95 5.468 743.452 5.576 743.104 5.792C742.768 5.996 742.6 6.278 742.6 6.638C742.6 6.902 742.678 7.13 742.834 7.322C742.99 7.502 743.248 7.682 743.608 7.862C743.98 8.03 744.472 8.234 745.084 8.474C745.696 8.702 746.218 8.936 746.65 9.176C747.082 9.416 747.412 9.71 747.64 10.058C747.868 10.394 747.982 10.82 747.982 11.336ZM113.737 31.19C114.913 31.19 115.783 31.448 116.347 31.964C116.911 32.48 117.193 33.302 117.193 34.43V41H116.041L115.735 39.632H115.663C115.243 40.16 114.799 40.55 114.331 40.802C113.875 41.054 113.239 41.18 112.423 41.18C111.547 41.18 110.821 40.952 110.245 40.496C109.669 40.028 109.381 39.302 109.381 38.318C109.381 37.358 109.759 36.62 110.515 36.104C111.271 35.576 112.435 35.288 114.007 35.24L115.645 35.186V34.61C115.645 33.806 115.471 33.248 115.123 32.936C114.775 32.624 114.283 32.468 113.647 32.468C113.143 32.468 112.663 32.546 112.207 32.702C111.751 32.846 111.325 33.014 110.929 33.206L110.443 32.018C110.863 31.79 111.361 31.598 111.937 31.442C112.513 31.274 113.113 31.19 113.737 31.19ZM114.205 36.338C113.005 36.386 112.171 36.578 111.703 36.914C111.247 37.25 111.019 37.724 111.019 38.336C111.019 38.876 111.181 39.272 111.505 39.524C111.841 39.776 112.267 39.902 112.783 39.902C113.599 39.902 114.277 39.68 114.817 39.236C115.357 38.78 115.627 38.084 115.627 37.148V36.284L114.205 36.338ZM124.817 31.172C125.969 31.172 126.839 31.454 127.427 32.018C128.015 32.57 128.309 33.47 128.309 34.718V41H126.743V34.826C126.743 33.278 126.023 32.504 124.583 32.504C123.515 32.504 122.777 32.804 122.369 33.404C121.961 34.004 121.757 34.868 121.757 35.996V41H120.173V31.352H121.451L121.685 32.666H121.775C122.087 32.162 122.519 31.79 123.071 31.55C123.623 31.298 124.205 31.172 124.817 31.172ZM134.72 41.18C133.52 41.18 132.56 40.766 131.84 39.938C131.12 39.098 130.76 37.85 130.76 36.194C130.76 34.538 131.12 33.29 131.84 32.45C132.572 31.598 133.538 31.172 134.738 31.172C135.482 31.172 136.088 31.31 136.556 31.586C137.036 31.862 137.426 32.198 137.726 32.594H137.834C137.822 32.438 137.798 32.21 137.762 31.91C137.738 31.598 137.726 31.352 137.726 31.172V27.32H139.31V41H138.032L137.798 39.704H137.726C137.438 40.112 137.054 40.46 136.574 40.748C136.094 41.036 135.476 41.18 134.72 41.18ZM134.972 39.866C135.992 39.866 136.706 39.59 137.114 39.038C137.534 38.474 137.744 37.628 137.744 36.5V36.212C137.744 35.012 137.546 34.094 137.15 33.458C136.754 32.81 136.022 32.486 134.954 32.486C134.102 32.486 133.46 32.828 133.028 33.512C132.608 34.184 132.398 35.09 132.398 36.23C132.398 37.382 132.608 38.276 133.028 38.912C133.46 39.548 134.108 39.866 134.972 39.866ZM157.634 31.172C158.726 31.172 159.542 31.454 160.082 32.018C160.622 32.57 160.892 33.47 160.892 34.718V41H159.326V34.79C159.326 33.266 158.672 32.504 157.364 32.504C156.428 32.504 155.756 32.774 155.348 33.314C154.952 33.854 154.754 34.64 154.754 35.672V41H153.188V34.79C153.188 33.266 152.528 32.504 151.208 32.504C150.236 32.504 149.564 32.804 149.192 33.404C148.82 34.004 148.634 34.868 148.634 35.996V41H147.05V31.352H148.328L148.562 32.666H148.652C148.952 32.162 149.354 31.79 149.858 31.55C150.374 31.298 150.92 31.172 151.496 31.172C153.008 31.172 153.992 31.712 154.448 32.792H154.538C154.862 32.24 155.3 31.832 155.852 31.568C156.416 31.304 157.01 31.172 157.634 31.172ZM167.526 31.19C168.702 31.19 169.572 31.448 170.136 31.964C170.7 32.48 170.982 33.302 170.982 34.43V41H169.83L169.524 39.632H169.452C169.032 40.16 168.588 40.55 168.12 40.802C167.664 41.054 167.028 41.18 166.212 41.18C165.336 41.18 164.61 40.952 164.034 40.496C163.458 40.028 163.17 39.302 163.17 38.318C163.17 37.358 163.548 36.62 164.304 36.104C165.06 35.576 166.224 35.288 167.796 35.24L169.434 35.186V34.61C169.434 33.806 169.26 33.248 168.912 32.936C168.564 32.624 168.072 32.468 167.436 32.468C166.932 32.468 166.452 32.546 165.996 32.702C165.54 32.846 165.114 33.014 164.718 33.206L164.232 32.018C164.652 31.79 165.15 31.598 165.726 31.442C166.302 31.274 166.902 31.19 167.526 31.19ZM167.994 36.338C166.794 36.386 165.96 36.578 165.492 36.914C165.036 37.25 164.808 37.724 164.808 38.336C164.808 38.876 164.97 39.272 165.294 39.524C165.63 39.776 166.056 39.902 166.572 39.902C167.388 39.902 168.066 39.68 168.606 39.236C169.146 38.78 169.416 38.084 169.416 37.148V36.284L167.994 36.338ZM175.528 34.466C175.528 34.658 175.516 34.91 175.492 35.222C175.48 35.534 175.468 35.804 175.456 36.032H175.528C175.6 35.936 175.708 35.798 175.852 35.618C175.996 35.438 176.14 35.258 176.284 35.078C176.44 34.886 176.572 34.73 176.68 34.61L179.758 31.352H181.612L177.706 35.474L181.882 41H179.974L176.626 36.5L175.528 37.454V41H173.962V27.32H175.528V34.466ZM187.303 31.172C188.131 31.172 188.839 31.352 189.427 31.712C190.027 32.072 190.483 32.582 190.795 33.242C191.119 33.89 191.281 34.652 191.281 35.528V36.482H184.675C184.699 37.574 184.975 38.408 185.503 38.984C186.043 39.548 186.793 39.83 187.753 39.83C188.365 39.83 188.905 39.776 189.373 39.668C189.853 39.548 190.345 39.38 190.849 39.164V40.55C190.357 40.766 189.871 40.922 189.391 41.018C188.911 41.126 188.341 41.18 187.681 41.18C186.769 41.18 185.959 40.994 185.251 40.622C184.555 40.25 184.009 39.698 183.613 38.966C183.229 38.222 183.037 37.316 183.037 36.248C183.037 35.192 183.211 34.286 183.559 33.53C183.919 32.774 184.417 32.192 185.053 31.784C185.701 31.376 186.451 31.172 187.303 31.172ZM187.285 32.468C186.529 32.468 185.929 32.714 185.485 33.206C185.053 33.686 184.795 34.358 184.711 35.222H189.625C189.613 34.406 189.421 33.746 189.049 33.242C188.677 32.726 188.089 32.468 187.285 32.468ZM204.695 38.336C204.695 39.272 204.347 39.98 203.651 40.46C202.955 40.94 202.019 41.18 200.843 41.18C200.171 41.18 199.589 41.126 199.097 41.018C198.617 40.91 198.191 40.76 197.819 40.568V39.128C198.203 39.32 198.665 39.5 199.205 39.668C199.757 39.824 200.315 39.902 200.879 39.902C201.683 39.902 202.265 39.776 202.625 39.524C202.985 39.26 203.165 38.912 203.165 38.48C203.165 38.24 203.099 38.024 202.967 37.832C202.835 37.64 202.595 37.448 202.247 37.256C201.911 37.064 201.425 36.848 200.789 36.608C200.165 36.368 199.631 36.128 199.187 35.888C198.743 35.648 198.401 35.36 198.161 35.024C197.921 34.688 197.801 34.256 197.801 33.728C197.801 32.912 198.131 32.282 198.791 31.838C199.463 31.394 200.339 31.172 201.419 31.172C202.007 31.172 202.553 31.232 203.057 31.352C203.573 31.46 204.053 31.616 204.497 31.82L203.957 33.08C203.549 32.912 203.123 32.768 202.679 32.648C202.235 32.528 201.779 32.468 201.311 32.468C200.663 32.468 200.165 32.576 199.817 32.792C199.481 32.996 199.313 33.278 199.313 33.638C199.313 33.902 199.391 34.13 199.547 34.322C199.703 34.502 199.961 34.682 200.321 34.862C200.693 35.03 201.185 35.234 201.797 35.474C202.409 35.702 202.931 35.936 203.363 36.176C203.795 36.416 204.125 36.71 204.353 37.058C204.581 37.394 204.695 37.82 204.695 38.336ZM215.09 31.352V41H213.794L213.56 39.722H213.488C213.176 40.226 212.744 40.598 212.192 40.838C211.64 41.066 211.052 41.18 210.428 41.18C209.264 41.18 208.388 40.904 207.8 40.352C207.212 39.788 206.918 38.894 206.918 37.67V31.352H208.52V37.562C208.52 39.098 209.234 39.866 210.662 39.866C211.73 39.866 212.468 39.566 212.876 38.966C213.296 38.366 213.506 37.502 213.506 36.374V31.352H215.09ZM222.653 31.172C222.833 31.172 223.025 31.184 223.229 31.208C223.445 31.22 223.631 31.244 223.787 31.28L223.589 32.738C223.433 32.702 223.259 32.672 223.067 32.648C222.887 32.624 222.713 32.612 222.545 32.612C222.053 32.612 221.591 32.75 221.159 33.026C220.727 33.29 220.379 33.668 220.115 34.16C219.863 34.64 219.737 35.204 219.737 35.852V41H218.153V31.352H219.449L219.629 33.116H219.701C220.013 32.588 220.415 32.132 220.907 31.748C221.399 31.364 221.981 31.172 222.653 31.172ZM228.963 31.172C229.791 31.172 230.499 31.352 231.087 31.712C231.687 32.072 232.143 32.582 232.455 33.242C232.779 33.89 232.941 34.652 232.941 35.528V36.482H226.335C226.359 37.574 226.635 38.408 227.163 38.984C227.703 39.548 228.453 39.83 229.413 39.83C230.025 39.83 230.565 39.776 231.033 39.668C231.513 39.548 232.005 39.38 232.509 39.164V40.55C232.017 40.766 231.531 40.922 231.051 41.018C230.571 41.126 230.001 41.18 229.341 41.18C228.429 41.18 227.619 40.994 226.911 40.622C226.215 40.25 225.669 39.698 225.273 38.966C224.889 38.222 224.697 37.316 224.697 36.248C224.697 35.192 224.871 34.286 225.219 33.53C225.579 32.774 226.077 32.192 226.713 31.784C227.361 31.376 228.111 31.172 228.963 31.172ZM228.945 32.468C228.189 32.468 227.589 32.714 227.145 33.206C226.713 33.686 226.455 34.358 226.371 35.222H231.285C231.273 34.406 231.081 33.746 230.709 33.242C230.337 32.726 229.749 32.468 228.945 32.468ZM238.561 31.352H240.253L242.341 36.842C242.521 37.322 242.683 37.784 242.827 38.228C242.971 38.66 243.079 39.074 243.151 39.47H243.223C243.295 39.17 243.409 38.78 243.565 38.3C243.721 37.808 243.883 37.316 244.051 36.824L246.013 31.352H247.723L243.565 42.332C243.229 43.244 242.791 43.97 242.251 44.51C241.723 45.05 240.991 45.32 240.055 45.32C239.767 45.32 239.515 45.302 239.299 45.266C239.083 45.242 238.897 45.212 238.741 45.176V43.916C238.873 43.94 239.029 43.964 239.209 43.988C239.401 44.012 239.599 44.024 239.803 44.024C240.355 44.024 240.799 43.868 241.135 43.556C241.483 43.244 241.753 42.83 241.945 42.314L242.449 41.036L238.561 31.352ZM257.637 36.158C257.637 37.754 257.229 38.99 256.413 39.866C255.609 40.742 254.517 41.18 253.137 41.18C252.285 41.18 251.523 40.988 250.851 40.604C250.191 40.208 249.669 39.638 249.285 38.894C248.901 38.138 248.709 37.226 248.709 36.158C248.709 34.562 249.111 33.332 249.915 32.468C250.719 31.604 251.811 31.172 253.191 31.172C254.067 31.172 254.835 31.37 255.495 31.766C256.167 32.15 256.689 32.714 257.061 33.458C257.445 34.19 257.637 35.09 257.637 36.158ZM250.347 36.158C250.347 37.298 250.569 38.204 251.013 38.876C251.469 39.536 252.189 39.866 253.173 39.866C254.145 39.866 254.859 39.536 255.315 38.876C255.771 38.204 255.999 37.298 255.999 36.158C255.999 35.018 255.771 34.124 255.315 33.476C254.859 32.828 254.139 32.504 253.155 32.504C252.171 32.504 251.457 32.828 251.013 33.476C250.569 34.124 250.347 35.018 250.347 36.158ZM268.211 31.352V41H266.915L266.681 39.722H266.609C266.297 40.226 265.865 40.598 265.313 40.838C264.761 41.066 264.173 41.18 263.549 41.18C262.385 41.18 261.509 40.904 260.921 40.352C260.333 39.788 260.039 38.894 260.039 37.67V31.352H261.641V37.562C261.641 39.098 262.355 39.866 263.783 39.866C264.851 39.866 265.589 39.566 265.997 38.966C266.417 38.366 266.627 37.502 266.627 36.374V31.352H268.211ZM279.604 31.19C280.78 31.19 281.65 31.448 282.214 31.964C282.778 32.48 283.06 33.302 283.06 34.43V41H281.908L281.602 39.632H281.53C281.11 40.16 280.666 40.55 280.198 40.802C279.742 41.054 279.106 41.18 278.29 41.18C277.414 41.18 276.688 40.952 276.112 40.496C275.536 40.028 275.248 39.302 275.248 38.318C275.248 37.358 275.626 36.62 276.382 36.104C277.138 35.576 278.302 35.288 279.874 35.24L281.512 35.186V34.61C281.512 33.806 281.338 33.248 280.99 32.936C280.642 32.624 280.15 32.468 279.514 32.468C279.01 32.468 278.53 32.546 278.074 32.702C277.618 32.846 277.192 33.014 276.796 33.206L276.31 32.018C276.73 31.79 277.228 31.598 277.804 31.442C278.38 31.274 278.98 31.19 279.604 31.19ZM280.072 36.338C278.872 36.386 278.038 36.578 277.57 36.914C277.114 37.25 276.886 37.724 276.886 38.336C276.886 38.876 277.048 39.272 277.372 39.524C277.708 39.776 278.134 39.902 278.65 39.902C279.466 39.902 280.144 39.68 280.684 39.236C281.224 38.78 281.494 38.084 281.494 37.148V36.284L280.072 36.338ZM290.54 31.172C290.72 31.172 290.912 31.184 291.116 31.208C291.332 31.22 291.518 31.244 291.674 31.28L291.476 32.738C291.32 32.702 291.146 32.672 290.954 32.648C290.774 32.624 290.6 32.612 290.432 32.612C289.94 32.612 289.478 32.75 289.046 33.026C288.614 33.29 288.266 33.668 288.002 34.16C287.75 34.64 287.624 35.204 287.624 35.852V41H286.04V31.352H287.336L287.516 33.116H287.588C287.9 32.588 288.302 32.132 288.794 31.748C289.286 31.364 289.868 31.172 290.54 31.172ZM296.85 31.172C297.678 31.172 298.386 31.352 298.974 31.712C299.574 32.072 300.03 32.582 300.342 33.242C300.666 33.89 300.828 34.652 300.828 35.528V36.482H294.222C294.246 37.574 294.522 38.408 295.05 38.984C295.59 39.548 296.34 39.83 297.3 39.83C297.912 39.83 298.452 39.776 298.92 39.668C299.4 39.548 299.892 39.38 300.396 39.164V40.55C299.904 40.766 299.418 40.922 298.938 41.018C298.458 41.126 297.888 41.18 297.228 41.18C296.316 41.18 295.506 40.994 294.798 40.622C294.102 40.25 293.556 39.698 293.16 38.966C292.776 38.222 292.584 37.316 292.584 36.248C292.584 35.192 292.758 34.286 293.106 33.53C293.466 32.774 293.964 32.192 294.6 31.784C295.248 31.376 295.998 31.172 296.85 31.172ZM296.832 32.468C296.076 32.468 295.476 32.714 295.032 33.206C294.6 33.686 294.342 34.358 294.258 35.222H299.172C299.16 34.406 298.968 33.746 298.596 33.242C298.224 32.726 297.636 32.468 296.832 32.468ZM311.83 41.18C310.978 41.18 310.216 41.006 309.544 40.658C308.884 40.31 308.362 39.77 307.978 39.038C307.606 38.306 307.42 37.37 307.42 36.23C307.42 35.042 307.618 34.076 308.014 33.332C308.41 32.588 308.944 32.042 309.616 31.694C310.3 31.346 311.074 31.172 311.938 31.172C312.43 31.172 312.904 31.226 313.36 31.334C313.816 31.43 314.188 31.55 314.476 31.694L313.99 33.008C313.702 32.9 313.366 32.798 312.982 32.702C312.598 32.606 312.238 32.558 311.902 32.558C310.006 32.558 309.058 33.776 309.058 36.212C309.058 37.376 309.286 38.27 309.742 38.894C310.21 39.506 310.9 39.812 311.812 39.812C312.34 39.812 312.802 39.758 313.198 39.65C313.606 39.542 313.978 39.41 314.314 39.254V40.658C313.99 40.826 313.63 40.952 313.234 41.036C312.85 41.132 312.382 41.18 311.83 41.18ZM324.996 36.158C324.996 37.754 324.588 38.99 323.772 39.866C322.968 40.742 321.876 41.18 320.496 41.18C319.644 41.18 318.882 40.988 318.21 40.604C317.55 40.208 317.028 39.638 316.644 38.894C316.26 38.138 316.068 37.226 316.068 36.158C316.068 34.562 316.47 33.332 317.274 32.468C318.078 31.604 319.17 31.172 320.55 31.172C321.426 31.172 322.194 31.37 322.854 31.766C323.526 32.15 324.048 32.714 324.42 33.458C324.804 34.19 324.996 35.09 324.996 36.158ZM317.706 36.158C317.706 37.298 317.928 38.204 318.372 38.876C318.828 39.536 319.548 39.866 320.532 39.866C321.504 39.866 322.218 39.536 322.674 38.876C323.13 38.204 323.358 37.298 323.358 36.158C323.358 35.018 323.13 34.124 322.674 33.476C322.218 32.828 321.498 32.504 320.514 32.504C319.53 32.504 318.816 32.828 318.372 33.476C317.928 34.124 317.706 35.018 317.706 36.158ZM338.091 31.172C339.183 31.172 339.999 31.454 340.539 32.018C341.079 32.57 341.349 33.47 341.349 34.718V41H339.783V34.79C339.783 33.266 339.129 32.504 337.821 32.504C336.885 32.504 336.213 32.774 335.805 33.314C335.409 33.854 335.211 34.64 335.211 35.672V41H333.645V34.79C333.645 33.266 332.985 32.504 331.665 32.504C330.693 32.504 330.021 32.804 329.649 33.404C329.277 34.004 329.091 34.868 329.091 35.996V41H327.507V31.352H328.785L329.019 32.666H329.109C329.409 32.162 329.811 31.79 330.315 31.55C330.831 31.298 331.377 31.172 331.953 31.172C333.465 31.172 334.449 31.712 334.905 32.792H334.995C335.319 32.24 335.757 31.832 336.309 31.568C336.873 31.304 337.467 31.172 338.091 31.172ZM348.919 31.172C350.107 31.172 351.061 31.586 351.781 32.414C352.513 33.242 352.879 34.49 352.879 36.158C352.879 37.802 352.513 39.05 351.781 39.902C351.061 40.754 350.101 41.18 348.901 41.18C348.157 41.18 347.539 41.042 347.047 40.766C346.567 40.478 346.189 40.148 345.913 39.776H345.805C345.829 39.98 345.853 40.238 345.877 40.55C345.901 40.862 345.913 41.132 345.913 41.36V45.32H344.329V31.352H345.625L345.841 32.666H345.913C346.201 32.246 346.579 31.892 347.047 31.604C347.515 31.316 348.139 31.172 348.919 31.172ZM348.631 32.504C347.647 32.504 346.951 32.78 346.543 33.332C346.147 33.884 345.937 34.724 345.913 35.852V36.158C345.913 37.346 346.105 38.264 346.489 38.912C346.885 39.548 347.611 39.866 348.667 39.866C349.255 39.866 349.735 39.704 350.107 39.38C350.491 39.056 350.773 38.618 350.953 38.066C351.145 37.502 351.241 36.86 351.241 36.14C351.241 35.036 351.025 34.154 350.593 33.494C350.173 32.834 349.519 32.504 348.631 32.504ZM356.987 41H355.403V27.32H356.987V41ZM360.854 27.734C361.094 27.734 361.304 27.818 361.484 27.986C361.676 28.142 361.772 28.394 361.772 28.742C361.772 29.078 361.676 29.33 361.484 29.498C361.304 29.666 361.094 29.75 360.854 29.75C360.59 29.75 360.368 29.666 360.188 29.498C360.008 29.33 359.918 29.078 359.918 28.742C359.918 28.394 360.008 28.142 360.188 27.986C360.368 27.818 360.59 27.734 360.854 27.734ZM361.628 31.352V41H360.044V31.352H361.628ZM368.338 31.19C369.514 31.19 370.384 31.448 370.948 31.964C371.512 32.48 371.794 33.302 371.794 34.43V41H370.642L370.336 39.632H370.264C369.844 40.16 369.4 40.55 368.932 40.802C368.476 41.054 367.84 41.18 367.024 41.18C366.148 41.18 365.422 40.952 364.846 40.496C364.27 40.028 363.982 39.302 363.982 38.318C363.982 37.358 364.36 36.62 365.116 36.104C365.872 35.576 367.036 35.288 368.608 35.24L370.246 35.186V34.61C370.246 33.806 370.072 33.248 369.724 32.936C369.376 32.624 368.884 32.468 368.248 32.468C367.744 32.468 367.264 32.546 366.808 32.702C366.352 32.846 365.926 33.014 365.53 33.206L365.044 32.018C365.464 31.79 365.962 31.598 366.538 31.442C367.114 31.274 367.714 31.19 368.338 31.19ZM368.806 36.338C367.606 36.386 366.772 36.578 366.304 36.914C365.848 37.25 365.62 37.724 365.62 38.336C365.62 38.876 365.782 39.272 366.106 39.524C366.442 39.776 366.868 39.902 367.384 39.902C368.2 39.902 368.878 39.68 369.418 39.236C369.958 38.78 370.228 38.084 370.228 37.148V36.284L368.806 36.338ZM379.418 31.172C380.57 31.172 381.44 31.454 382.028 32.018C382.616 32.57 382.91 33.47 382.91 34.718V41H381.344V34.826C381.344 33.278 380.624 32.504 379.184 32.504C378.116 32.504 377.378 32.804 376.97 33.404C376.562 34.004 376.358 34.868 376.358 35.996V41H374.774V31.352H376.052L376.286 32.666H376.376C376.688 32.162 377.12 31.79 377.672 31.55C378.224 31.298 378.806 31.172 379.418 31.172ZM389.123 39.884C389.363 39.884 389.609 39.866 389.861 39.83C390.113 39.782 390.317 39.734 390.473 39.686V40.892C390.305 40.976 390.065 41.042 389.753 41.09C389.441 41.15 389.141 41.18 388.853 41.18C388.349 41.18 387.881 41.096 387.449 40.928C387.029 40.748 386.687 40.442 386.423 40.01C386.159 39.578 386.027 38.972 386.027 38.192V32.576H384.659V31.82L386.045 31.19L386.675 29.138H387.611V31.352H390.401V32.576H387.611V38.156C387.611 38.744 387.749 39.182 388.025 39.47C388.313 39.746 388.679 39.884 389.123 39.884ZM403.309 35.546C403.153 35.054 403.015 34.574 402.895 34.106C402.787 33.626 402.703 33.254 402.643 32.99H402.571C402.523 33.254 402.445 33.626 402.337 34.106C402.229 34.574 402.091 35.06 401.923 35.564L400.195 40.982H398.395L395.749 31.334H397.387L398.719 36.482C398.851 36.998 398.977 37.52 399.097 38.048C399.217 38.576 399.301 39.014 399.349 39.362H399.421C399.469 39.158 399.523 38.906 399.583 38.606C399.655 38.306 399.733 37.994 399.817 37.67C399.901 37.334 399.985 37.034 400.069 36.77L401.779 31.334H403.507L405.163 36.77C405.295 37.178 405.421 37.622 405.541 38.102C405.673 38.582 405.763 38.996 405.811 39.344H405.883C405.919 39.044 405.997 38.63 406.117 38.102C406.249 37.574 406.387 37.034 406.531 36.482L407.881 31.334H409.501L406.819 40.982H404.965L403.309 35.546ZM412.041 27.734C412.281 27.734 412.491 27.818 412.671 27.986C412.863 28.142 412.959 28.394 412.959 28.742C412.959 29.078 412.863 29.33 412.671 29.498C412.491 29.666 412.281 29.75 412.041 29.75C411.777 29.75 411.555 29.666 411.375 29.498C411.195 29.33 411.105 29.078 411.105 28.742C411.105 28.394 411.195 28.142 411.375 27.986C411.555 27.818 411.777 27.734 412.041 27.734ZM412.815 31.352V41H411.231V31.352H412.815ZM419.094 39.884C419.334 39.884 419.58 39.866 419.832 39.83C420.084 39.782 420.288 39.734 420.444 39.686V40.892C420.276 40.976 420.036 41.042 419.724 41.09C419.412 41.15 419.112 41.18 418.824 41.18C418.32 41.18 417.852 41.096 417.42 40.928C417 40.748 416.658 40.442 416.394 40.01C416.13 39.578 415.998 38.972 415.998 38.192V32.576H414.63V31.82L416.016 31.19L416.646 29.138H417.582V31.352H420.372V32.576H417.582V38.156C417.582 38.744 417.72 39.182 417.996 39.47C418.284 39.746 418.65 39.884 419.094 39.884ZM423.96 31.334C423.96 31.814 423.93 32.264 423.87 32.684H423.978C424.29 32.192 424.71 31.82 425.238 31.568C425.778 31.316 426.36 31.19 426.984 31.19C428.16 31.19 429.042 31.472 429.63 32.036C430.218 32.588 430.512 33.482 430.512 34.718V41H428.946V34.826C428.946 33.278 428.226 32.504 426.786 32.504C425.706 32.504 424.962 32.81 424.554 33.422C424.158 34.022 423.96 34.886 423.96 36.014V41H422.376V27.32H423.96V31.334ZM444.406 35.546C444.25 35.054 444.112 34.574 443.992 34.106C443.884 33.626 443.8 33.254 443.74 32.99H443.668C443.62 33.254 443.542 33.626 443.434 34.106C443.326 34.574 443.188 35.06 443.02 35.564L441.292 40.982H439.492L436.846 31.334H438.484L439.816 36.482C439.948 36.998 440.074 37.52 440.194 38.048C440.314 38.576 440.398 39.014 440.446 39.362H440.518C440.566 39.158 440.62 38.906 440.68 38.606C440.752 38.306 440.83 37.994 440.914 37.67C440.998 37.334 441.082 37.034 441.166 36.77L442.876 31.334H444.604L446.26 36.77C446.392 37.178 446.518 37.622 446.638 38.102C446.77 38.582 446.86 38.996 446.908 39.344H446.98C447.016 39.044 447.094 38.63 447.214 38.102C447.346 37.574 447.484 37.034 447.628 36.482L448.978 31.334H450.598L447.916 40.982H446.062L444.406 35.546ZM460.717 36.158C460.717 37.754 460.309 38.99 459.493 39.866C458.689 40.742 457.597 41.18 456.217 41.18C455.365 41.18 454.603 40.988 453.931 40.604C453.271 40.208 452.749 39.638 452.365 38.894C451.981 38.138 451.789 37.226 451.789 36.158C451.789 34.562 452.191 33.332 452.995 32.468C453.799 31.604 454.891 31.172 456.271 31.172C457.147 31.172 457.915 31.37 458.575 31.766C459.247 32.15 459.769 32.714 460.141 33.458C460.525 34.19 460.717 35.09 460.717 36.158ZM453.427 36.158C453.427 37.298 453.649 38.204 454.093 38.876C454.549 39.536 455.269 39.866 456.253 39.866C457.225 39.866 457.939 39.536 458.395 38.876C458.851 38.204 459.079 37.298 459.079 36.158C459.079 35.018 458.851 34.124 458.395 33.476C457.939 32.828 457.219 32.504 456.235 32.504C455.251 32.504 454.537 32.828 454.093 33.476C453.649 34.124 453.427 35.018 453.427 36.158ZM467.727 31.172C467.907 31.172 468.099 31.184 468.303 31.208C468.519 31.22 468.705 31.244 468.861 31.28L468.663 32.738C468.507 32.702 468.333 32.672 468.141 32.648C467.961 32.624 467.787 32.612 467.619 32.612C467.127 32.612 466.665 32.75 466.233 33.026C465.801 33.29 465.453 33.668 465.189 34.16C464.937 34.64 464.811 35.204 464.811 35.852V41H463.227V31.352H464.523L464.703 33.116H464.775C465.087 32.588 465.489 32.132 465.981 31.748C466.473 31.364 467.055 31.172 467.727 31.172ZM472.229 34.466C472.229 34.658 472.217 34.91 472.193 35.222C472.181 35.534 472.169 35.804 472.157 36.032H472.229C472.301 35.936 472.409 35.798 472.553 35.618C472.697 35.438 472.841 35.258 472.985 35.078C473.141 34.886 473.273 34.73 473.381 34.61L476.459 31.352H478.313L474.407 35.474L478.583 41H476.675L473.327 36.5L472.229 37.454V41H470.663V27.32H472.229V34.466ZM488.608 31.19C489.784 31.19 490.654 31.448 491.218 31.964C491.782 32.48 492.064 33.302 492.064 34.43V41H490.912L490.606 39.632H490.534C490.114 40.16 489.67 40.55 489.202 40.802C488.746 41.054 488.11 41.18 487.294 41.18C486.418 41.18 485.692 40.952 485.116 40.496C484.54 40.028 484.252 39.302 484.252 38.318C484.252 37.358 484.63 36.62 485.386 36.104C486.142 35.576 487.306 35.288 488.878 35.24L490.516 35.186V34.61C490.516 33.806 490.342 33.248 489.994 32.936C489.646 32.624 489.154 32.468 488.518 32.468C488.014 32.468 487.534 32.546 487.078 32.702C486.622 32.846 486.196 33.014 485.8 33.206L485.314 32.018C485.734 31.79 486.232 31.598 486.808 31.442C487.384 31.274 487.984 31.19 488.608 31.19ZM489.076 36.338C487.876 36.386 487.042 36.578 486.574 36.914C486.118 37.25 485.89 37.724 485.89 38.336C485.89 38.876 486.052 39.272 486.376 39.524C486.712 39.776 487.138 39.902 487.654 39.902C488.47 39.902 489.148 39.68 489.688 39.236C490.228 38.78 490.498 38.084 490.498 37.148V36.284L489.076 36.338ZM499.688 31.172C500.84 31.172 501.71 31.454 502.298 32.018C502.886 32.57 503.18 33.47 503.18 34.718V41H501.614V34.826C501.614 33.278 500.894 32.504 499.454 32.504C498.386 32.504 497.648 32.804 497.24 33.404C496.832 34.004 496.628 34.868 496.628 35.996V41H495.044V31.352H496.322L496.556 32.666H496.646C496.958 32.162 497.39 31.79 497.942 31.55C498.494 31.298 499.076 31.172 499.688 31.172ZM509.591 41.18C508.391 41.18 507.431 40.766 506.711 39.938C505.991 39.098 505.631 37.85 505.631 36.194C505.631 34.538 505.991 33.29 506.711 32.45C507.443 31.598 508.409 31.172 509.609 31.172C510.353 31.172 510.959 31.31 511.427 31.586C511.907 31.862 512.297 32.198 512.597 32.594H512.705C512.693 32.438 512.669 32.21 512.633 31.91C512.609 31.598 512.597 31.352 512.597 31.172V27.32H514.181V41H512.903L512.669 39.704H512.597C512.309 40.112 511.925 40.46 511.445 40.748C510.965 41.036 510.347 41.18 509.591 41.18ZM509.843 39.866C510.863 39.866 511.577 39.59 511.985 39.038C512.405 38.474 512.615 37.628 512.615 36.5V36.212C512.615 35.012 512.417 34.094 512.021 33.458C511.625 32.81 510.893 32.486 509.825 32.486C508.973 32.486 508.331 32.828 507.899 33.512C507.479 34.184 507.269 35.09 507.269 36.23C507.269 37.382 507.479 38.276 507.899 38.912C508.331 39.548 508.979 39.866 509.843 39.866ZM528.203 38.336C528.203 39.272 527.855 39.98 527.159 40.46C526.463 40.94 525.527 41.18 524.351 41.18C523.679 41.18 523.097 41.126 522.605 41.018C522.125 40.91 521.699 40.76 521.327 40.568V39.128C521.711 39.32 522.173 39.5 522.713 39.668C523.265 39.824 523.823 39.902 524.387 39.902C525.191 39.902 525.773 39.776 526.133 39.524C526.493 39.26 526.673 38.912 526.673 38.48C526.673 38.24 526.607 38.024 526.475 37.832C526.343 37.64 526.103 37.448 525.755 37.256C525.419 37.064 524.933 36.848 524.297 36.608C523.673 36.368 523.139 36.128 522.695 35.888C522.251 35.648 521.909 35.36 521.669 35.024C521.429 34.688 521.309 34.256 521.309 33.728C521.309 32.912 521.639 32.282 522.299 31.838C522.971 31.394 523.847 31.172 524.927 31.172C525.515 31.172 526.061 31.232 526.565 31.352C527.081 31.46 527.561 31.616 528.005 31.82L527.465 33.08C527.057 32.912 526.631 32.768 526.187 32.648C525.743 32.528 525.287 32.468 524.819 32.468C524.171 32.468 523.673 32.576 523.325 32.792C522.989 32.996 522.821 33.278 522.821 33.638C522.821 33.902 522.899 34.13 523.055 34.322C523.211 34.502 523.469 34.682 523.829 34.862C524.201 35.03 524.693 35.234 525.305 35.474C525.917 35.702 526.439 35.936 526.871 36.176C527.303 36.416 527.633 36.71 527.861 37.058C528.089 37.394 528.203 37.82 528.203 38.336ZM534.188 31.19C535.364 31.19 536.234 31.448 536.798 31.964C537.362 32.48 537.644 33.302 537.644 34.43V41H536.492L536.186 39.632H536.114C535.694 40.16 535.25 40.55 534.782 40.802C534.326 41.054 533.69 41.18 532.874 41.18C531.998 41.18 531.272 40.952 530.696 40.496C530.12 40.028 529.832 39.302 529.832 38.318C529.832 37.358 530.21 36.62 530.966 36.104C531.722 35.576 532.886 35.288 534.458 35.24L536.096 35.186V34.61C536.096 33.806 535.922 33.248 535.574 32.936C535.226 32.624 534.734 32.468 534.098 32.468C533.594 32.468 533.114 32.546 532.658 32.702C532.202 32.846 531.776 33.014 531.38 33.206L530.894 32.018C531.314 31.79 531.812 31.598 532.388 31.442C532.964 31.274 533.564 31.19 534.188 31.19ZM534.656 36.338C533.456 36.386 532.622 36.578 532.154 36.914C531.698 37.25 531.47 37.724 531.47 38.336C531.47 38.876 531.632 39.272 531.956 39.524C532.292 39.776 532.718 39.902 533.234 39.902C534.05 39.902 534.728 39.68 535.268 39.236C535.808 38.78 536.078 38.084 536.078 37.148V36.284L534.656 36.338ZM545.07 32.576H542.64V41H541.056V32.576H539.364V31.838L541.056 31.298V30.74C541.056 29.492 541.332 28.598 541.884 28.058C542.436 27.506 543.204 27.23 544.188 27.23C544.572 27.23 544.92 27.266 545.232 27.338C545.556 27.398 545.832 27.47 546.06 27.554L545.646 28.796C545.454 28.736 545.232 28.676 544.98 28.616C544.728 28.556 544.47 28.526 544.206 28.526C543.678 28.526 543.282 28.706 543.018 29.066C542.766 29.414 542.64 29.966 542.64 30.722V31.352H545.07V32.576ZM550.537 31.172C551.365 31.172 552.073 31.352 552.661 31.712C553.261 32.072 553.717 32.582 554.029 33.242C554.353 33.89 554.515 34.652 554.515 35.528V36.482H547.909C547.933 37.574 548.209 38.408 548.737 38.984C549.277 39.548 550.027 39.83 550.987 39.83C551.599 39.83 552.139 39.776 552.607 39.668C553.087 39.548 553.579 39.38 554.083 39.164V40.55C553.591 40.766 553.105 40.922 552.625 41.018C552.145 41.126 551.575 41.18 550.915 41.18C550.003 41.18 549.193 40.994 548.485 40.622C547.789 40.25 547.243 39.698 546.847 38.966C546.463 38.222 546.271 37.316 546.271 36.248C546.271 35.192 546.445 34.286 546.793 33.53C547.153 32.774 547.651 32.192 548.287 31.784C548.935 31.376 549.685 31.172 550.537 31.172ZM550.519 32.468C549.763 32.468 549.163 32.714 548.719 33.206C548.287 33.686 548.029 34.358 547.945 35.222H552.859C552.847 34.406 552.655 33.746 552.283 33.242C551.911 32.726 551.323 32.468 550.519 32.468ZM560.193 39.884C560.433 39.884 560.679 39.866 560.931 39.83C561.183 39.782 561.387 39.734 561.543 39.686V40.892C561.375 40.976 561.135 41.042 560.823 41.09C560.511 41.15 560.211 41.18 559.923 41.18C559.419 41.18 558.951 41.096 558.519 40.928C558.099 40.748 557.757 40.442 557.493 40.01C557.229 39.578 557.097 38.972 557.097 38.192V32.576H555.729V31.82L557.115 31.19L557.745 29.138H558.681V31.352H561.471V32.576H558.681V38.156C558.681 38.744 558.819 39.182 559.095 39.47C559.383 39.746 559.749 39.884 560.193 39.884ZM561.963 31.352H563.655L565.743 36.842C565.923 37.322 566.085 37.784 566.229 38.228C566.373 38.66 566.481 39.074 566.553 39.47H566.625C566.697 39.17 566.811 38.78 566.967 38.3C567.123 37.808 567.285 37.316 567.453 36.824L569.415 31.352H571.125L566.967 42.332C566.631 43.244 566.193 43.97 565.653 44.51C565.125 45.05 564.393 45.32 563.457 45.32C563.169 45.32 562.917 45.302 562.701 45.266C562.485 45.242 562.299 45.212 562.143 45.176V43.916C562.275 43.94 562.431 43.964 562.611 43.988C562.803 44.012 563.001 44.024 563.205 44.024C563.757 44.024 564.201 43.868 564.537 43.556C564.885 43.244 565.155 42.83 565.347 42.314L565.851 41.036L561.963 31.352ZM578.911 30.65C578.911 31.058 578.899 31.442 578.875 31.802C578.863 32.15 578.845 32.426 578.821 32.63H578.911C579.187 32.222 579.565 31.88 580.045 31.604C580.525 31.328 581.143 31.19 581.899 31.19C583.099 31.19 584.059 31.61 584.779 32.45C585.511 33.278 585.877 34.52 585.877 36.176C585.877 37.832 585.511 39.08 584.779 39.92C584.047 40.76 583.087 41.18 581.899 41.18C581.143 41.18 580.525 41.042 580.045 40.766C579.565 40.49 579.187 40.16 578.911 39.776H578.785L578.461 41H577.327V27.32H578.911V30.65ZM581.629 32.504C580.609 32.504 579.901 32.798 579.505 33.386C579.109 33.974 578.911 34.886 578.911 36.122V36.194C578.911 37.382 579.103 38.294 579.487 38.93C579.883 39.554 580.609 39.866 581.665 39.866C582.529 39.866 583.171 39.548 583.591 38.912C584.023 38.276 584.239 37.358 584.239 36.158C584.239 33.722 583.369 32.504 581.629 32.504ZM596.789 36.158C596.789 37.754 596.381 38.99 595.565 39.866C594.761 40.742 593.669 41.18 592.289 41.18C591.437 41.18 590.675 40.988 590.003 40.604C589.343 40.208 588.821 39.638 588.437 38.894C588.053 38.138 587.861 37.226 587.861 36.158C587.861 34.562 588.263 33.332 589.067 32.468C589.871 31.604 590.963 31.172 592.343 31.172C593.219 31.172 593.987 31.37 594.647 31.766C595.319 32.15 595.841 32.714 596.213 33.458C596.597 34.19 596.789 35.09 596.789 36.158ZM589.499 36.158C589.499 37.298 589.721 38.204 590.165 38.876C590.621 39.536 591.341 39.866 592.325 39.866C593.297 39.866 594.011 39.536 594.467 38.876C594.923 38.204 595.151 37.298 595.151 36.158C595.151 35.018 594.923 34.124 594.467 33.476C594.011 32.828 593.291 32.504 592.307 32.504C591.323 32.504 590.609 32.828 590.165 33.476C589.721 34.124 589.499 35.018 589.499 36.158ZM602.954 31.19C604.13 31.19 605 31.448 605.564 31.964C606.128 32.48 606.41 33.302 606.41 34.43V41H605.258L604.952 39.632H604.88C604.46 40.16 604.016 40.55 603.548 40.802C603.092 41.054 602.456 41.18 601.64 41.18C600.764 41.18 600.038 40.952 599.462 40.496C598.886 40.028 598.598 39.302 598.598 38.318C598.598 37.358 598.976 36.62 599.732 36.104C600.488 35.576 601.652 35.288 603.224 35.24L604.862 35.186V34.61C604.862 33.806 604.688 33.248 604.34 32.936C603.992 32.624 603.5 32.468 602.864 32.468C602.36 32.468 601.88 32.546 601.424 32.702C600.968 32.846 600.542 33.014 600.146 33.206L599.66 32.018C600.08 31.79 600.578 31.598 601.154 31.442C601.73 31.274 602.33 31.19 602.954 31.19ZM603.422 36.338C602.222 36.386 601.388 36.578 600.92 36.914C600.464 37.25 600.236 37.724 600.236 38.336C600.236 38.876 600.398 39.272 600.722 39.524C601.058 39.776 601.484 39.902 602 39.902C602.816 39.902 603.494 39.68 604.034 39.236C604.574 38.78 604.844 38.084 604.844 37.148V36.284L603.422 36.338ZM613.889 31.172C614.069 31.172 614.261 31.184 614.465 31.208C614.681 31.22 614.867 31.244 615.023 31.28L614.825 32.738C614.669 32.702 614.495 32.672 614.303 32.648C614.123 32.624 613.949 32.612 613.781 32.612C613.289 32.612 612.827 32.75 612.395 33.026C611.963 33.29 611.615 33.668 611.351 34.16C611.099 34.64 610.973 35.204 610.973 35.852V41H609.389V31.352H610.685L610.865 33.116H610.937C611.249 32.588 611.651 32.132 612.143 31.748C612.635 31.364 613.217 31.172 613.889 31.172ZM619.893 41.18C618.693 41.18 617.733 40.766 617.013 39.938C616.293 39.098 615.933 37.85 615.933 36.194C615.933 34.538 616.293 33.29 617.013 32.45C617.745 31.598 618.711 31.172 619.911 31.172C620.655 31.172 621.261 31.31 621.729 31.586C622.209 31.862 622.599 32.198 622.899 32.594H623.007C622.995 32.438 622.971 32.21 622.935 31.91C622.911 31.598 622.899 31.352 622.899 31.172V27.32H624.483V41H623.205L622.971 39.704H622.899C622.611 40.112 622.227 40.46 621.747 40.748C621.267 41.036 620.649 41.18 619.893 41.18ZM620.145 39.866C621.165 39.866 621.879 39.59 622.287 39.038C622.707 38.474 622.917 37.628 622.917 36.5V36.212C622.917 35.012 622.719 34.094 622.323 33.458C621.927 32.81 621.195 32.486 620.127 32.486C619.275 32.486 618.633 32.828 618.201 33.512C617.781 34.184 617.571 35.09 617.571 36.23C617.571 37.382 617.781 38.276 618.201 38.912C618.633 39.548 619.281 39.866 620.145 39.866ZM633.83 38.336C633.83 39.272 633.482 39.98 632.786 40.46C632.09 40.94 631.154 41.18 629.978 41.18C629.306 41.18 628.724 41.126 628.232 41.018C627.752 40.91 627.326 40.76 626.954 40.568V39.128C627.338 39.32 627.8 39.5 628.34 39.668C628.892 39.824 629.45 39.902 630.014 39.902C630.818 39.902 631.4 39.776 631.76 39.524C632.12 39.26 632.3 38.912 632.3 38.48C632.3 38.24 632.234 38.024 632.102 37.832C631.97 37.64 631.73 37.448 631.382 37.256C631.046 37.064 630.56 36.848 629.924 36.608C629.3 36.368 628.766 36.128 628.322 35.888C627.878 35.648 627.536 35.36 627.296 35.024C627.056 34.688 626.936 34.256 626.936 33.728C626.936 32.912 627.266 32.282 627.926 31.838C628.598 31.394 629.474 31.172 630.554 31.172C631.142 31.172 631.688 31.232 632.192 31.352C632.708 31.46 633.188 31.616 633.632 31.82L633.092 33.08C632.684 32.912 632.258 32.768 631.814 32.648C631.37 32.528 630.914 32.468 630.446 32.468C629.798 32.468 629.3 32.576 628.952 32.792C628.616 32.996 628.448 33.278 628.448 33.638C628.448 33.902 628.526 34.13 628.682 34.322C628.838 34.502 629.096 34.682 629.456 34.862C629.828 35.03 630.32 35.234 630.932 35.474C631.544 35.702 632.066 35.936 632.498 36.176C632.93 36.416 633.26 36.71 633.488 37.058C633.716 37.394 633.83 37.82 633.83 38.336ZM635.927 40.028C635.927 39.584 636.035 39.272 636.251 39.092C636.467 38.912 636.725 38.822 637.025 38.822C637.337 38.822 637.601 38.912 637.817 39.092C638.045 39.272 638.159 39.584 638.159 40.028C638.159 40.46 638.045 40.772 637.817 40.964C637.601 41.156 637.337 41.252 637.025 41.252C636.725 41.252 636.467 41.156 636.251 40.964C636.035 40.772 635.927 40.46 635.927 40.028Z" fill="#163A24"/>
</svg>
