<svg width="108" height="17" viewBox="0 0 108 17" fill="none" xmlns="http://www.w3.org/2000/svg">
<path d="M3.576 1.576C5.06933 1.576 6.15733 1.86933 6.84 2.456C7.52267 3.04267 7.864 3.86933 7.864 4.936C7.864 5.56533 7.72 6.15733 7.432 6.712C7.15467 7.256 6.68 7.69867 6.008 8.04C5.34667 8.38133 4.44533 8.552 3.304 8.552H1.992V13H0.552V1.576H3.576ZM3.448 2.808H1.992V7.32H3.144C4.232 7.32 5.04267 7.144 5.576 6.792C6.10933 6.44 6.376 5.84267 6.376 5C6.376 4.264 6.14133 3.71467 5.672 3.352C5.20267 2.98933 4.46133 2.808 3.448 2.808ZM17.5035 8.696C17.5035 10.1147 17.1408 11.2133 16.4155 11.992C15.7008 12.7707 14.7302 13.16 13.5035 13.16C12.7462 13.16 12.0688 12.9893 11.4715 12.648C10.8848 12.296 10.4208 11.7893 10.0795 11.128C9.73817 10.456 9.5675 9.64533 9.5675 8.696C9.5675 7.27733 9.92483 6.184 10.6395 5.416C11.3542 4.648 12.3248 4.264 13.5515 4.264C14.3302 4.264 15.0128 4.44 15.5995 4.792C16.1968 5.13333 16.6608 5.63467 16.9915 6.296C17.3328 6.94667 17.5035 7.74667 17.5035 8.696ZM11.0235 8.696C11.0235 9.70933 11.2208 10.5147 11.6155 11.112C12.0208 11.6987 12.6608 11.992 13.5355 11.992C14.3995 11.992 15.0342 11.6987 15.4395 11.112C15.8448 10.5147 16.0475 9.70933 16.0475 8.696C16.0475 7.68267 15.8448 6.888 15.4395 6.312C15.0342 5.736 14.3942 5.448 13.5195 5.448C12.6448 5.448 12.0102 5.736 11.6155 6.312C11.2208 6.888 11.0235 7.68267 11.0235 8.696ZM21.143 13H19.735V0.839999H21.143V13ZM24.58 1.208C24.7933 1.208 24.98 1.28267 25.14 1.432C25.3107 1.57067 25.396 1.79467 25.396 2.104C25.396 2.40267 25.3107 2.62667 25.14 2.776C24.98 2.92533 24.7933 3 24.58 3C24.3453 3 24.148 2.92533 23.988 2.776C23.828 2.62667 23.748 2.40267 23.748 2.104C23.748 1.79467 23.828 1.57067 23.988 1.432C24.148 1.28267 24.3453 1.208 24.58 1.208ZM25.268 4.424V13H23.86V4.424H25.268ZM31.425 13.16C30.6677 13.16 29.9903 13.0053 29.393 12.696C28.8063 12.3867 28.3423 11.9067 28.001 11.256C27.6703 10.6053 27.505 9.77333 27.505 8.76C27.505 7.704 27.681 6.84533 28.033 6.184C28.385 5.52267 28.8597 5.03733 29.457 4.728C30.065 4.41867 30.753 4.264 31.521 4.264C31.9583 4.264 32.3797 4.312 32.785 4.408C33.1903 4.49333 33.521 4.6 33.777 4.728L33.345 5.896C33.089 5.8 32.7903 5.70933 32.449 5.624C32.1077 5.53867 31.7877 5.496 31.489 5.496C29.8037 5.496 28.961 6.57867 28.961 8.744C28.961 9.77867 29.1637 10.5733 29.569 11.128C29.985 11.672 30.5983 11.944 31.409 11.944C31.8783 11.944 32.289 11.896 32.641 11.8C33.0037 11.704 33.3343 11.5867 33.633 11.448V12.696C33.345 12.8453 33.025 12.9573 32.673 13.032C32.3317 13.1173 31.9157 13.16 31.425 13.16ZM34.3285 4.424H35.8325L37.6885 9.304C37.8485 9.73067 37.9925 10.1413 38.1205 10.536C38.2485 10.92 38.3445 11.288 38.4085 11.64H38.4725C38.5365 11.3733 38.6378 11.0267 38.7765 10.6C38.9152 10.1627 39.0592 9.72533 39.2085 9.288L40.9525 4.424H42.4725L38.7765 14.184C38.4778 14.9947 38.0885 15.64 37.6085 16.12C37.1392 16.6 36.4885 16.84 35.6565 16.84C35.4005 16.84 35.1765 16.824 34.9845 16.792C34.7925 16.7707 34.6272 16.744 34.4885 16.712V15.592C34.6058 15.6133 34.7445 15.6347 34.9045 15.656C35.0752 15.6773 35.2512 15.688 35.4325 15.688C35.9232 15.688 36.3178 15.5493 36.6165 15.272C36.9258 14.9947 37.1658 14.6267 37.3365 14.168L37.7845 13.032L34.3285 4.424ZM57.329 7.176C57.329 9.10667 56.801 10.5627 55.745 11.544C54.6997 12.5147 53.2383 13 51.361 13H48.177V1.576H51.697C52.849 1.576 53.8463 1.78933 54.689 2.216C55.5317 2.64267 56.1823 3.272 56.641 4.104C57.0997 4.92533 57.329 5.94933 57.329 7.176ZM55.809 7.224C55.809 5.69867 55.4303 4.584 54.673 3.88C53.9263 3.16533 52.865 2.808 51.489 2.808H49.617V11.768H51.169C54.2623 11.768 55.809 10.2533 55.809 7.224ZM63.6725 4.264C63.8325 4.264 64.0032 4.27467 64.1845 4.296C64.3765 4.30667 64.5418 4.328 64.6805 4.36L64.5045 5.656C64.3658 5.624 64.2112 5.59733 64.0405 5.576C63.8805 5.55467 63.7258 5.544 63.5765 5.544C63.1392 5.544 62.7285 5.66667 62.3445 5.912C61.9605 6.14667 61.6512 6.48267 61.4165 6.92C61.1925 7.34667 61.0805 7.848 61.0805 8.424V13H59.6725V4.424H60.8245L60.9845 5.992H61.0485C61.3258 5.52267 61.6832 5.11733 62.1205 4.776C62.5578 4.43467 63.0752 4.264 63.6725 4.264ZM69.2174 4.28C70.2627 4.28 71.036 4.50933 71.5374 4.968C72.0387 5.42667 72.2894 6.15733 72.2894 7.16V13H71.2654L70.9934 11.784H70.9294C70.556 12.2533 70.1614 12.6 69.7454 12.824C69.34 13.048 68.7747 13.16 68.0494 13.16C67.2707 13.16 66.6254 12.9573 66.1134 12.552C65.6014 12.136 65.3454 11.4907 65.3454 10.616C65.3454 9.76267 65.6814 9.10667 66.3534 8.648C67.0254 8.17867 68.06 7.92267 69.4574 7.88L70.9134 7.832V7.32C70.9134 6.60533 70.7587 6.10933 70.4494 5.832C70.14 5.55467 69.7027 5.416 69.1374 5.416C68.6894 5.416 68.2627 5.48533 67.8574 5.624C67.452 5.752 67.0734 5.90133 66.7214 6.072L66.2894 5.016C66.6627 4.81333 67.1054 4.64267 67.6174 4.504C68.1294 4.35467 68.6627 4.28 69.2174 4.28ZM69.6334 8.856C68.5667 8.89867 67.8254 9.06933 67.4094 9.368C67.004 9.66667 66.8014 10.088 66.8014 10.632C66.8014 11.112 66.9454 11.464 67.2334 11.688C67.532 11.912 67.9107 12.024 68.3694 12.024C69.0947 12.024 69.6974 11.8267 70.1774 11.432C70.6574 11.0267 70.8974 10.408 70.8974 9.576V8.808L69.6334 8.856ZM78.8901 5.512H76.7301V13H75.3221V5.512H73.8181V4.856L75.3221 4.376V3.88C75.3221 2.77067 75.5675 1.976 76.0581 1.496C76.5488 1.00533 77.2315 0.759999 78.1061 0.759999C78.4475 0.759999 78.7568 0.791999 79.0341 0.855999C79.3221 0.909333 79.5675 0.973333 79.7701 1.048L79.4021 2.152C79.2315 2.09867 79.0341 2.04533 78.8101 1.992C78.5861 1.93867 78.3568 1.912 78.1221 1.912C77.6528 1.912 77.3008 2.072 77.0661 2.392C76.8421 2.70133 76.7301 3.192 76.7301 3.864V4.424H78.8901V5.512ZM83.3021 12.008C83.5155 12.008 83.7341 11.992 83.9581 11.96C84.1821 11.9173 84.3635 11.8747 84.5021 11.832V12.904C84.3528 12.9787 84.1395 13.0373 83.8621 13.08C83.5848 13.1333 83.3181 13.16 83.0621 13.16C82.6141 13.16 82.1981 13.0853 81.8141 12.936C81.4408 12.776 81.1368 12.504 80.9021 12.12C80.6675 11.736 80.5501 11.1973 80.5501 10.504V5.512H79.3341V4.84L80.5661 4.28L81.1261 2.456H81.9581V4.424H84.4381V5.512H81.9581V10.472C81.9581 10.9947 82.0808 11.384 82.3261 11.64C82.5821 11.8853 82.9075 12.008 83.3021 12.008ZM86.9394 1.208C87.1527 1.208 87.3394 1.28267 87.4994 1.432C87.67 1.57067 87.7554 1.79467 87.7554 2.104C87.7554 2.40267 87.67 2.62667 87.4994 2.776C87.3394 2.92533 87.1527 3 86.9394 3C86.7047 3 86.5074 2.92533 86.3474 2.776C86.1874 2.62667 86.1074 2.40267 86.1074 2.104C86.1074 1.79467 86.1874 1.57067 86.3474 1.432C86.5074 1.28267 86.7047 1.208 86.9394 1.208ZM87.6274 4.424V13H86.2194V4.424H87.6274ZM94.4724 4.264C95.4964 4.264 96.2697 4.51467 96.7924 5.016C97.315 5.50667 97.5764 6.30667 97.5764 7.416V13H96.1844V7.512C96.1844 6.136 95.5444 5.448 94.2644 5.448C93.315 5.448 92.659 5.71467 92.2964 6.248C91.9337 6.78133 91.7524 7.54933 91.7524 8.552V13H90.3444V4.424H91.4804L91.6884 5.592H91.7684C92.0457 5.144 92.4297 4.81333 92.9204 4.6C93.411 4.376 93.9284 4.264 94.4724 4.264ZM103.275 4.264C103.84 4.264 104.347 4.37067 104.795 4.584C105.254 4.79733 105.643 5.12267 105.963 5.56H106.043L106.235 4.424H107.355V13.144C107.355 14.3707 107.04 15.2933 106.411 15.912C105.792 16.5307 104.827 16.84 103.515 16.84C102.256 16.84 101.227 16.6587 100.427 16.296V15C101.27 15.448 102.326 15.672 103.595 15.672C104.331 15.672 104.907 15.4533 105.323 15.016C105.75 14.5893 105.963 14.0027 105.963 13.256V12.92C105.963 12.792 105.968 12.6107 105.979 12.376C105.99 12.1307 106 11.96 106.011 11.864H105.947C105.371 12.728 104.486 13.16 103.291 13.16C102.182 13.16 101.312 12.7707 100.683 11.992C100.064 11.2133 99.755 10.1253 99.755 8.728C99.755 7.36267 100.064 6.28 100.683 5.48C101.312 4.66933 102.176 4.264 103.275 4.264ZM103.467 5.448C102.752 5.448 102.198 5.736 101.803 6.312C101.408 6.87733 101.211 7.688 101.211 8.744C101.211 9.8 101.403 10.6107 101.787 11.176C102.182 11.7307 102.752 12.008 103.499 12.008C104.363 12.008 104.992 11.7787 105.387 11.32C105.782 10.8507 105.979 10.0987 105.979 9.064V8.728C105.979 7.55467 105.776 6.71733 105.371 6.216C104.966 5.704 104.331 5.448 103.467 5.448Z" fill="#163A24"/>
</svg>
