<svg width="55" height="12" viewBox="0 0 55 12" fill="none" xmlns="http://www.w3.org/2000/svg">
<path d="M2.74423 1.004C4.0509 1.004 5.0029 1.26067 5.60023 1.774C6.19757 2.28733 6.49623 3.01067 6.49623 3.944C6.49623 4.49467 6.37023 5.01267 6.11823 5.498C5.87557 5.974 5.46023 6.36133 4.87223 6.66C4.29357 6.95867 3.5049 7.108 2.50623 7.108H1.35823V11H0.0982344V1.004H2.74423ZM2.63223 2.082H1.35823V6.03H2.36623C3.31823 6.03 4.02757 5.876 4.49423 5.568C4.9609 5.26 5.19423 4.73733 5.19423 4C5.19423 3.356 4.9889 2.87533 4.57823 2.558C4.16757 2.24067 3.5189 2.082 2.63223 2.082ZM11.9068 3.356C12.0468 3.356 12.1961 3.36533 12.3548 3.384C12.5228 3.39333 12.6675 3.412 12.7888 3.44L12.6348 4.574C12.5135 4.546 12.3781 4.52267 12.2288 4.504C12.0888 4.48533 11.9535 4.476 11.8228 4.476C11.4401 4.476 11.0808 4.58333 10.7448 4.798C10.4088 5.00333 10.1381 5.29733 9.9328 5.68C9.7368 6.05333 9.6388 6.492 9.6388 6.996V11H8.4068V3.496H9.4148L9.5548 4.868H9.6108C9.85346 4.45733 10.1661 4.10267 10.5488 3.804C10.9315 3.50533 11.3841 3.356 11.9068 3.356ZM16.8146 3.356C17.4586 3.356 18.0092 3.496 18.4666 3.776C18.9332 4.056 19.2879 4.45267 19.5306 4.966C19.7826 5.47 19.9086 6.06267 19.9086 6.744V7.486H14.7706C14.7892 8.33533 15.0039 8.984 15.4146 9.432C15.8346 9.87067 16.4179 10.09 17.1646 10.09C17.6406 10.09 18.0606 10.048 18.4246 9.964C18.7979 9.87067 19.1806 9.74 19.5726 9.572V10.65C19.1899 10.818 18.8119 10.9393 18.4386 11.014C18.0652 11.098 17.6219 11.14 17.1086 11.14C16.3992 11.14 15.7692 10.9953 15.2186 10.706C14.6772 10.4167 14.2526 9.98733 13.9446 9.418C13.6459 8.83933 13.4966 8.13467 13.4966 7.304C13.4966 6.48267 13.6319 5.778 13.9026 5.19C14.1826 4.602 14.5699 4.14933 15.0646 3.832C15.5686 3.51467 16.1519 3.356 16.8146 3.356ZM16.8006 4.364C16.2126 4.364 15.7459 4.55533 15.4006 4.938C15.0646 5.31133 14.8639 5.834 14.7986 6.506H18.6206C18.6112 5.87133 18.4619 5.358 18.1726 4.966C17.8832 4.56467 17.4259 4.364 16.8006 4.364ZM26.7049 8.928C26.7049 9.656 26.4342 10.2067 25.8929 10.58C25.3516 10.9533 24.6236 11.14 23.7089 11.14C23.1862 11.14 22.7336 11.098 22.3509 11.014C21.9776 10.93 21.6462 10.8133 21.3569 10.664V9.544C21.6556 9.69333 22.0149 9.83333 22.4349 9.964C22.8642 10.0853 23.2982 10.146 23.7369 10.146C24.3622 10.146 24.8149 10.048 25.0949 9.852C25.3749 9.64667 25.5149 9.376 25.5149 9.04C25.5149 8.85333 25.4636 8.68533 25.3609 8.536C25.2582 8.38667 25.0716 8.23733 24.8009 8.088C24.5396 7.93867 24.1616 7.77067 23.6669 7.584C23.1816 7.39733 22.7662 7.21067 22.4209 7.024C22.0756 6.83733 21.8096 6.61333 21.6229 6.352C21.4362 6.09067 21.3429 5.75467 21.3429 5.344C21.3429 4.70933 21.5996 4.21933 22.1129 3.874C22.6356 3.52867 23.3169 3.356 24.1569 3.356C24.6142 3.356 25.0389 3.40267 25.4309 3.496C25.8322 3.58 26.2056 3.70133 26.5509 3.86L26.1309 4.84C25.8136 4.70933 25.4822 4.59733 25.1369 4.504C24.7916 4.41067 24.4369 4.364 24.0729 4.364C23.5689 4.364 23.1816 4.448 22.9109 4.616C22.6496 4.77467 22.5189 4.994 22.5189 5.274C22.5189 5.47933 22.5796 5.65667 22.7009 5.806C22.8222 5.946 23.0229 6.086 23.3029 6.226C23.5922 6.35667 23.9749 6.51533 24.4509 6.702C24.9269 6.87933 25.3329 7.06133 25.6689 7.248C26.0049 7.43467 26.2616 7.66333 26.4389 7.934C26.6162 8.19533 26.7049 8.52667 26.7049 8.928ZM33.4041 8.928C33.4041 9.656 33.1335 10.2067 32.5921 10.58C32.0508 10.9533 31.3228 11.14 30.4081 11.14C29.8855 11.14 29.4328 11.098 29.0501 11.014C28.6768 10.93 28.3455 10.8133 28.0561 10.664V9.544C28.3548 9.69333 28.7141 9.83333 29.1341 9.964C29.5635 10.0853 29.9975 10.146 30.4361 10.146C31.0615 10.146 31.5141 10.048 31.7941 9.852C32.0741 9.64667 32.2141 9.376 32.2141 9.04C32.2141 8.85333 32.1628 8.68533 32.0601 8.536C31.9575 8.38667 31.7708 8.23733 31.5001 8.088C31.2388 7.93867 30.8608 7.77067 30.3661 7.584C29.8808 7.39733 29.4655 7.21067 29.1201 7.024C28.7748 6.83733 28.5088 6.61333 28.3221 6.352C28.1355 6.09067 28.0421 5.75467 28.0421 5.344C28.0421 4.70933 28.2988 4.21933 28.8121 3.874C29.3348 3.52867 30.0161 3.356 30.8561 3.356C31.3135 3.356 31.7381 3.40267 32.1301 3.496C32.5315 3.58 32.9048 3.70133 33.2501 3.86L32.8301 4.84C32.5128 4.70933 32.1815 4.59733 31.8361 4.504C31.4908 4.41067 31.1361 4.364 30.7721 4.364C30.2681 4.364 29.8808 4.448 29.6101 4.616C29.3488 4.77467 29.2181 4.994 29.2181 5.274C29.2181 5.47933 29.2788 5.65667 29.4001 5.806C29.5215 5.946 29.7221 6.086 30.0021 6.226C30.2915 6.35667 30.6741 6.51533 31.1501 6.702C31.6261 6.87933 32.0321 7.06133 32.3681 7.248C32.7041 7.43467 32.9608 7.66333 33.1381 7.934C33.3155 8.19533 33.4041 8.52667 33.4041 8.928ZM46.3301 11H44.8461L41.3041 6.226L40.2821 7.122V11H39.0221V1.004H40.2821V5.932C40.5621 5.61467 40.8467 5.29733 41.1361 4.98C41.4254 4.66267 41.7147 4.34533 42.0041 4.028L44.7061 1.004H46.1761L42.2141 5.358L46.3301 11ZM48.152 0.681999C48.3387 0.681999 48.502 0.747333 48.642 0.877999C48.7914 0.999333 48.866 1.19533 48.866 1.466C48.866 1.72733 48.7914 1.92333 48.642 2.054C48.502 2.18467 48.3387 2.25 48.152 2.25C47.9467 2.25 47.774 2.18467 47.634 2.054C47.494 1.92333 47.424 1.72733 47.424 1.466C47.424 1.19533 47.494 0.999333 47.634 0.877999C47.774 0.747333 47.9467 0.681999 48.152 0.681999ZM48.754 3.496V11H47.522V3.496H48.754ZM53.6374 10.132C53.8241 10.132 54.0154 10.118 54.2114 10.09C54.4074 10.0527 54.5661 10.0153 54.6874 9.978V10.916C54.5567 10.9813 54.3701 11.0327 54.1274 11.07C53.8847 11.1167 53.6514 11.14 53.4274 11.14C53.0354 11.14 52.6714 11.0747 52.3354 10.944C52.0087 10.804 51.7427 10.566 51.5374 10.23C51.3321 9.894 51.2294 9.42267 51.2294 8.816V4.448H50.1654V3.86L51.2434 3.37L51.7334 1.774H52.4614V3.496H54.6314V4.448H52.4614V8.788C52.4614 9.24533 52.5687 9.586 52.7834 9.81C53.0074 10.0247 53.2921 10.132 53.6374 10.132Z" fill="#198C36"/>
</svg>
