<svg width="89" height="15" viewBox="0 0 89 15" fill="none" xmlns="http://www.w3.org/2000/svg">
<path d="M3.64267 1.004C4.94934 1.004 5.90134 1.26067 6.49867 1.774C7.09601 2.28733 7.39467 3.01067 7.39467 3.944C7.39467 4.49467 7.26867 5.01267 7.01667 5.498C6.77401 5.974 6.35867 6.36133 5.77067 6.66C5.19201 6.95867 4.40334 7.108 3.40467 7.108H2.25667V11H0.996672V1.004H3.64267ZM3.53067 2.082H2.25667V6.03H3.26467C4.21667 6.03 4.92601 5.876 5.39267 5.568C5.85934 5.26 6.09267 4.73733 6.09267 4C6.09267 3.356 5.88734 2.87533 5.47667 2.558C5.06601 2.24067 4.41734 2.082 3.53067 2.082ZM12.8052 3.356C12.9452 3.356 13.0946 3.36533 13.2532 3.384C13.4212 3.39333 13.5659 3.412 13.6872 3.44L13.5332 4.574C13.4119 4.546 13.2766 4.52267 13.1272 4.504C12.9872 4.48533 12.8519 4.476 12.7212 4.476C12.3386 4.476 11.9792 4.58333 11.6432 4.798C11.3072 5.00333 11.0366 5.29733 10.8312 5.68C10.6352 6.05333 10.5372 6.492 10.5372 6.996V11H9.30523V3.496H10.3132L10.4532 4.868H10.5092C10.7519 4.45733 11.0646 4.10267 11.4472 3.804C11.8299 3.50533 12.2826 3.356 12.8052 3.356ZM15.7184 0.681999C15.9051 0.681999 16.0684 0.747333 16.2084 0.877999C16.3578 0.999333 16.4324 1.19533 16.4324 1.466C16.4324 1.72733 16.3578 1.92333 16.2084 2.054C16.0684 2.18467 15.9051 2.25 15.7184 2.25C15.5131 2.25 15.3404 2.18467 15.2004 2.054C15.0604 1.92333 14.9904 1.72733 14.9904 1.466C14.9904 1.19533 15.0604 0.999333 15.2004 0.877999C15.3404 0.747333 15.5131 0.681999 15.7184 0.681999ZM16.3204 3.496V11H15.0884V3.496H16.3204ZM20.3498 11L17.5078 3.496H18.8238L20.4198 7.92C20.4945 8.12533 20.5738 8.354 20.6578 8.606C20.7418 8.858 20.8165 9.10067 20.8818 9.334C20.9471 9.558 20.9938 9.74933 21.0218 9.908H21.0778C21.1151 9.74933 21.1665 9.55333 21.2318 9.32C21.3065 9.08667 21.3858 8.844 21.4698 8.592C21.5631 8.34 21.6425 8.116 21.7078 7.92L23.3038 3.496H24.6198L21.7638 11H20.3498ZM28.6492 3.37C29.5639 3.37 30.2405 3.57067 30.6792 3.972C31.1179 4.37333 31.3372 5.01267 31.3372 5.89V11H30.4412L30.2032 9.936H30.1472C29.8205 10.3467 29.4752 10.65 29.1112 10.846C28.7565 11.042 28.2619 11.14 27.6272 11.14C26.9459 11.14 26.3812 10.9627 25.9332 10.608C25.4852 10.244 25.2612 9.67933 25.2612 8.914C25.2612 8.16733 25.5552 7.59333 26.1432 7.192C26.7312 6.78133 27.6365 6.55733 28.8592 6.52L30.1332 6.478V6.03C30.1332 5.40467 29.9979 4.97067 29.7272 4.728C29.4565 4.48533 29.0739 4.364 28.5792 4.364C28.1872 4.364 27.8139 4.42467 27.4592 4.546C27.1045 4.658 26.7732 4.78867 26.4652 4.938L26.0872 4.014C26.4139 3.83667 26.8012 3.68733 27.2492 3.566C27.6972 3.43533 28.1639 3.37 28.6492 3.37ZM29.0132 7.374C28.0799 7.41133 27.4312 7.56067 27.0672 7.822C26.7125 8.08333 26.5352 8.452 26.5352 8.928C26.5352 9.348 26.6612 9.656 26.9132 9.852C27.1745 10.048 27.5059 10.146 27.9072 10.146C28.5419 10.146 29.0692 9.97333 29.4892 9.628C29.9092 9.27333 30.1192 8.732 30.1192 8.004V7.332L29.0132 7.374ZM36.6648 11.14C36.0022 11.14 35.4095 11.0047 34.8868 10.734C34.3735 10.4633 33.9675 10.0433 33.6688 9.474C33.3795 8.90467 33.2348 8.17667 33.2348 7.29C33.2348 6.366 33.3888 5.61467 33.6968 5.036C34.0048 4.45733 34.4202 4.03267 34.9428 3.762C35.4748 3.49133 36.0768 3.356 36.7488 3.356C37.1315 3.356 37.5002 3.398 37.8548 3.482C38.2095 3.55667 38.4988 3.65 38.7228 3.762L38.3448 4.784C38.1208 4.7 37.8595 4.62067 37.5608 4.546C37.2622 4.47133 36.9822 4.434 36.7208 4.434C35.2462 4.434 34.5088 5.38133 34.5088 7.276C34.5088 8.18133 34.6862 8.87667 35.0408 9.362C35.4048 9.838 35.9415 10.076 36.6508 10.076C37.0615 10.076 37.4208 10.034 37.7288 9.95C38.0462 9.866 38.3355 9.76333 38.5968 9.642V10.734C38.3448 10.8647 38.0648 10.9627 37.7568 11.028C37.4582 11.1027 37.0942 11.14 36.6648 11.14ZM39.2054 3.496H40.5214L42.1454 7.766C42.2854 8.13933 42.4114 8.49867 42.5234 8.844C42.6354 9.18 42.7194 9.502 42.7754 9.81H42.8314C42.8874 9.57667 42.9761 9.27333 43.0974 8.9C43.2187 8.51733 43.3447 8.13467 43.4754 7.752L45.0014 3.496H46.3314L43.0974 12.036C42.8361 12.7453 42.4954 13.31 42.0754 13.73C41.6647 14.15 41.0954 14.36 40.3674 14.36C40.1434 14.36 39.9474 14.346 39.7794 14.318C39.6114 14.2993 39.4667 14.276 39.3454 14.248V13.268C39.4481 13.2867 39.5694 13.3053 39.7094 13.324C39.8587 13.3427 40.0127 13.352 40.1714 13.352C40.6007 13.352 40.9461 13.2307 41.2074 12.988C41.4781 12.7453 41.6881 12.4233 41.8374 12.022L42.2294 11.028L39.2054 3.496ZM53.9688 1.004C55.2755 1.004 56.2275 1.26067 56.8248 1.774C57.4222 2.28733 57.7208 3.01067 57.7208 3.944C57.7208 4.49467 57.5948 5.01267 57.3428 5.498C57.1002 5.974 56.6848 6.36133 56.0968 6.66C55.5182 6.95867 54.7295 7.108 53.7308 7.108H52.5828V11H51.3228V1.004H53.9688ZM53.8568 2.082H52.5828V6.03H53.5908C54.5428 6.03 55.2522 5.876 55.7188 5.568C56.1855 5.26 56.4188 4.73733 56.4188 4C56.4188 3.356 56.2135 2.87533 55.8028 2.558C55.3922 2.24067 54.7435 2.082 53.8568 2.082ZM66.1554 7.234C66.1554 8.47533 65.8381 9.43667 65.2034 10.118C64.5781 10.7993 63.7287 11.14 62.6554 11.14C61.9927 11.14 61.4001 10.9907 60.8774 10.692C60.3641 10.384 59.9581 9.94067 59.6594 9.362C59.3607 8.774 59.2114 8.06467 59.2114 7.234C59.2114 5.99267 59.5241 5.036 60.1494 4.364C60.7747 3.692 61.6241 3.356 62.6974 3.356C63.3787 3.356 63.9761 3.51 64.4894 3.818C65.0121 4.11667 65.4181 4.55533 65.7074 5.134C66.0061 5.70333 66.1554 6.40333 66.1554 7.234ZM60.4854 7.234C60.4854 8.12067 60.6581 8.82533 61.0034 9.348C61.3581 9.86133 61.9181 10.118 62.6834 10.118C63.4394 10.118 63.9947 9.86133 64.3494 9.348C64.7041 8.82533 64.8814 8.12067 64.8814 7.234C64.8814 6.34733 64.7041 5.652 64.3494 5.148C63.9947 4.644 63.4347 4.392 62.6694 4.392C61.9041 4.392 61.3487 4.644 61.0034 5.148C60.6581 5.652 60.4854 6.34733 60.4854 7.234ZM69.34 11H68.108V0.359999H69.34V11ZM72.3473 0.681999C72.534 0.681999 72.6973 0.747333 72.8373 0.877999C72.9867 0.999333 73.0613 1.19533 73.0613 1.466C73.0613 1.72733 72.9867 1.92333 72.8373 2.054C72.6973 2.18467 72.534 2.25 72.3473 2.25C72.142 2.25 71.9693 2.18467 71.8293 2.054C71.6893 1.92333 71.6193 1.72733 71.6193 1.466C71.6193 1.19533 71.6893 0.999333 71.8293 0.877999C71.9693 0.747333 72.142 0.681999 72.3473 0.681999ZM72.9493 3.496V11H71.7173V3.496H72.9493ZM78.3367 11.14C77.6741 11.14 77.0814 11.0047 76.5587 10.734C76.0454 10.4633 75.6394 10.0433 75.3407 9.474C75.0514 8.90467 74.9067 8.17667 74.9067 7.29C74.9067 6.366 75.0607 5.61467 75.3687 5.036C75.6767 4.45733 76.0921 4.03267 76.6147 3.762C77.1467 3.49133 77.7487 3.356 78.4207 3.356C78.8034 3.356 79.1721 3.398 79.5267 3.482C79.8814 3.55667 80.1707 3.65 80.3947 3.762L80.0167 4.784C79.7927 4.7 79.5314 4.62067 79.2327 4.546C78.9341 4.47133 78.6541 4.434 78.3927 4.434C76.9181 4.434 76.1807 5.38133 76.1807 7.276C76.1807 8.18133 76.3581 8.87667 76.7127 9.362C77.0767 9.838 77.6134 10.076 78.3227 10.076C78.7334 10.076 79.0927 10.034 79.4007 9.95C79.7181 9.866 80.0074 9.76333 80.2687 9.642V10.734C80.0167 10.8647 79.7367 10.9627 79.4287 11.028C79.1301 11.1027 78.7661 11.14 78.3367 11.14ZM80.8773 3.496H82.1933L83.8173 7.766C83.9573 8.13933 84.0833 8.49867 84.1953 8.844C84.3073 9.18 84.3913 9.502 84.4473 9.81H84.5033C84.5593 9.57667 84.6479 9.27333 84.7693 8.9C84.8906 8.51733 85.0166 8.13467 85.1473 7.752L86.6733 3.496H88.0033L84.7693 12.036C84.5079 12.7453 84.1673 13.31 83.7473 13.73C83.3366 14.15 82.7673 14.36 82.0393 14.36C81.8153 14.36 81.6193 14.346 81.4513 14.318C81.2833 14.2993 81.1386 14.276 81.0173 14.248V13.268C81.1199 13.2867 81.2413 13.3053 81.3813 13.324C81.5306 13.3427 81.6846 13.352 81.8433 13.352C82.2726 13.352 82.6179 13.2307 82.8793 12.988C83.1499 12.7453 83.3599 12.4233 83.5093 12.022L83.9013 11.028L80.8773 3.496Z" fill="#198C36"/>
</svg>
