<svg width="161" height="58" viewBox="0 0 161 58" fill="none" xmlns="http://www.w3.org/2000/svg">
<path d="M1.96 20C1.53067 20 1.316 19.8413 1.316 19.524V19.412C1.316 19.244 1.49333 18.964 1.848 18.572C2.22133 18.1613 2.408 17.7413 2.408 17.312V2.808C2.408 2.39733 2.22133 1.98667 1.848 1.576C1.49333 1.16533 1.316 0.866666 1.316 0.679998V0.568C1.316 0.269333 1.53067 0.119999 1.96 0.119999H8.344C11.0133 0.119999 13.16 0.661333 14.784 1.744C16.4267 2.808 17.248 4.45067 17.248 6.672C17.248 8.78133 16.52 10.452 15.064 11.684C13.608 12.916 11.6387 13.532 9.156 13.532H6.664V17.312C6.664 17.7413 6.86 18.1613 7.252 18.572C7.66267 18.964 7.868 19.244 7.868 19.412V19.524C7.868 19.8413 7.65333 20 7.224 20H1.96ZM7.868 11.88H9.156C10.3133 11.88 11.2187 11.488 11.872 10.704C12.5253 9.90133 12.852 8.89333 12.852 7.68C12.852 5.86933 12.3947 4.44133 11.48 3.396C10.584 2.332 9.53867 1.8 8.344 1.8H7.588C6.972 1.8 6.664 2.20133 6.664 3.004V10.62C6.664 11.46 7.06533 11.88 7.868 11.88ZM27.0447 6.28C27.8474 6.28 28.4727 6.52267 28.9207 7.008C29.3874 7.47467 29.6207 8.08133 29.6207 8.828C29.6207 10.3027 29.0234 11.04 27.8287 11.04C27.3434 11.04 26.9607 10.9187 26.6807 10.676C26.4194 10.4147 26.2607 10.1347 26.2047 9.836C26.1487 9.53733 26.0367 9.26667 25.8687 9.024C25.7007 8.76267 25.4487 8.632 25.1127 8.632C24.6087 8.632 24.2354 8.93067 23.9927 9.528C23.7501 10.1253 23.6287 10.8533 23.6287 11.712V17.312C23.6287 17.648 23.7407 17.9467 23.9647 18.208C24.2074 18.4507 24.4407 18.6653 24.6647 18.852C24.9074 19.0387 25.0287 19.2253 25.0287 19.412V19.524C25.0287 19.8413 24.8234 20 24.4127 20H19.2327C18.8034 20 18.5887 19.8413 18.5887 19.524V19.412C18.5887 19.2253 18.7661 18.936 19.1207 18.544C19.4941 18.152 19.6807 17.7413 19.6807 17.312V10.76C19.6807 10.312 19.4661 9.91067 19.0367 9.556C18.6074 9.20133 18.3927 8.93067 18.3927 8.744V8.632C18.3927 8.37067 18.5887 8.14667 18.9807 7.96L22.3407 6.392C22.9381 6.112 23.2367 6.29867 23.2367 6.952V9.052C23.8714 7.204 25.1407 6.28 27.0447 6.28ZM37.8212 20.28C35.5999 20.28 33.7612 19.5987 32.3052 18.236C30.8679 16.8547 30.1492 15.1747 30.1492 13.196C30.1492 11.1987 30.8586 9.54667 32.2772 8.24C33.6959 6.93333 35.4039 6.28 37.4012 6.28C39.5479 6.28 41.3399 6.96133 42.7772 8.324C44.2146 9.668 44.9332 11.3387 44.9332 13.336C44.9332 15.3333 44.2519 16.9947 42.8892 18.32C41.5452 19.6267 39.8559 20.28 37.8212 20.28ZM38.3252 19.048C39.0906 19.048 39.6786 18.6933 40.0892 17.984C40.5186 17.2747 40.7332 16.276 40.7332 14.988C40.7332 13.924 40.5746 12.832 40.2572 11.712C39.9586 10.5733 39.5012 9.59333 38.8852 8.772C38.2692 7.932 37.5879 7.512 36.8412 7.512C35.1239 7.512 34.2652 8.87467 34.2652 11.6C34.2652 12.608 34.4146 13.672 34.7132 14.792C35.0306 15.912 35.5066 16.9013 36.1412 17.76C36.7946 18.6187 37.5226 19.048 38.3252 19.048ZM51.9107 20.28C50.604 20.28 49.568 19.8693 48.8027 19.048C48.056 18.208 47.6827 17.004 47.6827 15.436V8.184H46.3667C45.9934 8.184 45.8067 7.99733 45.8067 7.624V7.148C45.8067 6.756 45.9934 6.56 46.3667 6.56H47.0667C47.832 6.56 48.476 6.308 48.9987 5.804C49.54 5.3 49.8854 4.628 50.0347 3.788C50.128 3.34 50.3427 3.116 50.6787 3.116H51.2387C51.6494 3.116 51.8547 3.34 51.8547 3.788L51.8827 6.56H55.1027C55.252 6.56 55.3827 6.616 55.4947 6.728C55.6067 6.84 55.6627 6.98 55.6627 7.148V7.624C55.6627 7.792 55.6067 7.932 55.4947 8.044C55.3827 8.13733 55.252 8.184 55.1027 8.184H51.8827V15.492C51.8827 16.0333 52.0134 16.472 52.2747 16.808C52.5547 17.1253 52.9 17.284 53.3107 17.284C54.2814 17.284 54.916 16.864 55.2147 16.024C55.3827 15.7813 55.588 15.688 55.8307 15.744C56.092 15.7813 56.2227 15.9307 56.2227 16.192C56.2227 17.2747 55.8307 18.2267 55.0467 19.048C54.2814 19.8693 53.236 20.28 51.9107 20.28ZM68.5368 15.744C68.7048 15.52 68.9101 15.4453 69.1528 15.52C69.3954 15.5947 69.5074 15.772 69.4888 16.052C69.3954 17.0227 68.8354 17.9747 67.8088 18.908C66.7821 19.8227 65.4474 20.28 63.8048 20.28C61.8261 20.28 60.2021 19.6267 58.9328 18.32C57.6634 17.0133 57.0288 15.296 57.0288 13.168C57.0288 11.1707 57.6914 9.528 59.0168 8.24C60.3421 6.93333 61.9381 6.28 63.8048 6.28C65.5034 6.28 66.8101 6.68133 67.7248 7.484C68.6394 8.28667 69.0968 9.21067 69.0968 10.256C69.0968 11.1147 68.6861 11.7307 67.8648 12.104L61.6488 14.932C62.4141 16.556 63.6461 17.368 65.3448 17.368C66.0541 17.368 66.6888 17.2187 67.2488 16.92C67.8274 16.6027 68.2568 16.2107 68.5368 15.744ZM63.3008 7.512C62.5728 7.512 61.9941 7.86667 61.5648 8.576C61.1354 9.26667 60.9208 10.1533 60.9208 11.236C60.9208 12.1507 61.0141 12.9533 61.2008 13.644L64.8128 11.824C65.2981 11.5813 65.5408 11.1427 65.5408 10.508C65.5408 9.87333 65.3354 9.22 64.9248 8.548C64.5141 7.85733 63.9728 7.512 63.3008 7.512ZM77.8667 20.28C75.7947 20.28 74.068 19.5893 72.6867 18.208C71.324 16.8267 70.6427 15.1747 70.6427 13.252C70.6427 11.1613 71.324 9.48133 72.6867 8.212C74.068 6.94267 75.7387 6.29867 77.6987 6.28C79.304 6.26133 80.6667 6.63467 81.7867 7.4C82.9254 8.16533 83.4947 9.09867 83.4947 10.2C83.4947 10.6107 83.3547 10.956 83.0747 11.236C82.7947 11.4973 82.356 11.6187 81.7587 11.6C81.3107 11.5813 80.9187 11.4227 80.5827 11.124C80.2467 10.8253 79.9667 10.48 79.7427 10.088C79.5374 9.696 79.3227 9.304 79.0987 8.912C78.8747 8.52 78.5947 8.19333 78.2587 7.932C77.9227 7.652 77.5307 7.512 77.0827 7.512C76.2987 7.512 75.664 7.86667 75.1787 8.576C74.712 9.28533 74.4787 10.172 74.4787 11.236C74.4787 13.1027 74.908 14.596 75.7667 15.716C76.644 16.836 77.8014 17.396 79.2387 17.396C80.7134 17.396 81.8334 16.7427 82.5987 15.436C82.7107 15.2867 82.8414 15.2027 82.9907 15.184C83.1587 15.1467 83.2987 15.184 83.4107 15.296C83.5414 15.3893 83.5974 15.5293 83.5787 15.716C83.4854 16.9667 82.9347 18.04 81.9267 18.936C80.9374 19.832 79.584 20.28 77.8667 20.28ZM90.5748 20.28C89.2681 20.28 88.2321 19.8693 87.4668 19.048C86.7201 18.208 86.3468 17.004 86.3468 15.436V8.184H85.0308C84.6574 8.184 84.4708 7.99733 84.4708 7.624V7.148C84.4708 6.756 84.6574 6.56 85.0308 6.56H85.7308C86.4961 6.56 87.1401 6.308 87.6628 5.804C88.2041 5.3 88.5494 4.628 88.6988 3.788C88.7921 3.34 89.0068 3.116 89.3428 3.116H89.9028C90.3134 3.116 90.5188 3.34 90.5188 3.788L90.5468 6.56H93.7668C93.9161 6.56 94.0468 6.616 94.1588 6.728C94.2708 6.84 94.3268 6.98 94.3268 7.148V7.624C94.3268 7.792 94.2708 7.932 94.1588 8.044C94.0468 8.13733 93.9161 8.184 93.7668 8.184H90.5468V15.492C90.5468 16.0333 90.6774 16.472 90.9388 16.808C91.2188 17.1253 91.5641 17.284 91.9748 17.284C92.9454 17.284 93.5801 16.864 93.8788 16.024C94.0468 15.7813 94.2521 15.688 94.4948 15.744C94.7561 15.7813 94.8868 15.9307 94.8868 16.192C94.8868 17.2747 94.4948 18.2267 93.7108 19.048C92.9454 19.8693 91.9001 20.28 90.5748 20.28ZM118.363 0.119999C118.774 0.119999 118.979 0.269333 118.979 0.568V0.679998C118.979 0.903999 118.755 1.20267 118.307 1.576C117.878 1.94933 117.533 2.36 117.271 2.808L112.007 11.908V17.312C112.007 17.7413 112.203 18.1613 112.595 18.572C112.987 18.964 113.183 19.2533 113.183 19.44V19.524C113.183 19.8413 112.978 20 112.567 20H107.275C106.865 20 106.659 19.8413 106.659 19.524V19.44C106.659 19.2533 106.837 18.964 107.191 18.572C107.546 18.1613 107.723 17.7413 107.723 17.312V12.216L101.787 2.808C101.545 2.416 101.181 2.024 100.695 1.632C100.21 1.24 99.9674 0.922665 99.9674 0.679998V0.568C99.9674 0.269333 100.191 0.119999 100.639 0.119999H106.995C107.425 0.119999 107.639 0.269333 107.639 0.568V0.679998C107.639 0.866666 107.499 1.06267 107.219 1.268C106.958 1.47333 106.734 1.70667 106.547 1.968C106.361 2.21067 106.361 2.49067 106.547 2.808L110.859 10.368L115.171 2.808C115.339 2.54667 115.377 2.304 115.283 2.08C115.19 1.856 115.05 1.688 114.863 1.576C114.677 1.44533 114.49 1.30533 114.303 1.156C114.135 0.987999 114.051 0.829332 114.051 0.679998V0.568C114.051 0.269333 114.257 0.119999 114.667 0.119999H118.363ZM124.255 20.28C122.033 20.28 120.195 19.5987 118.739 18.236C117.301 16.8547 116.583 15.1747 116.583 13.196C116.583 11.1987 117.292 9.54667 118.711 8.24C120.129 6.93333 121.837 6.28 123.835 6.28C125.981 6.28 127.773 6.96133 129.211 8.324C130.648 9.668 131.367 11.3387 131.367 13.336C131.367 15.3333 130.685 16.9947 129.323 18.32C127.979 19.6267 126.289 20.28 124.255 20.28ZM124.759 19.048C125.524 19.048 126.112 18.6933 126.523 17.984C126.952 17.2747 127.167 16.276 127.167 14.988C127.167 13.924 127.008 12.832 126.691 11.712C126.392 10.5733 125.935 9.59333 125.319 8.772C124.703 7.932 124.021 7.512 123.275 7.512C121.557 7.512 120.699 8.87467 120.699 11.6C120.699 12.608 120.848 13.672 121.147 14.792C121.464 15.912 121.94 16.9013 122.575 17.76C123.228 18.6187 123.956 19.048 124.759 19.048ZM146.657 17.144C146.657 17.648 146.722 18.0307 146.853 18.292C147.002 18.5347 147.161 18.6747 147.329 18.712C147.497 18.7307 147.646 18.7867 147.777 18.88C147.926 18.9733 148.001 19.132 148.001 19.356C148.001 19.8973 147.17 20.168 145.509 20.168C144.688 20.168 144.072 20.0373 143.661 19.776C143.269 19.496 143.054 19.02 143.017 18.348C142.233 19.636 140.88 20.28 138.957 20.28C137.445 20.28 136.194 19.776 135.205 18.768C134.234 17.7413 133.749 16.304 133.749 14.456V9.724C133.749 9.25733 133.562 8.828 133.189 8.436C132.834 8.02533 132.657 7.74533 132.657 7.596V7.512C132.657 7.176 132.853 6.98 133.245 6.924L136.773 6.392C137.538 6.29867 137.921 6.46667 137.921 6.896L137.837 14.876C137.837 17.4147 138.612 18.684 140.161 18.684C140.852 18.684 141.421 18.3853 141.869 17.788C142.336 17.172 142.569 16.3787 142.569 15.408V9.724C142.569 9.25733 142.382 8.828 142.009 8.436C141.636 8.02533 141.449 7.74533 141.449 7.596V7.512C141.449 7.176 141.636 6.98 142.009 6.924L145.593 6.392C146.302 6.31733 146.657 6.48533 146.657 6.896V17.144ZM157.912 6.28C158.715 6.28 159.34 6.52267 159.788 7.008C160.255 7.47467 160.488 8.08133 160.488 8.828C160.488 10.3027 159.891 11.04 158.696 11.04C158.211 11.04 157.828 10.9187 157.548 10.676C157.287 10.4147 157.128 10.1347 157.072 9.836C157.016 9.53733 156.904 9.26667 156.736 9.024C156.568 8.76267 156.316 8.632 155.98 8.632C155.476 8.632 155.103 8.93067 154.86 9.528C154.617 10.1253 154.496 10.8533 154.496 11.712V17.312C154.496 17.648 154.608 17.9467 154.832 18.208C155.075 18.4507 155.308 18.6653 155.532 18.852C155.775 19.0387 155.896 19.2253 155.896 19.412V19.524C155.896 19.8413 155.691 20 155.28 20H150.1C149.671 20 149.456 19.8413 149.456 19.524V19.412C149.456 19.2253 149.633 18.936 149.988 18.544C150.361 18.152 150.548 17.7413 150.548 17.312V10.76C150.548 10.312 150.333 9.91067 149.904 9.556C149.475 9.20133 149.26 8.93067 149.26 8.744V8.632C149.26 8.37067 149.456 8.14667 149.848 7.96L153.208 6.392C153.805 6.112 154.104 6.29867 154.104 6.952V9.052C154.739 7.204 156.008 6.28 157.912 6.28ZM10.248 51.28C7.65333 51.28 5.41333 50.2253 3.528 48.116C1.66133 45.988 0.728 43.552 0.728 40.808C0.728 37.9147 1.58667 35.5347 3.304 33.668C5.04 31.8013 7.28 30.868 10.024 30.868C12.1707 30.868 14.0373 31.4187 15.624 32.52C17.2107 33.6027 18.004 34.816 18.004 36.16C18.004 36.72 17.8267 37.1773 17.472 37.532C17.1173 37.868 16.632 38.036 16.016 38.036C15.456 38.036 14.9613 37.8493 14.532 37.476C14.1027 37.1027 13.7293 36.6547 13.412 36.132C13.0947 35.5907 12.7587 35.0493 12.404 34.508C12.068 33.9667 11.62 33.5093 11.06 33.136C10.5 32.7627 9.856 32.576 9.128 32.576C7.952 32.576 6.944 33.108 6.104 34.172C5.264 35.2173 4.844 36.5893 4.844 38.288C4.844 40.9573 5.50667 43.16 6.832 44.896C8.176 46.632 9.73467 47.5 11.508 47.5C13.7107 47.5 15.4747 46.324 16.8 43.972C17.024 43.6547 17.3133 43.552 17.668 43.664C18.0227 43.7573 18.1813 44.0093 18.144 44.42C17.976 46.3427 17.2107 47.9667 15.848 49.292C14.4853 50.6173 12.6187 51.28 10.248 51.28ZM27.1845 51.28C24.9632 51.28 23.1245 50.5987 21.6685 49.236C20.2312 47.8547 19.5125 46.1747 19.5125 44.196C19.5125 42.1987 20.2218 40.5467 21.6405 39.24C23.0592 37.9333 24.7672 37.28 26.7645 37.28C28.9112 37.28 30.7032 37.9613 32.1405 39.324C33.5778 40.668 34.2965 42.3387 34.2965 44.336C34.2965 46.3333 33.6152 47.9947 32.2525 49.32C30.9085 50.6267 29.2192 51.28 27.1845 51.28ZM27.6885 50.048C28.4538 50.048 29.0418 49.6933 29.4525 48.984C29.8818 48.2747 30.0965 47.276 30.0965 45.988C30.0965 44.924 29.9378 43.832 29.6205 42.712C29.3218 41.5733 28.8645 40.5933 28.2485 39.772C27.6325 38.932 26.9512 38.512 26.2045 38.512C24.4872 38.512 23.6285 39.8747 23.6285 42.6C23.6285 43.608 23.7778 44.672 24.0765 45.792C24.3938 46.912 24.8698 47.9013 25.5045 48.76C26.1578 49.6187 26.8858 50.048 27.6885 50.048ZM59.1627 48.284C59.2 48.732 59.3774 49.152 59.6947 49.544C60.012 49.936 60.1707 50.2347 60.1707 50.44V50.552C60.1707 50.8693 59.9654 51.028 59.5547 51.028H54.7107C54.2814 51.028 54.0667 50.8693 54.0667 50.552V50.44C54.0667 50.2533 54.2347 49.964 54.5707 49.572C54.9254 49.18 55.084 48.76 55.0467 48.312L54.7667 43.188C54.692 41.6387 54.4587 40.5373 54.0667 39.884C53.6747 39.212 53.096 38.876 52.3307 38.876C51.6774 38.876 51.1454 39.1467 50.7347 39.688C50.324 40.2293 50.1 40.9293 50.0627 41.788C50.1374 42.1613 50.1747 42.6093 50.1747 43.132V48.312C50.1747 48.76 50.3334 49.18 50.6507 49.572C50.9867 49.964 51.1547 50.2533 51.1547 50.44V50.552C51.1547 50.8693 50.9494 51.028 50.5387 51.028H45.6947C45.2654 51.028 45.0507 50.8693 45.0507 50.552V50.44C45.0507 50.2533 45.2187 49.964 45.5547 49.572C45.8907 49.18 46.0587 48.76 46.0587 48.312V42.852C46.0587 41.5827 45.8347 40.6027 45.3867 39.912C44.9387 39.2213 44.3507 38.876 43.6227 38.876C42.876 38.876 42.288 39.1653 41.8587 39.744C41.4294 40.3227 41.2147 41.0693 41.2147 41.984V48.312C41.2147 48.76 41.4107 49.18 41.8027 49.572C42.2134 49.964 42.4187 50.2533 42.4187 50.44V50.552C42.4187 50.8693 42.204 51.028 41.7747 51.028H36.5667C36.1374 51.028 35.9227 50.8693 35.9227 50.552V50.44C35.9227 50.2533 36.1187 49.964 36.5107 49.572C36.9214 49.18 37.1267 48.76 37.1267 48.312V41.788C37.1267 41.4333 37.0147 41.1347 36.7907 40.892C36.5667 40.6493 36.3334 40.444 36.0907 40.276C35.8667 40.0893 35.7547 39.9027 35.7547 39.716V39.604C35.7547 39.3987 35.9507 39.2027 36.3427 39.016L39.8707 37.392C40.188 37.2427 40.4307 37.2333 40.5987 37.364C40.7667 37.476 40.8507 37.6813 40.8507 37.98V39.296C41.728 37.952 43.016 37.28 44.7147 37.28C46.8427 37.28 48.392 38.12 49.3627 39.8C49.736 39.016 50.296 38.4 51.0427 37.952C51.808 37.504 52.6667 37.28 53.6187 37.28C55.0374 37.28 56.2227 37.756 57.1747 38.708C58.1267 39.6413 58.6774 41.172 58.8267 43.3L59.1627 48.284ZM69.7491 37.28C71.5038 37.28 73.0344 37.8867 74.3411 39.1C75.6478 40.3133 76.3011 41.9653 76.3011 44.056C76.3011 46.1653 75.6571 47.9013 74.3691 49.264C73.0998 50.608 71.5691 51.28 69.7771 51.28C68.4704 51.28 67.3784 50.916 66.5011 50.188V54.36C66.5011 54.808 66.6971 55.228 67.0891 55.62C67.4811 56.012 67.6771 56.3013 67.6771 56.488V56.6C67.6771 56.9173 67.4624 57.076 67.0331 57.076H61.9651C61.5358 57.076 61.3211 56.9173 61.3211 56.6V56.488C61.3211 56.3013 61.4984 56.012 61.8531 55.62C62.2264 55.228 62.4131 54.808 62.4131 54.36V41.76C62.4131 41.3493 62.1984 40.976 61.7691 40.64C61.3398 40.2853 61.1251 40.0053 61.1251 39.8V39.66C61.1251 39.3987 61.3118 39.1747 61.6851 38.988L64.8211 37.448C65.5304 37.0933 65.8851 37.2613 65.8851 37.952L65.8571 39.128C66.6411 37.896 67.9384 37.28 69.7491 37.28ZM69.3571 50.076C70.2531 50.076 70.9438 49.7027 71.4291 48.956C71.9331 48.2093 72.1851 47.136 72.1851 45.736C72.1851 43.832 71.8771 42.152 71.2611 40.696C70.6451 39.2213 69.8144 38.484 68.7691 38.484C68.1904 38.484 67.6864 38.6987 67.2571 39.128C66.8278 39.5387 66.5758 40.08 66.5011 40.752V46.1C66.5011 47.1827 66.7904 48.116 67.3691 48.9C67.9478 49.684 68.6104 50.076 69.3571 50.076ZM90.606 48.2C90.662 48.6293 90.7647 48.9747 90.914 49.236C91.082 49.4973 91.25 49.6653 91.418 49.74C91.586 49.796 91.7354 49.8707 91.866 49.964C91.9967 50.0573 92.062 50.188 92.062 50.356C92.062 50.8973 91.166 51.168 89.374 51.168C88.5527 51.168 87.946 51.0653 87.554 50.86C87.1807 50.636 86.9567 50.2347 86.882 49.656C86.154 50.7387 84.9127 51.28 83.158 51.28C81.59 51.28 80.3207 50.916 79.35 50.188C78.3794 49.46 77.894 48.4147 77.894 47.052C77.8754 45.708 78.3514 44.6627 79.322 43.916C80.2927 43.1693 81.506 42.796 82.962 42.796C84.194 42.796 85.2114 43.076 86.014 43.636L85.986 43.3C85.7994 41.5267 85.538 40.276 85.202 39.548C84.866 38.82 84.2967 38.456 83.494 38.456C82.99 38.456 82.5794 38.6427 82.262 39.016C81.9447 39.3893 81.7207 39.8 81.59 40.248C81.4594 40.696 81.2447 41.1067 80.946 41.48C80.6474 41.8533 80.2647 42.04 79.798 42.04C79.294 42.04 78.8834 41.9 78.566 41.62C78.2674 41.3213 78.118 40.9387 78.118 40.472C78.118 39.5013 78.6314 38.7267 79.658 38.148C80.7034 37.5693 81.982 37.28 83.494 37.28C85.3047 37.28 86.7887 37.7933 87.946 38.82C89.1034 39.8467 89.7847 41.2467 89.99 43.02L90.606 48.2ZM84.39 50.048C85.006 50.048 85.5007 49.796 85.874 49.292C86.2474 48.7693 86.4154 48.1813 86.378 47.528L86.294 46.548C86.2194 45.7453 85.9767 45.1293 85.566 44.7C85.174 44.2707 84.6794 44.056 84.082 44.056C83.4847 44.056 82.99 44.2707 82.598 44.7C82.2247 45.1293 82.038 45.6987 82.038 46.408C82.038 47.416 82.2527 48.2747 82.682 48.984C83.13 49.6933 83.6994 50.048 84.39 50.048ZM107.494 48.284C107.531 48.732 107.708 49.152 108.026 49.544C108.343 49.936 108.502 50.2347 108.502 50.44V50.552C108.502 50.8693 108.287 51.028 107.858 51.028H103.014C102.584 51.028 102.37 50.8693 102.37 50.552V50.44C102.37 50.2533 102.538 49.964 102.874 49.572C103.228 49.18 103.396 48.7507 103.378 48.284L103.098 43.104C102.967 40.2853 102.155 38.876 100.662 38.876C99.9151 38.876 99.3271 39.156 98.8978 39.716C98.4871 40.276 98.2818 41.0227 98.2818 41.956V48.312C98.2818 48.76 98.4778 49.18 98.8698 49.572C99.2804 49.964 99.4857 50.2533 99.4857 50.44V50.552C99.4857 50.8693 99.2711 51.028 98.8418 51.028H93.6338C93.2044 51.028 92.9898 50.8693 92.9898 50.552V50.44C92.9898 50.2533 93.1858 49.964 93.5778 49.572C93.9884 49.18 94.1938 48.76 94.1938 48.312V41.788C94.1938 41.508 94.1191 41.256 93.9698 41.032C93.8391 40.808 93.6804 40.6493 93.4938 40.556C93.3258 40.444 93.1671 40.3133 93.0177 40.164C92.8871 40.0147 92.8218 39.8653 92.8218 39.716V39.604C92.8218 39.3987 93.0084 39.2027 93.3818 39.016L96.7138 37.392C97.0311 37.2427 97.2644 37.2333 97.4138 37.364C97.5818 37.476 97.6658 37.6813 97.6658 37.98V39.548C98.4684 38.036 99.8498 37.28 101.81 37.28C103.228 37.28 104.432 37.756 105.422 38.708C106.43 39.66 107.008 41.172 107.158 43.244L107.494 48.284ZM123.149 37.56C123.523 37.56 123.709 37.7093 123.709 38.008V38.148C123.709 38.3907 123.513 38.7173 123.121 39.128C122.748 39.5387 122.468 39.94 122.281 40.332L116.989 51.84C116.747 52.3813 116.541 52.82 116.373 53.156C116.205 53.492 115.944 53.9307 115.589 54.472C115.253 55.032 114.917 55.4707 114.581 55.788C114.245 56.1053 113.825 56.3853 113.321 56.628C112.817 56.8707 112.295 56.992 111.753 56.992C110.559 56.992 109.569 56.684 108.785 56.068C108.02 55.452 107.637 54.7613 107.637 53.996C107.637 53.492 107.787 53.0813 108.085 52.764C108.384 52.4653 108.795 52.316 109.317 52.316C109.84 52.316 110.251 52.484 110.549 52.82C110.848 53.1747 111.044 53.5667 111.137 53.996C111.231 54.4253 111.371 54.808 111.557 55.144C111.763 55.4987 112.024 55.676 112.341 55.676C113.2 55.676 114.161 54.3693 115.225 51.756L109.653 40.332C109.448 39.9213 109.14 39.52 108.729 39.128C108.337 38.7173 108.141 38.3907 108.141 38.148V38.008C108.141 37.7093 108.337 37.56 108.729 37.56H113.965C114.32 37.56 114.497 37.7187 114.497 38.036V38.148C114.497 38.316 114.413 38.512 114.245 38.736C114.077 38.9413 113.965 39.1373 113.909 39.324C113.853 39.5107 113.909 39.8653 114.077 40.388L117.353 47.976L120.377 40.78C120.564 40.1453 120.564 39.7067 120.377 39.464C120.191 39.2213 119.939 38.988 119.621 38.764C119.304 38.5213 119.145 38.316 119.145 38.148V38.036C119.145 37.7187 119.341 37.56 119.733 37.56H123.149Z" fill="#163A24"/>
</svg>
