<svg width="322" height="92" viewBox="0 0 322 92" fill="none" xmlns="http://www.w3.org/2000/svg">
<path d="M3.36 36.9375C2.624 36.9375 2.256 36.6655 2.256 36.1215V35.9295C2.256 35.6415 2.56 35.1615 3.168 34.4895C3.808 33.7855 4.128 33.0655 4.128 32.3295V7.4655C4.128 6.7615 3.808 6.0575 3.168 5.3535C2.56 4.6495 2.256 4.1375 2.256 3.8175V3.6255C2.256 3.1135 2.624 2.8575 3.36 2.8575H14.304C18.88 2.8575 22.56 3.7855 25.344 5.6415C28.16 7.4655 29.568 10.2815 29.568 14.0895C29.568 17.7055 28.32 20.5695 25.824 22.6815C23.328 24.7935 19.952 25.8495 15.696 25.8495H11.424V32.3295C11.424 33.0655 11.76 33.7855 12.432 34.4895C13.136 35.1615 13.488 35.6415 13.488 35.9295V36.1215C13.488 36.6655 13.12 36.9375 12.384 36.9375H3.36ZM13.488 23.0175H15.696C17.68 23.0175 19.232 22.3455 20.352 21.0015C21.472 19.6255 22.032 17.8975 22.032 15.8175C22.032 12.7135 21.248 10.2655 19.68 8.4735C18.144 6.6495 16.352 5.7375 14.304 5.7375H13.008C11.952 5.7375 11.424 6.4255 11.424 7.8015V20.8575C11.424 22.2975 12.112 23.0175 13.488 23.0175ZM55.3339 32.0415C55.3339 32.9055 55.4459 33.5615 55.6699 34.0095C55.9259 34.4255 56.1979 34.6655 56.4859 34.7295C56.7739 34.7615 57.0299 34.8575 57.2539 35.0175C57.5099 35.1775 57.6379 35.4495 57.6379 35.8335C57.6379 36.7615 56.2139 37.2255 53.3659 37.2255C51.9579 37.2255 50.9019 37.0015 50.1979 36.5535C49.5259 36.0735 49.1579 35.2575 49.0939 34.1055C47.7499 36.3135 45.4299 37.4175 42.1339 37.4175C39.5419 37.4175 37.3979 36.5535 35.7019 34.8255C34.0379 33.0655 33.2059 30.6015 33.2059 27.4335V19.3215C33.2059 18.5215 32.8859 17.7855 32.2459 17.1135C31.6379 16.4095 31.3339 15.9295 31.3339 15.6735V15.5295C31.3339 14.9535 31.6699 14.6175 32.3419 14.5215L38.3899 13.6095C39.7019 13.4495 40.3579 13.7375 40.3579 14.4735L40.2139 28.1535C40.2139 32.5055 41.5419 34.6815 44.1979 34.6815C45.3819 34.6815 46.3579 34.1695 47.1259 33.1455C47.9259 32.0895 48.3259 30.7295 48.3259 29.0655V19.3215C48.3259 18.5215 48.0059 17.7855 47.3659 17.1135C46.7259 16.4095 46.4059 15.9295 46.4059 15.6735V15.5295C46.4059 14.9535 46.7259 14.6175 47.3659 14.5215L53.5099 13.6095C54.7259 13.4815 55.3339 13.7695 55.3339 14.4735V32.0415ZM69.3491 37.4175C67.1091 37.4175 65.3331 36.7135 64.0211 35.3055C62.7411 33.8655 62.1011 31.8015 62.1011 29.1135V16.6815H59.8451C59.2051 16.6815 58.8851 16.3615 58.8851 15.7215V14.9055C58.8851 14.2335 59.2051 13.8975 59.8451 13.8975H61.0451C62.3571 13.8975 63.4611 13.4655 64.3571 12.6015C65.2851 11.7375 65.8771 10.5855 66.1331 9.1455C66.2931 8.3775 66.6611 7.9935 67.2371 7.9935H68.1971C68.9011 7.9935 69.2531 8.3775 69.2531 9.1455L69.3011 13.8975H74.8211C75.0771 13.8975 75.3011 13.9935 75.4931 14.1855C75.6851 14.3775 75.7811 14.6175 75.7811 14.9055V15.7215C75.7811 16.0095 75.6851 16.2495 75.4931 16.4415C75.3011 16.6015 75.0771 16.6815 74.8211 16.6815H69.3011V29.2095C69.3011 30.1375 69.5251 30.8895 69.9731 31.4655C70.4531 32.0095 71.0451 32.2815 71.7491 32.2815C73.4131 32.2815 74.5011 31.5615 75.0131 30.1215C75.3011 29.7055 75.6531 29.5455 76.0691 29.6415C76.5171 29.7055 76.7411 29.9615 76.7411 30.4095C76.7411 32.2655 76.0691 33.8975 74.7251 35.3055C73.4131 36.7135 71.6211 37.4175 69.3491 37.4175ZM97.5679 37.4175C95.3279 37.4175 93.5519 36.7135 92.2399 35.3055C90.9599 33.8655 90.3199 31.8015 90.3199 29.1135V16.6815H88.0639C87.4239 16.6815 87.1039 16.3615 87.1039 15.7215V14.9055C87.1039 14.2335 87.4239 13.8975 88.0639 13.8975H89.2639C90.5759 13.8975 91.6799 13.4655 92.5759 12.6015C93.5039 11.7375 94.0959 10.5855 94.3519 9.1455C94.5119 8.3775 94.8799 7.9935 95.4559 7.9935H96.4159C97.1199 7.9935 97.4719 8.3775 97.4719 9.1455L97.5199 13.8975H103.04C103.296 13.8975 103.52 13.9935 103.712 14.1855C103.904 14.3775 104 14.6175 104 14.9055V15.7215C104 16.0095 103.904 16.2495 103.712 16.4415C103.52 16.6015 103.296 16.6815 103.04 16.6815H97.5199V29.2095C97.5199 30.1375 97.7439 30.8895 98.1919 31.4655C98.6719 32.0095 99.2639 32.2815 99.9679 32.2815C101.632 32.2815 102.72 31.5615 103.232 30.1215C103.52 29.7055 103.872 29.5455 104.288 29.6415C104.736 29.7055 104.96 29.9615 104.96 30.4095C104.96 32.2655 104.288 33.8975 102.944 35.3055C101.632 36.7135 99.8399 37.4175 97.5679 37.4175ZM131.249 32.2335C131.313 33.0015 131.617 33.7215 132.161 34.3935C132.705 35.0655 132.977 35.5775 132.977 35.9295V36.1215C132.977 36.6655 132.625 36.9375 131.921 36.9375H123.569C122.865 36.9375 122.513 36.6655 122.513 36.1215V35.9295C122.513 35.6095 122.801 35.1135 123.377 34.4415C123.985 33.7695 124.273 33.0495 124.241 32.2815L123.761 23.0655C123.537 18.4575 122.145 16.1535 119.585 16.1535C118.305 16.1535 117.297 16.6335 116.561 17.5935C115.857 18.5535 115.505 19.8335 115.505 21.4335V32.3295C115.505 33.0655 115.841 33.7695 116.513 34.4415C117.217 35.1135 117.569 35.6095 117.569 35.9295V36.1215C117.569 36.6655 117.185 36.9375 116.417 36.9375H107.537C106.801 36.9375 106.433 36.6655 106.433 36.1215V35.9295C106.433 35.6095 106.769 35.1135 107.441 34.4415C108.113 33.7695 108.449 33.0655 108.449 32.3295V8.4255C108.449 7.6575 108.081 6.9695 107.345 6.3615C106.641 5.7535 106.289 5.2895 106.289 4.9695V4.8255C106.289 4.3455 106.609 3.9455 107.249 3.6255L113.585 0.841498C114.129 0.617497 114.545 0.585498 114.833 0.7455C115.153 0.905499 115.313 1.2255 115.313 1.7055L115.265 16.1055C116.769 14.3135 118.865 13.4175 121.553 13.4175C123.985 13.4175 126.049 14.2175 127.745 15.8175C129.441 17.3855 130.401 19.8655 130.625 23.2575L131.249 32.2335ZM154.757 29.6415C155.045 29.2575 155.397 29.1295 155.813 29.2575C156.229 29.3855 156.421 29.6895 156.389 30.1695C156.229 31.8335 155.269 33.4655 153.509 35.0655C151.749 36.6335 149.461 37.4175 146.645 37.4175C143.253 37.4175 140.469 36.2975 138.293 34.0575C136.117 31.8175 135.029 28.8735 135.029 25.2255C135.029 21.8015 136.165 18.9855 138.437 16.7775C140.709 14.5375 143.445 13.4175 146.645 13.4175C149.557 13.4175 151.797 14.1055 153.365 15.4815C154.933 16.8575 155.717 18.4415 155.717 20.2335C155.717 21.7055 155.013 22.7615 153.605 23.4015L142.949 28.2495C144.261 31.0335 146.373 32.4255 149.285 32.4255C150.501 32.4255 151.589 32.1695 152.549 31.6575C153.541 31.1135 154.277 30.4415 154.757 29.6415ZM145.781 15.5295C144.533 15.5295 143.541 16.1375 142.805 17.3535C142.069 18.5375 141.701 20.0575 141.701 21.9135C141.701 23.4815 141.861 24.8575 142.181 26.0415L148.373 22.9215C149.205 22.5055 149.621 21.7535 149.621 20.6655C149.621 19.5775 149.269 18.4575 148.565 17.3055C147.861 16.1215 146.933 15.5295 145.781 15.5295ZM193.171 32.2335C193.235 33.0015 193.539 33.7215 194.083 34.3935C194.627 35.0655 194.899 35.5775 194.899 35.9295V36.1215C194.899 36.6655 194.547 36.9375 193.843 36.9375H185.491C184.787 36.9375 184.435 36.6655 184.435 36.1215V35.9295C184.435 35.6095 184.723 35.1135 185.299 34.4415C185.907 33.7695 186.195 33.0495 186.163 32.2815L185.683 23.0655C185.459 18.4575 184.067 16.1535 181.507 16.1535C180.227 16.1535 179.219 16.6335 178.483 17.5935C177.779 18.5535 177.427 19.8335 177.427 21.4335V32.3295C177.427 33.0655 177.763 33.7695 178.435 34.4415C179.139 35.1135 179.491 35.6095 179.491 35.9295V36.1215C179.491 36.6655 179.107 36.9375 178.339 36.9375H169.459C168.723 36.9375 168.355 36.6655 168.355 36.1215V35.9295C168.355 35.6095 168.691 35.1135 169.363 34.4415C170.035 33.7695 170.371 33.0655 170.371 32.3295V8.4255C170.371 7.6575 170.003 6.9695 169.267 6.3615C168.563 5.7535 168.211 5.2895 168.211 4.9695V4.8255C168.211 4.3455 168.531 3.9455 169.171 3.6255L175.507 0.841498C176.051 0.617497 176.467 0.585498 176.755 0.7455C177.075 0.905499 177.235 1.2255 177.235 1.7055L177.187 16.1055C178.691 14.3135 180.787 13.4175 183.475 13.4175C185.907 13.4175 187.971 14.2175 189.667 15.8175C191.363 17.3855 192.323 19.8655 192.547 23.2575L193.171 32.2335ZM220.615 32.0415C220.615 32.9055 220.727 33.5615 220.951 34.0095C221.207 34.4255 221.479 34.6655 221.767 34.7295C222.055 34.7615 222.311 34.8575 222.535 35.0175C222.791 35.1775 222.919 35.4495 222.919 35.8335C222.919 36.7615 221.495 37.2255 218.647 37.2255C217.239 37.2255 216.183 37.0015 215.479 36.5535C214.807 36.0735 214.439 35.2575 214.375 34.1055C213.031 36.3135 210.711 37.4175 207.415 37.4175C204.823 37.4175 202.679 36.5535 200.983 34.8255C199.319 33.0655 198.487 30.6015 198.487 27.4335V19.3215C198.487 18.5215 198.167 17.7855 197.527 17.1135C196.919 16.4095 196.615 15.9295 196.615 15.6735V15.5295C196.615 14.9535 196.951 14.6175 197.623 14.5215L203.671 13.6095C204.983 13.4495 205.639 13.7375 205.639 14.4735L205.495 28.1535C205.495 32.5055 206.823 34.6815 209.479 34.6815C210.663 34.6815 211.639 34.1695 212.407 33.1455C213.207 32.0895 213.607 30.7295 213.607 29.0655V19.3215C213.607 18.5215 213.287 17.7855 212.647 17.1135C212.007 16.4095 211.687 15.9295 211.687 15.6735V15.5295C211.687 14.9535 212.007 14.6175 212.647 14.5215L218.791 13.6095C220.007 13.4815 220.615 13.7695 220.615 14.4735V32.0415ZM265.109 32.2815C265.173 33.0495 265.477 33.7695 266.021 34.4415C266.565 35.1135 266.837 35.6255 266.837 35.9775V36.1695C266.837 36.7135 266.485 36.9855 265.781 36.9855H257.477C256.741 36.9855 256.373 36.7135 256.373 36.1695V35.9775C256.373 35.6575 256.661 35.1615 257.237 34.4895C257.845 33.8175 258.117 33.0975 258.053 32.3295L257.573 23.5455C257.445 20.8895 257.045 19.0015 256.373 17.8815C255.701 16.7295 254.709 16.1535 253.397 16.1535C252.277 16.1535 251.365 16.6175 250.661 17.5455C249.957 18.4735 249.573 19.6735 249.509 21.1455C249.637 21.7855 249.701 22.5535 249.701 23.4495V32.3295C249.701 33.0975 249.973 33.8175 250.517 34.4895C251.093 35.1615 251.381 35.6575 251.381 35.9775V36.1695C251.381 36.7135 251.029 36.9855 250.325 36.9855H242.021C241.285 36.9855 240.917 36.7135 240.917 36.1695V35.9775C240.917 35.6575 241.205 35.1615 241.781 34.4895C242.357 33.8175 242.645 33.0975 242.645 32.3295V22.9695C242.645 20.7935 242.261 19.1135 241.493 17.9295C240.725 16.7455 239.717 16.1535 238.469 16.1535C237.189 16.1535 236.181 16.6495 235.445 17.6415C234.709 18.6335 234.341 19.9135 234.341 21.4815V32.3295C234.341 33.0975 234.677 33.8175 235.349 34.4895C236.053 35.1615 236.405 35.6575 236.405 35.9775V36.1695C236.405 36.7135 236.037 36.9855 235.301 36.9855H226.373C225.637 36.9855 225.269 36.7135 225.269 36.1695V35.9775C225.269 35.6575 225.605 35.1615 226.277 34.4895C226.981 33.8175 227.333 33.0975 227.333 32.3295V21.1455C227.333 20.5375 227.141 20.0255 226.757 19.6095C226.373 19.1935 225.973 18.8415 225.557 18.5535C225.173 18.2335 224.981 17.9135 224.981 17.5935V17.4015C224.981 17.0495 225.317 16.7135 225.989 16.3935L232.037 13.6095C232.581 13.3535 232.997 13.3375 233.285 13.5615C233.573 13.7535 233.717 14.1055 233.717 14.6175V16.8735C235.221 14.5695 237.429 13.4175 240.341 13.4175C243.989 13.4175 246.645 14.8575 248.309 17.7375C248.949 16.3935 249.909 15.3375 251.189 14.5695C252.501 13.8015 253.973 13.4175 255.605 13.4175C258.037 13.4175 260.069 14.2335 261.701 15.8655C263.333 17.4655 264.277 20.0895 264.533 23.7375L265.109 32.2815ZM290.793 32.1375C290.889 32.8735 291.065 33.4655 291.321 33.9135C291.609 34.3615 291.897 34.6495 292.185 34.7775C292.473 34.8735 292.729 35.0015 292.953 35.1615C293.177 35.3215 293.289 35.5455 293.289 35.8335C293.289 36.7615 291.753 37.2255 288.681 37.2255C287.273 37.2255 286.233 37.0495 285.561 36.6975C284.921 36.3135 284.537 35.6255 284.409 34.6335C283.161 36.4895 281.033 37.4175 278.025 37.4175C275.337 37.4175 273.161 36.7935 271.497 35.5455C269.833 34.2975 269.001 32.5055 269.001 30.1695C268.969 27.8655 269.785 26.0735 271.449 24.7935C273.113 23.5135 275.193 22.8735 277.689 22.8735C279.801 22.8735 281.545 23.3535 282.921 24.3135L282.873 23.7375C282.553 20.6975 282.105 18.5535 281.529 17.3055C280.953 16.0575 279.977 15.4335 278.601 15.4335C277.737 15.4335 277.033 15.7535 276.489 16.3935C275.945 17.0335 275.561 17.7375 275.337 18.5055C275.113 19.2735 274.745 19.9775 274.233 20.6175C273.721 21.2575 273.065 21.5775 272.265 21.5775C271.401 21.5775 270.697 21.3375 270.153 20.8575C269.641 20.3455 269.385 19.6895 269.385 18.8895C269.385 17.2255 270.265 15.8975 272.025 14.9055C273.817 13.9135 276.009 13.4175 278.601 13.4175C281.705 13.4175 284.249 14.2975 286.233 16.0575C288.217 17.8175 289.385 20.2175 289.737 23.2575L290.793 32.1375ZM280.137 35.3055C281.193 35.3055 282.041 34.8735 282.681 34.0095C283.321 33.1135 283.609 32.1055 283.545 30.9855L283.401 29.3055C283.273 27.9295 282.857 26.8735 282.153 26.1375C281.481 25.4015 280.633 25.0335 279.609 25.0335C278.585 25.0335 277.737 25.4015 277.065 26.1375C276.425 26.8735 276.105 27.8495 276.105 29.0655C276.105 30.7935 276.473 32.2655 277.209 33.4815C277.977 34.6975 278.953 35.3055 280.137 35.3055ZM319.744 32.2815C319.808 33.0495 320.112 33.7695 320.656 34.4415C321.2 35.1135 321.472 35.6255 321.472 35.9775V36.1695C321.472 36.7135 321.104 36.9855 320.368 36.9855H312.064C311.328 36.9855 310.96 36.7135 310.96 36.1695V35.9775C310.96 35.6575 311.248 35.1615 311.824 34.4895C312.432 33.8175 312.72 33.0815 312.688 32.2815L312.208 23.4015C311.984 18.5695 310.592 16.1535 308.032 16.1535C306.752 16.1535 305.744 16.6335 305.008 17.5935C304.304 18.5535 303.952 19.8335 303.952 21.4335V32.3295C303.952 33.0975 304.288 33.8175 304.96 34.4895C305.664 35.1615 306.016 35.6575 306.016 35.9775V36.1695C306.016 36.7135 305.648 36.9855 304.912 36.9855H295.984C295.248 36.9855 294.88 36.7135 294.88 36.1695V35.9775C294.88 35.6575 295.216 35.1615 295.888 34.4895C296.592 33.8175 296.944 33.0975 296.944 32.3295V21.1455C296.944 20.6655 296.816 20.2335 296.56 19.8495C296.336 19.4655 296.064 19.1935 295.744 19.0335C295.456 18.8415 295.184 18.6175 294.928 18.3615C294.704 18.1055 294.592 17.8495 294.592 17.5935V17.4015C294.592 17.0495 294.912 16.7135 295.552 16.3935L301.264 13.6095C301.808 13.3535 302.208 13.3375 302.464 13.5615C302.752 13.7535 302.896 14.1055 302.896 14.6175V17.3055C304.272 14.7135 306.64 13.4175 310 13.4175C312.432 13.4175 314.496 14.2335 316.192 15.8655C317.92 17.4975 318.912 20.0895 319.168 23.6415L319.744 32.2815ZM15.792 67.4175C18.8 67.4175 21.408 68.4575 23.616 70.5375C25.856 72.6175 26.976 75.4495 26.976 79.0335C26.976 82.6495 25.872 85.6255 23.664 87.9615C21.488 90.2655 18.864 91.4175 15.792 91.4175C13.2 91.4175 11.104 90.5695 9.504 88.8735V89.9295C9.504 90.6335 9.136 90.9855 8.4 90.9855L2.208 90.9375C1.536 90.9375 1.2 90.6655 1.2 90.1215V89.9775C1.2 89.6575 1.504 89.1615 2.112 88.4895C2.752 87.7855 3.072 87.0495 3.072 86.2815V62.7615C3.072 61.9615 2.704 61.2415 1.968 60.6015C1.232 59.9295 0.864 59.4335 0.864 59.1135V58.9695C0.864 58.5215 1.232 58.1375 1.968 57.8175L8.16 54.9375C8.704 54.6495 9.168 54.6015 9.552 54.7935C9.968 54.9535 10.176 55.3215 10.176 55.8975V69.3375C11.552 68.0575 13.424 67.4175 15.792 67.4175ZM15.072 89.3535C16.64 89.3535 17.84 88.7135 18.672 87.4335C19.536 86.1535 19.968 84.3135 19.968 81.9135C19.968 79.8335 19.744 77.8655 19.296 76.0095C18.88 74.1535 18.208 72.6015 17.28 71.3535C16.352 70.1055 15.28 69.4815 14.064 69.4815C12.944 69.4815 12.016 69.9295 11.28 70.8255C10.544 71.7215 10.176 72.8895 10.176 74.3295V83.0175C10.176 84.6495 10.672 86.1215 11.664 87.4335C12.688 88.7135 13.824 89.3535 15.072 89.3535ZM51.4028 86.1375C51.4988 86.8735 51.6748 87.4655 51.9308 87.9135C52.2188 88.3615 52.5068 88.6495 52.7948 88.7775C53.0828 88.8735 53.3388 89.0015 53.5627 89.1615C53.7868 89.3215 53.8988 89.5455 53.8988 89.8335C53.8988 90.7615 52.3628 91.2255 49.2908 91.2255C47.8828 91.2255 46.8428 91.0495 46.1708 90.6975C45.5308 90.3135 45.1468 89.6255 45.0188 88.6335C43.7708 90.4895 41.6428 91.4175 38.6348 91.4175C35.9468 91.4175 33.7708 90.7935 32.1068 89.5455C30.4428 88.2975 29.6108 86.5055 29.6108 84.1695C29.5788 81.8655 30.3948 80.0735 32.0588 78.7935C33.7228 77.5135 35.8028 76.8735 38.2988 76.8735C40.4108 76.8735 42.1548 77.3535 43.5308 78.3135L43.4828 77.7375C43.1628 74.6975 42.7148 72.5535 42.1388 71.3055C41.5628 70.0575 40.5868 69.4335 39.2108 69.4335C38.3468 69.4335 37.6428 69.7535 37.0988 70.3935C36.5548 71.0335 36.1708 71.7375 35.9468 72.5055C35.7228 73.2735 35.3548 73.9775 34.8428 74.6175C34.3308 75.2575 33.6748 75.5775 32.8748 75.5775C32.0108 75.5775 31.3068 75.3375 30.7628 74.8575C30.2508 74.3455 29.9948 73.6895 29.9948 72.8895C29.9948 71.2255 30.8748 69.8975 32.6348 68.9055C34.4268 67.9135 36.6188 67.4175 39.2108 67.4175C42.3148 67.4175 44.8588 68.2975 46.8428 70.0575C48.8268 71.8175 49.9948 74.2175 50.3468 77.2575L51.4028 86.1375ZM40.7468 89.3055C41.8028 89.3055 42.6508 88.8735 43.2908 88.0095C43.9308 87.1135 44.2188 86.1055 44.1548 84.9855L44.0108 83.3055C43.8828 81.9295 43.4668 80.8735 42.7628 80.1375C42.0908 79.4015 41.2428 79.0335 40.2188 79.0335C39.1948 79.0335 38.3468 79.4015 37.6748 80.1375C37.0348 80.8735 36.7148 81.8495 36.7148 83.0655C36.7148 84.7935 37.0828 86.2655 37.8188 87.4815C38.5868 88.6975 39.5628 89.3055 40.7468 89.3055ZM66.9701 91.4175C63.4181 91.4175 60.4581 90.2335 58.0901 87.8655C55.7541 85.4975 54.5861 82.6655 54.5861 79.3695C54.5861 75.7855 55.7541 72.9055 58.0901 70.7295C60.4581 68.5535 63.3221 67.4495 66.6821 67.4175C69.4341 67.3855 71.7701 68.0255 73.6901 69.3375C75.6421 70.6495 76.6181 72.2495 76.6181 74.1375C76.6181 74.8415 76.3781 75.4335 75.8981 75.9135C75.4181 76.3615 74.6661 76.5695 73.6421 76.5375C72.8741 76.5055 72.2021 76.2335 71.6261 75.7215C71.0501 75.2095 70.5701 74.6175 70.1861 73.9455C69.8341 73.2735 69.4661 72.6015 69.0821 71.9295C68.6981 71.2575 68.2181 70.6975 67.6421 70.2495C67.0661 69.7695 66.3941 69.5295 65.6261 69.5295C64.2821 69.5295 63.1941 70.1375 62.3621 71.3535C61.5621 72.5695 61.1621 74.0895 61.1621 75.9135C61.1621 79.1135 61.8981 81.6735 63.3701 83.5935C64.8741 85.5135 66.8581 86.4735 69.3221 86.4735C71.8501 86.4735 73.7701 85.3535 75.0821 83.1135C75.2741 82.8575 75.4981 82.7135 75.7541 82.6815C76.0421 82.6175 76.2821 82.6815 76.4741 82.8735C76.6981 83.0335 76.7941 83.2735 76.7621 83.5935C76.6021 85.7375 75.6581 87.5775 73.9301 89.1135C72.2341 90.6495 69.9141 91.4175 66.9701 91.4175ZM103.347 87.3375C103.539 87.5935 104.019 87.9935 104.787 88.5375C105.555 89.0495 105.939 89.5295 105.939 89.9775V90.1215C105.939 90.6655 105.619 90.9375 104.979 90.9375H96.0514C95.4114 90.9375 95.0914 90.6495 95.0914 90.0735V89.9775C95.0914 89.6575 95.3154 89.2415 95.7634 88.7295C96.2434 88.2175 96.3394 87.7535 96.0514 87.3375L90.8674 80.0415L88.0354 82.6815V86.3295C88.0354 87.0655 88.3714 87.7695 89.0434 88.4415C89.7474 89.1135 90.0994 89.6095 90.0994 89.9295V90.1215C90.0994 90.6655 89.7314 90.9375 88.9954 90.9375H80.1634C79.4594 90.9375 79.1074 90.6655 79.1074 90.1215V89.9295C79.1074 89.6095 79.4114 89.1135 80.0194 88.4415C80.6274 87.7695 80.9314 87.0655 80.9314 86.3295V62.7135C80.9314 61.8815 80.5634 61.1295 79.8274 60.4575C79.1234 59.7855 78.7714 59.3215 78.7714 59.0655V58.8735C78.7714 58.4895 79.0914 58.1695 79.7314 57.9135L86.1154 54.9375C86.6914 54.6815 87.1554 54.6495 87.5074 54.8415C87.8594 55.0335 88.0354 55.3535 88.0354 55.8015V79.0335L95.6194 72.4575C95.9714 72.2015 96.0994 71.8975 96.0034 71.5455C95.9394 71.1935 95.7954 70.9055 95.5714 70.6815C95.3474 70.4255 95.1074 70.1375 94.8514 69.8175C94.5954 69.4655 94.4674 69.1615 94.4674 68.9055V68.7135C94.4674 68.1695 94.7874 67.8975 95.4274 67.8975H102.291C102.931 67.8975 103.251 68.1535 103.251 68.6655V68.8575C103.251 69.2095 103.043 69.5615 102.627 69.9135C102.243 70.2335 101.667 70.6335 100.899 71.1135C100.163 71.5935 99.5714 72.0255 99.1234 72.4095L95.2354 76.0095L103.347 87.3375ZM124.602 63.3375C123.77 64.1055 122.65 64.4895 121.242 64.4895C119.834 64.4895 118.682 64.1055 117.786 63.3375C116.922 62.5375 116.49 61.5135 116.49 60.2655C116.49 59.0495 116.922 58.0575 117.786 57.2895C118.682 56.4895 119.834 56.0895 121.242 56.0895C122.65 56.0895 123.77 56.4895 124.602 57.2895C125.466 58.0575 125.898 59.0495 125.898 60.2655C125.898 61.5135 125.466 62.5375 124.602 63.3375ZM116.874 90.9375C116.17 90.9375 115.818 90.6655 115.818 90.1215V89.9295C115.818 89.6095 116.122 89.1135 116.73 88.4415C117.338 87.7695 117.642 87.0495 117.642 86.2815V75.4335C117.642 74.6335 117.338 73.8815 116.73 73.1775C116.122 72.4735 115.818 71.9935 115.818 71.7375V71.5935C115.818 71.2735 116.154 70.9375 116.826 70.5855L122.826 67.6095C123.434 67.3535 123.914 67.3375 124.266 67.5615C124.618 67.7535 124.794 68.0895 124.794 68.5695V86.2815C124.794 87.0495 125.13 87.7695 125.802 88.4415C126.474 89.1135 126.81 89.6095 126.81 89.9295V90.1215C126.81 90.6655 126.442 90.9375 125.706 90.9375H116.874ZM154.463 86.2815C154.527 87.0495 154.831 87.7695 155.375 88.4415C155.919 89.1135 156.191 89.6255 156.191 89.9775V90.1695C156.191 90.7135 155.823 90.9855 155.087 90.9855H146.783C146.047 90.9855 145.679 90.7135 145.679 90.1695V89.9775C145.679 89.6575 145.967 89.1615 146.543 88.4895C147.151 87.8175 147.439 87.0815 147.407 86.2815L146.927 77.4015C146.703 72.5695 145.311 70.1535 142.751 70.1535C141.471 70.1535 140.463 70.6335 139.727 71.5935C139.023 72.5535 138.671 73.8335 138.671 75.4335V86.3295C138.671 87.0975 139.007 87.8175 139.679 88.4895C140.383 89.1615 140.734 89.6575 140.734 89.9775V90.1695C140.734 90.7135 140.367 90.9855 139.631 90.9855H130.703C129.967 90.9855 129.599 90.7135 129.599 90.1695V89.9775C129.599 89.6575 129.935 89.1615 130.607 88.4895C131.311 87.8175 131.663 87.0975 131.663 86.3295V75.1455C131.663 74.6655 131.535 74.2335 131.279 73.8495C131.055 73.4655 130.783 73.1935 130.463 73.0335C130.175 72.8415 129.903 72.6175 129.646 72.3615C129.423 72.1055 129.311 71.8495 129.311 71.5935V71.4015C129.311 71.0495 129.631 70.7135 130.271 70.3935L135.983 67.6095C136.527 67.3535 136.927 67.3375 137.183 67.5615C137.471 67.7535 137.615 68.1055 137.615 68.6175V71.3055C138.991 68.7135 141.359 67.4175 144.719 67.4175C147.151 67.4175 149.215 68.2335 150.911 69.8655C152.639 71.4975 153.631 74.0895 153.887 77.6415L154.463 86.2815ZM170.141 90.9375C169.437 90.9375 169.085 90.6655 169.085 90.1215V89.9775C169.085 89.6575 169.389 89.1615 169.997 88.4895C170.605 87.7855 170.909 87.0655 170.909 86.3295V61.4655C170.909 60.7295 170.605 60.0255 169.997 59.3535C169.389 58.6495 169.085 58.1375 169.085 57.8175V57.6255C169.085 57.1135 169.437 56.8575 170.141 56.8575H179.117C179.853 56.8575 180.221 57.1135 180.221 57.6255V57.8175C180.221 58.1375 179.885 58.6495 179.213 59.3535C178.541 60.0255 178.205 60.7295 178.205 61.4655V72.1215H192.893V61.4655C192.893 60.7295 192.589 60.0255 191.981 59.3535C191.373 58.6495 191.069 58.1375 191.069 57.8175V57.6255C191.069 57.1135 191.421 56.8575 192.125 56.8575H201.101C201.837 56.8575 202.205 57.1135 202.205 57.6255V57.8175C202.205 58.1375 201.853 58.6495 201.149 59.3535C200.477 60.0255 200.141 60.7295 200.141 61.4655V86.3295C200.141 87.0655 200.477 87.7855 201.149 88.4895C201.853 89.1615 202.205 89.6575 202.205 89.9775V90.1215C202.205 90.6655 201.837 90.9375 201.101 90.9375H192.125C191.421 90.9375 191.069 90.6655 191.069 90.1215V89.9775C191.069 89.6575 191.373 89.1615 191.981 88.4895C192.589 87.7855 192.893 87.0655 192.893 86.3295V75.2895H178.205L178.157 86.3295C178.157 87.0655 178.493 87.7855 179.165 88.4895C179.869 89.1615 180.221 89.6575 180.221 89.9775V90.1215C180.221 90.6655 179.853 90.9375 179.117 90.9375H170.141ZM233.941 86.3295C234.357 86.9695 234.853 87.5295 235.429 88.0095C236.037 88.4575 236.517 88.8255 236.869 89.1135C237.221 89.3695 237.397 89.6575 237.397 89.9775V90.1215C237.397 90.6655 237.029 90.9375 236.293 90.9375H226.261C225.557 90.9375 225.205 90.6655 225.205 90.1215V89.9775C225.205 89.6895 225.381 89.3695 225.733 89.0175C226.117 88.6335 226.373 88.2975 226.501 88.0095C226.661 87.6895 226.581 87.1295 226.261 86.3295L221.221 77.9775L215.941 78.0735V86.3295C215.941 87.0655 216.277 87.7855 216.949 88.4895C217.653 89.1615 218.005 89.6575 218.005 89.9775V90.1215C218.005 90.6655 217.621 90.9375 216.853 90.9375H207.829C207.125 90.9375 206.773 90.6655 206.773 90.1215V89.9775C206.773 89.6575 207.077 89.1615 207.685 88.4895C208.293 87.7855 208.597 87.0655 208.597 86.3295V61.4655C208.597 60.7295 208.293 60.0255 207.685 59.3535C207.077 58.6495 206.773 58.1375 206.773 57.8175V57.6255C206.773 57.1135 207.125 56.8575 207.829 56.8575H219.685C224.133 56.8575 227.653 57.7695 230.245 59.5935C232.869 61.4175 234.197 64.0895 234.229 67.6095C234.229 69.5615 233.653 71.3695 232.501 73.0335C231.381 74.6655 229.765 75.9295 227.653 76.8255L233.941 86.3295ZM218.629 75.1455H220.693C222.517 75.1455 223.973 74.5855 225.061 73.4655C226.181 72.3135 226.741 70.6335 226.741 68.4255C226.741 65.8015 225.973 63.7055 224.437 62.1375C222.933 60.5695 221.189 59.7855 219.205 59.7855H217.573C216.485 59.7855 215.941 60.5055 215.941 61.9455V71.9295C215.941 73.0815 216.149 73.9135 216.565 74.4255C217.013 74.9055 217.701 75.1455 218.629 75.1455ZM243.425 91.4175C242.145 91.4175 241.089 91.0815 240.257 90.4095C239.425 89.7055 239.009 88.7135 239.009 87.4335C239.009 86.1535 239.425 85.1775 240.257 84.5055C241.089 83.8015 242.145 83.4495 243.425 83.4495C244.673 83.4495 245.713 83.8015 246.545 84.5055C247.377 85.1775 247.793 86.1535 247.793 87.4335C247.793 88.7135 247.377 89.7055 246.545 90.4095C245.713 91.0815 244.673 91.4175 243.425 91.4175Z" fill="#163A24"/>
</svg>
