<svg width="457" height="73" viewBox="0 0 457 73" fill="none" xmlns="http://www.w3.org/2000/svg">
<path d="M5.292 1.148C6.888 1.148 8.064 1.454 8.82 2.066C9.588 2.666 9.972 3.578 9.972 4.802C9.972 5.486 9.846 6.056 9.594 6.512C9.342 6.968 9.018 7.334 8.622 7.61C8.238 7.874 7.83 8.084 7.398 8.24L10.926 14H9.036L5.922 8.69H3.366V14H1.746V1.148H5.292ZM5.202 2.552H3.366V7.322H5.292C6.336 7.322 7.098 7.118 7.578 6.71C8.058 6.29 8.298 5.678 8.298 4.874C8.298 4.034 8.046 3.44 7.542 3.092C7.038 2.732 6.258 2.552 5.202 2.552ZM16.4533 4.172C17.2813 4.172 17.9893 4.352 18.5773 4.712C19.1773 5.072 19.6333 5.582 19.9453 6.242C20.2693 6.89 20.4313 7.652 20.4313 8.528V9.482H13.8253C13.8493 10.574 14.1253 11.408 14.6533 11.984C15.1933 12.548 15.9433 12.83 16.9033 12.83C17.5153 12.83 18.0553 12.776 18.5233 12.668C19.0033 12.548 19.4953 12.38 19.9993 12.164V13.55C19.5073 13.766 19.0213 13.922 18.5413 14.018C18.0613 14.126 17.4913 14.18 16.8313 14.18C15.9193 14.18 15.1093 13.994 14.4013 13.622C13.7053 13.25 13.1593 12.698 12.7633 11.966C12.3793 11.222 12.1873 10.316 12.1873 9.248C12.1873 8.192 12.3613 7.286 12.7093 6.53C13.0693 5.774 13.5673 5.192 14.2033 4.784C14.8513 4.376 15.6013 4.172 16.4533 4.172ZM16.4353 5.468C15.6793 5.468 15.0793 5.714 14.6353 6.206C14.2033 6.686 13.9453 7.358 13.8613 8.222H18.7753C18.7633 7.406 18.5713 6.746 18.1993 6.242C17.8273 5.726 17.2393 5.468 16.4353 5.468ZM26.5414 4.19C27.7174 4.19 28.5874 4.448 29.1514 4.964C29.7154 5.48 29.9974 6.302 29.9974 7.43V14H28.8454L28.5394 12.632H28.4674C28.0474 13.16 27.6034 13.55 27.1354 13.802C26.6794 14.054 26.0434 14.18 25.2274 14.18C24.3514 14.18 23.6254 13.952 23.0494 13.496C22.4734 13.028 22.1854 12.302 22.1854 11.318C22.1854 10.358 22.5634 9.62 23.3194 9.104C24.0754 8.576 25.2394 8.288 26.8114 8.24L28.4494 8.186V7.61C28.4494 6.806 28.2754 6.248 27.9274 5.936C27.5794 5.624 27.0874 5.468 26.4514 5.468C25.9474 5.468 25.4674 5.546 25.0114 5.702C24.5554 5.846 24.1294 6.014 23.7334 6.206L23.2474 5.018C23.6674 4.79 24.1654 4.598 24.7414 4.442C25.3174 4.274 25.9174 4.19 26.5414 4.19ZM27.0094 9.338C25.8094 9.386 24.9754 9.578 24.5074 9.914C24.0514 10.25 23.8234 10.724 23.8234 11.336C23.8234 11.876 23.9854 12.272 24.3094 12.524C24.6454 12.776 25.0714 12.902 25.5874 12.902C26.4034 12.902 27.0814 12.68 27.6214 12.236C28.1614 11.78 28.4314 11.084 28.4314 10.148V9.284L27.0094 9.338ZM36.3973 14.18C35.1973 14.18 34.2373 13.766 33.5173 12.938C32.7973 12.098 32.4373 10.85 32.4373 9.194C32.4373 7.538 32.7973 6.29 33.5173 5.45C34.2493 4.598 35.2153 4.172 36.4153 4.172C37.1593 4.172 37.7653 4.31 38.2333 4.586C38.7133 4.862 39.1033 5.198 39.4033 5.594H39.5113C39.4993 5.438 39.4753 5.21 39.4393 4.91C39.4153 4.598 39.4033 4.352 39.4033 4.172V0.319999H40.9873V14H39.7093L39.4753 12.704H39.4033C39.1153 13.112 38.7313 13.46 38.2513 13.748C37.7713 14.036 37.1533 14.18 36.3973 14.18ZM36.6493 12.866C37.6693 12.866 38.3833 12.59 38.7913 12.038C39.2113 11.474 39.4213 10.628 39.4213 9.5V9.212C39.4213 8.012 39.2233 7.094 38.8273 6.458C38.4313 5.81 37.6993 5.486 36.6313 5.486C35.7793 5.486 35.1373 5.828 34.7053 6.512C34.2853 7.184 34.0753 8.09 34.0753 9.23C34.0753 10.382 34.2853 11.276 34.7053 11.912C35.1373 12.548 35.7853 12.866 36.6493 12.866ZM42.5395 4.352H44.2315L46.3195 9.842C46.4995 10.322 46.6615 10.784 46.8055 11.228C46.9495 11.66 47.0575 12.074 47.1295 12.47H47.2015C47.2735 12.17 47.3875 11.78 47.5435 11.3C47.6995 10.808 47.8615 10.316 48.0295 9.824L49.9915 4.352H51.7015L47.5435 15.332C47.2075 16.244 46.7695 16.97 46.2295 17.51C45.7015 18.05 44.9695 18.32 44.0335 18.32C43.7455 18.32 43.4935 18.302 43.2775 18.266C43.0615 18.242 42.8755 18.212 42.7195 18.176V16.916C42.8515 16.94 43.0075 16.964 43.1875 16.988C43.3795 17.012 43.5775 17.024 43.7815 17.024C44.3335 17.024 44.7775 16.868 45.1135 16.556C45.4615 16.244 45.7315 15.83 45.9235 15.314L46.4275 14.036L42.5395 4.352ZM61.125 12.884C61.365 12.884 61.611 12.866 61.863 12.83C62.115 12.782 62.319 12.734 62.475 12.686V13.892C62.307 13.976 62.067 14.042 61.755 14.09C61.443 14.15 61.143 14.18 60.855 14.18C60.351 14.18 59.883 14.096 59.451 13.928C59.031 13.748 58.689 13.442 58.425 13.01C58.161 12.578 58.029 11.972 58.029 11.192V5.576H56.661V4.82L58.047 4.19L58.677 2.138H59.613V4.352H62.403V5.576H59.613V11.156C59.613 11.744 59.751 12.182 60.027 12.47C60.315 12.746 60.681 12.884 61.125 12.884ZM72.795 9.158C72.795 10.754 72.387 11.99 71.571 12.866C70.767 13.742 69.675 14.18 68.295 14.18C67.443 14.18 66.681 13.988 66.009 13.604C65.349 13.208 64.827 12.638 64.443 11.894C64.059 11.138 63.867 10.226 63.867 9.158C63.867 7.562 64.269 6.332 65.073 5.468C65.877 4.604 66.969 4.172 68.349 4.172C69.225 4.172 69.993 4.37 70.653 4.766C71.325 5.15 71.847 5.714 72.219 6.458C72.603 7.19 72.795 8.09 72.795 9.158ZM65.505 9.158C65.505 10.298 65.727 11.204 66.171 11.876C66.627 12.536 67.347 12.866 68.331 12.866C69.303 12.866 70.017 12.536 70.473 11.876C70.929 11.204 71.157 10.298 71.157 9.158C71.157 8.018 70.929 7.124 70.473 6.476C70.017 5.828 69.297 5.504 68.313 5.504C67.329 5.504 66.615 5.828 66.171 6.476C65.727 7.124 65.505 8.018 65.505 9.158ZM84.5712 4.172C85.7592 4.172 86.7132 4.586 87.4332 5.414C88.1652 6.242 88.5312 7.49 88.5312 9.158C88.5312 10.802 88.1652 12.05 87.4332 12.902C86.7132 13.754 85.7532 14.18 84.5532 14.18C83.8092 14.18 83.1912 14.042 82.6992 13.766C82.2192 13.478 81.8412 13.148 81.5652 12.776H81.4572C81.4812 12.98 81.5052 13.238 81.5292 13.55C81.5532 13.862 81.5652 14.132 81.5652 14.36V18.32H79.9812V4.352H81.2772L81.4932 5.666H81.5652C81.8532 5.246 82.2312 4.892 82.6992 4.604C83.1672 4.316 83.7912 4.172 84.5712 4.172ZM84.2832 5.504C83.2992 5.504 82.6032 5.78 82.1952 6.332C81.7992 6.884 81.5892 7.724 81.5652 8.852V9.158C81.5652 10.346 81.7572 11.264 82.1412 11.912C82.5372 12.548 83.2632 12.866 84.3192 12.866C84.9072 12.866 85.3872 12.704 85.7592 12.38C86.1432 12.056 86.4252 11.618 86.6052 11.066C86.7972 10.502 86.8932 9.86 86.8932 9.14C86.8932 8.036 86.6772 7.154 86.2452 6.494C85.8252 5.834 85.1712 5.504 84.2832 5.504ZM99.1194 4.352V14H97.8234L97.5894 12.722H97.5174C97.2054 13.226 96.7734 13.598 96.2214 13.838C95.6694 14.066 95.0814 14.18 94.4574 14.18C93.2934 14.18 92.4174 13.904 91.8294 13.352C91.2414 12.788 90.9474 11.894 90.9474 10.67V4.352H92.5494V10.562C92.5494 12.098 93.2634 12.866 94.6914 12.866C95.7594 12.866 96.4974 12.566 96.9054 11.966C97.3254 11.366 97.5354 10.502 97.5354 9.374V4.352H99.1194ZM105.404 12.884C105.644 12.884 105.89 12.866 106.142 12.83C106.394 12.782 106.598 12.734 106.754 12.686V13.892C106.586 13.976 106.346 14.042 106.034 14.09C105.722 14.15 105.422 14.18 105.134 14.18C104.63 14.18 104.162 14.096 103.73 13.928C103.31 13.748 102.968 13.442 102.704 13.01C102.44 12.578 102.308 11.972 102.308 11.192V5.576H100.94V4.82L102.326 4.19L102.956 2.138H103.892V4.352H106.682V5.576H103.892V11.156C103.892 11.744 104.03 12.182 104.306 12.47C104.594 12.746 104.96 12.884 105.404 12.884ZM116.584 12.884C116.824 12.884 117.07 12.866 117.322 12.83C117.574 12.782 117.778 12.734 117.934 12.686V13.892C117.766 13.976 117.526 14.042 117.214 14.09C116.902 14.15 116.602 14.18 116.314 14.18C115.81 14.18 115.342 14.096 114.91 13.928C114.49 13.748 114.148 13.442 113.884 13.01C113.62 12.578 113.488 11.972 113.488 11.192V5.576H112.12V4.82L113.506 4.19L114.136 2.138H115.072V4.352H117.862V5.576H115.072V11.156C115.072 11.744 115.21 12.182 115.486 12.47C115.774 12.746 116.14 12.884 116.584 12.884ZM121.45 4.334C121.45 4.814 121.42 5.264 121.36 5.684H121.468C121.78 5.192 122.2 4.82 122.728 4.568C123.268 4.316 123.85 4.19 124.474 4.19C125.65 4.19 126.532 4.472 127.12 5.036C127.708 5.588 128.002 6.482 128.002 7.718V14H126.436V7.826C126.436 6.278 125.716 5.504 124.276 5.504C123.196 5.504 122.452 5.81 122.044 6.422C121.648 7.022 121.45 7.886 121.45 9.014V14H119.866V0.319999H121.45V4.334ZM134.719 4.172C135.547 4.172 136.255 4.352 136.843 4.712C137.443 5.072 137.899 5.582 138.211 6.242C138.535 6.89 138.697 7.652 138.697 8.528V9.482H132.091C132.115 10.574 132.391 11.408 132.919 11.984C133.459 12.548 134.209 12.83 135.169 12.83C135.781 12.83 136.321 12.776 136.789 12.668C137.269 12.548 137.761 12.38 138.265 12.164V13.55C137.773 13.766 137.287 13.922 136.807 14.018C136.327 14.126 135.757 14.18 135.097 14.18C134.185 14.18 133.375 13.994 132.667 13.622C131.971 13.25 131.425 12.698 131.029 11.966C130.645 11.222 130.453 10.316 130.453 9.248C130.453 8.192 130.627 7.286 130.975 6.53C131.335 5.774 131.833 5.192 132.469 4.784C133.117 4.376 133.867 4.172 134.719 4.172ZM134.701 5.468C133.945 5.468 133.345 5.714 132.901 6.206C132.469 6.686 132.211 7.358 132.127 8.222H137.041C137.029 7.406 136.837 6.746 136.465 6.242C136.093 5.726 135.505 5.468 134.701 5.468ZM147.413 4.334C147.413 4.814 147.383 5.264 147.323 5.684H147.431C147.743 5.192 148.163 4.82 148.691 4.568C149.231 4.316 149.813 4.19 150.437 4.19C151.613 4.19 152.495 4.472 153.083 5.036C153.671 5.588 153.965 6.482 153.965 7.718V14H152.399V7.826C152.399 6.278 151.679 5.504 150.239 5.504C149.159 5.504 148.415 5.81 148.007 6.422C147.611 7.022 147.413 7.886 147.413 9.014V14H145.829V0.319999H147.413V4.334ZM165.02 4.352V14H163.724L163.49 12.722H163.418C163.106 13.226 162.674 13.598 162.122 13.838C161.57 14.066 160.982 14.18 160.358 14.18C159.194 14.18 158.318 13.904 157.73 13.352C157.142 12.788 156.848 11.894 156.848 10.67V4.352H158.45V10.562C158.45 12.098 159.164 12.866 160.592 12.866C161.66 12.866 162.398 12.566 162.806 11.966C163.226 11.366 163.436 10.502 163.436 9.374V4.352H165.02ZM178.667 4.172C179.759 4.172 180.575 4.454 181.115 5.018C181.655 5.57 181.925 6.47 181.925 7.718V14H180.359V7.79C180.359 6.266 179.705 5.504 178.397 5.504C177.461 5.504 176.789 5.774 176.381 6.314C175.985 6.854 175.787 7.64 175.787 8.672V14H174.221V7.79C174.221 6.266 173.561 5.504 172.241 5.504C171.269 5.504 170.597 5.804 170.225 6.404C169.853 7.004 169.667 7.868 169.667 8.996V14H168.083V4.352H169.361L169.595 5.666H169.685C169.985 5.162 170.387 4.79 170.891 4.55C171.407 4.298 171.953 4.172 172.529 4.172C174.041 4.172 175.025 4.712 175.481 5.792H175.571C175.895 5.24 176.333 4.832 176.885 4.568C177.449 4.304 178.043 4.172 178.667 4.172ZM188.559 4.19C189.735 4.19 190.605 4.448 191.169 4.964C191.733 5.48 192.015 6.302 192.015 7.43V14H190.863L190.557 12.632H190.485C190.065 13.16 189.621 13.55 189.153 13.802C188.697 14.054 188.061 14.18 187.245 14.18C186.369 14.18 185.643 13.952 185.067 13.496C184.491 13.028 184.203 12.302 184.203 11.318C184.203 10.358 184.581 9.62 185.337 9.104C186.093 8.576 187.257 8.288 188.829 8.24L190.467 8.186V7.61C190.467 6.806 190.293 6.248 189.945 5.936C189.597 5.624 189.105 5.468 188.469 5.468C187.965 5.468 187.485 5.546 187.029 5.702C186.573 5.846 186.147 6.014 185.751 6.206L185.265 5.018C185.685 4.79 186.183 4.598 186.759 4.442C187.335 4.274 187.935 4.19 188.559 4.19ZM189.027 9.338C187.827 9.386 186.993 9.578 186.525 9.914C186.069 10.25 185.841 10.724 185.841 11.336C185.841 11.876 186.003 12.272 186.327 12.524C186.663 12.776 187.089 12.902 187.605 12.902C188.421 12.902 189.099 12.68 189.639 12.236C190.179 11.78 190.449 11.084 190.449 10.148V9.284L189.027 9.338ZM199.639 4.172C200.791 4.172 201.661 4.454 202.249 5.018C202.837 5.57 203.131 6.47 203.131 7.718V14H201.565V7.826C201.565 6.278 200.845 5.504 199.405 5.504C198.337 5.504 197.599 5.804 197.191 6.404C196.783 7.004 196.579 7.868 196.579 8.996V14H194.995V4.352H196.273L196.507 5.666H196.597C196.909 5.162 197.341 4.79 197.893 4.55C198.445 4.298 199.027 4.172 199.639 4.172ZM212.382 3.65C212.382 4.058 212.37 4.442 212.346 4.802C212.334 5.15 212.316 5.426 212.292 5.63H212.382C212.658 5.222 213.036 4.88 213.516 4.604C213.996 4.328 214.614 4.19 215.37 4.19C216.57 4.19 217.53 4.61 218.25 5.45C218.982 6.278 219.348 7.52 219.348 9.176C219.348 10.832 218.982 12.08 218.25 12.92C217.518 13.76 216.558 14.18 215.37 14.18C214.614 14.18 213.996 14.042 213.516 13.766C213.036 13.49 212.658 13.16 212.382 12.776H212.256L211.932 14H210.798V0.319999H212.382V3.65ZM215.1 5.504C214.08 5.504 213.372 5.798 212.976 6.386C212.58 6.974 212.382 7.886 212.382 9.122V9.194C212.382 10.382 212.574 11.294 212.958 11.93C213.354 12.554 214.08 12.866 215.136 12.866C216 12.866 216.642 12.548 217.062 11.912C217.494 11.276 217.71 10.358 217.71 9.158C217.71 6.722 216.84 5.504 215.1 5.504ZM225.526 4.19C226.702 4.19 227.572 4.448 228.136 4.964C228.7 5.48 228.982 6.302 228.982 7.43V14H227.83L227.524 12.632H227.452C227.032 13.16 226.588 13.55 226.12 13.802C225.664 14.054 225.028 14.18 224.212 14.18C223.336 14.18 222.61 13.952 222.034 13.496C221.458 13.028 221.17 12.302 221.17 11.318C221.17 10.358 221.548 9.62 222.304 9.104C223.06 8.576 224.224 8.288 225.796 8.24L227.434 8.186V7.61C227.434 6.806 227.26 6.248 226.912 5.936C226.564 5.624 226.072 5.468 225.436 5.468C224.932 5.468 224.452 5.546 223.996 5.702C223.54 5.846 223.114 6.014 222.718 6.206L222.232 5.018C222.652 4.79 223.15 4.598 223.726 4.442C224.302 4.274 224.902 4.19 225.526 4.19ZM225.994 9.338C224.794 9.386 223.96 9.578 223.492 9.914C223.036 10.25 222.808 10.724 222.808 11.336C222.808 11.876 222.97 12.272 223.294 12.524C223.63 12.776 224.056 12.902 224.572 12.902C225.388 12.902 226.066 12.68 226.606 12.236C227.146 11.78 227.416 11.084 227.416 10.148V9.284L225.994 9.338ZM235.832 14.18C234.98 14.18 234.218 14.006 233.546 13.658C232.886 13.31 232.364 12.77 231.98 12.038C231.608 11.306 231.422 10.37 231.422 9.23C231.422 8.042 231.62 7.076 232.016 6.332C232.412 5.588 232.946 5.042 233.618 4.694C234.302 4.346 235.076 4.172 235.94 4.172C236.432 4.172 236.906 4.226 237.362 4.334C237.818 4.43 238.19 4.55 238.478 4.694L237.992 6.008C237.704 5.9 237.368 5.798 236.984 5.702C236.6 5.606 236.24 5.558 235.904 5.558C234.008 5.558 233.06 6.776 233.06 9.212C233.06 10.376 233.288 11.27 233.744 11.894C234.212 12.506 234.902 12.812 235.814 12.812C236.342 12.812 236.804 12.758 237.2 12.65C237.608 12.542 237.98 12.41 238.316 12.254V13.658C237.992 13.826 237.632 13.952 237.236 14.036C236.852 14.132 236.384 14.18 235.832 14.18ZM242.176 7.466C242.176 7.658 242.164 7.91 242.14 8.222C242.128 8.534 242.116 8.804 242.104 9.032H242.176C242.248 8.936 242.356 8.798 242.5 8.618C242.644 8.438 242.788 8.258 242.932 8.078C243.088 7.886 243.22 7.73 243.328 7.61L246.406 4.352H248.26L244.354 8.474L248.53 14H246.622L243.274 9.5L242.176 10.454V14H240.61V0.319999H242.176V7.466ZM255.711 0.733999C255.951 0.733999 256.161 0.817999 256.341 0.985999C256.533 1.142 256.629 1.394 256.629 1.742C256.629 2.078 256.533 2.33 256.341 2.498C256.161 2.666 255.951 2.75 255.711 2.75C255.447 2.75 255.225 2.666 255.045 2.498C254.865 2.33 254.775 2.078 254.775 1.742C254.775 1.394 254.865 1.142 255.045 0.985999C255.225 0.817999 255.447 0.733999 255.711 0.733999ZM256.485 4.352V14H254.901V4.352H256.485ZM264.186 4.172C265.338 4.172 266.208 4.454 266.796 5.018C267.384 5.57 267.678 6.47 267.678 7.718V14H266.112V7.826C266.112 6.278 265.392 5.504 263.952 5.504C262.884 5.504 262.146 5.804 261.738 6.404C261.33 7.004 261.126 7.868 261.126 8.996V14H259.542V4.352H260.82L261.054 5.666H261.144C261.456 5.162 261.888 4.79 262.44 4.55C262.992 4.298 263.574 4.172 264.186 4.172ZM285.388 14H283.768V8.006H277.18V14H275.56V1.148H277.18V6.584H283.768V1.148H285.388V14ZM292.448 1.148C294.044 1.148 295.22 1.454 295.976 2.066C296.744 2.666 297.128 3.578 297.128 4.802C297.128 5.486 297.002 6.056 296.75 6.512C296.498 6.968 296.174 7.334 295.778 7.61C295.394 7.874 294.986 8.084 294.554 8.24L298.082 14H296.192L293.078 8.69H290.522V14H288.902V1.148H292.448ZM292.358 2.552H290.522V7.322H292.448C293.492 7.322 294.254 7.118 294.734 6.71C295.214 6.29 295.454 5.678 295.454 4.874C295.454 4.034 295.202 3.44 294.698 3.092C294.194 2.732 293.414 2.552 292.358 2.552ZM300.874 9.896C300.874 9.44 300.916 9.05 301 8.726C301.096 8.39 301.252 8.072 301.468 7.772C301.696 7.472 302.002 7.16 302.386 6.836C302.854 6.44 303.214 6.11 303.466 5.846C303.73 5.582 303.916 5.324 304.024 5.072C304.132 4.82 304.186 4.514 304.186 4.154C304.186 3.578 304 3.134 303.628 2.822C303.256 2.51 302.716 2.354 302.008 2.354C301.42 2.354 300.898 2.432 300.442 2.588C299.986 2.732 299.548 2.906 299.128 3.11L298.57 1.85C299.05 1.598 299.578 1.388 300.154 1.22C300.742 1.052 301.396 0.967999 302.116 0.967999C303.256 0.967999 304.138 1.25 304.762 1.814C305.386 2.378 305.698 3.146 305.698 4.118C305.698 4.658 305.608 5.12 305.428 5.504C305.26 5.876 305.014 6.224 304.69 6.548C304.378 6.86 304.006 7.196 303.574 7.556C303.178 7.892 302.872 8.186 302.656 8.438C302.452 8.69 302.314 8.942 302.242 9.194C302.17 9.434 302.134 9.728 302.134 10.076V10.382H300.874V9.896ZM300.46 13.028C300.46 12.584 300.562 12.272 300.766 12.092C300.982 11.912 301.252 11.822 301.576 11.822C301.876 11.822 302.134 11.912 302.35 12.092C302.566 12.272 302.674 12.584 302.674 13.028C302.674 13.46 302.566 13.772 302.35 13.964C302.134 14.156 301.876 14.252 301.576 14.252C301.252 14.252 300.982 14.156 300.766 13.964C300.562 13.772 300.46 13.46 300.46 13.028ZM318.088 2.39C316.708 2.39 315.622 2.852 314.83 3.776C314.038 4.7 313.642 5.966 313.642 7.574C313.642 9.17 314.008 10.436 314.74 11.372C315.484 12.296 316.594 12.758 318.07 12.758C318.634 12.758 319.168 12.71 319.672 12.614C320.176 12.518 320.668 12.398 321.148 12.254V13.658C320.668 13.838 320.17 13.97 319.654 14.054C319.15 14.138 318.544 14.18 317.836 14.18C316.528 14.18 315.436 13.91 314.56 13.37C313.684 12.83 313.024 12.062 312.58 11.066C312.148 10.07 311.932 8.9 311.932 7.556C311.932 6.26 312.166 5.12 312.634 4.136C313.114 3.14 313.816 2.366 314.74 1.814C315.664 1.25 316.786 0.967999 318.106 0.967999C319.462 0.967999 320.644 1.22 321.652 1.724L321.004 3.092C320.608 2.912 320.164 2.75 319.672 2.606C319.192 2.462 318.664 2.39 318.088 2.39ZM325.321 14H323.737V0.319999H325.321V14ZM332.104 4.172C332.932 4.172 333.64 4.352 334.228 4.712C334.828 5.072 335.284 5.582 335.596 6.242C335.92 6.89 336.082 7.652 336.082 8.528V9.482H329.476C329.5 10.574 329.776 11.408 330.304 11.984C330.844 12.548 331.594 12.83 332.554 12.83C333.166 12.83 333.706 12.776 334.174 12.668C334.654 12.548 335.146 12.38 335.65 12.164V13.55C335.158 13.766 334.672 13.922 334.192 14.018C333.712 14.126 333.142 14.18 332.482 14.18C331.57 14.18 330.76 13.994 330.052 13.622C329.356 13.25 328.81 12.698 328.414 11.966C328.03 11.222 327.838 10.316 327.838 9.248C327.838 8.192 328.012 7.286 328.36 6.53C328.72 5.774 329.218 5.192 329.854 4.784C330.502 4.376 331.252 4.172 332.104 4.172ZM332.086 5.468C331.33 5.468 330.73 5.714 330.286 6.206C329.854 6.686 329.596 7.358 329.512 8.222H334.426C334.414 7.406 334.222 6.746 333.85 6.242C333.478 5.726 332.89 5.468 332.086 5.468ZM343.038 4.172C343.218 4.172 343.41 4.184 343.614 4.208C343.83 4.22 344.016 4.244 344.172 4.28L343.974 5.738C343.818 5.702 343.644 5.672 343.452 5.648C343.272 5.624 343.098 5.612 342.93 5.612C342.438 5.612 341.976 5.75 341.544 6.026C341.112 6.29 340.764 6.668 340.5 7.16C340.248 7.64 340.122 8.204 340.122 8.852V14H338.538V4.352H339.834L340.014 6.116H340.086C340.398 5.588 340.8 5.132 341.292 4.748C341.784 4.364 342.366 4.172 343.038 4.172ZM347.539 7.466C347.539 7.658 347.527 7.91 347.503 8.222C347.491 8.534 347.479 8.804 347.467 9.032H347.539C347.611 8.936 347.719 8.798 347.863 8.618C348.007 8.438 348.151 8.258 348.295 8.078C348.451 7.886 348.583 7.73 348.691 7.61L351.769 4.352H353.623L349.717 8.474L353.893 14H351.985L348.637 9.5L347.539 10.454V14H345.973V0.319999H347.539V7.466ZM361.871 11.336C361.871 12.272 361.523 12.98 360.827 13.46C360.131 13.94 359.195 14.18 358.019 14.18C357.347 14.18 356.765 14.126 356.273 14.018C355.793 13.91 355.367 13.76 354.995 13.568V12.128C355.379 12.32 355.841 12.5 356.381 12.668C356.933 12.824 357.491 12.902 358.055 12.902C358.859 12.902 359.441 12.776 359.801 12.524C360.161 12.26 360.341 11.912 360.341 11.48C360.341 11.24 360.275 11.024 360.143 10.832C360.011 10.64 359.771 10.448 359.423 10.256C359.087 10.064 358.601 9.848 357.965 9.608C357.341 9.368 356.807 9.128 356.363 8.888C355.919 8.648 355.577 8.36 355.337 8.024C355.097 7.688 354.977 7.256 354.977 6.728C354.977 5.912 355.307 5.282 355.967 4.838C356.639 4.394 357.515 4.172 358.595 4.172C359.183 4.172 359.729 4.232 360.233 4.352C360.749 4.46 361.229 4.616 361.673 4.82L361.133 6.08C360.725 5.912 360.299 5.768 359.855 5.648C359.411 5.528 358.955 5.468 358.487 5.468C357.839 5.468 357.341 5.576 356.993 5.792C356.657 5.996 356.489 6.278 356.489 6.638C356.489 6.902 356.567 7.13 356.723 7.322C356.879 7.502 357.137 7.682 357.497 7.862C357.869 8.03 358.361 8.234 358.973 8.474C359.585 8.702 360.107 8.936 360.539 9.176C360.971 9.416 361.301 9.71 361.529 10.058C361.757 10.394 361.871 10.82 361.871 11.336ZM362.69 4.352H364.382L366.47 9.842C366.65 10.322 366.812 10.784 366.956 11.228C367.1 11.66 367.208 12.074 367.28 12.47H367.352C367.424 12.17 367.538 11.78 367.694 11.3C367.85 10.808 368.012 10.316 368.18 9.824L370.142 4.352H371.852L367.694 15.332C367.358 16.244 366.92 16.97 366.38 17.51C365.852 18.05 365.12 18.32 364.184 18.32C363.896 18.32 363.644 18.302 363.428 18.266C363.212 18.242 363.026 18.212 362.87 18.176V16.916C363.002 16.94 363.158 16.964 363.338 16.988C363.53 17.012 363.728 17.024 363.932 17.024C364.484 17.024 364.928 16.868 365.264 16.556C365.612 16.244 365.882 15.83 366.074 15.314L366.578 14.036L362.69 4.352ZM379.637 4.334C379.637 4.814 379.607 5.264 379.547 5.684H379.655C379.967 5.192 380.387 4.82 380.915 4.568C381.455 4.316 382.037 4.19 382.661 4.19C383.837 4.19 384.719 4.472 385.307 5.036C385.895 5.588 386.189 6.482 386.189 7.718V14H384.623V7.826C384.623 6.278 383.903 5.504 382.463 5.504C381.383 5.504 380.639 5.81 380.231 6.422C379.835 7.022 379.637 7.886 379.637 9.014V14H378.053V0.319999H379.637V4.334ZM392.906 4.172C393.734 4.172 394.442 4.352 395.03 4.712C395.63 5.072 396.086 5.582 396.398 6.242C396.722 6.89 396.884 7.652 396.884 8.528V9.482H390.278C390.302 10.574 390.578 11.408 391.106 11.984C391.646 12.548 392.396 12.83 393.356 12.83C393.968 12.83 394.508 12.776 394.976 12.668C395.456 12.548 395.948 12.38 396.452 12.164V13.55C395.96 13.766 395.474 13.922 394.994 14.018C394.514 14.126 393.944 14.18 393.284 14.18C392.372 14.18 391.562 13.994 390.854 13.622C390.158 13.25 389.612 12.698 389.216 11.966C388.832 11.222 388.64 10.316 388.64 9.248C388.64 8.192 388.814 7.286 389.162 6.53C389.522 5.774 390.02 5.192 390.656 4.784C391.304 4.376 392.054 4.172 392.906 4.172ZM392.888 5.468C392.132 5.468 391.532 5.714 391.088 6.206C390.656 6.686 390.398 7.358 390.314 8.222H395.228C395.216 7.406 395.024 6.746 394.652 6.242C394.28 5.726 393.692 5.468 392.888 5.468ZM400.925 14H399.341V0.319999H400.925V14ZM408.571 4.172C409.759 4.172 410.713 4.586 411.433 5.414C412.165 6.242 412.531 7.49 412.531 9.158C412.531 10.802 412.165 12.05 411.433 12.902C410.713 13.754 409.753 14.18 408.553 14.18C407.809 14.18 407.191 14.042 406.699 13.766C406.219 13.478 405.841 13.148 405.565 12.776H405.457C405.481 12.98 405.505 13.238 405.529 13.55C405.553 13.862 405.565 14.132 405.565 14.36V18.32H403.981V4.352H405.277L405.493 5.666H405.565C405.853 5.246 406.231 4.892 406.699 4.604C407.167 4.316 407.791 4.172 408.571 4.172ZM408.283 5.504C407.299 5.504 406.603 5.78 406.195 6.332C405.799 6.884 405.589 7.724 405.565 8.852V9.158C405.565 10.346 405.757 11.264 406.141 11.912C406.537 12.548 407.263 12.866 408.319 12.866C408.907 12.866 409.387 12.704 409.759 12.38C410.143 12.056 410.425 11.618 410.605 11.066C410.797 10.502 410.893 9.86 410.893 9.14C410.893 8.036 410.677 7.154 410.245 6.494C409.825 5.834 409.171 5.504 408.283 5.504ZM421.337 11.336C421.337 12.272 420.989 12.98 420.293 13.46C419.597 13.94 418.661 14.18 417.485 14.18C416.813 14.18 416.231 14.126 415.739 14.018C415.259 13.91 414.833 13.76 414.461 13.568V12.128C414.845 12.32 415.307 12.5 415.847 12.668C416.399 12.824 416.957 12.902 417.521 12.902C418.325 12.902 418.907 12.776 419.267 12.524C419.627 12.26 419.807 11.912 419.807 11.48C419.807 11.24 419.741 11.024 419.609 10.832C419.477 10.64 419.237 10.448 418.889 10.256C418.553 10.064 418.067 9.848 417.431 9.608C416.807 9.368 416.273 9.128 415.829 8.888C415.385 8.648 415.043 8.36 414.803 8.024C414.563 7.688 414.443 7.256 414.443 6.728C414.443 5.912 414.773 5.282 415.433 4.838C416.105 4.394 416.981 4.172 418.061 4.172C418.649 4.172 419.195 4.232 419.699 4.352C420.215 4.46 420.695 4.616 421.139 4.82L420.599 6.08C420.191 5.912 419.765 5.768 419.321 5.648C418.877 5.528 418.421 5.468 417.953 5.468C417.305 5.468 416.807 5.576 416.459 5.792C416.123 5.996 415.955 6.278 415.955 6.638C415.955 6.902 416.033 7.13 416.189 7.322C416.345 7.502 416.603 7.682 416.963 7.862C417.335 8.03 417.827 8.234 418.439 8.474C419.051 8.702 419.573 8.936 420.005 9.176C420.437 9.416 420.767 9.71 420.995 10.058C421.223 10.394 421.337 10.82 421.337 11.336ZM426.832 4.352H428.524L430.612 9.842C430.792 10.322 430.954 10.784 431.098 11.228C431.242 11.66 431.35 12.074 431.422 12.47H431.494C431.566 12.17 431.68 11.78 431.836 11.3C431.992 10.808 432.154 10.316 432.322 9.824L434.284 4.352H435.994L431.836 15.332C431.5 16.244 431.062 16.97 430.522 17.51C429.994 18.05 429.262 18.32 428.326 18.32C428.038 18.32 427.786 18.302 427.57 18.266C427.354 18.242 427.168 18.212 427.012 18.176V16.916C427.144 16.94 427.3 16.964 427.48 16.988C427.672 17.012 427.87 17.024 428.074 17.024C428.626 17.024 429.07 16.868 429.406 16.556C429.754 16.244 430.024 15.83 430.216 15.314L430.72 14.036L426.832 4.352ZM445.908 9.158C445.908 10.754 445.5 11.99 444.684 12.866C443.88 13.742 442.788 14.18 441.408 14.18C440.556 14.18 439.794 13.988 439.122 13.604C438.462 13.208 437.94 12.638 437.556 11.894C437.172 11.138 436.98 10.226 436.98 9.158C436.98 7.562 437.382 6.332 438.186 5.468C438.99 4.604 440.082 4.172 441.462 4.172C442.338 4.172 443.106 4.37 443.766 4.766C444.438 5.15 444.96 5.714 445.332 6.458C445.716 7.19 445.908 8.09 445.908 9.158ZM438.618 9.158C438.618 10.298 438.84 11.204 439.284 11.876C439.74 12.536 440.46 12.866 441.444 12.866C442.416 12.866 443.13 12.536 443.586 11.876C444.042 11.204 444.27 10.298 444.27 9.158C444.27 8.018 444.042 7.124 443.586 6.476C443.13 5.828 442.41 5.504 441.426 5.504C440.442 5.504 439.728 5.828 439.284 6.476C438.84 7.124 438.618 8.018 438.618 9.158ZM456.483 4.352V14H455.187L454.953 12.722H454.881C454.569 13.226 454.137 13.598 453.585 13.838C453.033 14.066 452.445 14.18 451.821 14.18C450.657 14.18 449.781 13.904 449.193 13.352C448.605 12.788 448.311 11.894 448.311 10.67V4.352H449.913V10.562C449.913 12.098 450.627 12.866 452.055 12.866C453.123 12.866 453.861 12.566 454.269 11.966C454.689 11.366 454.899 10.502 454.899 9.374V4.352H456.483ZM7.812 38.336C7.812 39.272 7.464 39.98 6.768 40.46C6.072 40.94 5.136 41.18 3.96 41.18C3.288 41.18 2.706 41.126 2.214 41.018C1.734 40.91 1.308 40.76 0.936 40.568V39.128C1.32 39.32 1.782 39.5 2.322 39.668C2.874 39.824 3.432 39.902 3.996 39.902C4.8 39.902 5.382 39.776 5.742 39.524C6.102 39.26 6.282 38.912 6.282 38.48C6.282 38.24 6.216 38.024 6.084 37.832C5.952 37.64 5.712 37.448 5.364 37.256C5.028 37.064 4.542 36.848 3.906 36.608C3.282 36.368 2.748 36.128 2.304 35.888C1.86 35.648 1.518 35.36 1.278 35.024C1.038 34.688 0.918 34.256 0.918 33.728C0.918 32.912 1.248 32.282 1.908 31.838C2.58 31.394 3.456 31.172 4.536 31.172C5.124 31.172 5.67 31.232 6.174 31.352C6.69 31.46 7.17 31.616 7.614 31.82L7.074 33.08C6.666 32.912 6.24 32.768 5.796 32.648C5.352 32.528 4.896 32.468 4.428 32.468C3.78 32.468 3.282 32.576 2.934 32.792C2.598 32.996 2.43 33.278 2.43 33.638C2.43 33.902 2.508 34.13 2.664 34.322C2.82 34.502 3.078 34.682 3.438 34.862C3.81 35.03 4.302 35.234 4.914 35.474C5.526 35.702 6.048 35.936 6.48 36.176C6.912 36.416 7.242 36.71 7.47 37.058C7.698 37.394 7.812 37.82 7.812 38.336ZM13.8693 31.172C14.6973 31.172 15.4053 31.352 15.9933 31.712C16.5933 32.072 17.0493 32.582 17.3613 33.242C17.6853 33.89 17.8473 34.652 17.8473 35.528V36.482H11.2413C11.2653 37.574 11.5413 38.408 12.0693 38.984C12.6093 39.548 13.3593 39.83 14.3193 39.83C14.9313 39.83 15.4713 39.776 15.9393 39.668C16.4193 39.548 16.9113 39.38 17.4153 39.164V40.55C16.9233 40.766 16.4373 40.922 15.9573 41.018C15.4773 41.126 14.9073 41.18 14.2473 41.18C13.3353 41.18 12.5253 40.994 11.8173 40.622C11.1213 40.25 10.5753 39.698 10.1793 38.966C9.79528 38.222 9.60328 37.316 9.60328 36.248C9.60328 35.192 9.77728 34.286 10.1253 33.53C10.4853 32.774 10.9833 32.192 11.6193 31.784C12.2673 31.376 13.0173 31.172 13.8693 31.172ZM13.8513 32.468C13.0953 32.468 12.4953 32.714 12.0513 33.206C11.6193 33.686 11.3613 34.358 11.2773 35.222H16.1913C16.1793 34.406 15.9873 33.746 15.6153 33.242C15.2433 32.726 14.6553 32.468 13.8513 32.468ZM23.5254 39.884C23.7654 39.884 24.0114 39.866 24.2634 39.83C24.5154 39.782 24.7194 39.734 24.8754 39.686V40.892C24.7074 40.976 24.4674 41.042 24.1554 41.09C23.8434 41.15 23.5434 41.18 23.2554 41.18C22.7514 41.18 22.2834 41.096 21.8514 40.928C21.4314 40.748 21.0894 40.442 20.8254 40.01C20.5614 39.578 20.4294 38.972 20.4294 38.192V32.576H19.0614V31.82L20.4474 31.19L21.0774 29.138H22.0134V31.352H24.8034V32.576H22.0134V38.156C22.0134 38.744 22.1514 39.182 22.4274 39.47C22.7154 39.746 23.0814 39.884 23.5254 39.884ZM34.7051 39.884C34.9451 39.884 35.1911 39.866 35.4431 39.83C35.6951 39.782 35.8991 39.734 36.0551 39.686V40.892C35.8871 40.976 35.6471 41.042 35.3351 41.09C35.0231 41.15 34.7231 41.18 34.4351 41.18C33.9311 41.18 33.4631 41.096 33.0311 40.928C32.6111 40.748 32.2691 40.442 32.0051 40.01C31.7411 39.578 31.6091 38.972 31.6091 38.192V32.576H30.2411V31.82L31.6271 31.19L32.2571 29.138H33.1931V31.352H35.9831V32.576H33.1931V38.156C33.1931 38.744 33.3311 39.182 33.6071 39.47C33.8951 39.746 34.2611 39.884 34.7051 39.884ZM39.571 31.334C39.571 31.814 39.541 32.264 39.481 32.684H39.589C39.901 32.192 40.321 31.82 40.849 31.568C41.389 31.316 41.971 31.19 42.595 31.19C43.771 31.19 44.653 31.472 45.241 32.036C45.829 32.588 46.123 33.482 46.123 34.718V41H44.557V34.826C44.557 33.278 43.837 32.504 42.397 32.504C41.317 32.504 40.573 32.81 40.165 33.422C39.769 34.022 39.571 34.886 39.571 36.014V41H37.987V27.32H39.571V31.334ZM52.84 31.172C53.668 31.172 54.376 31.352 54.964 31.712C55.564 32.072 56.02 32.582 56.332 33.242C56.656 33.89 56.818 34.652 56.818 35.528V36.482H50.212C50.236 37.574 50.512 38.408 51.04 38.984C51.58 39.548 52.33 39.83 53.29 39.83C53.902 39.83 54.442 39.776 54.91 39.668C55.39 39.548 55.882 39.38 56.386 39.164V40.55C55.894 40.766 55.408 40.922 54.928 41.018C54.448 41.126 53.878 41.18 53.218 41.18C52.306 41.18 51.496 40.994 50.788 40.622C50.092 40.25 49.546 39.698 49.15 38.966C48.766 38.222 48.574 37.316 48.574 36.248C48.574 35.192 48.748 34.286 49.096 33.53C49.456 32.774 49.954 32.192 50.59 31.784C51.238 31.376 51.988 31.172 52.84 31.172ZM52.822 32.468C52.066 32.468 51.466 32.714 51.022 33.206C50.59 33.686 50.332 34.358 50.248 35.222H55.162C55.15 34.406 54.958 33.746 54.586 33.242C54.214 32.726 53.626 32.468 52.822 32.468ZM70.2319 38.336C70.2319 39.272 69.8839 39.98 69.1879 40.46C68.4919 40.94 67.5559 41.18 66.3799 41.18C65.7079 41.18 65.1259 41.126 64.6339 41.018C64.1539 40.91 63.7279 40.76 63.3559 40.568V39.128C63.7399 39.32 64.2019 39.5 64.7419 39.668C65.2939 39.824 65.8519 39.902 66.4159 39.902C67.2199 39.902 67.8019 39.776 68.1619 39.524C68.5219 39.26 68.7019 38.912 68.7019 38.48C68.7019 38.24 68.6359 38.024 68.5039 37.832C68.3719 37.64 68.1319 37.448 67.7839 37.256C67.4479 37.064 66.9619 36.848 66.3259 36.608C65.7019 36.368 65.1679 36.128 64.7239 35.888C64.2799 35.648 63.9379 35.36 63.6979 35.024C63.4579 34.688 63.3379 34.256 63.3379 33.728C63.3379 32.912 63.6679 32.282 64.3279 31.838C64.9999 31.394 65.8759 31.172 66.9559 31.172C67.5439 31.172 68.0899 31.232 68.5939 31.352C69.1099 31.46 69.5899 31.616 70.0339 31.82L69.4939 33.08C69.0859 32.912 68.6599 32.768 68.2159 32.648C67.7719 32.528 67.3159 32.468 66.8479 32.468C66.1999 32.468 65.7019 32.576 65.3539 32.792C65.0179 32.996 64.8499 33.278 64.8499 33.638C64.8499 33.902 64.9279 34.13 65.0839 34.322C65.2399 34.502 65.4979 34.682 65.8579 34.862C66.2299 35.03 66.7219 35.234 67.3339 35.474C67.9459 35.702 68.4679 35.936 68.8999 36.176C69.3319 36.416 69.6619 36.71 69.8899 37.058C70.1179 37.394 70.2319 37.82 70.2319 38.336ZM75.7852 39.884C76.0252 39.884 76.2712 39.866 76.5232 39.83C76.7752 39.782 76.9792 39.734 77.1352 39.686V40.892C76.9672 40.976 76.7272 41.042 76.4152 41.09C76.1032 41.15 75.8032 41.18 75.5152 41.18C75.0112 41.18 74.5432 41.096 74.1112 40.928C73.6912 40.748 73.3492 40.442 73.0852 40.01C72.8212 39.578 72.6892 38.972 72.6892 38.192V32.576H71.3212V31.82L72.7072 31.19L73.3372 29.138H74.2732V31.352H77.0632V32.576H74.2732V38.156C74.2732 38.744 74.4112 39.182 74.6872 39.47C74.9752 39.746 75.3412 39.884 75.7852 39.884ZM82.7211 31.19C83.8971 31.19 84.7671 31.448 85.3311 31.964C85.8951 32.48 86.1771 33.302 86.1771 34.43V41H85.0251L84.7191 39.632H84.6471C84.2271 40.16 83.7831 40.55 83.3151 40.802C82.8591 41.054 82.2231 41.18 81.4071 41.18C80.5311 41.18 79.8051 40.952 79.2291 40.496C78.6531 40.028 78.3651 39.302 78.3651 38.318C78.3651 37.358 78.7431 36.62 79.4991 36.104C80.2551 35.576 81.4191 35.288 82.9911 35.24L84.6291 35.186V34.61C84.6291 33.806 84.4551 33.248 84.1071 32.936C83.7591 32.624 83.2671 32.468 82.6311 32.468C82.1271 32.468 81.6471 32.546 81.1911 32.702C80.7351 32.846 80.3091 33.014 79.9131 33.206L79.4271 32.018C79.8471 31.79 80.3451 31.598 80.9211 31.442C81.4971 31.274 82.0971 31.19 82.7211 31.19ZM83.1891 36.338C81.9891 36.386 81.1551 36.578 80.6871 36.914C80.2311 37.25 80.0031 37.724 80.0031 38.336C80.0031 38.876 80.1651 39.272 80.4891 39.524C80.8251 39.776 81.2511 39.902 81.7671 39.902C82.5831 39.902 83.2611 39.68 83.8011 39.236C84.3411 38.78 84.6111 38.084 84.6111 37.148V36.284L83.1891 36.338ZM92.577 31.172C93.213 31.172 93.783 31.292 94.287 31.532C94.803 31.772 95.241 32.138 95.601 32.63H95.691L95.907 31.352H97.167V41.162C97.167 42.542 96.813 43.58 96.105 44.276C95.409 44.972 94.323 45.32 92.847 45.32C91.431 45.32 90.273 45.116 89.373 44.708V43.25C90.321 43.754 91.509 44.006 92.937 44.006C93.765 44.006 94.413 43.76 94.881 43.268C95.361 42.788 95.601 42.128 95.601 41.288V40.91C95.601 40.766 95.607 40.562 95.619 40.298C95.631 40.022 95.643 39.83 95.655 39.722H95.583C94.935 40.694 93.939 41.18 92.595 41.18C91.347 41.18 90.369 40.742 89.661 39.866C88.965 38.99 88.617 37.766 88.617 36.194C88.617 34.658 88.965 33.44 89.661 32.54C90.369 31.628 91.341 31.172 92.577 31.172ZM92.793 32.504C91.989 32.504 91.365 32.828 90.921 33.476C90.477 34.112 90.255 35.024 90.255 36.212C90.255 37.4 90.471 38.312 90.903 38.948C91.347 39.572 91.989 39.884 92.829 39.884C93.801 39.884 94.509 39.626 94.953 39.11C95.397 38.582 95.619 37.736 95.619 36.572V36.194C95.619 34.874 95.391 33.932 94.935 33.368C94.479 32.792 93.765 32.504 92.793 32.504ZM103.957 31.172C104.785 31.172 105.493 31.352 106.081 31.712C106.681 32.072 107.137 32.582 107.449 33.242C107.773 33.89 107.935 34.652 107.935 35.528V36.482H101.329C101.353 37.574 101.629 38.408 102.157 38.984C102.697 39.548 103.447 39.83 104.407 39.83C105.019 39.83 105.559 39.776 106.027 39.668C106.507 39.548 106.999 39.38 107.503 39.164V40.55C107.011 40.766 106.525 40.922 106.045 41.018C105.565 41.126 104.995 41.18 104.335 41.18C103.423 41.18 102.613 40.994 101.905 40.622C101.209 40.25 100.663 39.698 100.267 38.966C99.8832 38.222 99.6912 37.316 99.6912 36.248C99.6912 35.192 99.8652 34.286 100.213 33.53C100.573 32.774 101.071 32.192 101.707 31.784C102.355 31.376 103.105 31.172 103.957 31.172ZM103.939 32.468C103.183 32.468 102.583 32.714 102.139 33.206C101.707 33.686 101.449 34.358 101.365 35.222H106.279C106.267 34.406 106.075 33.746 105.703 33.242C105.331 32.726 104.743 32.468 103.939 32.468ZM121.295 35.546C121.139 35.054 121.001 34.574 120.881 34.106C120.773 33.626 120.689 33.254 120.629 32.99H120.557C120.509 33.254 120.431 33.626 120.323 34.106C120.215 34.574 120.077 35.06 119.909 35.564L118.181 40.982H116.381L113.735 31.334H115.373L116.705 36.482C116.837 36.998 116.963 37.52 117.083 38.048C117.203 38.576 117.287 39.014 117.335 39.362H117.407C117.455 39.158 117.509 38.906 117.569 38.606C117.641 38.306 117.719 37.994 117.803 37.67C117.887 37.334 117.971 37.034 118.055 36.77L119.765 31.334H121.493L123.149 36.77C123.281 37.178 123.407 37.622 123.527 38.102C123.659 38.582 123.749 38.996 123.797 39.344H123.869C123.905 39.044 123.983 38.63 124.103 38.102C124.235 37.574 124.373 37.034 124.517 36.482L125.867 31.334H127.487L124.805 40.982H122.951L121.295 35.546ZM130.028 27.734C130.268 27.734 130.478 27.818 130.658 27.986C130.85 28.142 130.946 28.394 130.946 28.742C130.946 29.078 130.85 29.33 130.658 29.498C130.478 29.666 130.268 29.75 130.028 29.75C129.764 29.75 129.542 29.666 129.362 29.498C129.182 29.33 129.092 29.078 129.092 28.742C129.092 28.394 129.182 28.142 129.362 27.986C129.542 27.818 129.764 27.734 130.028 27.734ZM130.802 31.352V41H129.218V31.352H130.802ZM137.08 39.884C137.32 39.884 137.566 39.866 137.818 39.83C138.07 39.782 138.274 39.734 138.43 39.686V40.892C138.262 40.976 138.022 41.042 137.71 41.09C137.398 41.15 137.098 41.18 136.81 41.18C136.306 41.18 135.838 41.096 135.406 40.928C134.986 40.748 134.644 40.442 134.38 40.01C134.116 39.578 133.984 38.972 133.984 38.192V32.576H132.616V31.82L134.002 31.19L134.632 29.138H135.568V31.352H138.358V32.576H135.568V38.156C135.568 38.744 135.706 39.182 135.982 39.47C136.27 39.746 136.636 39.884 137.08 39.884ZM141.946 31.334C141.946 31.814 141.916 32.264 141.856 32.684H141.964C142.276 32.192 142.696 31.82 143.224 31.568C143.764 31.316 144.346 31.19 144.97 31.19C146.146 31.19 147.028 31.472 147.616 32.036C148.204 32.588 148.498 33.482 148.498 34.718V41H146.932V34.826C146.932 33.278 146.212 32.504 144.772 32.504C143.692 32.504 142.948 32.81 142.54 33.422C142.144 34.022 141.946 34.886 141.946 36.014V41H140.362V27.32H141.946V31.334ZM159.819 31.19C160.995 31.19 161.865 31.448 162.429 31.964C162.993 32.48 163.275 33.302 163.275 34.43V41H162.123L161.817 39.632H161.745C161.325 40.16 160.881 40.55 160.413 40.802C159.957 41.054 159.321 41.18 158.505 41.18C157.629 41.18 156.903 40.952 156.327 40.496C155.751 40.028 155.463 39.302 155.463 38.318C155.463 37.358 155.841 36.62 156.597 36.104C157.353 35.576 158.517 35.288 160.089 35.24L161.727 35.186V34.61C161.727 33.806 161.553 33.248 161.205 32.936C160.857 32.624 160.365 32.468 159.729 32.468C159.225 32.468 158.745 32.546 158.289 32.702C157.833 32.846 157.407 33.014 157.011 33.206L156.525 32.018C156.945 31.79 157.443 31.598 158.019 31.442C158.595 31.274 159.195 31.19 159.819 31.19ZM160.287 36.338C159.087 36.386 158.253 36.578 157.785 36.914C157.329 37.25 157.101 37.724 157.101 38.336C157.101 38.876 157.263 39.272 157.587 39.524C157.923 39.776 158.349 39.902 158.865 39.902C159.681 39.902 160.359 39.68 160.899 39.236C161.439 38.78 161.709 38.084 161.709 37.148V36.284L160.287 36.338ZM170.899 31.172C172.051 31.172 172.921 31.454 173.509 32.018C174.097 32.57 174.391 33.47 174.391 34.718V41H172.825V34.826C172.825 33.278 172.105 32.504 170.665 32.504C169.597 32.504 168.859 32.804 168.451 33.404C168.043 34.004 167.839 34.868 167.839 35.996V41H166.255V31.352H167.533L167.767 32.666H167.857C168.169 32.162 168.601 31.79 169.153 31.55C169.705 31.298 170.287 31.172 170.899 31.172ZM182.867 27.734C183.107 27.734 183.317 27.818 183.497 27.986C183.689 28.142 183.785 28.394 183.785 28.742C183.785 29.078 183.689 29.33 183.497 29.498C183.317 29.666 183.107 29.75 182.867 29.75C182.603 29.75 182.381 29.666 182.201 29.498C182.021 29.33 181.931 29.078 181.931 28.742C181.931 28.394 182.021 28.142 182.201 27.986C182.381 27.818 182.603 27.734 182.867 27.734ZM183.641 31.352V41H182.057V31.352H183.641ZM191.342 31.172C192.494 31.172 193.364 31.454 193.952 32.018C194.54 32.57 194.834 33.47 194.834 34.718V41H193.268V34.826C193.268 33.278 192.548 32.504 191.108 32.504C190.04 32.504 189.302 32.804 188.894 33.404C188.486 34.004 188.282 34.868 188.282 35.996V41H186.698V31.352H187.976L188.21 32.666H188.3C188.612 32.162 189.044 31.79 189.596 31.55C190.148 31.298 190.73 31.172 191.342 31.172ZM201.695 41.18C200.843 41.18 200.081 41.006 199.409 40.658C198.749 40.31 198.227 39.77 197.843 39.038C197.471 38.306 197.285 37.37 197.285 36.23C197.285 35.042 197.483 34.076 197.879 33.332C198.275 32.588 198.809 32.042 199.481 31.694C200.165 31.346 200.939 31.172 201.803 31.172C202.295 31.172 202.769 31.226 203.225 31.334C203.681 31.43 204.053 31.55 204.341 31.694L203.855 33.008C203.567 32.9 203.231 32.798 202.847 32.702C202.463 32.606 202.103 32.558 201.767 32.558C199.871 32.558 198.923 33.776 198.923 36.212C198.923 37.376 199.151 38.27 199.607 38.894C200.075 39.506 200.765 39.812 201.677 39.812C202.205 39.812 202.667 39.758 203.063 39.65C203.471 39.542 203.843 39.41 204.179 39.254V40.658C203.855 40.826 203.495 40.952 203.099 41.036C202.715 41.132 202.247 41.18 201.695 41.18ZM208.057 41H206.473V27.32H208.057V41ZM219.178 31.352V41H217.882L217.648 39.722H217.576C217.264 40.226 216.832 40.598 216.28 40.838C215.728 41.066 215.14 41.18 214.516 41.18C213.352 41.18 212.476 40.904 211.888 40.352C211.3 39.788 211.006 38.894 211.006 37.67V31.352H212.608V37.562C212.608 39.098 213.322 39.866 214.75 39.866C215.818 39.866 216.556 39.566 216.964 38.966C217.384 38.366 217.594 37.502 217.594 36.374V31.352H219.178ZM228.523 38.336C228.523 39.272 228.175 39.98 227.479 40.46C226.783 40.94 225.847 41.18 224.671 41.18C223.999 41.18 223.417 41.126 222.925 41.018C222.445 40.91 222.019 40.76 221.647 40.568V39.128C222.031 39.32 222.493 39.5 223.033 39.668C223.585 39.824 224.143 39.902 224.707 39.902C225.511 39.902 226.093 39.776 226.453 39.524C226.813 39.26 226.993 38.912 226.993 38.48C226.993 38.24 226.927 38.024 226.795 37.832C226.663 37.64 226.423 37.448 226.075 37.256C225.739 37.064 225.253 36.848 224.617 36.608C223.993 36.368 223.459 36.128 223.015 35.888C222.571 35.648 222.229 35.36 221.989 35.024C221.749 34.688 221.629 34.256 221.629 33.728C221.629 32.912 221.959 32.282 222.619 31.838C223.291 31.394 224.167 31.172 225.247 31.172C225.835 31.172 226.381 31.232 226.885 31.352C227.401 31.46 227.881 31.616 228.325 31.82L227.785 33.08C227.377 32.912 226.951 32.768 226.507 32.648C226.063 32.528 225.607 32.468 225.139 32.468C224.491 32.468 223.993 32.576 223.645 32.792C223.309 32.996 223.141 33.278 223.141 33.638C223.141 33.902 223.219 34.13 223.375 34.322C223.531 34.502 223.789 34.682 224.149 34.862C224.521 35.03 225.013 35.234 225.625 35.474C226.237 35.702 226.759 35.936 227.191 36.176C227.623 36.416 227.953 36.71 228.181 37.058C228.409 37.394 228.523 37.82 228.523 38.336ZM231.664 27.734C231.904 27.734 232.114 27.818 232.294 27.986C232.486 28.142 232.582 28.394 232.582 28.742C232.582 29.078 232.486 29.33 232.294 29.498C232.114 29.666 231.904 29.75 231.664 29.75C231.4 29.75 231.178 29.666 230.998 29.498C230.818 29.33 230.728 29.078 230.728 28.742C230.728 28.394 230.818 28.142 230.998 27.986C231.178 27.818 231.4 27.734 231.664 27.734ZM232.438 31.352V41H230.854V31.352H232.438ZM237.619 41L233.965 31.352H235.657L237.709 37.04C237.805 37.304 237.907 37.598 238.015 37.922C238.123 38.246 238.219 38.558 238.303 38.858C238.387 39.146 238.447 39.392 238.483 39.596H238.555C238.603 39.392 238.669 39.14 238.753 38.84C238.849 38.54 238.951 38.228 239.059 37.904C239.179 37.58 239.281 37.292 239.365 37.04L241.417 31.352H243.109L239.437 41H237.619ZM248.361 31.172C249.189 31.172 249.897 31.352 250.485 31.712C251.085 32.072 251.541 32.582 251.853 33.242C252.177 33.89 252.339 34.652 252.339 35.528V36.482H245.733C245.757 37.574 246.033 38.408 246.561 38.984C247.101 39.548 247.851 39.83 248.811 39.83C249.423 39.83 249.963 39.776 250.431 39.668C250.911 39.548 251.403 39.38 251.907 39.164V40.55C251.415 40.766 250.929 40.922 250.449 41.018C249.969 41.126 249.399 41.18 248.739 41.18C247.827 41.18 247.017 40.994 246.309 40.622C245.613 40.25 245.067 39.698 244.671 38.966C244.287 38.222 244.095 37.316 244.095 36.248C244.095 35.192 244.269 34.286 244.617 33.53C244.977 32.774 245.475 32.192 246.111 31.784C246.759 31.376 247.509 31.172 248.361 31.172ZM248.343 32.468C247.587 32.468 246.987 32.714 246.543 33.206C246.111 33.686 245.853 34.358 245.769 35.222H250.683C250.671 34.406 250.479 33.746 250.107 33.242C249.735 32.726 249.147 32.468 248.343 32.468ZM263.125 31.19C264.301 31.19 265.171 31.448 265.735 31.964C266.299 32.48 266.581 33.302 266.581 34.43V41H265.429L265.123 39.632H265.051C264.631 40.16 264.187 40.55 263.719 40.802C263.263 41.054 262.627 41.18 261.811 41.18C260.935 41.18 260.209 40.952 259.633 40.496C259.057 40.028 258.769 39.302 258.769 38.318C258.769 37.358 259.147 36.62 259.903 36.104C260.659 35.576 261.823 35.288 263.395 35.24L265.033 35.186V34.61C265.033 33.806 264.859 33.248 264.511 32.936C264.163 32.624 263.671 32.468 263.035 32.468C262.531 32.468 262.051 32.546 261.595 32.702C261.139 32.846 260.713 33.014 260.317 33.206L259.831 32.018C260.251 31.79 260.749 31.598 261.325 31.442C261.901 31.274 262.501 31.19 263.125 31.19ZM263.593 36.338C262.393 36.386 261.559 36.578 261.091 36.914C260.635 37.25 260.407 37.724 260.407 38.336C260.407 38.876 260.569 39.272 260.893 39.524C261.229 39.776 261.655 39.902 262.171 39.902C262.987 39.902 263.665 39.68 264.205 39.236C264.745 38.78 265.015 38.084 265.015 37.148V36.284L263.593 36.338ZM274.205 31.172C275.357 31.172 276.227 31.454 276.815 32.018C277.403 32.57 277.697 33.47 277.697 34.718V41H276.131V34.826C276.131 33.278 275.411 32.504 273.971 32.504C272.903 32.504 272.165 32.804 271.757 33.404C271.349 34.004 271.145 34.868 271.145 35.996V41H269.561V31.352H270.839L271.073 32.666H271.163C271.475 32.162 271.907 31.79 272.459 31.55C273.011 31.298 273.593 31.172 274.205 31.172ZM284.108 41.18C282.908 41.18 281.948 40.766 281.228 39.938C280.508 39.098 280.148 37.85 280.148 36.194C280.148 34.538 280.508 33.29 281.228 32.45C281.96 31.598 282.926 31.172 284.126 31.172C284.87 31.172 285.476 31.31 285.944 31.586C286.424 31.862 286.814 32.198 287.114 32.594H287.222C287.21 32.438 287.186 32.21 287.15 31.91C287.126 31.598 287.114 31.352 287.114 31.172V27.32H288.698V41H287.42L287.186 39.704H287.114C286.826 40.112 286.442 40.46 285.962 40.748C285.482 41.036 284.864 41.18 284.108 41.18ZM284.36 39.866C285.38 39.866 286.094 39.59 286.502 39.038C286.922 38.474 287.132 37.628 287.132 36.5V36.212C287.132 35.012 286.934 34.094 286.538 33.458C286.142 32.81 285.41 32.486 284.342 32.486C283.49 32.486 282.848 32.828 282.416 33.512C281.996 34.184 281.786 35.09 281.786 36.23C281.786 37.382 281.996 38.276 282.416 38.912C282.848 39.548 283.496 39.866 284.36 39.866ZM300.308 41.18C299.456 41.18 298.694 41.006 298.022 40.658C297.362 40.31 296.84 39.77 296.456 39.038C296.084 38.306 295.898 37.37 295.898 36.23C295.898 35.042 296.096 34.076 296.492 33.332C296.888 32.588 297.422 32.042 298.094 31.694C298.778 31.346 299.552 31.172 300.416 31.172C300.908 31.172 301.382 31.226 301.838 31.334C302.294 31.43 302.666 31.55 302.954 31.694L302.468 33.008C302.18 32.9 301.844 32.798 301.46 32.702C301.076 32.606 300.716 32.558 300.38 32.558C298.484 32.558 297.536 33.776 297.536 36.212C297.536 37.376 297.764 38.27 298.22 38.894C298.688 39.506 299.378 39.812 300.29 39.812C300.818 39.812 301.28 39.758 301.676 39.65C302.084 39.542 302.456 39.41 302.792 39.254V40.658C302.468 40.826 302.108 40.952 301.712 41.036C301.328 41.132 300.86 41.18 300.308 41.18ZM313.475 36.158C313.475 37.754 313.067 38.99 312.251 39.866C311.447 40.742 310.355 41.18 308.975 41.18C308.123 41.18 307.361 40.988 306.689 40.604C306.029 40.208 305.507 39.638 305.123 38.894C304.739 38.138 304.547 37.226 304.547 36.158C304.547 34.562 304.949 33.332 305.753 32.468C306.557 31.604 307.649 31.172 309.029 31.172C309.905 31.172 310.673 31.37 311.333 31.766C312.005 32.15 312.527 32.714 312.899 33.458C313.283 34.19 313.475 35.09 313.475 36.158ZM306.185 36.158C306.185 37.298 306.407 38.204 306.851 38.876C307.307 39.536 308.027 39.866 309.011 39.866C309.983 39.866 310.697 39.536 311.153 38.876C311.609 38.204 311.837 37.298 311.837 36.158C311.837 35.018 311.609 34.124 311.153 33.476C310.697 32.828 309.977 32.504 308.993 32.504C308.009 32.504 307.295 32.828 306.851 33.476C306.407 34.124 306.185 35.018 306.185 36.158ZM326.569 31.172C327.661 31.172 328.477 31.454 329.017 32.018C329.557 32.57 329.827 33.47 329.827 34.718V41H328.261V34.79C328.261 33.266 327.607 32.504 326.299 32.504C325.363 32.504 324.691 32.774 324.283 33.314C323.887 33.854 323.689 34.64 323.689 35.672V41H322.123V34.79C322.123 33.266 321.463 32.504 320.143 32.504C319.171 32.504 318.499 32.804 318.127 33.404C317.755 34.004 317.569 34.868 317.569 35.996V41H315.985V31.352H317.263L317.497 32.666H317.587C317.887 32.162 318.289 31.79 318.793 31.55C319.309 31.298 319.855 31.172 320.431 31.172C321.943 31.172 322.927 31.712 323.383 32.792H323.473C323.797 32.24 324.235 31.832 324.787 31.568C325.351 31.304 325.945 31.172 326.569 31.172ZM337.397 31.172C338.585 31.172 339.539 31.586 340.259 32.414C340.991 33.242 341.357 34.49 341.357 36.158C341.357 37.802 340.991 39.05 340.259 39.902C339.539 40.754 338.579 41.18 337.379 41.18C336.635 41.18 336.017 41.042 335.525 40.766C335.045 40.478 334.667 40.148 334.391 39.776H334.283C334.307 39.98 334.331 40.238 334.355 40.55C334.379 40.862 334.391 41.132 334.391 41.36V45.32H332.807V31.352H334.103L334.319 32.666H334.391C334.679 32.246 335.057 31.892 335.525 31.604C335.993 31.316 336.617 31.172 337.397 31.172ZM337.109 32.504C336.125 32.504 335.429 32.78 335.021 33.332C334.625 33.884 334.415 34.724 334.391 35.852V36.158C334.391 37.346 334.583 38.264 334.967 38.912C335.363 39.548 336.089 39.866 337.145 39.866C337.733 39.866 338.213 39.704 338.585 39.38C338.969 39.056 339.251 38.618 339.431 38.066C339.623 37.502 339.719 36.86 339.719 36.14C339.719 35.036 339.503 34.154 339.071 33.494C338.651 32.834 337.997 32.504 337.109 32.504ZM345.466 41H343.882V27.32H345.466V41ZM349.332 27.734C349.572 27.734 349.782 27.818 349.962 27.986C350.154 28.142 350.25 28.394 350.25 28.742C350.25 29.078 350.154 29.33 349.962 29.498C349.782 29.666 349.572 29.75 349.332 29.75C349.068 29.75 348.846 29.666 348.666 29.498C348.486 29.33 348.396 29.078 348.396 28.742C348.396 28.394 348.486 28.142 348.666 27.986C348.846 27.818 349.068 27.734 349.332 27.734ZM350.106 31.352V41H348.522V31.352H350.106ZM356.817 31.19C357.993 31.19 358.863 31.448 359.427 31.964C359.991 32.48 360.273 33.302 360.273 34.43V41H359.121L358.815 39.632H358.743C358.323 40.16 357.879 40.55 357.411 40.802C356.955 41.054 356.319 41.18 355.503 41.18C354.627 41.18 353.901 40.952 353.325 40.496C352.749 40.028 352.461 39.302 352.461 38.318C352.461 37.358 352.839 36.62 353.595 36.104C354.351 35.576 355.515 35.288 357.087 35.24L358.725 35.186V34.61C358.725 33.806 358.551 33.248 358.203 32.936C357.855 32.624 357.363 32.468 356.727 32.468C356.223 32.468 355.743 32.546 355.287 32.702C354.831 32.846 354.405 33.014 354.009 33.206L353.523 32.018C353.943 31.79 354.441 31.598 355.017 31.442C355.593 31.274 356.193 31.19 356.817 31.19ZM357.285 36.338C356.085 36.386 355.251 36.578 354.783 36.914C354.327 37.25 354.099 37.724 354.099 38.336C354.099 38.876 354.261 39.272 354.585 39.524C354.921 39.776 355.347 39.902 355.863 39.902C356.679 39.902 357.357 39.68 357.897 39.236C358.437 38.78 358.707 38.084 358.707 37.148V36.284L357.285 36.338ZM367.897 31.172C369.049 31.172 369.919 31.454 370.507 32.018C371.095 32.57 371.389 33.47 371.389 34.718V41H369.823V34.826C369.823 33.278 369.103 32.504 367.663 32.504C366.595 32.504 365.857 32.804 365.449 33.404C365.041 34.004 364.837 34.868 364.837 35.996V41H363.253V31.352H364.531L364.765 32.666H364.855C365.167 32.162 365.599 31.79 366.151 31.55C366.703 31.298 367.285 31.172 367.897 31.172ZM377.602 39.884C377.842 39.884 378.088 39.866 378.34 39.83C378.592 39.782 378.796 39.734 378.952 39.686V40.892C378.784 40.976 378.544 41.042 378.232 41.09C377.92 41.15 377.62 41.18 377.332 41.18C376.828 41.18 376.36 41.096 375.928 40.928C375.508 40.748 375.166 40.442 374.902 40.01C374.638 39.578 374.506 38.972 374.506 38.192V32.576H373.138V31.82L374.524 31.19L375.154 29.138H376.09V31.352H378.88V32.576H376.09V38.156C376.09 38.744 376.228 39.182 376.504 39.47C376.792 39.746 377.158 39.884 377.602 39.884ZM7.758 62.546C7.602 62.054 7.464 61.574 7.344 61.106C7.236 60.626 7.152 60.254 7.092 59.99H7.02C6.972 60.254 6.894 60.626 6.786 61.106C6.678 61.574 6.54 62.06 6.372 62.564L4.644 67.982H2.844L0.198 58.334H1.836L3.168 63.482C3.3 63.998 3.426 64.52 3.546 65.048C3.666 65.576 3.75 66.014 3.798 66.362H3.87C3.918 66.158 3.972 65.906 4.032 65.606C4.104 65.306 4.182 64.994 4.266 64.67C4.35 64.334 4.434 64.034 4.518 63.77L6.228 58.334H7.956L9.612 63.77C9.744 64.178 9.87 64.622 9.99 65.102C10.122 65.582 10.212 65.996 10.26 66.344H10.332C10.368 66.044 10.446 65.63 10.566 65.102C10.698 64.574 10.836 64.034 10.98 63.482L12.33 58.334H13.95L11.268 67.982H9.414L7.758 62.546ZM24.0684 63.158C24.0684 64.754 23.6604 65.99 22.8444 66.866C22.0404 67.742 20.9484 68.18 19.5684 68.18C18.7164 68.18 17.9544 67.988 17.2824 67.604C16.6224 67.208 16.1004 66.638 15.7164 65.894C15.3324 65.138 15.1404 64.226 15.1404 63.158C15.1404 61.562 15.5424 60.332 16.3464 59.468C17.1504 58.604 18.2424 58.172 19.6224 58.172C20.4984 58.172 21.2664 58.37 21.9264 58.766C22.5984 59.15 23.1204 59.714 23.4924 60.458C23.8764 61.19 24.0684 62.09 24.0684 63.158ZM16.7784 63.158C16.7784 64.298 17.0004 65.204 17.4444 65.876C17.9004 66.536 18.6204 66.866 19.6044 66.866C20.5764 66.866 21.2904 66.536 21.7464 65.876C22.2024 65.204 22.4304 64.298 22.4304 63.158C22.4304 62.018 22.2024 61.124 21.7464 60.476C21.2904 59.828 20.5704 59.504 19.5864 59.504C18.6024 59.504 17.8884 59.828 17.4444 60.476C17.0004 61.124 16.7784 62.018 16.7784 63.158ZM31.0788 58.172C31.2588 58.172 31.4508 58.184 31.6548 58.208C31.8708 58.22 32.0568 58.244 32.2128 58.28L32.0148 59.738C31.8588 59.702 31.6848 59.672 31.4928 59.648C31.3128 59.624 31.1388 59.612 30.9708 59.612C30.4788 59.612 30.0168 59.75 29.5848 60.026C29.1528 60.29 28.8048 60.668 28.5408 61.16C28.2888 61.64 28.1628 62.204 28.1628 62.852V68H26.5788V58.352H27.8748L28.0548 60.116H28.1268C28.4388 59.588 28.8408 59.132 29.3328 58.748C29.8248 58.364 30.4068 58.172 31.0788 58.172ZM35.5804 61.466C35.5804 61.658 35.5684 61.91 35.5444 62.222C35.5324 62.534 35.5204 62.804 35.5084 63.032H35.5804C35.6524 62.936 35.7604 62.798 35.9044 62.618C36.0484 62.438 36.1924 62.258 36.3364 62.078C36.4924 61.886 36.6244 61.73 36.7324 61.61L39.8104 58.352H41.6644L37.7584 62.474L41.9344 68H40.0264L36.6784 63.5L35.5804 64.454V68H34.0144V54.32H35.5804V61.466ZM48.2196 58.172C49.4076 58.172 50.3616 58.586 51.0816 59.414C51.8136 60.242 52.1796 61.49 52.1796 63.158C52.1796 64.802 51.8136 66.05 51.0816 66.902C50.3616 67.754 49.4016 68.18 48.2016 68.18C47.4576 68.18 46.8396 68.042 46.3476 67.766C45.8676 67.478 45.4896 67.148 45.2136 66.776H45.1056C45.1296 66.98 45.1536 67.238 45.1776 67.55C45.2016 67.862 45.2136 68.132 45.2136 68.36V72.32H43.6296V58.352H44.9256L45.1416 59.666H45.2136C45.5016 59.246 45.8796 58.892 46.3476 58.604C46.8156 58.316 47.4396 58.172 48.2196 58.172ZM47.9316 59.504C46.9476 59.504 46.2516 59.78 45.8436 60.332C45.4476 60.884 45.2376 61.724 45.2136 62.852V63.158C45.2136 64.346 45.4056 65.264 45.7896 65.912C46.1856 66.548 46.9116 66.866 47.9676 66.866C48.5556 66.866 49.0356 66.704 49.4076 66.38C49.7916 66.056 50.0736 65.618 50.2536 65.066C50.4456 64.502 50.5416 63.86 50.5416 63.14C50.5416 62.036 50.3256 61.154 49.8936 60.494C49.4736 59.834 48.8196 59.504 47.9316 59.504ZM56.2878 68H54.7038V54.32H56.2878V68ZM62.9985 58.19C64.1745 58.19 65.0445 58.448 65.6085 58.964C66.1725 59.48 66.4545 60.302 66.4545 61.43V68H65.3025L64.9965 66.632H64.9245C64.5045 67.16 64.0605 67.55 63.5925 67.802C63.1365 68.054 62.5005 68.18 61.6845 68.18C60.8085 68.18 60.0825 67.952 59.5065 67.496C58.9305 67.028 58.6425 66.302 58.6425 65.318C58.6425 64.358 59.0205 63.62 59.7765 63.104C60.5325 62.576 61.6965 62.288 63.2685 62.24L64.9065 62.186V61.61C64.9065 60.806 64.7325 60.248 64.3845 59.936C64.0365 59.624 63.5445 59.468 62.9085 59.468C62.4045 59.468 61.9245 59.546 61.4685 59.702C61.0125 59.846 60.5865 60.014 60.1905 60.206L59.7045 59.018C60.1245 58.79 60.6225 58.598 61.1985 58.442C61.7745 58.274 62.3745 58.19 62.9985 58.19ZM63.4665 63.338C62.2665 63.386 61.4325 63.578 60.9645 63.914C60.5085 64.25 60.2805 64.724 60.2805 65.336C60.2805 65.876 60.4425 66.272 60.7665 66.524C61.1025 66.776 61.5285 66.902 62.0445 66.902C62.8605 66.902 63.5385 66.68 64.0785 66.236C64.6185 65.78 64.8885 65.084 64.8885 64.148V63.284L63.4665 63.338ZM73.3043 68.18C72.4523 68.18 71.6903 68.006 71.0183 67.658C70.3583 67.31 69.8363 66.77 69.4523 66.038C69.0803 65.306 68.8943 64.37 68.8943 63.23C68.8943 62.042 69.0923 61.076 69.4883 60.332C69.8843 59.588 70.4183 59.042 71.0903 58.694C71.7743 58.346 72.5483 58.172 73.4123 58.172C73.9043 58.172 74.3783 58.226 74.8343 58.334C75.2903 58.43 75.6623 58.55 75.9503 58.694L75.4643 60.008C75.1763 59.9 74.8403 59.798 74.4563 59.702C74.0723 59.606 73.7123 59.558 73.3763 59.558C71.4803 59.558 70.5323 60.776 70.5323 63.212C70.5323 64.376 70.7603 65.27 71.2163 65.894C71.6843 66.506 72.3743 66.812 73.2863 66.812C73.8143 66.812 74.2763 66.758 74.6723 66.65C75.0803 66.542 75.4523 66.41 75.7883 66.254V67.658C75.4643 67.826 75.1043 67.952 74.7083 68.036C74.3243 68.132 73.8563 68.18 73.3043 68.18ZM81.8087 58.172C82.6367 58.172 83.3447 58.352 83.9327 58.712C84.5327 59.072 84.9887 59.582 85.3007 60.242C85.6247 60.89 85.7867 61.652 85.7867 62.528V63.482H79.1807C79.2047 64.574 79.4807 65.408 80.0087 65.984C80.5487 66.548 81.2987 66.83 82.2587 66.83C82.8707 66.83 83.4107 66.776 83.8787 66.668C84.3587 66.548 84.8507 66.38 85.3547 66.164V67.55C84.8627 67.766 84.3767 67.922 83.8967 68.018C83.4167 68.126 82.8467 68.18 82.1867 68.18C81.2747 68.18 80.4647 67.994 79.7567 67.622C79.0607 67.25 78.5147 66.698 78.1187 65.966C77.7347 65.222 77.5427 64.316 77.5427 63.248C77.5427 62.192 77.7167 61.286 78.0647 60.53C78.4247 59.774 78.9227 59.192 79.5587 58.784C80.2067 58.376 80.9567 58.172 81.8087 58.172ZM81.7907 59.468C81.0347 59.468 80.4347 59.714 79.9907 60.206C79.5587 60.686 79.3007 61.358 79.2167 62.222H84.1307C84.1187 61.406 83.9267 60.746 83.5547 60.242C83.1827 59.726 82.5947 59.468 81.7907 59.468ZM88.0089 67.028C88.0089 66.584 88.1169 66.272 88.3329 66.092C88.5489 65.912 88.8069 65.822 89.1069 65.822C89.4189 65.822 89.6829 65.912 89.8989 66.092C90.1269 66.272 90.2409 66.584 90.2409 67.028C90.2409 67.46 90.1269 67.772 89.8989 67.964C89.6829 68.156 89.4189 68.252 89.1069 68.252C88.8069 68.252 88.5489 68.156 88.3329 67.964C88.1169 67.772 88.0089 67.46 88.0089 67.028Z" fill="#FBFAF7"/>
</svg>
