<svg width="391" height="178" viewBox="0 0 391 178" fill="none" xmlns="http://www.w3.org/2000/svg">
<path d="M28.472 32.392C28.888 33.032 29.384 33.592 29.96 34.072C30.568 34.52 31.048 34.888 31.4 35.176C31.752 35.432 31.928 35.72 31.928 36.04V36.184C31.928 36.728 31.56 37 30.824 37H20.792C20.088 37 19.736 36.728 19.736 36.184V36.04C19.736 35.752 19.912 35.432 20.264 35.08C20.648 34.696 20.904 34.36 21.032 34.072C21.192 33.752 21.112 33.192 20.792 32.392L15.752 24.04L10.472 24.136V32.392C10.472 33.128 10.808 33.848 11.48 34.552C12.184 35.224 12.536 35.72 12.536 36.04V36.184C12.536 36.728 12.152 37 11.384 37H2.36C1.656 37 1.304 36.728 1.304 36.184V36.04C1.304 35.72 1.608 35.224 2.216 34.552C2.824 33.848 3.128 33.128 3.128 32.392V7.528C3.128 6.792 2.824 6.088 2.216 5.416C1.608 4.712 1.304 4.2 1.304 3.88V3.688C1.304 3.176 1.656 2.92 2.36 2.92H14.216C18.664 2.92 22.184 3.832 24.776 5.656C27.4 7.48 28.728 10.152 28.76 13.672C28.76 15.624 28.184 17.432 27.032 19.096C25.912 20.728 24.296 21.992 22.184 22.888L28.472 32.392ZM13.16 21.208H15.224C17.048 21.208 18.504 20.648 19.592 19.528C20.712 18.376 21.272 16.696 21.272 14.488C21.272 11.864 20.504 9.768 18.968 8.2C17.464 6.632 15.72 5.848 13.736 5.848H12.104C11.016 5.848 10.472 6.568 10.472 8.008V17.992C10.472 19.144 10.68 19.976 11.096 20.488C11.544 20.968 12.232 21.208 13.16 21.208ZM56.3495 32.104C56.3495 32.968 56.4615 33.624 56.6855 34.072C56.9415 34.488 57.2135 34.728 57.5015 34.792C57.7895 34.824 58.0455 34.92 58.2695 35.08C58.5255 35.24 58.6535 35.512 58.6535 35.896C58.6535 36.824 57.2295 37.288 54.3815 37.288C52.9735 37.288 51.9175 37.064 51.2135 36.616C50.5415 36.136 50.1735 35.32 50.1095 34.168C48.7655 36.376 46.4455 37.48 43.1495 37.48C40.5575 37.48 38.4135 36.616 36.7175 34.888C35.0535 33.128 34.2215 30.664 34.2215 27.496V19.384C34.2215 18.584 33.9015 17.848 33.2615 17.176C32.6535 16.472 32.3495 15.992 32.3495 15.736V15.592C32.3495 15.016 32.6855 14.68 33.3575 14.584L39.4055 13.672C40.7175 13.512 41.3735 13.8 41.3735 14.536L41.2295 28.216C41.2295 32.568 42.5575 34.744 45.2135 34.744C46.3975 34.744 47.3735 34.232 48.1415 33.208C48.9415 32.152 49.3415 30.792 49.3415 29.128V19.384C49.3415 18.584 49.0215 17.848 48.3815 17.176C47.7415 16.472 47.4215 15.992 47.4215 15.736V15.592C47.4215 15.016 47.7415 14.68 48.3815 14.584L54.5255 13.672C55.7415 13.544 56.3495 13.832 56.3495 14.536V32.104ZM85.9156 32.344C85.9796 33.112 86.2836 33.832 86.8276 34.504C87.3716 35.176 87.6436 35.688 87.6436 36.04V36.232C87.6436 36.776 87.2756 37.048 86.5396 37.048H78.2356C77.4996 37.048 77.1316 36.776 77.1316 36.232V36.04C77.1316 35.72 77.4196 35.224 77.9956 34.552C78.6036 33.88 78.8916 33.144 78.8596 32.344L78.3796 23.464C78.1556 18.632 76.7636 16.216 74.2036 16.216C72.9236 16.216 71.9156 16.696 71.1796 17.656C70.4756 18.616 70.1236 19.896 70.1236 21.496V32.392C70.1236 33.16 70.4596 33.88 71.1316 34.552C71.8356 35.224 72.1876 35.72 72.1876 36.04V36.232C72.1876 36.776 71.8196 37.048 71.0836 37.048H62.1556C61.4196 37.048 61.0516 36.776 61.0516 36.232V36.04C61.0516 35.72 61.3876 35.224 62.0596 34.552C62.7636 33.88 63.1156 33.16 63.1156 32.392V21.208C63.1156 20.728 62.9876 20.296 62.7316 19.912C62.5076 19.528 62.2356 19.256 61.9156 19.096C61.6276 18.904 61.3556 18.68 61.0996 18.424C60.8756 18.168 60.7636 17.912 60.7636 17.656V17.464C60.7636 17.112 61.0836 16.776 61.7236 16.456L67.4356 13.672C67.9796 13.416 68.3796 13.4 68.6356 13.624C68.9236 13.816 69.0676 14.168 69.0676 14.68V17.368C70.4436 14.776 72.8116 13.48 76.1716 13.48C78.6036 13.48 80.6676 14.296 82.3636 15.928C84.0916 17.56 85.0836 20.152 85.3396 23.704L85.9156 32.344ZM114.791 32.344C114.855 33.112 115.159 33.832 115.703 34.504C116.247 35.176 116.519 35.688 116.519 36.04V36.232C116.519 36.776 116.151 37.048 115.415 37.048H107.111C106.375 37.048 106.007 36.776 106.007 36.232V36.04C106.007 35.72 106.295 35.224 106.871 34.552C107.479 33.88 107.767 33.144 107.735 32.344L107.255 23.464C107.031 18.632 105.639 16.216 103.079 16.216C101.799 16.216 100.791 16.696 100.055 17.656C99.3506 18.616 98.9986 19.896 98.9986 21.496V32.392C98.9986 33.16 99.3346 33.88 100.007 34.552C100.711 35.224 101.063 35.72 101.063 36.04V36.232C101.063 36.776 100.695 37.048 99.9586 37.048H91.0306C90.2946 37.048 89.9266 36.776 89.9266 36.232V36.04C89.9266 35.72 90.2626 35.224 90.9346 34.552C91.6386 33.88 91.9906 33.16 91.9906 32.392V21.208C91.9906 20.728 91.8626 20.296 91.6066 19.912C91.3826 19.528 91.1106 19.256 90.7906 19.096C90.5026 18.904 90.2306 18.68 89.9746 18.424C89.7506 18.168 89.6386 17.912 89.6386 17.656V17.464C89.6386 17.112 89.9586 16.776 90.5986 16.456L96.3106 13.672C96.8546 13.416 97.2546 13.4 97.5106 13.624C97.7986 13.816 97.9426 14.168 97.9426 14.68V17.368C99.3186 14.776 101.687 13.48 105.047 13.48C107.479 13.48 109.543 14.296 111.239 15.928C112.967 17.56 113.959 20.152 114.215 23.704L114.791 32.344ZM127.634 9.4C126.802 10.168 125.682 10.552 124.274 10.552C122.866 10.552 121.714 10.168 120.818 9.4C119.954 8.6 119.522 7.576 119.522 6.328C119.522 5.112 119.954 4.12 120.818 3.352C121.714 2.552 122.866 2.152 124.274 2.152C125.682 2.152 126.802 2.552 127.634 3.352C128.498 4.12 128.93 5.112 128.93 6.328C128.93 7.576 128.498 8.6 127.634 9.4ZM119.906 37C119.202 37 118.85 36.728 118.85 36.184V35.992C118.85 35.672 119.154 35.176 119.762 34.504C120.37 33.832 120.674 33.112 120.674 32.344V21.496C120.674 20.696 120.37 19.944 119.762 19.24C119.154 18.536 118.85 18.056 118.85 17.8V17.656C118.85 17.336 119.186 17 119.858 16.648L125.858 13.672C126.466 13.416 126.946 13.4 127.298 13.624C127.65 13.816 127.826 14.152 127.826 14.632V32.344C127.826 33.112 128.162 33.832 128.834 34.504C129.506 35.176 129.842 35.672 129.842 35.992V36.184C129.842 36.728 129.474 37 128.738 37H119.906ZM157.494 32.344C157.558 33.112 157.862 33.832 158.406 34.504C158.95 35.176 159.222 35.688 159.222 36.04V36.232C159.222 36.776 158.854 37.048 158.118 37.048H149.814C149.078 37.048 148.71 36.776 148.71 36.232V36.04C148.71 35.72 148.998 35.224 149.574 34.552C150.182 33.88 150.47 33.144 150.438 32.344L149.958 23.464C149.734 18.632 148.342 16.216 145.782 16.216C144.502 16.216 143.494 16.696 142.758 17.656C142.054 18.616 141.702 19.896 141.702 21.496V32.392C141.702 33.16 142.038 33.88 142.71 34.552C143.414 35.224 143.766 35.72 143.766 36.04V36.232C143.766 36.776 143.398 37.048 142.662 37.048H133.734C132.998 37.048 132.63 36.776 132.63 36.232V36.04C132.63 35.72 132.966 35.224 133.638 34.552C134.342 33.88 134.694 33.16 134.694 32.392V21.208C134.694 20.728 134.566 20.296 134.31 19.912C134.086 19.528 133.814 19.256 133.494 19.096C133.206 18.904 132.934 18.68 132.678 18.424C132.454 18.168 132.342 17.912 132.342 17.656V17.464C132.342 17.112 132.662 16.776 133.302 16.456L139.014 13.672C139.558 13.416 139.958 13.4 140.214 13.624C140.502 13.816 140.646 14.168 140.646 14.68V17.368C142.022 14.776 144.39 13.48 147.75 13.48C150.182 13.48 152.246 14.296 153.942 15.928C155.67 17.56 156.662 20.152 156.918 23.704L157.494 32.344ZM182.241 13.96C183.457 13.96 184.257 14.088 184.641 14.344C185.057 14.568 185.185 14.92 185.025 15.4C184.929 15.88 184.721 16.232 184.401 16.456C184.081 16.648 183.537 16.808 182.769 16.936C182.001 17.064 181.537 17.16 181.377 17.224C183.169 19.08 184.065 21.128 184.065 23.368C184.065 25.224 183.585 26.888 182.625 28.36C181.697 29.8 180.385 30.92 178.689 31.72C182.529 32.584 184.449 34.408 184.449 37.192C184.449 39.208 183.297 40.824 180.993 42.04C178.721 43.288 175.857 43.912 172.401 43.912C168.945 43.912 166.209 43.288 164.193 42.04C162.209 40.792 161.217 39.208 161.217 37.288C161.217 36.552 161.457 35.928 161.937 35.416C162.417 34.872 163.121 34.6 164.049 34.6C164.913 34.6 165.649 34.984 166.257 35.752C166.865 36.488 167.329 37.304 167.649 38.2C168.001 39.128 168.593 39.96 169.425 40.696C170.257 41.464 171.297 41.864 172.545 41.896C174.017 41.896 175.185 41.48 176.049 40.648C176.945 39.816 177.393 38.728 177.393 37.384C177.393 34.856 176.401 33.384 174.417 32.968C173.585 33.032 172.961 33.064 172.545 33.064C169.313 33.064 166.625 32.168 164.481 30.376C162.369 28.552 161.313 26.28 161.313 23.56C161.313 20.552 162.369 18.12 164.481 16.264C166.593 14.408 169.329 13.48 172.689 13.48C173.553 13.48 174.913 13.56 176.769 13.72C178.625 13.88 180.449 13.96 182.241 13.96ZM168.081 20.392C168.081 23.016 168.625 25.432 169.713 27.64C170.833 29.816 172.129 30.904 173.601 30.904C174.721 30.904 175.601 30.472 176.241 29.608C176.913 28.712 177.249 27.544 177.249 26.104C177.249 24.536 177.025 22.952 176.577 21.352C176.129 19.752 175.457 18.392 174.561 17.272C173.665 16.152 172.689 15.592 171.633 15.592C170.545 15.592 169.681 16.024 169.041 16.888C168.401 17.752 168.081 18.92 168.081 20.392ZM206.724 37.48C204.484 37.48 202.708 36.776 201.396 35.368C200.116 33.928 199.476 31.864 199.476 29.176V16.744H197.22C196.58 16.744 196.26 16.424 196.26 15.784V14.968C196.26 14.296 196.58 13.96 197.22 13.96H198.42C199.732 13.96 200.836 13.528 201.732 12.664C202.66 11.8 203.252 10.648 203.508 9.208C203.668 8.44 204.036 8.056 204.612 8.056H205.572C206.276 8.056 206.628 8.44 206.628 9.208L206.676 13.96H212.196C212.452 13.96 212.676 14.056 212.868 14.248C213.06 14.44 213.156 14.68 213.156 14.968V15.784C213.156 16.072 213.06 16.312 212.868 16.504C212.676 16.664 212.452 16.744 212.196 16.744H206.676V29.272C206.676 30.2 206.9 30.952 207.348 31.528C207.828 32.072 208.42 32.344 209.124 32.344C210.788 32.344 211.876 31.624 212.388 30.184C212.676 29.768 213.028 29.608 213.444 29.704C213.892 29.768 214.116 30.024 214.116 30.472C214.116 32.328 213.444 33.96 212.1 35.368C210.788 36.776 208.996 37.48 206.724 37.48ZM240.406 32.296C240.47 33.064 240.774 33.784 241.318 34.456C241.862 35.128 242.134 35.64 242.134 35.992V36.184C242.134 36.728 241.782 37 241.078 37H232.726C232.022 37 231.67 36.728 231.67 36.184V35.992C231.67 35.672 231.958 35.176 232.534 34.504C233.142 33.832 233.43 33.112 233.398 32.344L232.918 23.128C232.694 18.52 231.302 16.216 228.742 16.216C227.462 16.216 226.454 16.696 225.718 17.656C225.014 18.616 224.662 19.896 224.662 21.496V32.392C224.662 33.128 224.998 33.832 225.67 34.504C226.374 35.176 226.726 35.672 226.726 35.992V36.184C226.726 36.728 226.342 37 225.574 37H216.694C215.958 37 215.59 36.728 215.59 36.184V35.992C215.59 35.672 215.926 35.176 216.598 34.504C217.27 33.832 217.605 33.128 217.605 32.392V8.488C217.605 7.72 217.238 7.032 216.502 6.424C215.798 5.816 215.446 5.352 215.446 5.032V4.888C215.446 4.408 215.766 4.008 216.406 3.688L222.742 0.903998C223.286 0.679997 223.702 0.647998 223.99 0.808C224.31 0.967999 224.47 1.288 224.47 1.768L224.422 16.168C225.926 14.376 228.022 13.48 230.71 13.48C233.142 13.48 235.206 14.28 236.902 15.88C238.598 17.448 239.558 19.928 239.781 23.32L240.406 32.296ZM263.914 29.704C264.202 29.32 264.554 29.192 264.97 29.32C265.386 29.448 265.578 29.752 265.546 30.232C265.386 31.896 264.426 33.528 262.666 35.128C260.906 36.696 258.618 37.48 255.802 37.48C252.41 37.48 249.626 36.36 247.45 34.12C245.274 31.88 244.186 28.936 244.186 25.288C244.186 21.864 245.322 19.048 247.594 16.84C249.866 14.6 252.602 13.48 255.802 13.48C258.714 13.48 260.954 14.168 262.522 15.544C264.09 16.92 264.874 18.504 264.874 20.296C264.874 21.768 264.17 22.824 262.762 23.464L252.106 28.312C253.418 31.096 255.53 32.488 258.442 32.488C259.658 32.488 260.746 32.232 261.706 31.72C262.698 31.176 263.434 30.504 263.914 29.704ZM254.938 15.592C253.69 15.592 252.698 16.2 251.962 17.416C251.226 18.6 250.858 20.12 250.858 21.976C250.858 23.544 251.018 24.92 251.338 26.104L257.53 22.984C258.362 22.568 258.778 21.816 258.778 20.728C258.778 19.64 258.426 18.52 257.722 17.368C257.018 16.184 256.09 15.592 254.938 15.592ZM287.879 37.432C284.871 37.432 282.407 36.888 280.487 35.8C278.567 34.712 277.607 33.4 277.607 31.864C277.607 31 277.863 30.344 278.375 29.896C278.919 29.448 279.623 29.224 280.487 29.224C281.415 29.224 282.167 29.56 282.743 30.232C283.319 30.872 283.719 31.592 283.943 32.392C284.199 33.192 284.647 33.928 285.287 34.6C285.959 35.24 286.823 35.56 287.879 35.56C288.903 35.56 289.735 35.288 290.375 34.744C291.047 34.2 291.383 33.416 291.383 32.392C291.383 31.24 290.919 30.328 289.991 29.656C289.095 28.984 287.991 28.488 286.679 28.168C285.367 27.816 284.055 27.432 282.743 27.016C281.431 26.568 280.311 25.816 279.383 24.76C278.487 23.672 278.039 22.264 278.039 20.536C278.039 18.488 278.935 16.808 280.727 15.496C282.551 14.152 284.903 13.48 287.783 13.48C290.695 13.48 293.063 14.056 294.887 15.208C296.743 16.328 297.671 17.672 297.671 19.24C297.671 19.944 297.399 20.536 296.855 21.016C296.343 21.496 295.703 21.736 294.935 21.736C294.039 21.736 293.319 21.416 292.775 20.776C292.231 20.104 291.847 19.384 291.623 18.616C291.399 17.816 290.999 17.096 290.423 16.456C289.847 15.784 289.095 15.448 288.167 15.448C287.239 15.448 286.487 15.768 285.911 16.408C285.335 17.016 285.047 17.768 285.047 18.664C285.047 19.56 285.287 20.312 285.767 20.92C286.247 21.528 286.871 21.992 287.639 22.312C288.407 22.632 289.255 22.936 290.183 23.224C291.111 23.48 292.039 23.784 292.967 24.136C293.927 24.456 294.791 24.856 295.559 25.336C296.327 25.816 296.951 26.504 297.431 27.4C297.911 28.264 298.151 29.32 298.151 30.568C298.151 32.552 297.223 34.2 295.367 35.512C293.511 36.792 291.015 37.432 287.879 37.432ZM325.296 32.296C325.36 33.064 325.664 33.784 326.208 34.456C326.752 35.128 327.024 35.64 327.024 35.992V36.184C327.024 36.728 326.672 37 325.968 37H317.616C316.912 37 316.56 36.728 316.56 36.184V35.992C316.56 35.672 316.848 35.176 317.424 34.504C318.032 33.832 318.32 33.112 318.288 32.344L317.808 23.128C317.584 18.52 316.192 16.216 313.632 16.216C312.352 16.216 311.344 16.696 310.608 17.656C309.904 18.616 309.552 19.896 309.552 21.496V32.392C309.552 33.128 309.888 33.832 310.56 34.504C311.264 35.176 311.616 35.672 311.616 35.992V36.184C311.616 36.728 311.232 37 310.464 37H301.584C300.848 37 300.48 36.728 300.48 36.184V35.992C300.48 35.672 300.816 35.176 301.488 34.504C302.16 33.832 302.496 33.128 302.496 32.392V8.488C302.496 7.72 302.128 7.032 301.392 6.424C300.688 5.816 300.336 5.352 300.336 5.032V4.888C300.336 4.408 300.656 4.008 301.296 3.688L307.632 0.903998C308.176 0.679997 308.592 0.647998 308.88 0.808C309.2 0.967999 309.36 1.288 309.36 1.768L309.312 16.168C310.816 14.376 312.912 13.48 315.6 13.48C318.032 13.48 320.096 14.28 321.792 15.88C323.488 17.448 324.448 19.928 324.672 23.32L325.296 32.296ZM342.18 37.48C338.372 37.48 335.22 36.312 332.724 33.976C330.26 31.608 329.028 28.728 329.028 25.336C329.028 21.912 330.244 19.08 332.676 16.84C335.108 14.6 338.036 13.48 341.46 13.48C345.14 13.48 348.212 14.648 350.676 16.984C353.14 19.288 354.372 22.152 354.372 25.576C354.372 29 353.204 31.848 350.868 34.12C348.564 36.36 345.668 37.48 342.18 37.48ZM343.044 35.368C344.356 35.368 345.364 34.76 346.068 33.544C346.804 32.328 347.172 30.616 347.172 28.408C347.172 26.584 346.9 24.712 346.356 22.792C345.844 20.84 345.06 19.16 344.004 17.752C342.948 16.312 341.78 15.592 340.5 15.592C337.556 15.592 336.084 17.928 336.084 22.6C336.084 24.328 336.34 26.152 336.852 28.072C337.396 29.992 338.212 31.688 339.3 33.16C340.42 34.632 341.668 35.368 343.044 35.368ZM389.723 13.96C390.363 13.96 390.683 14.216 390.683 14.728V14.968C390.683 15.352 390.299 15.864 389.531 16.504C388.795 17.144 388.299 17.848 388.043 18.616L381.851 35.848C381.595 36.616 381.083 37 380.315 37H378.731C377.899 37 377.371 36.616 377.147 35.848L372.731 21.64L368.267 35.848C368.011 36.616 367.483 37 366.683 37H365.579C364.811 37 364.299 36.616 364.043 35.848L357.035 18.616C356.779 17.944 356.331 17.272 355.691 16.6C355.051 15.896 354.731 15.352 354.731 14.968V14.728C354.731 14.216 355.051 13.96 355.691 13.96H364.235C364.843 13.96 365.147 14.232 365.147 14.776V14.968C365.147 15.224 365.035 15.48 364.811 15.736C364.587 15.96 364.347 16.168 364.091 16.36C363.867 16.552 363.691 16.856 363.563 17.272C363.467 17.688 363.515 18.168 363.707 18.712L367.547 29.992L372.011 15.064C372.203 14.456 372.571 14.152 373.115 14.152L375.755 14.104C376.299 14.104 376.667 14.392 376.859 14.968L381.227 29.992L384.923 19.336C385.179 18.664 385.211 18.088 385.019 17.608C384.859 17.096 384.619 16.728 384.299 16.504C384.011 16.28 383.723 16.04 383.435 15.784C383.147 15.496 383.003 15.224 383.003 14.968V14.776C383.003 14.232 383.323 13.96 383.963 13.96H389.723ZM24.968 97.296C25.032 98.064 25.336 98.784 25.88 99.456C26.424 100.128 26.696 100.64 26.696 100.992V101.184C26.696 101.728 26.344 102 25.64 102H17.288C16.584 102 16.232 101.728 16.232 101.184V100.992C16.232 100.672 16.52 100.176 17.096 99.504C17.704 98.832 17.992 98.112 17.96 97.344L17.48 88.128C17.256 83.52 15.864 81.216 13.304 81.216C12.024 81.216 11.016 81.696 10.28 82.656C9.576 83.616 9.224 84.896 9.224 86.496V97.392C9.224 98.128 9.56 98.832 10.232 99.504C10.936 100.176 11.288 100.672 11.288 100.992V101.184C11.288 101.728 10.904 102 10.136 102H1.256C0.52 102 0.152 101.728 0.152 101.184V100.992C0.152 100.672 0.488 100.176 1.16 99.504C1.832 98.832 2.168 98.128 2.168 97.392V73.488C2.168 72.72 1.8 72.032 1.064 71.424C0.36 70.816 0.00800008 70.352 0.00800008 70.032V69.888C0.00800008 69.408 0.328 69.008 0.968 68.688L7.304 65.904C7.848 65.68 8.264 65.648 8.552 65.808C8.872 65.968 9.032 66.288 9.032 66.768L8.984 81.168C10.488 79.376 12.584 78.48 15.272 78.48C17.704 78.48 19.768 79.28 21.464 80.88C23.16 82.448 24.12 84.928 24.344 88.32L24.968 97.296ZM50.684 97.2C50.78 97.936 50.956 98.528 51.212 98.976C51.5 99.424 51.788 99.712 52.076 99.84C52.364 99.936 52.62 100.064 52.844 100.224C53.068 100.384 53.18 100.608 53.18 100.896C53.18 101.824 51.644 102.288 48.572 102.288C47.164 102.288 46.124 102.112 45.452 101.76C44.812 101.376 44.428 100.688 44.3 99.696C43.052 101.552 40.924 102.48 37.916 102.48C35.228 102.48 33.052 101.856 31.388 100.608C29.724 99.36 28.892 97.568 28.892 95.232C28.86 92.928 29.676 91.136 31.34 89.856C33.004 88.576 35.084 87.936 37.58 87.936C39.692 87.936 41.436 88.416 42.812 89.376L42.764 88.8C42.444 85.76 41.996 83.616 41.42 82.368C40.844 81.12 39.868 80.496 38.492 80.496C37.628 80.496 36.924 80.816 36.38 81.456C35.836 82.096 35.452 82.8 35.228 83.568C35.004 84.336 34.636 85.04 34.124 85.68C33.612 86.32 32.956 86.64 32.156 86.64C31.292 86.64 30.588 86.4 30.044 85.92C29.532 85.408 29.276 84.752 29.276 83.952C29.276 82.288 30.156 80.96 31.916 79.968C33.708 78.976 35.9 78.48 38.492 78.48C41.596 78.48 44.14 79.36 46.124 81.12C48.108 82.88 49.276 85.28 49.628 88.32L50.684 97.2ZM40.028 100.368C41.084 100.368 41.932 99.936 42.572 99.072C43.212 98.176 43.5 97.168 43.436 96.048L43.292 94.368C43.164 92.992 42.748 91.936 42.044 91.2C41.372 90.464 40.524 90.096 39.5 90.096C38.476 90.096 37.628 90.464 36.956 91.2C36.316 91.936 35.996 92.912 35.996 94.128C35.996 95.856 36.364 97.328 37.1 98.544C37.868 99.76 38.844 100.368 40.028 100.368ZM64.7544 102.432C61.7464 102.432 59.2824 101.888 57.3624 100.8C55.4424 99.712 54.4824 98.4 54.4824 96.864C54.4824 96 54.7384 95.344 55.2504 94.896C55.7944 94.448 56.4984 94.224 57.3624 94.224C58.2904 94.224 59.0424 94.56 59.6184 95.232C60.1944 95.872 60.5944 96.592 60.8184 97.392C61.0744 98.192 61.5224 98.928 62.1624 99.6C62.8344 100.24 63.6984 100.56 64.7544 100.56C65.7784 100.56 66.6104 100.288 67.2504 99.744C67.9224 99.2 68.2584 98.416 68.2584 97.392C68.2584 96.24 67.7944 95.328 66.8664 94.656C65.9704 93.984 64.8664 93.488 63.5544 93.168C62.2424 92.816 60.9304 92.432 59.6184 92.016C58.3064 91.568 57.1864 90.816 56.2584 89.76C55.3624 88.672 54.9144 87.264 54.9144 85.536C54.9144 83.488 55.8104 81.808 57.6024 80.496C59.4264 79.152 61.7784 78.48 64.6584 78.48C67.5704 78.48 69.9384 79.056 71.7624 80.208C73.6184 81.328 74.5464 82.672 74.5464 84.24C74.5464 84.944 74.2744 85.536 73.7304 86.016C73.2184 86.496 72.5784 86.736 71.8104 86.736C70.9144 86.736 70.1944 86.416 69.6504 85.776C69.1064 85.104 68.7224 84.384 68.4984 83.616C68.2744 82.816 67.8744 82.096 67.2984 81.456C66.7224 80.784 65.9704 80.448 65.0424 80.448C64.1144 80.448 63.3624 80.768 62.7864 81.408C62.2104 82.016 61.9224 82.768 61.9224 83.664C61.9224 84.56 62.1624 85.312 62.6424 85.92C63.1224 86.528 63.7464 86.992 64.5144 87.312C65.2824 87.632 66.1304 87.936 67.0584 88.224C67.9864 88.48 68.9144 88.784 69.8424 89.136C70.8024 89.456 71.6664 89.856 72.4344 90.336C73.2024 90.816 73.8264 91.504 74.3064 92.4C74.7864 93.264 75.0264 94.32 75.0264 95.568C75.0264 97.552 74.0984 99.2 72.2424 100.512C70.3864 101.792 67.8904 102.432 64.7544 102.432ZM112.447 97.344C112.511 98.112 112.815 98.832 113.359 99.504C113.903 100.176 114.175 100.688 114.175 101.04V101.232C114.175 101.776 113.807 102.048 113.071 102.048H104.767C104.031 102.048 103.663 101.776 103.663 101.232V101.04C103.663 100.72 103.951 100.224 104.527 99.552C105.135 98.88 105.423 98.144 105.391 97.344L104.911 88.464C104.687 83.632 103.295 81.216 100.735 81.216C99.4549 81.216 98.4469 81.696 97.7109 82.656C97.0069 83.616 96.6549 84.896 96.6549 86.496V97.392C96.6549 98.16 96.9909 98.88 97.6629 99.552C98.3669 100.224 98.7189 100.72 98.7189 101.04V101.232C98.7189 101.776 98.3509 102.048 97.6149 102.048H88.6869C87.9509 102.048 87.5829 101.776 87.5829 101.232V101.04C87.5829 100.72 87.9189 100.224 88.5909 99.552C89.2949 98.88 89.6469 98.16 89.6469 97.392V86.208C89.6469 85.728 89.5189 85.296 89.2629 84.912C89.0389 84.528 88.7669 84.256 88.4469 84.096C88.1589 83.904 87.8869 83.68 87.6309 83.424C87.4069 83.168 87.2949 82.912 87.2949 82.656V82.464C87.2949 82.112 87.6149 81.776 88.2549 81.456L93.9669 78.672C94.5109 78.416 94.9109 78.4 95.1669 78.624C95.4549 78.816 95.5989 79.168 95.5989 79.68V82.368C96.9749 79.776 99.3429 78.48 102.703 78.48C105.135 78.48 107.199 79.296 108.895 80.928C110.623 82.56 111.615 85.152 111.871 88.704L112.447 97.344ZM135.898 94.704C136.186 94.32 136.538 94.192 136.954 94.32C137.37 94.448 137.562 94.752 137.53 95.232C137.37 96.896 136.41 98.528 134.65 100.128C132.89 101.696 130.602 102.48 127.786 102.48C124.394 102.48 121.61 101.36 119.434 99.12C117.258 96.88 116.17 93.936 116.17 90.288C116.17 86.864 117.306 84.048 119.578 81.84C121.85 79.6 124.586 78.48 127.786 78.48C130.698 78.48 132.938 79.168 134.506 80.544C136.074 81.92 136.858 83.504 136.858 85.296C136.858 86.768 136.154 87.824 134.746 88.464L124.09 93.312C125.402 96.096 127.514 97.488 130.426 97.488C131.642 97.488 132.73 97.232 133.69 96.72C134.682 96.176 135.418 95.504 135.898 94.704ZM126.922 80.592C125.674 80.592 124.682 81.2 123.946 82.416C123.21 83.6 122.842 85.12 122.842 86.976C122.842 88.544 123.002 89.92 123.322 91.104L129.514 87.984C130.346 87.568 130.762 86.816 130.762 85.728C130.762 84.64 130.41 83.52 129.706 82.368C129.002 81.184 128.074 80.592 126.922 80.592ZM163.134 78.96C163.806 78.96 164.142 79.216 164.142 79.728V79.92C164.142 80.304 163.71 80.848 162.846 81.552C161.982 82.224 161.422 82.896 161.166 83.568L154.542 100.848C154.286 101.616 153.758 102 152.958 102H149.838C149.134 102 148.622 101.616 148.302 100.848L140.334 83.568C140.078 82.992 139.614 82.352 138.942 81.648C138.302 80.912 137.982 80.336 137.982 79.92V79.728C137.982 79.216 138.302 78.96 138.942 78.96H148.494C149.134 78.96 149.454 79.232 149.454 79.776V79.968C149.454 80.224 149.31 80.544 149.022 80.928C148.734 81.312 148.51 81.68 148.35 82.032C148.19 82.352 148.222 82.912 148.446 83.712L153.486 96.624L157.998 84.624C158.318 83.472 158.35 82.672 158.094 82.224C157.838 81.776 157.47 81.36 156.99 80.976C156.542 80.56 156.318 80.224 156.318 79.968V79.776C156.318 79.232 156.654 78.96 157.326 78.96H163.134ZM183.851 94.704C184.139 94.32 184.491 94.192 184.907 94.32C185.323 94.448 185.515 94.752 185.483 95.232C185.323 96.896 184.363 98.528 182.603 100.128C180.843 101.696 178.555 102.48 175.739 102.48C172.347 102.48 169.563 101.36 167.387 99.12C165.211 96.88 164.123 93.936 164.123 90.288C164.123 86.864 165.259 84.048 167.531 81.84C169.803 79.6 172.539 78.48 175.739 78.48C178.651 78.48 180.891 79.168 182.459 80.544C184.027 81.92 184.811 83.504 184.811 85.296C184.811 86.768 184.107 87.824 182.699 88.464L172.043 93.312C173.355 96.096 175.467 97.488 178.379 97.488C179.595 97.488 180.683 97.232 181.643 96.72C182.635 96.176 183.371 95.504 183.851 94.704ZM174.875 80.592C173.627 80.592 172.635 81.2 171.899 82.416C171.163 83.6 170.795 85.12 170.795 86.976C170.795 88.544 170.955 89.92 171.275 91.104L177.467 87.984C178.299 87.568 178.715 86.816 178.715 85.728C178.715 84.64 178.363 83.52 177.659 82.368C176.955 81.184 176.027 80.592 174.875 80.592ZM202.581 78.48C203.957 78.48 205.029 78.896 205.797 79.728C206.597 80.528 206.997 81.568 206.997 82.848C206.997 85.376 205.973 86.64 203.925 86.64C203.093 86.64 202.437 86.432 201.957 86.016C201.509 85.568 201.237 85.088 201.141 84.576C201.045 84.064 200.853 83.6 200.565 83.184C200.277 82.736 199.845 82.512 199.269 82.512C198.405 82.512 197.765 83.024 197.349 84.048C196.933 85.072 196.725 86.32 196.725 87.792V97.392C196.725 97.968 196.917 98.48 197.301 98.928C197.717 99.344 198.117 99.712 198.501 100.032C198.917 100.352 199.125 100.672 199.125 100.992V101.184C199.125 101.728 198.773 102 198.069 102H189.189C188.453 102 188.085 101.728 188.085 101.184V100.992C188.085 100.672 188.389 100.176 188.997 99.504C189.637 98.832 189.957 98.128 189.957 97.392V86.16C189.957 85.392 189.589 84.704 188.853 84.096C188.117 83.488 187.749 83.024 187.749 82.704V82.512C187.749 82.064 188.085 81.68 188.757 81.36L194.517 78.672C195.541 78.192 196.053 78.512 196.053 79.632V83.232C197.141 80.064 199.317 78.48 202.581 78.48ZM231.542 78.48C234.55 78.48 237.158 79.52 239.366 81.6C241.606 83.68 242.726 86.512 242.726 90.096C242.726 93.712 241.622 96.688 239.414 99.024C237.238 101.328 234.614 102.48 231.542 102.48C228.95 102.48 226.854 101.632 225.254 99.936V100.992C225.254 101.696 224.886 102.048 224.15 102.048L217.958 102C217.286 102 216.95 101.728 216.95 101.184V101.04C216.95 100.72 217.254 100.224 217.862 99.552C218.502 98.848 218.822 98.112 218.822 97.344V73.824C218.822 73.024 218.454 72.304 217.718 71.664C216.982 70.992 216.614 70.496 216.614 70.176V70.032C216.614 69.584 216.982 69.2 217.718 68.88L223.91 66C224.454 65.712 224.918 65.664 225.302 65.856C225.718 66.016 225.926 66.384 225.926 66.96V80.4C227.302 79.12 229.174 78.48 231.542 78.48ZM230.822 100.416C232.39 100.416 233.59 99.776 234.422 98.496C235.286 97.216 235.718 95.376 235.718 92.976C235.718 90.896 235.494 88.928 235.046 87.072C234.63 85.216 233.958 83.664 233.03 82.416C232.102 81.168 231.03 80.544 229.814 80.544C228.694 80.544 227.766 80.992 227.03 81.888C226.294 82.784 225.926 83.952 225.926 85.392V94.08C225.926 95.712 226.422 97.184 227.414 98.496C228.438 99.776 229.574 100.416 230.822 100.416ZM264.945 94.704C265.233 94.32 265.585 94.192 266.001 94.32C266.417 94.448 266.609 94.752 266.577 95.232C266.417 96.896 265.457 98.528 263.697 100.128C261.937 101.696 259.649 102.48 256.833 102.48C253.441 102.48 250.657 101.36 248.481 99.12C246.305 96.88 245.217 93.936 245.217 90.288C245.217 86.864 246.353 84.048 248.625 81.84C250.897 79.6 253.633 78.48 256.833 78.48C259.745 78.48 261.985 79.168 263.553 80.544C265.121 81.92 265.905 83.504 265.905 85.296C265.905 86.768 265.201 87.824 263.793 88.464L253.137 93.312C254.449 96.096 256.561 97.488 259.473 97.488C260.689 97.488 261.777 97.232 262.737 96.72C263.729 96.176 264.465 95.504 264.945 94.704ZM255.969 80.592C254.721 80.592 253.729 81.2 252.993 82.416C252.257 83.6 251.889 85.12 251.889 86.976C251.889 88.544 252.049 89.92 252.369 91.104L258.561 87.984C259.393 87.568 259.809 86.816 259.809 85.728C259.809 84.64 259.457 83.52 258.753 82.368C258.049 81.184 257.121 80.592 255.969 80.592ZM288.523 94.704C288.811 94.32 289.163 94.192 289.579 94.32C289.995 94.448 290.187 94.752 290.155 95.232C289.995 96.896 289.035 98.528 287.275 100.128C285.515 101.696 283.227 102.48 280.411 102.48C277.019 102.48 274.235 101.36 272.059 99.12C269.883 96.88 268.795 93.936 268.795 90.288C268.795 86.864 269.931 84.048 272.203 81.84C274.475 79.6 277.211 78.48 280.411 78.48C283.323 78.48 285.563 79.168 287.131 80.544C288.699 81.92 289.483 83.504 289.483 85.296C289.483 86.768 288.779 87.824 287.371 88.464L276.715 93.312C278.027 96.096 280.139 97.488 283.051 97.488C284.267 97.488 285.355 97.232 286.315 96.72C287.307 96.176 288.043 95.504 288.523 94.704ZM279.547 80.592C278.299 80.592 277.307 81.2 276.571 82.416C275.835 83.6 275.467 85.12 275.467 86.976C275.467 88.544 275.627 89.92 275.947 91.104L282.139 87.984C282.971 87.568 283.387 86.816 283.387 85.728C283.387 84.64 283.035 83.52 282.331 82.368C281.627 81.184 280.699 80.592 279.547 80.592ZM317.525 97.344C317.589 98.112 317.893 98.832 318.437 99.504C318.981 100.176 319.253 100.688 319.253 101.04V101.232C319.253 101.776 318.885 102.048 318.149 102.048H309.845C309.109 102.048 308.741 101.776 308.741 101.232V101.04C308.741 100.72 309.029 100.224 309.605 99.552C310.213 98.88 310.501 98.144 310.469 97.344L309.989 88.464C309.765 83.632 308.373 81.216 305.813 81.216C304.533 81.216 303.525 81.696 302.789 82.656C302.085 83.616 301.733 84.896 301.733 86.496V97.392C301.733 98.16 302.069 98.88 302.741 99.552C303.445 100.224 303.797 100.72 303.797 101.04V101.232C303.797 101.776 303.429 102.048 302.693 102.048H293.765C293.029 102.048 292.661 101.776 292.661 101.232V101.04C292.661 100.72 292.997 100.224 293.669 99.552C294.373 98.88 294.725 98.16 294.725 97.392V86.208C294.725 85.728 294.597 85.296 294.341 84.912C294.117 84.528 293.845 84.256 293.525 84.096C293.237 83.904 292.965 83.68 292.709 83.424C292.485 83.168 292.373 82.912 292.373 82.656V82.464C292.373 82.112 292.693 81.776 293.333 81.456L299.045 78.672C299.589 78.416 299.989 78.4 300.245 78.624C300.533 78.816 300.677 79.168 300.677 79.68V82.368C302.053 79.776 304.421 78.48 307.781 78.48C310.213 78.48 312.277 79.296 313.973 80.928C315.701 82.56 316.693 85.152 316.949 88.704L317.525 97.344ZM341.364 102.432C338.356 102.432 335.892 101.888 333.972 100.8C332.052 99.712 331.092 98.4 331.092 96.864C331.092 96 331.348 95.344 331.86 94.896C332.404 94.448 333.108 94.224 333.972 94.224C334.9 94.224 335.652 94.56 336.228 95.232C336.804 95.872 337.204 96.592 337.428 97.392C337.684 98.192 338.132 98.928 338.772 99.6C339.444 100.24 340.308 100.56 341.364 100.56C342.388 100.56 343.22 100.288 343.86 99.744C344.532 99.2 344.868 98.416 344.868 97.392C344.868 96.24 344.404 95.328 343.476 94.656C342.58 93.984 341.476 93.488 340.164 93.168C338.852 92.816 337.54 92.432 336.228 92.016C334.916 91.568 333.796 90.816 332.868 89.76C331.972 88.672 331.524 87.264 331.524 85.536C331.524 83.488 332.42 81.808 334.212 80.496C336.036 79.152 338.388 78.48 341.268 78.48C344.18 78.48 346.548 79.056 348.372 80.208C350.228 81.328 351.156 82.672 351.156 84.24C351.156 84.944 350.884 85.536 350.34 86.016C349.828 86.496 349.188 86.736 348.42 86.736C347.524 86.736 346.804 86.416 346.26 85.776C345.716 85.104 345.332 84.384 345.108 83.616C344.884 82.816 344.484 82.096 343.908 81.456C343.332 80.784 342.58 80.448 341.652 80.448C340.724 80.448 339.972 80.768 339.396 81.408C338.82 82.016 338.532 82.768 338.532 83.664C338.532 84.56 338.772 85.312 339.252 85.92C339.732 86.528 340.356 86.992 341.124 87.312C341.892 87.632 342.74 87.936 343.668 88.224C344.596 88.48 345.524 88.784 346.452 89.136C347.412 89.456 348.276 89.856 349.044 90.336C349.812 90.816 350.436 91.504 350.916 92.4C351.396 93.264 351.636 94.32 351.636 95.568C351.636 97.552 350.708 99.2 348.852 100.512C346.996 101.792 344.5 102.432 341.364 102.432ZM367.165 102.48C363.357 102.48 360.205 101.312 357.709 98.976C355.245 96.608 354.013 93.728 354.013 90.336C354.013 86.912 355.229 84.08 357.661 81.84C360.093 79.6 363.021 78.48 366.445 78.48C370.125 78.48 373.197 79.648 375.661 81.984C378.125 84.288 379.357 87.152 379.357 90.576C379.357 94 378.189 96.848 375.853 99.12C373.549 101.36 370.653 102.48 367.165 102.48ZM368.029 100.368C369.341 100.368 370.349 99.76 371.053 98.544C371.789 97.328 372.157 95.616 372.157 93.408C372.157 91.584 371.885 89.712 371.341 87.792C370.829 85.84 370.045 84.16 368.989 82.752C367.933 81.312 366.765 80.592 365.484 80.592C362.541 80.592 361.069 82.928 361.069 87.6C361.069 89.328 361.325 91.152 361.837 93.072C362.381 94.992 363.197 96.688 364.285 98.16C365.405 99.632 366.653 100.368 368.029 100.368ZM19.976 159.704C20.264 159.32 20.616 159.192 21.032 159.32C21.448 159.448 21.64 159.752 21.608 160.232C21.448 161.896 20.488 163.528 18.728 165.128C16.968 166.696 14.68 167.48 11.864 167.48C8.472 167.48 5.688 166.36 3.512 164.12C1.336 161.88 0.248 158.936 0.248 155.288C0.248 151.864 1.384 149.048 3.656 146.84C5.928 144.6 8.664 143.48 11.864 143.48C14.776 143.48 17.016 144.168 18.584 145.544C20.152 146.92 20.936 148.504 20.936 150.296C20.936 151.768 20.232 152.824 18.824 153.464L8.168 158.312C9.48 161.096 11.592 162.488 14.504 162.488C15.72 162.488 16.808 162.232 17.768 161.72C18.76 161.176 19.496 160.504 19.976 159.704ZM11 145.592C9.752 145.592 8.76 146.2 8.024 147.416C7.288 148.6 6.92 150.12 6.92 151.976C6.92 153.544 7.08 154.92 7.4 156.104L13.592 152.984C14.424 152.568 14.84 151.816 14.84 150.728C14.84 149.64 14.488 148.52 13.784 147.368C13.08 146.184 12.152 145.592 11 145.592ZM45.7621 162.2C45.8581 162.936 46.0341 163.528 46.2901 163.976C46.5781 164.424 46.8661 164.712 47.1541 164.84C47.4421 164.936 47.6981 165.064 47.9221 165.224C48.1461 165.384 48.2581 165.608 48.2581 165.896C48.2581 166.824 46.7221 167.288 43.6501 167.288C42.2421 167.288 41.2021 167.112 40.5301 166.76C39.8901 166.376 39.5061 165.688 39.3781 164.696C38.1301 166.552 36.0021 167.48 32.9941 167.48C30.3061 167.48 28.1301 166.856 26.4661 165.608C24.8021 164.36 23.9701 162.568 23.9701 160.232C23.9381 157.928 24.7541 156.136 26.4181 154.856C28.0821 153.576 30.1621 152.936 32.6581 152.936C34.7701 152.936 36.5141 153.416 37.8901 154.376L37.8421 153.8C37.5221 150.76 37.0741 148.616 36.4981 147.368C35.9221 146.12 34.9461 145.496 33.5701 145.496C32.7061 145.496 32.0021 145.816 31.4581 146.456C30.9141 147.096 30.5301 147.8 30.3061 148.568C30.0821 149.336 29.7141 150.04 29.2021 150.68C28.6901 151.32 28.0341 151.64 27.2341 151.64C26.3701 151.64 25.6661 151.4 25.1221 150.92C24.6101 150.408 24.3541 149.752 24.3541 148.952C24.3541 147.288 25.2341 145.96 26.9941 144.968C28.7861 143.976 30.9781 143.48 33.5701 143.48C36.6741 143.48 39.2181 144.36 41.2021 146.12C43.1861 147.88 44.3541 150.28 44.7061 153.32L45.7621 162.2ZM35.1061 165.368C36.1621 165.368 37.0101 164.936 37.6501 164.072C38.2901 163.176 38.5781 162.168 38.5141 161.048L38.3701 159.368C38.2421 157.992 37.8261 156.936 37.1221 156.2C36.4501 155.464 35.6021 155.096 34.5781 155.096C33.5541 155.096 32.7061 155.464 32.0341 156.2C31.3941 156.936 31.0741 157.912 31.0741 159.128C31.0741 160.856 31.4421 162.328 32.1781 163.544C32.9461 164.76 33.9221 165.368 35.1061 165.368ZM59.8325 167.432C56.8245 167.432 54.3605 166.888 52.4405 165.8C50.5205 164.712 49.5605 163.4 49.5605 161.864C49.5605 161 49.8165 160.344 50.3285 159.896C50.8725 159.448 51.5765 159.224 52.4405 159.224C53.3685 159.224 54.1205 159.56 54.6965 160.232C55.2725 160.872 55.6725 161.592 55.8965 162.392C56.1525 163.192 56.6005 163.928 57.2405 164.6C57.9125 165.24 58.7765 165.56 59.8325 165.56C60.8565 165.56 61.6885 165.288 62.3285 164.744C63.0005 164.2 63.3365 163.416 63.3365 162.392C63.3365 161.24 62.8725 160.328 61.9445 159.656C61.0485 158.984 59.9445 158.488 58.6325 158.168C57.3205 157.816 56.0085 157.432 54.6965 157.016C53.3845 156.568 52.2645 155.816 51.3365 154.76C50.4405 153.672 49.9925 152.264 49.9925 150.536C49.9925 148.488 50.8885 146.808 52.6805 145.496C54.5045 144.152 56.8565 143.48 59.7365 143.48C62.6485 143.48 65.0165 144.056 66.8405 145.208C68.6965 146.328 69.6245 147.672 69.6245 149.24C69.6245 149.944 69.3525 150.536 68.8085 151.016C68.2965 151.496 67.6565 151.736 66.8885 151.736C65.9925 151.736 65.2725 151.416 64.7285 150.776C64.1845 150.104 63.8005 149.384 63.5765 148.616C63.3525 147.816 62.9525 147.096 62.3765 146.456C61.8005 145.784 61.0485 145.448 60.1205 145.448C59.1925 145.448 58.4405 145.768 57.8645 146.408C57.2885 147.016 57.0005 147.768 57.0005 148.664C57.0005 149.56 57.2405 150.312 57.7205 150.92C58.2005 151.528 58.8245 151.992 59.5925 152.312C60.3605 152.632 61.2085 152.936 62.1365 153.224C63.0645 153.48 63.9925 153.784 64.9205 154.136C65.8805 154.456 66.7445 154.856 67.5125 155.336C68.2805 155.816 68.9045 156.504 69.3845 157.4C69.8645 158.264 70.1045 159.32 70.1045 160.568C70.1045 162.552 69.1765 164.2 67.3205 165.512C65.4645 166.792 62.9685 167.432 59.8325 167.432ZM96.3005 143.96C96.9405 143.96 97.2605 144.216 97.2605 144.728V144.968C97.2605 145.384 96.9245 145.944 96.2525 146.648C95.6125 147.352 95.1325 148.04 94.8125 148.712L85.7405 168.44C85.3245 169.368 84.9725 170.12 84.6845 170.696C84.3965 171.272 83.9485 172.024 83.3405 172.952C82.7645 173.912 82.1885 174.664 81.6125 175.208C81.0365 175.752 80.3165 176.232 79.4525 176.648C78.5885 177.064 77.6925 177.272 76.7645 177.272C74.7165 177.272 73.0205 176.744 71.6765 175.688C70.3645 174.632 69.7085 173.448 69.7085 172.136C69.7085 171.272 69.9645 170.568 70.4765 170.024C70.9885 169.512 71.6925 169.256 72.5885 169.256C73.4845 169.256 74.1885 169.544 74.7005 170.12C75.2125 170.728 75.5485 171.4 75.7085 172.136C75.8685 172.872 76.1085 173.528 76.4285 174.104C76.7805 174.712 77.2285 175.016 77.7725 175.016C79.2445 175.016 80.8925 172.776 82.7165 168.296L73.1645 148.712C72.8125 148.008 72.2845 147.32 71.5805 146.648C70.9085 145.944 70.5725 145.384 70.5725 144.968V144.728C70.5725 144.216 70.9085 143.96 71.5805 143.96H80.5565C81.1645 143.96 81.4685 144.232 81.4685 144.776V144.968C81.4685 145.256 81.3245 145.592 81.0365 145.976C80.7485 146.328 80.5565 146.664 80.4605 146.984C80.3645 147.304 80.4605 147.912 80.7485 148.808L86.3645 161.816L91.5485 149.48C91.8685 148.392 91.8685 147.64 91.5485 147.224C91.2285 146.808 90.7965 146.408 90.2525 146.024C89.7085 145.608 89.4365 145.256 89.4365 144.968V144.776C89.4365 144.232 89.7725 143.96 90.4445 143.96H96.3005ZM100.816 167.48C99.5359 167.48 98.4799 167.144 97.6479 166.472C96.8159 165.768 96.3999 164.776 96.3999 163.496C96.3999 162.216 96.8159 161.24 97.6479 160.568C98.4799 159.864 99.5359 159.512 100.816 159.512C102.064 159.512 103.104 159.864 103.936 160.568C104.768 161.24 105.184 162.216 105.184 163.496C105.184 164.776 104.768 165.768 103.936 166.472C103.104 167.144 102.064 167.48 100.816 167.48Z" fill="#FBFAF7"/>
</svg>
