<svg width="370" height="46" viewBox="0 0 370 46" fill="none" xmlns="http://www.w3.org/2000/svg">
<path d="M9.036 10.562C9.036 11.702 8.622 12.59 7.794 13.226C6.966 13.862 5.85 14.18 4.446 14.18C3.726 14.18 3.06 14.126 2.448 14.018C1.836 13.91 1.326 13.76 0.918 13.568V12.02C1.35 12.212 1.884 12.386 2.52 12.542C3.168 12.698 3.834 12.776 4.518 12.776C5.478 12.776 6.198 12.59 6.678 12.218C7.17 11.846 7.416 11.342 7.416 10.706C7.416 10.286 7.326 9.932 7.146 9.644C6.966 9.356 6.654 9.092 6.21 8.852C5.778 8.6 5.172 8.336 4.392 8.06C3.3 7.664 2.472 7.178 1.908 6.602C1.356 6.026 1.08 5.24 1.08 4.244C1.08 3.56 1.254 2.978 1.602 2.498C1.95 2.006 2.43 1.628 3.042 1.364C3.666 1.1 4.38 0.967999 5.184 0.967999C5.892 0.967999 6.54 1.034 7.128 1.166C7.716 1.298 8.25 1.472 8.73 1.688L8.226 3.074C7.782 2.882 7.296 2.72 6.768 2.588C6.252 2.456 5.712 2.39 5.148 2.39C4.344 2.39 3.738 2.564 3.33 2.912C2.922 3.248 2.718 3.698 2.718 4.262C2.718 4.694 2.808 5.054 2.988 5.342C3.168 5.63 3.462 5.888 3.87 6.116C4.278 6.344 4.83 6.59 5.526 6.854C6.282 7.13 6.918 7.43 7.434 7.754C7.962 8.066 8.358 8.444 8.622 8.888C8.898 9.332 9.036 9.89 9.036 10.562ZM15.0629 4.19C16.2389 4.19 17.1089 4.448 17.6729 4.964C18.2369 5.48 18.5189 6.302 18.5189 7.43V14H17.3669L17.0609 12.632H16.9889C16.5689 13.16 16.1249 13.55 15.6569 13.802C15.2009 14.054 14.5649 14.18 13.7489 14.18C12.8729 14.18 12.1469 13.952 11.5709 13.496C10.9949 13.028 10.7069 12.302 10.7069 11.318C10.7069 10.358 11.0849 9.62 11.8409 9.104C12.5969 8.576 13.7609 8.288 15.3329 8.24L16.9709 8.186V7.61C16.9709 6.806 16.7969 6.248 16.4489 5.936C16.1009 5.624 15.6089 5.468 14.9729 5.468C14.4689 5.468 13.9889 5.546 13.5329 5.702C13.0769 5.846 12.6509 6.014 12.2549 6.206L11.7689 5.018C12.1889 4.79 12.6869 4.598 13.2629 4.442C13.8389 4.274 14.4389 4.19 15.0629 4.19ZM15.5309 9.338C14.3309 9.386 13.4969 9.578 13.0289 9.914C12.5729 10.25 12.3449 10.724 12.3449 11.336C12.3449 11.876 12.5069 12.272 12.8309 12.524C13.1669 12.776 13.5929 12.902 14.1089 12.902C14.9249 12.902 15.6029 12.68 16.1429 12.236C16.6829 11.78 16.9529 11.084 16.9529 10.148V9.284L15.5309 9.338ZM23.0828 14H21.4988V0.319999H23.0828V14ZM29.8654 4.172C30.6934 4.172 31.4014 4.352 31.9894 4.712C32.5894 5.072 33.0454 5.582 33.3574 6.242C33.6814 6.89 33.8434 7.652 33.8434 8.528V9.482H27.2374C27.2614 10.574 27.5374 11.408 28.0654 11.984C28.6054 12.548 29.3554 12.83 30.3154 12.83C30.9274 12.83 31.4674 12.776 31.9354 12.668C32.4154 12.548 32.9074 12.38 33.4114 12.164V13.55C32.9194 13.766 32.4334 13.922 31.9534 14.018C31.4734 14.126 30.9034 14.18 30.2434 14.18C29.3314 14.18 28.5214 13.994 27.8134 13.622C27.1174 13.25 26.5714 12.698 26.1754 11.966C25.7914 11.222 25.5994 10.316 25.5994 9.248C25.5994 8.192 25.7734 7.286 26.1214 6.53C26.4814 5.774 26.9794 5.192 27.6154 4.784C28.2634 4.376 29.0134 4.172 29.8654 4.172ZM29.8474 5.468C29.0914 5.468 28.4914 5.714 28.0474 6.206C27.6154 6.686 27.3574 7.358 27.2734 8.222H32.1874C32.1754 7.406 31.9834 6.746 31.6114 6.242C31.2394 5.726 30.6514 5.468 29.8474 5.468ZM42.5815 11.336C42.5815 12.272 42.2335 12.98 41.5375 13.46C40.8415 13.94 39.9055 14.18 38.7295 14.18C38.0575 14.18 37.4755 14.126 36.9835 14.018C36.5035 13.91 36.0775 13.76 35.7055 13.568V12.128C36.0895 12.32 36.5515 12.5 37.0915 12.668C37.6435 12.824 38.2015 12.902 38.7655 12.902C39.5695 12.902 40.1515 12.776 40.5115 12.524C40.8715 12.26 41.0515 11.912 41.0515 11.48C41.0515 11.24 40.9855 11.024 40.8535 10.832C40.7215 10.64 40.4815 10.448 40.1335 10.256C39.7975 10.064 39.3115 9.848 38.6755 9.608C38.0515 9.368 37.5175 9.128 37.0735 8.888C36.6295 8.648 36.2875 8.36 36.0475 8.024C35.8075 7.688 35.6875 7.256 35.6875 6.728C35.6875 5.912 36.0175 5.282 36.6775 4.838C37.3495 4.394 38.2255 4.172 39.3055 4.172C39.8935 4.172 40.4395 4.232 40.9435 4.352C41.4595 4.46 41.9395 4.616 42.3835 4.82L41.8435 6.08C41.4355 5.912 41.0095 5.768 40.5655 5.648C40.1215 5.528 39.6655 5.468 39.1975 5.468C38.5495 5.468 38.0515 5.576 37.7035 5.792C37.3675 5.996 37.1995 6.278 37.1995 6.638C37.1995 6.902 37.2775 7.13 37.4335 7.322C37.5895 7.502 37.8475 7.682 38.2075 7.862C38.5795 8.03 39.0715 8.234 39.6835 8.474C40.2955 8.702 40.8175 8.936 41.2495 9.176C41.6815 9.416 42.0115 9.71 42.2395 10.058C42.4675 10.394 42.5815 10.82 42.5815 11.336ZM46.8388 12.11C46.6828 12.746 46.4548 13.442 46.1548 14.198C45.8668 14.966 45.5788 15.674 45.2908 16.322H44.1208C44.2888 15.638 44.4568 14.888 44.6248 14.072C44.8048 13.256 44.9368 12.536 45.0208 11.912H46.7128L46.8388 12.11ZM58.059 4.19C59.235 4.19 60.105 4.448 60.669 4.964C61.233 5.48 61.515 6.302 61.515 7.43V14H60.363L60.057 12.632H59.985C59.565 13.16 59.121 13.55 58.653 13.802C58.197 14.054 57.561 14.18 56.745 14.18C55.869 14.18 55.143 13.952 54.567 13.496C53.991 13.028 53.703 12.302 53.703 11.318C53.703 10.358 54.081 9.62 54.837 9.104C55.593 8.576 56.757 8.288 58.329 8.24L59.967 8.186V7.61C59.967 6.806 59.793 6.248 59.445 5.936C59.097 5.624 58.605 5.468 57.969 5.468C57.465 5.468 56.985 5.546 56.529 5.702C56.073 5.846 55.647 6.014 55.251 6.206L54.765 5.018C55.185 4.79 55.683 4.598 56.259 4.442C56.835 4.274 57.435 4.19 58.059 4.19ZM58.527 9.338C57.327 9.386 56.493 9.578 56.025 9.914C55.569 10.25 55.341 10.724 55.341 11.336C55.341 11.876 55.503 12.272 55.827 12.524C56.163 12.776 56.589 12.902 57.105 12.902C57.921 12.902 58.599 12.68 59.139 12.236C59.679 11.78 59.949 11.084 59.949 10.148V9.284L58.527 9.338ZM68.3648 14.18C67.5128 14.18 66.7508 14.006 66.0788 13.658C65.4188 13.31 64.8968 12.77 64.5128 12.038C64.1408 11.306 63.9548 10.37 63.9548 9.23C63.9548 8.042 64.1528 7.076 64.5488 6.332C64.9448 5.588 65.4788 5.042 66.1508 4.694C66.8348 4.346 67.6088 4.172 68.4728 4.172C68.9648 4.172 69.4388 4.226 69.8948 4.334C70.3508 4.43 70.7228 4.55 71.0108 4.694L70.5248 6.008C70.2368 5.9 69.9008 5.798 69.5168 5.702C69.1328 5.606 68.7728 5.558 68.4368 5.558C66.5408 5.558 65.5928 6.776 65.5928 9.212C65.5928 10.376 65.8208 11.27 66.2768 11.894C66.7448 12.506 67.4348 12.812 68.3468 12.812C68.8748 12.812 69.3368 12.758 69.7328 12.65C70.1408 12.542 70.5128 12.41 70.8488 12.254V13.658C70.5248 13.826 70.1648 13.952 69.7688 14.036C69.3848 14.132 68.9168 14.18 68.3648 14.18ZM77.0133 14.18C76.1613 14.18 75.3993 14.006 74.7273 13.658C74.0673 13.31 73.5453 12.77 73.1613 12.038C72.7893 11.306 72.6033 10.37 72.6033 9.23C72.6033 8.042 72.8013 7.076 73.1973 6.332C73.5933 5.588 74.1273 5.042 74.7993 4.694C75.4833 4.346 76.2573 4.172 77.1213 4.172C77.6133 4.172 78.0873 4.226 78.5433 4.334C78.9993 4.43 79.3713 4.55 79.6593 4.694L79.1733 6.008C78.8853 5.9 78.5493 5.798 78.1653 5.702C77.7813 5.606 77.4213 5.558 77.0853 5.558C75.1893 5.558 74.2413 6.776 74.2413 9.212C74.2413 10.376 74.4693 11.27 74.9253 11.894C75.3933 12.506 76.0833 12.812 76.9953 12.812C77.5233 12.812 77.9853 12.758 78.3813 12.65C78.7893 12.542 79.1613 12.41 79.4973 12.254V13.658C79.1733 13.826 78.8133 13.952 78.4173 14.036C78.0333 14.132 77.5653 14.18 77.0133 14.18ZM90.1797 9.158C90.1797 10.754 89.7717 11.99 88.9557 12.866C88.1517 13.742 87.0597 14.18 85.6797 14.18C84.8277 14.18 84.0657 13.988 83.3937 13.604C82.7337 13.208 82.2117 12.638 81.8277 11.894C81.4437 11.138 81.2517 10.226 81.2517 9.158C81.2517 7.562 81.6537 6.332 82.4577 5.468C83.2617 4.604 84.3537 4.172 85.7337 4.172C86.6097 4.172 87.3777 4.37 88.0377 4.766C88.7097 5.15 89.2317 5.714 89.6037 6.458C89.9877 7.19 90.1797 8.09 90.1797 9.158ZM82.8897 9.158C82.8897 10.298 83.1117 11.204 83.5557 11.876C84.0117 12.536 84.7317 12.866 85.7157 12.866C86.6877 12.866 87.4017 12.536 87.8577 11.876C88.3137 11.204 88.5417 10.298 88.5417 9.158C88.5417 8.018 88.3137 7.124 87.8577 6.476C87.4017 5.828 86.6817 5.504 85.6977 5.504C84.7137 5.504 83.9997 5.828 83.5557 6.476C83.1117 7.124 82.8897 8.018 82.8897 9.158ZM100.754 4.352V14H99.4582L99.2242 12.722H99.1522C98.8402 13.226 98.4082 13.598 97.8562 13.838C97.3042 14.066 96.7162 14.18 96.0922 14.18C94.9282 14.18 94.0522 13.904 93.4642 13.352C92.8762 12.788 92.5822 11.894 92.5822 10.67V4.352H94.1842V10.562C94.1842 12.098 94.8982 12.866 96.3262 12.866C97.3942 12.866 98.1322 12.566 98.5402 11.966C98.9602 11.366 99.1702 10.502 99.1702 9.374V4.352H100.754ZM108.461 4.172C109.613 4.172 110.483 4.454 111.071 5.018C111.659 5.57 111.953 6.47 111.953 7.718V14H110.387V7.826C110.387 6.278 109.667 5.504 108.227 5.504C107.159 5.504 106.421 5.804 106.013 6.404C105.605 7.004 105.401 7.868 105.401 8.996V14H103.817V4.352H105.095L105.329 5.666H105.419C105.731 5.162 106.163 4.79 106.715 4.55C107.267 4.298 107.849 4.172 108.461 4.172ZM118.166 12.884C118.406 12.884 118.652 12.866 118.904 12.83C119.156 12.782 119.36 12.734 119.516 12.686V13.892C119.348 13.976 119.108 14.042 118.796 14.09C118.484 14.15 118.184 14.18 117.896 14.18C117.392 14.18 116.924 14.096 116.492 13.928C116.072 13.748 115.73 13.442 115.466 13.01C115.202 12.578 115.07 11.972 115.07 11.192V5.576H113.702V4.82L115.088 4.19L115.718 2.138H116.654V4.352H119.444V5.576H116.654V11.156C116.654 11.744 116.792 12.182 117.068 12.47C117.356 12.746 117.722 12.884 118.166 12.884ZM122.258 0.733999C122.498 0.733999 122.708 0.817999 122.888 0.985999C123.08 1.142 123.176 1.394 123.176 1.742C123.176 2.078 123.08 2.33 122.888 2.498C122.708 2.666 122.498 2.75 122.258 2.75C121.994 2.75 121.772 2.666 121.592 2.498C121.412 2.33 121.322 2.078 121.322 1.742C121.322 1.394 121.412 1.142 121.592 0.985999C121.772 0.817999 121.994 0.733999 122.258 0.733999ZM123.032 4.352V14H121.448V4.352H123.032ZM130.733 4.172C131.885 4.172 132.755 4.454 133.343 5.018C133.931 5.57 134.225 6.47 134.225 7.718V14H132.659V7.826C132.659 6.278 131.939 5.504 130.499 5.504C129.431 5.504 128.693 5.804 128.285 6.404C127.877 7.004 127.673 7.868 127.673 8.996V14H126.089V4.352H127.367L127.601 5.666H127.691C128.003 5.162 128.435 4.79 128.987 4.55C129.539 4.298 130.121 4.172 130.733 4.172ZM140.636 4.172C141.272 4.172 141.842 4.292 142.346 4.532C142.862 4.772 143.3 5.138 143.66 5.63H143.75L143.966 4.352H145.226V14.162C145.226 15.542 144.872 16.58 144.164 17.276C143.468 17.972 142.382 18.32 140.906 18.32C139.49 18.32 138.332 18.116 137.432 17.708V16.25C138.38 16.754 139.568 17.006 140.996 17.006C141.824 17.006 142.472 16.76 142.94 16.268C143.42 15.788 143.66 15.128 143.66 14.288V13.91C143.66 13.766 143.666 13.562 143.678 13.298C143.69 13.022 143.702 12.83 143.714 12.722H143.642C142.994 13.694 141.998 14.18 140.654 14.18C139.406 14.18 138.428 13.742 137.72 12.866C137.024 11.99 136.676 10.766 136.676 9.194C136.676 7.658 137.024 6.44 137.72 5.54C138.428 4.628 139.4 4.172 140.636 4.172ZM140.852 5.504C140.048 5.504 139.424 5.828 138.98 6.476C138.536 7.112 138.314 8.024 138.314 9.212C138.314 10.4 138.53 11.312 138.962 11.948C139.406 12.572 140.048 12.884 140.888 12.884C141.86 12.884 142.568 12.626 143.012 12.11C143.456 11.582 143.678 10.736 143.678 9.572V9.194C143.678 7.874 143.45 6.932 142.994 6.368C142.538 5.792 141.824 5.504 140.852 5.504ZM150.216 12.11C150.06 12.746 149.832 13.442 149.532 14.198C149.244 14.966 148.956 15.674 148.668 16.322H147.498C147.666 15.638 147.834 14.888 148.002 14.072C148.182 13.256 148.314 12.536 148.398 11.912H150.09L150.216 12.11ZM167.826 14H166.206V8.006H159.618V14H157.998V1.148H159.618V6.584H166.206V1.148H167.826V14ZM174.886 1.148C176.482 1.148 177.658 1.454 178.414 2.066C179.182 2.666 179.566 3.578 179.566 4.802C179.566 5.486 179.44 6.056 179.188 6.512C178.936 6.968 178.612 7.334 178.216 7.61C177.832 7.874 177.424 8.084 176.992 8.24L180.52 14H178.63L175.516 8.69H172.96V14H171.34V1.148H174.886ZM174.796 2.552H172.96V7.322H174.886C175.93 7.322 176.692 7.118 177.172 6.71C177.652 6.29 177.892 5.678 177.892 4.874C177.892 4.034 177.64 3.44 177.136 3.092C176.632 2.732 175.852 2.552 174.796 2.552ZM181.511 9.878V8.474H198.071V9.878H181.511ZM216.427 7.556C216.427 8.888 216.199 10.052 215.743 11.048C215.299 12.032 214.639 12.8 213.763 13.352C212.887 13.904 211.801 14.18 210.505 14.18C209.173 14.18 208.063 13.904 207.175 13.352C206.299 12.8 205.645 12.026 205.213 11.03C204.781 10.034 204.565 8.87 204.565 7.538C204.565 6.218 204.781 5.066 205.213 4.082C205.645 3.098 206.299 2.33 207.175 1.778C208.063 1.226 209.179 0.95 210.523 0.95C211.807 0.95 212.887 1.226 213.763 1.778C214.639 2.318 215.299 3.086 215.743 4.082C216.199 5.066 216.427 6.224 216.427 7.556ZM206.275 7.556C206.275 9.176 206.617 10.454 207.301 11.39C207.985 12.314 209.053 12.776 210.505 12.776C211.969 12.776 213.037 12.314 213.709 11.39C214.381 10.454 214.717 9.176 214.717 7.556C214.717 5.936 214.381 4.67 213.709 3.758C213.037 2.834 211.975 2.372 210.523 2.372C209.071 2.372 207.997 2.834 207.301 3.758C206.617 4.67 206.275 5.936 206.275 7.556ZM220.643 4.334C220.643 4.814 220.613 5.264 220.553 5.684H220.661C220.973 5.192 221.393 4.82 221.921 4.568C222.461 4.316 223.043 4.19 223.667 4.19C224.843 4.19 225.725 4.472 226.313 5.036C226.901 5.588 227.195 6.482 227.195 7.718V14H225.629V7.826C225.629 6.278 224.909 5.504 223.469 5.504C222.389 5.504 221.645 5.81 221.237 6.422C220.841 7.022 220.643 7.886 220.643 9.014V14H219.059V0.319999H220.643V4.334ZM240.748 14L236.518 2.732H236.446C236.482 3.104 236.512 3.608 236.536 4.244C236.56 4.868 236.572 5.522 236.572 6.206V14H235.078V1.148H237.472L241.432 11.678H241.504L245.536 1.148H247.912V14H246.31V6.098C246.31 5.474 246.322 4.856 246.346 4.244C246.382 3.632 246.412 3.134 246.436 2.75H246.364L242.08 14H240.748ZM249.68 4.352H251.372L253.46 9.842C253.64 10.322 253.802 10.784 253.946 11.228C254.09 11.66 254.198 12.074 254.27 12.47H254.342C254.414 12.17 254.528 11.78 254.684 11.3C254.84 10.808 255.002 10.316 255.17 9.824L257.132 4.352H258.842L254.684 15.332C254.348 16.244 253.91 16.97 253.37 17.51C252.842 18.05 252.11 18.32 251.174 18.32C250.886 18.32 250.634 18.302 250.418 18.266C250.202 18.242 250.016 18.212 249.86 18.176V16.916C249.992 16.94 250.148 16.964 250.328 16.988C250.52 17.012 250.718 17.024 250.922 17.024C251.474 17.024 251.918 16.868 252.254 16.556C252.602 16.244 252.872 15.83 253.064 15.314L253.568 14.036L249.68 4.352ZM261.772 10.382H260.746L260.296 1.148H262.222L261.772 10.382ZM260.134 13.028C260.134 12.584 260.242 12.272 260.458 12.092C260.674 11.912 260.938 11.822 261.25 11.822C261.55 11.822 261.808 11.912 262.024 12.092C262.252 12.272 262.366 12.584 262.366 13.028C262.366 13.46 262.252 13.772 262.024 13.964C261.808 14.156 261.55 14.252 261.25 14.252C260.938 14.252 260.674 14.156 260.458 13.964C260.242 13.772 260.134 13.46 260.134 13.028ZM273.442 7.466L276.79 1.148H278.536L274.252 9.014V14H272.632V9.086L268.348 1.148H270.112L273.442 7.466ZM287.564 9.158C287.564 10.754 287.156 11.99 286.34 12.866C285.536 13.742 284.444 14.18 283.064 14.18C282.212 14.18 281.45 13.988 280.778 13.604C280.118 13.208 279.596 12.638 279.212 11.894C278.828 11.138 278.636 10.226 278.636 9.158C278.636 7.562 279.038 6.332 279.842 5.468C280.646 4.604 281.738 4.172 283.118 4.172C283.994 4.172 284.762 4.37 285.422 4.766C286.094 5.15 286.616 5.714 286.988 6.458C287.372 7.19 287.564 8.09 287.564 9.158ZM280.274 9.158C280.274 10.298 280.496 11.204 280.94 11.876C281.396 12.536 282.116 12.866 283.1 12.866C284.072 12.866 284.786 12.536 285.242 11.876C285.698 11.204 285.926 10.298 285.926 9.158C285.926 8.018 285.698 7.124 285.242 6.476C284.786 5.828 284.066 5.504 283.082 5.504C282.098 5.504 281.384 5.828 280.94 6.476C280.496 7.124 280.274 8.018 280.274 9.158ZM298.139 4.352V14H296.843L296.609 12.722H296.537C296.225 13.226 295.793 13.598 295.241 13.838C294.689 14.066 294.101 14.18 293.477 14.18C292.313 14.18 291.437 13.904 290.849 13.352C290.261 12.788 289.967 11.894 289.967 10.67V4.352H291.569V10.562C291.569 12.098 292.283 12.866 293.711 12.866C294.779 12.866 295.517 12.566 295.925 11.966C296.345 11.366 296.555 10.502 296.555 9.374V4.352H298.139ZM309.748 14.18C308.896 14.18 308.134 14.006 307.462 13.658C306.802 13.31 306.28 12.77 305.896 12.038C305.524 11.306 305.338 10.37 305.338 9.23C305.338 8.042 305.536 7.076 305.932 6.332C306.328 5.588 306.862 5.042 307.534 4.694C308.218 4.346 308.992 4.172 309.856 4.172C310.348 4.172 310.822 4.226 311.278 4.334C311.734 4.43 312.106 4.55 312.394 4.694L311.908 6.008C311.62 5.9 311.284 5.798 310.9 5.702C310.516 5.606 310.156 5.558 309.82 5.558C307.924 5.558 306.976 6.776 306.976 9.212C306.976 10.376 307.204 11.27 307.66 11.894C308.128 12.506 308.818 12.812 309.73 12.812C310.258 12.812 310.72 12.758 311.116 12.65C311.524 12.542 311.896 12.41 312.232 12.254V13.658C311.908 13.826 311.548 13.952 311.152 14.036C310.768 14.132 310.3 14.18 309.748 14.18ZM318.18 4.19C319.356 4.19 320.226 4.448 320.79 4.964C321.354 5.48 321.636 6.302 321.636 7.43V14H320.484L320.178 12.632H320.106C319.686 13.16 319.242 13.55 318.774 13.802C318.318 14.054 317.682 14.18 316.866 14.18C315.99 14.18 315.264 13.952 314.688 13.496C314.112 13.028 313.824 12.302 313.824 11.318C313.824 10.358 314.202 9.62 314.958 9.104C315.714 8.576 316.878 8.288 318.45 8.24L320.088 8.186V7.61C320.088 6.806 319.914 6.248 319.566 5.936C319.218 5.624 318.726 5.468 318.09 5.468C317.586 5.468 317.106 5.546 316.65 5.702C316.194 5.846 315.768 6.014 315.372 6.206L314.886 5.018C315.306 4.79 315.804 4.598 316.38 4.442C316.956 4.274 317.556 4.19 318.18 4.19ZM318.648 9.338C317.448 9.386 316.614 9.578 316.146 9.914C315.69 10.25 315.462 10.724 315.462 11.336C315.462 11.876 315.624 12.272 315.948 12.524C316.284 12.776 316.71 12.902 317.226 12.902C318.042 12.902 318.72 12.68 319.26 12.236C319.8 11.78 320.07 11.084 320.07 10.148V9.284L318.648 9.338ZM329.26 4.172C330.412 4.172 331.282 4.454 331.87 5.018C332.458 5.57 332.752 6.47 332.752 7.718V14H331.186V7.826C331.186 6.278 330.466 5.504 329.026 5.504C327.958 5.504 327.22 5.804 326.812 6.404C326.404 7.004 326.2 7.868 326.2 8.996V14H324.616V4.352H325.894L326.128 5.666H326.218C326.53 5.162 326.962 4.79 327.514 4.55C328.066 4.298 328.648 4.172 329.26 4.172ZM336.971 1.346C336.815 1.97 336.587 2.672 336.287 3.452C335.999 4.22 335.711 4.922 335.423 5.558H334.253C334.373 5.102 334.487 4.616 334.595 4.1C334.715 3.572 334.823 3.056 334.919 2.552C335.015 2.036 335.093 1.568 335.153 1.148H336.845L336.971 1.346ZM341.936 12.884C342.176 12.884 342.422 12.866 342.674 12.83C342.926 12.782 343.13 12.734 343.286 12.686V13.892C343.118 13.976 342.878 14.042 342.566 14.09C342.254 14.15 341.954 14.18 341.666 14.18C341.162 14.18 340.694 14.096 340.262 13.928C339.842 13.748 339.5 13.442 339.236 13.01C338.972 12.578 338.84 11.972 338.84 11.192V5.576H337.472V4.82L338.858 4.19L339.488 2.138H340.424V4.352H343.214V5.576H340.424V11.156C340.424 11.744 340.562 12.182 340.838 12.47C341.126 12.746 341.492 12.884 341.936 12.884ZM353.313 14.18C352.113 14.18 351.153 13.766 350.433 12.938C349.713 12.098 349.353 10.85 349.353 9.194C349.353 7.538 349.713 6.29 350.433 5.45C351.165 4.598 352.131 4.172 353.331 4.172C354.075 4.172 354.681 4.31 355.149 4.586C355.629 4.862 356.019 5.198 356.319 5.594H356.427C356.415 5.438 356.391 5.21 356.355 4.91C356.331 4.598 356.319 4.352 356.319 4.172V0.319999H357.903V14H356.625L356.391 12.704H356.319C356.031 13.112 355.647 13.46 355.167 13.748C354.687 14.036 354.069 14.18 353.313 14.18ZM353.565 12.866C354.585 12.866 355.299 12.59 355.707 12.038C356.127 11.474 356.337 10.628 356.337 9.5V9.212C356.337 8.012 356.139 7.094 355.743 6.458C355.347 5.81 354.615 5.486 353.547 5.486C352.695 5.486 352.053 5.828 351.621 6.512C351.201 7.184 350.991 8.09 350.991 9.23C350.991 10.382 351.201 11.276 351.621 11.912C352.053 12.548 352.701 12.866 353.565 12.866ZM369.355 9.158C369.355 10.754 368.948 11.99 368.132 12.866C367.328 13.742 366.236 14.18 364.856 14.18C364.004 14.18 363.242 13.988 362.57 13.604C361.91 13.208 361.388 12.638 361.004 11.894C360.62 11.138 360.428 10.226 360.428 9.158C360.428 7.562 360.83 6.332 361.634 5.468C362.438 4.604 363.53 4.172 364.91 4.172C365.786 4.172 366.554 4.37 367.214 4.766C367.886 5.15 368.408 5.714 368.78 6.458C369.164 7.19 369.355 8.09 369.355 9.158ZM362.066 9.158C362.066 10.298 362.288 11.204 362.732 11.876C363.188 12.536 363.908 12.866 364.892 12.866C365.864 12.866 366.578 12.536 367.034 11.876C367.49 11.204 367.718 10.298 367.718 9.158C367.718 8.018 367.49 7.124 367.034 6.476C366.578 5.828 365.858 5.504 364.874 5.504C363.89 5.504 363.176 5.828 362.732 6.476C362.288 7.124 362.066 8.018 362.066 9.158ZM2.34 27.734C2.58 27.734 2.79 27.818 2.97 27.986C3.162 28.142 3.258 28.394 3.258 28.742C3.258 29.078 3.162 29.33 2.97 29.498C2.79 29.666 2.58 29.75 2.34 29.75C2.076 29.75 1.854 29.666 1.674 29.498C1.494 29.33 1.404 29.078 1.404 28.742C1.404 28.394 1.494 28.142 1.674 27.986C1.854 27.818 2.076 27.734 2.34 27.734ZM3.114 31.352V41H1.53V31.352H3.114ZM9.39262 39.884C9.63263 39.884 9.87863 39.866 10.1306 39.83C10.3826 39.782 10.5866 39.734 10.7426 39.686V40.892C10.5746 40.976 10.3346 41.042 10.0226 41.09C9.71063 41.15 9.41063 41.18 9.12263 41.18C8.61863 41.18 8.15063 41.096 7.71863 40.928C7.29863 40.748 6.95663 40.442 6.69263 40.01C6.42863 39.578 6.29663 38.972 6.29663 38.192V32.576H4.92863V31.82L6.31463 31.19L6.94463 29.138H7.88063V31.352H10.6706V32.576H7.88063V38.156C7.88063 38.744 8.01863 39.182 8.29463 39.47C8.58263 39.746 8.94863 39.884 9.39262 39.884ZM21.0043 31.19C22.1803 31.19 23.0503 31.448 23.6143 31.964C24.1783 32.48 24.4603 33.302 24.4603 34.43V41H23.3083L23.0023 39.632H22.9303C22.5103 40.16 22.0663 40.55 21.5983 40.802C21.1423 41.054 20.5063 41.18 19.6903 41.18C18.8143 41.18 18.0883 40.952 17.5123 40.496C16.9363 40.028 16.6483 39.302 16.6483 38.318C16.6483 37.358 17.0263 36.62 17.7823 36.104C18.5383 35.576 19.7023 35.288 21.2743 35.24L22.9123 35.186V34.61C22.9123 33.806 22.7383 33.248 22.3903 32.936C22.0423 32.624 21.5503 32.468 20.9143 32.468C20.4103 32.468 19.9303 32.546 19.4743 32.702C19.0183 32.846 18.5923 33.014 18.1963 33.206L17.7103 32.018C18.1303 31.79 18.6283 31.598 19.2043 31.442C19.7803 31.274 20.3803 31.19 21.0043 31.19ZM21.4723 36.338C20.2723 36.386 19.4383 36.578 18.9703 36.914C18.5143 37.25 18.2863 37.724 18.2863 38.336C18.2863 38.876 18.4483 39.272 18.7723 39.524C19.1083 39.776 19.5343 39.902 20.0503 39.902C20.8663 39.902 21.5443 39.68 22.0843 39.236C22.6243 38.78 22.8943 38.084 22.8943 37.148V36.284L21.4723 36.338ZM29.0242 41H27.4402V27.32H29.0242V41ZM33.6648 41H32.0808V27.32H33.6648V41ZM40.5872 36.878V35.474H44.9432V36.878H40.5872ZM53.4578 41H51.8738V27.32H53.4578V41ZM60.2404 31.172C61.0684 31.172 61.7764 31.352 62.3644 31.712C62.9644 32.072 63.4204 32.582 63.7324 33.242C64.0564 33.89 64.2184 34.652 64.2184 35.528V36.482H57.6124C57.6364 37.574 57.9124 38.408 58.4404 38.984C58.9804 39.548 59.7304 39.83 60.6904 39.83C61.3024 39.83 61.8424 39.776 62.3104 39.668C62.7904 39.548 63.2824 39.38 63.7864 39.164V40.55C63.2944 40.766 62.8084 40.922 62.3284 41.018C61.8484 41.126 61.2784 41.18 60.6184 41.18C59.7064 41.18 58.8964 40.994 58.1884 40.622C57.4924 40.25 56.9464 39.698 56.5504 38.966C56.1664 38.222 55.9744 37.316 55.9744 36.248C55.9744 35.192 56.1484 34.286 56.4964 33.53C56.8564 32.774 57.3544 32.192 57.9904 31.784C58.6384 31.376 59.3884 31.172 60.2404 31.172ZM60.2224 32.468C59.4664 32.468 58.8664 32.714 58.4224 33.206C57.9904 33.686 57.7324 34.358 57.6484 35.222H62.5624C62.5504 34.406 62.3584 33.746 61.9864 33.242C61.6144 32.726 61.0264 32.468 60.2224 32.468ZM69.8965 39.884C70.1365 39.884 70.3825 39.866 70.6345 39.83C70.8865 39.782 71.0905 39.734 71.2465 39.686V40.892C71.0785 40.976 70.8385 41.042 70.5265 41.09C70.2145 41.15 69.9145 41.18 69.6265 41.18C69.1225 41.18 68.6545 41.096 68.2225 40.928C67.8025 40.748 67.4605 40.442 67.1965 40.01C66.9325 39.578 66.8005 38.972 66.8005 38.192V32.576H65.4325V31.82L66.8185 31.19L67.4485 29.138H68.3845V31.352H71.1745V32.576H68.3845V38.156C68.3845 38.744 68.5225 39.182 68.7985 39.47C69.0865 39.746 69.4525 39.884 69.8965 39.884ZM83.5782 29.39C82.1982 29.39 81.1122 29.852 80.3202 30.776C79.5282 31.7 79.1322 32.966 79.1322 34.574C79.1322 36.17 79.4982 37.436 80.2302 38.372C80.9742 39.296 82.0842 39.758 83.5602 39.758C84.1242 39.758 84.6582 39.71 85.1622 39.614C85.6662 39.518 86.1582 39.398 86.6382 39.254V40.658C86.1582 40.838 85.6602 40.97 85.1442 41.054C84.6402 41.138 84.0342 41.18 83.3262 41.18C82.0182 41.18 80.9262 40.91 80.0502 40.37C79.1742 39.83 78.5142 39.062 78.0702 38.066C77.6382 37.07 77.4222 35.9 77.4222 34.556C77.4222 33.26 77.6562 32.12 78.1242 31.136C78.6042 30.14 79.3062 29.366 80.2302 28.814C81.1542 28.25 82.2762 27.968 83.5962 27.968C84.9522 27.968 86.1342 28.22 87.1422 28.724L86.4942 30.092C86.0982 29.912 85.6542 29.75 85.1622 29.606C84.6822 29.462 84.1542 29.39 83.5782 29.39ZM90.8113 41H89.2273V27.32H90.8113V41ZM97.5939 31.172C98.4219 31.172 99.1299 31.352 99.7179 31.712C100.318 32.072 100.774 32.582 101.086 33.242C101.41 33.89 101.572 34.652 101.572 35.528V36.482H94.9659C94.9899 37.574 95.2659 38.408 95.7939 38.984C96.3339 39.548 97.0839 39.83 98.0439 39.83C98.6559 39.83 99.1959 39.776 99.6639 39.668C100.144 39.548 100.636 39.38 101.14 39.164V40.55C100.648 40.766 100.162 40.922 99.6819 41.018C99.2019 41.126 98.6319 41.18 97.9719 41.18C97.0599 41.18 96.2499 40.994 95.5419 40.622C94.8459 40.25 94.2999 39.698 93.9039 38.966C93.5199 38.222 93.3279 37.316 93.3279 36.248C93.3279 35.192 93.5019 34.286 93.8499 33.53C94.2099 32.774 94.7079 32.192 95.3439 31.784C95.9919 31.376 96.7419 31.172 97.5939 31.172ZM97.5759 32.468C96.8199 32.468 96.2199 32.714 95.7759 33.206C95.3439 33.686 95.0859 34.358 95.0019 35.222H99.9159C99.9039 34.406 99.7119 33.746 99.3399 33.242C98.9679 32.726 98.3799 32.468 97.5759 32.468ZM108.528 31.172C108.708 31.172 108.9 31.184 109.104 31.208C109.32 31.22 109.506 31.244 109.662 31.28L109.464 32.738C109.308 32.702 109.134 32.672 108.942 32.648C108.762 32.624 108.588 32.612 108.42 32.612C107.928 32.612 107.466 32.75 107.034 33.026C106.602 33.29 106.254 33.668 105.99 34.16C105.738 34.64 105.612 35.204 105.612 35.852V41H104.028V31.352H105.324L105.504 33.116H105.576C105.888 32.588 106.29 32.132 106.782 31.748C107.274 31.364 107.856 31.172 108.528 31.172ZM113.03 34.466C113.03 34.658 113.018 34.91 112.994 35.222C112.982 35.534 112.97 35.804 112.958 36.032H113.03C113.102 35.936 113.21 35.798 113.354 35.618C113.498 35.438 113.642 35.258 113.786 35.078C113.942 34.886 114.074 34.73 114.182 34.61L117.26 31.352H119.114L115.208 35.474L119.384 41H117.476L114.128 36.5L113.03 37.454V41H111.464V27.32H113.03V34.466ZM127.361 38.336C127.361 39.272 127.013 39.98 126.317 40.46C125.621 40.94 124.685 41.18 123.509 41.18C122.837 41.18 122.255 41.126 121.763 41.018C121.283 40.91 120.857 40.76 120.485 40.568V39.128C120.869 39.32 121.331 39.5 121.871 39.668C122.423 39.824 122.981 39.902 123.545 39.902C124.349 39.902 124.931 39.776 125.291 39.524C125.651 39.26 125.831 38.912 125.831 38.48C125.831 38.24 125.765 38.024 125.633 37.832C125.501 37.64 125.261 37.448 124.913 37.256C124.577 37.064 124.091 36.848 123.455 36.608C122.831 36.368 122.297 36.128 121.853 35.888C121.409 35.648 121.067 35.36 120.827 35.024C120.587 34.688 120.467 34.256 120.467 33.728C120.467 32.912 120.797 32.282 121.457 31.838C122.129 31.394 123.005 31.172 124.085 31.172C124.673 31.172 125.219 31.232 125.723 31.352C126.239 31.46 126.719 31.616 127.163 31.82L126.623 33.08C126.215 32.912 125.789 32.768 125.345 32.648C124.901 32.528 124.445 32.468 123.977 32.468C123.329 32.468 122.831 32.576 122.483 32.792C122.147 32.996 121.979 33.278 121.979 33.638C121.979 33.902 122.057 34.13 122.213 34.322C122.369 34.502 122.627 34.682 122.987 34.862C123.359 35.03 123.851 35.234 124.463 35.474C125.075 35.702 125.597 35.936 126.029 36.176C126.461 36.416 126.791 36.71 127.019 37.058C127.247 37.394 127.361 37.82 127.361 38.336ZM128.18 31.352H129.872L131.96 36.842C132.14 37.322 132.302 37.784 132.446 38.228C132.59 38.66 132.698 39.074 132.77 39.47H132.842C132.914 39.17 133.028 38.78 133.184 38.3C133.34 37.808 133.502 37.316 133.67 36.824L135.632 31.352H137.342L133.184 42.332C132.848 43.244 132.41 43.97 131.87 44.51C131.342 45.05 130.61 45.32 129.674 45.32C129.386 45.32 129.134 45.302 128.918 45.266C128.702 45.242 128.516 45.212 128.36 45.176V43.916C128.492 43.94 128.648 43.964 128.828 43.988C129.02 44.012 129.218 44.024 129.422 44.024C129.974 44.024 130.418 43.868 130.754 43.556C131.102 43.244 131.372 42.83 131.564 42.314L132.068 41.036L128.18 31.352ZM145.128 31.334C145.128 31.814 145.098 32.264 145.038 32.684H145.146C145.458 32.192 145.878 31.82 146.406 31.568C146.946 31.316 147.528 31.19 148.152 31.19C149.328 31.19 150.21 31.472 150.798 32.036C151.386 32.588 151.68 33.482 151.68 34.718V41H150.114V34.826C150.114 33.278 149.394 32.504 147.954 32.504C146.874 32.504 146.13 32.81 145.722 33.422C145.326 34.022 145.128 34.886 145.128 36.014V41H143.544V27.32H145.128V31.334ZM158.397 31.172C159.225 31.172 159.933 31.352 160.521 31.712C161.121 32.072 161.577 32.582 161.889 33.242C162.213 33.89 162.375 34.652 162.375 35.528V36.482H155.769C155.793 37.574 156.069 38.408 156.597 38.984C157.137 39.548 157.887 39.83 158.847 39.83C159.459 39.83 159.999 39.776 160.467 39.668C160.947 39.548 161.439 39.38 161.943 39.164V40.55C161.451 40.766 160.965 40.922 160.485 41.018C160.005 41.126 159.435 41.18 158.775 41.18C157.863 41.18 157.053 40.994 156.345 40.622C155.649 40.25 155.103 39.698 154.707 38.966C154.323 38.222 154.131 37.316 154.131 36.248C154.131 35.192 154.305 34.286 154.653 33.53C155.013 32.774 155.511 32.192 156.147 31.784C156.795 31.376 157.545 31.172 158.397 31.172ZM158.379 32.468C157.623 32.468 157.023 32.714 156.579 33.206C156.147 33.686 155.889 34.358 155.805 35.222H160.719C160.707 34.406 160.515 33.746 160.143 33.242C159.771 32.726 159.183 32.468 158.379 32.468ZM166.415 41H164.831V27.32H166.415V41ZM174.061 31.172C175.249 31.172 176.203 31.586 176.923 32.414C177.655 33.242 178.021 34.49 178.021 36.158C178.021 37.802 177.655 39.05 176.923 39.902C176.203 40.754 175.243 41.18 174.043 41.18C173.299 41.18 172.681 41.042 172.189 40.766C171.709 40.478 171.331 40.148 171.055 39.776H170.947C170.971 39.98 170.995 40.238 171.019 40.55C171.043 40.862 171.055 41.132 171.055 41.36V45.32H169.471V31.352H170.767L170.983 32.666H171.055C171.343 32.246 171.721 31.892 172.189 31.604C172.657 31.316 173.281 31.172 174.061 31.172ZM173.773 32.504C172.789 32.504 172.093 32.78 171.685 33.332C171.289 33.884 171.079 34.724 171.055 35.852V36.158C171.055 37.346 171.247 38.264 171.631 38.912C172.027 39.548 172.753 39.866 173.809 39.866C174.397 39.866 174.877 39.704 175.249 39.38C175.633 39.056 175.915 38.618 176.095 38.066C176.287 37.502 176.383 36.86 176.383 36.14C176.383 35.036 176.167 34.154 175.735 33.494C175.315 32.834 174.661 32.504 173.773 32.504ZM180.312 40.028C180.312 39.584 180.42 39.272 180.636 39.092C180.852 38.912 181.11 38.822 181.41 38.822C181.722 38.822 181.986 38.912 182.202 39.092C182.43 39.272 182.544 39.584 182.544 40.028C182.544 40.46 182.43 40.772 182.202 40.964C181.986 41.156 181.722 41.252 181.41 41.252C181.11 41.252 180.852 41.156 180.636 40.964C180.42 40.772 180.312 40.46 180.312 40.028Z" fill="#163A24"/>
</svg>
