<svg width="251" height="60" viewBox="0 0 251 60" fill="none" xmlns="http://www.w3.org/2000/svg">
<path d="M9.1 22.28C6.61733 22.28 4.61067 21.7573 3.08 20.712C1.568 19.648 0.812 18.4907 0.812 17.24C0.812 16.7173 0.952 16.3067 1.232 16.008C1.512 15.6907 1.932 15.532 2.492 15.532C2.996 15.5507 3.42533 15.7373 3.78 16.092C4.15333 16.4467 4.47067 16.876 4.732 17.38C5.012 17.884 5.31067 18.388 5.628 18.892C5.94533 19.3773 6.412 19.7973 7.028 20.152C7.644 20.5067 8.39067 20.684 9.268 20.684C10.2573 20.684 11.0413 20.432 11.62 19.928C12.2173 19.4053 12.516 18.7147 12.516 17.856C12.516 17.0533 12.3013 16.3907 11.872 15.868C11.4613 15.3453 10.92 14.9533 10.248 14.692C9.59467 14.412 8.86667 14.1787 8.064 13.992C7.26133 13.7867 6.45867 13.5533 5.656 13.292C4.85333 13.0307 4.116 12.704 3.444 12.312C2.772 11.9013 2.22133 11.3133 1.792 10.548C1.38133 9.764 1.176 8.812 1.176 7.692C1.176 5.97467 1.83867 4.57467 3.164 3.492C4.508 2.40933 6.31867 1.868 8.596 1.868C10.836 1.868 12.6933 2.372 14.168 3.38C15.6613 4.36933 16.3987 5.48 16.38 6.712C16.38 7.86933 15.7827 8.448 14.588 8.448C14.028 8.448 13.5613 8.28 13.188 7.944C12.8333 7.58933 12.5347 7.16933 12.292 6.684C12.068 6.19867 11.8253 5.71333 11.564 5.228C11.3027 4.74267 10.9107 4.332 10.388 3.996C9.884 3.64133 9.25867 3.464 8.512 3.464C7.48533 3.464 6.70133 3.73467 6.16 4.276C5.61867 4.81733 5.348 5.508 5.348 6.348C5.348 7.15067 5.55333 7.82267 5.964 8.364C6.39333 8.90533 6.93467 9.316 7.588 9.596C8.26 9.876 8.99733 10.128 9.8 10.352C10.6027 10.5573 11.4053 10.8 12.208 11.08C13.0107 11.3413 13.7387 11.668 14.392 12.06C15.064 12.452 15.6053 13.0307 16.016 13.796C16.4453 14.5613 16.66 15.4853 16.66 16.568C16.66 18.3227 15.932 19.7133 14.476 20.74C13.02 21.7667 11.228 22.28 9.1 22.28ZM29.7087 17.744C29.8767 17.52 30.082 17.4453 30.3247 17.52C30.5673 17.5947 30.6793 17.772 30.6607 18.052C30.5673 19.0227 30.0073 19.9747 28.9807 20.908C27.954 21.8227 26.6193 22.28 24.9767 22.28C22.998 22.28 21.374 21.6267 20.1047 20.32C18.8353 19.0133 18.2007 17.296 18.2007 15.168C18.2007 13.1707 18.8633 11.528 20.1887 10.24C21.514 8.93333 23.11 8.28 24.9767 8.28C26.6753 8.28 27.982 8.68133 28.8967 9.484C29.8113 10.2867 30.2687 11.2107 30.2687 12.256C30.2687 13.1147 29.858 13.7307 29.0367 14.104L22.8207 16.932C23.586 18.556 24.818 19.368 26.5167 19.368C27.226 19.368 27.8607 19.2187 28.4207 18.92C28.9993 18.6027 29.4287 18.2107 29.7087 17.744ZM24.4727 9.512C23.7447 9.512 23.166 9.86667 22.7367 10.576C22.3073 11.2667 22.0927 12.1533 22.0927 13.236C22.0927 14.1507 22.186 14.9533 22.3727 15.644L25.9847 13.824C26.47 13.5813 26.7127 13.1427 26.7127 12.508C26.7127 11.8733 26.5073 11.22 26.0967 10.548C25.686 9.85733 25.1447 9.512 24.4727 9.512ZM37.5826 22.28C36.2759 22.28 35.2399 21.8693 34.4746 21.048C33.7279 20.208 33.3546 19.004 33.3546 17.436V10.184H32.0386C31.6652 10.184 31.4786 9.99733 31.4786 9.624V9.148C31.4786 8.756 31.6652 8.56 32.0386 8.56H32.7386C33.5039 8.56 34.1479 8.308 34.6706 7.804C35.2119 7.3 35.5572 6.628 35.7066 5.788C35.7999 5.34 36.0146 5.116 36.3506 5.116H36.9106C37.3212 5.116 37.5266 5.34 37.5266 5.788L37.5546 8.56H40.7746C40.9239 8.56 41.0546 8.616 41.1666 8.728C41.2786 8.84 41.3346 8.98 41.3346 9.148V9.624C41.3346 9.792 41.2786 9.932 41.1666 10.044C41.0546 10.1373 40.9239 10.184 40.7746 10.184H37.5546V17.492C37.5546 18.0333 37.6852 18.472 37.9466 18.808C38.2266 19.1253 38.5719 19.284 38.9826 19.284C39.9532 19.284 40.5879 18.864 40.8866 18.024C41.0546 17.7813 41.2599 17.688 41.5026 17.744C41.7639 17.7813 41.8946 17.9307 41.8946 18.192C41.8946 19.2747 41.5026 20.2267 40.7186 21.048C39.9532 21.8693 38.9079 22.28 37.5826 22.28ZM65.3713 2.12C65.7819 2.12 65.9873 2.26933 65.9873 2.568V2.68C65.9873 2.904 65.7633 3.20267 65.3153 3.576C64.8859 3.94933 64.5406 4.36 64.2793 4.808L59.0153 13.908V19.312C59.0153 19.7413 59.2113 20.1613 59.6033 20.572C59.9953 20.964 60.1913 21.2533 60.1913 21.44V21.524C60.1913 21.8413 59.9859 22 59.5753 22H54.2833C53.8726 22 53.6673 21.8413 53.6673 21.524V21.44C53.6673 21.2533 53.8446 20.964 54.1993 20.572C54.5539 20.1613 54.7313 19.7413 54.7313 19.312V14.216L48.7953 4.808C48.5526 4.416 48.1886 4.024 47.7033 3.632C47.2179 3.24 46.9752 2.92267 46.9752 2.68V2.568C46.9752 2.26933 47.1993 2.12 47.6473 2.12H54.0033C54.4326 2.12 54.6473 2.26933 54.6473 2.568V2.68C54.6473 2.86667 54.5073 3.06267 54.2272 3.268C53.9659 3.47333 53.7419 3.70667 53.5553 3.968C53.3686 4.21067 53.3686 4.49067 53.5553 4.808L57.8673 12.368L62.1793 4.808C62.3473 4.54667 62.3846 4.304 62.2913 4.08C62.1979 3.856 62.0579 3.688 61.8713 3.576C61.6846 3.44533 61.4979 3.30533 61.3113 3.156C61.1433 2.988 61.0593 2.82933 61.0593 2.68V2.568C61.0593 2.26933 61.2646 2.12 61.6753 2.12H65.3713ZM71.2626 22.28C69.0413 22.28 67.2026 21.5987 65.7466 20.236C64.3093 18.8547 63.5906 17.1747 63.5906 15.196C63.5906 13.1987 64.3 11.5467 65.7186 10.24C67.1373 8.93333 68.8453 8.28 70.8426 8.28C72.9893 8.28 74.7813 8.96133 76.2186 10.324C77.656 11.668 78.3746 13.3387 78.3746 15.336C78.3746 17.3333 77.6933 18.9947 76.3306 20.32C74.9866 21.6267 73.2973 22.28 71.2626 22.28ZM71.7666 21.048C72.532 21.048 73.12 20.6933 73.5306 19.984C73.96 19.2747 74.1746 18.276 74.1746 16.988C74.1746 15.924 74.016 14.832 73.6986 13.712C73.4 12.5733 72.9426 11.5933 72.3266 10.772C71.7106 9.932 71.0293 9.512 70.2826 9.512C68.5653 9.512 67.7066 10.8747 67.7066 13.6C67.7066 14.608 67.856 15.672 68.1546 16.792C68.472 17.912 68.948 18.9013 69.5826 19.76C70.236 20.6187 70.964 21.048 71.7666 21.048ZM93.6648 19.144C93.6648 19.648 93.7301 20.0307 93.8608 20.292C94.0101 20.5347 94.1688 20.6747 94.3368 20.712C94.5048 20.7307 94.6541 20.7867 94.7848 20.88C94.9341 20.9733 95.0088 21.132 95.0088 21.356C95.0088 21.8973 94.1781 22.168 92.5168 22.168C91.6955 22.168 91.0795 22.0373 90.6688 21.776C90.2768 21.496 90.0621 21.02 90.0248 20.348C89.2408 21.636 87.8875 22.28 85.9648 22.28C84.4528 22.28 83.2021 21.776 82.2128 20.768C81.2421 19.7413 80.7568 18.304 80.7568 16.456V11.724C80.7568 11.2573 80.5701 10.828 80.1968 10.436C79.8421 10.0253 79.6648 9.74533 79.6648 9.596V9.512C79.6648 9.176 79.8608 8.98 80.2528 8.924L83.7808 8.392C84.5461 8.29867 84.9288 8.46667 84.9288 8.896L84.8448 16.876C84.8448 19.4147 85.6195 20.684 87.1688 20.684C87.8595 20.684 88.4288 20.3853 88.8768 19.788C89.3435 19.172 89.5768 18.3787 89.5768 17.408V11.724C89.5768 11.2573 89.3901 10.828 89.0168 10.436C88.6435 10.0253 88.4568 9.74533 88.4568 9.596V9.512C88.4568 9.176 88.6435 8.98 89.0168 8.924L92.6008 8.392C93.3101 8.31733 93.6648 8.48533 93.6648 8.896V19.144ZM104.92 8.28C105.722 8.28 106.348 8.52267 106.796 9.008C107.262 9.47467 107.496 10.0813 107.496 10.828C107.496 12.3027 106.898 13.04 105.704 13.04C105.218 13.04 104.836 12.9187 104.556 12.676C104.294 12.4147 104.136 12.1347 104.08 11.836C104.024 11.5373 103.912 11.2667 103.744 11.024C103.576 10.7627 103.324 10.632 102.988 10.632C102.484 10.632 102.11 10.9307 101.868 11.528C101.625 12.1253 101.504 12.8533 101.504 13.712V19.312C101.504 19.648 101.616 19.9467 101.84 20.208C102.082 20.4507 102.316 20.6653 102.54 20.852C102.782 21.0387 102.904 21.2253 102.904 21.412V21.524C102.904 21.8413 102.698 22 102.288 22H97.1077C96.6784 22 96.4637 21.8413 96.4637 21.524V21.412C96.4637 21.2253 96.6411 20.936 96.9957 20.544C97.3691 20.152 97.5557 19.7413 97.5557 19.312V12.76C97.5557 12.312 97.3411 11.9107 96.9117 11.556C96.4824 11.2013 96.2677 10.9307 96.2677 10.744V10.632C96.2677 10.3707 96.4637 10.1467 96.8557 9.96L100.216 8.392C100.813 8.112 101.112 8.29867 101.112 8.952V11.052C101.746 9.204 103.016 8.28 104.92 8.28ZM114.562 22C114.132 22 113.918 21.8413 113.918 21.524V21.44C113.918 21.2533 114.095 20.964 114.45 20.572C114.823 20.1613 115.01 19.732 115.01 19.284V4.836C115.01 4.36933 114.823 3.94 114.45 3.548C114.095 3.156 113.918 2.86667 113.918 2.68V2.568C113.918 2.26933 114.123 2.12 114.534 2.12H127.022C127.526 2.12 127.815 2.38133 127.89 2.904L128.562 6.18C128.655 6.66533 128.468 6.908 128.002 6.908H127.834C127.554 6.908 127.246 6.74933 126.91 6.432C126.592 6.096 126.303 5.74133 126.042 5.368C125.799 4.976 125.482 4.62133 125.09 4.304C124.716 3.968 124.324 3.8 123.914 3.8H120.33C119.583 3.8 119.21 4.20133 119.21 5.004V11.024H122.822C123.139 11.024 123.41 10.9213 123.634 10.716C123.876 10.492 124.054 10.2587 124.166 10.016C124.278 9.75467 124.408 9.52133 124.558 9.316C124.726 9.092 124.884 8.98 125.034 8.98H125.258C125.575 8.98 125.734 9.176 125.734 9.568V14.076C125.734 14.468 125.575 14.664 125.258 14.664H125.034C124.884 14.664 124.726 14.5613 124.558 14.356C124.408 14.1507 124.278 13.936 124.166 13.712C124.054 13.4693 123.876 13.2453 123.634 13.04C123.41 12.8347 123.139 12.732 122.822 12.732H119.21L119.182 18.584C119.182 19.0507 119.303 19.4613 119.546 19.816C119.788 20.152 120.162 20.32 120.666 20.32H124.782C125.192 20.32 125.575 20.152 125.93 19.816C126.303 19.48 126.592 19.1067 126.798 18.696C127.022 18.2853 127.292 17.912 127.61 17.576C127.927 17.24 128.244 17.072 128.562 17.072H128.786C128.972 17.072 129.112 17.1467 129.206 17.296C129.299 17.4453 129.327 17.6133 129.29 17.8L128.674 21.188C128.562 21.7293 128.263 22 127.778 22H114.562ZM153.827 19.284C153.864 19.732 154.041 20.152 154.359 20.544C154.676 20.936 154.835 21.2347 154.835 21.44V21.552C154.835 21.8693 154.629 22.028 154.219 22.028H149.375C148.945 22.028 148.731 21.8693 148.731 21.552V21.44C148.731 21.2533 148.899 20.964 149.235 20.572C149.589 20.18 149.748 19.76 149.711 19.312L149.431 14.188C149.356 12.6387 149.123 11.5373 148.731 10.884C148.339 10.212 147.76 9.876 146.995 9.876C146.341 9.876 145.809 10.1467 145.399 10.688C144.988 11.2293 144.764 11.9293 144.727 12.788C144.801 13.1613 144.839 13.6093 144.839 14.132V19.312C144.839 19.76 144.997 20.18 145.315 20.572C145.651 20.964 145.819 21.2533 145.819 21.44V21.552C145.819 21.8693 145.613 22.028 145.203 22.028H140.359C139.929 22.028 139.715 21.8693 139.715 21.552V21.44C139.715 21.2533 139.883 20.964 140.219 20.572C140.555 20.18 140.723 19.76 140.723 19.312V13.852C140.723 12.5827 140.499 11.6027 140.051 10.912C139.603 10.2213 139.015 9.876 138.287 9.876C137.54 9.876 136.952 10.1653 136.523 10.744C136.093 11.3227 135.879 12.0693 135.879 12.984V19.312C135.879 19.76 136.075 20.18 136.467 20.572C136.877 20.964 137.083 21.2533 137.083 21.44V21.552C137.083 21.8693 136.868 22.028 136.439 22.028H131.231C130.801 22.028 130.587 21.8693 130.587 21.552V21.44C130.587 21.2533 130.783 20.964 131.175 20.572C131.585 20.18 131.791 19.76 131.791 19.312V12.788C131.791 12.4333 131.679 12.1347 131.455 11.892C131.231 11.6493 130.997 11.444 130.755 11.276C130.531 11.0893 130.419 10.9027 130.419 10.716V10.604C130.419 10.3987 130.615 10.2027 131.007 10.016L134.535 8.392C134.852 8.24267 135.095 8.23333 135.263 8.364C135.431 8.476 135.515 8.68133 135.515 8.98V10.296C136.392 8.952 137.68 8.28 139.379 8.28C141.507 8.28 143.056 9.12 144.027 10.8C144.4 10.016 144.96 9.4 145.707 8.952C146.472 8.504 147.331 8.28 148.283 8.28C149.701 8.28 150.887 8.756 151.839 9.708C152.791 10.6413 153.341 12.172 153.491 14.3L153.827 19.284ZM164.413 8.28C166.168 8.28 167.698 8.88667 169.005 10.1C170.312 11.3133 170.965 12.9653 170.965 15.056C170.965 17.1653 170.321 18.9013 169.033 20.264C167.764 21.608 166.233 22.28 164.441 22.28C163.134 22.28 162.042 21.916 161.165 21.188V25.36C161.165 25.808 161.361 26.228 161.753 26.62C162.145 27.012 162.341 27.3013 162.341 27.488V27.6C162.341 27.9173 162.126 28.076 161.697 28.076H156.629C156.2 28.076 155.985 27.9173 155.985 27.6V27.488C155.985 27.3013 156.162 27.012 156.517 26.62C156.89 26.228 157.077 25.808 157.077 25.36V12.76C157.077 12.3493 156.862 11.976 156.433 11.64C156.004 11.2853 155.789 11.0053 155.789 10.8V10.66C155.789 10.3987 155.976 10.1747 156.349 9.988L159.485 8.448C160.194 8.09333 160.549 8.26133 160.549 8.952L160.521 10.128C161.305 8.896 162.602 8.28 164.413 8.28ZM164.021 21.076C164.917 21.076 165.608 20.7027 166.093 19.956C166.597 19.2093 166.849 18.136 166.849 16.736C166.849 14.832 166.541 13.152 165.925 11.696C165.309 10.2213 164.478 9.484 163.433 9.484C162.854 9.484 162.35 9.69867 161.921 10.128C161.492 10.5387 161.24 11.08 161.165 11.752V17.1C161.165 18.1827 161.454 19.116 162.033 19.9C162.612 20.684 163.274 21.076 164.021 21.076ZM173.118 22C172.689 22 172.474 21.8413 172.474 21.524V21.412C172.474 21.2253 172.651 20.936 173.006 20.544C173.379 20.152 173.566 19.7413 173.566 19.312V5.536C173.566 5.05067 173.379 4.612 173.006 4.22C172.651 3.828 172.474 3.55733 172.474 3.408V3.296C172.474 3.072 172.661 2.88533 173.034 2.736L176.562 0.999998C176.935 0.850666 177.215 0.831999 177.402 0.943999C177.607 1.056 177.71 1.24267 177.71 1.504V19.312C177.71 19.7413 177.906 20.152 178.298 20.544C178.709 20.936 178.914 21.2253 178.914 21.412V21.524C178.914 21.8413 178.699 22 178.27 22H173.118ZM187.966 22.28C185.744 22.28 183.906 21.5987 182.45 20.236C181.012 18.8547 180.294 17.1747 180.294 15.196C180.294 13.1987 181.003 11.5467 182.422 10.24C183.84 8.93333 185.548 8.28 187.546 8.28C189.692 8.28 191.484 8.96133 192.922 10.324C194.359 11.668 195.078 13.3387 195.078 15.336C195.078 17.3333 194.396 18.9947 193.034 20.32C191.69 21.6267 190 22.28 187.966 22.28ZM188.47 21.048C189.235 21.048 189.823 20.6933 190.234 19.984C190.663 19.2747 190.878 18.276 190.878 16.988C190.878 15.924 190.719 14.832 190.402 13.712C190.103 12.5733 189.646 11.5933 189.03 10.772C188.414 9.932 187.732 9.512 186.986 9.512C185.268 9.512 184.41 10.8747 184.41 13.6C184.41 14.608 184.559 15.672 184.858 16.792C185.175 17.912 185.651 18.9013 186.286 19.76C186.939 20.6187 187.667 21.048 188.47 21.048ZM210.157 8.56C210.53 8.56 210.717 8.70933 210.717 9.008V9.148C210.717 9.39067 210.521 9.71733 210.129 10.128C209.756 10.5387 209.476 10.94 209.289 11.332L203.997 22.84C203.754 23.3813 203.549 23.82 203.381 24.156C203.213 24.492 202.952 24.9307 202.597 25.472C202.261 26.032 201.925 26.4707 201.589 26.788C201.253 27.1053 200.833 27.3853 200.329 27.628C199.825 27.8707 199.302 27.992 198.761 27.992C197.566 27.992 196.577 27.684 195.793 27.068C195.028 26.452 194.645 25.7613 194.645 24.996C194.645 24.492 194.794 24.0813 195.093 23.764C195.392 23.4653 195.802 23.316 196.325 23.316C196.848 23.316 197.258 23.484 197.557 23.82C197.856 24.1747 198.052 24.5667 198.145 24.996C198.238 25.4253 198.378 25.808 198.565 26.144C198.77 26.4987 199.032 26.676 199.349 26.676C200.208 26.676 201.169 25.3693 202.233 22.756L196.661 11.332C196.456 10.9213 196.148 10.52 195.737 10.128C195.345 9.71733 195.149 9.39067 195.149 9.148V9.008C195.149 8.70933 195.345 8.56 195.737 8.56H200.973C201.328 8.56 201.505 8.71867 201.505 9.036V9.148C201.505 9.316 201.421 9.512 201.253 9.736C201.085 9.94133 200.973 10.1373 200.917 10.324C200.861 10.5107 200.917 10.8653 201.085 11.388L204.361 18.976L207.385 11.78C207.572 11.1453 207.572 10.7067 207.385 10.464C207.198 10.2213 206.946 9.988 206.629 9.764C206.312 9.52133 206.153 9.316 206.153 9.148V9.036C206.153 8.71867 206.349 8.56 206.741 8.56H210.157ZM222.373 17.744C222.541 17.52 222.746 17.4453 222.989 17.52C223.231 17.5947 223.343 17.772 223.325 18.052C223.231 19.0227 222.671 19.9747 221.645 20.908C220.618 21.8227 219.283 22.28 217.641 22.28C215.662 22.28 214.038 21.6267 212.769 20.32C211.499 19.0133 210.865 17.296 210.865 15.168C210.865 13.1707 211.527 11.528 212.853 10.24C214.178 8.93333 215.774 8.28 217.641 8.28C219.339 8.28 220.646 8.68133 221.561 9.484C222.475 10.2867 222.933 11.2107 222.933 12.256C222.933 13.1147 222.522 13.7307 221.701 14.104L215.485 16.932C216.25 18.556 217.482 19.368 219.181 19.368C219.89 19.368 220.525 19.2187 221.085 18.92C221.663 18.6027 222.093 18.2107 222.373 17.744ZM217.137 9.512C216.409 9.512 215.83 9.86667 215.401 10.576C214.971 11.2667 214.757 12.1533 214.757 13.236C214.757 14.1507 214.85 14.9533 215.037 15.644L218.649 13.824C219.134 13.5813 219.377 13.1427 219.377 12.508C219.377 11.8733 219.171 11.22 218.761 10.548C218.35 9.85733 217.809 9.512 217.137 9.512ZM236.127 17.744C236.295 17.52 236.5 17.4453 236.743 17.52C236.985 17.5947 237.097 17.772 237.079 18.052C236.985 19.0227 236.425 19.9747 235.399 20.908C234.372 21.8227 233.037 22.28 231.395 22.28C229.416 22.28 227.792 21.6267 226.523 20.32C225.253 19.0133 224.619 17.296 224.619 15.168C224.619 13.1707 225.281 11.528 226.607 10.24C227.932 8.93333 229.528 8.28 231.395 8.28C233.093 8.28 234.4 8.68133 235.315 9.484C236.229 10.2867 236.687 11.2107 236.687 12.256C236.687 13.1147 236.276 13.7307 235.455 14.104L229.239 16.932C230.004 18.556 231.236 19.368 232.935 19.368C233.644 19.368 234.279 19.2187 234.839 18.92C235.417 18.6027 235.847 18.2107 236.127 17.744ZM230.891 9.512C230.163 9.512 229.584 9.86667 229.155 10.576C228.725 11.2667 228.511 12.1533 228.511 13.236C228.511 14.1507 228.604 14.9533 228.791 15.644L232.403 13.824C232.888 13.5813 233.131 13.1427 233.131 12.508C233.131 11.8733 232.925 11.22 232.515 10.548C232.104 9.85733 231.563 9.512 230.891 9.512ZM244.365 22.252C242.61 22.252 241.173 21.9347 240.053 21.3C238.933 20.6653 238.373 19.9 238.373 19.004C238.373 18.5 238.522 18.1173 238.821 17.856C239.138 17.5947 239.549 17.464 240.053 17.464C240.594 17.464 241.033 17.66 241.369 18.052C241.705 18.4253 241.938 18.8453 242.069 19.312C242.218 19.7787 242.479 20.208 242.853 20.6C243.245 20.9733 243.749 21.16 244.365 21.16C244.962 21.16 245.447 21.0013 245.821 20.684C246.213 20.3667 246.409 19.9093 246.409 19.312C246.409 18.64 246.138 18.108 245.597 17.716C245.074 17.324 244.43 17.0347 243.665 16.848C242.899 16.6427 242.134 16.4187 241.369 16.176C240.603 15.9147 239.95 15.476 239.409 14.86C238.886 14.2253 238.625 13.404 238.625 12.396C238.625 11.2013 239.147 10.2213 240.193 9.456C241.257 8.672 242.629 8.28 244.309 8.28C246.007 8.28 247.389 8.616 248.453 9.288C249.535 9.94133 250.077 10.7253 250.077 11.64C250.077 12.0507 249.918 12.396 249.601 12.676C249.302 12.956 248.929 13.096 248.481 13.096C247.958 13.096 247.538 12.9093 247.221 12.536C246.903 12.144 246.679 11.724 246.549 11.276C246.418 10.8093 246.185 10.3893 245.849 10.016C245.513 9.624 245.074 9.428 244.533 9.428C243.991 9.428 243.553 9.61467 243.217 9.988C242.881 10.3427 242.713 10.7813 242.713 11.304C242.713 11.8267 242.853 12.2653 243.133 12.62C243.413 12.9747 243.777 13.2453 244.225 13.432C244.673 13.6187 245.167 13.796 245.709 13.964C246.25 14.1133 246.791 14.2907 247.333 14.496C247.893 14.6827 248.397 14.916 248.845 15.196C249.293 15.476 249.657 15.8773 249.937 16.4C250.217 16.904 250.357 17.52 250.357 18.248C250.357 19.4053 249.815 20.3667 248.733 21.132C247.65 21.8787 246.194 22.252 244.365 22.252ZM10.388 53.28C7.88667 53.28 5.87067 52.5893 4.34 51.208C2.828 49.8267 2.072 47.8947 2.072 45.412V35.808C2.072 35.3787 1.88533 34.968 1.512 34.576C1.15733 34.1653 0.98 33.8667 0.98 33.68V33.568C0.98 33.2693 1.19467 33.12 1.624 33.12H6.888C7.31733 33.12 7.532 33.2693 7.532 33.568V33.68C7.532 33.8667 7.32667 34.1653 6.916 34.576C6.524 34.968 6.328 35.3787 6.328 35.808V45.412C6.328 47.372 6.76667 48.8747 7.644 49.92C8.52133 50.9467 9.744 51.46 11.312 51.46C12.544 51.46 13.6173 50.9747 14.532 50.004C15.4653 49.0147 15.932 47.484 15.932 45.412V35.808C15.932 35.3787 15.7453 34.968 15.372 34.576C14.9987 34.1653 14.812 33.8667 14.812 33.68V33.568C14.812 33.2693 15.0267 33.12 15.456 33.12H18.648C19.0773 33.12 19.292 33.2693 19.292 33.568V33.68C19.292 33.8667 19.0867 34.1653 18.676 34.576C18.284 34.968 18.088 35.3787 18.088 35.808V45.468C18.088 47.932 17.388 49.8547 15.988 51.236C14.588 52.5987 12.7213 53.28 10.388 53.28ZM28.9522 39.28C30.7069 39.28 32.2376 39.8867 33.5442 41.1C34.8509 42.3133 35.5042 43.9653 35.5042 46.056C35.5042 48.1653 34.8602 49.9013 33.5722 51.264C32.3029 52.608 30.7722 53.28 28.9802 53.28C27.6736 53.28 26.5816 52.916 25.7042 52.188V56.36C25.7042 56.808 25.9002 57.228 26.2922 57.62C26.6842 58.012 26.8802 58.3013 26.8802 58.488V58.6C26.8802 58.9173 26.6656 59.076 26.2362 59.076H21.1682C20.7389 59.076 20.5242 58.9173 20.5242 58.6V58.488C20.5242 58.3013 20.7016 58.012 21.0562 57.62C21.4296 57.228 21.6162 56.808 21.6162 56.36V43.76C21.6162 43.3493 21.4016 42.976 20.9722 42.64C20.5429 42.2853 20.3282 42.0053 20.3282 41.8V41.66C20.3282 41.3987 20.5149 41.1747 20.8882 40.988L24.0242 39.448C24.7336 39.0933 25.0882 39.2613 25.0882 39.952L25.0602 41.128C25.8442 39.896 27.1416 39.28 28.9522 39.28ZM28.5602 52.076C29.4562 52.076 30.1469 51.7027 30.6322 50.956C31.1362 50.2093 31.3882 49.136 31.3882 47.736C31.3882 45.832 31.0802 44.152 30.4642 42.696C29.8482 41.2213 29.0176 40.484 27.9722 40.484C27.3936 40.484 26.8896 40.6987 26.4602 41.128C26.0309 41.5387 25.7789 42.08 25.7042 42.752V48.1C25.7042 49.1827 25.9936 50.116 26.5722 50.9C27.1509 51.684 27.8136 52.076 28.5602 52.076ZM43.9873 53C43.558 53 43.3433 52.8413 43.3433 52.524V52.44C43.3433 52.2533 43.5207 51.964 43.8753 51.572C44.2487 51.1613 44.4353 50.7413 44.4353 50.312V35.808C44.4353 35.36 44.2487 34.94 43.8753 34.548C43.5207 34.156 43.3433 33.8667 43.3433 33.68V33.568C43.3433 33.2693 43.5487 33.12 43.9593 33.12H56.6433C57.1473 33.12 57.4367 33.3907 57.5113 33.932L58.1833 37.208C58.2767 37.6933 58.0807 37.936 57.5953 37.936H57.4553C57.1753 37.936 56.8673 37.7773 56.5313 37.46C56.214 37.124 55.9247 36.7693 55.6633 36.396C55.4207 36.004 55.1033 35.6493 54.7113 35.332C54.3193 34.996 53.918 34.828 53.5073 34.828H49.8113C49.0833 34.828 48.7193 35.22 48.7193 36.004V42.836H52.4713C52.7327 42.836 52.9753 42.7333 53.1993 42.528C53.442 42.304 53.6287 42.0613 53.7593 41.8C53.89 41.5387 54.0393 41.3053 54.2073 41.1C54.3753 40.876 54.5433 40.764 54.7113 40.764H54.9353C55.2527 40.764 55.4113 40.9693 55.4113 41.38V45.888C55.4113 46.28 55.2527 46.476 54.9353 46.476H54.7113C54.5433 46.476 54.3753 46.3733 54.2073 46.168C54.0393 45.9627 53.89 45.7387 53.7593 45.496C53.6287 45.2533 53.442 45.0293 53.1993 44.824C52.9753 44.6187 52.7327 44.516 52.4713 44.516H48.7193V50.312C48.7193 50.7413 48.9153 51.1613 49.3073 51.572C49.718 51.964 49.9233 52.2533 49.9233 52.44V52.524C49.9233 52.8413 49.6993 53 49.2513 53H43.9873ZM65.4658 53.28C63.2444 53.28 61.4058 52.5987 59.9498 51.236C58.5124 49.8547 57.7938 48.1747 57.7938 46.196C57.7938 44.1987 58.5031 42.5467 59.9218 41.24C61.3404 39.9333 63.0484 39.28 65.0458 39.28C67.1924 39.28 68.9844 39.9613 70.4218 41.324C71.8591 42.668 72.5778 44.3387 72.5778 46.336C72.5778 48.3333 71.8964 49.9947 70.5338 51.32C69.1898 52.6267 67.5004 53.28 65.4658 53.28ZM65.9698 52.048C66.7351 52.048 67.3231 51.6933 67.7338 50.984C68.1631 50.2747 68.3778 49.276 68.3778 47.988C68.3778 46.924 68.2191 45.832 67.9018 44.712C67.6031 43.5733 67.1458 42.5933 66.5298 41.772C65.9138 40.932 65.2324 40.512 64.4857 40.512C62.7684 40.512 61.9098 41.8747 61.9098 44.6C61.9098 45.608 62.0591 46.672 62.3578 47.792C62.6751 48.912 63.1511 49.9013 63.7858 50.76C64.4391 51.6187 65.1671 52.048 65.9698 52.048ZM82.7439 39.28C83.5466 39.28 84.1719 39.5227 84.6199 40.008C85.0866 40.4747 85.3199 41.0813 85.3199 41.828C85.3199 43.3027 84.7226 44.04 83.5279 44.04C83.0426 44.04 82.6599 43.9187 82.3799 43.676C82.1186 43.4147 81.9599 43.1347 81.9039 42.836C81.8479 42.5373 81.7359 42.2667 81.5679 42.024C81.3999 41.7627 81.1479 41.632 80.8119 41.632C80.3079 41.632 79.9346 41.9307 79.6919 42.528C79.4493 43.1253 79.3279 43.8533 79.3279 44.712V50.312C79.3279 50.648 79.4399 50.9467 79.6639 51.208C79.9066 51.4507 80.1399 51.6653 80.3639 51.852C80.6066 52.0387 80.7279 52.2253 80.7279 52.412V52.524C80.7279 52.8413 80.5226 53 80.1119 53H74.9319C74.5026 53 74.2879 52.8413 74.2879 52.524V52.412C74.2879 52.2253 74.4653 51.936 74.8199 51.544C75.1933 51.152 75.3799 50.7413 75.3799 50.312V43.76C75.3799 43.312 75.1653 42.9107 74.7359 42.556C74.3066 42.2013 74.0919 41.9307 74.0919 41.744V41.632C74.0919 41.3707 74.2879 41.1467 74.6799 40.96L78.0399 39.392C78.6373 39.112 78.9359 39.2987 78.9359 39.952V42.052C79.5706 40.204 80.8399 39.28 82.7439 39.28ZM99.5258 53.28C97.0431 53.28 95.0364 52.7573 93.5058 51.712C91.9938 50.648 91.2378 49.4907 91.2378 48.24C91.2378 47.7173 91.3778 47.3067 91.6578 47.008C91.9378 46.6907 92.3578 46.532 92.9178 46.532C93.4218 46.5507 93.8511 46.7373 94.2058 47.092C94.5791 47.4467 94.8964 47.876 95.1578 48.38C95.4378 48.884 95.7364 49.388 96.0538 49.892C96.3711 50.3773 96.8378 50.7973 97.4538 51.152C98.0698 51.5067 98.8164 51.684 99.6938 51.684C100.683 51.684 101.467 51.432 102.046 50.928C102.643 50.4053 102.942 49.7147 102.942 48.856C102.942 48.0533 102.727 47.3907 102.298 46.868C101.887 46.3453 101.346 45.9533 100.674 45.692C100.02 45.412 99.2924 45.1787 98.4898 44.992C97.6871 44.7867 96.8844 44.5533 96.0818 44.292C95.2791 44.0307 94.5418 43.704 93.8698 43.312C93.1978 42.9013 92.6471 42.3133 92.2178 41.548C91.8071 40.764 91.6018 39.812 91.6018 38.692C91.6018 36.9747 92.2644 35.5747 93.5898 34.492C94.9338 33.4093 96.7444 32.868 99.0218 32.868C101.262 32.868 103.119 33.372 104.594 34.38C106.087 35.3693 106.824 36.48 106.806 37.712C106.806 38.8693 106.208 39.448 105.014 39.448C104.454 39.448 103.987 39.28 103.614 38.944C103.259 38.5893 102.96 38.1693 102.718 37.684C102.494 37.1987 102.251 36.7133 101.99 36.228C101.728 35.7427 101.336 35.332 100.814 34.996C100.31 34.6413 99.6844 34.464 98.9378 34.464C97.9111 34.464 97.1271 34.7347 96.5858 35.276C96.0444 35.8173 95.7738 36.508 95.7738 37.348C95.7738 38.1507 95.9791 38.8227 96.3898 39.364C96.8191 39.9053 97.3604 40.316 98.0138 40.596C98.6858 40.876 99.4231 41.128 100.226 41.352C101.028 41.5573 101.831 41.8 102.634 42.08C103.436 42.3413 104.164 42.668 104.818 43.06C105.49 43.452 106.031 44.0307 106.442 44.796C106.871 45.5613 107.086 46.4853 107.086 47.568C107.086 49.3227 106.358 50.7133 104.902 51.74C103.446 52.7667 101.654 53.28 99.5258 53.28ZM122.321 50.144C122.321 50.648 122.386 51.0307 122.517 51.292C122.666 51.5347 122.825 51.6747 122.993 51.712C123.161 51.7307 123.31 51.7867 123.441 51.88C123.59 51.9733 123.665 52.132 123.665 52.356C123.665 52.8973 122.834 53.168 121.173 53.168C120.352 53.168 119.736 53.0373 119.325 52.776C118.933 52.496 118.718 52.02 118.681 51.348C117.897 52.636 116.544 53.28 114.621 53.28C113.109 53.28 111.858 52.776 110.869 51.768C109.898 50.7413 109.413 49.304 109.413 47.456V42.724C109.413 42.2573 109.226 41.828 108.853 41.436C108.498 41.0253 108.321 40.7453 108.321 40.596V40.512C108.321 40.176 108.517 39.98 108.909 39.924L112.437 39.392C113.202 39.2987 113.585 39.4667 113.585 39.896L113.501 47.876C113.501 50.4147 114.276 51.684 115.825 51.684C116.516 51.684 117.085 51.3853 117.533 50.788C118 50.172 118.233 49.3787 118.233 48.408V42.724C118.233 42.2573 118.046 41.828 117.673 41.436C117.3 41.0253 117.113 40.7453 117.113 40.596V40.512C117.113 40.176 117.3 39.98 117.673 39.924L121.257 39.392C121.966 39.3173 122.321 39.4853 122.321 39.896V50.144ZM131.98 53.28C129.908 53.28 128.181 52.5893 126.8 51.208C125.437 49.8267 124.756 48.1747 124.756 46.252C124.756 44.1613 125.437 42.4813 126.8 41.212C128.181 39.9427 129.852 39.2987 131.812 39.28C133.417 39.2613 134.78 39.6347 135.9 40.4C137.039 41.1653 137.608 42.0987 137.608 43.2C137.608 43.6107 137.468 43.956 137.188 44.236C136.908 44.4973 136.469 44.6187 135.872 44.6C135.424 44.5813 135.032 44.4227 134.696 44.124C134.36 43.8253 134.08 43.48 133.856 43.088C133.651 42.696 133.436 42.304 133.212 41.912C132.988 41.52 132.708 41.1933 132.372 40.932C132.036 40.652 131.644 40.512 131.196 40.512C130.412 40.512 129.777 40.8667 129.292 41.576C128.825 42.2853 128.592 43.172 128.592 44.236C128.592 46.1027 129.021 47.596 129.88 48.716C130.757 49.836 131.915 50.396 133.352 50.396C134.827 50.396 135.947 49.7427 136.712 48.436C136.824 48.2867 136.955 48.2027 137.104 48.184C137.272 48.1467 137.412 48.184 137.524 48.296C137.655 48.3893 137.711 48.5293 137.692 48.716C137.599 49.9667 137.048 51.04 136.04 51.936C135.051 52.832 133.697 53.28 131.98 53.28ZM146.144 53.28C144.072 53.28 142.345 52.5893 140.964 51.208C139.601 49.8267 138.92 48.1747 138.92 46.252C138.92 44.1613 139.601 42.4813 140.964 41.212C142.345 39.9427 144.016 39.2987 145.976 39.28C147.581 39.2613 148.944 39.6347 150.064 40.4C151.203 41.1653 151.772 42.0987 151.772 43.2C151.772 43.6107 151.632 43.956 151.352 44.236C151.072 44.4973 150.633 44.6187 150.036 44.6C149.588 44.5813 149.196 44.4227 148.86 44.124C148.524 43.8253 148.244 43.48 148.02 43.088C147.815 42.696 147.6 42.304 147.376 41.912C147.152 41.52 146.872 41.1933 146.536 40.932C146.2 40.652 145.808 40.512 145.36 40.512C144.576 40.512 143.941 40.8667 143.456 41.576C142.989 42.2853 142.756 43.172 142.756 44.236C142.756 46.1027 143.185 47.596 144.044 48.716C144.921 49.836 146.079 50.396 147.516 50.396C148.991 50.396 150.111 49.7427 150.876 48.436C150.988 48.2867 151.119 48.2027 151.268 48.184C151.436 48.1467 151.576 48.184 151.688 48.296C151.819 48.3893 151.875 48.5293 151.856 48.716C151.763 49.9667 151.212 51.04 150.204 51.936C149.215 52.832 147.861 53.28 146.144 53.28ZM164.732 48.744C164.9 48.52 165.105 48.4453 165.348 48.52C165.591 48.5947 165.703 48.772 165.684 49.052C165.591 50.0227 165.031 50.9747 164.004 51.908C162.977 52.8227 161.643 53.28 160 53.28C158.021 53.28 156.397 52.6267 155.128 51.32C153.859 50.0133 153.224 48.296 153.224 46.168C153.224 44.1707 153.887 42.528 155.212 41.24C156.537 39.9333 158.133 39.28 160 39.28C161.699 39.28 163.005 39.6813 163.92 40.484C164.835 41.2867 165.292 42.2107 165.292 43.256C165.292 44.1147 164.881 44.7307 164.06 45.104L157.844 47.932C158.609 49.556 159.841 50.368 161.54 50.368C162.249 50.368 162.884 50.2187 163.444 49.92C164.023 49.6027 164.452 49.2107 164.732 48.744ZM159.496 40.512C158.768 40.512 158.189 40.8667 157.76 41.576C157.331 42.2667 157.116 43.1533 157.116 44.236C157.116 45.1507 157.209 45.9533 157.396 46.644L161.008 44.824C161.493 44.5813 161.736 44.1427 161.736 43.508C161.736 42.8733 161.531 42.22 161.12 41.548C160.709 40.8573 160.168 40.512 159.496 40.512ZM172.97 53.252C171.215 53.252 169.778 52.9347 168.658 52.3C167.538 51.6653 166.978 50.9 166.978 50.004C166.978 49.5 167.127 49.1173 167.426 48.856C167.743 48.5947 168.154 48.464 168.658 48.464C169.199 48.464 169.638 48.66 169.974 49.052C170.31 49.4253 170.543 49.8453 170.674 50.312C170.823 50.7787 171.085 51.208 171.458 51.6C171.85 51.9733 172.354 52.16 172.97 52.16C173.567 52.16 174.053 52.0013 174.426 51.684C174.818 51.3667 175.014 50.9093 175.014 50.312C175.014 49.64 174.743 49.108 174.202 48.716C173.679 48.324 173.035 48.0347 172.27 47.848C171.505 47.6427 170.739 47.4187 169.974 47.176C169.209 46.9147 168.555 46.476 168.014 45.86C167.491 45.2253 167.23 44.404 167.23 43.396C167.23 42.2013 167.753 41.2213 168.798 40.456C169.862 39.672 171.234 39.28 172.914 39.28C174.613 39.28 175.994 39.616 177.058 40.288C178.141 40.9413 178.682 41.7253 178.682 42.64C178.682 43.0507 178.523 43.396 178.206 43.676C177.907 43.956 177.534 44.096 177.086 44.096C176.563 44.096 176.143 43.9093 175.826 43.536C175.509 43.144 175.285 42.724 175.154 42.276C175.023 41.8093 174.79 41.3893 174.454 41.016C174.118 40.624 173.679 40.428 173.138 40.428C172.597 40.428 172.158 40.6147 171.822 40.988C171.486 41.3427 171.318 41.7813 171.318 42.304C171.318 42.8267 171.458 43.2653 171.738 43.62C172.018 43.9747 172.382 44.2453 172.83 44.432C173.278 44.6187 173.773 44.796 174.314 44.964C174.855 45.1133 175.397 45.2907 175.938 45.496C176.498 45.6827 177.002 45.916 177.45 46.196C177.898 46.476 178.262 46.8773 178.542 47.4C178.822 47.904 178.962 48.52 178.962 49.248C178.962 50.4053 178.421 51.3667 177.338 52.132C176.255 52.8787 174.799 53.252 172.97 53.252ZM186.368 53.252C184.614 53.252 183.176 52.9347 182.056 52.3C180.936 51.6653 180.376 50.9 180.376 50.004C180.376 49.5 180.526 49.1173 180.824 48.856C181.142 48.5947 181.552 48.464 182.056 48.464C182.598 48.464 183.036 48.66 183.372 49.052C183.708 49.4253 183.942 49.8453 184.072 50.312C184.222 50.7787 184.483 51.208 184.856 51.6C185.248 51.9733 185.752 52.16 186.368 52.16C186.966 52.16 187.451 52.0013 187.824 51.684C188.216 51.3667 188.412 50.9093 188.412 50.312C188.412 49.64 188.142 49.108 187.6 48.716C187.078 48.324 186.434 48.0347 185.668 47.848C184.903 47.6427 184.138 47.4187 183.372 47.176C182.607 46.9147 181.954 46.476 181.412 45.86C180.89 45.2253 180.628 44.404 180.628 43.396C180.628 42.2013 181.151 41.2213 182.196 40.456C183.26 39.672 184.632 39.28 186.312 39.28C188.011 39.28 189.392 39.616 190.456 40.288C191.539 40.9413 192.08 41.7253 192.08 42.64C192.08 43.0507 191.922 43.396 191.604 43.676C191.306 43.956 190.932 44.096 190.484 44.096C189.962 44.096 189.542 43.9093 189.224 43.536C188.907 43.144 188.683 42.724 188.552 42.276C188.422 41.8093 188.188 41.3893 187.852 41.016C187.516 40.624 187.078 40.428 186.536 40.428C185.995 40.428 185.556 40.6147 185.22 40.988C184.884 41.3427 184.716 41.7813 184.716 42.304C184.716 42.8267 184.856 43.2653 185.136 43.62C185.416 43.9747 185.78 44.2453 186.228 44.432C186.676 44.6187 187.171 44.796 187.712 44.964C188.254 45.1133 188.795 45.2907 189.336 45.496C189.896 45.6827 190.4 45.916 190.848 46.196C191.296 46.476 191.66 46.8773 191.94 47.4C192.22 47.904 192.36 48.52 192.36 49.248C192.36 50.4053 191.819 51.3667 190.736 52.132C189.654 52.8787 188.198 53.252 186.368 53.252Z" fill="#163A24"/>
</svg>
