<svg width="295" height="19" viewBox="0 0 295 19" fill="none" xmlns="http://www.w3.org/2000/svg">
<path d="M9.036 10.562C9.036 11.702 8.622 12.59 7.794 13.226C6.966 13.862 5.85 14.18 4.446 14.18C3.726 14.18 3.06 14.126 2.448 14.018C1.836 13.91 1.326 13.76 0.918 13.568V12.02C1.35 12.212 1.884 12.386 2.52 12.542C3.168 12.698 3.834 12.776 4.518 12.776C5.478 12.776 6.198 12.59 6.678 12.218C7.17 11.846 7.416 11.342 7.416 10.706C7.416 10.286 7.326 9.932 7.146 9.644C6.966 9.356 6.654 9.092 6.21 8.852C5.778 8.6 5.172 8.336 4.392 8.06C3.3 7.664 2.472 7.178 1.908 6.602C1.356 6.026 1.08 5.24 1.08 4.244C1.08 3.56 1.254 2.978 1.602 2.498C1.95 2.006 2.43 1.628 3.042 1.364C3.666 1.1 4.38 0.967999 5.184 0.967999C5.892 0.967999 6.54 1.034 7.128 1.166C7.716 1.298 8.25 1.472 8.73 1.688L8.226 3.074C7.782 2.882 7.296 2.72 6.768 2.588C6.252 2.456 5.712 2.39 5.148 2.39C4.344 2.39 3.738 2.564 3.33 2.912C2.922 3.248 2.718 3.698 2.718 4.262C2.718 4.694 2.808 5.054 2.988 5.342C3.168 5.63 3.462 5.888 3.87 6.116C4.278 6.344 4.83 6.59 5.526 6.854C6.282 7.13 6.918 7.43 7.434 7.754C7.962 8.066 8.358 8.444 8.622 8.888C8.898 9.332 9.036 9.89 9.036 10.562ZM12.2189 0.733999C12.4589 0.733999 12.6689 0.817999 12.8489 0.985999C13.0409 1.142 13.1369 1.394 13.1369 1.742C13.1369 2.078 13.0409 2.33 12.8489 2.498C12.6689 2.666 12.4589 2.75 12.2189 2.75C11.9549 2.75 11.7329 2.666 11.5529 2.498C11.3729 2.33 11.2829 2.078 11.2829 1.742C11.2829 1.394 11.3729 1.142 11.5529 0.985999C11.7329 0.817999 11.9549 0.733999 12.2189 0.733999ZM12.9929 4.352V14H11.4089V4.352H12.9929ZM19.4695 4.172C20.1055 4.172 20.6755 4.292 21.1795 4.532C21.6955 4.772 22.1335 5.138 22.4935 5.63H22.5835L22.7995 4.352H24.0595V14.162C24.0595 15.542 23.7055 16.58 22.9975 17.276C22.3015 17.972 21.2155 18.32 19.7395 18.32C18.3235 18.32 17.1655 18.116 16.2655 17.708V16.25C17.2135 16.754 18.4015 17.006 19.8295 17.006C20.6575 17.006 21.3055 16.76 21.7735 16.268C22.2535 15.788 22.4935 15.128 22.4935 14.288V13.91C22.4935 13.766 22.4995 13.562 22.5115 13.298C22.5235 13.022 22.5355 12.83 22.5475 12.722H22.4755C21.8275 13.694 20.8315 14.18 19.4875 14.18C18.2395 14.18 17.2615 13.742 16.5535 12.866C15.8575 11.99 15.5095 10.766 15.5095 9.194C15.5095 7.658 15.8575 6.44 16.5535 5.54C17.2615 4.628 18.2335 4.172 19.4695 4.172ZM19.6855 5.504C18.8815 5.504 18.2575 5.828 17.8135 6.476C17.3695 7.112 17.1475 8.024 17.1475 9.212C17.1475 10.4 17.3635 11.312 17.7955 11.948C18.2395 12.572 18.8815 12.884 19.7215 12.884C20.6935 12.884 21.4015 12.626 21.8455 12.11C22.2895 11.582 22.5115 10.736 22.5115 9.572V9.194C22.5115 7.874 22.2835 6.932 21.8275 6.368C21.3715 5.792 20.6575 5.504 19.6855 5.504ZM31.7678 4.172C32.9198 4.172 33.7898 4.454 34.3778 5.018C34.9658 5.57 35.2598 6.47 35.2598 7.718V14H33.6938V7.826C33.6938 6.278 32.9738 5.504 31.5338 5.504C30.4658 5.504 29.7278 5.804 29.3198 6.404C28.9118 7.004 28.7078 7.868 28.7078 8.996V14H27.1238V4.352H28.4018L28.6358 5.666H28.7258C29.0378 5.162 29.4698 4.79 30.0218 4.55C30.5738 4.298 31.1558 4.172 31.7678 4.172ZM50.9905 4.352V14H49.6945L49.4605 12.722H49.3885C49.0765 13.226 48.6445 13.598 48.0925 13.838C47.5405 14.066 46.9525 14.18 46.3285 14.18C45.1645 14.18 44.2885 13.904 43.7005 13.352C43.1125 12.788 42.8185 11.894 42.8185 10.67V4.352H44.4205V10.562C44.4205 12.098 45.1345 12.866 46.5625 12.866C47.6305 12.866 48.3685 12.566 48.7765 11.966C49.1965 11.366 49.4065 10.502 49.4065 9.374V4.352H50.9905ZM58.6434 4.172C59.8314 4.172 60.7854 4.586 61.5054 5.414C62.2374 6.242 62.6034 7.49 62.6034 9.158C62.6034 10.802 62.2374 12.05 61.5054 12.902C60.7854 13.754 59.8254 14.18 58.6254 14.18C57.8814 14.18 57.2634 14.042 56.7714 13.766C56.2914 13.478 55.9134 13.148 55.6374 12.776H55.5294C55.5534 12.98 55.5774 13.238 55.6014 13.55C55.6254 13.862 55.6374 14.132 55.6374 14.36V18.32H54.0534V4.352H55.3494L55.5654 5.666H55.6374C55.9254 5.246 56.3034 4.892 56.7714 4.604C57.2394 4.316 57.8634 4.172 58.6434 4.172ZM58.3554 5.504C57.3714 5.504 56.6754 5.78 56.2674 6.332C55.8714 6.884 55.6614 7.724 55.6374 8.852V9.158C55.6374 10.346 55.8294 11.264 56.2134 11.912C56.6094 12.548 57.3354 12.866 58.3914 12.866C58.9794 12.866 59.4594 12.704 59.8314 12.38C60.2154 12.056 60.4974 11.618 60.6774 11.066C60.8694 10.502 60.9654 9.86 60.9654 9.14C60.9654 8.036 60.7494 7.154 60.3174 6.494C59.8974 5.834 59.2434 5.504 58.3554 5.504ZM74.2494 5.576H71.8194V14H70.2354V5.576H68.5434V4.838L70.2354 4.298V3.74C70.2354 2.492 70.5114 1.598 71.0634 1.058C71.6154 0.505999 72.3834 0.229999 73.3674 0.229999C73.7514 0.229999 74.0994 0.265999 74.4114 0.337999C74.7354 0.398 75.0114 0.47 75.2394 0.553999L74.8254 1.796C74.6334 1.736 74.4114 1.676 74.1594 1.616C73.9074 1.556 73.6494 1.526 73.3854 1.526C72.8574 1.526 72.4614 1.706 72.1974 2.066C71.9454 2.414 71.8194 2.966 71.8194 3.722V4.352H74.2494V5.576ZM84.3789 9.158C84.3789 10.754 83.9709 11.99 83.1549 12.866C82.3509 13.742 81.2589 14.18 79.8789 14.18C79.0269 14.18 78.2649 13.988 77.5929 13.604C76.9329 13.208 76.4109 12.638 76.0269 11.894C75.6429 11.138 75.4509 10.226 75.4509 9.158C75.4509 7.562 75.8529 6.332 76.6569 5.468C77.4609 4.604 78.5529 4.172 79.9329 4.172C80.8089 4.172 81.5769 4.37 82.2369 4.766C82.9089 5.15 83.4309 5.714 83.8029 6.458C84.1869 7.19 84.3789 8.09 84.3789 9.158ZM77.0889 9.158C77.0889 10.298 77.3109 11.204 77.7549 11.876C78.2109 12.536 78.9309 12.866 79.9149 12.866C80.8869 12.866 81.6009 12.536 82.0569 11.876C82.5129 11.204 82.7409 10.298 82.7409 9.158C82.7409 8.018 82.5129 7.124 82.0569 6.476C81.6009 5.828 80.8809 5.504 79.8969 5.504C78.9129 5.504 78.1989 5.828 77.7549 6.476C77.3109 7.124 77.0889 8.018 77.0889 9.158ZM91.3894 4.172C91.5694 4.172 91.7614 4.184 91.9654 4.208C92.1814 4.22 92.3674 4.244 92.5234 4.28L92.3254 5.738C92.1694 5.702 91.9954 5.672 91.8034 5.648C91.6234 5.624 91.4494 5.612 91.2814 5.612C90.7894 5.612 90.3274 5.75 89.8954 6.026C89.4634 6.29 89.1154 6.668 88.8514 7.16C88.5994 7.64 88.4734 8.204 88.4734 8.852V14H86.8894V4.352H88.1854L88.3654 6.116H88.4374C88.7494 5.588 89.1514 5.132 89.6434 4.748C90.1354 4.364 90.7174 4.172 91.3894 4.172ZM102.223 12.884C102.463 12.884 102.709 12.866 102.961 12.83C103.213 12.782 103.417 12.734 103.573 12.686V13.892C103.405 13.976 103.165 14.042 102.853 14.09C102.541 14.15 102.241 14.18 101.953 14.18C101.449 14.18 100.981 14.096 100.549 13.928C100.129 13.748 99.7867 13.442 99.5227 13.01C99.2587 12.578 99.1267 11.972 99.1267 11.192V5.576H97.7587V4.82L99.1447 4.19L99.7747 2.138H100.711V4.352H103.501V5.576H100.711V11.156C100.711 11.744 100.849 12.182 101.125 12.47C101.413 12.746 101.779 12.884 102.223 12.884ZM107.089 4.334C107.089 4.814 107.059 5.264 106.999 5.684H107.107C107.419 5.192 107.839 4.82 108.367 4.568C108.907 4.316 109.489 4.19 110.113 4.19C111.289 4.19 112.171 4.472 112.759 5.036C113.347 5.588 113.641 6.482 113.641 7.718V14H112.075V7.826C112.075 6.278 111.355 5.504 109.915 5.504C108.835 5.504 108.091 5.81 107.683 6.422C107.287 7.022 107.089 7.886 107.089 9.014V14H105.505V0.319999H107.089V4.334ZM120.358 4.172C121.186 4.172 121.894 4.352 122.482 4.712C123.082 5.072 123.538 5.582 123.85 6.242C124.174 6.89 124.336 7.652 124.336 8.528V9.482H117.73C117.754 10.574 118.03 11.408 118.558 11.984C119.098 12.548 119.848 12.83 120.808 12.83C121.42 12.83 121.96 12.776 122.428 12.668C122.908 12.548 123.4 12.38 123.904 12.164V13.55C123.412 13.766 122.926 13.922 122.446 14.018C121.966 14.126 121.396 14.18 120.736 14.18C119.824 14.18 119.014 13.994 118.306 13.622C117.61 13.25 117.064 12.698 116.668 11.966C116.284 11.222 116.092 10.316 116.092 9.248C116.092 8.192 116.266 7.286 116.614 6.53C116.974 5.774 117.472 5.192 118.108 4.784C118.756 4.376 119.506 4.172 120.358 4.172ZM120.34 5.468C119.584 5.468 118.984 5.714 118.54 6.206C118.108 6.686 117.85 7.358 117.766 8.222H122.68C122.668 7.406 122.476 6.746 122.104 6.242C121.732 5.726 121.144 5.468 120.34 5.468ZM133.052 14H131.468V0.319999H133.052V14ZM139.762 4.19C140.938 4.19 141.808 4.448 142.372 4.964C142.936 5.48 143.218 6.302 143.218 7.43V14H142.066L141.76 12.632H141.688C141.268 13.16 140.824 13.55 140.356 13.802C139.9 14.054 139.264 14.18 138.448 14.18C137.572 14.18 136.846 13.952 136.27 13.496C135.694 13.028 135.406 12.302 135.406 11.318C135.406 10.358 135.784 9.62 136.54 9.104C137.296 8.576 138.46 8.288 140.032 8.24L141.67 8.186V7.61C141.67 6.806 141.496 6.248 141.148 5.936C140.8 5.624 140.308 5.468 139.672 5.468C139.168 5.468 138.688 5.546 138.232 5.702C137.776 5.846 137.35 6.014 136.954 6.206L136.468 5.018C136.888 4.79 137.386 4.598 137.962 4.442C138.538 4.274 139.138 4.19 139.762 4.19ZM140.23 9.338C139.03 9.386 138.196 9.578 137.728 9.914C137.272 10.25 137.044 10.724 137.044 11.336C137.044 11.876 137.206 12.272 137.53 12.524C137.866 12.776 138.292 12.902 138.808 12.902C139.624 12.902 140.302 12.68 140.842 12.236C141.382 11.78 141.652 11.084 141.652 10.148V9.284L140.23 9.338ZM149.42 12.884C149.66 12.884 149.906 12.866 150.158 12.83C150.41 12.782 150.614 12.734 150.77 12.686V13.892C150.602 13.976 150.362 14.042 150.05 14.09C149.738 14.15 149.438 14.18 149.15 14.18C148.646 14.18 148.178 14.096 147.746 13.928C147.326 13.748 146.984 13.442 146.72 13.01C146.456 12.578 146.324 11.972 146.324 11.192V5.576H144.956V4.82L146.342 4.19L146.972 2.138H147.908V4.352H150.698V5.576H147.908V11.156C147.908 11.744 148.046 12.182 148.322 12.47C148.61 12.746 148.976 12.884 149.42 12.884ZM156.428 4.172C157.256 4.172 157.964 4.352 158.552 4.712C159.152 5.072 159.608 5.582 159.92 6.242C160.244 6.89 160.406 7.652 160.406 8.528V9.482H153.8C153.824 10.574 154.1 11.408 154.628 11.984C155.168 12.548 155.918 12.83 156.878 12.83C157.49 12.83 158.03 12.776 158.498 12.668C158.978 12.548 159.47 12.38 159.974 12.164V13.55C159.482 13.766 158.996 13.922 158.516 14.018C158.036 14.126 157.466 14.18 156.806 14.18C155.894 14.18 155.084 13.994 154.376 13.622C153.68 13.25 153.134 12.698 152.738 11.966C152.354 11.222 152.162 10.316 152.162 9.248C152.162 8.192 152.336 7.286 152.684 6.53C153.044 5.774 153.542 5.192 154.178 4.784C154.826 4.376 155.576 4.172 156.428 4.172ZM156.41 5.468C155.654 5.468 155.054 5.714 154.61 6.206C154.178 6.686 153.92 7.358 153.836 8.222H158.75C158.738 7.406 158.546 6.746 158.174 6.242C157.802 5.726 157.214 5.468 156.41 5.468ZM169.144 11.336C169.144 12.272 168.796 12.98 168.1 13.46C167.404 13.94 166.468 14.18 165.292 14.18C164.62 14.18 164.038 14.126 163.546 14.018C163.066 13.91 162.64 13.76 162.268 13.568V12.128C162.652 12.32 163.114 12.5 163.654 12.668C164.206 12.824 164.764 12.902 165.328 12.902C166.132 12.902 166.714 12.776 167.074 12.524C167.434 12.26 167.614 11.912 167.614 11.48C167.614 11.24 167.548 11.024 167.416 10.832C167.284 10.64 167.044 10.448 166.696 10.256C166.36 10.064 165.874 9.848 165.238 9.608C164.614 9.368 164.08 9.128 163.636 8.888C163.192 8.648 162.85 8.36 162.61 8.024C162.37 7.688 162.25 7.256 162.25 6.728C162.25 5.912 162.58 5.282 163.24 4.838C163.912 4.394 164.788 4.172 165.868 4.172C166.456 4.172 167.002 4.232 167.506 4.352C168.022 4.46 168.502 4.616 168.946 4.82L168.406 6.08C167.998 5.912 167.572 5.768 167.128 5.648C166.684 5.528 166.228 5.468 165.76 5.468C165.112 5.468 164.614 5.576 164.266 5.792C163.93 5.996 163.762 6.278 163.762 6.638C163.762 6.902 163.84 7.13 163.996 7.322C164.152 7.502 164.41 7.682 164.77 7.862C165.142 8.03 165.634 8.234 166.246 8.474C166.858 8.702 167.38 8.936 167.812 9.176C168.244 9.416 168.574 9.71 168.802 10.058C169.03 10.394 169.144 10.82 169.144 11.336ZM174.697 12.884C174.937 12.884 175.183 12.866 175.435 12.83C175.687 12.782 175.891 12.734 176.047 12.686V13.892C175.879 13.976 175.639 14.042 175.327 14.09C175.015 14.15 174.715 14.18 174.427 14.18C173.923 14.18 173.455 14.096 173.023 13.928C172.603 13.748 172.261 13.442 171.997 13.01C171.733 12.578 171.601 11.972 171.601 11.192V5.576H170.233V4.82L171.619 4.19L172.249 2.138H173.185V4.352H175.975V5.576H173.185V11.156C173.185 11.744 173.323 12.182 173.599 12.47C173.887 12.746 174.253 12.884 174.697 12.884ZM188.379 2.39C186.999 2.39 185.913 2.852 185.121 3.776C184.329 4.7 183.933 5.966 183.933 7.574C183.933 9.17 184.299 10.436 185.031 11.372C185.775 12.296 186.885 12.758 188.361 12.758C188.925 12.758 189.459 12.71 189.963 12.614C190.467 12.518 190.959 12.398 191.439 12.254V13.658C190.959 13.838 190.461 13.97 189.945 14.054C189.441 14.138 188.835 14.18 188.127 14.18C186.819 14.18 185.727 13.91 184.851 13.37C183.975 12.83 183.315 12.062 182.871 11.066C182.439 10.07 182.223 8.9 182.223 7.556C182.223 6.26 182.457 5.12 182.925 4.136C183.405 3.14 184.107 2.366 185.031 1.814C185.955 1.25 187.077 0.967999 188.397 0.967999C189.753 0.967999 190.935 1.22 191.943 1.724L191.295 3.092C190.899 2.912 190.455 2.75 189.963 2.606C189.483 2.462 188.955 2.39 188.379 2.39ZM195.612 14H194.028V0.319999H195.612V14ZM202.395 4.172C203.223 4.172 203.931 4.352 204.519 4.712C205.119 5.072 205.575 5.582 205.887 6.242C206.211 6.89 206.373 7.652 206.373 8.528V9.482H199.767C199.791 10.574 200.067 11.408 200.595 11.984C201.135 12.548 201.885 12.83 202.845 12.83C203.457 12.83 203.997 12.776 204.465 12.668C204.945 12.548 205.437 12.38 205.941 12.164V13.55C205.449 13.766 204.963 13.922 204.483 14.018C204.003 14.126 203.433 14.18 202.773 14.18C201.861 14.18 201.051 13.994 200.343 13.622C199.647 13.25 199.101 12.698 198.705 11.966C198.321 11.222 198.129 10.316 198.129 9.248C198.129 8.192 198.303 7.286 198.651 6.53C199.011 5.774 199.509 5.192 200.145 4.784C200.793 4.376 201.543 4.172 202.395 4.172ZM202.377 5.468C201.621 5.468 201.021 5.714 200.577 6.206C200.145 6.686 199.887 7.358 199.803 8.222H204.717C204.705 7.406 204.513 6.746 204.141 6.242C203.769 5.726 203.181 5.468 202.377 5.468ZM213.329 4.172C213.509 4.172 213.701 4.184 213.905 4.208C214.121 4.22 214.307 4.244 214.463 4.28L214.265 5.738C214.109 5.702 213.935 5.672 213.743 5.648C213.563 5.624 213.389 5.612 213.221 5.612C212.729 5.612 212.267 5.75 211.835 6.026C211.403 6.29 211.055 6.668 210.791 7.16C210.539 7.64 210.413 8.204 210.413 8.852V14H208.829V4.352H210.125L210.305 6.116H210.377C210.689 5.588 211.091 5.132 211.583 4.748C212.075 4.364 212.657 4.172 213.329 4.172ZM217.83 7.466C217.83 7.658 217.818 7.91 217.794 8.222C217.782 8.534 217.77 8.804 217.758 9.032H217.83C217.902 8.936 218.01 8.798 218.154 8.618C218.298 8.438 218.442 8.258 218.586 8.078C218.742 7.886 218.874 7.73 218.982 7.61L222.06 4.352H223.914L220.008 8.474L224.184 14H222.276L218.928 9.5L217.83 10.454V14H216.264V0.319999H217.83V7.466ZM232.162 11.336C232.162 12.272 231.814 12.98 231.118 13.46C230.422 13.94 229.486 14.18 228.31 14.18C227.638 14.18 227.056 14.126 226.564 14.018C226.084 13.91 225.658 13.76 225.286 13.568V12.128C225.67 12.32 226.132 12.5 226.672 12.668C227.224 12.824 227.782 12.902 228.346 12.902C229.15 12.902 229.732 12.776 230.092 12.524C230.452 12.26 230.632 11.912 230.632 11.48C230.632 11.24 230.566 11.024 230.434 10.832C230.302 10.64 230.062 10.448 229.714 10.256C229.378 10.064 228.892 9.848 228.256 9.608C227.632 9.368 227.098 9.128 226.654 8.888C226.21 8.648 225.868 8.36 225.628 8.024C225.388 7.688 225.268 7.256 225.268 6.728C225.268 5.912 225.598 5.282 226.258 4.838C226.93 4.394 227.806 4.172 228.886 4.172C229.474 4.172 230.02 4.232 230.524 4.352C231.04 4.46 231.52 4.616 231.964 4.82L231.424 6.08C231.016 5.912 230.59 5.768 230.146 5.648C229.702 5.528 229.246 5.468 228.778 5.468C228.13 5.468 227.632 5.576 227.284 5.792C226.948 5.996 226.78 6.278 226.78 6.638C226.78 6.902 226.858 7.13 227.014 7.322C227.17 7.502 227.428 7.682 227.788 7.862C228.16 8.03 228.652 8.234 229.264 8.474C229.876 8.702 230.398 8.936 230.83 9.176C231.262 9.416 231.592 9.71 231.82 10.058C232.048 10.394 232.162 10.82 232.162 11.336ZM232.981 4.352H234.673L236.761 9.842C236.941 10.322 237.103 10.784 237.247 11.228C237.391 11.66 237.499 12.074 237.571 12.47H237.643C237.715 12.17 237.829 11.78 237.985 11.3C238.141 10.808 238.303 10.316 238.471 9.824L240.433 4.352H242.143L237.985 15.332C237.649 16.244 237.211 16.97 236.671 17.51C236.143 18.05 235.411 18.32 234.475 18.32C234.187 18.32 233.935 18.302 233.719 18.266C233.503 18.242 233.317 18.212 233.161 18.176V16.916C233.293 16.94 233.449 16.964 233.629 16.988C233.821 17.012 234.019 17.024 234.223 17.024C234.775 17.024 235.219 16.868 235.555 16.556C235.903 16.244 236.173 15.83 236.365 15.314L236.869 14.036L232.981 4.352ZM252.988 4.172C254.14 4.172 255.01 4.454 255.598 5.018C256.186 5.57 256.48 6.47 256.48 7.718V14H254.914V7.826C254.914 6.278 254.194 5.504 252.754 5.504C251.686 5.504 250.948 5.804 250.54 6.404C250.132 7.004 249.928 7.868 249.928 8.996V14H248.344V4.352H249.622L249.856 5.666H249.946C250.258 5.162 250.69 4.79 251.242 4.55C251.794 4.298 252.376 4.172 252.988 4.172ZM263.197 4.172C264.025 4.172 264.733 4.352 265.321 4.712C265.921 5.072 266.377 5.582 266.689 6.242C267.013 6.89 267.175 7.652 267.175 8.528V9.482H260.569C260.593 10.574 260.869 11.408 261.397 11.984C261.937 12.548 262.687 12.83 263.647 12.83C264.259 12.83 264.799 12.776 265.267 12.668C265.747 12.548 266.239 12.38 266.743 12.164V13.55C266.251 13.766 265.765 13.922 265.285 14.018C264.805 14.126 264.235 14.18 263.575 14.18C262.663 14.18 261.853 13.994 261.145 13.622C260.449 13.25 259.903 12.698 259.507 11.966C259.123 11.222 258.931 10.316 258.931 9.248C258.931 8.192 259.105 7.286 259.453 6.53C259.813 5.774 260.311 5.192 260.947 4.784C261.595 4.376 262.345 4.172 263.197 4.172ZM263.179 5.468C262.423 5.468 261.823 5.714 261.379 6.206C260.947 6.686 260.689 7.358 260.605 8.222H265.519C265.507 7.406 265.315 6.746 264.943 6.242C264.571 5.726 263.983 5.468 263.179 5.468ZM275.508 8.546C275.352 8.054 275.214 7.574 275.094 7.106C274.986 6.626 274.902 6.254 274.842 5.99H274.77C274.722 6.254 274.644 6.626 274.536 7.106C274.428 7.574 274.29 8.06 274.122 8.564L272.394 13.982H270.594L267.948 4.334H269.586L270.918 9.482C271.05 9.998 271.176 10.52 271.296 11.048C271.416 11.576 271.5 12.014 271.548 12.362H271.62C271.668 12.158 271.722 11.906 271.782 11.606C271.854 11.306 271.932 10.994 272.016 10.67C272.1 10.334 272.184 10.034 272.268 9.77L273.978 4.334H275.706L277.362 9.77C277.494 10.178 277.62 10.622 277.74 11.102C277.872 11.582 277.962 11.996 278.01 12.344H278.082C278.118 12.044 278.196 11.63 278.316 11.102C278.448 10.574 278.586 10.034 278.73 9.482L280.08 4.334H281.7L279.018 13.982H277.164L275.508 8.546ZM289.712 11.336C289.712 12.272 289.364 12.98 288.668 13.46C287.972 13.94 287.036 14.18 285.86 14.18C285.188 14.18 284.606 14.126 284.114 14.018C283.634 13.91 283.208 13.76 282.836 13.568V12.128C283.22 12.32 283.682 12.5 284.222 12.668C284.774 12.824 285.332 12.902 285.896 12.902C286.7 12.902 287.282 12.776 287.642 12.524C288.002 12.26 288.182 11.912 288.182 11.48C288.182 11.24 288.116 11.024 287.984 10.832C287.852 10.64 287.612 10.448 287.264 10.256C286.928 10.064 286.442 9.848 285.806 9.608C285.182 9.368 284.648 9.128 284.204 8.888C283.76 8.648 283.418 8.36 283.178 8.024C282.938 7.688 282.818 7.256 282.818 6.728C282.818 5.912 283.148 5.282 283.808 4.838C284.48 4.394 285.356 4.172 286.436 4.172C287.024 4.172 287.57 4.232 288.074 4.352C288.59 4.46 289.07 4.616 289.514 4.82L288.974 6.08C288.566 5.912 288.14 5.768 287.696 5.648C287.252 5.528 286.796 5.468 286.328 5.468C285.68 5.468 285.182 5.576 284.834 5.792C284.498 5.996 284.33 6.278 284.33 6.638C284.33 6.902 284.408 7.13 284.564 7.322C284.72 7.502 284.978 7.682 285.338 7.862C285.71 8.03 286.202 8.234 286.814 8.474C287.426 8.702 287.948 8.936 288.38 9.176C288.812 9.416 289.142 9.71 289.37 10.058C289.598 10.394 289.712 10.82 289.712 11.336ZM291.81 13.028C291.81 12.584 291.918 12.272 292.134 12.092C292.35 11.912 292.608 11.822 292.908 11.822C293.22 11.822 293.484 11.912 293.7 12.092C293.928 12.272 294.042 12.584 294.042 13.028C294.042 13.46 293.928 13.772 293.7 13.964C293.484 14.156 293.22 14.252 292.908 14.252C292.608 14.252 292.35 14.156 292.134 13.964C291.918 13.772 291.81 13.46 291.81 13.028Z" fill="#163A24"/>
</svg>
