<svg width="284" height="19" viewBox="0 0 284 19" fill="none" xmlns="http://www.w3.org/2000/svg">
<path d="M9.036 10.562C9.036 11.702 8.622 12.59 7.794 13.226C6.966 13.862 5.85 14.18 4.446 14.18C3.726 14.18 3.06 14.126 2.448 14.018C1.836 13.91 1.326 13.76 0.918 13.568V12.02C1.35 12.212 1.884 12.386 2.52 12.542C3.168 12.698 3.834 12.776 4.518 12.776C5.478 12.776 6.198 12.59 6.678 12.218C7.17 11.846 7.416 11.342 7.416 10.706C7.416 10.286 7.326 9.932 7.146 9.644C6.966 9.356 6.654 9.092 6.21 8.852C5.778 8.6 5.172 8.336 4.392 8.06C3.3 7.664 2.472 7.178 1.908 6.602C1.356 6.026 1.08 5.24 1.08 4.244C1.08 3.56 1.254 2.978 1.602 2.498C1.95 2.006 2.43 1.628 3.042 1.364C3.666 1.1 4.38 0.967999 5.184 0.967999C5.892 0.967999 6.54 1.034 7.128 1.166C7.716 1.298 8.25 1.472 8.73 1.688L8.226 3.074C7.782 2.882 7.296 2.72 6.768 2.588C6.252 2.456 5.712 2.39 5.148 2.39C4.344 2.39 3.738 2.564 3.33 2.912C2.922 3.248 2.718 3.698 2.718 4.262C2.718 4.694 2.808 5.054 2.988 5.342C3.168 5.63 3.462 5.888 3.87 6.116C4.278 6.344 4.83 6.59 5.526 6.854C6.282 7.13 6.918 7.43 7.434 7.754C7.962 8.066 8.358 8.444 8.622 8.888C8.898 9.332 9.036 9.89 9.036 10.562ZM12.2189 0.733999C12.4589 0.733999 12.6689 0.817999 12.8489 0.985999C13.0409 1.142 13.1369 1.394 13.1369 1.742C13.1369 2.078 13.0409 2.33 12.8489 2.498C12.6689 2.666 12.4589 2.75 12.2189 2.75C11.9549 2.75 11.7329 2.666 11.5529 2.498C11.3729 2.33 11.2829 2.078 11.2829 1.742C11.2829 1.394 11.3729 1.142 11.5529 0.985999C11.7329 0.817999 11.9549 0.733999 12.2189 0.733999ZM12.9929 4.352V14H11.4089V4.352H12.9929ZM26.6335 4.172C27.7255 4.172 28.5415 4.454 29.0815 5.018C29.6215 5.57 29.8915 6.47 29.8915 7.718V14H28.3255V7.79C28.3255 6.266 27.6715 5.504 26.3635 5.504C25.4275 5.504 24.7555 5.774 24.3475 6.314C23.9515 6.854 23.7535 7.64 23.7535 8.672V14H22.1875V7.79C22.1875 6.266 21.5275 5.504 20.2075 5.504C19.2355 5.504 18.5635 5.804 18.1915 6.404C17.8195 7.004 17.6335 7.868 17.6335 8.996V14H16.0495V4.352H17.3275L17.5615 5.666H17.6515C17.9515 5.162 18.3535 4.79 18.8575 4.55C19.3735 4.298 19.9195 4.172 20.4955 4.172C22.0075 4.172 22.9915 4.712 23.4475 5.792H23.5375C23.8615 5.24 24.2995 4.832 24.8515 4.568C25.4155 4.304 26.0095 4.172 26.6335 4.172ZM37.4618 4.172C38.6498 4.172 39.6038 4.586 40.3238 5.414C41.0558 6.242 41.4218 7.49 41.4218 9.158C41.4218 10.802 41.0558 12.05 40.3238 12.902C39.6038 13.754 38.6438 14.18 37.4438 14.18C36.6998 14.18 36.0818 14.042 35.5898 13.766C35.1098 13.478 34.7318 13.148 34.4558 12.776H34.3478C34.3718 12.98 34.3958 13.238 34.4198 13.55C34.4438 13.862 34.4558 14.132 34.4558 14.36V18.32H32.8718V4.352H34.1678L34.3838 5.666H34.4558C34.7438 5.246 35.1218 4.892 35.5898 4.604C36.0578 4.316 36.6818 4.172 37.4618 4.172ZM37.1738 5.504C36.1898 5.504 35.4938 5.78 35.0858 6.332C34.6898 6.884 34.4798 7.724 34.4558 8.852V9.158C34.4558 10.346 34.6478 11.264 35.0318 11.912C35.4278 12.548 36.1538 12.866 37.2098 12.866C37.7978 12.866 38.2778 12.704 38.6498 12.38C39.0338 12.056 39.3158 11.618 39.4958 11.066C39.6878 10.502 39.7838 9.86 39.7838 9.14C39.7838 8.036 39.5678 7.154 39.1358 6.494C38.7158 5.834 38.0618 5.504 37.1738 5.504ZM45.53 14H43.946V0.319999H45.53V14ZM52.3126 4.172C53.1406 4.172 53.8486 4.352 54.4366 4.712C55.0366 5.072 55.4926 5.582 55.8046 6.242C56.1286 6.89 56.2906 7.652 56.2906 8.528V9.482H49.6846C49.7086 10.574 49.9846 11.408 50.5126 11.984C51.0526 12.548 51.8026 12.83 52.7626 12.83C53.3746 12.83 53.9146 12.776 54.3826 12.668C54.8626 12.548 55.3546 12.38 55.8586 12.164V13.55C55.3666 13.766 54.8806 13.922 54.4006 14.018C53.9206 14.126 53.3506 14.18 52.6906 14.18C51.7786 14.18 50.9686 13.994 50.2606 13.622C49.5646 13.25 49.0186 12.698 48.6226 11.966C48.2386 11.222 48.0466 10.316 48.0466 9.248C48.0466 8.192 48.2206 7.286 48.5686 6.53C48.9286 5.774 49.4266 5.192 50.0626 4.784C50.7106 4.376 51.4606 4.172 52.3126 4.172ZM52.2946 5.468C51.5386 5.468 50.9386 5.714 50.4946 6.206C50.0626 6.686 49.8046 7.358 49.7206 8.222H54.6346C54.6226 7.406 54.4306 6.746 54.0586 6.242C53.6866 5.726 53.0986 5.468 52.2946 5.468ZM58.5128 13.028C58.5128 12.584 58.6208 12.272 58.8368 12.092C59.0528 11.912 59.3108 11.822 59.6108 11.822C59.9228 11.822 60.1868 11.912 60.4028 12.092C60.6308 12.272 60.7448 12.584 60.7448 13.028C60.7448 13.46 60.6308 13.772 60.4028 13.964C60.1868 14.156 59.9228 14.252 59.6108 14.252C59.3108 14.252 59.0528 14.156 58.8368 13.964C58.6208 13.772 58.5128 13.46 58.5128 13.028ZM75.637 14H68.455V1.148H75.637V2.57H70.075V6.584H75.313V7.988H70.075V12.578H75.637V14ZM82.8849 4.172C84.0369 4.172 84.9069 4.454 85.4949 5.018C86.0829 5.57 86.3769 6.47 86.3769 7.718V14H84.8109V7.826C84.8109 6.278 84.0909 5.504 82.6509 5.504C81.5829 5.504 80.8449 5.804 80.4369 6.404C80.0289 7.004 79.8249 7.868 79.8249 8.996V14H78.2409V4.352H79.5189L79.7529 5.666H79.8429C80.1549 5.162 80.5869 4.79 81.1389 4.55C81.6909 4.298 82.2729 4.172 82.8849 4.172ZM92.5899 12.884C92.8299 12.884 93.0759 12.866 93.3279 12.83C93.5799 12.782 93.7839 12.734 93.9399 12.686V13.892C93.7719 13.976 93.5319 14.042 93.2199 14.09C92.9079 14.15 92.6079 14.18 92.3199 14.18C91.8159 14.18 91.3479 14.096 90.9159 13.928C90.4959 13.748 90.1539 13.442 89.8899 13.01C89.6259 12.578 89.4939 11.972 89.4939 11.192V5.576H88.1259V4.82L89.5119 4.19L90.1419 2.138H91.0779V4.352H93.8679V5.576H91.0779V11.156C91.0779 11.744 91.2159 12.182 91.4919 12.47C91.7799 12.746 92.1459 12.884 92.5899 12.884ZM99.5978 4.172C100.426 4.172 101.134 4.352 101.722 4.712C102.322 5.072 102.778 5.582 103.09 6.242C103.414 6.89 103.576 7.652 103.576 8.528V9.482H96.9698C96.9938 10.574 97.2698 11.408 97.7978 11.984C98.3378 12.548 99.0878 12.83 100.048 12.83C100.66 12.83 101.2 12.776 101.668 12.668C102.148 12.548 102.64 12.38 103.144 12.164V13.55C102.652 13.766 102.166 13.922 101.686 14.018C101.206 14.126 100.636 14.18 99.9758 14.18C99.0638 14.18 98.2538 13.994 97.5458 13.622C96.8498 13.25 96.3038 12.698 95.9078 11.966C95.5238 11.222 95.3318 10.316 95.3318 9.248C95.3318 8.192 95.5058 7.286 95.8538 6.53C96.2138 5.774 96.7118 5.192 97.3478 4.784C97.9958 4.376 98.7458 4.172 99.5978 4.172ZM99.5798 5.468C98.8238 5.468 98.2238 5.714 97.7798 6.206C97.3478 6.686 97.0898 7.358 97.0058 8.222H101.92C101.908 7.406 101.716 6.746 101.344 6.242C100.972 5.726 100.384 5.468 99.5798 5.468ZM110.532 4.172C110.712 4.172 110.904 4.184 111.108 4.208C111.324 4.22 111.51 4.244 111.666 4.28L111.468 5.738C111.312 5.702 111.138 5.672 110.946 5.648C110.766 5.624 110.592 5.612 110.424 5.612C109.932 5.612 109.47 5.75 109.038 6.026C108.606 6.29 108.258 6.668 107.994 7.16C107.742 7.64 107.616 8.204 107.616 8.852V14H106.032V4.352H107.328L107.508 6.116H107.58C107.892 5.588 108.294 5.132 108.786 4.748C109.278 4.364 109.86 4.172 110.532 4.172ZM116.689 12.884C116.93 12.884 117.176 12.866 117.428 12.83C117.68 12.782 117.884 12.734 118.04 12.686V13.892C117.872 13.976 117.632 14.042 117.32 14.09C117.008 14.15 116.708 14.18 116.42 14.18C115.916 14.18 115.448 14.096 115.016 13.928C114.596 13.748 114.254 13.442 113.99 13.01C113.726 12.578 113.594 11.972 113.594 11.192V5.576H112.226V4.82L113.612 4.19L114.242 2.138H115.178V4.352H117.968V5.576H115.178V11.156C115.178 11.744 115.316 12.182 115.592 12.47C115.88 12.746 116.246 12.884 116.689 12.884ZM123.625 4.19C124.801 4.19 125.671 4.448 126.235 4.964C126.799 5.48 127.081 6.302 127.081 7.43V14H125.929L125.623 12.632H125.551C125.131 13.16 124.687 13.55 124.219 13.802C123.763 14.054 123.127 14.18 122.311 14.18C121.435 14.18 120.709 13.952 120.133 13.496C119.557 13.028 119.269 12.302 119.269 11.318C119.269 10.358 119.647 9.62 120.403 9.104C121.159 8.576 122.323 8.288 123.895 8.24L125.533 8.186V7.61C125.533 6.806 125.359 6.248 125.011 5.936C124.663 5.624 124.171 5.468 123.535 5.468C123.031 5.468 122.551 5.546 122.095 5.702C121.639 5.846 121.213 6.014 120.817 6.206L120.331 5.018C120.751 4.79 121.249 4.598 121.825 4.442C122.401 4.274 123.001 4.19 123.625 4.19ZM124.093 9.338C122.893 9.386 122.059 9.578 121.591 9.914C121.135 10.25 120.907 10.724 120.907 11.336C120.907 11.876 121.069 12.272 121.393 12.524C121.729 12.776 122.155 12.902 122.671 12.902C123.487 12.902 124.165 12.68 124.705 12.236C125.245 11.78 125.515 11.084 125.515 10.148V9.284L124.093 9.338ZM130.871 0.733999C131.111 0.733999 131.321 0.817999 131.501 0.985999C131.693 1.142 131.789 1.394 131.789 1.742C131.789 2.078 131.693 2.33 131.501 2.498C131.321 2.666 131.111 2.75 130.871 2.75C130.607 2.75 130.385 2.666 130.205 2.498C130.025 2.33 129.935 2.078 129.935 1.742C129.935 1.394 130.025 1.142 130.205 0.985999C130.385 0.817999 130.607 0.733999 130.871 0.733999ZM131.645 4.352V14H130.061V4.352H131.645ZM139.346 4.172C140.498 4.172 141.368 4.454 141.956 5.018C142.544 5.57 142.838 6.47 142.838 7.718V14H141.272V7.826C141.272 6.278 140.552 5.504 139.112 5.504C138.044 5.504 137.306 5.804 136.898 6.404C136.49 7.004 136.286 7.868 136.286 8.996V14H134.702V4.352H135.98L136.214 5.666H136.304C136.616 5.162 137.048 4.79 137.6 4.55C138.152 4.298 138.734 4.172 139.346 4.172ZM146.639 0.733999C146.879 0.733999 147.089 0.817999 147.269 0.985999C147.461 1.142 147.557 1.394 147.557 1.742C147.557 2.078 147.461 2.33 147.269 2.498C147.089 2.666 146.879 2.75 146.639 2.75C146.375 2.75 146.153 2.666 145.973 2.498C145.793 2.33 145.703 2.078 145.703 1.742C145.703 1.394 145.793 1.142 145.973 0.985999C146.153 0.817999 146.375 0.733999 146.639 0.733999ZM147.413 4.352V14H145.829V4.352H147.413ZM155.113 4.172C156.265 4.172 157.135 4.454 157.723 5.018C158.311 5.57 158.605 6.47 158.605 7.718V14H157.039V7.826C157.039 6.278 156.319 5.504 154.879 5.504C153.811 5.504 153.073 5.804 152.665 6.404C152.257 7.004 152.053 7.868 152.053 8.996V14H150.469V4.352H151.747L151.981 5.666H152.071C152.383 5.162 152.815 4.79 153.367 4.55C153.919 4.298 154.501 4.172 155.113 4.172ZM165.016 4.172C165.652 4.172 166.222 4.292 166.726 4.532C167.242 4.772 167.68 5.138 168.04 5.63H168.13L168.346 4.352H169.606V14.162C169.606 15.542 169.252 16.58 168.544 17.276C167.848 17.972 166.762 18.32 165.286 18.32C163.87 18.32 162.712 18.116 161.812 17.708V16.25C162.76 16.754 163.948 17.006 165.376 17.006C166.204 17.006 166.852 16.76 167.32 16.268C167.8 15.788 168.04 15.128 168.04 14.288V13.91C168.04 13.766 168.046 13.562 168.058 13.298C168.07 13.022 168.082 12.83 168.094 12.722H168.022C167.374 13.694 166.378 14.18 165.034 14.18C163.786 14.18 162.808 13.742 162.1 12.866C161.404 11.99 161.056 10.766 161.056 9.194C161.056 7.658 161.404 6.44 162.1 5.54C162.808 4.628 163.78 4.172 165.016 4.172ZM165.232 5.504C164.428 5.504 163.804 5.828 163.36 6.476C162.916 7.112 162.694 8.024 162.694 9.212C162.694 10.4 162.91 11.312 163.342 11.948C163.786 12.572 164.428 12.884 165.268 12.884C166.24 12.884 166.948 12.626 167.392 12.11C167.836 11.582 168.058 10.736 168.058 9.572V9.194C168.058 7.874 167.83 6.932 167.374 6.368C166.918 5.792 166.204 5.504 165.232 5.504ZM172.437 13.028C172.437 12.584 172.545 12.272 172.761 12.092C172.977 11.912 173.235 11.822 173.535 11.822C173.847 11.822 174.111 11.912 174.327 12.092C174.555 12.272 174.669 12.584 174.669 13.028C174.669 13.46 174.555 13.772 174.327 13.964C174.111 14.156 173.847 14.252 173.535 14.252C173.235 14.252 172.977 14.156 172.761 13.964C172.545 13.772 172.437 13.46 172.437 13.028ZM185.997 14H181.353V13.064L182.865 12.722V2.444L181.353 2.084V1.148H185.997V2.084L184.485 2.444V12.722L185.997 13.064V14ZM192.906 4.172C194.058 4.172 194.928 4.454 195.516 5.018C196.104 5.57 196.398 6.47 196.398 7.718V14H194.832V7.826C194.832 6.278 194.112 5.504 192.672 5.504C191.604 5.504 190.866 5.804 190.458 6.404C190.05 7.004 189.846 7.868 189.846 8.996V14H188.262V4.352H189.54L189.774 5.666H189.864C190.176 5.162 190.608 4.79 191.16 4.55C191.712 4.298 192.294 4.172 192.906 4.172ZM203.835 5.576H201.405V14H199.821V5.576H198.129V4.838L199.821 4.298V3.74C199.821 2.492 200.097 1.598 200.649 1.058C201.201 0.505999 201.969 0.229999 202.953 0.229999C203.337 0.229999 203.685 0.265999 203.997 0.337999C204.321 0.398 204.597 0.47 204.825 0.553999L204.411 1.796C204.219 1.736 203.997 1.676 203.745 1.616C203.493 1.556 203.235 1.526 202.971 1.526C202.443 1.526 202.047 1.706 201.783 2.066C201.531 2.414 201.405 2.966 201.405 3.722V4.352H203.835V5.576ZM213.965 9.158C213.965 10.754 213.557 11.99 212.741 12.866C211.937 13.742 210.845 14.18 209.465 14.18C208.613 14.18 207.851 13.988 207.179 13.604C206.519 13.208 205.997 12.638 205.613 11.894C205.229 11.138 205.037 10.226 205.037 9.158C205.037 7.562 205.439 6.332 206.243 5.468C207.047 4.604 208.139 4.172 209.519 4.172C210.395 4.172 211.163 4.37 211.823 4.766C212.495 5.15 213.017 5.714 213.389 6.458C213.773 7.19 213.965 8.09 213.965 9.158ZM206.675 9.158C206.675 10.298 206.897 11.204 207.341 11.876C207.797 12.536 208.517 12.866 209.501 12.866C210.473 12.866 211.187 12.536 211.643 11.876C212.099 11.204 212.327 10.298 212.327 9.158C212.327 8.018 212.099 7.124 211.643 6.476C211.187 5.828 210.467 5.504 209.483 5.504C208.499 5.504 207.785 5.828 207.341 6.476C206.897 7.124 206.675 8.018 206.675 9.158ZM220.975 4.172C221.155 4.172 221.347 4.184 221.551 4.208C221.767 4.22 221.953 4.244 222.109 4.28L221.911 5.738C221.755 5.702 221.581 5.672 221.389 5.648C221.209 5.624 221.035 5.612 220.867 5.612C220.375 5.612 219.913 5.75 219.481 6.026C219.049 6.29 218.701 6.668 218.437 7.16C218.185 7.64 218.059 8.204 218.059 8.852V14H216.475V4.352H217.771L217.951 6.116H218.023C218.335 5.588 218.737 5.132 219.229 4.748C219.721 4.364 220.303 4.172 220.975 4.172ZM234.495 4.172C235.587 4.172 236.403 4.454 236.943 5.018C237.483 5.57 237.753 6.47 237.753 7.718V14H236.187V7.79C236.187 6.266 235.533 5.504 234.225 5.504C233.289 5.504 232.617 5.774 232.209 6.314C231.813 6.854 231.615 7.64 231.615 8.672V14H230.049V7.79C230.049 6.266 229.389 5.504 228.069 5.504C227.097 5.504 226.425 5.804 226.053 6.404C225.681 7.004 225.495 7.868 225.495 8.996V14H223.911V4.352H225.189L225.423 5.666H225.513C225.813 5.162 226.215 4.79 226.719 4.55C227.235 4.298 227.781 4.172 228.357 4.172C229.869 4.172 230.853 4.712 231.309 5.792H231.399C231.723 5.24 232.161 4.832 232.713 4.568C233.277 4.304 233.871 4.172 234.495 4.172ZM244.387 4.19C245.563 4.19 246.433 4.448 246.997 4.964C247.561 5.48 247.843 6.302 247.843 7.43V14H246.691L246.385 12.632H246.313C245.893 13.16 245.449 13.55 244.981 13.802C244.525 14.054 243.889 14.18 243.073 14.18C242.197 14.18 241.471 13.952 240.895 13.496C240.319 13.028 240.031 12.302 240.031 11.318C240.031 10.358 240.409 9.62 241.165 9.104C241.921 8.576 243.085 8.288 244.657 8.24L246.295 8.186V7.61C246.295 6.806 246.121 6.248 245.773 5.936C245.425 5.624 244.933 5.468 244.297 5.468C243.793 5.468 243.313 5.546 242.857 5.702C242.401 5.846 241.975 6.014 241.579 6.206L241.093 5.018C241.513 4.79 242.011 4.598 242.587 4.442C243.163 4.274 243.763 4.19 244.387 4.19ZM244.855 9.338C243.655 9.386 242.821 9.578 242.353 9.914C241.897 10.25 241.669 10.724 241.669 11.336C241.669 11.876 241.831 12.272 242.155 12.524C242.491 12.776 242.917 12.902 243.433 12.902C244.249 12.902 244.927 12.68 245.467 12.236C246.007 11.78 246.277 11.084 246.277 10.148V9.284L244.855 9.338ZM254.045 12.884C254.285 12.884 254.531 12.866 254.783 12.83C255.035 12.782 255.239 12.734 255.395 12.686V13.892C255.227 13.976 254.987 14.042 254.675 14.09C254.363 14.15 254.063 14.18 253.775 14.18C253.271 14.18 252.803 14.096 252.371 13.928C251.951 13.748 251.609 13.442 251.345 13.01C251.081 12.578 250.949 11.972 250.949 11.192V5.576H249.581V4.82L250.967 4.19L251.597 2.138H252.533V4.352H255.323V5.576H252.533V11.156C252.533 11.744 252.671 12.182 252.947 12.47C253.235 12.746 253.601 12.884 254.045 12.884ZM258.137 0.733999C258.377 0.733999 258.587 0.817999 258.767 0.985999C258.959 1.142 259.055 1.394 259.055 1.742C259.055 2.078 258.959 2.33 258.767 2.498C258.587 2.666 258.377 2.75 258.137 2.75C257.873 2.75 257.651 2.666 257.471 2.498C257.291 2.33 257.201 2.078 257.201 1.742C257.201 1.394 257.291 1.142 257.471 0.985999C257.651 0.817999 257.873 0.733999 258.137 0.733999ZM258.911 4.352V14H257.327V4.352H258.911ZM264.092 14L260.438 4.352H262.13L264.182 10.04C264.278 10.304 264.38 10.598 264.488 10.922C264.596 11.246 264.692 11.558 264.776 11.858C264.86 12.146 264.92 12.392 264.956 12.596H265.028C265.076 12.392 265.142 12.14 265.226 11.84C265.322 11.54 265.424 11.228 265.532 10.904C265.652 10.58 265.754 10.292 265.838 10.04L267.89 4.352H269.582L265.91 14H264.092ZM274.834 4.172C275.662 4.172 276.37 4.352 276.958 4.712C277.558 5.072 278.014 5.582 278.326 6.242C278.65 6.89 278.812 7.652 278.812 8.528V9.482H272.206C272.23 10.574 272.506 11.408 273.034 11.984C273.574 12.548 274.324 12.83 275.284 12.83C275.896 12.83 276.436 12.776 276.904 12.668C277.384 12.548 277.876 12.38 278.38 12.164V13.55C277.888 13.766 277.402 13.922 276.922 14.018C276.442 14.126 275.872 14.18 275.212 14.18C274.3 14.18 273.49 13.994 272.782 13.622C272.086 13.25 271.54 12.698 271.144 11.966C270.76 11.222 270.568 10.316 270.568 9.248C270.568 8.192 270.742 7.286 271.09 6.53C271.45 5.774 271.948 5.192 272.584 4.784C273.232 4.376 273.982 4.172 274.834 4.172ZM274.816 5.468C274.06 5.468 273.46 5.714 273.016 6.206C272.584 6.686 272.326 7.358 272.242 8.222H277.156C277.144 7.406 276.952 6.746 276.58 6.242C276.208 5.726 275.62 5.468 274.816 5.468ZM281.034 13.028C281.034 12.584 281.142 12.272 281.358 12.092C281.574 11.912 281.832 11.822 282.132 11.822C282.444 11.822 282.708 11.912 282.924 12.092C283.152 12.272 283.266 12.584 283.266 13.028C283.266 13.46 283.152 13.772 282.924 13.964C282.708 14.156 282.444 14.252 282.132 14.252C281.832 14.252 281.574 14.156 281.358 13.964C281.142 13.772 281.034 13.46 281.034 13.028Z" fill="#163A24"/>
</svg>
