<svg width="336" height="48" viewBox="0 0 336 48" fill="none" xmlns="http://www.w3.org/2000/svg">
<path d="M14.6 37.48C10.344 37.48 6.904 36.584 4.28 34.792C1.688 32.968 0.392 30.984 0.392 28.84C0.392 27.944 0.632 27.24 1.112 26.728C1.592 26.184 2.312 25.912 3.272 25.912C4.136 25.944 4.872 26.264 5.48 26.872C6.12 27.48 6.664 28.216 7.112 29.08C7.592 29.944 8.104 30.808 8.648 31.672C9.192 32.504 9.992 33.224 11.048 33.832C12.104 34.44 13.384 34.744 14.888 34.744C16.584 34.744 17.928 34.312 18.92 33.448C19.944 32.552 20.456 31.368 20.456 29.896C20.456 28.52 20.088 27.384 19.352 26.488C18.648 25.592 17.72 24.92 16.568 24.472C15.448 23.992 14.2 23.592 12.824 23.272C11.448 22.92 10.072 22.52 8.696 22.072C7.32 21.624 6.056 21.064 4.904 20.392C3.752 19.688 2.808 18.68 2.072 17.368C1.368 16.024 1.016 14.392 1.016 12.472C1.016 9.528 2.152 7.128 4.424 5.272C6.728 3.416 9.832 2.488 13.736 2.488C17.576 2.488 20.76 3.352 23.288 5.08C25.848 6.776 27.112 8.68 27.08 10.792C27.08 12.776 26.056 13.768 24.008 13.768C23.048 13.768 22.248 13.48 21.608 12.904C21 12.296 20.488 11.576 20.072 10.744C19.688 9.912 19.272 9.08 18.824 8.248C18.376 7.416 17.704 6.712 16.808 6.136C15.944 5.528 14.872 5.224 13.592 5.224C11.832 5.224 10.488 5.688 9.56 6.616C8.632 7.544 8.168 8.728 8.168 10.168C8.168 11.544 8.52 12.696 9.224 13.624C9.96 14.552 10.888 15.256 12.008 15.736C13.16 16.216 14.424 16.648 15.8 17.032C17.176 17.384 18.552 17.8 19.928 18.28C21.304 18.728 22.552 19.288 23.672 19.96C24.824 20.632 25.752 21.624 26.456 22.936C27.192 24.248 27.56 25.832 27.56 27.688C27.56 30.696 26.312 33.08 23.816 34.84C21.32 36.6 18.248 37.48 14.6 37.48ZM39.6148 37.48C37.3748 37.48 35.5988 36.776 34.2868 35.368C33.0068 33.928 32.3668 31.864 32.3668 29.176V16.744H30.1108C29.4708 16.744 29.1508 16.424 29.1508 15.784V14.968C29.1508 14.296 29.4708 13.96 30.1108 13.96H31.3108C32.6228 13.96 33.7268 13.528 34.6228 12.664C35.5508 11.8 36.1428 10.648 36.3988 9.208C36.5588 8.44 36.9268 8.056 37.5028 8.056H38.4628C39.1668 8.056 39.5188 8.44 39.5188 9.208L39.5668 13.96H45.0868C45.3428 13.96 45.5668 14.056 45.7588 14.248C45.9508 14.44 46.0468 14.68 46.0468 14.968V15.784C46.0468 16.072 45.9508 16.312 45.7588 16.504C45.5668 16.664 45.3428 16.744 45.0868 16.744H39.5668V29.272C39.5668 30.2 39.7908 30.952 40.2388 31.528C40.7188 32.072 41.3108 32.344 42.0148 32.344C43.6788 32.344 44.7668 31.624 45.2788 30.184C45.5668 29.768 45.9188 29.608 46.3348 29.704C46.7828 29.768 47.0068 30.024 47.0068 30.472C47.0068 32.328 46.3348 33.96 44.9908 35.368C43.6788 36.776 41.8868 37.48 39.6148 37.48ZM70.5121 32.2C70.6081 32.936 70.7841 33.528 71.0401 33.976C71.3281 34.424 71.6161 34.712 71.9041 34.84C72.1921 34.936 72.4481 35.064 72.6721 35.224C72.8961 35.384 73.0081 35.608 73.0081 35.896C73.0081 36.824 71.4721 37.288 68.4001 37.288C66.9921 37.288 65.9521 37.112 65.2801 36.76C64.6401 36.376 64.2561 35.688 64.1281 34.696C62.8801 36.552 60.7521 37.48 57.7441 37.48C55.0561 37.48 52.8801 36.856 51.2161 35.608C49.5521 34.36 48.7201 32.568 48.7201 30.232C48.6881 27.928 49.5041 26.136 51.1681 24.856C52.8321 23.576 54.9121 22.936 57.4081 22.936C59.5201 22.936 61.2641 23.416 62.6401 24.376L62.5921 23.8C62.2721 20.76 61.8241 18.616 61.2481 17.368C60.6721 16.12 59.6961 15.496 58.3201 15.496C57.4561 15.496 56.7521 15.816 56.2081 16.456C55.6641 17.096 55.2801 17.8 55.0561 18.568C54.8321 19.336 54.4641 20.04 53.9521 20.68C53.4401 21.32 52.7841 21.64 51.9841 21.64C51.1201 21.64 50.4161 21.4 49.8721 20.92C49.3601 20.408 49.1041 19.752 49.1041 18.952C49.1041 17.288 49.9841 15.96 51.7441 14.968C53.5361 13.976 55.7281 13.48 58.3201 13.48C61.4241 13.48 63.9681 14.36 65.9521 16.12C67.9361 17.88 69.1041 20.28 69.4561 23.32L70.5121 32.2ZM59.8561 35.368C60.9121 35.368 61.7601 34.936 62.4001 34.072C63.0401 33.176 63.3281 32.168 63.2641 31.048L63.1201 29.368C62.9921 27.992 62.5761 26.936 61.8721 26.2C61.2001 25.464 60.3521 25.096 59.3281 25.096C58.3041 25.096 57.4561 25.464 56.7841 26.2C56.1441 26.936 55.8241 27.912 55.8241 29.128C55.8241 30.856 56.1921 32.328 56.9281 33.544C57.6961 34.76 58.6721 35.368 59.8561 35.368ZM97.1911 13.96C97.8311 13.96 98.1511 14.216 98.1511 14.728V14.968C98.1511 15.384 97.8151 15.944 97.1431 16.648C96.5031 17.352 96.0231 18.04 95.7031 18.712L86.6311 38.44C86.2151 39.368 85.8631 40.12 85.5751 40.696C85.2871 41.272 84.8391 42.024 84.2311 42.952C83.6551 43.912 83.0791 44.664 82.5031 45.208C81.9271 45.752 81.2071 46.232 80.3431 46.648C79.4791 47.064 78.5831 47.272 77.6551 47.272C75.6071 47.272 73.9111 46.744 72.5671 45.688C71.2551 44.632 70.5991 43.448 70.5991 42.136C70.5991 41.272 70.8551 40.568 71.3671 40.024C71.8791 39.512 72.5831 39.256 73.4791 39.256C74.3751 39.256 75.0791 39.544 75.5911 40.12C76.1031 40.728 76.4391 41.4 76.5991 42.136C76.7591 42.872 76.9991 43.528 77.3191 44.104C77.6711 44.712 78.1191 45.016 78.6631 45.016C80.1351 45.016 81.7831 42.776 83.6071 38.296L74.0551 18.712C73.7031 18.008 73.1751 17.32 72.4711 16.648C71.7991 15.944 71.4631 15.384 71.4631 14.968V14.728C71.4631 14.216 71.7991 13.96 72.4711 13.96H81.4471C82.0551 13.96 82.3591 14.232 82.3591 14.776V14.968C82.3591 15.256 82.2151 15.592 81.9271 15.976C81.6391 16.328 81.4471 16.664 81.3511 16.984C81.2551 17.304 81.3511 17.912 81.6391 18.808L87.2551 31.816L92.4391 19.48C92.7591 18.392 92.7591 17.64 92.4391 17.224C92.1191 16.808 91.6871 16.408 91.1431 16.024C90.5991 15.608 90.3271 15.256 90.3271 14.968V14.776C90.3271 14.232 90.6631 13.96 91.3351 13.96H97.1911ZM131.631 32.104C131.631 32.968 131.743 33.624 131.967 34.072C132.223 34.488 132.495 34.728 132.783 34.792C133.071 34.824 133.327 34.92 133.551 35.08C133.807 35.24 133.935 35.512 133.935 35.896C133.935 36.824 132.511 37.288 129.663 37.288C128.255 37.288 127.199 37.064 126.495 36.616C125.823 36.136 125.455 35.32 125.391 34.168C124.047 36.376 121.727 37.48 118.431 37.48C115.839 37.48 113.695 36.616 111.999 34.888C110.335 33.128 109.503 30.664 109.503 27.496V19.384C109.503 18.584 109.183 17.848 108.543 17.176C107.935 16.472 107.631 15.992 107.631 15.736V15.592C107.631 15.016 107.967 14.68 108.639 14.584L114.687 13.672C115.999 13.512 116.655 13.8 116.655 14.536L116.511 28.216C116.511 32.568 117.839 34.744 120.495 34.744C121.679 34.744 122.655 34.232 123.423 33.208C124.223 32.152 124.623 30.792 124.623 29.128V19.384C124.623 18.584 124.303 17.848 123.663 17.176C123.023 16.472 122.703 15.992 122.703 15.736V15.592C122.703 15.016 123.023 14.68 123.663 14.584L129.807 13.672C131.023 13.544 131.631 13.832 131.631 14.536V32.104ZM150.445 13.48C153.453 13.48 156.077 14.52 158.317 16.6C160.557 18.68 161.677 21.512 161.677 25.096C161.677 28.712 160.573 31.688 158.365 34.024C156.189 36.328 153.565 37.48 150.493 37.48C148.253 37.48 146.381 36.856 144.877 35.608V42.76C144.877 43.528 145.213 44.248 145.885 44.92C146.557 45.592 146.893 46.088 146.893 46.408V46.6C146.893 47.144 146.525 47.416 145.789 47.416H137.101C136.365 47.416 135.997 47.144 135.997 46.6V46.408C135.997 46.088 136.301 45.592 136.909 44.92C137.549 44.248 137.869 43.528 137.869 42.76V21.16C137.869 20.456 137.501 19.816 136.765 19.24C136.029 18.632 135.661 18.152 135.661 17.8V17.56C135.661 17.112 135.981 16.728 136.621 16.408L141.997 13.768C143.213 13.16 143.821 13.448 143.821 14.632L143.773 16.648C145.117 14.536 147.341 13.48 150.445 13.48ZM149.773 35.416C151.309 35.416 152.493 34.776 153.325 33.496C154.189 32.216 154.621 30.376 154.621 27.976C154.621 24.712 154.093 21.832 153.037 19.336C151.981 16.808 150.557 15.544 148.765 15.544C147.773 15.544 146.909 15.912 146.173 16.648C145.437 17.352 145.005 18.28 144.877 19.432V28.6C144.877 30.456 145.373 32.056 146.365 33.4C147.357 34.744 148.493 35.416 149.773 35.416ZM183.521 37.48C181.281 37.48 179.505 36.776 178.193 35.368C176.913 33.928 176.273 31.864 176.273 29.176V16.744H174.017C173.377 16.744 173.057 16.424 173.057 15.784V14.968C173.057 14.296 173.377 13.96 174.017 13.96H175.217C176.529 13.96 177.633 13.528 178.529 12.664C179.457 11.8 180.049 10.648 180.305 9.208C180.465 8.44 180.833 8.056 181.409 8.056H182.369C183.073 8.056 183.425 8.44 183.425 9.208L183.473 13.96H188.993C189.249 13.96 189.473 14.056 189.665 14.248C189.857 14.44 189.953 14.68 189.953 14.968V15.784C189.953 16.072 189.857 16.312 189.665 16.504C189.473 16.664 189.249 16.744 188.993 16.744H183.473V29.272C183.473 30.2 183.697 30.952 184.145 31.528C184.625 32.072 185.217 32.344 185.921 32.344C187.585 32.344 188.673 31.624 189.185 30.184C189.473 29.768 189.825 29.608 190.241 29.704C190.689 29.768 190.913 30.024 190.913 30.472C190.913 32.328 190.241 33.96 188.897 35.368C187.585 36.776 185.793 37.48 183.521 37.48ZM205.399 37.48C201.591 37.48 198.439 36.312 195.943 33.976C193.479 31.608 192.247 28.728 192.247 25.336C192.247 21.912 193.463 19.08 195.895 16.84C198.327 14.6 201.255 13.48 204.679 13.48C208.359 13.48 211.431 14.648 213.895 16.984C216.359 19.288 217.591 22.152 217.591 25.576C217.591 29 216.423 31.848 214.087 34.12C211.783 36.36 208.887 37.48 205.399 37.48ZM206.263 35.368C207.575 35.368 208.583 34.76 209.287 33.544C210.023 32.328 210.391 30.616 210.391 28.408C210.391 26.584 210.119 24.712 209.575 22.792C209.063 20.84 208.279 19.16 207.223 17.752C206.167 16.312 204.999 15.592 203.719 15.592C200.775 15.592 199.303 17.928 199.303 22.6C199.303 24.328 199.559 26.152 200.071 28.072C200.615 29.992 201.431 31.688 202.519 33.16C203.639 34.632 204.887 35.368 206.263 35.368ZM253.694 32.392C253.694 33.128 254.014 33.848 254.654 34.552C255.294 35.224 255.614 35.72 255.614 36.04V36.184C255.614 36.728 255.294 37 254.654 37H248.702C247.966 37 247.598 36.648 247.598 35.944L247.502 34.888C246.03 36.616 243.95 37.48 241.262 37.48C238.158 37.48 235.502 36.408 233.294 34.264C231.086 32.088 229.982 29.144 229.982 25.432C229.982 21.944 231.086 19.08 233.294 16.84C235.502 14.6 238.174 13.48 241.31 13.48C243.55 13.48 245.422 14.104 246.926 15.352V7.672C246.926 7.032 246.718 6.504 246.302 6.088C245.918 5.672 245.518 5.32 245.102 5.032C244.718 4.744 244.526 4.44 244.526 4.12V3.976C244.526 3.432 244.862 3.064 245.534 2.872L251.822 0.951998C253.07 0.535997 253.694 0.855998 253.694 1.912V32.392ZM242.846 35.416C243.934 35.416 244.878 34.968 245.678 34.072C246.51 33.144 246.926 31.88 246.926 30.28V21.832C246.926 20.264 246.398 18.824 245.342 17.512C244.286 16.2 243.07 15.544 241.694 15.544C240.222 15.544 239.054 16.168 238.19 17.416C237.326 18.632 236.878 20.36 236.846 22.6C236.782 24.424 236.958 26.296 237.374 28.216C237.822 30.136 238.526 31.816 239.486 33.256C240.478 34.664 241.598 35.384 242.846 35.416ZM279.903 32.2C279.999 32.936 280.175 33.528 280.431 33.976C280.719 34.424 281.007 34.712 281.295 34.84C281.583 34.936 281.839 35.064 282.063 35.224C282.287 35.384 282.399 35.608 282.399 35.896C282.399 36.824 280.863 37.288 277.791 37.288C276.383 37.288 275.343 37.112 274.671 36.76C274.031 36.376 273.647 35.688 273.519 34.696C272.271 36.552 270.143 37.48 267.135 37.48C264.447 37.48 262.271 36.856 260.607 35.608C258.943 34.36 258.111 32.568 258.111 30.232C258.079 27.928 258.895 26.136 260.559 24.856C262.223 23.576 264.303 22.936 266.799 22.936C268.911 22.936 270.655 23.416 272.031 24.376L271.983 23.8C271.663 20.76 271.215 18.616 270.639 17.368C270.063 16.12 269.087 15.496 267.711 15.496C266.847 15.496 266.143 15.816 265.599 16.456C265.055 17.096 264.671 17.8 264.447 18.568C264.223 19.336 263.855 20.04 263.343 20.68C262.831 21.32 262.175 21.64 261.375 21.64C260.511 21.64 259.807 21.4 259.263 20.92C258.751 20.408 258.495 19.752 258.495 18.952C258.495 17.288 259.375 15.96 261.135 14.968C262.927 13.976 265.119 13.48 267.711 13.48C270.815 13.48 273.359 14.36 275.343 16.12C277.327 17.88 278.495 20.28 278.847 23.32L279.903 32.2ZM269.247 35.368C270.303 35.368 271.151 34.936 271.791 34.072C272.431 33.176 272.719 32.168 272.655 31.048L272.511 29.368C272.383 27.992 271.967 26.936 271.263 26.2C270.591 25.464 269.743 25.096 268.719 25.096C267.695 25.096 266.847 25.464 266.175 26.2C265.535 26.936 265.215 27.912 265.215 29.128C265.215 30.856 265.583 32.328 266.319 33.544C267.087 34.76 268.063 35.368 269.247 35.368ZM293.115 37.48C290.875 37.48 289.099 36.776 287.787 35.368C286.507 33.928 285.867 31.864 285.867 29.176V16.744H283.611C282.971 16.744 282.651 16.424 282.651 15.784V14.968C282.651 14.296 282.971 13.96 283.611 13.96H284.811C286.123 13.96 287.227 13.528 288.123 12.664C289.051 11.8 289.643 10.648 289.899 9.208C290.059 8.44 290.427 8.056 291.003 8.056H291.963C292.667 8.056 293.019 8.44 293.019 9.208L293.067 13.96H298.587C298.843 13.96 299.067 14.056 299.259 14.248C299.451 14.44 299.547 14.68 299.547 14.968V15.784C299.547 16.072 299.451 16.312 299.259 16.504C299.067 16.664 298.843 16.744 298.587 16.744H293.067V29.272C293.067 30.2 293.291 30.952 293.739 31.528C294.219 32.072 294.811 32.344 295.515 32.344C297.179 32.344 298.267 31.624 298.779 30.184C299.067 29.768 299.419 29.608 299.835 29.704C300.283 29.768 300.507 30.024 300.507 30.472C300.507 32.328 299.835 33.96 298.491 35.368C297.179 36.776 295.387 37.48 293.115 37.48ZM321.617 29.704C321.905 29.32 322.257 29.192 322.673 29.32C323.089 29.448 323.281 29.752 323.249 30.232C323.089 31.896 322.129 33.528 320.369 35.128C318.609 36.696 316.321 37.48 313.505 37.48C310.113 37.48 307.329 36.36 305.153 34.12C302.977 31.88 301.889 28.936 301.889 25.288C301.889 21.864 303.025 19.048 305.297 16.84C307.569 14.6 310.305 13.48 313.505 13.48C316.417 13.48 318.657 14.168 320.225 15.544C321.793 16.92 322.577 18.504 322.577 20.296C322.577 21.768 321.873 22.824 320.465 23.464L309.809 28.312C311.121 31.096 313.233 32.488 316.145 32.488C317.361 32.488 318.449 32.232 319.409 31.72C320.401 31.176 321.137 30.504 321.617 29.704ZM312.641 15.592C311.393 15.592 310.401 16.2 309.665 17.416C308.929 18.6 308.561 20.12 308.561 21.976C308.561 23.544 308.721 24.92 309.041 26.104L315.233 22.984C316.065 22.568 316.481 21.816 316.481 20.728C316.481 19.64 316.129 18.52 315.425 17.368C314.721 16.184 313.793 15.592 312.641 15.592ZM329.163 26.248C328.523 22.92 328.011 19.144 327.627 14.92C327.243 10.664 327.035 7.336 327.003 4.936C327.003 4.296 327.259 3.752 327.771 3.304C328.283 2.856 328.891 2.584 329.595 2.488C330.299 2.36 331.003 2.344 331.707 2.44C332.443 2.536 333.067 2.808 333.579 3.256C334.091 3.672 334.347 4.216 334.347 4.888C334.315 7.512 334.107 10.904 333.723 15.064C333.339 19.192 332.779 22.92 332.043 26.248C331.915 26.76 331.435 27.016 330.603 27.016C329.803 27.016 329.323 26.76 329.163 26.248ZM330.699 37.624C329.419 37.624 328.363 37.288 327.531 36.616C326.699 35.912 326.283 34.92 326.283 33.64C326.283 32.328 326.699 31.336 327.531 30.664C328.363 29.96 329.419 29.608 330.699 29.608C331.947 29.608 332.987 29.96 333.819 30.664C334.651 31.336 335.067 32.328 335.067 33.64C335.067 34.92 334.651 35.912 333.819 36.616C332.987 37.288 331.947 37.624 330.699 37.624Z" fill="#163A24"/>
</svg>
