<svg width="108" height="12" viewBox="0 0 108 12" fill="none" xmlns="http://www.w3.org/2000/svg">
<path d="M4.97903 11H3.71903V2.11H0.597031V1.004H8.08703V2.11H4.97903V11ZM11.34 3.356C11.984 3.356 12.5346 3.496 12.992 3.776C13.4586 4.056 13.8133 4.45267 14.056 4.966C14.308 5.47 14.434 6.06267 14.434 6.744V7.486H9.29595C9.31462 8.33533 9.52929 8.984 9.93995 9.432C10.36 9.87067 10.9433 10.09 11.69 10.09C12.166 10.09 12.586 10.048 12.95 9.964C13.3233 9.87067 13.706 9.74 14.098 9.572V10.65C13.7153 10.818 13.3373 10.9393 12.964 11.014C12.5906 11.098 12.1473 11.14 11.634 11.14C10.9246 11.14 10.2946 10.9953 9.74395 10.706C9.20262 10.4167 8.77795 9.98733 8.46995 9.418C8.17129 8.83933 8.02195 8.13467 8.02195 7.304C8.02195 6.48267 8.15729 5.778 8.42795 5.19C8.70795 4.602 9.09529 4.14933 9.58995 3.832C10.094 3.51467 10.6773 3.356 11.34 3.356ZM11.326 4.364C10.738 4.364 10.2713 4.55533 9.92595 4.938C9.58995 5.31133 9.38929 5.834 9.32395 6.506H13.146C13.1366 5.87133 12.9873 5.358 12.698 4.966C12.4086 4.56467 11.9513 4.364 11.326 4.364ZM19.8443 3.356C19.9843 3.356 20.1336 3.36533 20.2923 3.384C20.4603 3.39333 20.605 3.412 20.7263 3.44L20.5723 4.574C20.451 4.546 20.3156 4.52267 20.1663 4.504C20.0263 4.48533 19.891 4.476 19.7603 4.476C19.3776 4.476 19.0183 4.58333 18.6823 4.798C18.3463 5.00333 18.0756 5.29733 17.8703 5.68C17.6743 6.05333 17.5763 6.492 17.5763 6.996V11H16.3443V3.496H17.3523L17.4923 4.868H17.5483C17.791 4.45733 18.1036 4.10267 18.4863 3.804C18.869 3.50533 19.3216 3.356 19.8443 3.356ZM30.3595 3.356C31.2088 3.356 31.8435 3.57533 32.2635 4.014C32.6835 4.44333 32.8935 5.14333 32.8935 6.114V11H31.6755V6.17C31.6755 4.98467 31.1668 4.392 30.1495 4.392C29.4215 4.392 28.8988 4.602 28.5815 5.022C28.2735 5.442 28.1195 6.05333 28.1195 6.856V11H26.9015V6.17C26.9015 4.98467 26.3882 4.392 25.3615 4.392C24.6055 4.392 24.0828 4.62533 23.7935 5.092C23.5042 5.55867 23.3595 6.23067 23.3595 7.108V11H22.1275V3.496H23.1215L23.3035 4.518H23.3735C23.6068 4.126 23.9195 3.83667 24.3115 3.65C24.7128 3.454 25.1375 3.356 25.5855 3.356C26.7615 3.356 27.5268 3.776 27.8815 4.616H27.9515C28.2035 4.18667 28.5442 3.86933 28.9735 3.664C29.4122 3.45867 29.8742 3.356 30.3595 3.356ZM40.0975 8.928C40.0975 9.656 39.8268 10.2067 39.2855 10.58C38.7442 10.9533 38.0162 11.14 37.1015 11.14C36.5788 11.14 36.1262 11.098 35.7435 11.014C35.3702 10.93 35.0388 10.8133 34.7495 10.664V9.544C35.0482 9.69333 35.4075 9.83333 35.8275 9.964C36.2568 10.0853 36.6908 10.146 37.1295 10.146C37.7548 10.146 38.2075 10.048 38.4875 9.852C38.7675 9.64667 38.9075 9.376 38.9075 9.04C38.9075 8.85333 38.8562 8.68533 38.7535 8.536C38.6508 8.38667 38.4642 8.23733 38.1935 8.088C37.9322 7.93867 37.5542 7.77067 37.0595 7.584C36.5742 7.39733 36.1588 7.21067 35.8135 7.024C35.4682 6.83733 35.2022 6.61333 35.0155 6.352C34.8288 6.09067 34.7355 5.75467 34.7355 5.344C34.7355 4.70933 34.9922 4.21933 35.5055 3.874C36.0282 3.52867 36.7095 3.356 37.5495 3.356C38.0068 3.356 38.4315 3.40267 38.8235 3.496C39.2248 3.58 39.5982 3.70133 39.9435 3.86L39.5235 4.84C39.2062 4.70933 38.8748 4.59733 38.5295 4.504C38.1842 4.41067 37.8295 4.364 37.4655 4.364C36.9615 4.364 36.5742 4.448 36.3035 4.616C36.0422 4.77467 35.9115 4.994 35.9115 5.274C35.9115 5.47933 35.9722 5.65667 36.0935 5.806C36.2148 5.946 36.4155 6.086 36.6955 6.226C36.9848 6.35667 37.3675 6.51533 37.8435 6.702C38.3195 6.87933 38.7255 7.06133 39.0615 7.248C39.3975 7.43467 39.6542 7.66333 39.8315 7.934C40.0088 8.19533 40.0975 8.52667 40.0975 8.928ZM52.0714 7.234C52.0714 8.47533 51.7541 9.43667 51.1194 10.118C50.4941 10.7993 49.6448 11.14 48.5714 11.14C47.9088 11.14 47.3161 10.9907 46.7934 10.692C46.2801 10.384 45.8741 9.94067 45.5754 9.362C45.2768 8.774 45.1274 8.06467 45.1274 7.234C45.1274 5.99267 45.4401 5.036 46.0654 4.364C46.6908 3.692 47.5401 3.356 48.6134 3.356C49.2948 3.356 49.8921 3.51 50.4054 3.818C50.9281 4.11667 51.3341 4.55533 51.6234 5.134C51.9221 5.70333 52.0714 6.40333 52.0714 7.234ZM46.4014 7.234C46.4014 8.12067 46.5741 8.82533 46.9194 9.348C47.2741 9.86133 47.8341 10.118 48.5994 10.118C49.3554 10.118 49.9108 9.86133 50.2654 9.348C50.6201 8.82533 50.7974 8.12067 50.7974 7.234C50.7974 6.34733 50.6201 5.652 50.2654 5.148C49.9108 4.644 49.3508 4.392 48.5854 4.392C47.8201 4.392 47.2648 4.644 46.9194 5.148C46.5741 5.652 46.4014 6.34733 46.4014 7.234ZM57.482 4.448H55.592V11H54.36V4.448H53.044V3.874L54.36 3.454V3.02C54.36 2.04933 54.5747 1.354 55.004 0.933999C55.4333 0.504666 56.0307 0.289999 56.796 0.289999C57.0947 0.289999 57.3653 0.317999 57.608 0.373999C57.86 0.420666 58.0747 0.476666 58.252 0.541999L57.93 1.508C57.7807 1.46133 57.608 1.41467 57.412 1.368C57.216 1.32133 57.0153 1.298 56.81 1.298C56.3993 1.298 56.0913 1.438 55.886 1.718C55.69 1.98867 55.592 2.418 55.592 3.006V3.496H57.482V4.448ZM68.3112 8.326C68.3112 9.21267 67.9892 9.90333 67.3452 10.398C66.7012 10.8927 65.8332 11.14 64.7412 11.14C64.1812 11.14 63.6632 11.098 63.1872 11.014C62.7112 10.93 62.3145 10.8133 61.9972 10.664V9.46C62.3332 9.60933 62.7485 9.74467 63.2432 9.866C63.7472 9.98733 64.2652 10.048 64.7972 10.048C65.5439 10.048 66.1039 9.90333 66.4772 9.614C66.8599 9.32467 67.0512 8.93267 67.0512 8.438C67.0512 8.11133 66.9812 7.836 66.8412 7.612C66.7012 7.388 66.4585 7.18267 66.1132 6.996C65.7772 6.8 65.3059 6.59467 64.6992 6.38C63.8499 6.072 63.2059 5.694 62.7672 5.246C62.3379 4.798 62.1232 4.18667 62.1232 3.412C62.1232 2.88 62.2585 2.42733 62.5292 2.054C62.7999 1.67133 63.1732 1.37733 63.6492 1.172C64.1345 0.966666 64.6899 0.863999 65.3152 0.863999C65.8659 0.863999 66.3699 0.915333 66.8272 1.018C67.2845 1.12067 67.6999 1.256 68.0732 1.424L67.6812 2.502C67.3359 2.35267 66.9579 2.22667 66.5472 2.124C66.1459 2.02133 65.7259 1.97 65.2872 1.97C64.6619 1.97 64.1905 2.10533 63.8732 2.376C63.5559 2.63733 63.3972 2.98733 63.3972 3.426C63.3972 3.762 63.4672 4.042 63.6072 4.266C63.7472 4.49 63.9759 4.69067 64.2932 4.868C64.6105 5.04533 65.0399 5.23667 65.5812 5.442C66.1692 5.65667 66.6639 5.89 67.0652 6.142C67.4759 6.38467 67.7839 6.67867 67.9892 7.024C68.2039 7.36933 68.3112 7.80333 68.3112 8.326ZM73.0548 3.356C73.6988 3.356 74.2495 3.496 74.7068 3.776C75.1735 4.056 75.5281 4.45267 75.7708 4.966C76.0228 5.47 76.1488 6.06267 76.1488 6.744V7.486H71.0108C71.0295 8.33533 71.2441 8.984 71.6548 9.432C72.0748 9.87067 72.6581 10.09 73.4048 10.09C73.8808 10.09 74.3008 10.048 74.6648 9.964C75.0381 9.87067 75.4208 9.74 75.8128 9.572V10.65C75.4301 10.818 75.0521 10.9393 74.6788 11.014C74.3055 11.098 73.8621 11.14 73.3488 11.14C72.6395 11.14 72.0095 10.9953 71.4588 10.706C70.9175 10.4167 70.4928 9.98733 70.1848 9.418C69.8861 8.83933 69.7368 8.13467 69.7368 7.304C69.7368 6.48267 69.8721 5.778 70.1428 5.19C70.4228 4.602 70.8101 4.14933 71.3048 3.832C71.8088 3.51467 72.3921 3.356 73.0548 3.356ZM73.0408 4.364C72.4528 4.364 71.9861 4.55533 71.6408 4.938C71.3048 5.31133 71.1041 5.834 71.0388 6.506H74.8608C74.8515 5.87133 74.7021 5.358 74.4128 4.966C74.1235 4.56467 73.6661 4.364 73.0408 4.364ZM81.5591 3.356C81.6991 3.356 81.8485 3.36533 82.0071 3.384C82.1751 3.39333 82.3198 3.412 82.4411 3.44L82.2871 4.574C82.1658 4.546 82.0305 4.52267 81.8811 4.504C81.7411 4.48533 81.6058 4.476 81.4751 4.476C81.0925 4.476 80.7331 4.58333 80.3971 4.798C80.0611 5.00333 79.7905 5.29733 79.5851 5.68C79.3891 6.05333 79.2911 6.492 79.2911 6.996V11H78.0591V3.496H79.0671L79.2071 4.868H79.2631C79.5058 4.45733 79.8185 4.10267 80.2011 3.804C80.5838 3.50533 81.0365 3.356 81.5591 3.356ZM85.4943 11L82.6523 3.496H83.9683L85.5643 7.92C85.639 8.12533 85.7183 8.354 85.8023 8.606C85.8863 8.858 85.961 9.10067 86.0263 9.334C86.0917 9.558 86.1383 9.74933 86.1663 9.908H86.2223C86.2597 9.74933 86.311 9.55333 86.3763 9.32C86.451 9.08667 86.5303 8.844 86.6143 8.592C86.7077 8.34 86.787 8.116 86.8523 7.92L88.4483 3.496H89.7643L86.9083 11H85.4943ZM91.5817 0.681999C91.7684 0.681999 91.9317 0.747333 92.0717 0.877999C92.2211 0.999333 92.2957 1.19533 92.2957 1.466C92.2957 1.72733 92.2211 1.92333 92.0717 2.054C91.9317 2.18467 91.7684 2.25 91.5817 2.25C91.3764 2.25 91.2037 2.18467 91.0637 2.054C90.9237 1.92333 90.8537 1.72733 90.8537 1.466C90.8537 1.19533 90.9237 0.999333 91.0637 0.877999C91.2037 0.747333 91.3764 0.681999 91.5817 0.681999ZM92.1837 3.496V11H90.9517V3.496H92.1837ZM97.5711 11.14C96.9084 11.14 96.3158 11.0047 95.7931 10.734C95.2798 10.4633 94.8738 10.0433 94.5751 9.474C94.2858 8.90467 94.1411 8.17667 94.1411 7.29C94.1411 6.366 94.2951 5.61467 94.6031 5.036C94.9111 4.45733 95.3264 4.03267 95.8491 3.762C96.3811 3.49133 96.9831 3.356 97.6551 3.356C98.0378 3.356 98.4064 3.398 98.7611 3.482C99.1158 3.55667 99.4051 3.65 99.6291 3.762L99.2511 4.784C99.0271 4.7 98.7658 4.62067 98.4671 4.546C98.1684 4.47133 97.8884 4.434 97.6271 4.434C96.1524 4.434 95.4151 5.38133 95.4151 7.276C95.4151 8.18133 95.5924 8.87667 95.9471 9.362C96.3111 9.838 96.8478 10.076 97.5571 10.076C97.9678 10.076 98.3271 10.034 98.6351 9.95C98.9524 9.866 99.2418 9.76333 99.5031 9.642V10.734C99.2511 10.8647 98.9711 10.9627 98.6631 11.028C98.3644 11.1027 98.0004 11.14 97.5711 11.14ZM104.186 3.356C104.83 3.356 105.38 3.496 105.838 3.776C106.304 4.056 106.659 4.45267 106.902 4.966C107.154 5.47 107.28 6.06267 107.28 6.744V7.486H102.142C102.16 8.33533 102.375 8.984 102.786 9.432C103.206 9.87067 103.789 10.09 104.536 10.09C105.012 10.09 105.432 10.048 105.796 9.964C106.169 9.87067 106.552 9.74 106.944 9.572V10.65C106.561 10.818 106.183 10.9393 105.81 11.014C105.436 11.098 104.993 11.14 104.48 11.14C103.77 11.14 103.14 10.9953 102.59 10.706C102.048 10.4167 101.624 9.98733 101.316 9.418C101.017 8.83933 100.868 8.13467 100.868 7.304C100.868 6.48267 101.003 5.778 101.274 5.19C101.554 4.602 101.941 4.14933 102.436 3.832C102.94 3.51467 103.523 3.356 104.186 3.356ZM104.172 4.364C103.584 4.364 103.117 4.55533 102.772 4.938C102.436 5.31133 102.235 5.834 102.17 6.506H105.992C105.982 5.87133 105.833 5.358 105.544 4.966C105.254 4.56467 104.797 4.364 104.172 4.364Z" fill="#198C36"/>
</svg>
