<svg width="534" height="48" viewBox="0 0 534 48" fill="none" xmlns="http://www.w3.org/2000/svg">
<path d="M48.5746 2.92C49.2786 2.92 49.6306 3.176 49.6306 3.688V3.88C49.6306 4.232 49.2466 4.728 48.4786 5.368C47.7106 5.976 47.1826 6.696 46.8946 7.528L37.7266 34.984C37.2786 36.328 36.3506 37 34.9426 37C33.6306 37 32.7506 36.376 32.3026 35.128L26.3026 17.128L20.2066 34.984C19.7906 36.328 18.9586 37 17.7106 37C17.0066 37 16.4626 36.856 16.0786 36.568C15.7266 36.28 15.3906 35.8 15.0706 35.128L3.79063 7.576C3.43863 6.744 2.86263 6.024 2.06263 5.416C1.26262 4.776 0.862625 4.248 0.862625 3.832V3.688C0.862625 3.176 1.21462 2.92 1.91863 2.92H12.0466C12.7826 2.92 13.1506 3.176 13.1506 3.688V3.88C13.1506 4.2 12.9426 4.536 12.5266 4.888C12.1426 5.208 11.8066 5.592 11.5186 6.04C11.2306 6.456 11.1986 6.968 11.4226 7.576L19.0066 28.072L24.5266 11.752L23.1346 7.528C22.9106 6.824 22.3666 6.136 21.5026 5.464C20.6386 4.76 20.2066 4.216 20.2066 3.832V3.688C20.2066 3.176 20.5426 2.92 21.2146 2.92H31.2946C31.9666 2.92 32.3026 3.176 32.3026 3.688V3.832C32.3026 4.088 32.1586 4.344 31.8706 4.6C31.6146 4.856 31.3266 5.08 31.0066 5.272C30.7186 5.432 30.4786 5.72 30.2866 6.136C30.1266 6.52 30.1266 6.984 30.2866 7.528L36.4786 27.928L42.9586 7.528C43.1186 7.08 43.1186 6.664 42.9586 6.28C42.7986 5.896 42.5746 5.608 42.2866 5.416C41.9986 5.224 41.7266 4.984 41.4706 4.696C41.2146 4.408 41.0866 4.136 41.0866 3.88V3.736C41.0866 3.192 41.4386 2.92 42.1426 2.92H48.5746ZM67.4604 29.704C67.7484 29.32 68.1004 29.192 68.5164 29.32C68.9324 29.448 69.1244 29.752 69.0924 30.232C68.9324 31.896 67.9724 33.528 66.2124 35.128C64.4524 36.696 62.1644 37.48 59.3484 37.48C55.9564 37.48 53.1724 36.36 50.9964 34.12C48.8204 31.88 47.7324 28.936 47.7324 25.288C47.7324 21.864 48.8684 19.048 51.1404 16.84C53.4124 14.6 56.1484 13.48 59.3484 13.48C62.2604 13.48 64.5004 14.168 66.0684 15.544C67.6364 16.92 68.4204 18.504 68.4204 20.296C68.4204 21.768 67.7164 22.824 66.3084 23.464L55.6524 28.312C56.9644 31.096 59.0764 32.488 61.9884 32.488C63.2044 32.488 64.2924 32.232 65.2524 31.72C66.2444 31.176 66.9804 30.504 67.4604 29.704ZM58.4844 15.592C57.2364 15.592 56.2444 16.2 55.5084 17.416C54.7724 18.6 54.4044 20.12 54.4044 21.976C54.4044 23.544 54.5644 24.92 54.8844 26.104L61.0764 22.984C61.9084 22.568 62.3244 21.816 62.3244 20.728C62.3244 19.64 61.9724 18.52 61.2684 17.368C60.5644 16.184 59.6364 15.592 58.4844 15.592ZM95.5543 13.48C98.5623 13.48 101.186 14.52 103.426 16.6C105.666 18.68 106.786 21.512 106.786 25.096C106.786 28.712 105.682 31.688 103.474 34.024C101.298 36.328 98.6743 37.48 95.6023 37.48C93.3623 37.48 91.4903 36.856 89.9863 35.608V42.76C89.9863 43.528 90.3223 44.248 90.9943 44.92C91.6663 45.592 92.0023 46.088 92.0023 46.408V46.6C92.0023 47.144 91.6343 47.416 90.8983 47.416H82.2103C81.4743 47.416 81.1063 47.144 81.1063 46.6V46.408C81.1063 46.088 81.4103 45.592 82.0183 44.92C82.6583 44.248 82.9783 43.528 82.9783 42.76V21.16C82.9783 20.456 82.6103 19.816 81.8743 19.24C81.1383 18.632 80.7703 18.152 80.7703 17.8V17.56C80.7703 17.112 81.0903 16.728 81.7303 16.408L87.1063 13.768C88.3223 13.16 88.9303 13.448 88.9303 14.632L88.8823 16.648C90.2263 14.536 92.4503 13.48 95.5543 13.48ZM94.8823 35.416C96.4183 35.416 97.6023 34.776 98.4343 33.496C99.2983 32.216 99.7303 30.376 99.7303 27.976C99.7303 24.712 99.2023 21.832 98.1463 19.336C97.0903 16.808 95.6663 15.544 93.8743 15.544C92.8823 15.544 92.0183 15.912 91.2823 16.648C90.5463 17.352 90.1143 18.28 89.9863 19.432V28.6C89.9863 30.456 90.4823 32.056 91.4743 33.4C92.4663 34.744 93.6023 35.416 94.8823 35.416ZM131.309 32.2C131.405 32.936 131.581 33.528 131.837 33.976C132.125 34.424 132.413 34.712 132.701 34.84C132.989 34.936 133.245 35.064 133.469 35.224C133.693 35.384 133.805 35.608 133.805 35.896C133.805 36.824 132.269 37.288 129.197 37.288C127.789 37.288 126.749 37.112 126.077 36.76C125.437 36.376 125.053 35.688 124.925 34.696C123.677 36.552 121.549 37.48 118.541 37.48C115.853 37.48 113.677 36.856 112.013 35.608C110.349 34.36 109.517 32.568 109.517 30.232C109.485 27.928 110.301 26.136 111.965 24.856C113.629 23.576 115.709 22.936 118.205 22.936C120.317 22.936 122.061 23.416 123.437 24.376L123.389 23.8C123.069 20.76 122.621 18.616 122.045 17.368C121.469 16.12 120.493 15.496 119.117 15.496C118.253 15.496 117.549 15.816 117.005 16.456C116.461 17.096 116.077 17.8 115.853 18.568C115.629 19.336 115.261 20.04 114.749 20.68C114.237 21.32 113.581 21.64 112.781 21.64C111.917 21.64 111.213 21.4 110.669 20.92C110.157 20.408 109.901 19.752 109.901 18.952C109.901 17.288 110.781 15.96 112.541 14.968C114.333 13.976 116.525 13.48 119.117 13.48C122.221 13.48 124.765 14.36 126.749 16.12C128.733 17.88 129.901 20.28 130.253 23.32L131.309 32.2ZM120.653 35.368C121.709 35.368 122.557 34.936 123.197 34.072C123.837 33.176 124.125 32.168 124.061 31.048L123.917 29.368C123.789 27.992 123.373 26.936 122.669 26.2C121.997 25.464 121.149 25.096 120.125 25.096C119.101 25.096 118.253 25.464 117.581 26.2C116.941 26.936 116.621 27.912 116.621 29.128C116.621 30.856 116.989 32.328 117.725 33.544C118.493 34.76 119.469 35.368 120.653 35.368ZM149.987 13.48C151.363 13.48 152.435 13.896 153.203 14.728C154.003 15.528 154.403 16.568 154.403 17.848C154.403 20.376 153.379 21.64 151.331 21.64C150.499 21.64 149.843 21.432 149.363 21.016C148.915 20.568 148.643 20.088 148.547 19.576C148.451 19.064 148.259 18.6 147.971 18.184C147.683 17.736 147.251 17.512 146.675 17.512C145.811 17.512 145.171 18.024 144.755 19.048C144.339 20.072 144.131 21.32 144.131 22.792V32.392C144.131 32.968 144.323 33.48 144.707 33.928C145.123 34.344 145.523 34.712 145.907 35.032C146.323 35.352 146.531 35.672 146.531 35.992V36.184C146.531 36.728 146.179 37 145.475 37H136.595C135.859 37 135.491 36.728 135.491 36.184V35.992C135.491 35.672 135.795 35.176 136.403 34.504C137.043 33.832 137.363 33.128 137.363 32.392V21.16C137.363 20.392 136.995 19.704 136.259 19.096C135.523 18.488 135.155 18.024 135.155 17.704V17.512C135.155 17.064 135.491 16.68 136.163 16.36L141.923 13.672C142.947 13.192 143.459 13.512 143.459 14.632V18.232C144.547 15.064 146.723 13.48 149.987 13.48ZM165.334 37.48C163.094 37.48 161.318 36.776 160.006 35.368C158.726 33.928 158.086 31.864 158.086 29.176V16.744H155.83C155.19 16.744 154.87 16.424 154.87 15.784V14.968C154.87 14.296 155.19 13.96 155.83 13.96H157.03C158.342 13.96 159.446 13.528 160.342 12.664C161.27 11.8 161.862 10.648 162.118 9.208C162.278 8.44 162.646 8.056 163.222 8.056H164.182C164.886 8.056 165.238 8.44 165.238 9.208L165.286 13.96H170.806C171.062 13.96 171.286 14.056 171.478 14.248C171.67 14.44 171.766 14.68 171.766 14.968V15.784C171.766 16.072 171.67 16.312 171.478 16.504C171.286 16.664 171.062 16.744 170.806 16.744H165.286V29.272C165.286 30.2 165.51 30.952 165.958 31.528C166.438 32.072 167.03 32.344 167.734 32.344C169.398 32.344 170.486 31.624 170.998 30.184C171.286 29.768 171.638 29.608 172.054 29.704C172.502 29.768 172.726 30.024 172.726 30.472C172.726 32.328 172.054 33.96 170.71 35.368C169.398 36.776 167.606 37.48 165.334 37.48ZM199.447 32.344C199.511 33.112 199.815 33.832 200.359 34.504C200.903 35.176 201.175 35.688 201.175 36.04V36.232C201.175 36.776 200.807 37.048 200.071 37.048H191.767C191.031 37.048 190.663 36.776 190.663 36.232V36.04C190.663 35.72 190.951 35.224 191.527 34.552C192.135 33.88 192.423 33.144 192.391 32.344L191.911 23.464C191.687 18.632 190.295 16.216 187.735 16.216C186.455 16.216 185.447 16.696 184.711 17.656C184.007 18.616 183.655 19.896 183.655 21.496V32.392C183.655 33.16 183.991 33.88 184.663 34.552C185.367 35.224 185.719 35.72 185.719 36.04V36.232C185.719 36.776 185.351 37.048 184.615 37.048H175.687C174.951 37.048 174.583 36.776 174.583 36.232V36.04C174.583 35.72 174.919 35.224 175.591 34.552C176.295 33.88 176.647 33.16 176.647 32.392V21.208C176.647 20.728 176.519 20.296 176.263 19.912C176.039 19.528 175.767 19.256 175.447 19.096C175.159 18.904 174.887 18.68 174.631 18.424C174.407 18.168 174.295 17.912 174.295 17.656V17.464C174.295 17.112 174.615 16.776 175.255 16.456L180.967 13.672C181.511 13.416 181.911 13.4 182.167 13.624C182.455 13.816 182.599 14.168 182.599 14.68V17.368C183.975 14.776 186.343 13.48 189.703 13.48C192.135 13.48 194.199 14.296 195.895 15.928C197.623 17.56 198.615 20.152 198.871 23.704L199.447 32.344ZM222.898 29.704C223.186 29.32 223.538 29.192 223.954 29.32C224.37 29.448 224.562 29.752 224.53 30.232C224.37 31.896 223.41 33.528 221.65 35.128C219.89 36.696 217.602 37.48 214.786 37.48C211.394 37.48 208.61 36.36 206.434 34.12C204.258 31.88 203.17 28.936 203.17 25.288C203.17 21.864 204.306 19.048 206.578 16.84C208.85 14.6 211.586 13.48 214.786 13.48C217.698 13.48 219.938 14.168 221.506 15.544C223.074 16.92 223.858 18.504 223.858 20.296C223.858 21.768 223.154 22.824 221.746 23.464L211.09 28.312C212.402 31.096 214.514 32.488 217.426 32.488C218.642 32.488 219.73 32.232 220.69 31.72C221.682 31.176 222.418 30.504 222.898 29.704ZM213.922 15.592C212.674 15.592 211.682 16.2 210.946 17.416C210.21 18.6 209.842 20.12 209.842 21.976C209.842 23.544 210.002 24.92 210.322 26.104L216.514 22.984C217.346 22.568 217.762 21.816 217.762 20.728C217.762 19.64 217.41 18.52 216.706 17.368C216.002 16.184 215.074 15.592 213.922 15.592ZM241.628 13.48C243.004 13.48 244.076 13.896 244.844 14.728C245.644 15.528 246.044 16.568 246.044 17.848C246.044 20.376 245.02 21.64 242.972 21.64C242.14 21.64 241.484 21.432 241.004 21.016C240.556 20.568 240.284 20.088 240.188 19.576C240.092 19.064 239.9 18.6 239.612 18.184C239.324 17.736 238.892 17.512 238.316 17.512C237.452 17.512 236.812 18.024 236.396 19.048C235.98 20.072 235.772 21.32 235.772 22.792V32.392C235.772 32.968 235.964 33.48 236.348 33.928C236.764 34.344 237.164 34.712 237.548 35.032C237.964 35.352 238.172 35.672 238.172 35.992V36.184C238.172 36.728 237.82 37 237.116 37H228.236C227.5 37 227.132 36.728 227.132 36.184V35.992C227.132 35.672 227.436 35.176 228.044 34.504C228.684 33.832 229.004 33.128 229.004 32.392V21.16C229.004 20.392 228.636 19.704 227.9 19.096C227.164 18.488 226.796 18.024 226.796 17.704V17.512C226.796 17.064 227.132 16.68 227.804 16.36L233.564 13.672C234.588 13.192 235.1 13.512 235.1 14.632V18.232C236.188 15.064 238.364 13.48 241.628 13.48ZM288.614 13.96C289.254 13.96 289.574 14.216 289.574 14.728V14.968C289.574 15.352 289.19 15.864 288.422 16.504C287.686 17.144 287.19 17.848 286.934 18.616L280.742 35.848C280.486 36.616 279.974 37 279.206 37H277.622C276.79 37 276.262 36.616 276.038 35.848L271.622 21.64L267.158 35.848C266.902 36.616 266.374 37 265.574 37H264.47C263.702 37 263.19 36.616 262.934 35.848L255.926 18.616C255.67 17.944 255.222 17.272 254.582 16.6C253.942 15.896 253.622 15.352 253.622 14.968V14.728C253.622 14.216 253.942 13.96 254.582 13.96H263.126C263.734 13.96 264.038 14.232 264.038 14.776V14.968C264.038 15.224 263.926 15.48 263.702 15.736C263.478 15.96 263.238 16.168 262.982 16.36C262.758 16.552 262.582 16.856 262.454 17.272C262.358 17.688 262.406 18.168 262.598 18.712L266.438 29.992L270.902 15.064C271.094 14.456 271.462 14.152 272.006 14.152L274.646 14.104C275.19 14.104 275.558 14.392 275.75 14.968L280.118 29.992L283.814 19.336C284.07 18.664 284.102 18.088 283.91 17.608C283.75 17.096 283.51 16.728 283.19 16.504C282.902 16.28 282.614 16.04 282.326 15.784C282.038 15.496 281.894 15.224 281.894 14.968V14.776C281.894 14.232 282.214 13.96 282.854 13.96H288.614ZM299.618 9.4C298.786 10.168 297.666 10.552 296.258 10.552C294.85 10.552 293.698 10.168 292.802 9.4C291.938 8.6 291.506 7.576 291.506 6.328C291.506 5.112 291.938 4.12 292.802 3.352C293.698 2.552 294.85 2.152 296.258 2.152C297.666 2.152 298.786 2.552 299.618 3.352C300.482 4.12 300.914 5.112 300.914 6.328C300.914 7.576 300.482 8.6 299.618 9.4ZM291.89 37C291.186 37 290.834 36.728 290.834 36.184V35.992C290.834 35.672 291.138 35.176 291.746 34.504C292.354 33.832 292.658 33.112 292.658 32.344V21.496C292.658 20.696 292.354 19.944 291.746 19.24C291.138 18.536 290.834 18.056 290.834 17.8V17.656C290.834 17.336 291.17 17 291.842 16.648L297.842 13.672C298.45 13.416 298.93 13.4 299.282 13.624C299.634 13.816 299.81 14.152 299.81 14.632V32.344C299.81 33.112 300.146 33.832 300.818 34.504C301.49 35.176 301.826 35.672 301.826 35.992V36.184C301.826 36.728 301.458 37 300.722 37H291.89ZM313.974 37.48C311.734 37.48 309.958 36.776 308.646 35.368C307.366 33.928 306.726 31.864 306.726 29.176V16.744H304.47C303.83 16.744 303.51 16.424 303.51 15.784V14.968C303.51 14.296 303.83 13.96 304.47 13.96H305.67C306.982 13.96 308.086 13.528 308.982 12.664C309.91 11.8 310.502 10.648 310.758 9.208C310.918 8.44 311.286 8.056 311.862 8.056H312.822C313.526 8.056 313.878 8.44 313.878 9.208L313.926 13.96H319.446C319.702 13.96 319.926 14.056 320.118 14.248C320.31 14.44 320.406 14.68 320.406 14.968V15.784C320.406 16.072 320.31 16.312 320.118 16.504C319.926 16.664 319.702 16.744 319.446 16.744H313.926V29.272C313.926 30.2 314.15 30.952 314.598 31.528C315.078 32.072 315.67 32.344 316.374 32.344C318.038 32.344 319.126 31.624 319.638 30.184C319.926 29.768 320.278 29.608 320.694 29.704C321.142 29.768 321.366 30.024 321.366 30.472C321.366 32.328 320.694 33.96 319.35 35.368C318.038 36.776 316.246 37.48 313.974 37.48ZM347.656 32.296C347.72 33.064 348.024 33.784 348.568 34.456C349.112 35.128 349.384 35.64 349.384 35.992V36.184C349.384 36.728 349.032 37 348.328 37H339.976C339.272 37 338.92 36.728 338.92 36.184V35.992C338.92 35.672 339.208 35.176 339.784 34.504C340.392 33.832 340.68 33.112 340.648 32.344L340.168 23.128C339.944 18.52 338.552 16.216 335.992 16.216C334.712 16.216 333.704 16.696 332.968 17.656C332.264 18.616 331.912 19.896 331.912 21.496V32.392C331.912 33.128 332.248 33.832 332.92 34.504C333.624 35.176 333.976 35.672 333.976 35.992V36.184C333.976 36.728 333.592 37 332.824 37H323.944C323.208 37 322.84 36.728 322.84 36.184V35.992C322.84 35.672 323.176 35.176 323.848 34.504C324.52 33.832 324.855 33.128 324.855 32.392V8.488C324.855 7.72 324.488 7.032 323.752 6.424C323.048 5.816 322.696 5.352 322.696 5.032V4.888C322.696 4.408 323.016 4.008 323.656 3.688L329.992 0.903998C330.536 0.679997 330.952 0.647998 331.24 0.808C331.56 0.967999 331.72 1.288 331.72 1.768L331.672 16.168C333.176 14.376 335.272 13.48 337.96 13.48C340.392 13.48 342.456 14.28 344.152 15.88C345.848 17.448 346.808 19.928 347.031 23.32L347.656 32.296ZM370.693 37.48C368.453 37.48 366.677 36.776 365.365 35.368C364.085 33.928 363.445 31.864 363.445 29.176V16.744H361.189C360.549 16.744 360.229 16.424 360.229 15.784V14.968C360.229 14.296 360.549 13.96 361.189 13.96H362.389C363.701 13.96 364.805 13.528 365.701 12.664C366.629 11.8 367.221 10.648 367.477 9.208C367.637 8.44 368.005 8.056 368.581 8.056H369.541C370.245 8.056 370.597 8.44 370.597 9.208L370.645 13.96H376.165C376.421 13.96 376.645 14.056 376.837 14.248C377.029 14.44 377.125 14.68 377.125 14.968V15.784C377.125 16.072 377.029 16.312 376.837 16.504C376.645 16.664 376.421 16.744 376.165 16.744H370.645V29.272C370.645 30.2 370.869 30.952 371.317 31.528C371.797 32.072 372.389 32.344 373.093 32.344C374.757 32.344 375.845 31.624 376.357 30.184C376.645 29.768 376.997 29.608 377.413 29.704C377.861 29.768 378.085 30.024 378.085 30.472C378.085 32.328 377.413 33.96 376.069 35.368C374.757 36.776 372.965 37.48 370.693 37.48ZM404.374 32.296C404.438 33.064 404.742 33.784 405.286 34.456C405.83 35.128 406.102 35.64 406.102 35.992V36.184C406.102 36.728 405.75 37 405.046 37H396.694C395.99 37 395.638 36.728 395.638 36.184V35.992C395.638 35.672 395.926 35.176 396.502 34.504C397.11 33.832 397.398 33.112 397.366 32.344L396.886 23.128C396.662 18.52 395.27 16.216 392.71 16.216C391.43 16.216 390.422 16.696 389.686 17.656C388.982 18.616 388.63 19.896 388.63 21.496V32.392C388.63 33.128 388.966 33.832 389.638 34.504C390.342 35.176 390.694 35.672 390.694 35.992V36.184C390.694 36.728 390.31 37 389.542 37H380.662C379.926 37 379.558 36.728 379.558 36.184V35.992C379.558 35.672 379.894 35.176 380.566 34.504C381.238 33.832 381.574 33.128 381.574 32.392V8.488C381.574 7.72 381.206 7.032 380.47 6.424C379.766 5.816 379.414 5.352 379.414 5.032V4.888C379.414 4.408 379.734 4.008 380.374 3.688L386.71 0.903998C387.254 0.679997 387.67 0.647998 387.958 0.808C388.278 0.967999 388.438 1.288 388.438 1.768L388.39 16.168C389.894 14.376 391.99 13.48 394.678 13.48C397.11 13.48 399.174 14.28 400.87 15.88C402.566 17.448 403.526 19.928 403.75 23.32L404.374 32.296ZM427.882 29.704C428.17 29.32 428.522 29.192 428.938 29.32C429.354 29.448 429.546 29.752 429.514 30.232C429.354 31.896 428.394 33.528 426.634 35.128C424.874 36.696 422.586 37.48 419.77 37.48C416.378 37.48 413.594 36.36 411.418 34.12C409.242 31.88 408.154 28.936 408.154 25.288C408.154 21.864 409.29 19.048 411.562 16.84C413.834 14.6 416.57 13.48 419.77 13.48C422.682 13.48 424.922 14.168 426.49 15.544C428.058 16.92 428.842 18.504 428.842 20.296C428.842 21.768 428.138 22.824 426.73 23.464L416.074 28.312C417.386 31.096 419.498 32.488 422.41 32.488C423.626 32.488 424.714 32.232 425.674 31.72C426.666 31.176 427.402 30.504 427.882 29.704ZM418.906 15.592C417.658 15.592 416.666 16.2 415.93 17.416C415.194 18.6 414.826 20.12 414.826 21.976C414.826 23.544 414.986 24.92 415.306 26.104L421.498 22.984C422.33 22.568 422.746 21.816 422.746 20.728C422.746 19.64 422.394 18.52 421.69 17.368C420.986 16.184 420.058 15.592 418.906 15.592ZM456.12 13.48C459.128 13.48 461.736 14.52 463.944 16.6C466.184 18.68 467.304 21.512 467.304 25.096C467.304 28.712 466.2 31.688 463.992 34.024C461.816 36.328 459.192 37.48 456.12 37.48C453.528 37.48 451.432 36.632 449.832 34.936V35.992C449.832 36.696 449.464 37.048 448.728 37.048L442.536 37C441.864 37 441.528 36.728 441.528 36.184V36.04C441.528 35.72 441.832 35.224 442.44 34.552C443.08 33.848 443.4 33.112 443.4 32.344V8.824C443.4 8.024 443.032 7.304 442.296 6.664C441.56 5.992 441.192 5.496 441.192 5.176V5.032C441.192 4.584 441.56 4.2 442.296 3.88L448.488 0.999997C449.032 0.711997 449.496 0.663998 449.88 0.855999C450.296 1.016 450.504 1.384 450.504 1.96V15.4C451.88 14.12 453.752 13.48 456.12 13.48ZM455.4 35.416C456.968 35.416 458.168 34.776 459 33.496C459.864 32.216 460.296 30.376 460.296 27.976C460.296 25.896 460.072 23.928 459.624 22.072C459.208 20.216 458.536 18.664 457.608 17.416C456.68 16.168 455.608 15.544 454.392 15.544C453.272 15.544 452.344 15.992 451.608 16.888C450.872 17.784 450.504 18.952 450.504 20.392V29.08C450.504 30.712 451 32.184 451.992 33.496C453.016 34.776 454.152 35.416 455.4 35.416ZM489.523 29.704C489.811 29.32 490.163 29.192 490.579 29.32C490.995 29.448 491.187 29.752 491.155 30.232C490.995 31.896 490.035 33.528 488.275 35.128C486.515 36.696 484.227 37.48 481.411 37.48C478.019 37.48 475.235 36.36 473.059 34.12C470.883 31.88 469.795 28.936 469.795 25.288C469.795 21.864 470.931 19.048 473.203 16.84C475.475 14.6 478.211 13.48 481.411 13.48C484.323 13.48 486.563 14.168 488.131 15.544C489.699 16.92 490.483 18.504 490.483 20.296C490.483 21.768 489.779 22.824 488.371 23.464L477.715 28.312C479.027 31.096 481.139 32.488 484.051 32.488C485.267 32.488 486.355 32.232 487.315 31.72C488.307 31.176 489.043 30.504 489.523 29.704ZM480.547 15.592C479.299 15.592 478.307 16.2 477.571 17.416C476.835 18.6 476.467 20.12 476.467 21.976C476.467 23.544 476.627 24.92 476.947 26.104L483.139 22.984C483.971 22.568 484.387 21.816 484.387 20.728C484.387 19.64 484.035 18.52 483.331 17.368C482.627 16.184 481.699 15.592 480.547 15.592ZM503.645 37.432C500.637 37.432 498.173 36.888 496.253 35.8C494.333 34.712 493.373 33.4 493.373 31.864C493.373 31 493.629 30.344 494.141 29.896C494.685 29.448 495.389 29.224 496.253 29.224C497.181 29.224 497.933 29.56 498.509 30.232C499.085 30.872 499.485 31.592 499.709 32.392C499.965 33.192 500.413 33.928 501.053 34.6C501.725 35.24 502.589 35.56 503.645 35.56C504.669 35.56 505.501 35.288 506.141 34.744C506.813 34.2 507.149 33.416 507.149 32.392C507.149 31.24 506.685 30.328 505.757 29.656C504.861 28.984 503.757 28.488 502.445 28.168C501.133 27.816 499.821 27.432 498.509 27.016C497.197 26.568 496.077 25.816 495.149 24.76C494.253 23.672 493.805 22.264 493.805 20.536C493.805 18.488 494.701 16.808 496.493 15.496C498.317 14.152 500.669 13.48 503.549 13.48C506.461 13.48 508.829 14.056 510.653 15.208C512.509 16.328 513.437 17.672 513.437 19.24C513.437 19.944 513.165 20.536 512.621 21.016C512.109 21.496 511.469 21.736 510.701 21.736C509.805 21.736 509.085 21.416 508.541 20.776C507.997 20.104 507.613 19.384 507.389 18.616C507.165 17.816 506.765 17.096 506.189 16.456C505.613 15.784 504.861 15.448 503.933 15.448C503.005 15.448 502.253 15.768 501.677 16.408C501.101 17.016 500.813 17.768 500.813 18.664C500.813 19.56 501.053 20.312 501.533 20.92C502.013 21.528 502.637 21.992 503.405 22.312C504.173 22.632 505.021 22.936 505.949 23.224C506.877 23.48 507.805 23.784 508.733 24.136C509.693 24.456 510.557 24.856 511.325 25.336C512.093 25.816 512.717 26.504 513.197 27.4C513.677 28.264 513.917 29.32 513.917 30.568C513.917 32.552 512.989 34.2 511.133 35.512C509.277 36.792 506.781 37.432 503.645 37.432ZM525.896 37.48C523.656 37.48 521.88 36.776 520.568 35.368C519.288 33.928 518.648 31.864 518.648 29.176V16.744H516.392C515.752 16.744 515.432 16.424 515.432 15.784V14.968C515.432 14.296 515.752 13.96 516.392 13.96H517.592C518.904 13.96 520.008 13.528 520.904 12.664C521.832 11.8 522.424 10.648 522.68 9.208C522.84 8.44 523.208 8.056 523.784 8.056H524.744C525.448 8.056 525.8 8.44 525.8 9.208L525.848 13.96H531.368C531.624 13.96 531.848 14.056 532.04 14.248C532.232 14.44 532.328 14.68 532.328 14.968V15.784C532.328 16.072 532.232 16.312 532.04 16.504C531.848 16.664 531.624 16.744 531.368 16.744H525.848V29.272C525.848 30.2 526.072 30.952 526.52 31.528C527 32.072 527.592 32.344 528.296 32.344C529.96 32.344 531.048 31.624 531.56 30.184C531.848 29.768 532.2 29.608 532.616 29.704C533.064 29.768 533.288 30.024 533.288 30.472C533.288 32.328 532.616 33.96 531.272 35.368C529.96 36.776 528.168 37.48 525.896 37.48Z" fill="#163A24"/>
</svg>
