<svg width="372" height="102" viewBox="0 0 372 102" fill="none" xmlns="http://www.w3.org/2000/svg">
<path d="M32.44 2.92C33.144 2.92 33.496 3.176 33.496 3.688V3.88C33.496 4.264 33.112 4.776 32.344 5.416C31.608 6.056 31.016 6.76 30.568 7.528L21.544 23.128V32.392C21.544 33.128 21.88 33.848 22.552 34.552C23.224 35.224 23.56 35.72 23.56 36.04V36.184C23.56 36.728 23.208 37 22.504 37H13.432C12.728 37 12.376 36.728 12.376 36.184V36.04C12.376 35.72 12.68 35.224 13.288 34.552C13.896 33.848 14.2 33.128 14.2 32.392V23.656L4.024 7.528C3.608 6.856 2.984 6.184 2.152 5.512C1.32 4.84 0.904 4.296 0.904 3.88V3.688C0.904 3.176 1.288 2.92 2.056 2.92H12.952C13.688 2.92 14.056 3.176 14.056 3.688V3.88C14.056 4.2 13.816 4.536 13.336 4.888C12.888 5.24 12.504 5.64 12.184 6.088C11.864 6.504 11.864 6.984 12.184 7.528L19.576 20.488L26.968 7.528C27.256 7.08 27.32 6.664 27.16 6.28C27 5.896 26.76 5.608 26.44 5.416C26.12 5.192 25.8 4.952 25.48 4.696C25.192 4.408 25.048 4.136 25.048 3.88V3.688C25.048 3.176 25.4 2.92 26.104 2.92H32.44ZM42.5395 37.48C38.7315 37.48 35.5795 36.312 33.0835 33.976C30.6195 31.608 29.3875 28.728 29.3875 25.336C29.3875 21.912 30.6035 19.08 33.0355 16.84C35.4675 14.6 38.3955 13.48 41.8195 13.48C45.4995 13.48 48.5715 14.648 51.0355 16.984C53.4995 19.288 54.7315 22.152 54.7315 25.576C54.7315 29 53.5635 31.848 51.2275 34.12C48.9235 36.36 46.0275 37.48 42.5395 37.48ZM43.4035 35.368C44.7155 35.368 45.7235 34.76 46.4275 33.544C47.1635 32.328 47.5315 30.616 47.5315 28.408C47.5315 26.584 47.2595 24.712 46.7155 22.792C46.2035 20.84 45.4195 19.16 44.3635 17.752C43.3075 16.312 42.1395 15.592 40.8595 15.592C37.9155 15.592 36.4435 17.928 36.4435 22.6C36.4435 24.328 36.6995 26.152 37.2115 28.072C37.7555 29.992 38.5715 31.688 39.6595 33.16C40.7795 34.632 42.0275 35.368 43.4035 35.368ZM80.9433 32.104C80.9433 32.968 81.0553 33.624 81.2793 34.072C81.5353 34.488 81.8073 34.728 82.0953 34.792C82.3833 34.824 82.6393 34.92 82.8633 35.08C83.1193 35.24 83.2473 35.512 83.2473 35.896C83.2473 36.824 81.8233 37.288 78.9753 37.288C77.5673 37.288 76.5113 37.064 75.8073 36.616C75.1353 36.136 74.7673 35.32 74.7033 34.168C73.3593 36.376 71.0393 37.48 67.7433 37.48C65.1513 37.48 63.0073 36.616 61.3113 34.888C59.6473 33.128 58.8153 30.664 58.8153 27.496V19.384C58.8153 18.584 58.4953 17.848 57.8553 17.176C57.2473 16.472 56.9433 15.992 56.9433 15.736V15.592C56.9433 15.016 57.2793 14.68 57.9513 14.584L63.9993 13.672C65.3113 13.512 65.9673 13.8 65.9673 14.536L65.8233 28.216C65.8233 32.568 67.1513 34.744 69.8073 34.744C70.9913 34.744 71.9673 34.232 72.7353 33.208C73.5353 32.152 73.9353 30.792 73.9353 29.128V19.384C73.9353 18.584 73.6153 17.848 72.9753 17.176C72.3353 16.472 72.0153 15.992 72.0153 15.736V15.592C72.0153 15.016 72.3353 14.68 72.9753 14.584L79.1193 13.672C80.3353 13.544 80.9433 13.832 80.9433 14.536V32.104ZM118.913 32.392C118.913 33.128 119.233 33.848 119.873 34.552C120.513 35.224 120.833 35.72 120.833 36.04V36.184C120.833 36.728 120.513 37 119.873 37H113.921C113.185 37 112.817 36.648 112.817 35.944L112.721 34.888C111.249 36.616 109.169 37.48 106.481 37.48C103.377 37.48 100.721 36.408 98.5131 34.264C96.3051 32.088 95.2011 29.144 95.2011 25.432C95.2011 21.944 96.3051 19.08 98.5131 16.84C100.721 14.6 103.393 13.48 106.529 13.48C108.769 13.48 110.641 14.104 112.145 15.352V7.672C112.145 7.032 111.937 6.504 111.521 6.088C111.137 5.672 110.737 5.32 110.321 5.032C109.937 4.744 109.745 4.44 109.745 4.12V3.976C109.745 3.432 110.081 3.064 110.753 2.872L117.041 0.951998C118.289 0.535997 118.913 0.855998 118.913 1.912V32.392ZM108.065 35.416C109.153 35.416 110.097 34.968 110.897 34.072C111.729 33.144 112.145 31.88 112.145 30.28V21.832C112.145 20.264 111.617 18.824 110.561 17.512C109.505 16.2 108.289 15.544 106.913 15.544C105.441 15.544 104.273 16.168 103.409 17.416C102.545 18.632 102.097 20.36 102.065 22.6C102.001 24.424 102.177 26.296 102.593 28.216C103.041 30.136 103.745 31.816 104.705 33.256C105.697 34.664 106.817 35.384 108.065 35.416ZM136.29 37.48C132.482 37.48 129.33 36.312 126.834 33.976C124.37 31.608 123.138 28.728 123.138 25.336C123.138 21.912 124.354 19.08 126.786 16.84C129.218 14.6 132.146 13.48 135.57 13.48C139.25 13.48 142.322 14.648 144.786 16.984C147.25 19.288 148.482 22.152 148.482 25.576C148.482 29 147.314 31.848 144.978 34.12C142.674 36.36 139.778 37.48 136.29 37.48ZM137.154 35.368C138.466 35.368 139.474 34.76 140.178 33.544C140.914 32.328 141.282 30.616 141.282 28.408C141.282 26.584 141.01 24.712 140.466 22.792C139.954 20.84 139.17 19.16 138.114 17.752C137.058 16.312 135.89 15.592 134.609 15.592C131.666 15.592 130.194 17.928 130.194 22.6C130.194 24.328 130.45 26.152 130.962 28.072C131.506 29.992 132.322 31.688 133.41 33.16C134.53 34.632 135.778 35.368 137.154 35.368ZM176.181 32.344C176.245 33.112 176.549 33.832 177.093 34.504C177.637 35.176 177.909 35.688 177.909 36.04V36.232C177.909 36.776 177.541 37.048 176.805 37.048H168.501C167.765 37.048 167.397 36.776 167.397 36.232V36.04C167.397 35.72 167.685 35.224 168.261 34.552C168.869 33.88 169.157 33.144 169.125 32.344L168.645 23.464C168.421 18.632 167.029 16.216 164.469 16.216C163.189 16.216 162.181 16.696 161.445 17.656C160.741 18.616 160.389 19.896 160.389 21.496V32.392C160.389 33.16 160.725 33.88 161.397 34.552C162.101 35.224 162.453 35.72 162.453 36.04V36.232C162.453 36.776 162.085 37.048 161.349 37.048H152.421C151.685 37.048 151.317 36.776 151.317 36.232V36.04C151.317 35.72 151.653 35.224 152.325 34.552C153.029 33.88 153.381 33.16 153.381 32.392V21.208C153.381 20.728 153.253 20.296 152.997 19.912C152.773 19.528 152.501 19.256 152.181 19.096C151.893 18.904 151.621 18.68 151.365 18.424C151.141 18.168 151.029 17.912 151.029 17.656V17.464C151.029 17.112 151.349 16.776 151.989 16.456L157.701 13.672C158.245 13.416 158.645 13.4 158.901 13.624C159.189 13.816 159.333 14.168 159.333 14.68V17.368C160.709 14.776 163.077 13.48 166.437 13.48C168.869 13.48 170.933 14.296 172.629 15.928C174.357 17.56 175.349 20.152 175.605 23.704L176.181 32.344ZM180.393 15.688C179.913 15.976 179.465 15.912 179.049 15.496C178.665 15.08 178.681 14.664 179.097 14.248C180.025 13.32 180.681 12.568 181.065 11.992C181.449 11.416 181.689 10.776 181.785 10.072C181.881 9.464 181.705 9.16 181.257 9.16C180.393 9.16 179.657 8.792 179.049 8.056C178.441 7.32 178.137 6.376 178.137 5.224C178.137 3.88 178.521 2.808 179.289 2.008C180.057 1.176 181.081 0.759997 182.361 0.759997C183.609 0.759997 184.649 1.224 185.481 2.152C186.345 3.048 186.777 4.264 186.777 5.8C186.777 9.704 184.649 13 180.393 15.688ZM198.084 37.48C195.844 37.48 194.068 36.776 192.756 35.368C191.476 33.928 190.836 31.864 190.836 29.176V16.744H188.58C187.94 16.744 187.62 16.424 187.62 15.784V14.968C187.62 14.296 187.94 13.96 188.58 13.96H189.78C191.092 13.96 192.196 13.528 193.092 12.664C194.02 11.8 194.612 10.648 194.868 9.208C195.028 8.44 195.396 8.056 195.972 8.056H196.932C197.636 8.056 197.988 8.44 197.988 9.208L198.036 13.96H203.556C203.812 13.96 204.036 14.056 204.228 14.248C204.42 14.44 204.516 14.68 204.516 14.968V15.784C204.516 16.072 204.42 16.312 204.228 16.504C204.036 16.664 203.812 16.744 203.556 16.744H198.036V29.272C198.036 30.2 198.26 30.952 198.708 31.528C199.188 32.072 199.78 32.344 200.484 32.344C202.148 32.344 203.236 31.624 203.748 30.184C204.036 29.768 204.388 29.608 204.804 29.704C205.252 29.768 205.476 30.024 205.476 30.472C205.476 32.328 204.804 33.96 203.46 35.368C202.148 36.776 200.356 37.48 198.084 37.48ZM241.609 32.296C241.673 33.064 241.977 33.784 242.521 34.456C243.065 35.128 243.337 35.64 243.337 35.992V36.184C243.337 36.728 242.985 37 242.281 37H233.929C233.225 37 232.873 36.728 232.873 36.184V35.992C232.873 35.672 233.161 35.176 233.737 34.504C234.345 33.832 234.633 33.112 234.601 32.344L234.121 23.128C233.897 18.52 232.505 16.216 229.945 16.216C228.665 16.216 227.657 16.696 226.921 17.656C226.217 18.616 225.865 19.896 225.865 21.496V32.392C225.865 33.128 226.201 33.832 226.873 34.504C227.577 35.176 227.929 35.672 227.929 35.992V36.184C227.929 36.728 227.545 37 226.777 37H217.897C217.161 37 216.793 36.728 216.793 36.184V35.992C216.793 35.672 217.129 35.176 217.801 34.504C218.473 33.832 218.809 33.128 218.809 32.392V8.488C218.809 7.72 218.441 7.032 217.705 6.424C217.001 5.816 216.649 5.352 216.649 5.032V4.888C216.649 4.408 216.969 4.008 217.609 3.688L223.945 0.903998C224.489 0.679997 224.905 0.647998 225.193 0.808C225.513 0.967999 225.673 1.288 225.673 1.768L225.625 16.168C227.129 14.376 229.225 13.48 231.913 13.48C234.345 13.48 236.409 14.28 238.105 15.88C239.801 17.448 240.761 19.928 240.985 23.32L241.609 32.296ZM267.325 32.2C267.421 32.936 267.597 33.528 267.853 33.976C268.141 34.424 268.429 34.712 268.717 34.84C269.005 34.936 269.261 35.064 269.485 35.224C269.709 35.384 269.821 35.608 269.821 35.896C269.821 36.824 268.285 37.288 265.213 37.288C263.805 37.288 262.765 37.112 262.093 36.76C261.453 36.376 261.069 35.688 260.941 34.696C259.693 36.552 257.565 37.48 254.557 37.48C251.869 37.48 249.693 36.856 248.029 35.608C246.365 34.36 245.533 32.568 245.533 30.232C245.501 27.928 246.317 26.136 247.981 24.856C249.645 23.576 251.725 22.936 254.221 22.936C256.333 22.936 258.077 23.416 259.453 24.376L259.405 23.8C259.085 20.76 258.637 18.616 258.061 17.368C257.485 16.12 256.509 15.496 255.133 15.496C254.269 15.496 253.565 15.816 253.021 16.456C252.477 17.096 252.093 17.8 251.869 18.568C251.645 19.336 251.277 20.04 250.765 20.68C250.253 21.32 249.597 21.64 248.797 21.64C247.933 21.64 247.229 21.4 246.685 20.92C246.173 20.408 245.917 19.752 245.917 18.952C245.917 17.288 246.797 15.96 248.557 14.968C250.349 13.976 252.541 13.48 255.133 13.48C258.237 13.48 260.781 14.36 262.765 16.12C264.749 17.88 265.917 20.28 266.269 23.32L267.325 32.2ZM256.669 35.368C257.725 35.368 258.573 34.936 259.213 34.072C259.853 33.176 260.141 32.168 260.077 31.048L259.933 29.368C259.805 27.992 259.389 26.936 258.685 26.2C258.013 25.464 257.165 25.096 256.141 25.096C255.117 25.096 254.269 25.464 253.597 26.2C252.957 26.936 252.637 27.912 252.637 29.128C252.637 30.856 253.005 32.328 253.741 33.544C254.509 34.76 255.485 35.368 256.669 35.368ZM293.712 13.96C294.384 13.96 294.72 14.216 294.72 14.728V14.92C294.72 15.304 294.288 15.848 293.424 16.552C292.56 17.224 292 17.896 291.744 18.568L285.12 35.848C284.864 36.616 284.336 37 283.536 37H280.416C279.712 37 279.2 36.616 278.88 35.848L270.912 18.568C270.656 17.992 270.192 17.352 269.52 16.648C268.88 15.912 268.56 15.336 268.56 14.92V14.728C268.56 14.216 268.88 13.96 269.52 13.96H279.072C279.712 13.96 280.032 14.232 280.032 14.776V14.968C280.032 15.224 279.888 15.544 279.6 15.928C279.312 16.312 279.088 16.68 278.928 17.032C278.768 17.352 278.8 17.912 279.024 18.712L284.064 31.624L288.576 19.624C288.896 18.472 288.928 17.672 288.672 17.224C288.416 16.776 288.048 16.36 287.568 15.976C287.12 15.56 286.896 15.224 286.896 14.968V14.776C286.896 14.232 287.232 13.96 287.904 13.96H293.712ZM314.429 29.704C314.717 29.32 315.069 29.192 315.485 29.32C315.901 29.448 316.093 29.752 316.061 30.232C315.901 31.896 314.941 33.528 313.181 35.128C311.421 36.696 309.133 37.48 306.317 37.48C302.925 37.48 300.141 36.36 297.965 34.12C295.789 31.88 294.701 28.936 294.701 25.288C294.701 21.864 295.837 19.048 298.109 16.84C300.381 14.6 303.117 13.48 306.317 13.48C309.229 13.48 311.469 14.168 313.037 15.544C314.605 16.92 315.389 18.504 315.389 20.296C315.389 21.768 314.685 22.824 313.277 23.464L302.621 28.312C303.933 31.096 306.045 32.488 308.957 32.488C310.173 32.488 311.261 32.232 312.221 31.72C313.213 31.176 313.949 30.504 314.429 29.704ZM305.453 15.592C304.205 15.592 303.213 16.2 302.477 17.416C301.741 18.6 301.373 20.12 301.373 21.976C301.373 23.544 301.533 24.92 301.853 26.104L308.045 22.984C308.877 22.568 309.293 21.816 309.293 20.728C309.293 19.64 308.941 18.52 308.237 17.368C307.533 16.184 306.605 15.592 305.453 15.592ZM337.537 37.48C335.297 37.48 333.521 36.776 332.209 35.368C330.929 33.928 330.289 31.864 330.289 29.176V16.744H328.033C327.393 16.744 327.073 16.424 327.073 15.784V14.968C327.073 14.296 327.393 13.96 328.033 13.96H329.233C330.545 13.96 331.649 13.528 332.545 12.664C333.473 11.8 334.065 10.648 334.321 9.208C334.481 8.44 334.849 8.056 335.425 8.056H336.385C337.089 8.056 337.441 8.44 337.441 9.208L337.489 13.96H343.009C343.265 13.96 343.489 14.056 343.681 14.248C343.873 14.44 343.969 14.68 343.969 14.968V15.784C343.969 16.072 343.873 16.312 343.681 16.504C343.489 16.664 343.265 16.744 343.009 16.744H337.489V29.272C337.489 30.2 337.713 30.952 338.161 31.528C338.641 32.072 339.233 32.344 339.937 32.344C341.601 32.344 342.689 31.624 343.201 30.184C343.489 29.768 343.841 29.608 344.257 29.704C344.705 29.768 344.929 30.024 344.929 30.472C344.929 32.328 344.257 33.96 342.913 35.368C341.601 36.776 339.809 37.48 337.537 37.48ZM359.415 37.48C355.607 37.48 352.455 36.312 349.959 33.976C347.495 31.608 346.263 28.728 346.263 25.336C346.263 21.912 347.479 19.08 349.911 16.84C352.343 14.6 355.271 13.48 358.695 13.48C362.375 13.48 365.447 14.648 367.911 16.984C370.375 19.288 371.607 22.152 371.607 25.576C371.607 29 370.439 31.848 368.103 34.12C365.799 36.36 362.903 37.48 359.415 37.48ZM360.279 35.368C361.591 35.368 362.599 34.76 363.303 33.544C364.039 32.328 364.407 30.616 364.407 28.408C364.407 26.584 364.135 24.712 363.591 22.792C363.079 20.84 362.295 19.16 361.239 17.752C360.183 16.312 359.015 15.592 357.734 15.592C354.791 15.592 353.319 17.928 353.319 22.6C353.319 24.328 353.575 26.152 354.087 28.072C354.631 29.992 355.447 31.688 356.535 33.16C357.655 34.632 358.903 35.368 360.279 35.368ZM16.648 67.48C19.656 67.48 22.28 68.52 24.52 70.6C26.76 72.68 27.88 75.512 27.88 79.096C27.88 82.712 26.776 85.688 24.568 88.024C22.392 90.328 19.768 91.48 16.696 91.48C14.456 91.48 12.584 90.856 11.08 89.608V96.76C11.08 97.528 11.416 98.248 12.088 98.92C12.76 99.592 13.096 100.088 13.096 100.408V100.6C13.096 101.144 12.728 101.416 11.992 101.416H3.304C2.568 101.416 2.2 101.144 2.2 100.6V100.408C2.2 100.088 2.504 99.592 3.112 98.92C3.752 98.248 4.072 97.528 4.072 96.76V75.16C4.072 74.456 3.704 73.816 2.968 73.24C2.232 72.632 1.864 72.152 1.864 71.8V71.56C1.864 71.112 2.184 70.728 2.824 70.408L8.2 67.768C9.416 67.16 10.024 67.448 10.024 68.632L9.976 70.648C11.32 68.536 13.544 67.48 16.648 67.48ZM15.976 89.416C17.512 89.416 18.696 88.776 19.528 87.496C20.392 86.216 20.824 84.376 20.824 81.976C20.824 78.712 20.296 75.832 19.24 73.336C18.184 70.808 16.76 69.544 14.968 69.544C13.976 69.544 13.112 69.912 12.376 70.648C11.64 71.352 11.208 72.28 11.08 73.432V82.6C11.08 84.456 11.576 86.056 12.568 87.4C13.56 88.744 14.696 89.416 15.976 89.416ZM31.5708 91C30.8348 91 30.4668 90.728 30.4668 90.184V89.992C30.4668 89.672 30.7708 89.176 31.3788 88.504C32.0188 87.832 32.3388 87.128 32.3388 86.392V62.776C32.3388 61.944 32.0188 61.192 31.3788 60.52C30.7708 59.848 30.4668 59.384 30.4668 59.128V58.936C30.4668 58.552 30.7868 58.232 31.4268 57.976L37.4748 55C38.1148 54.744 38.5948 54.712 38.9148 54.904C39.2668 55.096 39.4428 55.416 39.4428 55.864V86.392C39.4428 87.128 39.7788 87.832 40.4508 88.504C41.1548 89.176 41.5068 89.672 41.5068 89.992V90.184C41.5068 90.728 41.1388 91 40.4028 91H31.5708ZM65.8559 86.2C65.9519 86.936 66.1279 87.528 66.3839 87.976C66.6719 88.424 66.9599 88.712 67.2479 88.84C67.5359 88.936 67.7919 89.064 68.0159 89.224C68.2399 89.384 68.3519 89.608 68.3519 89.896C68.3519 90.824 66.8159 91.288 63.7439 91.288C62.3359 91.288 61.2959 91.112 60.6239 90.76C59.9839 90.376 59.5999 89.688 59.4719 88.696C58.2239 90.552 56.0959 91.48 53.0879 91.48C50.3999 91.48 48.2239 90.856 46.5599 89.608C44.8959 88.36 44.0639 86.568 44.0639 84.232C44.0319 81.928 44.8479 80.136 46.5119 78.856C48.1759 77.576 50.2559 76.936 52.7519 76.936C54.8639 76.936 56.6079 77.416 57.9839 78.376L57.9359 77.8C57.6159 74.76 57.1679 72.616 56.5919 71.368C56.0159 70.12 55.0399 69.496 53.6639 69.496C52.7999 69.496 52.0959 69.816 51.5519 70.456C51.0079 71.096 50.6239 71.8 50.3999 72.568C50.1759 73.336 49.8079 74.04 49.2959 74.68C48.7839 75.32 48.1279 75.64 47.3279 75.64C46.4639 75.64 45.7599 75.4 45.2159 74.92C44.7039 74.408 44.4479 73.752 44.4479 72.952C44.4479 71.288 45.3279 69.96 47.0879 68.968C48.8799 67.976 51.0719 67.48 53.6639 67.48C56.7679 67.48 59.3119 68.36 61.2959 70.12C63.2799 71.88 64.4479 74.28 64.7999 77.32L65.8559 86.2ZM55.1999 89.368C56.2559 89.368 57.1039 88.936 57.7439 88.072C58.3839 87.176 58.6719 86.168 58.6079 85.048L58.4639 83.368C58.3359 81.992 57.9199 80.936 57.2159 80.2C56.5439 79.464 55.6959 79.096 54.6719 79.096C53.6479 79.096 52.7999 79.464 52.1279 80.2C51.4879 80.936 51.1679 81.912 51.1679 83.128C51.1679 84.856 51.5359 86.328 52.2719 87.544C53.0399 88.76 54.0159 89.368 55.1999 89.368ZM92.5349 67.96C93.1749 67.96 93.4949 68.216 93.4949 68.728V68.968C93.4949 69.384 93.1589 69.944 92.4869 70.648C91.8469 71.352 91.3669 72.04 91.0469 72.712L81.9749 92.44C81.5589 93.368 81.2069 94.12 80.9189 94.696C80.6309 95.272 80.1829 96.024 79.5749 96.952C78.9989 97.912 78.4229 98.664 77.8469 99.208C77.2709 99.752 76.5509 100.232 75.6869 100.648C74.8229 101.064 73.9269 101.272 72.9989 101.272C70.9509 101.272 69.2549 100.744 67.9109 99.688C66.5989 98.632 65.9429 97.448 65.9429 96.136C65.9429 95.272 66.1989 94.568 66.7109 94.024C67.2229 93.512 67.9269 93.256 68.8229 93.256C69.7189 93.256 70.4229 93.544 70.9349 94.12C71.4469 94.728 71.7829 95.4 71.9429 96.136C72.1029 96.872 72.3429 97.528 72.6629 98.104C73.0149 98.712 73.4629 99.016 74.0069 99.016C75.4789 99.016 77.1269 96.776 78.9509 92.296L69.3989 72.712C69.0469 72.008 68.5189 71.32 67.8149 70.648C67.1429 69.944 66.8069 69.384 66.8069 68.968V68.728C66.8069 68.216 67.1429 67.96 67.8149 67.96H76.7909C77.3989 67.96 77.7029 68.232 77.7029 68.776V68.968C77.7029 69.256 77.5589 69.592 77.2709 69.976C76.9829 70.328 76.7909 70.664 76.6949 70.984C76.5989 71.304 76.6949 71.912 76.9829 72.808L82.5989 85.816L87.7829 73.48C88.1029 72.392 88.1029 71.64 87.7829 71.224C87.4629 70.808 87.0309 70.408 86.4869 70.024C85.9429 69.608 85.6709 69.256 85.6709 68.968V68.776C85.6709 68.232 86.0069 67.96 86.6789 67.96H92.5349ZM125.247 86.2C125.343 86.936 125.519 87.528 125.775 87.976C126.063 88.424 126.351 88.712 126.639 88.84C126.927 88.936 127.183 89.064 127.406 89.224C127.631 89.384 127.743 89.608 127.743 89.896C127.743 90.824 126.207 91.288 123.135 91.288C121.727 91.288 120.687 91.112 120.015 90.76C119.375 90.376 118.991 89.688 118.863 88.696C117.615 90.552 115.487 91.48 112.479 91.48C109.791 91.48 107.615 90.856 105.951 89.608C104.287 88.36 103.455 86.568 103.455 84.232C103.423 81.928 104.239 80.136 105.903 78.856C107.567 77.576 109.647 76.936 112.143 76.936C114.255 76.936 115.999 77.416 117.375 78.376L117.327 77.8C117.007 74.76 116.559 72.616 115.983 71.368C115.407 70.12 114.431 69.496 113.055 69.496C112.191 69.496 111.487 69.816 110.943 70.456C110.399 71.096 110.015 71.8 109.791 72.568C109.567 73.336 109.199 74.04 108.687 74.68C108.175 75.32 107.519 75.64 106.719 75.64C105.855 75.64 105.151 75.4 104.607 74.92C104.095 74.408 103.839 73.752 103.839 72.952C103.839 71.288 104.719 69.96 106.479 68.968C108.271 67.976 110.463 67.48 113.055 67.48C116.159 67.48 118.703 68.36 120.687 70.12C122.671 71.88 123.839 74.28 124.191 77.32L125.247 86.2ZM114.591 89.368C115.647 89.368 116.495 88.936 117.135 88.072C117.775 87.176 118.063 86.168 117.999 85.048L117.855 83.368C117.727 81.992 117.311 80.936 116.607 80.2C115.935 79.464 115.087 79.096 114.062 79.096C113.039 79.096 112.191 79.464 111.519 80.2C110.879 80.936 110.559 81.912 110.559 83.128C110.559 84.856 110.927 86.328 111.663 87.544C112.431 88.76 113.407 89.368 114.591 89.368ZM130.149 91C129.413 91 129.045 90.728 129.045 90.184V89.992C129.045 89.672 129.349 89.176 129.957 88.504C130.597 87.832 130.917 87.128 130.917 86.392V62.776C130.917 61.944 130.597 61.192 129.957 60.52C129.349 59.848 129.045 59.384 129.045 59.128V58.936C129.045 58.552 129.365 58.232 130.005 57.976L136.053 55C136.693 54.744 137.173 54.712 137.493 54.904C137.845 55.096 138.021 55.416 138.021 55.864V86.392C138.021 87.128 138.357 87.832 139.029 88.504C139.733 89.176 140.085 89.672 140.085 89.992V90.184C140.085 90.728 139.717 91 138.981 91H130.149ZM143.602 91C142.866 91 142.498 90.728 142.498 90.184V89.992C142.498 89.672 142.802 89.176 143.41 88.504C144.05 87.832 144.37 87.128 144.37 86.392V62.776C144.37 61.944 144.05 61.192 143.41 60.52C142.802 59.848 142.498 59.384 142.498 59.128V58.936C142.498 58.552 142.818 58.232 143.458 57.976L149.506 55C150.146 54.744 150.626 54.712 150.946 54.904C151.298 55.096 151.474 55.416 151.474 55.864V86.392C151.474 87.128 151.81 87.832 152.482 88.504C153.186 89.176 153.538 89.672 153.538 89.992V90.184C153.538 90.728 153.17 91 152.434 91H143.602ZM175.209 91.48C172.969 91.48 171.193 90.776 169.881 89.368C168.601 87.928 167.961 85.864 167.961 83.176V70.744H165.705C165.065 70.744 164.745 70.424 164.745 69.784V68.968C164.745 68.296 165.065 67.96 165.705 67.96H166.905C168.217 67.96 169.321 67.528 170.217 66.664C171.145 65.8 171.737 64.648 171.993 63.208C172.153 62.44 172.521 62.056 173.097 62.056H174.057C174.761 62.056 175.113 62.44 175.113 63.208L175.161 67.96H180.681C180.937 67.96 181.161 68.056 181.353 68.248C181.545 68.44 181.641 68.68 181.641 68.968V69.784C181.641 70.072 181.545 70.312 181.353 70.504C181.161 70.664 180.937 70.744 180.681 70.744H175.161V83.272C175.161 84.2 175.385 84.952 175.833 85.528C176.313 86.072 176.905 86.344 177.609 86.344C179.273 86.344 180.361 85.624 180.873 84.184C181.161 83.768 181.513 83.608 181.929 83.704C182.377 83.768 182.601 84.024 182.601 84.472C182.601 86.328 181.929 87.96 180.585 89.368C179.273 90.776 177.481 91.48 175.209 91.48ZM208.89 86.296C208.954 87.064 209.258 87.784 209.802 88.456C210.346 89.128 210.618 89.64 210.618 89.992V90.184C210.618 90.728 210.266 91 209.562 91H201.21C200.506 91 200.154 90.728 200.154 90.184V89.992C200.154 89.672 200.442 89.176 201.018 88.504C201.626 87.832 201.914 87.112 201.882 86.344L201.402 77.128C201.178 72.52 199.786 70.216 197.226 70.216C195.946 70.216 194.938 70.696 194.202 71.656C193.498 72.616 193.146 73.896 193.146 75.496V86.392C193.146 87.128 193.482 87.832 194.154 88.504C194.858 89.176 195.21 89.672 195.21 89.992V90.184C195.21 90.728 194.826 91 194.058 91H185.178C184.442 91 184.074 90.728 184.074 90.184V89.992C184.074 89.672 184.41 89.176 185.082 88.504C185.754 87.832 186.09 87.128 186.09 86.392V62.488C186.09 61.72 185.722 61.032 184.986 60.424C184.282 59.816 183.93 59.352 183.93 59.032V58.888C183.93 58.408 184.25 58.008 184.89 57.688L191.226 54.904C191.77 54.68 192.186 54.648 192.474 54.808C192.794 54.968 192.954 55.288 192.954 55.768L192.906 70.168C194.41 68.376 196.506 67.48 199.194 67.48C201.626 67.48 203.69 68.28 205.386 69.88C207.082 71.448 208.042 73.928 208.266 77.32L208.89 86.296ZM232.398 83.704C232.686 83.32 233.038 83.192 233.454 83.32C233.87 83.448 234.062 83.752 234.03 84.232C233.87 85.896 232.91 87.528 231.15 89.128C229.39 90.696 227.102 91.48 224.286 91.48C220.894 91.48 218.11 90.36 215.934 88.12C213.758 85.88 212.67 82.936 212.67 79.288C212.67 75.864 213.806 73.048 216.078 70.84C218.35 68.6 221.086 67.48 224.286 67.48C227.198 67.48 229.438 68.168 231.006 69.544C232.574 70.92 233.358 72.504 233.358 74.296C233.358 75.768 232.654 76.824 231.246 77.464L220.59 82.312C221.902 85.096 224.014 86.488 226.926 86.488C228.142 86.488 229.23 86.232 230.19 85.72C231.182 85.176 231.918 84.504 232.398 83.704ZM223.422 69.592C222.174 69.592 221.182 70.2 220.446 71.416C219.71 72.6 219.342 74.12 219.342 75.976C219.342 77.544 219.502 78.92 219.822 80.104L226.014 76.984C226.846 76.568 227.262 75.816 227.262 74.728C227.262 73.64 226.91 72.52 226.206 71.368C225.502 70.184 224.574 69.592 223.422 69.592ZM260.492 67.48C263.5 67.48 266.124 68.52 268.364 70.6C270.604 72.68 271.724 75.512 271.724 79.096C271.724 82.712 270.62 85.688 268.412 88.024C266.236 90.328 263.612 91.48 260.54 91.48C258.3 91.48 256.428 90.856 254.924 89.608V96.76C254.924 97.528 255.26 98.248 255.932 98.92C256.604 99.592 256.94 100.088 256.94 100.408V100.6C256.94 101.144 256.572 101.416 255.836 101.416H247.148C246.412 101.416 246.044 101.144 246.044 100.6V100.408C246.044 100.088 246.348 99.592 246.956 98.92C247.596 98.248 247.916 97.528 247.916 96.76V75.16C247.916 74.456 247.548 73.816 246.812 73.24C246.076 72.632 245.708 72.152 245.708 71.8V71.56C245.708 71.112 246.028 70.728 246.668 70.408L252.044 67.768C253.26 67.16 253.868 67.448 253.868 68.632L253.82 70.648C255.164 68.536 257.388 67.48 260.492 67.48ZM259.82 89.416C261.356 89.416 262.54 88.776 263.372 87.496C264.236 86.216 264.668 84.376 264.668 81.976C264.668 78.712 264.14 75.832 263.084 73.336C262.028 70.808 260.604 69.544 258.812 69.544C257.82 69.544 256.956 69.912 256.22 70.648C255.484 71.352 255.052 72.28 254.924 73.432V82.6C254.924 84.456 255.42 86.056 256.412 87.4C257.404 88.744 258.54 89.416 259.82 89.416ZM296.247 86.2C296.343 86.936 296.519 87.528 296.775 87.976C297.063 88.424 297.351 88.712 297.639 88.84C297.927 88.936 298.183 89.064 298.406 89.224C298.631 89.384 298.743 89.608 298.743 89.896C298.743 90.824 297.207 91.288 294.135 91.288C292.727 91.288 291.687 91.112 291.015 90.76C290.375 90.376 289.991 89.688 289.863 88.696C288.615 90.552 286.487 91.48 283.479 91.48C280.791 91.48 278.615 90.856 276.951 89.608C275.287 88.36 274.455 86.568 274.455 84.232C274.423 81.928 275.239 80.136 276.903 78.856C278.567 77.576 280.647 76.936 283.143 76.936C285.255 76.936 286.999 77.416 288.375 78.376L288.327 77.8C288.007 74.76 287.559 72.616 286.983 71.368C286.407 70.12 285.431 69.496 284.055 69.496C283.191 69.496 282.487 69.816 281.943 70.456C281.399 71.096 281.015 71.8 280.791 72.568C280.567 73.336 280.199 74.04 279.687 74.68C279.175 75.32 278.519 75.64 277.719 75.64C276.855 75.64 276.151 75.4 275.607 74.92C275.095 74.408 274.839 73.752 274.839 72.952C274.839 71.288 275.719 69.96 277.479 68.968C279.271 67.976 281.463 67.48 284.055 67.48C287.159 67.48 289.703 68.36 291.687 70.12C293.671 71.88 294.839 74.28 295.191 77.32L296.247 86.2ZM285.591 89.368C286.647 89.368 287.495 88.936 288.135 88.072C288.775 87.176 289.063 86.168 288.999 85.048L288.855 83.368C288.727 81.992 288.311 80.936 287.607 80.2C286.935 79.464 286.087 79.096 285.062 79.096C284.039 79.096 283.191 79.464 282.519 80.2C281.879 80.936 281.559 81.912 281.559 83.128C281.559 84.856 281.927 86.328 282.663 87.544C283.431 88.76 284.407 89.368 285.591 89.368ZM314.925 67.48C316.301 67.48 317.373 67.896 318.141 68.728C318.941 69.528 319.341 70.568 319.341 71.848C319.341 74.376 318.317 75.64 316.269 75.64C315.437 75.64 314.781 75.432 314.301 75.016C313.853 74.568 313.581 74.088 313.485 73.576C313.389 73.064 313.197 72.6 312.909 72.184C312.621 71.736 312.189 71.512 311.613 71.512C310.749 71.512 310.109 72.024 309.693 73.048C309.277 74.072 309.069 75.32 309.069 76.792V86.392C309.069 86.968 309.261 87.48 309.645 87.928C310.061 88.344 310.461 88.712 310.845 89.032C311.261 89.352 311.469 89.672 311.469 89.992V90.184C311.469 90.728 311.117 91 310.413 91H301.533C300.797 91 300.429 90.728 300.429 90.184V89.992C300.429 89.672 300.733 89.176 301.341 88.504C301.981 87.832 302.301 87.128 302.301 86.392V75.16C302.301 74.392 301.933 73.704 301.197 73.096C300.461 72.488 300.093 72.024 300.093 71.704V71.512C300.093 71.064 300.429 70.68 301.101 70.36L306.861 67.672C307.885 67.192 308.397 67.512 308.397 68.632V72.232C309.485 69.064 311.661 67.48 314.925 67.48ZM330.271 91.48C328.031 91.48 326.255 90.776 324.943 89.368C323.663 87.928 323.023 85.864 323.023 83.176V70.744H320.767C320.127 70.744 319.807 70.424 319.807 69.784V68.968C319.807 68.296 320.127 67.96 320.767 67.96H321.967C323.279 67.96 324.383 67.528 325.279 66.664C326.207 65.8 326.799 64.648 327.055 63.208C327.215 62.44 327.583 62.056 328.159 62.056H329.119C329.823 62.056 330.175 62.44 330.175 63.208L330.223 67.96H335.743C335.999 67.96 336.223 68.056 336.415 68.248C336.607 68.44 336.703 68.68 336.703 68.968V69.784C336.703 70.072 336.607 70.312 336.415 70.504C336.223 70.664 335.999 70.744 335.743 70.744H330.223V83.272C330.223 84.2 330.447 84.952 330.895 85.528C331.375 86.072 331.967 86.344 332.671 86.344C334.335 86.344 335.423 85.624 335.935 84.184C336.223 83.768 336.575 83.608 336.991 83.704C337.439 83.768 337.663 84.024 337.663 84.472C337.663 86.328 336.991 87.96 335.647 89.368C334.335 90.776 332.543 91.48 330.271 91.48ZM349.504 91.432C346.496 91.432 344.032 90.888 342.112 89.8C340.192 88.712 339.232 87.4 339.232 85.864C339.232 85 339.488 84.344 340 83.896C340.544 83.448 341.248 83.224 342.112 83.224C343.04 83.224 343.792 83.56 344.368 84.232C344.944 84.872 345.344 85.592 345.568 86.392C345.824 87.192 346.272 87.928 346.912 88.6C347.584 89.24 348.448 89.56 349.504 89.56C350.528 89.56 351.36 89.288 352 88.744C352.672 88.2 353.008 87.416 353.008 86.392C353.008 85.24 352.544 84.328 351.616 83.656C350.72 82.984 349.616 82.488 348.304 82.168C346.992 81.816 345.68 81.432 344.368 81.016C343.056 80.568 341.936 79.816 341.008 78.76C340.112 77.672 339.664 76.264 339.664 74.536C339.664 72.488 340.56 70.808 342.352 69.496C344.176 68.152 346.528 67.48 349.408 67.48C352.32 67.48 354.688 68.056 356.512 69.208C358.368 70.328 359.296 71.672 359.296 73.24C359.296 73.944 359.024 74.536 358.48 75.016C357.968 75.496 357.328 75.736 356.56 75.736C355.664 75.736 354.944 75.416 354.4 74.776C353.856 74.104 353.472 73.384 353.248 72.616C353.024 71.816 352.624 71.096 352.048 70.456C351.472 69.784 350.72 69.448 349.792 69.448C348.864 69.448 348.112 69.768 347.536 70.408C346.96 71.016 346.672 71.768 346.672 72.664C346.672 73.56 346.912 74.312 347.392 74.92C347.872 75.528 348.496 75.992 349.264 76.312C350.032 76.632 350.88 76.936 351.808 77.224C352.736 77.48 353.664 77.784 354.592 78.136C355.552 78.456 356.416 78.856 357.184 79.336C357.952 79.816 358.576 80.504 359.056 81.4C359.536 82.264 359.776 83.32 359.776 84.568C359.776 86.552 358.848 88.2 356.992 89.512C355.136 90.792 352.64 91.432 349.504 91.432ZM367.097 91.48C365.817 91.48 364.761 91.144 363.929 90.472C363.097 89.768 362.681 88.776 362.681 87.496C362.681 86.216 363.097 85.24 363.929 84.568C364.761 83.864 365.817 83.512 367.097 83.512C368.345 83.512 369.385 83.864 370.217 84.568C371.049 85.24 371.465 86.216 371.465 87.496C371.465 88.776 371.049 89.768 370.217 90.472C369.385 91.144 368.345 91.48 367.097 91.48Z" fill="#163A24"/>
</svg>
