<svg width="369" height="46" viewBox="0 0 369 46" fill="none" xmlns="http://www.w3.org/2000/svg">
<path d="M5.094 7.4035L8.442 1.0855H10.188L5.904 8.9515V13.9375H4.284V9.0235L0 1.0855H1.764L5.094 7.4035ZM19.2168 9.0955C19.2168 10.6915 18.8088 11.9275 17.9928 12.8035C17.1888 13.6795 16.0968 14.1175 14.7168 14.1175C13.8648 14.1175 13.1028 13.9255 12.4308 13.5415C11.7708 13.1455 11.2488 12.5755 10.8648 11.8315C10.4808 11.0755 10.2888 10.1635 10.2888 9.0955C10.2888 7.4995 10.6908 6.2695 11.4948 5.4055C12.2988 4.5415 13.3908 4.1095 14.7708 4.1095C15.6468 4.1095 16.4148 4.3075 17.0748 4.7035C17.7468 5.0875 18.2688 5.6515 18.6408 6.3955C19.0248 7.1275 19.2168 8.0275 19.2168 9.0955ZM11.9268 9.0955C11.9268 10.2355 12.1488 11.1415 12.5928 11.8135C13.0488 12.4735 13.7688 12.8035 14.7528 12.8035C15.7248 12.8035 16.4388 12.4735 16.8948 11.8135C17.3508 11.1415 17.5788 10.2355 17.5788 9.0955C17.5788 7.9555 17.3508 7.0615 16.8948 6.4135C16.4388 5.7655 15.7188 5.4415 14.7348 5.4415C13.7508 5.4415 13.0368 5.7655 12.5928 6.4135C12.1488 7.0615 11.9268 7.9555 11.9268 9.0955ZM29.7913 4.2895V13.9375H28.4953L28.2613 12.6595H28.1893C27.8773 13.1635 27.4453 13.5355 26.8933 13.7755C26.3413 14.0035 25.7533 14.1175 25.1293 14.1175C23.9653 14.1175 23.0893 13.8415 22.5013 13.2895C21.9133 12.7255 21.6193 11.8315 21.6193 10.6075V4.2895H23.2213V10.4995C23.2213 12.0355 23.9353 12.8035 25.3633 12.8035C26.4313 12.8035 27.1693 12.5035 27.5773 11.9035C27.9973 11.3035 28.2073 10.4395 28.2073 9.3115V4.2895H29.7913ZM37.3542 4.1095C37.5342 4.1095 37.7262 4.1215 37.9302 4.1455C38.1462 4.1575 38.3322 4.1815 38.4882 4.2175L38.2902 5.6755C38.1342 5.6395 37.9602 5.6095 37.7682 5.5855C37.5882 5.5615 37.4142 5.5495 37.2462 5.5495C36.7542 5.5495 36.2922 5.6875 35.8602 5.9635C35.4282 6.2275 35.0802 6.6055 34.8162 7.0975C34.5642 7.5775 34.4382 8.1415 34.4382 8.7895V13.9375H32.8542V4.2895H34.1502L34.3302 6.0535H34.4022C34.7142 5.5255 35.1162 5.0695 35.6082 4.6855C36.1002 4.3015 36.6822 4.1095 37.3542 4.1095ZM48.6915 4.1095C49.5195 4.1095 50.2275 4.2895 50.8155 4.6495C51.4155 5.0095 51.8715 5.5195 52.1835 6.1795C52.5075 6.8275 52.6695 7.5895 52.6695 8.4655V9.4195H46.0635C46.0875 10.5115 46.3635 11.3455 46.8915 11.9215C47.4315 12.4855 48.1815 12.7675 49.1415 12.7675C49.7535 12.7675 50.2935 12.7135 50.7615 12.6055C51.2415 12.4855 51.7335 12.3175 52.2375 12.1015V13.4875C51.7455 13.7035 51.2595 13.8595 50.7795 13.9555C50.2995 14.0635 49.7295 14.1175 49.0695 14.1175C48.1575 14.1175 47.3475 13.9315 46.6395 13.5595C45.9435 13.1875 45.3975 12.6355 45.0015 11.9035C44.6175 11.1595 44.4255 10.2535 44.4255 9.1855C44.4255 8.1295 44.5995 7.2235 44.9475 6.4675C45.3075 5.7115 45.8055 5.1295 46.4415 4.7215C47.0895 4.3135 47.8395 4.1095 48.6915 4.1095ZM48.6735 5.4055C47.9175 5.4055 47.3175 5.6515 46.8735 6.1435C46.4415 6.6235 46.1835 7.2955 46.0995 8.1595H51.0135C51.0015 7.3435 50.8095 6.6835 50.4375 6.1795C50.0655 5.6635 49.4775 5.4055 48.6735 5.4055ZM65.7097 4.1095C66.8017 4.1095 67.6177 4.3915 68.1577 4.9555C68.6977 5.5075 68.9677 6.4075 68.9677 7.6555V13.9375H67.4017V7.7275C67.4017 6.2035 66.7477 5.4415 65.4397 5.4415C64.5037 5.4415 63.8317 5.7115 63.4237 6.2515C63.0277 6.7915 62.8297 7.5775 62.8297 8.6095V13.9375H61.2637V7.7275C61.2637 6.2035 60.6037 5.4415 59.2837 5.4415C58.3117 5.4415 57.6397 5.7415 57.2677 6.3415C56.8957 6.9415 56.7097 7.8055 56.7097 8.9335V13.9375H55.1257V4.2895H56.4037L56.6377 5.6035H56.7277C57.0277 5.0995 57.4297 4.7275 57.9337 4.4875C58.4497 4.2355 58.9957 4.1095 59.5717 4.1095C61.0837 4.1095 62.0677 4.6495 62.5237 5.7295H62.6137C62.9377 5.1775 63.3757 4.7695 63.9277 4.5055C64.4917 4.2415 65.0857 4.1095 65.7097 4.1095ZM76.538 4.1095C77.726 4.1095 78.68 4.5235 79.4 5.3515C80.132 6.1795 80.498 7.4275 80.498 9.0955C80.498 10.7395 80.132 11.9875 79.4 12.8395C78.68 13.6915 77.72 14.1175 76.52 14.1175C75.776 14.1175 75.158 13.9795 74.666 13.7035C74.186 13.4155 73.808 13.0855 73.532 12.7135H73.424C73.448 12.9175 73.472 13.1755 73.496 13.4875C73.52 13.7995 73.532 14.0695 73.532 14.2975V18.2575H71.948V4.2895H73.244L73.46 5.6035H73.532C73.82 5.1835 74.198 4.8295 74.666 4.5415C75.134 4.2535 75.758 4.1095 76.538 4.1095ZM76.25 5.4415C75.266 5.4415 74.57 5.7175 74.162 6.2695C73.766 6.8215 73.556 7.6615 73.532 8.7895V9.0955C73.532 10.2835 73.724 11.2015 74.108 11.8495C74.504 12.4855 75.23 12.8035 76.286 12.8035C76.874 12.8035 77.354 12.6415 77.726 12.3175C78.11 11.9935 78.392 11.5555 78.572 11.0035C78.764 10.4395 78.86 9.7975 78.86 9.0775C78.86 7.9735 78.644 7.0915 78.212 6.4315C77.792 5.7715 77.138 5.4415 76.25 5.4415ZM84.6062 13.9375H83.0222V0.257499H84.6062V13.9375ZM96.0508 9.0955C96.0508 10.6915 95.6428 11.9275 94.8268 12.8035C94.0228 13.6795 92.9308 14.1175 91.5508 14.1175C90.6988 14.1175 89.9368 13.9255 89.2648 13.5415C88.6048 13.1455 88.0828 12.5755 87.6988 11.8315C87.3148 11.0755 87.1228 10.1635 87.1228 9.0955C87.1228 7.4995 87.5248 6.2695 88.3288 5.4055C89.1328 4.5415 90.2248 4.1095 91.6048 4.1095C92.4808 4.1095 93.2488 4.3075 93.9088 4.7035C94.5808 5.0875 95.1028 5.6515 95.4748 6.3955C95.8588 7.1275 96.0508 8.0275 96.0508 9.0955ZM88.7608 9.0955C88.7608 10.2355 88.9828 11.1415 89.4268 11.8135C89.8828 12.4735 90.6028 12.8035 91.5868 12.8035C92.5588 12.8035 93.2728 12.4735 93.7288 11.8135C94.1848 11.1415 94.4128 10.2355 94.4128 9.0955C94.4128 7.9555 94.1848 7.0615 93.7288 6.4135C93.2728 5.7655 92.5528 5.4415 91.5688 5.4415C90.5848 5.4415 89.8708 5.7655 89.4268 6.4135C88.9828 7.0615 88.7608 7.9555 88.7608 9.0955ZM96.6977 4.2895H98.3897L100.478 9.7795C100.658 10.2595 100.82 10.7215 100.964 11.1655C101.108 11.5975 101.216 12.0115 101.288 12.4075H101.36C101.432 12.1075 101.546 11.7175 101.702 11.2375C101.858 10.7455 102.02 10.2535 102.188 9.7615L104.15 4.2895H105.86L101.702 15.2695C101.366 16.1815 100.928 16.9075 100.388 17.4475C99.8597 17.9875 99.1277 18.2575 98.1917 18.2575C97.9037 18.2575 97.6517 18.2395 97.4357 18.2035C97.2197 18.1795 97.0337 18.1495 96.8777 18.1135V16.8535C97.0097 16.8775 97.1657 16.9015 97.3457 16.9255C97.5377 16.9495 97.7357 16.9615 97.9397 16.9615C98.4917 16.9615 98.9357 16.8055 99.2717 16.4935C99.6197 16.1815 99.8897 15.7675 100.082 15.2515L100.586 13.9735L96.6977 4.2895ZM111.111 4.1095C111.939 4.1095 112.647 4.2895 113.235 4.6495C113.835 5.0095 114.291 5.5195 114.603 6.1795C114.927 6.8275 115.089 7.5895 115.089 8.4655V9.4195H108.483C108.507 10.5115 108.783 11.3455 109.311 11.9215C109.851 12.4855 110.601 12.7675 111.561 12.7675C112.173 12.7675 112.713 12.7135 113.181 12.6055C113.661 12.4855 114.153 12.3175 114.657 12.1015V13.4875C114.165 13.7035 113.679 13.8595 113.199 13.9555C112.719 14.0635 112.149 14.1175 111.489 14.1175C110.577 14.1175 109.767 13.9315 109.059 13.5595C108.363 13.1875 107.817 12.6355 107.421 11.9035C107.037 11.1595 106.845 10.2535 106.845 9.1855C106.845 8.1295 107.019 7.2235 107.367 6.4675C107.727 5.7115 108.225 5.1295 108.861 4.7215C109.509 4.3135 110.259 4.1095 111.111 4.1095ZM111.093 5.4055C110.337 5.4055 109.737 5.6515 109.293 6.1435C108.861 6.6235 108.603 7.2955 108.519 8.1595H113.433C113.421 7.3435 113.229 6.6835 112.857 6.1795C112.485 5.6635 111.897 5.4055 111.093 5.4055ZM121.272 4.1095C122.1 4.1095 122.808 4.2895 123.396 4.6495C123.996 5.0095 124.452 5.5195 124.764 6.1795C125.088 6.8275 125.25 7.5895 125.25 8.4655V9.4195H118.644C118.668 10.5115 118.944 11.3455 119.472 11.9215C120.012 12.4855 120.762 12.7675 121.722 12.7675C122.334 12.7675 122.874 12.7135 123.342 12.6055C123.822 12.4855 124.314 12.3175 124.818 12.1015V13.4875C124.326 13.7035 123.84 13.8595 123.36 13.9555C122.88 14.0635 122.31 14.1175 121.65 14.1175C120.738 14.1175 119.928 13.9315 119.22 13.5595C118.524 13.1875 117.978 12.6355 117.582 11.9035C117.198 11.1595 117.006 10.2535 117.006 9.1855C117.006 8.1295 117.18 7.2235 117.528 6.4675C117.888 5.7115 118.386 5.1295 119.022 4.7215C119.67 4.3135 120.42 4.1095 121.272 4.1095ZM121.254 5.4055C120.498 5.4055 119.898 5.6515 119.454 6.1435C119.022 6.6235 118.764 7.2955 118.68 8.1595H123.594C123.582 7.3435 123.39 6.6835 123.018 6.1795C122.646 5.6635 122.058 5.4055 121.254 5.4055ZM133.988 11.2735C133.988 12.2095 133.64 12.9175 132.944 13.3975C132.248 13.8775 131.312 14.1175 130.136 14.1175C129.464 14.1175 128.882 14.0635 128.39 13.9555C127.91 13.8475 127.484 13.6975 127.112 13.5055V12.0655C127.496 12.2575 127.958 12.4375 128.498 12.6055C129.05 12.7615 129.608 12.8395 130.172 12.8395C130.976 12.8395 131.558 12.7135 131.918 12.4615C132.278 12.1975 132.458 11.8495 132.458 11.4175C132.458 11.1775 132.392 10.9615 132.26 10.7695C132.128 10.5775 131.888 10.3855 131.54 10.1935C131.204 10.0015 130.718 9.7855 130.082 9.5455C129.458 9.3055 128.924 9.0655 128.48 8.8255C128.036 8.5855 127.694 8.2975 127.454 7.9615C127.214 7.6255 127.094 7.1935 127.094 6.6655C127.094 5.8495 127.424 5.2195 128.084 4.7755C128.756 4.3315 129.632 4.1095 130.712 4.1095C131.3 4.1095 131.846 4.1695 132.35 4.2895C132.866 4.3975 133.346 4.5535 133.79 4.7575L133.25 6.0175C132.842 5.8495 132.416 5.7055 131.972 5.5855C131.528 5.4655 131.072 5.4055 130.604 5.4055C129.956 5.4055 129.458 5.5135 129.11 5.7295C128.774 5.9335 128.606 6.2155 128.606 6.5755C128.606 6.8395 128.684 7.0675 128.84 7.2595C128.996 7.4395 129.254 7.6195 129.614 7.7995C129.986 7.9675 130.478 8.1715 131.09 8.4115C131.702 8.6395 132.224 8.8735 132.656 9.1135C133.088 9.3535 133.418 9.6475 133.646 9.9955C133.874 10.3315 133.988 10.7575 133.988 11.2735ZM144.649 4.1275C145.825 4.1275 146.695 4.3855 147.259 4.9015C147.823 5.4175 148.105 6.2395 148.105 7.3675V13.9375H146.953L146.647 12.5695H146.575C146.155 13.0975 145.711 13.4875 145.243 13.7395C144.787 13.9915 144.151 14.1175 143.335 14.1175C142.459 14.1175 141.733 13.8895 141.157 13.4335C140.581 12.9655 140.293 12.2395 140.293 11.2555C140.293 10.2955 140.671 9.5575 141.427 9.0415C142.183 8.5135 143.347 8.2255 144.919 8.1775L146.557 8.1235V7.5475C146.557 6.7435 146.383 6.1855 146.035 5.8735C145.687 5.5615 145.195 5.4055 144.559 5.4055C144.055 5.4055 143.575 5.4835 143.119 5.6395C142.663 5.7835 142.237 5.9515 141.841 6.1435L141.355 4.9555C141.775 4.7275 142.273 4.5355 142.849 4.3795C143.425 4.2115 144.025 4.1275 144.649 4.1275ZM145.117 9.2755C143.917 9.3235 143.083 9.5155 142.615 9.8515C142.159 10.1875 141.931 10.6615 141.931 11.2735C141.931 11.8135 142.093 12.2095 142.417 12.4615C142.753 12.7135 143.179 12.8395 143.695 12.8395C144.511 12.8395 145.189 12.6175 145.729 12.1735C146.269 11.7175 146.539 11.0215 146.539 10.0855V9.2215L145.117 9.2755ZM155.585 4.1095C155.765 4.1095 155.957 4.1215 156.161 4.1455C156.377 4.1575 156.563 4.1815 156.719 4.2175L156.521 5.6755C156.365 5.6395 156.191 5.6095 155.999 5.5855C155.819 5.5615 155.645 5.5495 155.477 5.5495C154.985 5.5495 154.523 5.6875 154.091 5.9635C153.659 6.2275 153.311 6.6055 153.047 7.0975C152.795 7.5775 152.669 8.1415 152.669 8.7895V13.9375H151.085V4.2895H152.381L152.561 6.0535H152.633C152.945 5.5255 153.347 5.0695 153.839 4.6855C154.331 4.3015 154.913 4.1095 155.585 4.1095ZM161.895 4.1095C162.723 4.1095 163.431 4.2895 164.019 4.6495C164.619 5.0095 165.075 5.5195 165.387 6.1795C165.711 6.8275 165.873 7.5895 165.873 8.4655V9.4195H159.267C159.291 10.5115 159.567 11.3455 160.095 11.9215C160.635 12.4855 161.385 12.7675 162.345 12.7675C162.957 12.7675 163.497 12.7135 163.965 12.6055C164.445 12.4855 164.937 12.3175 165.441 12.1015V13.4875C164.949 13.7035 164.463 13.8595 163.983 13.9555C163.503 14.0635 162.933 14.1175 162.273 14.1175C161.361 14.1175 160.551 13.9315 159.843 13.5595C159.147 13.1875 158.601 12.6355 158.205 11.9035C157.821 11.1595 157.629 10.2535 157.629 9.1855C157.629 8.1295 157.803 7.2235 158.151 6.4675C158.511 5.7115 159.009 5.1295 159.645 4.7215C160.293 4.3135 161.043 4.1095 161.895 4.1095ZM161.877 5.4055C161.121 5.4055 160.521 5.6515 160.077 6.1435C159.645 6.6235 159.387 7.2955 159.303 8.1595H164.217C164.205 7.3435 164.013 6.6835 163.641 6.1795C163.269 5.6635 162.681 5.4055 161.877 5.4055ZM176.227 12.8215C176.467 12.8215 176.713 12.8035 176.965 12.7675C177.217 12.7195 177.421 12.6715 177.577 12.6235V13.8295C177.409 13.9135 177.169 13.9795 176.857 14.0275C176.545 14.0875 176.245 14.1175 175.957 14.1175C175.453 14.1175 174.985 14.0335 174.553 13.8655C174.133 13.6855 173.791 13.3795 173.527 12.9475C173.263 12.5155 173.131 11.9095 173.131 11.1295V5.5135H171.763V4.7575L173.149 4.1275L173.779 2.0755H174.715V4.2895H177.505V5.5135H174.715V11.0935C174.715 11.6815 174.853 12.1195 175.129 12.4075C175.417 12.6835 175.783 12.8215 176.227 12.8215ZM181.093 4.2715C181.093 4.7515 181.063 5.2015 181.003 5.6215H181.111C181.423 5.1295 181.843 4.7575 182.371 4.5055C182.911 4.2535 183.493 4.1275 184.117 4.1275C185.293 4.1275 186.175 4.4095 186.763 4.9735C187.351 5.5255 187.645 6.4195 187.645 7.6555V13.9375H186.079V7.7635C186.079 6.2155 185.359 5.4415 183.919 5.4415C182.839 5.4415 182.095 5.7475 181.687 6.3595C181.291 6.9595 181.093 7.8235 181.093 8.9515V13.9375H179.509V0.257499H181.093V4.2715ZM194.361 4.1095C195.189 4.1095 195.897 4.2895 196.485 4.6495C197.085 5.0095 197.541 5.5195 197.853 6.1795C198.177 6.8275 198.339 7.5895 198.339 8.4655V9.4195H191.733C191.757 10.5115 192.033 11.3455 192.561 11.9215C193.101 12.4855 193.851 12.7675 194.811 12.7675C195.423 12.7675 195.963 12.7135 196.431 12.6055C196.911 12.4855 197.403 12.3175 197.907 12.1015V13.4875C197.415 13.7035 196.929 13.8595 196.449 13.9555C195.969 14.0635 195.399 14.1175 194.739 14.1175C193.827 14.1175 193.017 13.9315 192.309 13.5595C191.613 13.1875 191.067 12.6355 190.671 11.9035C190.287 11.1595 190.095 10.2535 190.095 9.1855C190.095 8.1295 190.269 7.2235 190.617 6.4675C190.977 5.7115 191.475 5.1295 192.111 4.7215C192.759 4.3135 193.509 4.1095 194.361 4.1095ZM194.343 5.4055C193.587 5.4055 192.987 5.6515 192.543 6.1435C192.111 6.6235 191.853 7.2955 191.769 8.1595H196.683C196.671 7.3435 196.479 6.6835 196.107 6.1795C195.735 5.6635 195.147 5.4055 194.343 5.4055ZM209.971 4.1095C210.151 4.1095 210.343 4.1215 210.547 4.1455C210.763 4.1575 210.949 4.1815 211.105 4.2175L210.907 5.6755C210.751 5.6395 210.577 5.6095 210.385 5.5855C210.205 5.5615 210.031 5.5495 209.863 5.5495C209.371 5.5495 208.909 5.6875 208.477 5.9635C208.045 6.2275 207.697 6.6055 207.433 7.0975C207.181 7.5775 207.055 8.1415 207.055 8.7895V13.9375H205.471V4.2895H206.767L206.947 6.0535H207.019C207.331 5.5255 207.733 5.0695 208.225 4.6855C208.717 4.3015 209.299 4.1095 209.971 4.1095ZM216.281 4.1095C217.109 4.1095 217.817 4.2895 218.405 4.6495C219.005 5.0095 219.461 5.5195 219.773 6.1795C220.097 6.8275 220.259 7.5895 220.259 8.4655V9.4195H213.653C213.677 10.5115 213.953 11.3455 214.481 11.9215C215.021 12.4855 215.771 12.7675 216.731 12.7675C217.343 12.7675 217.883 12.7135 218.351 12.6055C218.831 12.4855 219.323 12.3175 219.827 12.1015V13.4875C219.335 13.7035 218.849 13.8595 218.369 13.9555C217.889 14.0635 217.319 14.1175 216.659 14.1175C215.747 14.1175 214.937 13.9315 214.229 13.5595C213.533 13.1875 212.987 12.6355 212.591 11.9035C212.207 11.1595 212.015 10.2535 212.015 9.1855C212.015 8.1295 212.189 7.2235 212.537 6.4675C212.897 5.7115 213.395 5.1295 214.031 4.7215C214.679 4.3135 215.429 4.1095 216.281 4.1095ZM216.263 5.4055C215.507 5.4055 214.907 5.6515 214.463 6.1435C214.031 6.6235 213.773 7.2955 213.689 8.1595H218.603C218.591 7.3435 218.399 6.6835 218.027 6.1795C217.655 5.6635 217.067 5.4055 216.263 5.4055ZM226.37 4.1275C227.546 4.1275 228.416 4.3855 228.98 4.9015C229.544 5.4175 229.826 6.2395 229.826 7.3675V13.9375H228.674L228.368 12.5695H228.296C227.876 13.0975 227.432 13.4875 226.964 13.7395C226.508 13.9915 225.872 14.1175 225.056 14.1175C224.18 14.1175 223.454 13.8895 222.878 13.4335C222.302 12.9655 222.014 12.2395 222.014 11.2555C222.014 10.2955 222.392 9.5575 223.148 9.0415C223.904 8.5135 225.068 8.2255 226.64 8.1775L228.278 8.1235V7.5475C228.278 6.7435 228.104 6.1855 227.756 5.8735C227.408 5.5615 226.916 5.4055 226.28 5.4055C225.776 5.4055 225.296 5.4835 224.84 5.6395C224.384 5.7835 223.958 5.9515 223.562 6.1435L223.076 4.9555C223.496 4.7275 223.994 4.5355 224.57 4.3795C225.146 4.2115 225.746 4.1275 226.37 4.1275ZM226.838 9.2755C225.638 9.3235 224.804 9.5155 224.336 9.8515C223.88 10.1875 223.652 10.6615 223.652 11.2735C223.652 11.8135 223.814 12.2095 224.138 12.4615C224.474 12.7135 224.9 12.8395 225.416 12.8395C226.232 12.8395 226.91 12.6175 227.45 12.1735C227.99 11.7175 228.26 11.0215 228.26 10.0855V9.2215L226.838 9.2755ZM234.389 13.9375H232.805V0.257499H234.389V13.9375ZM248.404 11.2735C248.404 12.2095 248.056 12.9175 247.36 13.3975C246.664 13.8775 245.728 14.1175 244.552 14.1175C243.88 14.1175 243.298 14.0635 242.806 13.9555C242.326 13.8475 241.9 13.6975 241.528 13.5055V12.0655C241.912 12.2575 242.374 12.4375 242.914 12.6055C243.466 12.7615 244.024 12.8395 244.588 12.8395C245.392 12.8395 245.974 12.7135 246.334 12.4615C246.694 12.1975 246.874 11.8495 246.874 11.4175C246.874 11.1775 246.808 10.9615 246.676 10.7695C246.544 10.5775 246.304 10.3855 245.956 10.1935C245.62 10.0015 245.134 9.7855 244.498 9.5455C243.874 9.3055 243.34 9.0655 242.896 8.8255C242.452 8.5855 242.11 8.2975 241.87 7.9615C241.63 7.6255 241.51 7.1935 241.51 6.6655C241.51 5.8495 241.84 5.2195 242.5 4.7755C243.172 4.3315 244.048 4.1095 245.128 4.1095C245.716 4.1095 246.262 4.1695 246.766 4.2895C247.282 4.3975 247.762 4.5535 248.206 4.7575L247.666 6.0175C247.258 5.8495 246.832 5.7055 246.388 5.5855C245.944 5.4655 245.488 5.4055 245.02 5.4055C244.372 5.4055 243.874 5.5135 243.526 5.7295C243.19 5.9335 243.022 6.2155 243.022 6.5755C243.022 6.8395 243.1 7.0675 243.256 7.2595C243.412 7.4395 243.67 7.6195 244.03 7.7995C244.402 7.9675 244.894 8.1715 245.506 8.4115C246.118 8.6395 246.64 8.8735 247.072 9.1135C247.504 9.3535 247.834 9.6475 248.062 9.9955C248.29 10.3315 248.404 10.7575 248.404 11.2735ZM253.957 12.8215C254.197 12.8215 254.443 12.8035 254.695 12.7675C254.947 12.7195 255.151 12.6715 255.307 12.6235V13.8295C255.139 13.9135 254.899 13.9795 254.587 14.0275C254.275 14.0875 253.975 14.1175 253.687 14.1175C253.183 14.1175 252.715 14.0335 252.283 13.8655C251.863 13.6855 251.521 13.3795 251.257 12.9475C250.993 12.5155 250.861 11.9095 250.861 11.1295V5.5135H249.493V4.7575L250.879 4.1275L251.509 2.0755H252.445V4.2895H255.235V5.5135H252.445V11.0935C252.445 11.6815 252.583 12.1195 252.859 12.4075C253.147 12.6835 253.513 12.8215 253.957 12.8215ZM260.893 4.1275C262.069 4.1275 262.939 4.3855 263.503 4.9015C264.067 5.4175 264.349 6.2395 264.349 7.3675V13.9375H263.197L262.891 12.5695H262.819C262.399 13.0975 261.955 13.4875 261.487 13.7395C261.031 13.9915 260.395 14.1175 259.579 14.1175C258.703 14.1175 257.977 13.8895 257.401 13.4335C256.825 12.9655 256.537 12.2395 256.537 11.2555C256.537 10.2955 256.915 9.5575 257.671 9.0415C258.427 8.5135 259.591 8.2255 261.163 8.1775L262.801 8.1235V7.5475C262.801 6.7435 262.627 6.1855 262.279 5.8735C261.931 5.5615 261.439 5.4055 260.803 5.4055C260.299 5.4055 259.819 5.4835 259.363 5.6395C258.907 5.7835 258.481 5.9515 258.085 6.1435L257.599 4.9555C258.019 4.7275 258.517 4.5355 259.093 4.3795C259.669 4.2115 260.269 4.1275 260.893 4.1275ZM261.361 9.2755C260.161 9.3235 259.327 9.5155 258.859 9.8515C258.403 10.1875 258.175 10.6615 258.175 11.2735C258.175 11.8135 258.337 12.2095 258.661 12.4615C258.997 12.7135 259.423 12.8395 259.939 12.8395C260.755 12.8395 261.433 12.6175 261.973 12.1735C262.513 11.7175 262.783 11.0215 262.783 10.0855V9.2215L261.361 9.2755ZM271.829 4.1095C272.009 4.1095 272.201 4.1215 272.405 4.1455C272.621 4.1575 272.807 4.1815 272.963 4.2175L272.765 5.6755C272.609 5.6395 272.435 5.6095 272.243 5.5855C272.063 5.5615 271.889 5.5495 271.721 5.5495C271.229 5.5495 270.767 5.6875 270.335 5.9635C269.903 6.2275 269.555 6.6055 269.291 7.0975C269.039 7.5775 268.913 8.1415 268.913 8.7895V13.9375H267.329V4.2895H268.625L268.805 6.0535H268.877C269.189 5.5255 269.591 5.0695 270.083 4.6855C270.575 4.3015 271.157 4.1095 271.829 4.1095ZM281.046 11.2735C281.046 12.2095 280.698 12.9175 280.002 13.3975C279.306 13.8775 278.37 14.1175 277.194 14.1175C276.522 14.1175 275.94 14.0635 275.448 13.9555C274.968 13.8475 274.542 13.6975 274.17 13.5055V12.0655C274.554 12.2575 275.016 12.4375 275.556 12.6055C276.108 12.7615 276.666 12.8395 277.23 12.8395C278.034 12.8395 278.616 12.7135 278.976 12.4615C279.336 12.1975 279.516 11.8495 279.516 11.4175C279.516 11.1775 279.45 10.9615 279.318 10.7695C279.186 10.5775 278.946 10.3855 278.598 10.1935C278.262 10.0015 277.776 9.7855 277.14 9.5455C276.516 9.3055 275.982 9.0655 275.538 8.8255C275.094 8.5855 274.752 8.2975 274.512 7.9615C274.272 7.6255 274.152 7.1935 274.152 6.6655C274.152 5.8495 274.482 5.2195 275.142 4.7755C275.814 4.3315 276.69 4.1095 277.77 4.1095C278.358 4.1095 278.904 4.1695 279.408 4.2895C279.924 4.3975 280.404 4.5535 280.848 4.7575L280.308 6.0175C279.9 5.8495 279.474 5.7055 279.03 5.5855C278.586 5.4655 278.13 5.4055 277.662 5.4055C277.014 5.4055 276.516 5.5135 276.168 5.7295C275.832 5.9335 275.664 6.2155 275.664 6.5755C275.664 6.8395 275.742 7.0675 275.898 7.2595C276.054 7.4395 276.312 7.6195 276.672 7.7995C277.044 7.9675 277.536 8.1715 278.148 8.4115C278.76 8.6395 279.282 8.8735 279.714 9.1135C280.146 9.3535 280.476 9.6475 280.704 9.9955C280.932 10.3315 281.046 10.7575 281.046 11.2735ZM283.144 12.9655C283.144 12.5215 283.252 12.2095 283.468 12.0295C283.684 11.8495 283.942 11.7595 284.242 11.7595C284.554 11.7595 284.818 11.8495 285.034 12.0295C285.262 12.2095 285.376 12.5215 285.376 12.9655C285.376 13.3975 285.262 13.7095 285.034 13.9015C284.818 14.0935 284.554 14.1895 284.242 14.1895C283.942 14.1895 283.684 14.0935 283.468 13.9015C283.252 13.7095 283.144 13.3975 283.144 12.9655ZM300.376 10.4995C300.376 11.6395 299.962 12.5275 299.134 13.1635C298.306 13.7995 297.19 14.1175 295.786 14.1175C295.066 14.1175 294.4 14.0635 293.788 13.9555C293.176 13.8475 292.666 13.6975 292.258 13.5055V11.9575C292.69 12.1495 293.224 12.3235 293.86 12.4795C294.508 12.6355 295.174 12.7135 295.858 12.7135C296.818 12.7135 297.538 12.5275 298.018 12.1555C298.51 11.7835 298.756 11.2795 298.756 10.6435C298.756 10.2235 298.666 9.8695 298.486 9.5815C298.306 9.2935 297.994 9.0295 297.55 8.7895C297.118 8.5375 296.512 8.2735 295.732 7.9975C294.64 7.6015 293.812 7.1155 293.248 6.5395C292.696 5.9635 292.42 5.1775 292.42 4.1815C292.42 3.4975 292.594 2.9155 292.942 2.4355C293.29 1.9435 293.77 1.5655 294.382 1.3015C295.006 1.0375 295.72 0.905499 296.524 0.905499C297.232 0.905499 297.88 0.971499 298.468 1.1035C299.056 1.2355 299.59 1.4095 300.07 1.6255L299.566 3.0115C299.122 2.8195 298.636 2.6575 298.108 2.5255C297.592 2.3935 297.052 2.3275 296.488 2.3275C295.684 2.3275 295.078 2.5015 294.67 2.8495C294.262 3.1855 294.058 3.6355 294.058 4.1995C294.058 4.6315 294.148 4.9915 294.328 5.2795C294.508 5.5675 294.802 5.8255 295.21 6.0535C295.618 6.2815 296.17 6.5275 296.866 6.7915C297.622 7.0675 298.258 7.3675 298.774 7.6915C299.302 8.0035 299.698 8.3815 299.962 8.8255C300.238 9.2695 300.376 9.8275 300.376 10.4995ZM304.333 4.2715C304.333 4.7515 304.303 5.2015 304.243 5.6215H304.351C304.663 5.1295 305.083 4.7575 305.611 4.5055C306.151 4.2535 306.733 4.1275 307.357 4.1275C308.533 4.1275 309.415 4.4095 310.003 4.9735C310.591 5.5255 310.885 6.4195 310.885 7.6555V13.9375H309.319V7.7635C309.319 6.2155 308.599 5.4415 307.159 5.4415C306.079 5.4415 305.335 5.7475 304.927 6.3595C304.531 6.9595 304.333 7.8235 304.333 8.9515V13.9375H302.749V0.257499H304.333V4.2715ZM322.264 9.0955C322.264 10.6915 321.856 11.9275 321.04 12.8035C320.236 13.6795 319.144 14.1175 317.764 14.1175C316.912 14.1175 316.15 13.9255 315.478 13.5415C314.818 13.1455 314.296 12.5755 313.912 11.8315C313.528 11.0755 313.336 10.1635 313.336 9.0955C313.336 7.4995 313.738 6.2695 314.542 5.4055C315.346 4.5415 316.438 4.1095 317.818 4.1095C318.694 4.1095 319.462 4.3075 320.122 4.7035C320.794 5.0875 321.316 5.6515 321.688 6.3955C322.072 7.1275 322.264 8.0275 322.264 9.0955ZM314.974 9.0955C314.974 10.2355 315.196 11.1415 315.64 11.8135C316.096 12.4735 316.816 12.8035 317.8 12.8035C318.772 12.8035 319.486 12.4735 319.942 11.8135C320.398 11.1415 320.626 10.2355 320.626 9.0955C320.626 7.9555 320.398 7.0615 319.942 6.4135C319.486 5.7655 318.766 5.4415 317.782 5.4415C316.798 5.4415 316.084 5.7655 315.64 6.4135C315.196 7.0615 314.974 7.9555 314.974 9.0955ZM330.651 8.4835C330.495 7.9915 330.357 7.5115 330.237 7.0435C330.129 6.5635 330.045 6.1915 329.985 5.9275H329.913C329.865 6.1915 329.787 6.5635 329.679 7.0435C329.571 7.5115 329.433 7.9975 329.265 8.5015L327.537 13.9195H325.737L323.091 4.2715H324.729L326.061 9.4195C326.193 9.9355 326.319 10.4575 326.439 10.9855C326.559 11.5135 326.643 11.9515 326.691 12.2995H326.763C326.811 12.0955 326.865 11.8435 326.925 11.5435C326.997 11.2435 327.075 10.9315 327.159 10.6075C327.243 10.2715 327.327 9.9715 327.411 9.7075L329.121 4.2715H330.849L332.505 9.7075C332.637 10.1155 332.763 10.5595 332.883 11.0395C333.015 11.5195 333.105 11.9335 333.153 12.2815H333.225C333.261 11.9815 333.339 11.5675 333.459 11.0395C333.591 10.5115 333.729 9.9715 333.873 9.4195L335.223 4.2715H336.843L334.161 13.9195H332.307L330.651 8.4835ZM346.471 12.8215C346.711 12.8215 346.957 12.8035 347.209 12.7675C347.461 12.7195 347.665 12.6715 347.821 12.6235V13.8295C347.653 13.9135 347.413 13.9795 347.101 14.0275C346.789 14.0875 346.489 14.1175 346.201 14.1175C345.697 14.1175 345.229 14.0335 344.797 13.8655C344.377 13.6855 344.035 13.3795 343.771 12.9475C343.507 12.5155 343.375 11.9095 343.375 11.1295V5.5135H342.007V4.7575L343.393 4.1275L344.023 2.0755H344.959V4.2895H347.749V5.5135H344.959V11.0935C344.959 11.6815 345.097 12.1195 345.373 12.4075C345.661 12.6835 346.027 12.8215 346.471 12.8215ZM351.337 4.2715C351.337 4.7515 351.307 5.2015 351.247 5.6215H351.355C351.667 5.1295 352.087 4.7575 352.615 4.5055C353.155 4.2535 353.737 4.1275 354.361 4.1275C355.537 4.1275 356.419 4.4095 357.007 4.9735C357.595 5.5255 357.889 6.4195 357.889 7.6555V13.9375H356.323V7.7635C356.323 6.2155 355.603 5.4415 354.163 5.4415C353.083 5.4415 352.339 5.7475 351.931 6.3595C351.535 6.9595 351.337 7.8235 351.337 8.9515V13.9375H349.753V0.257499H351.337V4.2715ZM364.606 4.1095C365.434 4.1095 366.142 4.2895 366.73 4.6495C367.33 5.0095 367.786 5.5195 368.098 6.1795C368.422 6.8275 368.584 7.5895 368.584 8.4655V9.4195H361.978C362.002 10.5115 362.278 11.3455 362.806 11.9215C363.346 12.4855 364.096 12.7675 365.056 12.7675C365.668 12.7675 366.208 12.7135 366.676 12.6055C367.156 12.4855 367.648 12.3175 368.152 12.1015V13.4875C367.66 13.7035 367.174 13.8595 366.694 13.9555C366.214 14.0635 365.644 14.1175 364.984 14.1175C364.072 14.1175 363.262 13.9315 362.554 13.5595C361.858 13.1875 361.312 12.6355 360.916 11.9035C360.532 11.1595 360.34 10.2535 360.34 9.1855C360.34 8.1295 360.514 7.2235 360.862 6.4675C361.222 5.7115 361.72 5.1295 362.356 4.7215C363.004 4.3135 363.754 4.1095 364.606 4.1095ZM364.588 5.4055C363.832 5.4055 363.232 5.6515 362.788 6.1435C362.356 6.6235 362.098 7.2955 362.014 8.1595H366.928C366.916 7.3435 366.724 6.6835 366.352 6.1795C365.98 5.6635 365.392 5.4055 364.588 5.4055ZM3.114 40.9375H1.53V27.2575H3.114V40.9375ZM14.5586 36.0955C14.5586 37.6915 14.1506 38.9275 13.3346 39.8035C12.5306 40.6795 11.4386 41.1175 10.0586 41.1175C9.20663 41.1175 8.44463 40.9255 7.77263 40.5415C7.11263 40.1455 6.59063 39.5755 6.20663 38.8315C5.82263 38.0755 5.63063 37.1635 5.63063 36.0955C5.63063 34.4995 6.03263 33.2695 6.83663 32.4055C7.64063 31.5415 8.73263 31.1095 10.1126 31.1095C10.9886 31.1095 11.7566 31.3075 12.4166 31.7035C13.0886 32.0875 13.6106 32.6515 13.9826 33.3955C14.3666 34.1275 14.5586 35.0275 14.5586 36.0955ZM7.26863 36.0955C7.26863 37.2355 7.49063 38.1415 7.93463 38.8135C8.39063 39.4735 9.11063 39.8035 10.0946 39.8035C11.0666 39.8035 11.7806 39.4735 12.2366 38.8135C12.6926 38.1415 12.9206 37.2355 12.9206 36.0955C12.9206 34.9555 12.6926 34.0615 12.2366 33.4135C11.7806 32.7655 11.0606 32.4415 10.0766 32.4415C9.09263 32.4415 8.37863 32.7655 7.93463 33.4135C7.49063 34.0615 7.26863 34.9555 7.26863 36.0955ZM18.8415 40.9375L15.1875 31.2895H16.8795L18.9315 36.9775C19.0275 37.2415 19.1295 37.5355 19.2375 37.8595C19.3455 38.1835 19.4415 38.4955 19.5255 38.7955C19.6095 39.0835 19.6695 39.3295 19.7055 39.5335H19.7775C19.8255 39.3295 19.8915 39.0775 19.9755 38.7775C20.0715 38.4775 20.1735 38.1655 20.2815 37.8415C20.4015 37.5175 20.5035 37.2295 20.5875 36.9775L22.6395 31.2895H24.3315L20.6595 40.9375H18.8415ZM29.5841 31.1095C30.4121 31.1095 31.1201 31.2895 31.7081 31.6495C32.3081 32.0095 32.7641 32.5195 33.0761 33.1795C33.4001 33.8275 33.5621 34.5895 33.5621 35.4655V36.4195H26.9561C26.9801 37.5115 27.2561 38.3455 27.7841 38.9215C28.3241 39.4855 29.0741 39.7675 30.0341 39.7675C30.6461 39.7675 31.1861 39.7135 31.6541 39.6055C32.1341 39.4855 32.6261 39.3175 33.1301 39.1015V40.4875C32.6381 40.7035 32.1521 40.8595 31.6721 40.9555C31.1921 41.0635 30.6221 41.1175 29.9621 41.1175C29.0501 41.1175 28.2401 40.9315 27.5321 40.5595C26.8361 40.1875 26.2901 39.6355 25.8941 38.9035C25.5101 38.1595 25.3181 37.2535 25.3181 36.1855C25.3181 35.1295 25.4921 34.2235 25.8401 33.4675C26.2001 32.7115 26.6981 32.1295 27.3341 31.7215C27.9821 31.3135 28.7321 31.1095 29.5841 31.1095ZM29.5661 32.4055C28.8101 32.4055 28.2101 32.6515 27.7661 33.1435C27.3341 33.6235 27.0761 34.2955 26.9921 35.1595H31.9061C31.8941 34.3435 31.7021 33.6835 31.3301 33.1795C30.9581 32.6635 30.3701 32.4055 29.5661 32.4055ZM44.3481 31.1275C45.5241 31.1275 46.3941 31.3855 46.9581 31.9015C47.5221 32.4175 47.8041 33.2395 47.8041 34.3675V40.9375H46.6521L46.3461 39.5695H46.2741C45.8541 40.0975 45.4101 40.4875 44.9421 40.7395C44.4861 40.9915 43.8501 41.1175 43.0341 41.1175C42.1581 41.1175 41.4321 40.8895 40.8561 40.4335C40.2801 39.9655 39.9921 39.2395 39.9921 38.2555C39.9921 37.2955 40.3701 36.5575 41.1261 36.0415C41.8821 35.5135 43.0461 35.2255 44.6181 35.1775L46.2561 35.1235V34.5475C46.2561 33.7435 46.0821 33.1855 45.7341 32.8735C45.3861 32.5615 44.8941 32.4055 44.2581 32.4055C43.7541 32.4055 43.2741 32.4835 42.8181 32.6395C42.3621 32.7835 41.9361 32.9515 41.5401 33.1435L41.0541 31.9555C41.4741 31.7275 41.9721 31.5355 42.5481 31.3795C43.1241 31.2115 43.7241 31.1275 44.3481 31.1275ZM44.8161 36.2755C43.6161 36.3235 42.7821 36.5155 42.3141 36.8515C41.8581 37.1875 41.6301 37.6615 41.6301 38.2735C41.6301 38.8135 41.7921 39.2095 42.1161 39.4615C42.4521 39.7135 42.8781 39.8395 43.3941 39.8395C44.2101 39.8395 44.8881 39.6175 45.4281 39.1735C45.9681 38.7175 46.2381 38.0215 46.2381 37.0855V36.2215L44.8161 36.2755ZM55.4279 31.1095C56.5799 31.1095 57.4499 31.3915 58.0379 31.9555C58.6259 32.5075 58.9199 33.4075 58.9199 34.6555V40.9375H57.3539V34.7635C57.3539 33.2155 56.6339 32.4415 55.1939 32.4415C54.1259 32.4415 53.3879 32.7415 52.9799 33.3415C52.5719 33.9415 52.3679 34.8055 52.3679 35.9335V40.9375H50.7839V31.2895H52.0619L52.2959 32.6035H52.3859C52.6979 32.0995 53.1299 31.7275 53.6819 31.4875C54.2339 31.2355 54.8159 31.1095 55.4279 31.1095ZM65.3309 41.1175C64.1309 41.1175 63.1709 40.7035 62.4509 39.8755C61.7309 39.0355 61.3709 37.7875 61.3709 36.1315C61.3709 34.4755 61.7309 33.2275 62.4509 32.3875C63.1829 31.5355 64.1489 31.1095 65.3489 31.1095C66.0929 31.1095 66.6989 31.2475 67.1669 31.5235C67.6469 31.7995 68.0369 32.1355 68.3369 32.5315H68.4449C68.4329 32.3755 68.4089 32.1475 68.3729 31.8475C68.3489 31.5355 68.3369 31.2895 68.3369 31.1095V27.2575H69.9209V40.9375H68.6429L68.4089 39.6415H68.3369C68.0489 40.0495 67.6649 40.3975 67.1849 40.6855C66.7049 40.9735 66.0869 41.1175 65.3309 41.1175ZM65.5829 39.8035C66.6029 39.8035 67.3169 39.5275 67.7249 38.9755C68.1449 38.4115 68.3549 37.5655 68.3549 36.4375V36.1495C68.3549 34.9495 68.1569 34.0315 67.7609 33.3955C67.3649 32.7475 66.6329 32.4235 65.5649 32.4235C64.7129 32.4235 64.0709 32.7655 63.6389 33.4495C63.2189 34.1215 63.0089 35.0275 63.0089 36.1675C63.0089 37.3195 63.2189 38.2135 63.6389 38.8495C64.0709 39.4855 64.7189 39.8035 65.5829 39.8035ZM79.2449 31.2715C79.2449 31.7515 79.2149 32.2015 79.1549 32.6215H79.2629C79.5749 32.1295 79.9949 31.7575 80.5229 31.5055C81.0629 31.2535 81.6449 31.1275 82.2689 31.1275C83.4449 31.1275 84.3269 31.4095 84.9149 31.9735C85.5029 32.5255 85.7969 33.4195 85.7969 34.6555V40.9375H84.2309V34.7635C84.2309 33.2155 83.5109 32.4415 82.0709 32.4415C80.9909 32.4415 80.2469 32.7475 79.8389 33.3595C79.4429 33.9595 79.2449 34.8235 79.2449 35.9515V40.9375H77.6609V27.2575H79.2449V31.2715ZM92.5138 31.1095C93.3418 31.1095 94.0498 31.2895 94.6378 31.6495C95.2378 32.0095 95.6938 32.5195 96.0058 33.1795C96.3298 33.8275 96.4918 34.5895 96.4918 35.4655V36.4195H89.8858C89.9098 37.5115 90.1858 38.3455 90.7138 38.9215C91.2538 39.4855 92.0038 39.7675 92.9638 39.7675C93.5758 39.7675 94.1158 39.7135 94.5838 39.6055C95.0638 39.4855 95.5558 39.3175 96.0598 39.1015V40.4875C95.5678 40.7035 95.0818 40.8595 94.6018 40.9555C94.1218 41.0635 93.5518 41.1175 92.8918 41.1175C91.9798 41.1175 91.1698 40.9315 90.4618 40.5595C89.7658 40.1875 89.2198 39.6355 88.8238 38.9035C88.4398 38.1595 88.2478 37.2535 88.2478 36.1855C88.2478 35.1295 88.4218 34.2235 88.7698 33.4675C89.1298 32.7115 89.6278 32.1295 90.2638 31.7215C90.9118 31.3135 91.6618 31.1095 92.5138 31.1095ZM92.4958 32.4055C91.7398 32.4055 91.1398 32.6515 90.6958 33.1435C90.2638 33.6235 90.0058 34.2955 89.9218 35.1595H94.8358C94.8238 34.3435 94.6318 33.6835 94.2598 33.1795C93.8878 32.6635 93.2998 32.4055 92.4958 32.4055ZM100.532 40.9375H98.948V27.2575H100.532V40.9375ZM108.179 31.1095C109.367 31.1095 110.321 31.5235 111.041 32.3515C111.773 33.1795 112.139 34.4275 112.139 36.0955C112.139 37.7395 111.773 38.9875 111.041 39.8395C110.321 40.6915 109.361 41.1175 108.161 41.1175C107.417 41.1175 106.799 40.9795 106.307 40.7035C105.827 40.4155 105.449 40.0855 105.173 39.7135H105.065C105.089 39.9175 105.113 40.1755 105.137 40.4875C105.161 40.7995 105.173 41.0695 105.173 41.2975V45.2575H103.589V31.2895H104.885L105.101 32.6035H105.173C105.461 32.1835 105.839 31.8295 106.307 31.5415C106.775 31.2535 107.399 31.1095 108.179 31.1095ZM107.891 32.4415C106.907 32.4415 106.211 32.7175 105.803 33.2695C105.407 33.8215 105.197 34.6615 105.173 35.7895V36.0955C105.173 37.2835 105.365 38.2015 105.749 38.8495C106.145 39.4855 106.871 39.8035 107.927 39.8035C108.515 39.8035 108.995 39.6415 109.367 39.3175C109.751 38.9935 110.033 38.5555 110.213 38.0035C110.405 37.4395 110.501 36.7975 110.501 36.0775C110.501 34.9735 110.285 34.0915 109.853 33.4315C109.433 32.7715 108.779 32.4415 107.891 32.4415ZM122.561 39.8215C122.801 39.8215 123.047 39.8035 123.299 39.7675C123.551 39.7195 123.755 39.6715 123.911 39.6235V40.8295C123.743 40.9135 123.503 40.9795 123.191 41.0275C122.879 41.0875 122.579 41.1175 122.291 41.1175C121.787 41.1175 121.319 41.0335 120.887 40.8655C120.467 40.6855 120.125 40.3795 119.861 39.9475C119.597 39.5155 119.465 38.9095 119.465 38.1295V32.5135H118.097V31.7575L119.483 31.1275L120.113 29.0755H121.049V31.2895H123.839V32.5135H121.049V38.0935C121.049 38.6815 121.187 39.1195 121.463 39.4075C121.751 39.6835 122.117 39.8215 122.561 39.8215ZM127.427 31.2715C127.427 31.7515 127.397 32.2015 127.337 32.6215H127.445C127.757 32.1295 128.177 31.7575 128.705 31.5055C129.245 31.2535 129.827 31.1275 130.451 31.1275C131.627 31.1275 132.509 31.4095 133.097 31.9735C133.685 32.5255 133.979 33.4195 133.979 34.6555V40.9375H132.413V34.7635C132.413 33.2155 131.693 32.4415 130.253 32.4415C129.173 32.4415 128.429 32.7475 128.021 33.3595C127.625 33.9595 127.427 34.8235 127.427 35.9515V40.9375H125.843V27.2575H127.427V31.2715ZM140.695 31.1095C141.523 31.1095 142.231 31.2895 142.819 31.6495C143.419 32.0095 143.875 32.5195 144.187 33.1795C144.511 33.8275 144.673 34.5895 144.673 35.4655V36.4195H138.067C138.091 37.5115 138.367 38.3455 138.895 38.9215C139.435 39.4855 140.185 39.7675 141.145 39.7675C141.757 39.7675 142.297 39.7135 142.765 39.6055C143.245 39.4855 143.737 39.3175 144.241 39.1015V40.4875C143.749 40.7035 143.263 40.8595 142.783 40.9555C142.303 41.0635 141.733 41.1175 141.073 41.1175C140.161 41.1175 139.351 40.9315 138.643 40.5595C137.947 40.1875 137.401 39.6355 137.005 38.9035C136.621 38.1595 136.429 37.2535 136.429 36.1855C136.429 35.1295 136.603 34.2235 136.951 33.4675C137.311 32.7115 137.809 32.1295 138.445 31.7215C139.093 31.3135 139.843 31.1095 140.695 31.1095ZM140.677 32.4055C139.921 32.4055 139.321 32.6515 138.877 33.1435C138.445 33.6235 138.187 34.2955 138.103 35.1595H143.017C143.005 34.3435 142.813 33.6835 142.441 33.1795C142.069 32.6635 141.481 32.4055 140.677 32.4055ZM157.714 31.1095C158.806 31.1095 159.622 31.3915 160.162 31.9555C160.702 32.5075 160.972 33.4075 160.972 34.6555V40.9375H159.406V34.7275C159.406 33.2035 158.752 32.4415 157.444 32.4415C156.508 32.4415 155.836 32.7115 155.428 33.2515C155.032 33.7915 154.834 34.5775 154.834 35.6095V40.9375H153.268V34.7275C153.268 33.2035 152.608 32.4415 151.288 32.4415C150.316 32.4415 149.644 32.7415 149.272 33.3415C148.9 33.9415 148.714 34.8055 148.714 35.9335V40.9375H147.13V31.2895H148.408L148.642 32.6035H148.732C149.032 32.0995 149.434 31.7275 149.938 31.4875C150.454 31.2355 151 31.1095 151.576 31.1095C153.088 31.1095 154.072 31.6495 154.528 32.7295H154.618C154.942 32.1775 155.38 31.7695 155.932 31.5055C156.496 31.2415 157.09 31.1095 157.714 31.1095ZM173.218 31.1095C174.406 31.1095 175.36 31.5235 176.08 32.3515C176.812 33.1795 177.178 34.4275 177.178 36.0955C177.178 37.7395 176.812 38.9875 176.08 39.8395C175.36 40.6915 174.4 41.1175 173.2 41.1175C172.456 41.1175 171.838 40.9795 171.346 40.7035C170.866 40.4155 170.488 40.0855 170.212 39.7135H170.104C170.128 39.9175 170.152 40.1755 170.176 40.4875C170.2 40.7995 170.212 41.0695 170.212 41.2975V45.2575H168.628V31.2895H169.924L170.14 32.6035H170.212C170.5 32.1835 170.878 31.8295 171.346 31.5415C171.814 31.2535 172.438 31.1095 173.218 31.1095ZM172.93 32.4415C171.946 32.4415 171.25 32.7175 170.842 33.2695C170.446 33.8215 170.236 34.6615 170.212 35.7895V36.0955C170.212 37.2835 170.404 38.2015 170.788 38.8495C171.184 39.4855 171.91 39.8035 172.966 39.8035C173.554 39.8035 174.034 39.6415 174.406 39.3175C174.79 38.9935 175.072 38.5555 175.252 38.0035C175.444 37.4395 175.54 36.7975 175.54 36.0775C175.54 34.9735 175.324 34.0915 174.892 33.4315C174.472 32.7715 173.818 32.4415 172.93 32.4415ZM183.428 31.1095C184.256 31.1095 184.964 31.2895 185.552 31.6495C186.152 32.0095 186.608 32.5195 186.92 33.1795C187.244 33.8275 187.406 34.5895 187.406 35.4655V36.4195H180.8C180.824 37.5115 181.1 38.3455 181.628 38.9215C182.168 39.4855 182.918 39.7675 183.878 39.7675C184.49 39.7675 185.03 39.7135 185.498 39.6055C185.978 39.4855 186.47 39.3175 186.974 39.1015V40.4875C186.482 40.7035 185.996 40.8595 185.516 40.9555C185.036 41.0635 184.466 41.1175 183.806 41.1175C182.894 41.1175 182.084 40.9315 181.376 40.5595C180.68 40.1875 180.134 39.6355 179.738 38.9035C179.354 38.1595 179.162 37.2535 179.162 36.1855C179.162 35.1295 179.336 34.2235 179.684 33.4675C180.044 32.7115 180.542 32.1295 181.178 31.7215C181.826 31.3135 182.576 31.1095 183.428 31.1095ZM183.41 32.4055C182.654 32.4055 182.054 32.6515 181.61 33.1435C181.178 33.6235 180.92 34.2955 180.836 35.1595H185.75C185.738 34.3435 185.546 33.6835 185.174 33.1795C184.802 32.6635 184.214 32.4055 183.41 32.4055ZM194.362 31.1095C194.542 31.1095 194.734 31.1215 194.938 31.1455C195.154 31.1575 195.34 31.1815 195.496 31.2175L195.298 32.6755C195.142 32.6395 194.968 32.6095 194.776 32.5855C194.596 32.5615 194.422 32.5495 194.254 32.5495C193.762 32.5495 193.3 32.6875 192.868 32.9635C192.436 33.2275 192.088 33.6055 191.824 34.0975C191.572 34.5775 191.446 35.1415 191.446 35.7895V40.9375H189.862V31.2895H191.158L191.338 33.0535H191.41C191.722 32.5255 192.124 32.0695 192.616 31.6855C193.108 31.3015 193.69 31.1095 194.362 31.1095ZM201.744 32.5135H199.314V40.9375H197.73V32.5135H196.038V31.7755L197.73 31.2355V30.6775C197.73 29.4295 198.006 28.5355 198.558 27.9955C199.11 27.4435 199.878 27.1675 200.862 27.1675C201.246 27.1675 201.594 27.2035 201.906 27.2755C202.23 27.3355 202.506 27.4075 202.734 27.4915L202.32 28.7335C202.128 28.6735 201.906 28.6135 201.654 28.5535C201.402 28.4935 201.144 28.4635 200.88 28.4635C200.352 28.4635 199.956 28.6435 199.692 29.0035C199.44 29.3515 199.314 29.9035 199.314 30.6595V31.2895H201.744V32.5135ZM211.873 36.0955C211.873 37.6915 211.465 38.9275 210.649 39.8035C209.845 40.6795 208.753 41.1175 207.373 41.1175C206.521 41.1175 205.759 40.9255 205.087 40.5415C204.427 40.1455 203.905 39.5755 203.521 38.8315C203.137 38.0755 202.945 37.1635 202.945 36.0955C202.945 34.4995 203.347 33.2695 204.151 32.4055C204.955 31.5415 206.047 31.1095 207.427 31.1095C208.303 31.1095 209.071 31.3075 209.731 31.7035C210.403 32.0875 210.925 32.6515 211.297 33.3955C211.681 34.1275 211.873 35.0275 211.873 36.0955ZM204.583 36.0955C204.583 37.2355 204.805 38.1415 205.249 38.8135C205.705 39.4735 206.425 39.8035 207.409 39.8035C208.381 39.8035 209.095 39.4735 209.551 38.8135C210.007 38.1415 210.235 37.2355 210.235 36.0955C210.235 34.9555 210.007 34.0615 209.551 33.4135C209.095 32.7655 208.375 32.4415 207.391 32.4415C206.407 32.4415 205.693 32.7655 205.249 33.4135C204.805 34.0615 204.583 34.9555 204.583 36.0955ZM218.884 31.1095C219.064 31.1095 219.256 31.1215 219.46 31.1455C219.676 31.1575 219.862 31.1815 220.018 31.2175L219.82 32.6755C219.664 32.6395 219.49 32.6095 219.298 32.5855C219.118 32.5615 218.944 32.5495 218.776 32.5495C218.284 32.5495 217.822 32.6875 217.39 32.9635C216.958 33.2275 216.61 33.6055 216.346 34.0975C216.094 34.5775 215.968 35.1415 215.968 35.7895V40.9375H214.384V31.2895H215.68L215.86 33.0535H215.932C216.244 32.5255 216.646 32.0695 217.138 31.6855C217.63 31.3015 218.212 31.1095 218.884 31.1095ZM232.403 31.1095C233.495 31.1095 234.311 31.3915 234.851 31.9555C235.391 32.5075 235.661 33.4075 235.661 34.6555V40.9375H234.095V34.7275C234.095 33.2035 233.441 32.4415 232.133 32.4415C231.197 32.4415 230.525 32.7115 230.117 33.2515C229.721 33.7915 229.523 34.5775 229.523 35.6095V40.9375H227.957V34.7275C227.957 33.2035 227.297 32.4415 225.977 32.4415C225.005 32.4415 224.333 32.7415 223.961 33.3415C223.589 33.9415 223.403 34.8055 223.403 35.9335V40.9375H221.819V31.2895H223.097L223.331 32.6035H223.421C223.721 32.0995 224.123 31.7275 224.627 31.4875C225.143 31.2355 225.689 31.1095 226.265 31.1095C227.777 31.1095 228.761 31.6495 229.217 32.7295H229.307C229.631 32.1775 230.069 31.7695 230.621 31.5055C231.185 31.2415 231.779 31.1095 232.403 31.1095ZM240.045 37.3195H239.019L238.569 28.0855H240.495L240.045 37.3195ZM238.407 39.9655C238.407 39.5215 238.515 39.2095 238.731 39.0295C238.947 38.8495 239.211 38.7595 239.523 38.7595C239.823 38.7595 240.081 38.8495 240.297 39.0295C240.525 39.2095 240.639 39.5215 240.639 39.9655C240.639 40.3975 240.525 40.7095 240.297 40.9015C240.081 41.0935 239.823 41.1895 239.523 41.1895C239.211 41.1895 238.947 41.0935 238.731 40.9015C238.515 40.7095 238.407 40.3975 238.407 39.9655Z" fill="#163A24"/>
</svg>
